<?xml version="1.0" encoding="utf-8" standalone="no"?>
<!DOCTYPE svg PUBLIC "-//W3C//DTD SVG 1.1//EN"
  "http://www.w3.org/Graphics/SVG/1.1/DTD/svg11.dtd">
<svg xmlns:xlink="http://www.w3.org/1999/xlink" width="432pt" height="288pt" viewBox="0 0 432 288" xmlns="http://www.w3.org/2000/svg" version="1.1">
 <metadata>
  <rdf:RDF xmlns:dc="http://purl.org/dc/elements/1.1/" xmlns:cc="http://creativecommons.org/ns#" xmlns:rdf="http://www.w3.org/1999/02/22-rdf-syntax-ns#">
   <cc:Work>
    <dc:type rdf:resource="http://purl.org/dc/dcmitype/StillImage"/>
    <dc:date>2024-11-10T15:31:08.285854</dc:date>
    <dc:format>image/svg+xml</dc:format>
    <dc:creator>
     <cc:Agent>
      <dc:title>Matplotlib v3.9.1, https://matplotlib.org/</dc:title>
     </cc:Agent>
    </dc:creator>
   </cc:Work>
  </rdf:RDF>
 </metadata>
 <defs>
  <style type="text/css">*{stroke-linejoin: round; stroke-linecap: butt}</style>
 </defs>
 <g id="figure_1">
  <g id="patch_1">
   <path d="M 0 288 
L 432 288 
L 432 0 
L 0 0 
z
" style="fill: #ffffff"/>
  </g>
  <g id="axes_1">
   <g id="patch_2">
    <path d="M 54 256.32 
L 388.8 256.32 
L 388.8 34.56 
L 54 34.56 
z
" style="fill: #ffffff"/>
   </g>
   <g id="matplotlib.axis_1">
    <g id="xtick_1">
     <g id="line2d_1">
      <path d="M 69.218182 256.32 
L 69.218182 34.56 
" clip-path="url(#pcff9d215be)" style="fill: none; stroke: #b0b0b0; stroke-width: 0.2; stroke-linecap: square"/>
     </g>
     <g id="line2d_2">
      <defs>
       <path id="mec7b39bf02" d="M 0 0 
L 0 3.5 
" style="stroke: #000000; stroke-width: 0.8"/>
      </defs>
      <g>
       <use xlink:href="#mec7b39bf02" x="69.218182" y="256.32" style="stroke: #000000; stroke-width: 0.8"/>
      </g>
     </g>
     <g id="text_1">
      <!-- 0 -->
      <g transform="translate(65.718807 271.678281) scale(0.11 -0.11)">
       <defs>
        <path id="DejaVuSans-30" d="M 2034 4250 
Q 1547 4250 1301 3770 
Q 1056 3291 1056 2328 
Q 1056 1369 1301 889 
Q 1547 409 2034 409 
Q 2525 409 2770 889 
Q 3016 1369 3016 2328 
Q 3016 3291 2770 3770 
Q 2525 4250 2034 4250 
z
M 2034 4750 
Q 2819 4750 3233 4129 
Q 3647 3509 3647 2328 
Q 3647 1150 3233 529 
Q 2819 -91 2034 -91 
Q 1250 -91 836 529 
Q 422 1150 422 2328 
Q 422 3509 836 4129 
Q 1250 4750 2034 4750 
z
" transform="scale(0.015625)"/>
       </defs>
       <use xlink:href="#DejaVuSans-30"/>
      </g>
     </g>
    </g>
    <g id="xtick_2">
     <g id="line2d_3">
      <path d="M 119.945455 256.32 
L 119.945455 34.56 
" clip-path="url(#pcff9d215be)" style="fill: none; stroke: #b0b0b0; stroke-width: 0.2; stroke-linecap: square"/>
     </g>
     <g id="line2d_4">
      <g>
       <use xlink:href="#mec7b39bf02" x="119.945455" y="256.32" style="stroke: #000000; stroke-width: 0.8"/>
      </g>
     </g>
     <g id="text_2">
      <!-- 5 -->
      <g transform="translate(116.44608 271.678281) scale(0.11 -0.11)">
       <defs>
        <path id="DejaVuSans-35" d="M 691 4666 
L 3169 4666 
L 3169 4134 
L 1269 4134 
L 1269 2991 
Q 1406 3038 1543 3061 
Q 1681 3084 1819 3084 
Q 2600 3084 3056 2656 
Q 3513 2228 3513 1497 
Q 3513 744 3044 326 
Q 2575 -91 1722 -91 
Q 1428 -91 1123 -41 
Q 819 9 494 109 
L 494 744 
Q 775 591 1075 516 
Q 1375 441 1709 441 
Q 2250 441 2565 725 
Q 2881 1009 2881 1497 
Q 2881 1984 2565 2268 
Q 2250 2553 1709 2553 
Q 1456 2553 1204 2497 
Q 953 2441 691 2322 
L 691 4666 
z
" transform="scale(0.015625)"/>
       </defs>
       <use xlink:href="#DejaVuSans-35"/>
      </g>
     </g>
    </g>
    <g id="xtick_3">
     <g id="line2d_5">
      <path d="M 170.672727 256.32 
L 170.672727 34.56 
" clip-path="url(#pcff9d215be)" style="fill: none; stroke: #b0b0b0; stroke-width: 0.2; stroke-linecap: square"/>
     </g>
     <g id="line2d_6">
      <g>
       <use xlink:href="#mec7b39bf02" x="170.672727" y="256.32" style="stroke: #000000; stroke-width: 0.8"/>
      </g>
     </g>
     <g id="text_3">
      <!-- 10 -->
      <g transform="translate(163.673977 271.678281) scale(0.11 -0.11)">
       <defs>
        <path id="DejaVuSans-31" d="M 794 531 
L 1825 531 
L 1825 4091 
L 703 3866 
L 703 4441 
L 1819 4666 
L 2450 4666 
L 2450 531 
L 3481 531 
L 3481 0 
L 794 0 
L 794 531 
z
" transform="scale(0.015625)"/>
       </defs>
       <use xlink:href="#DejaVuSans-31"/>
       <use xlink:href="#DejaVuSans-30" x="63.623047"/>
      </g>
     </g>
    </g>
    <g id="xtick_4">
     <g id="line2d_7">
      <path d="M 221.4 256.32 
L 221.4 34.56 
" clip-path="url(#pcff9d215be)" style="fill: none; stroke: #b0b0b0; stroke-width: 0.2; stroke-linecap: square"/>
     </g>
     <g id="line2d_8">
      <g>
       <use xlink:href="#mec7b39bf02" x="221.4" y="256.32" style="stroke: #000000; stroke-width: 0.8"/>
      </g>
     </g>
     <g id="text_4">
      <!-- 15 -->
      <g transform="translate(214.40125 271.678281) scale(0.11 -0.11)">
       <use xlink:href="#DejaVuSans-31"/>
       <use xlink:href="#DejaVuSans-35" x="63.623047"/>
      </g>
     </g>
    </g>
    <g id="xtick_5">
     <g id="line2d_9">
      <path d="M 272.127273 256.32 
L 272.127273 34.56 
" clip-path="url(#pcff9d215be)" style="fill: none; stroke: #b0b0b0; stroke-width: 0.2; stroke-linecap: square"/>
     </g>
     <g id="line2d_10">
      <g>
       <use xlink:href="#mec7b39bf02" x="272.127273" y="256.32" style="stroke: #000000; stroke-width: 0.8"/>
      </g>
     </g>
     <g id="text_5">
      <!-- 20 -->
      <g transform="translate(265.128523 271.678281) scale(0.11 -0.11)">
       <defs>
        <path id="DejaVuSans-32" d="M 1228 531 
L 3431 531 
L 3431 0 
L 469 0 
L 469 531 
Q 828 903 1448 1529 
Q 2069 2156 2228 2338 
Q 2531 2678 2651 2914 
Q 2772 3150 2772 3378 
Q 2772 3750 2511 3984 
Q 2250 4219 1831 4219 
Q 1534 4219 1204 4116 
Q 875 4013 500 3803 
L 500 4441 
Q 881 4594 1212 4672 
Q 1544 4750 1819 4750 
Q 2544 4750 2975 4387 
Q 3406 4025 3406 3419 
Q 3406 3131 3298 2873 
Q 3191 2616 2906 2266 
Q 2828 2175 2409 1742 
Q 1991 1309 1228 531 
z
" transform="scale(0.015625)"/>
       </defs>
       <use xlink:href="#DejaVuSans-32"/>
       <use xlink:href="#DejaVuSans-30" x="63.623047"/>
      </g>
     </g>
    </g>
    <g id="xtick_6">
     <g id="line2d_11">
      <path d="M 322.854545 256.32 
L 322.854545 34.56 
" clip-path="url(#pcff9d215be)" style="fill: none; stroke: #b0b0b0; stroke-width: 0.2; stroke-linecap: square"/>
     </g>
     <g id="line2d_12">
      <g>
       <use xlink:href="#mec7b39bf02" x="322.854545" y="256.32" style="stroke: #000000; stroke-width: 0.8"/>
      </g>
     </g>
     <g id="text_6">
      <!-- 25 -->
      <g transform="translate(315.855795 271.678281) scale(0.11 -0.11)">
       <use xlink:href="#DejaVuSans-32"/>
       <use xlink:href="#DejaVuSans-35" x="63.623047"/>
      </g>
     </g>
    </g>
    <g id="xtick_7">
     <g id="line2d_13">
      <path d="M 373.581818 256.32 
L 373.581818 34.56 
" clip-path="url(#pcff9d215be)" style="fill: none; stroke: #b0b0b0; stroke-width: 0.2; stroke-linecap: square"/>
     </g>
     <g id="line2d_14">
      <g>
       <use xlink:href="#mec7b39bf02" x="373.581818" y="256.32" style="stroke: #000000; stroke-width: 0.8"/>
      </g>
     </g>
     <g id="text_7">
      <!-- 30 -->
      <g transform="translate(366.583068 271.678281) scale(0.11 -0.11)">
       <defs>
        <path id="DejaVuSans-33" d="M 2597 2516 
Q 3050 2419 3304 2112 
Q 3559 1806 3559 1356 
Q 3559 666 3084 287 
Q 2609 -91 1734 -91 
Q 1441 -91 1130 -33 
Q 819 25 488 141 
L 488 750 
Q 750 597 1062 519 
Q 1375 441 1716 441 
Q 2309 441 2620 675 
Q 2931 909 2931 1356 
Q 2931 1769 2642 2001 
Q 2353 2234 1838 2234 
L 1294 2234 
L 1294 2753 
L 1863 2753 
Q 2328 2753 2575 2939 
Q 2822 3125 2822 3475 
Q 2822 3834 2567 4026 
Q 2313 4219 1838 4219 
Q 1578 4219 1281 4162 
Q 984 4106 628 3988 
L 628 4550 
Q 988 4650 1302 4700 
Q 1616 4750 1894 4750 
Q 2613 4750 3031 4423 
Q 3450 4097 3450 3541 
Q 3450 3153 3228 2886 
Q 3006 2619 2597 2516 
z
" transform="scale(0.015625)"/>
       </defs>
       <use xlink:href="#DejaVuSans-33"/>
       <use xlink:href="#DejaVuSans-30" x="63.623047"/>
      </g>
     </g>
    </g>
    <g id="text_8">
     <!-- Time (s) -->
     <g transform="translate(202.807422 285.604062) scale(0.11 -0.11)">
      <defs>
       <path id="TimesNewRomanPSMT-54" d="M 3703 4238 
L 3750 3244 
L 3631 3244 
Q 3597 3506 3538 3619 
Q 3441 3800 3280 3886 
Q 3119 3972 2856 3972 
L 2259 3972 
L 2259 734 
Q 2259 344 2344 247 
Q 2463 116 2709 116 
L 2856 116 
L 2856 0 
L 1059 0 
L 1059 116 
L 1209 116 
Q 1478 116 1591 278 
Q 1659 378 1659 734 
L 1659 3972 
L 1150 3972 
Q 853 3972 728 3928 
Q 566 3869 450 3700 
Q 334 3531 313 3244 
L 194 3244 
L 244 4238 
L 3703 4238 
z
" transform="scale(0.015625)"/>
       <path id="TimesNewRomanPSMT-69" d="M 928 4444 
Q 1059 4444 1151 4351 
Q 1244 4259 1244 4128 
Q 1244 3997 1151 3903 
Q 1059 3809 928 3809 
Q 797 3809 703 3903 
Q 609 3997 609 4128 
Q 609 4259 701 4351 
Q 794 4444 928 4444 
z
M 1188 2947 
L 1188 647 
Q 1188 378 1227 289 
Q 1266 200 1342 156 
Q 1419 113 1622 113 
L 1622 0 
L 231 0 
L 231 113 
Q 441 113 512 153 
Q 584 194 626 287 
Q 669 381 669 647 
L 669 1750 
Q 669 2216 641 2353 
Q 619 2453 572 2492 
Q 525 2531 444 2531 
Q 356 2531 231 2484 
L 188 2597 
L 1050 2947 
L 1188 2947 
z
" transform="scale(0.015625)"/>
       <path id="TimesNewRomanPSMT-6d" d="M 1050 2338 
Q 1363 2650 1419 2697 
Q 1559 2816 1721 2881 
Q 1884 2947 2044 2947 
Q 2313 2947 2506 2790 
Q 2700 2634 2766 2338 
Q 3088 2713 3309 2830 
Q 3531 2947 3766 2947 
Q 3994 2947 4170 2830 
Q 4347 2713 4450 2447 
Q 4519 2266 4519 1878 
L 4519 647 
Q 4519 378 4559 278 
Q 4591 209 4675 161 
Q 4759 113 4950 113 
L 4950 0 
L 3538 0 
L 3538 113 
L 3597 113 
Q 3781 113 3884 184 
Q 3956 234 3988 344 
Q 4000 397 4000 647 
L 4000 1878 
Q 4000 2228 3916 2372 
Q 3794 2572 3525 2572 
Q 3359 2572 3192 2489 
Q 3025 2406 2788 2181 
L 2781 2147 
L 2788 2013 
L 2788 647 
Q 2788 353 2820 281 
Q 2853 209 2943 161 
Q 3034 113 3253 113 
L 3253 0 
L 1806 0 
L 1806 113 
Q 2044 113 2133 169 
Q 2222 225 2256 338 
Q 2272 391 2272 647 
L 2272 1878 
Q 2272 2228 2169 2381 
Q 2031 2581 1784 2581 
Q 1616 2581 1450 2491 
Q 1191 2353 1050 2181 
L 1050 647 
Q 1050 366 1089 281 
Q 1128 197 1204 155 
Q 1281 113 1516 113 
L 1516 0 
L 100 0 
L 100 113 
Q 297 113 375 155 
Q 453 197 493 289 
Q 534 381 534 647 
L 534 1741 
Q 534 2213 506 2350 
Q 484 2453 437 2492 
Q 391 2531 309 2531 
Q 222 2531 100 2484 
L 53 2597 
L 916 2947 
L 1050 2947 
L 1050 2338 
z
" transform="scale(0.015625)"/>
       <path id="TimesNewRomanPSMT-65" d="M 681 1784 
Q 678 1147 991 784 
Q 1303 422 1725 422 
Q 2006 422 2214 576 
Q 2422 731 2563 1106 
L 2659 1044 
Q 2594 616 2278 264 
Q 1963 -88 1488 -88 
Q 972 -88 605 314 
Q 238 716 238 1394 
Q 238 2128 614 2539 
Q 991 2950 1559 2950 
Q 2041 2950 2350 2633 
Q 2659 2316 2659 1784 
L 681 1784 
z
M 681 1966 
L 2006 1966 
Q 1991 2241 1941 2353 
Q 1863 2528 1708 2628 
Q 1553 2728 1384 2728 
Q 1125 2728 920 2526 
Q 716 2325 681 1966 
z
" transform="scale(0.015625)"/>
       <path id="TimesNewRomanPSMT-20" transform="scale(0.015625)"/>
       <path id="TimesNewRomanPSMT-28" d="M 1988 -1253 
L 1988 -1369 
Q 1516 -1131 1200 -813 
Q 750 -359 506 256 
Q 263 872 263 1534 
Q 263 2503 741 3301 
Q 1219 4100 1988 4444 
L 1988 4313 
Q 1603 4100 1356 3731 
Q 1109 3363 987 2797 
Q 866 2231 866 1616 
Q 866 947 969 400 
Q 1050 -31 1165 -292 
Q 1281 -553 1476 -793 
Q 1672 -1034 1988 -1253 
z
" transform="scale(0.015625)"/>
       <path id="TimesNewRomanPSMT-73" d="M 2050 2947 
L 2050 1972 
L 1947 1972 
Q 1828 2431 1642 2597 
Q 1456 2763 1169 2763 
Q 950 2763 815 2647 
Q 681 2531 681 2391 
Q 681 2216 781 2091 
Q 878 1963 1175 1819 
L 1631 1597 
Q 2266 1288 2266 781 
Q 2266 391 1970 151 
Q 1675 -88 1309 -88 
Q 1047 -88 709 6 
Q 606 38 541 38 
Q 469 38 428 -44 
L 325 -44 
L 325 978 
L 428 978 
Q 516 541 762 319 
Q 1009 97 1316 97 
Q 1531 97 1667 223 
Q 1803 350 1803 528 
Q 1803 744 1651 891 
Q 1500 1038 1047 1263 
Q 594 1488 453 1669 
Q 313 1847 313 2119 
Q 313 2472 555 2709 
Q 797 2947 1181 2947 
Q 1350 2947 1591 2875 
Q 1750 2828 1803 2828 
Q 1853 2828 1881 2850 
Q 1909 2872 1947 2947 
L 2050 2947 
z
" transform="scale(0.015625)"/>
       <path id="TimesNewRomanPSMT-29" d="M 144 4313 
L 144 4444 
Q 619 4209 934 3891 
Q 1381 3434 1625 2820 
Q 1869 2206 1869 1541 
Q 1869 572 1392 -226 
Q 916 -1025 144 -1369 
L 144 -1253 
Q 528 -1038 776 -670 
Q 1025 -303 1145 264 
Q 1266 831 1266 1447 
Q 1266 2113 1163 2663 
Q 1084 3094 967 3353 
Q 850 3613 656 3853 
Q 463 4094 144 4313 
z
" transform="scale(0.015625)"/>
      </defs>
      <use xlink:href="#TimesNewRomanPSMT-54"/>
      <use xlink:href="#TimesNewRomanPSMT-69" x="57.583984"/>
      <use xlink:href="#TimesNewRomanPSMT-6d" x="85.367188"/>
      <use xlink:href="#TimesNewRomanPSMT-65" x="163.150391"/>
      <use xlink:href="#TimesNewRomanPSMT-20" x="207.535156"/>
      <use xlink:href="#TimesNewRomanPSMT-28" x="232.535156"/>
      <use xlink:href="#TimesNewRomanPSMT-73" x="265.835938"/>
      <use xlink:href="#TimesNewRomanPSMT-29" x="304.751953"/>
     </g>
    </g>
   </g>
   <g id="matplotlib.axis_2">
    <g id="ytick_1">
     <g id="line2d_15">
      <path d="M 54 256.311091 
L 388.8 256.311091 
" clip-path="url(#pcff9d215be)" style="fill: none; stroke: #b0b0b0; stroke-width: 0.2; stroke-linecap: square"/>
     </g>
     <g id="line2d_16">
      <defs>
       <path id="m92a8aa01cd" d="M 0 0 
L -3.5 0 
" style="stroke: #000000; stroke-width: 0.8"/>
      </defs>
      <g>
       <use xlink:href="#m92a8aa01cd" x="54" y="256.311091" style="stroke: #000000; stroke-width: 0.8"/>
      </g>
     </g>
     <g id="text_9">
      <!-- −20 -->
      <g transform="translate(23.784844 260.490232) scale(0.11 -0.11)">
       <defs>
        <path id="DejaVuSans-2212" d="M 678 2272 
L 4684 2272 
L 4684 1741 
L 678 1741 
L 678 2272 
z
" transform="scale(0.015625)"/>
       </defs>
       <use xlink:href="#DejaVuSans-2212"/>
       <use xlink:href="#DejaVuSans-32" x="83.789062"/>
       <use xlink:href="#DejaVuSans-30" x="147.412109"/>
      </g>
     </g>
    </g>
    <g id="ytick_2">
     <g id="line2d_17">
      <path d="M 54 228.55487 
L 388.8 228.55487 
" clip-path="url(#pcff9d215be)" style="fill: none; stroke: #b0b0b0; stroke-width: 0.2; stroke-linecap: square"/>
     </g>
     <g id="line2d_18">
      <g>
       <use xlink:href="#m92a8aa01cd" x="54" y="228.55487" style="stroke: #000000; stroke-width: 0.8"/>
      </g>
     </g>
     <g id="text_10">
      <!-- −15 -->
      <g transform="translate(23.784844 232.734011) scale(0.11 -0.11)">
       <use xlink:href="#DejaVuSans-2212"/>
       <use xlink:href="#DejaVuSans-31" x="83.789062"/>
       <use xlink:href="#DejaVuSans-35" x="147.412109"/>
      </g>
     </g>
    </g>
    <g id="ytick_3">
     <g id="line2d_19">
      <path d="M 54 200.79865 
L 388.8 200.79865 
" clip-path="url(#pcff9d215be)" style="fill: none; stroke: #b0b0b0; stroke-width: 0.2; stroke-linecap: square"/>
     </g>
     <g id="line2d_20">
      <g>
       <use xlink:href="#m92a8aa01cd" x="54" y="200.79865" style="stroke: #000000; stroke-width: 0.8"/>
      </g>
     </g>
     <g id="text_11">
      <!-- −10 -->
      <g transform="translate(23.784844 204.97779) scale(0.11 -0.11)">
       <use xlink:href="#DejaVuSans-2212"/>
       <use xlink:href="#DejaVuSans-31" x="83.789062"/>
       <use xlink:href="#DejaVuSans-30" x="147.412109"/>
      </g>
     </g>
    </g>
    <g id="ytick_4">
     <g id="line2d_21">
      <path d="M 54 173.042429 
L 388.8 173.042429 
" clip-path="url(#pcff9d215be)" style="fill: none; stroke: #b0b0b0; stroke-width: 0.2; stroke-linecap: square"/>
     </g>
     <g id="line2d_22">
      <g>
       <use xlink:href="#m92a8aa01cd" x="54" y="173.042429" style="stroke: #000000; stroke-width: 0.8"/>
      </g>
     </g>
     <g id="text_12">
      <!-- −5 -->
      <g transform="translate(30.783594 177.221569) scale(0.11 -0.11)">
       <use xlink:href="#DejaVuSans-2212"/>
       <use xlink:href="#DejaVuSans-35" x="83.789062"/>
      </g>
     </g>
    </g>
    <g id="ytick_5">
     <g id="line2d_23">
      <path d="M 54 145.286208 
L 388.8 145.286208 
" clip-path="url(#pcff9d215be)" style="fill: none; stroke: #b0b0b0; stroke-width: 0.2; stroke-linecap: square"/>
     </g>
     <g id="line2d_24">
      <g>
       <use xlink:href="#m92a8aa01cd" x="54" y="145.286208" style="stroke: #000000; stroke-width: 0.8"/>
      </g>
     </g>
     <g id="text_13">
      <!-- 0 -->
      <g transform="translate(40.00125 149.465348) scale(0.11 -0.11)">
       <use xlink:href="#DejaVuSans-30"/>
      </g>
     </g>
    </g>
    <g id="ytick_6">
     <g id="line2d_25">
      <path d="M 54 117.529987 
L 388.8 117.529987 
" clip-path="url(#pcff9d215be)" style="fill: none; stroke: #b0b0b0; stroke-width: 0.2; stroke-linecap: square"/>
     </g>
     <g id="line2d_26">
      <g>
       <use xlink:href="#m92a8aa01cd" x="54" y="117.529987" style="stroke: #000000; stroke-width: 0.8"/>
      </g>
     </g>
     <g id="text_14">
      <!-- 5 -->
      <g transform="translate(40.00125 121.709127) scale(0.11 -0.11)">
       <use xlink:href="#DejaVuSans-35"/>
      </g>
     </g>
    </g>
    <g id="ytick_7">
     <g id="line2d_27">
      <path d="M 54 89.773766 
L 388.8 89.773766 
" clip-path="url(#pcff9d215be)" style="fill: none; stroke: #b0b0b0; stroke-width: 0.2; stroke-linecap: square"/>
     </g>
     <g id="line2d_28">
      <g>
       <use xlink:href="#m92a8aa01cd" x="54" y="89.773766" style="stroke: #000000; stroke-width: 0.8"/>
      </g>
     </g>
     <g id="text_15">
      <!-- 10 -->
      <g transform="translate(33.0025 93.952907) scale(0.11 -0.11)">
       <use xlink:href="#DejaVuSans-31"/>
       <use xlink:href="#DejaVuSans-30" x="63.623047"/>
      </g>
     </g>
    </g>
    <g id="ytick_8">
     <g id="line2d_29">
      <path d="M 54 62.017545 
L 388.8 62.017545 
" clip-path="url(#pcff9d215be)" style="fill: none; stroke: #b0b0b0; stroke-width: 0.2; stroke-linecap: square"/>
     </g>
     <g id="line2d_30">
      <g>
       <use xlink:href="#m92a8aa01cd" x="54" y="62.017545" style="stroke: #000000; stroke-width: 0.8"/>
      </g>
     </g>
     <g id="text_16">
      <!-- 15 -->
      <g transform="translate(33.0025 66.196686) scale(0.11 -0.11)">
       <use xlink:href="#DejaVuSans-31"/>
       <use xlink:href="#DejaVuSans-35" x="63.623047"/>
      </g>
     </g>
    </g>
    <g id="text_17">
     <!-- Angular velocity of the link - $\omega_{l}$ (rad/s) -->
     <g transform="translate(17.364844 232.725) rotate(-90) scale(0.11 -0.11)">
      <defs>
       <path id="TimesNewRomanPSMT-41" d="M 2928 1419 
L 1288 1419 
L 1000 750 
Q 894 503 894 381 
Q 894 284 986 211 
Q 1078 138 1384 116 
L 1384 0 
L 50 0 
L 50 116 
Q 316 163 394 238 
Q 553 388 747 847 
L 2238 4334 
L 2347 4334 
L 3822 809 
Q 4000 384 4145 257 
Q 4291 131 4550 116 
L 4550 0 
L 2878 0 
L 2878 116 
Q 3131 128 3220 200 
Q 3309 272 3309 375 
Q 3309 513 3184 809 
L 2928 1419 
z
M 2841 1650 
L 2122 3363 
L 1384 1650 
L 2841 1650 
z
" transform="scale(0.015625)"/>
       <path id="TimesNewRomanPSMT-6e" d="M 1034 2341 
Q 1538 2947 1994 2947 
Q 2228 2947 2397 2830 
Q 2566 2713 2666 2444 
Q 2734 2256 2734 1869 
L 2734 647 
Q 2734 375 2778 278 
Q 2813 200 2889 156 
Q 2966 113 3172 113 
L 3172 0 
L 1756 0 
L 1756 113 
L 1816 113 
Q 2016 113 2095 173 
Q 2175 234 2206 353 
Q 2219 400 2219 647 
L 2219 1819 
Q 2219 2209 2117 2386 
Q 2016 2563 1775 2563 
Q 1403 2563 1034 2156 
L 1034 647 
Q 1034 356 1069 288 
Q 1113 197 1189 155 
Q 1266 113 1500 113 
L 1500 0 
L 84 0 
L 84 113 
L 147 113 
Q 366 113 442 223 
Q 519 334 519 647 
L 519 1709 
Q 519 2225 495 2337 
Q 472 2450 423 2490 
Q 375 2531 294 2531 
Q 206 2531 84 2484 
L 38 2597 
L 900 2947 
L 1034 2947 
L 1034 2341 
z
" transform="scale(0.015625)"/>
       <path id="TimesNewRomanPSMT-67" d="M 966 1044 
Q 703 1172 562 1401 
Q 422 1631 422 1909 
Q 422 2334 742 2640 
Q 1063 2947 1563 2947 
Q 1972 2947 2272 2747 
L 2878 2747 
Q 3013 2747 3034 2739 
Q 3056 2731 3066 2713 
Q 3084 2684 3084 2613 
Q 3084 2531 3069 2500 
Q 3059 2484 3036 2475 
Q 3013 2466 2878 2466 
L 2506 2466 
Q 2681 2241 2681 1891 
Q 2681 1491 2375 1206 
Q 2069 922 1553 922 
Q 1341 922 1119 984 
Q 981 866 932 777 
Q 884 688 884 625 
Q 884 572 936 522 
Q 988 472 1138 450 
Q 1225 438 1575 428 
Q 2219 413 2409 384 
Q 2700 344 2873 169 
Q 3047 -6 3047 -263 
Q 3047 -616 2716 -925 
Q 2228 -1381 1444 -1381 
Q 841 -1381 425 -1109 
Q 191 -953 191 -784 
Q 191 -709 225 -634 
Q 278 -519 444 -313 
Q 466 -284 763 25 
Q 600 122 533 198 
Q 466 275 466 372 
Q 466 481 555 628 
Q 644 775 966 1044 
z
M 1509 2797 
Q 1278 2797 1122 2612 
Q 966 2428 966 2047 
Q 966 1553 1178 1281 
Q 1341 1075 1591 1075 
Q 1828 1075 1981 1253 
Q 2134 1431 2134 1813 
Q 2134 2309 1919 2591 
Q 1759 2797 1509 2797 
z
M 934 0 
Q 788 -159 713 -296 
Q 638 -434 638 -550 
Q 638 -700 819 -813 
Q 1131 -1006 1722 -1006 
Q 2284 -1006 2551 -807 
Q 2819 -609 2819 -384 
Q 2819 -222 2659 -153 
Q 2497 -84 2016 -72 
Q 1313 -53 934 0 
z
" transform="scale(0.015625)"/>
       <path id="TimesNewRomanPSMT-75" d="M 2709 2863 
L 2709 1128 
Q 2709 631 2732 520 
Q 2756 409 2807 365 
Q 2859 322 2928 322 
Q 3025 322 3147 375 
L 3191 266 
L 2334 -88 
L 2194 -88 
L 2194 519 
Q 1825 119 1631 15 
Q 1438 -88 1222 -88 
Q 981 -88 804 51 
Q 628 191 559 409 
Q 491 628 491 1028 
L 491 2306 
Q 491 2509 447 2587 
Q 403 2666 317 2708 
Q 231 2750 6 2747 
L 6 2863 
L 1009 2863 
L 1009 947 
Q 1009 547 1148 422 
Q 1288 297 1484 297 
Q 1619 297 1789 381 
Q 1959 466 2194 703 
L 2194 2325 
Q 2194 2569 2105 2655 
Q 2016 2741 1734 2747 
L 1734 2863 
L 2709 2863 
z
" transform="scale(0.015625)"/>
       <path id="TimesNewRomanPSMT-6c" d="M 1184 4444 
L 1184 647 
Q 1184 378 1223 290 
Q 1263 203 1344 158 
Q 1425 113 1647 113 
L 1647 0 
L 244 0 
L 244 113 
Q 441 113 512 153 
Q 584 194 625 287 
Q 666 381 666 647 
L 666 3247 
Q 666 3731 644 3842 
Q 622 3953 573 3993 
Q 525 4034 450 4034 
Q 369 4034 244 3984 
L 191 4094 
L 1044 4444 
L 1184 4444 
z
" transform="scale(0.015625)"/>
       <path id="TimesNewRomanPSMT-61" d="M 1822 413 
Q 1381 72 1269 19 
Q 1100 -59 909 -59 
Q 613 -59 420 144 
Q 228 347 228 678 
Q 228 888 322 1041 
Q 450 1253 767 1440 
Q 1084 1628 1822 1897 
L 1822 2009 
Q 1822 2438 1686 2597 
Q 1550 2756 1291 2756 
Q 1094 2756 978 2650 
Q 859 2544 859 2406 
L 866 2225 
Q 866 2081 792 2003 
Q 719 1925 600 1925 
Q 484 1925 411 2006 
Q 338 2088 338 2228 
Q 338 2497 613 2722 
Q 888 2947 1384 2947 
Q 1766 2947 2009 2819 
Q 2194 2722 2281 2516 
Q 2338 2381 2338 1966 
L 2338 994 
Q 2338 584 2353 492 
Q 2369 400 2405 369 
Q 2441 338 2488 338 
Q 2538 338 2575 359 
Q 2641 400 2828 588 
L 2828 413 
Q 2478 -56 2159 -56 
Q 2006 -56 1915 50 
Q 1825 156 1822 413 
z
M 1822 616 
L 1822 1706 
Q 1350 1519 1213 1441 
Q 966 1303 859 1153 
Q 753 1003 753 825 
Q 753 600 887 451 
Q 1022 303 1197 303 
Q 1434 303 1822 616 
z
" transform="scale(0.015625)"/>
       <path id="TimesNewRomanPSMT-72" d="M 1038 2947 
L 1038 2303 
Q 1397 2947 1775 2947 
Q 1947 2947 2059 2842 
Q 2172 2738 2172 2600 
Q 2172 2478 2090 2393 
Q 2009 2309 1897 2309 
Q 1788 2309 1652 2417 
Q 1516 2525 1450 2525 
Q 1394 2525 1328 2463 
Q 1188 2334 1038 2041 
L 1038 669 
Q 1038 431 1097 309 
Q 1138 225 1241 169 
Q 1344 113 1538 113 
L 1538 0 
L 72 0 
L 72 113 
Q 291 113 397 181 
Q 475 231 506 341 
Q 522 394 522 644 
L 522 1753 
Q 522 2253 501 2348 
Q 481 2444 426 2487 
Q 372 2531 291 2531 
Q 194 2531 72 2484 
L 41 2597 
L 906 2947 
L 1038 2947 
z
" transform="scale(0.015625)"/>
       <path id="TimesNewRomanPSMT-76" d="M 53 2863 
L 1400 2863 
L 1400 2747 
L 1313 2747 
Q 1191 2747 1127 2687 
Q 1063 2628 1063 2528 
Q 1063 2419 1128 2269 
L 1794 688 
L 2463 2328 
Q 2534 2503 2534 2594 
Q 2534 2638 2509 2666 
Q 2475 2713 2422 2730 
Q 2369 2747 2206 2747 
L 2206 2863 
L 3141 2863 
L 3141 2747 
Q 2978 2734 2916 2681 
Q 2806 2588 2719 2369 
L 1703 -88 
L 1575 -88 
L 553 2328 
Q 484 2497 421 2570 
Q 359 2644 263 2694 
Q 209 2722 53 2747 
L 53 2863 
z
" transform="scale(0.015625)"/>
       <path id="TimesNewRomanPSMT-6f" d="M 1600 2947 
Q 2250 2947 2644 2453 
Q 2978 2031 2978 1484 
Q 2978 1100 2793 706 
Q 2609 313 2286 112 
Q 1963 -88 1566 -88 
Q 919 -88 538 428 
Q 216 863 216 1403 
Q 216 1797 411 2186 
Q 606 2575 925 2761 
Q 1244 2947 1600 2947 
z
M 1503 2744 
Q 1338 2744 1170 2645 
Q 1003 2547 900 2300 
Q 797 2053 797 1666 
Q 797 1041 1045 587 
Q 1294 134 1700 134 
Q 2003 134 2200 384 
Q 2397 634 2397 1244 
Q 2397 2006 2069 2444 
Q 1847 2744 1503 2744 
z
" transform="scale(0.015625)"/>
       <path id="TimesNewRomanPSMT-63" d="M 2631 1088 
Q 2516 522 2178 217 
Q 1841 -88 1431 -88 
Q 944 -88 581 321 
Q 219 731 219 1428 
Q 219 2103 620 2525 
Q 1022 2947 1584 2947 
Q 2006 2947 2278 2723 
Q 2550 2500 2550 2259 
Q 2550 2141 2473 2067 
Q 2397 1994 2259 1994 
Q 2075 1994 1981 2113 
Q 1928 2178 1911 2362 
Q 1894 2547 1784 2644 
Q 1675 2738 1481 2738 
Q 1169 2738 978 2506 
Q 725 2200 725 1697 
Q 725 1184 976 792 
Q 1228 400 1656 400 
Q 1963 400 2206 609 
Q 2378 753 2541 1131 
L 2631 1088 
z
" transform="scale(0.015625)"/>
       <path id="TimesNewRomanPSMT-74" d="M 1031 3803 
L 1031 2863 
L 1700 2863 
L 1700 2644 
L 1031 2644 
L 1031 788 
Q 1031 509 1111 412 
Q 1191 316 1316 316 
Q 1419 316 1516 380 
Q 1613 444 1666 569 
L 1788 569 
Q 1678 263 1478 108 
Q 1278 -47 1066 -47 
Q 922 -47 784 33 
Q 647 113 581 261 
Q 516 409 516 719 
L 516 2644 
L 63 2644 
L 63 2747 
Q 234 2816 414 2980 
Q 594 3144 734 3369 
Q 806 3488 934 3803 
L 1031 3803 
z
" transform="scale(0.015625)"/>
       <path id="TimesNewRomanPSMT-79" d="M 38 2863 
L 1372 2863 
L 1372 2747 
L 1306 2747 
Q 1166 2747 1095 2686 
Q 1025 2625 1025 2534 
Q 1025 2413 1128 2197 
L 1825 753 
L 2466 2334 
Q 2519 2463 2519 2588 
Q 2519 2644 2497 2672 
Q 2472 2706 2419 2726 
Q 2366 2747 2231 2747 
L 2231 2863 
L 3163 2863 
L 3163 2747 
Q 3047 2734 2984 2696 
Q 2922 2659 2847 2556 
Q 2819 2513 2741 2316 
L 1575 -541 
Q 1406 -956 1132 -1168 
Q 859 -1381 606 -1381 
Q 422 -1381 303 -1275 
Q 184 -1169 184 -1031 
Q 184 -900 270 -820 
Q 356 -741 506 -741 
Q 609 -741 788 -809 
Q 913 -856 944 -856 
Q 1038 -856 1148 -759 
Q 1259 -663 1372 -384 
L 1575 113 
L 547 2272 
Q 500 2369 397 2513 
Q 319 2622 269 2659 
Q 197 2709 38 2747 
L 38 2863 
z
" transform="scale(0.015625)"/>
       <path id="TimesNewRomanPSMT-66" d="M 1319 2638 
L 1319 756 
Q 1319 356 1406 250 
Q 1522 113 1716 113 
L 1975 113 
L 1975 0 
L 266 0 
L 266 113 
L 394 113 
Q 519 113 622 175 
Q 725 238 764 344 
Q 803 450 803 756 
L 803 2638 
L 247 2638 
L 247 2863 
L 803 2863 
L 803 3050 
Q 803 3478 940 3775 
Q 1078 4072 1361 4255 
Q 1644 4438 1997 4438 
Q 2325 4438 2600 4225 
Q 2781 4084 2781 3909 
Q 2781 3816 2700 3733 
Q 2619 3650 2525 3650 
Q 2453 3650 2373 3701 
Q 2294 3753 2178 3923 
Q 2063 4094 1966 4153 
Q 1869 4213 1750 4213 
Q 1606 4213 1506 4136 
Q 1406 4059 1362 3898 
Q 1319 3738 1319 3069 
L 1319 2863 
L 2056 2863 
L 2056 2638 
L 1319 2638 
z
" transform="scale(0.015625)"/>
       <path id="TimesNewRomanPSMT-68" d="M 1041 4444 
L 1041 2350 
Q 1388 2731 1591 2839 
Q 1794 2947 1997 2947 
Q 2241 2947 2416 2812 
Q 2591 2678 2675 2391 
Q 2734 2191 2734 1659 
L 2734 647 
Q 2734 375 2778 275 
Q 2809 200 2884 156 
Q 2959 113 3159 113 
L 3159 0 
L 1753 0 
L 1753 113 
L 1819 113 
Q 2019 113 2097 173 
Q 2175 234 2206 353 
Q 2216 403 2216 647 
L 2216 1659 
Q 2216 2128 2167 2275 
Q 2119 2422 2012 2495 
Q 1906 2569 1756 2569 
Q 1603 2569 1437 2487 
Q 1272 2406 1041 2159 
L 1041 647 
Q 1041 353 1073 281 
Q 1106 209 1195 161 
Q 1284 113 1503 113 
L 1503 0 
L 84 0 
L 84 113 
Q 275 113 384 172 
Q 447 203 484 290 
Q 522 378 522 647 
L 522 3238 
Q 522 3728 498 3840 
Q 475 3953 426 3993 
Q 378 4034 297 4034 
Q 231 4034 84 3984 
L 41 4094 
L 897 4444 
L 1041 4444 
z
" transform="scale(0.015625)"/>
       <path id="TimesNewRomanPSMT-6b" d="M 1047 4444 
L 1047 1597 
L 1775 2259 
Q 2006 2472 2044 2528 
Q 2069 2566 2069 2603 
Q 2069 2666 2017 2711 
Q 1966 2756 1847 2763 
L 1847 2863 
L 3091 2863 
L 3091 2763 
Q 2834 2756 2664 2684 
Q 2494 2613 2291 2428 
L 1556 1750 
L 2291 822 
Q 2597 438 2703 334 
Q 2853 188 2966 144 
Q 3044 113 3238 113 
L 3238 0 
L 1847 0 
L 1847 113 
Q 1966 116 2008 148 
Q 2050 181 2050 241 
Q 2050 313 1925 472 
L 1047 1594 
L 1047 644 
Q 1047 366 1086 278 
Q 1125 191 1197 153 
Q 1269 116 1509 113 
L 1509 0 
L 53 0 
L 53 113 
Q 272 113 381 166 
Q 447 200 481 272 
Q 528 375 528 628 
L 528 3234 
Q 528 3731 506 3842 
Q 484 3953 434 3995 
Q 384 4038 303 4038 
Q 238 4038 106 3984 
L 53 4094 
L 903 4444 
L 1047 4444 
z
" transform="scale(0.015625)"/>
       <path id="TimesNewRomanPSMT-2d" d="M 259 1672 
L 1875 1672 
L 1875 1200 
L 259 1200 
L 259 1672 
z
" transform="scale(0.015625)"/>
       <path id="DejaVuSans-Oblique-3c9" d="M 1369 -91 
Q 72 -91 434 1766 
Q 575 2500 1256 3500 
L 1875 3500 
Q 1231 2500 1088 1750 
Q 819 397 1519 397 
Q 2166 397 2478 2078 
L 3009 2078 
Q 2669 388 3316 397 
Q 4013 403 4275 1750 
Q 4419 2500 4169 3500 
L 4788 3500 
Q 5075 2500 4934 1766 
Q 4578 -94 3278 -91 
Q 2428 -88 2503 844 
Q 2194 -91 1369 -91 
z
" transform="scale(0.015625)"/>
       <path id="DejaVuSans-Oblique-6c" d="M 1172 4863 
L 1747 4863 
L 800 0 
L 225 0 
L 1172 4863 
z
" transform="scale(0.015625)"/>
       <path id="TimesNewRomanPSMT-64" d="M 2222 322 
Q 2013 103 1813 7 
Q 1613 -88 1381 -88 
Q 913 -88 563 304 
Q 213 697 213 1313 
Q 213 1928 600 2439 
Q 988 2950 1597 2950 
Q 1975 2950 2222 2709 
L 2222 3238 
Q 2222 3728 2198 3840 
Q 2175 3953 2125 3993 
Q 2075 4034 2000 4034 
Q 1919 4034 1784 3984 
L 1744 4094 
L 2597 4444 
L 2738 4444 
L 2738 1134 
Q 2738 631 2761 520 
Q 2784 409 2836 365 
Q 2888 322 2956 322 
Q 3041 322 3181 375 
L 3216 266 
L 2366 -88 
L 2222 -88 
L 2222 322 
z
M 2222 541 
L 2222 2016 
Q 2203 2228 2109 2403 
Q 2016 2578 1861 2667 
Q 1706 2756 1559 2756 
Q 1284 2756 1069 2509 
Q 784 2184 784 1559 
Q 784 928 1059 592 
Q 1334 256 1672 256 
Q 1956 256 2222 541 
z
" transform="scale(0.015625)"/>
       <path id="TimesNewRomanPSMT-2f" d="M 1794 4444 
L 259 -88 
L 9 -88 
L 1544 4444 
L 1794 4444 
z
" transform="scale(0.015625)"/>
      </defs>
      <use xlink:href="#TimesNewRomanPSMT-41" transform="translate(0 0.5625)"/>
      <use xlink:href="#TimesNewRomanPSMT-6e" transform="translate(72.216797 0.5625)"/>
      <use xlink:href="#TimesNewRomanPSMT-67" transform="translate(122.216797 0.5625)"/>
      <use xlink:href="#TimesNewRomanPSMT-75" transform="translate(172.216797 0.5625)"/>
      <use xlink:href="#TimesNewRomanPSMT-6c" transform="translate(222.216797 0.5625)"/>
      <use xlink:href="#TimesNewRomanPSMT-61" transform="translate(250 0.5625)"/>
      <use xlink:href="#TimesNewRomanPSMT-72" transform="translate(294.384766 0.5625)"/>
      <use xlink:href="#TimesNewRomanPSMT-20" transform="translate(327.685547 0.5625)"/>
      <use xlink:href="#TimesNewRomanPSMT-76" transform="translate(352.685547 0.5625)"/>
      <use xlink:href="#TimesNewRomanPSMT-65" transform="translate(402.685547 0.5625)"/>
      <use xlink:href="#TimesNewRomanPSMT-6c" transform="translate(447.070312 0.5625)"/>
      <use xlink:href="#TimesNewRomanPSMT-6f" transform="translate(474.853516 0.5625)"/>
      <use xlink:href="#TimesNewRomanPSMT-63" transform="translate(524.853516 0.5625)"/>
      <use xlink:href="#TimesNewRomanPSMT-69" transform="translate(569.238281 0.5625)"/>
      <use xlink:href="#TimesNewRomanPSMT-74" transform="translate(597.021484 0.5625)"/>
      <use xlink:href="#TimesNewRomanPSMT-79" transform="translate(624.804688 0.5625)"/>
      <use xlink:href="#TimesNewRomanPSMT-20" transform="translate(674.804688 0.5625)"/>
      <use xlink:href="#TimesNewRomanPSMT-6f" transform="translate(699.804688 0.5625)"/>
      <use xlink:href="#TimesNewRomanPSMT-66" transform="translate(749.804688 0.5625)"/>
      <use xlink:href="#TimesNewRomanPSMT-20" transform="translate(783.105469 0.5625)"/>
      <use xlink:href="#TimesNewRomanPSMT-74" transform="translate(808.105469 0.5625)"/>
      <use xlink:href="#TimesNewRomanPSMT-68" transform="translate(835.888672 0.5625)"/>
      <use xlink:href="#TimesNewRomanPSMT-65" transform="translate(885.888672 0.5625)"/>
      <use xlink:href="#TimesNewRomanPSMT-20" transform="translate(930.273438 0.5625)"/>
      <use xlink:href="#TimesNewRomanPSMT-6c" transform="translate(955.273438 0.5625)"/>
      <use xlink:href="#TimesNewRomanPSMT-69" transform="translate(983.056641 0.5625)"/>
      <use xlink:href="#TimesNewRomanPSMT-6e" transform="translate(1010.839844 0.5625)"/>
      <use xlink:href="#TimesNewRomanPSMT-6b" transform="translate(1060.839844 0.5625)"/>
      <use xlink:href="#TimesNewRomanPSMT-20" transform="translate(1110.839844 0.5625)"/>
      <use xlink:href="#TimesNewRomanPSMT-2d" transform="translate(1135.839844 0.5625)"/>
      <use xlink:href="#TimesNewRomanPSMT-20" transform="translate(1169.140625 0.5625)"/>
      <use xlink:href="#DejaVuSans-Oblique-3c9" transform="translate(1194.140625 0.5625)"/>
      <use xlink:href="#DejaVuSans-Oblique-6c" transform="translate(1277.880859 -15.84375) scale(0.7)"/>
      <use xlink:href="#TimesNewRomanPSMT-20" transform="translate(1300.063477 0.5625)"/>
      <use xlink:href="#TimesNewRomanPSMT-28" transform="translate(1325.063477 0.5625)"/>
      <use xlink:href="#TimesNewRomanPSMT-72" transform="translate(1358.364258 0.5625)"/>
      <use xlink:href="#TimesNewRomanPSMT-61" transform="translate(1391.665039 0.5625)"/>
      <use xlink:href="#TimesNewRomanPSMT-64" transform="translate(1436.049805 0.5625)"/>
      <use xlink:href="#TimesNewRomanPSMT-2f" transform="translate(1486.049805 0.5625)"/>
      <use xlink:href="#TimesNewRomanPSMT-73" transform="translate(1513.833008 0.5625)"/>
      <use xlink:href="#TimesNewRomanPSMT-29" transform="translate(1552.749023 0.5625)"/>
     </g>
    </g>
   </g>
   <g id="line2d_31">
    <path d="M 69.218182 145.286208 
L 69.319636 146.417437 
L 69.329782 146.308516 
L 69.421091 146.632512 
L 69.451527 146.30374 
L 69.471818 146.278895 
L 69.644291 144.86516 
L 69.674727 144.853044 
L 69.786327 145.589812 
L 69.816764 145.545207 
L 70.029818 145.114719 
L 70.182 144.367566 
L 70.192145 144.480882 
L 70.273309 144.285589 
L 70.608109 142.746469 
L 71.034218 139.24445 
L 71.287855 135.599332 
L 72.424145 117.726924 
L 72.921273 112.647575 
L 73.053164 113.358946 
L 73.124182 113.506511 
L 73.134327 113.137852 
L 73.235782 113.269927 
L 73.377818 113.509797 
L 73.387964 113.259386 
L 73.489418 113.307782 
L 73.661891 114.050857 
L 73.895236 115.946098 
L 74.179309 120.518019 
L 74.909782 136.970685 
L 75.812727 168.193028 
L 76.2084 185.268948 
L 77.009891 214.303355 
L 77.415709 221.784196 
L 77.618618 222.311388 
L 77.689636 222.209406 
L 77.841818 220.510864 
L 78.125891 214.370302 
L 80.479636 149.639558 
L 80.682545 144.241722 
L 81.098509 130.679789 
L 81.666655 106.370815 
L 83.026145 47.421156 
L 83.269636 44.64 
L 83.716036 53.028426 
L 84.304473 78.325244 
L 85.349455 125.85161 
L 85.450909 129.719869 
L 85.978473 149.985218 
L 87.084327 197.913074 
L 88.068436 241.853983 
L 88.342364 246.158159 
L 88.393091 246.24 
L 88.636582 244.291202 
L 88.798909 240.628917 
L 89.2656 218.976818 
L 90.949745 141.007267 
L 91.933855 96.637598 
L 92.846945 56.373667 
L 93.212182 48.105239 
L 93.222327 48.153045 
L 93.262909 47.956293 
L 93.344073 48.058464 
L 93.425236 48.613085 
L 93.526691 49.984499 
L 93.749891 55.233099 
L 94.104982 70.085349 
L 95.890582 145.683376 
L 96.864545 185.737362 
L 97.6356 222.885153 
L 98.102291 238.521152 
L 98.386364 242.55644 
L 98.396509 242.478479 
L 98.426945 242.494124 
L 98.437091 242.48244 
L 98.721164 237.634445 
L 99.187855 221.635804 
L 99.887891 188.247771 
L 100.5372 161.449943 
L 102.059018 98.703075 
L 102.890945 60.644062 
L 103.286618 49.491248 
L 103.519964 47.868168 
L 103.611273 48.505719 
L 103.966364 56.259058 
L 104.270727 68.413889 
L 105.6708 130.874037 
L 107.334655 200.778002 
L 108.207164 237.952835 
L 108.470945 242.16214 
L 108.592691 242.734192 
L 108.643418 242.724152 
L 108.724582 242.21287 
L 108.856473 239.715168 
L 109.110109 231.862317 
L 109.901455 196.375797 
L 110.195673 181.591326 
L 110.865273 154.609866 
L 111.169636 143.395642 
L 112.549418 82.815099 
L 113.269745 52.731994 
L 113.543673 48.577314 
L 113.665418 48.131301 
L 113.726291 48.301421 
L 113.827745 49.428671 
L 114.050945 54.397987 
L 114.456764 70.742941 
L 115.765527 128.354333 
L 117.490255 201.832617 
L 118.372909 239.112857 
L 118.677273 242.933261 
L 118.738145 242.881542 
L 118.8396 241.949178 
L 119.0628 237.911342 
L 119.316436 228.907888 
L 120.138218 189.845538 
L 122.705018 61.033224 
L 123.019527 55.451447 
L 123.110836 55.009129 
L 123.171709 55.164613 
L 123.293455 56.70188 
L 123.689127 71.565444 
L 124.510909 121.128106 
L 124.794982 137.789306 
L 125.576182 175.040609 
L 126.519709 198.461118 
L 126.641455 198.841593 
L 126.692182 198.818552 
L 127.087855 195.11617 
L 127.371927 188.872048 
L 127.7676 177.178476 
L 128.964764 143.532501 
L 129.411164 137.436038 
L 129.735818 135.738995 
L 129.745964 135.745117 
L 129.766255 135.668244 
L 129.786545 135.59567 
L 129.867709 135.691681 
L 129.888 135.704861 
L 130.040182 134.727646 
L 130.050327 134.791472 
L 130.090909 134.755699 
L 130.2228 134.124852 
L 130.344545 133.740973 
L 130.506873 133.418804 
L 130.547455 133.344421 
L 130.5576 133.465734 
L 130.598182 133.42546 
L 130.608327 133.517901 
L 130.699636 133.415136 
L 130.831527 133.006513 
L 130.851818 132.953564 
L 130.861964 133.157534 
L 130.8924 133.145918 
L 130.902545 133.141089 
L 131.004 132.605998 
L 131.044582 132.688555 
L 131.064873 132.698508 
L 131.156182 132.621543 
L 131.166327 132.697957 
L 131.247491 132.53327 
L 131.308364 132.466166 
L 131.490982 131.274676 
L 131.795345 129.855968 
L 132.921491 120.758339 
L 133.083818 120.121457 
L 133.154836 120.215008 
L 133.185273 120.201465 
L 133.195418 120.316138 
L 133.246145 120.631885 
L 133.327309 121.438564 
L 133.733127 124.16332 
L 133.753418 124.139465 
L 134.352 130.213252 
L 134.585345 134.463397 
L 134.960727 142.31206 
L 135.214364 147.15784 
L 135.741927 158.372317 
L 136.259345 169.163133 
L 136.939091 177.928762 
L 136.969527 177.836914 
L 137.192727 178.746943 
L 137.273891 178.639231 
L 137.375345 178.137822 
L 137.649273 176.924223 
L 137.659418 176.9417 
L 137.689855 176.80424 
L 137.953636 175.136973 
L 138.166691 172.040716 
L 138.562364 165.460373 
L 138.795709 161.130036 
L 140.165345 138.298831 
L 141.433527 122.763034 
L 141.727745 121.499451 
L 141.849491 120.870261 
L 142.001673 119.457829 
L 142.164 118.506937 
L 142.214727 118.551722 
L 142.224873 118.611915 
L 142.285745 118.336625 
L 142.366909 118.219067 
L 142.377055 118.38715 
L 142.417636 118.259055 
L 142.559673 118.819303 
L 143.077091 120.50681 
L 143.259709 122.663647 
L 143.7264 127.285186 
L 143.990182 131.088007 
L 145.014873 144.139498 
L 146.780182 171.028219 
L 146.800473 170.85303 
L 147.003382 172.108645 
L 147.246873 174.094982 
L 147.439636 175.105102 
L 147.459927 175.102748 
L 147.490364 175.215117 
L 147.500509 174.959148 
L 147.530945 174.953851 
L 147.581673 174.819877 
L 147.723709 174.286327 
L 148.220836 171.975034 
L 148.444036 169.665642 
L 148.799127 164.582821 
L 149.671636 150.732493 
L 149.884691 147.290165 
L 151.041273 129.014088 
L 151.051418 129.211748 
L 151.599273 122.073888 
L 151.781891 119.910836 
L 152.005091 117.990422 
L 152.086255 118.195283 
L 152.106545 118.177221 
L 152.238436 117.794859 
L 152.309455 117.680361 
L 152.441345 117.389013 
L 152.563091 117.473295 
L 152.664545 117.064026 
L 152.674691 117.264251 
L 152.816727 117.795154 
L 153.039927 118.730034 
L 153.455891 122.784105 
L 153.983455 128.379529 
L 154.054473 129.171818 
L 154.368982 134.226651 
L 156.114 160.669749 
L 156.174873 161.613353 
L 156.570545 166.638893 
L 156.580691 166.540137 
L 156.631418 167.076414 
L 156.905345 170.447484 
L 157.179273 172.412262 
L 157.280727 172.145798 
L 157.290873 172.316603 
L 157.483636 172.855094 
L 157.635818 173.918898 
L 157.645964 173.860813 
L 157.686545 173.975737 
L 157.737273 173.91022 
L 157.788 174.062641 
L 157.838727 173.879 
L 158.1228 172.862727 
L 158.2344 171.792379 
L 159.106909 162.68329 
L 159.340255 157.786681 
L 159.634473 153.946108 
L 160.222909 145.420421 
L 160.405527 141.405886 
L 161.064982 131.840237 
L 161.8056 122.553281 
L 162.566509 116.378051 
L 162.607091 116.330742 
L 162.627382 116.464447 
L 162.708545 116.716219 
L 162.850582 117.346915 
L 163.104218 118.72508 
L 163.773818 124.092251 
L 163.783964 124.06387 
L 163.804255 124.244951 
L 164.230364 128.819419 
L 164.402836 131.853317 
L 164.808655 138.887113 
L 165.163745 143.492697 
L 165.336218 146.501444 
L 166.614545 166.309233 
L 166.624691 166.218776 
L 166.665273 166.726355 
L 167.020364 169.763011 
L 167.213127 172.221593 
L 167.426182 173.756927 
L 167.446473 173.524104 
L 167.527636 173.537945 
L 167.558073 173.499827 
L 167.578364 173.49741 
L 167.679818 173.046178 
L 167.700109 173.072019 
L 168.034909 171.760079 
L 168.045055 171.846516 
L 168.085636 171.584604 
L 168.126218 171.637209 
L 168.146509 171.761174 
L 168.237818 171.473784 
L 168.298691 171.622291 
L 168.339273 171.512301 
L 168.440727 171.033494 
L 168.5016 171.136454 
L 168.603055 170.601454 
L 168.745091 169.289368 
L 170.053855 150.149951 
L 170.774182 137.925204 
L 170.784327 137.951366 
L 171.332182 130.469533 
L 172.296 118.120517 
L 172.306145 118.394184 
L 172.397455 118.094361 
L 172.4076 118.186534 
L 172.498909 118.152963 
L 172.651091 117.480211 
L 172.701818 117.442035 
L 172.904727 116.901828 
L 172.9656 116.935619 
L 173.006182 116.908021 
L 173.016327 116.837868 
L 173.087345 117.071409 
L 173.269964 117.969042 
L 173.503309 118.842055 
L 173.513455 118.849046 
L 173.807673 121.705209 
L 173.939564 123.451514 
L 176.709273 164.388468 
L 176.719418 164.336585 
L 177.074509 168.413334 
L 177.419455 172.493429 
L 177.490473 172.134372 
L 177.673091 171.982287 
L 177.835418 173.45543 
L 178.028182 174.393296 
L 178.058618 174.275381 
L 178.078909 174.253415 
L 178.180364 173.468657 
L 178.2108 173.635954 
L 178.231091 173.60987 
L 178.393418 172.364409 
L 178.981855 166.674614 
L 179.600727 157.880263 
L 179.610873 158.081251 
L 179.671745 157.333803 
L 180.087709 151.204432 
L 181.6704 127.639616 
L 182.248691 121.447274 
L 182.441455 119.595684 
L 182.634218 118.176254 
L 183.151636 115.19337 
L 183.202364 115.229968 
L 183.354545 116.49831 
L 183.537164 118.139207 
L 184.186473 125.742502 
L 185.728582 149.04165 
L 186.043091 153.617029 
L 186.053236 153.612561 
L 187.666364 173.635789 
L 187.6968 173.51196 
L 187.869273 174.070442 
L 187.899709 173.789841 
L 187.970727 173.639135 
L 188.0316 173.743179 
L 188.264945 173.412913 
L 188.843236 170.265651 
L 189.421527 162.768459 
L 190.050545 154.471249 
L 190.060691 154.582486 
L 190.111418 153.963232 
L 190.3752 149.990597 
L 191.856436 126.713223 
L 192.475309 119.416115 
L 192.688364 117.54695 
L 192.769527 117.670056 
L 192.840545 117.7013 
L 192.860836 117.745171 
L 193.195636 118.346146 
L 193.2768 118.097408 
L 193.317382 118.133425 
L 193.398545 118.248956 
L 193.439127 118.166456 
L 193.510145 118.329197 
L 193.875382 120.668229 
L 195.458073 140.729526 
L 195.782727 146.495412 
L 195.945055 150.053217 
L 196.239273 153.625176 
L 196.29 154.269857 
L 196.462473 157.18626 
L 197.0712 165.350817 
L 197.223382 167.526369 
L 197.608909 172.55352 
L 197.649491 172.506276 
L 197.659636 172.539642 
L 197.669782 172.416667 
L 197.710364 172.444173 
L 197.720509 172.348735 
L 197.801673 172.620162 
L 198.014727 173.422391 
L 198.156764 174.155508 
L 198.369818 174.716333 
L 198.379964 174.56278 
L 198.420545 174.547727 
L 198.653891 172.80752 
L 198.9684 170.730227 
L 199.3032 166.577127 
L 199.790182 159.726586 
L 199.800327 159.752074 
L 200.165564 154.467022 
L 202.2048 125.043752 
L 202.407709 123.132327 
L 202.630909 120.080998 
L 202.803382 117.559021 
L 202.935273 116.999914 
L 202.965709 117.080781 
L 202.996145 117.164439 
L 203.128036 117.071466 
L 203.148327 117.034129 
L 203.188909 117.048557 
L 203.249782 116.905753 
L 203.290364 117.038058 
L 203.493273 118.008212 
L 203.533855 118.174517 
L 203.696182 118.649855 
L 203.726618 118.612381 
L 203.980255 119.91701 
L 204.457091 124.590679 
L 204.670145 128.318727 
L 205.238291 136.326466 
L 206.070218 148.826905 
L 206.6688 157.713183 
L 207.886255 172.645806 
L 208.058727 174.090188 
L 208.160182 173.953997 
L 208.170327 173.876549 
L 208.251491 174.104166 
L 208.271782 174.095138 
L 208.413818 174.219848 
L 208.566 173.633411 
L 208.606582 173.515382 
L 208.799345 172.321247 
L 209.560255 166.100756 
L 209.824036 161.023375 
L 210.392182 152.55974 
L 210.402327 152.712106 
L 210.4632 151.958747 
L 211.061782 143.301335 
L 212.563309 122.165643 
L 213.03 117.329573 
L 213.070582 117.63402 
L 213.101018 117.523449 
L 213.131455 117.477481 
L 213.161891 117.599161 
L 213.182182 117.654116 
L 213.232909 117.59746 
L 213.385091 116.814926 
L 213.395236 116.926121 
L 213.445964 116.882226 
L 213.486545 116.967866 
L 213.537273 117.097116 
L 213.588 117.04504 
L 213.689455 116.718635 
L 213.719891 116.749635 
L 213.760473 116.879733 
L 213.892364 117.02775 
L 214.247455 121.807003 
L 214.2576 121.748757 
L 214.288036 122.155263 
L 214.653273 125.78891 
L 214.663418 125.671167 
L 214.724291 126.205091 
L 214.998218 129.350873 
L 217.798364 171.169316 
L 217.818655 171.152913 
L 218.001273 171.883842 
L 218.031709 171.858195 
L 218.072291 172.143489 
L 218.234618 173.583655 
L 218.3868 173.982447 
L 218.457818 174.259255 
L 218.559273 174.48805 
L 218.599855 174.437097 
L 218.620145 174.331071 
L 219.025964 172.933716 
L 219.289745 169.632543 
L 220.070945 159.690562 
L 220.517345 153.500311 
L 220.862291 148.84347 
L 221.673927 135.705132 
L 222.302945 125.891017 
L 222.566727 122.510749 
L 222.6276 121.841622 
L 222.8508 120.273366 
L 222.881236 120.337377 
L 223.124727 118.759835 
L 223.266764 117.776303 
L 223.540691 117.136288 
L 223.550836 117.151912 
L 223.581273 117.206229 
L 223.591418 117.038382 
L 223.611709 117.042506 
L 223.642145 117.15411 
L 223.885636 118.241995 
L 223.936364 118.203737 
L 223.946509 118.170146 
L 223.997236 118.343389 
L 224.443636 120.698111 
L 224.676982 123.556009 
L 225.062509 128.965334 
L 226.168364 146.562344 
L 226.178509 146.248328 
L 226.259673 146.903203 
L 226.442291 149.576239 
L 228.045273 171.704097 
L 228.065564 171.611071 
L 228.238036 172.440081 
L 228.400364 173.588663 
L 228.511964 173.442234 
L 228.613418 173.476451 
L 228.623564 173.501944 
L 228.806182 173.799442 
L 228.826473 173.733796 
L 228.978655 173.223453 
L 229.191709 171.630846 
L 229.597527 167.481369 
L 229.922182 164.57692 
L 229.932327 164.778153 
L 230.003345 164.187965 
L 230.175818 162.29336 
L 230.368582 158.964835 
L 233.067273 118.615028 
L 233.077418 118.636189 
L 233.107855 118.478288 
L 233.523818 116.909566 
L 233.584691 116.99295 
L 233.635418 116.982888 
L 233.676 117.021515 
L 233.686145 116.904748 
L 233.696291 116.899528 
L 233.726727 116.892584 
L 233.929636 118.234769 
L 233.939782 118.083069 
L 234.396327 120.516878 
L 234.720982 122.849662 
L 234.9036 124.763637 
L 235.999309 141.20357 
L 236.364545 146.249048 
L 236.476145 147.75285 
L 238.038545 170.162132 
L 238.048691 170.102182 
L 238.799455 174.360997 
L 238.8096 174.261967 
L 238.911055 174.292846 
L 238.951636 174.349341 
L 238.982073 174.206338 
L 239.042945 173.973356 
L 239.306727 172.779144 
L 239.469055 171.48481 
L 239.661818 169.457701 
L 239.874873 166.458019 
L 241.082182 149.390731 
L 241.589455 141.180245 
L 242.360509 129.995174 
L 242.847491 123.092716 
L 243.111273 120.226824 
L 243.141709 120.383262 
L 243.212727 120.044917 
L 243.354764 119.484892 
L 243.415636 119.14597 
L 243.588109 117.908204 
L 243.618545 117.800473 
L 243.679418 117.979371 
L 243.770727 118.168518 
L 243.801164 118.002205 
L 243.821455 118.015984 
L 243.973636 117.35774 
L 244.095382 117.258199 
L 244.146109 117.352936 
L 244.267855 117.862177 
L 244.491055 120.276956 
L 244.907018 123.340832 
L 245.241818 126.482419 
L 245.5056 131.327515 
L 246.053455 139.549038 
L 246.0636 139.46144 
L 246.104182 139.954307 
L 247.270909 158.306673 
L 247.372364 159.011237 
L 247.707164 164.3021 
L 248.062255 168.842565 
L 248.620255 173.006731 
L 248.995636 173.965272 
L 249.046364 173.793465 
L 249.097091 173.610705 
L 249.178255 173.656645 
L 249.3 173.28595 
L 249.472473 172.589695 
L 249.573927 171.875061 
L 249.898582 168.033974 
L 251.258073 149.056965 
L 252.729164 127.11874 
L 253.611818 117.006926 
L 253.642255 117.09351 
L 253.662545 117.007852 
L 253.672691 117.153123 
L 253.713273 117.03834 
L 253.723418 117.242761 
L 253.814727 117.02173 
L 253.865455 116.734859 
L 253.936473 116.836251 
L 254.068364 117.00002 
L 254.271273 117.800026 
L 254.281418 117.774545 
L 254.322 117.918555 
L 254.372727 118.101267 
L 254.464036 118.030515 
L 254.524909 118.223825 
L 254.849564 120.652721 
L 255.113345 123.540629 
L 256.584436 145.056305 
L 257.822182 164.065198 
L 257.832327 163.916639 
L 257.8932 164.594481 
L 258.228 168.965048 
L 258.410618 171.547531 
L 258.6744 173.124762 
L 258.836727 173.692125 
L 258.867164 173.674748 
L 258.938182 173.672407 
L 258.958473 173.588825 
L 258.988909 173.47909 
L 258.999055 173.614434 
L 259.039636 173.547572 
L 259.141091 174.046204 
L 259.161382 173.82083 
L 259.536764 172.522064 
L 259.891855 169.798265 
L 260.338255 165.152669 
L 260.480291 163.000252 
L 261.058582 153.533882 
L 261.403527 149.216037 
L 261.616582 145.918805 
L 263.178982 122.538484 
L 263.655818 118.359742 
L 263.665964 118.380223 
L 263.686255 118.246934 
L 264.112364 116.022902 
L 264.244255 116.490989 
L 264.284836 116.658504 
L 264.457309 117.600101 
L 264.721091 118.747583 
L 264.731236 118.620676 
L 264.8124 118.990463 
L 264.883418 119.802756 
L 265.319673 124.531527 
L 265.948691 133.582779 
L 266.364655 139.29842 
L 266.598 143.238223 
L 266.953091 149.487906 
L 266.963236 149.465467 
L 266.973382 149.631158 
L 267.967636 164.215038 
L 267.977782 163.996696 
L 268.058945 164.379253 
L 268.119818 165.108728 
L 268.312582 168.553953 
L 268.667673 172.201466 
L 268.880727 173.631511 
L 268.961891 173.333305 
L 269.012618 173.441404 
L 269.032909 173.482438 
L 269.043055 173.379028 
L 269.083636 173.431386 
L 269.134364 173.342167 
L 269.174945 173.564979 
L 269.245964 173.65731 
L 269.306836 173.596283 
L 269.438727 173.666969 
L 269.459018 173.52565 
L 269.631491 172.716125 
L 270.098182 169.323357 
L 270.554727 164.381836 
L 270.808364 159.592516 
L 271.041709 156.232531 
L 271.538836 149.766375 
L 271.711309 146.881662 
L 272.867891 129.176999 
L 273.202691 124.899096 
L 273.852 117.079246 
L 273.933164 117.242608 
L 274.004182 117.338778 
L 274.054909 117.45617 
L 274.095491 117.22363 
L 274.156364 117.186856 
L 274.217236 116.902022 
L 274.278109 116.985499 
L 274.308545 117.010339 
L 274.359273 117.356809 
L 274.430291 117.238057 
L 274.460727 117.311034 
L 274.511455 117.147851 
L 274.541891 117.217416 
L 274.734655 117.649013 
L 274.978145 119.38658 
L 275.495564 125.341129 
L 276.134727 134.738562 
L 276.489818 139.137618 
L 276.702873 142.481498 
L 277.392764 152.450257 
L 277.504364 154.929885 
L 278.326145 166.249226 
L 278.579782 168.733879 
L 279.188509 174.013262 
L 279.229091 174.130768 
L 279.269673 173.903312 
L 279.442145 173.386451 
L 279.726218 172.230248 
L 280.274073 168.658453 
L 281.917636 146.345603 
L 282.090109 142.471522 
L 282.546655 136.101616 
L 282.739418 133.293846 
L 283.774255 119.58437 
L 283.997455 118.161644 
L 284.0076 118.238706 
L 284.454 116.407565 
L 284.525018 116.605658 
L 284.910545 117.398559 
L 285.143891 120.157491 
L 285.448255 122.691532 
L 285.57 123.679293 
L 285.752618 126.424079 
L 286.178727 133.622676 
L 286.371491 136.314503 
L 286.391782 136.302112 
L 287.142545 147.756412 
L 287.345455 151.805072 
L 287.6904 155.607496 
L 287.873018 158.075498 
L 288.857127 170.65922 
L 289.131055 172.053906 
L 289.212218 171.873935 
L 289.222364 171.832021 
L 289.232509 171.919768 
L 289.273091 171.88281 
L 289.435418 173.034989 
L 289.678909 173.622197 
L 289.689055 173.618392 
L 289.780364 173.695966 
L 289.8108 173.587141 
L 289.962982 173.275104 
L 290.034 172.52313 
L 290.267345 169.595111 
L 291.423927 154.868063 
L 293.2704 127.32219 
L 293.889273 120.205407 
L 294.092182 119.340574 
L 294.345818 116.938218 
L 294.355964 116.97797 
L 294.396545 116.698305 
L 294.416836 116.795617 
L 294.447273 116.678259 
L 294.457418 116.818529 
L 294.528436 116.772555 
L 294.700909 116.943295 
L 294.711055 116.807753 
L 294.751636 116.773716 
L 294.771927 116.890213 
L 294.863236 117.2404 
L 295.208182 118.590961 
L 295.218327 118.550053 
L 295.258909 118.764334 
L 295.512545 122.222742 
L 295.522691 122.185725 
L 295.542982 122.480681 
L 295.999527 127.54517 
L 296.253164 131.373816 
L 296.922764 140.980567 
L 297.054655 143.484053 
L 297.774982 155.253943 
L 298.962 169.955238 
L 298.972145 169.900207 
L 299.012727 170.107412 
L 299.286655 173.575457 
L 299.418545 174.277318 
L 299.448982 174.260935 
L 299.530145 174.60752 
L 299.773636 175.708935 
L 299.783782 175.485324 
L 299.875091 175.534595 
L 300.017127 175.177972 
L 300.037418 174.797086 
L 300.230182 173.628189 
L 300.889636 163.760389 
L 300.899782 163.831984 
L 300.940364 163.361233 
L 301.031673 162.477901 
L 301.508509 156.24495 
L 302.746255 135.634517 
L 302.949164 133.606592 
L 303.273818 129.492803 
L 303.720218 123.45213 
L 304.288364 117.883679 
L 304.298509 117.908956 
L 304.3188 117.739813 
L 304.602873 116.332445 
L 304.846364 115.378615 
L 304.947818 115.723861 
L 304.968109 115.665825 
L 304.998545 115.663751 
L 305.404364 119.607673 
L 305.414509 119.572229 
L 305.4348 119.808064 
L 306.753709 136.57496 
L 308.539309 163.554365 
L 309.361091 172.498025 
L 309.371236 172.438693 
L 309.442255 172.639783 
L 309.472691 172.578698 
L 309.7872 173.885424 
L 309.919091 174.141501 
L 309.939382 174.118549 
L 309.990109 174.260545 
L 310.020545 174.296695 
L 310.050982 174.179187 
L 310.132145 173.822827 
L 310.355345 172.062825 
L 311.197418 163.011396 
L 312.4656 143.013927 
L 312.840982 137.72993 
L 314.383091 118.986375 
L 314.393236 119.071281 
L 314.454109 118.744012 
L 314.687455 116.716861 
L 314.839636 115.708498 
L 314.981673 116.264356 
L 315.265745 117.485523 
L 316.188982 126.320705 
L 318.9384 168.014041 
L 319.323927 171.580573 
L 319.557273 172.949348 
L 319.628291 172.889753 
L 319.709455 173.015374 
L 319.810909 173.290696 
L 319.841345 173.246429 
L 319.871782 173.400204 
L 320.064545 173.04061 
L 320.176145 173.333431 
L 320.206582 173.315074 
L 320.216727 173.306185 
L 320.226873 173.444842 
L 320.297891 173.673053 
L 320.419636 173.870736 
L 320.439927 173.804313 
L 320.470364 173.779432 
L 320.774727 169.747114 
L 320.784873 169.768449 
L 321.890727 154.2985 
L 322.1748 150.781642 
L 322.448727 146.967653 
L 322.753091 141.67961 
L 323.006727 137.86229 
L 323.483564 130.165437 
L 323.919818 124.453518 
L 324.132873 121.496015 
L 324.528545 118.251986 
L 324.782182 117.442347 
L 324.832909 117.507199 
L 324.893782 117.166625 
L 324.944509 117.258254 
L 325.238727 118.350384 
L 325.279309 118.047527 
L 325.2996 117.986197 
L 325.340182 118.00467 
L 325.451782 117.839217 
L 325.461927 117.860188 
L 325.644545 118.407292 
L 325.908327 121.875549 
L 327.166364 138.408756 
L 327.399709 142.200899 
L 329.043273 165.87743 
L 329.144727 167.286098 
L 329.3172 169.806432 
L 329.733164 172.380384 
L 329.753455 172.436828 
L 329.804182 172.257496 
L 329.834618 172.335942 
L 329.854909 172.320661 
L 329.996945 172.795499 
L 330.108545 173.442047 
L 330.21 173.908967 
L 330.230291 173.813029 
L 330.463636 173.16827 
L 330.869455 170.414186 
L 333.304364 135.174249 
L 334.268182 122.348591 
L 334.278327 122.437664 
L 334.318909 122.02717 
L 334.552255 119.173119 
L 334.856618 116.635786 
L 335.079818 115.988286 
L 335.211709 116.216439 
L 335.708836 117.849318 
L 336.043636 120.172716 
L 336.2364 122.895816 
L 338.295927 154.737854 
L 338.569855 158.681239 
L 339.949636 174.016699 
L 339.959782 173.971537 
L 340.000364 174.221826 
L 340.071382 173.994597 
L 340.101818 173.994544 
L 340.152545 174.226973 
L 340.213418 174.044072 
L 340.254 173.981046 
L 340.355455 173.483829 
L 340.385891 173.491005 
L 340.598945 172.993661 
L 340.893164 171.278642 
L 341.725091 162.048804 
L 341.948291 158.221107 
L 344.758582 119.129003 
L 345.174545 116.273671 
L 345.184691 116.364499 
L 345.276 116.252754 
L 345.428182 115.996489 
L 345.478909 115.975636 
L 345.884727 118.086329 
L 346.077491 119.93221 
L 346.331127 123.421037 
L 346.6152 126.05101 
L 346.787673 128.920331 
L 349.303745 166.390983 
L 350.348727 174.527206 
L 350.369018 174.424232 
L 350.399455 174.428809 
L 350.602364 173.053492 
L 350.612509 173.280258 
L 350.703818 173.085161 
L 351.008182 170.949241 
L 351.1908 169.791993 
L 351.606764 165.517435 
L 353.361927 138.57712 
L 353.635855 135.255531 
L 353.8692 131.470474 
L 354.559091 121.456353 
L 354.579382 121.37059 
L 354.772145 120.664481 
L 355.015636 119.36198 
L 355.157673 118.169072 
L 355.4316 115.857869 
L 355.624364 115.100254 
L 355.796836 115.845137 
L 355.847564 116.200274 
L 355.959164 117.202642 
L 356.415709 121.883703 
L 356.953418 128.859392 
L 357.714327 140.901269 
L 358.972364 159.913568 
L 359.124545 161.899168 
L 359.134691 161.853508 
L 359.327455 164.259319 
L 359.581091 167.743923 
L 359.591236 167.643397 
L 359.875309 171.06549 
L 360.037636 172.730507 
L 360.1188 172.536172 
L 360.169527 172.37943 
L 360.189818 172.340394 
L 360.2304 172.467663 
L 360.240545 172.472991 
L 360.382582 173.008817 
L 360.473891 172.903027 
L 360.494182 172.830236 
L 360.555055 173.01595 
L 360.768109 172.569254 
L 360.798545 172.361826 
L 360.808691 172.58112 
L 360.879709 172.527479 
L 361.092764 171.954578 
L 361.224655 170.585139 
L 361.539164 167.917501 
L 361.701491 165.445591 
L 362.158036 159.585119 
L 362.371091 156.756948 
L 362.929091 146.427394 
L 362.939236 146.58663 
L 362.989964 145.69613 
L 363.263891 142.864355 
L 363.639273 137.20085 
L 364.045091 130.926198 
L 364.085673 130.444978 
L 364.958182 119.110762 
L 364.968327 119.292801 
L 365.039345 118.795739 
L 365.404582 116.845587 
L 365.414727 116.813037 
L 365.455309 117.024571 
L 365.465455 117.034095 
L 365.4756 116.894323 
L 365.516182 116.773288 
L 365.617636 116.809745 
L 365.820545 117.375642 
L 365.830691 117.292799 
L 365.871273 117.415808 
L 365.932145 117.367467 
L 365.972727 117.364452 
L 365.993018 117.465102 
L 366.358255 119.341392 
L 366.520582 120.820297 
L 366.642327 122.66219 
L 367.119164 130.192611 
L 367.423527 133.881912 
L 368.742436 154.357615 
L 369.198982 161.086178 
L 369.523636 165.18126 
L 369.696109 167.426389 
L 369.980182 170.141259 
L 370.010618 170.038368 
L 370.030909 170.079621 
L 370.183091 171.25641 
L 370.193236 171.2479 
L 370.223673 171.361944 
L 370.284545 171.778749 
L 370.467164 173.550071 
L 370.639636 174.525876 
L 370.700509 174.402681 
L 370.8324 173.883505 
L 371.400545 171.118197 
L 371.552727 169.697304 
L 371.735345 167.973218 
L 371.907818 165.096796 
L 372.161455 159.865136 
L 372.1716 159.927872 
L 372.465818 156.398891 
L 372.546982 155.798295 
L 372.770182 152.951397 
L 373.003527 149.988354 
L 373.125273 147.713098 
L 373.328182 143.465726 
L 373.338327 143.525275 
L 373.358618 143.20104 
L 373.581818 139.381835 
L 373.581818 139.381835 
" clip-path="url(#pcff9d215be)" style="fill: none; stroke: #000000; stroke-width: 0.5; stroke-linecap: square"/>
   </g>
   <g id="patch_3">
    <path d="M 54 256.32 
L 54 34.56 
" style="fill: none; stroke: #000000; stroke-width: 0.8; stroke-linejoin: miter; stroke-linecap: square"/>
   </g>
   <g id="patch_4">
    <path d="M 388.8 256.32 
L 388.8 34.56 
" style="fill: none; stroke: #000000; stroke-width: 0.8; stroke-linejoin: miter; stroke-linecap: square"/>
   </g>
   <g id="patch_5">
    <path d="M 54 256.32 
L 388.8 256.32 
" style="fill: none; stroke: #000000; stroke-width: 0.8; stroke-linejoin: miter; stroke-linecap: square"/>
   </g>
   <g id="patch_6">
    <path d="M 54 34.56 
L 388.8 34.56 
" style="fill: none; stroke: #000000; stroke-width: 0.8; stroke-linejoin: miter; stroke-linecap: square"/>
   </g>
   <g id="text_18">
    <!-- $\omega_{l}$ (rad/s) - (JUKF) -->
    <g transform="translate(178.445 28.56) scale(0.11 -0.11)">
     <defs>
      <path id="TimesNewRomanPSMT-4a" d="M 638 4122 
L 638 4238 
L 2453 4238 
L 2453 4122 
L 2300 4122 
Q 2041 4122 1922 3969 
Q 1847 3869 1847 3488 
L 1847 1416 
Q 1847 938 1742 641 
Q 1638 344 1381 123 
Q 1125 -97 763 -97 
Q 469 -97 300 48 
Q 131 194 131 381 
Q 131 534 209 613 
Q 313 709 450 709 
Q 550 709 629 643 
Q 709 578 831 294 
Q 903 125 1016 125 
Q 1100 125 1173 228 
Q 1247 331 1247 594 
L 1247 3488 
Q 1247 3809 1206 3913 
Q 1175 3991 1075 4047 
Q 941 4122 791 4122 
L 638 4122 
z
" transform="scale(0.015625)"/>
      <path id="TimesNewRomanPSMT-55" d="M 3053 4122 
L 3053 4238 
L 4553 4238 
L 4553 4122 
L 4394 4122 
Q 4144 4122 4009 3913 
Q 3944 3816 3944 3463 
L 3944 1744 
Q 3944 1106 3817 754 
Q 3691 403 3320 151 
Q 2950 -100 2313 -100 
Q 1619 -100 1259 140 
Q 900 381 750 788 
Q 650 1066 650 1831 
L 650 3488 
Q 650 3878 542 4000 
Q 434 4122 194 4122 
L 34 4122 
L 34 4238 
L 1866 4238 
L 1866 4122 
L 1703 4122 
Q 1441 4122 1328 3956 
Q 1250 3844 1250 3488 
L 1250 1641 
Q 1250 1394 1295 1075 
Q 1341 756 1459 578 
Q 1578 400 1801 284 
Q 2025 169 2350 169 
Q 2766 169 3094 350 
Q 3422 531 3542 814 
Q 3663 1097 3663 1772 
L 3663 3488 
Q 3663 3884 3575 3984 
Q 3453 4122 3213 4122 
L 3053 4122 
z
" transform="scale(0.015625)"/>
      <path id="TimesNewRomanPSMT-4b" d="M 1913 2350 
L 3475 797 
Q 3859 413 4131 273 
Q 4403 134 4675 116 
L 4675 0 
L 2659 0 
L 2659 116 
Q 2841 116 2920 177 
Q 3000 238 3000 313 
Q 3000 388 2970 447 
Q 2941 506 2775 669 
L 1313 2116 
L 1313 750 
Q 1313 428 1353 325 
Q 1384 247 1484 191 
Q 1619 116 1769 116 
L 1913 116 
L 1913 0 
L 106 0 
L 106 116 
L 256 116 
Q 519 116 638 269 
Q 713 369 713 750 
L 713 3488 
Q 713 3809 672 3916 
Q 641 3991 544 4047 
Q 406 4122 256 4122 
L 106 4122 
L 106 4238 
L 1913 4238 
L 1913 4122 
L 1769 4122 
Q 1622 4122 1484 4050 
Q 1388 4000 1350 3900 
Q 1313 3800 1313 3488 
L 1313 2191 
Q 1375 2250 1741 2588 
Q 2669 3438 2863 3722 
Q 2947 3847 2947 3941 
Q 2947 4013 2881 4067 
Q 2816 4122 2659 4122 
L 2563 4122 
L 2563 4238 
L 4119 4238 
L 4119 4122 
Q 3981 4119 3868 4084 
Q 3756 4050 3593 3951 
Q 3431 3853 3194 3634 
Q 3125 3572 2559 2994 
L 1913 2350 
z
" transform="scale(0.015625)"/>
      <path id="TimesNewRomanPSMT-46" d="M 1309 4006 
L 1309 2341 
L 2081 2341 
Q 2347 2341 2470 2458 
Q 2594 2575 2634 2922 
L 2750 2922 
L 2750 1488 
L 2634 1488 
Q 2631 1734 2570 1850 
Q 2509 1966 2401 2023 
Q 2294 2081 2081 2081 
L 1309 2081 
L 1309 750 
Q 1309 428 1350 325 
Q 1381 247 1481 191 
Q 1619 116 1769 116 
L 1922 116 
L 1922 0 
L 103 0 
L 103 116 
L 253 116 
Q 516 116 634 269 
Q 709 369 709 750 
L 709 3488 
Q 709 3809 669 3913 
Q 638 3991 541 4047 
Q 406 4122 253 4122 
L 103 4122 
L 103 4238 
L 3256 4238 
L 3297 3306 
L 3188 3306 
Q 3106 3603 2998 3742 
Q 2891 3881 2733 3943 
Q 2575 4006 2244 4006 
L 1309 4006 
z
" transform="scale(0.015625)"/>
     </defs>
     <use xlink:href="#DejaVuSans-Oblique-3c9" transform="translate(0 0.5625)"/>
     <use xlink:href="#DejaVuSans-Oblique-6c" transform="translate(83.740234 -15.84375) scale(0.7)"/>
     <use xlink:href="#TimesNewRomanPSMT-20" transform="translate(105.922852 0.5625)"/>
     <use xlink:href="#TimesNewRomanPSMT-28" transform="translate(130.922852 0.5625)"/>
     <use xlink:href="#TimesNewRomanPSMT-72" transform="translate(164.223633 0.5625)"/>
     <use xlink:href="#TimesNewRomanPSMT-61" transform="translate(197.524414 0.5625)"/>
     <use xlink:href="#TimesNewRomanPSMT-64" transform="translate(241.90918 0.5625)"/>
     <use xlink:href="#TimesNewRomanPSMT-2f" transform="translate(291.90918 0.5625)"/>
     <use xlink:href="#TimesNewRomanPSMT-73" transform="translate(319.692383 0.5625)"/>
     <use xlink:href="#TimesNewRomanPSMT-29" transform="translate(358.608398 0.5625)"/>
     <use xlink:href="#TimesNewRomanPSMT-20" transform="translate(391.90918 0.5625)"/>
     <use xlink:href="#TimesNewRomanPSMT-2d" transform="translate(416.90918 0.5625)"/>
     <use xlink:href="#TimesNewRomanPSMT-20" transform="translate(450.209961 0.5625)"/>
     <use xlink:href="#TimesNewRomanPSMT-28" transform="translate(475.209961 0.5625)"/>
     <use xlink:href="#TimesNewRomanPSMT-4a" transform="translate(508.510742 0.5625)"/>
     <use xlink:href="#TimesNewRomanPSMT-55" transform="translate(547.426758 0.5625)"/>
     <use xlink:href="#TimesNewRomanPSMT-4b" transform="translate(619.643555 0.5625)"/>
     <use xlink:href="#TimesNewRomanPSMT-46" transform="translate(691.860352 0.5625)"/>
     <use xlink:href="#TimesNewRomanPSMT-29" transform="translate(747.475586 0.5625)"/>
    </g>
   </g>
   <g id="legend_1">
    <g id="patch_7">
     <path d="M 339.2 57.238125 
L 381.8 57.238125 
Q 383.8 57.238125 383.8 55.238125 
L 383.8 41.56 
Q 383.8 39.56 381.8 39.56 
L 339.2 39.56 
Q 337.2 39.56 337.2 41.56 
L 337.2 55.238125 
Q 337.2 57.238125 339.2 57.238125 
z
" style="fill: #ffffff; opacity: 0.8; stroke: #cccccc; stroke-linejoin: miter"/>
    </g>
    <g id="line2d_32">
     <path d="M 341.2 47.658438 
L 351.2 47.658438 
L 361.2 47.658438 
" style="fill: none; stroke: #000000; stroke-width: 0.5; stroke-linecap: square"/>
    </g>
    <g id="text_19">
     <!-- $\omega_{l}$ -->
     <g transform="translate(369.2 51.158438) scale(0.1 -0.1)">
      <use xlink:href="#DejaVuSans-Oblique-3c9" transform="translate(0 0.3125)"/>
      <use xlink:href="#DejaVuSans-Oblique-6c" transform="translate(83.740234 -16.09375) scale(0.7)"/>
     </g>
    </g>
   </g>
  </g>
 </g>
 <defs>
  <clipPath id="pcff9d215be">
   <rect x="54" y="34.56" width="334.8" height="221.76"/>
  </clipPath>
 </defs>
</svg>
