<?xml version="1.0" encoding="utf-8" standalone="no"?>
<!DOCTYPE svg PUBLIC "-//W3C//DTD SVG 1.1//EN"
  "http://www.w3.org/Graphics/SVG/1.1/DTD/svg11.dtd">
<svg xmlns:xlink="http://www.w3.org/1999/xlink" width="432pt" height="288pt" viewBox="0 0 432 288" xmlns="http://www.w3.org/2000/svg" version="1.1">
 <metadata>
  <rdf:RDF xmlns:dc="http://purl.org/dc/elements/1.1/" xmlns:cc="http://creativecommons.org/ns#" xmlns:rdf="http://www.w3.org/1999/02/22-rdf-syntax-ns#">
   <cc:Work>
    <dc:type rdf:resource="http://purl.org/dc/dcmitype/StillImage"/>
    <dc:date>2024-11-10T15:31:07.761148</dc:date>
    <dc:format>image/svg+xml</dc:format>
    <dc:creator>
     <cc:Agent>
      <dc:title>Matplotlib v3.9.1, https://matplotlib.org/</dc:title>
     </cc:Agent>
    </dc:creator>
   </cc:Work>
  </rdf:RDF>
 </metadata>
 <defs>
  <style type="text/css">*{stroke-linejoin: round; stroke-linecap: butt}</style>
 </defs>
 <g id="figure_1">
  <g id="patch_1">
   <path d="M 0 288 
L 432 288 
L 432 0 
L 0 0 
z
" style="fill: #ffffff"/>
  </g>
  <g id="axes_1">
   <g id="patch_2">
    <path d="M 54 256.32 
L 388.8 256.32 
L 388.8 34.56 
L 54 34.56 
z
" style="fill: #ffffff"/>
   </g>
   <g id="matplotlib.axis_1">
    <g id="xtick_1">
     <g id="line2d_1">
      <path d="M 69.218182 256.32 
L 69.218182 34.56 
" clip-path="url(#p1783476e81)" style="fill: none; stroke: #b0b0b0; stroke-width: 0.2; stroke-linecap: square"/>
     </g>
     <g id="line2d_2">
      <defs>
       <path id="m0fb445b1d2" d="M 0 0 
L 0 3.5 
" style="stroke: #000000; stroke-width: 0.8"/>
      </defs>
      <g>
       <use xlink:href="#m0fb445b1d2" x="69.218182" y="256.32" style="stroke: #000000; stroke-width: 0.8"/>
      </g>
     </g>
     <g id="text_1">
      <!-- 0 -->
      <g transform="translate(65.718807 271.678281) scale(0.11 -0.11)">
       <defs>
        <path id="DejaVuSans-30" d="M 2034 4250 
Q 1547 4250 1301 3770 
Q 1056 3291 1056 2328 
Q 1056 1369 1301 889 
Q 1547 409 2034 409 
Q 2525 409 2770 889 
Q 3016 1369 3016 2328 
Q 3016 3291 2770 3770 
Q 2525 4250 2034 4250 
z
M 2034 4750 
Q 2819 4750 3233 4129 
Q 3647 3509 3647 2328 
Q 3647 1150 3233 529 
Q 2819 -91 2034 -91 
Q 1250 -91 836 529 
Q 422 1150 422 2328 
Q 422 3509 836 4129 
Q 1250 4750 2034 4750 
z
" transform="scale(0.015625)"/>
       </defs>
       <use xlink:href="#DejaVuSans-30"/>
      </g>
     </g>
    </g>
    <g id="xtick_2">
     <g id="line2d_3">
      <path d="M 119.945455 256.32 
L 119.945455 34.56 
" clip-path="url(#p1783476e81)" style="fill: none; stroke: #b0b0b0; stroke-width: 0.2; stroke-linecap: square"/>
     </g>
     <g id="line2d_4">
      <g>
       <use xlink:href="#m0fb445b1d2" x="119.945455" y="256.32" style="stroke: #000000; stroke-width: 0.8"/>
      </g>
     </g>
     <g id="text_2">
      <!-- 5 -->
      <g transform="translate(116.44608 271.678281) scale(0.11 -0.11)">
       <defs>
        <path id="DejaVuSans-35" d="M 691 4666 
L 3169 4666 
L 3169 4134 
L 1269 4134 
L 1269 2991 
Q 1406 3038 1543 3061 
Q 1681 3084 1819 3084 
Q 2600 3084 3056 2656 
Q 3513 2228 3513 1497 
Q 3513 744 3044 326 
Q 2575 -91 1722 -91 
Q 1428 -91 1123 -41 
Q 819 9 494 109 
L 494 744 
Q 775 591 1075 516 
Q 1375 441 1709 441 
Q 2250 441 2565 725 
Q 2881 1009 2881 1497 
Q 2881 1984 2565 2268 
Q 2250 2553 1709 2553 
Q 1456 2553 1204 2497 
Q 953 2441 691 2322 
L 691 4666 
z
" transform="scale(0.015625)"/>
       </defs>
       <use xlink:href="#DejaVuSans-35"/>
      </g>
     </g>
    </g>
    <g id="xtick_3">
     <g id="line2d_5">
      <path d="M 170.672727 256.32 
L 170.672727 34.56 
" clip-path="url(#p1783476e81)" style="fill: none; stroke: #b0b0b0; stroke-width: 0.2; stroke-linecap: square"/>
     </g>
     <g id="line2d_6">
      <g>
       <use xlink:href="#m0fb445b1d2" x="170.672727" y="256.32" style="stroke: #000000; stroke-width: 0.8"/>
      </g>
     </g>
     <g id="text_3">
      <!-- 10 -->
      <g transform="translate(163.673977 271.678281) scale(0.11 -0.11)">
       <defs>
        <path id="DejaVuSans-31" d="M 794 531 
L 1825 531 
L 1825 4091 
L 703 3866 
L 703 4441 
L 1819 4666 
L 2450 4666 
L 2450 531 
L 3481 531 
L 3481 0 
L 794 0 
L 794 531 
z
" transform="scale(0.015625)"/>
       </defs>
       <use xlink:href="#DejaVuSans-31"/>
       <use xlink:href="#DejaVuSans-30" x="63.623047"/>
      </g>
     </g>
    </g>
    <g id="xtick_4">
     <g id="line2d_7">
      <path d="M 221.4 256.32 
L 221.4 34.56 
" clip-path="url(#p1783476e81)" style="fill: none; stroke: #b0b0b0; stroke-width: 0.2; stroke-linecap: square"/>
     </g>
     <g id="line2d_8">
      <g>
       <use xlink:href="#m0fb445b1d2" x="221.4" y="256.32" style="stroke: #000000; stroke-width: 0.8"/>
      </g>
     </g>
     <g id="text_4">
      <!-- 15 -->
      <g transform="translate(214.40125 271.678281) scale(0.11 -0.11)">
       <use xlink:href="#DejaVuSans-31"/>
       <use xlink:href="#DejaVuSans-35" x="63.623047"/>
      </g>
     </g>
    </g>
    <g id="xtick_5">
     <g id="line2d_9">
      <path d="M 272.127273 256.32 
L 272.127273 34.56 
" clip-path="url(#p1783476e81)" style="fill: none; stroke: #b0b0b0; stroke-width: 0.2; stroke-linecap: square"/>
     </g>
     <g id="line2d_10">
      <g>
       <use xlink:href="#m0fb445b1d2" x="272.127273" y="256.32" style="stroke: #000000; stroke-width: 0.8"/>
      </g>
     </g>
     <g id="text_5">
      <!-- 20 -->
      <g transform="translate(265.128523 271.678281) scale(0.11 -0.11)">
       <defs>
        <path id="DejaVuSans-32" d="M 1228 531 
L 3431 531 
L 3431 0 
L 469 0 
L 469 531 
Q 828 903 1448 1529 
Q 2069 2156 2228 2338 
Q 2531 2678 2651 2914 
Q 2772 3150 2772 3378 
Q 2772 3750 2511 3984 
Q 2250 4219 1831 4219 
Q 1534 4219 1204 4116 
Q 875 4013 500 3803 
L 500 4441 
Q 881 4594 1212 4672 
Q 1544 4750 1819 4750 
Q 2544 4750 2975 4387 
Q 3406 4025 3406 3419 
Q 3406 3131 3298 2873 
Q 3191 2616 2906 2266 
Q 2828 2175 2409 1742 
Q 1991 1309 1228 531 
z
" transform="scale(0.015625)"/>
       </defs>
       <use xlink:href="#DejaVuSans-32"/>
       <use xlink:href="#DejaVuSans-30" x="63.623047"/>
      </g>
     </g>
    </g>
    <g id="xtick_6">
     <g id="line2d_11">
      <path d="M 322.854545 256.32 
L 322.854545 34.56 
" clip-path="url(#p1783476e81)" style="fill: none; stroke: #b0b0b0; stroke-width: 0.2; stroke-linecap: square"/>
     </g>
     <g id="line2d_12">
      <g>
       <use xlink:href="#m0fb445b1d2" x="322.854545" y="256.32" style="stroke: #000000; stroke-width: 0.8"/>
      </g>
     </g>
     <g id="text_6">
      <!-- 25 -->
      <g transform="translate(315.855795 271.678281) scale(0.11 -0.11)">
       <use xlink:href="#DejaVuSans-32"/>
       <use xlink:href="#DejaVuSans-35" x="63.623047"/>
      </g>
     </g>
    </g>
    <g id="xtick_7">
     <g id="line2d_13">
      <path d="M 373.581818 256.32 
L 373.581818 34.56 
" clip-path="url(#p1783476e81)" style="fill: none; stroke: #b0b0b0; stroke-width: 0.2; stroke-linecap: square"/>
     </g>
     <g id="line2d_14">
      <g>
       <use xlink:href="#m0fb445b1d2" x="373.581818" y="256.32" style="stroke: #000000; stroke-width: 0.8"/>
      </g>
     </g>
     <g id="text_7">
      <!-- 30 -->
      <g transform="translate(366.583068 271.678281) scale(0.11 -0.11)">
       <defs>
        <path id="DejaVuSans-33" d="M 2597 2516 
Q 3050 2419 3304 2112 
Q 3559 1806 3559 1356 
Q 3559 666 3084 287 
Q 2609 -91 1734 -91 
Q 1441 -91 1130 -33 
Q 819 25 488 141 
L 488 750 
Q 750 597 1062 519 
Q 1375 441 1716 441 
Q 2309 441 2620 675 
Q 2931 909 2931 1356 
Q 2931 1769 2642 2001 
Q 2353 2234 1838 2234 
L 1294 2234 
L 1294 2753 
L 1863 2753 
Q 2328 2753 2575 2939 
Q 2822 3125 2822 3475 
Q 2822 3834 2567 4026 
Q 2313 4219 1838 4219 
Q 1578 4219 1281 4162 
Q 984 4106 628 3988 
L 628 4550 
Q 988 4650 1302 4700 
Q 1616 4750 1894 4750 
Q 2613 4750 3031 4423 
Q 3450 4097 3450 3541 
Q 3450 3153 3228 2886 
Q 3006 2619 2597 2516 
z
" transform="scale(0.015625)"/>
       </defs>
       <use xlink:href="#DejaVuSans-33"/>
       <use xlink:href="#DejaVuSans-30" x="63.623047"/>
      </g>
     </g>
    </g>
    <g id="text_8">
     <!-- Time (s) -->
     <g transform="translate(202.807422 285.604062) scale(0.11 -0.11)">
      <defs>
       <path id="TimesNewRomanPSMT-54" d="M 3703 4238 
L 3750 3244 
L 3631 3244 
Q 3597 3506 3538 3619 
Q 3441 3800 3280 3886 
Q 3119 3972 2856 3972 
L 2259 3972 
L 2259 734 
Q 2259 344 2344 247 
Q 2463 116 2709 116 
L 2856 116 
L 2856 0 
L 1059 0 
L 1059 116 
L 1209 116 
Q 1478 116 1591 278 
Q 1659 378 1659 734 
L 1659 3972 
L 1150 3972 
Q 853 3972 728 3928 
Q 566 3869 450 3700 
Q 334 3531 313 3244 
L 194 3244 
L 244 4238 
L 3703 4238 
z
" transform="scale(0.015625)"/>
       <path id="TimesNewRomanPSMT-69" d="M 928 4444 
Q 1059 4444 1151 4351 
Q 1244 4259 1244 4128 
Q 1244 3997 1151 3903 
Q 1059 3809 928 3809 
Q 797 3809 703 3903 
Q 609 3997 609 4128 
Q 609 4259 701 4351 
Q 794 4444 928 4444 
z
M 1188 2947 
L 1188 647 
Q 1188 378 1227 289 
Q 1266 200 1342 156 
Q 1419 113 1622 113 
L 1622 0 
L 231 0 
L 231 113 
Q 441 113 512 153 
Q 584 194 626 287 
Q 669 381 669 647 
L 669 1750 
Q 669 2216 641 2353 
Q 619 2453 572 2492 
Q 525 2531 444 2531 
Q 356 2531 231 2484 
L 188 2597 
L 1050 2947 
L 1188 2947 
z
" transform="scale(0.015625)"/>
       <path id="TimesNewRomanPSMT-6d" d="M 1050 2338 
Q 1363 2650 1419 2697 
Q 1559 2816 1721 2881 
Q 1884 2947 2044 2947 
Q 2313 2947 2506 2790 
Q 2700 2634 2766 2338 
Q 3088 2713 3309 2830 
Q 3531 2947 3766 2947 
Q 3994 2947 4170 2830 
Q 4347 2713 4450 2447 
Q 4519 2266 4519 1878 
L 4519 647 
Q 4519 378 4559 278 
Q 4591 209 4675 161 
Q 4759 113 4950 113 
L 4950 0 
L 3538 0 
L 3538 113 
L 3597 113 
Q 3781 113 3884 184 
Q 3956 234 3988 344 
Q 4000 397 4000 647 
L 4000 1878 
Q 4000 2228 3916 2372 
Q 3794 2572 3525 2572 
Q 3359 2572 3192 2489 
Q 3025 2406 2788 2181 
L 2781 2147 
L 2788 2013 
L 2788 647 
Q 2788 353 2820 281 
Q 2853 209 2943 161 
Q 3034 113 3253 113 
L 3253 0 
L 1806 0 
L 1806 113 
Q 2044 113 2133 169 
Q 2222 225 2256 338 
Q 2272 391 2272 647 
L 2272 1878 
Q 2272 2228 2169 2381 
Q 2031 2581 1784 2581 
Q 1616 2581 1450 2491 
Q 1191 2353 1050 2181 
L 1050 647 
Q 1050 366 1089 281 
Q 1128 197 1204 155 
Q 1281 113 1516 113 
L 1516 0 
L 100 0 
L 100 113 
Q 297 113 375 155 
Q 453 197 493 289 
Q 534 381 534 647 
L 534 1741 
Q 534 2213 506 2350 
Q 484 2453 437 2492 
Q 391 2531 309 2531 
Q 222 2531 100 2484 
L 53 2597 
L 916 2947 
L 1050 2947 
L 1050 2338 
z
" transform="scale(0.015625)"/>
       <path id="TimesNewRomanPSMT-65" d="M 681 1784 
Q 678 1147 991 784 
Q 1303 422 1725 422 
Q 2006 422 2214 576 
Q 2422 731 2563 1106 
L 2659 1044 
Q 2594 616 2278 264 
Q 1963 -88 1488 -88 
Q 972 -88 605 314 
Q 238 716 238 1394 
Q 238 2128 614 2539 
Q 991 2950 1559 2950 
Q 2041 2950 2350 2633 
Q 2659 2316 2659 1784 
L 681 1784 
z
M 681 1966 
L 2006 1966 
Q 1991 2241 1941 2353 
Q 1863 2528 1708 2628 
Q 1553 2728 1384 2728 
Q 1125 2728 920 2526 
Q 716 2325 681 1966 
z
" transform="scale(0.015625)"/>
       <path id="TimesNewRomanPSMT-20" transform="scale(0.015625)"/>
       <path id="TimesNewRomanPSMT-28" d="M 1988 -1253 
L 1988 -1369 
Q 1516 -1131 1200 -813 
Q 750 -359 506 256 
Q 263 872 263 1534 
Q 263 2503 741 3301 
Q 1219 4100 1988 4444 
L 1988 4313 
Q 1603 4100 1356 3731 
Q 1109 3363 987 2797 
Q 866 2231 866 1616 
Q 866 947 969 400 
Q 1050 -31 1165 -292 
Q 1281 -553 1476 -793 
Q 1672 -1034 1988 -1253 
z
" transform="scale(0.015625)"/>
       <path id="TimesNewRomanPSMT-73" d="M 2050 2947 
L 2050 1972 
L 1947 1972 
Q 1828 2431 1642 2597 
Q 1456 2763 1169 2763 
Q 950 2763 815 2647 
Q 681 2531 681 2391 
Q 681 2216 781 2091 
Q 878 1963 1175 1819 
L 1631 1597 
Q 2266 1288 2266 781 
Q 2266 391 1970 151 
Q 1675 -88 1309 -88 
Q 1047 -88 709 6 
Q 606 38 541 38 
Q 469 38 428 -44 
L 325 -44 
L 325 978 
L 428 978 
Q 516 541 762 319 
Q 1009 97 1316 97 
Q 1531 97 1667 223 
Q 1803 350 1803 528 
Q 1803 744 1651 891 
Q 1500 1038 1047 1263 
Q 594 1488 453 1669 
Q 313 1847 313 2119 
Q 313 2472 555 2709 
Q 797 2947 1181 2947 
Q 1350 2947 1591 2875 
Q 1750 2828 1803 2828 
Q 1853 2828 1881 2850 
Q 1909 2872 1947 2947 
L 2050 2947 
z
" transform="scale(0.015625)"/>
       <path id="TimesNewRomanPSMT-29" d="M 144 4313 
L 144 4444 
Q 619 4209 934 3891 
Q 1381 3434 1625 2820 
Q 1869 2206 1869 1541 
Q 1869 572 1392 -226 
Q 916 -1025 144 -1369 
L 144 -1253 
Q 528 -1038 776 -670 
Q 1025 -303 1145 264 
Q 1266 831 1266 1447 
Q 1266 2113 1163 2663 
Q 1084 3094 967 3353 
Q 850 3613 656 3853 
Q 463 4094 144 4313 
z
" transform="scale(0.015625)"/>
      </defs>
      <use xlink:href="#TimesNewRomanPSMT-54"/>
      <use xlink:href="#TimesNewRomanPSMT-69" x="57.583984"/>
      <use xlink:href="#TimesNewRomanPSMT-6d" x="85.367188"/>
      <use xlink:href="#TimesNewRomanPSMT-65" x="163.150391"/>
      <use xlink:href="#TimesNewRomanPSMT-20" x="207.535156"/>
      <use xlink:href="#TimesNewRomanPSMT-28" x="232.535156"/>
      <use xlink:href="#TimesNewRomanPSMT-73" x="265.835938"/>
      <use xlink:href="#TimesNewRomanPSMT-29" x="304.751953"/>
     </g>
    </g>
   </g>
   <g id="matplotlib.axis_2">
    <g id="ytick_1">
     <g id="line2d_15">
      <path d="M 54 249.84757 
L 388.8 249.84757 
" clip-path="url(#p1783476e81)" style="fill: none; stroke: #b0b0b0; stroke-width: 0.2; stroke-linecap: square"/>
     </g>
     <g id="line2d_16">
      <defs>
       <path id="m4907192d31" d="M 0 0 
L -3.5 0 
" style="stroke: #000000; stroke-width: 0.8"/>
      </defs>
      <g>
       <use xlink:href="#m4907192d31" x="54" y="249.84757" style="stroke: #000000; stroke-width: 0.8"/>
      </g>
     </g>
     <g id="text_9">
      <!-- −15 -->
      <g transform="translate(23.784844 254.02671) scale(0.11 -0.11)">
       <defs>
        <path id="DejaVuSans-2212" d="M 678 2272 
L 4684 2272 
L 4684 1741 
L 678 1741 
L 678 2272 
z
" transform="scale(0.015625)"/>
       </defs>
       <use xlink:href="#DejaVuSans-2212"/>
       <use xlink:href="#DejaVuSans-31" x="83.789062"/>
       <use xlink:href="#DejaVuSans-35" x="147.412109"/>
      </g>
     </g>
    </g>
    <g id="ytick_2">
     <g id="line2d_17">
      <path d="M 54 214.021459 
L 388.8 214.021459 
" clip-path="url(#p1783476e81)" style="fill: none; stroke: #b0b0b0; stroke-width: 0.2; stroke-linecap: square"/>
     </g>
     <g id="line2d_18">
      <g>
       <use xlink:href="#m4907192d31" x="54" y="214.021459" style="stroke: #000000; stroke-width: 0.8"/>
      </g>
     </g>
     <g id="text_10">
      <!-- −10 -->
      <g transform="translate(23.784844 218.2006) scale(0.11 -0.11)">
       <use xlink:href="#DejaVuSans-2212"/>
       <use xlink:href="#DejaVuSans-31" x="83.789062"/>
       <use xlink:href="#DejaVuSans-30" x="147.412109"/>
      </g>
     </g>
    </g>
    <g id="ytick_3">
     <g id="line2d_19">
      <path d="M 54 178.195349 
L 388.8 178.195349 
" clip-path="url(#p1783476e81)" style="fill: none; stroke: #b0b0b0; stroke-width: 0.2; stroke-linecap: square"/>
     </g>
     <g id="line2d_20">
      <g>
       <use xlink:href="#m4907192d31" x="54" y="178.195349" style="stroke: #000000; stroke-width: 0.8"/>
      </g>
     </g>
     <g id="text_11">
      <!-- −5 -->
      <g transform="translate(30.783594 182.37449) scale(0.11 -0.11)">
       <use xlink:href="#DejaVuSans-2212"/>
       <use xlink:href="#DejaVuSans-35" x="83.789062"/>
      </g>
     </g>
    </g>
    <g id="ytick_4">
     <g id="line2d_21">
      <path d="M 54 142.369239 
L 388.8 142.369239 
" clip-path="url(#p1783476e81)" style="fill: none; stroke: #b0b0b0; stroke-width: 0.2; stroke-linecap: square"/>
     </g>
     <g id="line2d_22">
      <g>
       <use xlink:href="#m4907192d31" x="54" y="142.369239" style="stroke: #000000; stroke-width: 0.8"/>
      </g>
     </g>
     <g id="text_12">
      <!-- 0 -->
      <g transform="translate(40.00125 146.54838) scale(0.11 -0.11)">
       <use xlink:href="#DejaVuSans-30"/>
      </g>
     </g>
    </g>
    <g id="ytick_5">
     <g id="line2d_23">
      <path d="M 54 106.543129 
L 388.8 106.543129 
" clip-path="url(#p1783476e81)" style="fill: none; stroke: #b0b0b0; stroke-width: 0.2; stroke-linecap: square"/>
     </g>
     <g id="line2d_24">
      <g>
       <use xlink:href="#m4907192d31" x="54" y="106.543129" style="stroke: #000000; stroke-width: 0.8"/>
      </g>
     </g>
     <g id="text_13">
      <!-- 5 -->
      <g transform="translate(40.00125 110.722269) scale(0.11 -0.11)">
       <use xlink:href="#DejaVuSans-35"/>
      </g>
     </g>
    </g>
    <g id="ytick_6">
     <g id="line2d_25">
      <path d="M 54 70.717018 
L 388.8 70.717018 
" clip-path="url(#p1783476e81)" style="fill: none; stroke: #b0b0b0; stroke-width: 0.2; stroke-linecap: square"/>
     </g>
     <g id="line2d_26">
      <g>
       <use xlink:href="#m4907192d31" x="54" y="70.717018" style="stroke: #000000; stroke-width: 0.8"/>
      </g>
     </g>
     <g id="text_14">
      <!-- 10 -->
      <g transform="translate(33.0025 74.896159) scale(0.11 -0.11)">
       <use xlink:href="#DejaVuSans-31"/>
       <use xlink:href="#DejaVuSans-30" x="63.623047"/>
      </g>
     </g>
    </g>
    <g id="ytick_7">
     <g id="line2d_27">
      <path d="M 54 34.890908 
L 388.8 34.890908 
" clip-path="url(#p1783476e81)" style="fill: none; stroke: #b0b0b0; stroke-width: 0.2; stroke-linecap: square"/>
     </g>
     <g id="line2d_28">
      <g>
       <use xlink:href="#m4907192d31" x="54" y="34.890908" style="stroke: #000000; stroke-width: 0.8"/>
      </g>
     </g>
     <g id="text_15">
      <!-- 15 -->
      <g transform="translate(33.0025 39.070049) scale(0.11 -0.11)">
       <use xlink:href="#DejaVuSans-31"/>
       <use xlink:href="#DejaVuSans-35" x="63.623047"/>
      </g>
     </g>
    </g>
    <g id="text_16">
     <!-- Angular velocity of the motor - $\omega_{m}$ (rad/s) -->
     <g transform="translate(17.364844 239.985) rotate(-90) scale(0.11 -0.11)">
      <defs>
       <path id="TimesNewRomanPSMT-41" d="M 2928 1419 
L 1288 1419 
L 1000 750 
Q 894 503 894 381 
Q 894 284 986 211 
Q 1078 138 1384 116 
L 1384 0 
L 50 0 
L 50 116 
Q 316 163 394 238 
Q 553 388 747 847 
L 2238 4334 
L 2347 4334 
L 3822 809 
Q 4000 384 4145 257 
Q 4291 131 4550 116 
L 4550 0 
L 2878 0 
L 2878 116 
Q 3131 128 3220 200 
Q 3309 272 3309 375 
Q 3309 513 3184 809 
L 2928 1419 
z
M 2841 1650 
L 2122 3363 
L 1384 1650 
L 2841 1650 
z
" transform="scale(0.015625)"/>
       <path id="TimesNewRomanPSMT-6e" d="M 1034 2341 
Q 1538 2947 1994 2947 
Q 2228 2947 2397 2830 
Q 2566 2713 2666 2444 
Q 2734 2256 2734 1869 
L 2734 647 
Q 2734 375 2778 278 
Q 2813 200 2889 156 
Q 2966 113 3172 113 
L 3172 0 
L 1756 0 
L 1756 113 
L 1816 113 
Q 2016 113 2095 173 
Q 2175 234 2206 353 
Q 2219 400 2219 647 
L 2219 1819 
Q 2219 2209 2117 2386 
Q 2016 2563 1775 2563 
Q 1403 2563 1034 2156 
L 1034 647 
Q 1034 356 1069 288 
Q 1113 197 1189 155 
Q 1266 113 1500 113 
L 1500 0 
L 84 0 
L 84 113 
L 147 113 
Q 366 113 442 223 
Q 519 334 519 647 
L 519 1709 
Q 519 2225 495 2337 
Q 472 2450 423 2490 
Q 375 2531 294 2531 
Q 206 2531 84 2484 
L 38 2597 
L 900 2947 
L 1034 2947 
L 1034 2341 
z
" transform="scale(0.015625)"/>
       <path id="TimesNewRomanPSMT-67" d="M 966 1044 
Q 703 1172 562 1401 
Q 422 1631 422 1909 
Q 422 2334 742 2640 
Q 1063 2947 1563 2947 
Q 1972 2947 2272 2747 
L 2878 2747 
Q 3013 2747 3034 2739 
Q 3056 2731 3066 2713 
Q 3084 2684 3084 2613 
Q 3084 2531 3069 2500 
Q 3059 2484 3036 2475 
Q 3013 2466 2878 2466 
L 2506 2466 
Q 2681 2241 2681 1891 
Q 2681 1491 2375 1206 
Q 2069 922 1553 922 
Q 1341 922 1119 984 
Q 981 866 932 777 
Q 884 688 884 625 
Q 884 572 936 522 
Q 988 472 1138 450 
Q 1225 438 1575 428 
Q 2219 413 2409 384 
Q 2700 344 2873 169 
Q 3047 -6 3047 -263 
Q 3047 -616 2716 -925 
Q 2228 -1381 1444 -1381 
Q 841 -1381 425 -1109 
Q 191 -953 191 -784 
Q 191 -709 225 -634 
Q 278 -519 444 -313 
Q 466 -284 763 25 
Q 600 122 533 198 
Q 466 275 466 372 
Q 466 481 555 628 
Q 644 775 966 1044 
z
M 1509 2797 
Q 1278 2797 1122 2612 
Q 966 2428 966 2047 
Q 966 1553 1178 1281 
Q 1341 1075 1591 1075 
Q 1828 1075 1981 1253 
Q 2134 1431 2134 1813 
Q 2134 2309 1919 2591 
Q 1759 2797 1509 2797 
z
M 934 0 
Q 788 -159 713 -296 
Q 638 -434 638 -550 
Q 638 -700 819 -813 
Q 1131 -1006 1722 -1006 
Q 2284 -1006 2551 -807 
Q 2819 -609 2819 -384 
Q 2819 -222 2659 -153 
Q 2497 -84 2016 -72 
Q 1313 -53 934 0 
z
" transform="scale(0.015625)"/>
       <path id="TimesNewRomanPSMT-75" d="M 2709 2863 
L 2709 1128 
Q 2709 631 2732 520 
Q 2756 409 2807 365 
Q 2859 322 2928 322 
Q 3025 322 3147 375 
L 3191 266 
L 2334 -88 
L 2194 -88 
L 2194 519 
Q 1825 119 1631 15 
Q 1438 -88 1222 -88 
Q 981 -88 804 51 
Q 628 191 559 409 
Q 491 628 491 1028 
L 491 2306 
Q 491 2509 447 2587 
Q 403 2666 317 2708 
Q 231 2750 6 2747 
L 6 2863 
L 1009 2863 
L 1009 947 
Q 1009 547 1148 422 
Q 1288 297 1484 297 
Q 1619 297 1789 381 
Q 1959 466 2194 703 
L 2194 2325 
Q 2194 2569 2105 2655 
Q 2016 2741 1734 2747 
L 1734 2863 
L 2709 2863 
z
" transform="scale(0.015625)"/>
       <path id="TimesNewRomanPSMT-6c" d="M 1184 4444 
L 1184 647 
Q 1184 378 1223 290 
Q 1263 203 1344 158 
Q 1425 113 1647 113 
L 1647 0 
L 244 0 
L 244 113 
Q 441 113 512 153 
Q 584 194 625 287 
Q 666 381 666 647 
L 666 3247 
Q 666 3731 644 3842 
Q 622 3953 573 3993 
Q 525 4034 450 4034 
Q 369 4034 244 3984 
L 191 4094 
L 1044 4444 
L 1184 4444 
z
" transform="scale(0.015625)"/>
       <path id="TimesNewRomanPSMT-61" d="M 1822 413 
Q 1381 72 1269 19 
Q 1100 -59 909 -59 
Q 613 -59 420 144 
Q 228 347 228 678 
Q 228 888 322 1041 
Q 450 1253 767 1440 
Q 1084 1628 1822 1897 
L 1822 2009 
Q 1822 2438 1686 2597 
Q 1550 2756 1291 2756 
Q 1094 2756 978 2650 
Q 859 2544 859 2406 
L 866 2225 
Q 866 2081 792 2003 
Q 719 1925 600 1925 
Q 484 1925 411 2006 
Q 338 2088 338 2228 
Q 338 2497 613 2722 
Q 888 2947 1384 2947 
Q 1766 2947 2009 2819 
Q 2194 2722 2281 2516 
Q 2338 2381 2338 1966 
L 2338 994 
Q 2338 584 2353 492 
Q 2369 400 2405 369 
Q 2441 338 2488 338 
Q 2538 338 2575 359 
Q 2641 400 2828 588 
L 2828 413 
Q 2478 -56 2159 -56 
Q 2006 -56 1915 50 
Q 1825 156 1822 413 
z
M 1822 616 
L 1822 1706 
Q 1350 1519 1213 1441 
Q 966 1303 859 1153 
Q 753 1003 753 825 
Q 753 600 887 451 
Q 1022 303 1197 303 
Q 1434 303 1822 616 
z
" transform="scale(0.015625)"/>
       <path id="TimesNewRomanPSMT-72" d="M 1038 2947 
L 1038 2303 
Q 1397 2947 1775 2947 
Q 1947 2947 2059 2842 
Q 2172 2738 2172 2600 
Q 2172 2478 2090 2393 
Q 2009 2309 1897 2309 
Q 1788 2309 1652 2417 
Q 1516 2525 1450 2525 
Q 1394 2525 1328 2463 
Q 1188 2334 1038 2041 
L 1038 669 
Q 1038 431 1097 309 
Q 1138 225 1241 169 
Q 1344 113 1538 113 
L 1538 0 
L 72 0 
L 72 113 
Q 291 113 397 181 
Q 475 231 506 341 
Q 522 394 522 644 
L 522 1753 
Q 522 2253 501 2348 
Q 481 2444 426 2487 
Q 372 2531 291 2531 
Q 194 2531 72 2484 
L 41 2597 
L 906 2947 
L 1038 2947 
z
" transform="scale(0.015625)"/>
       <path id="TimesNewRomanPSMT-76" d="M 53 2863 
L 1400 2863 
L 1400 2747 
L 1313 2747 
Q 1191 2747 1127 2687 
Q 1063 2628 1063 2528 
Q 1063 2419 1128 2269 
L 1794 688 
L 2463 2328 
Q 2534 2503 2534 2594 
Q 2534 2638 2509 2666 
Q 2475 2713 2422 2730 
Q 2369 2747 2206 2747 
L 2206 2863 
L 3141 2863 
L 3141 2747 
Q 2978 2734 2916 2681 
Q 2806 2588 2719 2369 
L 1703 -88 
L 1575 -88 
L 553 2328 
Q 484 2497 421 2570 
Q 359 2644 263 2694 
Q 209 2722 53 2747 
L 53 2863 
z
" transform="scale(0.015625)"/>
       <path id="TimesNewRomanPSMT-6f" d="M 1600 2947 
Q 2250 2947 2644 2453 
Q 2978 2031 2978 1484 
Q 2978 1100 2793 706 
Q 2609 313 2286 112 
Q 1963 -88 1566 -88 
Q 919 -88 538 428 
Q 216 863 216 1403 
Q 216 1797 411 2186 
Q 606 2575 925 2761 
Q 1244 2947 1600 2947 
z
M 1503 2744 
Q 1338 2744 1170 2645 
Q 1003 2547 900 2300 
Q 797 2053 797 1666 
Q 797 1041 1045 587 
Q 1294 134 1700 134 
Q 2003 134 2200 384 
Q 2397 634 2397 1244 
Q 2397 2006 2069 2444 
Q 1847 2744 1503 2744 
z
" transform="scale(0.015625)"/>
       <path id="TimesNewRomanPSMT-63" d="M 2631 1088 
Q 2516 522 2178 217 
Q 1841 -88 1431 -88 
Q 944 -88 581 321 
Q 219 731 219 1428 
Q 219 2103 620 2525 
Q 1022 2947 1584 2947 
Q 2006 2947 2278 2723 
Q 2550 2500 2550 2259 
Q 2550 2141 2473 2067 
Q 2397 1994 2259 1994 
Q 2075 1994 1981 2113 
Q 1928 2178 1911 2362 
Q 1894 2547 1784 2644 
Q 1675 2738 1481 2738 
Q 1169 2738 978 2506 
Q 725 2200 725 1697 
Q 725 1184 976 792 
Q 1228 400 1656 400 
Q 1963 400 2206 609 
Q 2378 753 2541 1131 
L 2631 1088 
z
" transform="scale(0.015625)"/>
       <path id="TimesNewRomanPSMT-74" d="M 1031 3803 
L 1031 2863 
L 1700 2863 
L 1700 2644 
L 1031 2644 
L 1031 788 
Q 1031 509 1111 412 
Q 1191 316 1316 316 
Q 1419 316 1516 380 
Q 1613 444 1666 569 
L 1788 569 
Q 1678 263 1478 108 
Q 1278 -47 1066 -47 
Q 922 -47 784 33 
Q 647 113 581 261 
Q 516 409 516 719 
L 516 2644 
L 63 2644 
L 63 2747 
Q 234 2816 414 2980 
Q 594 3144 734 3369 
Q 806 3488 934 3803 
L 1031 3803 
z
" transform="scale(0.015625)"/>
       <path id="TimesNewRomanPSMT-79" d="M 38 2863 
L 1372 2863 
L 1372 2747 
L 1306 2747 
Q 1166 2747 1095 2686 
Q 1025 2625 1025 2534 
Q 1025 2413 1128 2197 
L 1825 753 
L 2466 2334 
Q 2519 2463 2519 2588 
Q 2519 2644 2497 2672 
Q 2472 2706 2419 2726 
Q 2366 2747 2231 2747 
L 2231 2863 
L 3163 2863 
L 3163 2747 
Q 3047 2734 2984 2696 
Q 2922 2659 2847 2556 
Q 2819 2513 2741 2316 
L 1575 -541 
Q 1406 -956 1132 -1168 
Q 859 -1381 606 -1381 
Q 422 -1381 303 -1275 
Q 184 -1169 184 -1031 
Q 184 -900 270 -820 
Q 356 -741 506 -741 
Q 609 -741 788 -809 
Q 913 -856 944 -856 
Q 1038 -856 1148 -759 
Q 1259 -663 1372 -384 
L 1575 113 
L 547 2272 
Q 500 2369 397 2513 
Q 319 2622 269 2659 
Q 197 2709 38 2747 
L 38 2863 
z
" transform="scale(0.015625)"/>
       <path id="TimesNewRomanPSMT-66" d="M 1319 2638 
L 1319 756 
Q 1319 356 1406 250 
Q 1522 113 1716 113 
L 1975 113 
L 1975 0 
L 266 0 
L 266 113 
L 394 113 
Q 519 113 622 175 
Q 725 238 764 344 
Q 803 450 803 756 
L 803 2638 
L 247 2638 
L 247 2863 
L 803 2863 
L 803 3050 
Q 803 3478 940 3775 
Q 1078 4072 1361 4255 
Q 1644 4438 1997 4438 
Q 2325 4438 2600 4225 
Q 2781 4084 2781 3909 
Q 2781 3816 2700 3733 
Q 2619 3650 2525 3650 
Q 2453 3650 2373 3701 
Q 2294 3753 2178 3923 
Q 2063 4094 1966 4153 
Q 1869 4213 1750 4213 
Q 1606 4213 1506 4136 
Q 1406 4059 1362 3898 
Q 1319 3738 1319 3069 
L 1319 2863 
L 2056 2863 
L 2056 2638 
L 1319 2638 
z
" transform="scale(0.015625)"/>
       <path id="TimesNewRomanPSMT-68" d="M 1041 4444 
L 1041 2350 
Q 1388 2731 1591 2839 
Q 1794 2947 1997 2947 
Q 2241 2947 2416 2812 
Q 2591 2678 2675 2391 
Q 2734 2191 2734 1659 
L 2734 647 
Q 2734 375 2778 275 
Q 2809 200 2884 156 
Q 2959 113 3159 113 
L 3159 0 
L 1753 0 
L 1753 113 
L 1819 113 
Q 2019 113 2097 173 
Q 2175 234 2206 353 
Q 2216 403 2216 647 
L 2216 1659 
Q 2216 2128 2167 2275 
Q 2119 2422 2012 2495 
Q 1906 2569 1756 2569 
Q 1603 2569 1437 2487 
Q 1272 2406 1041 2159 
L 1041 647 
Q 1041 353 1073 281 
Q 1106 209 1195 161 
Q 1284 113 1503 113 
L 1503 0 
L 84 0 
L 84 113 
Q 275 113 384 172 
Q 447 203 484 290 
Q 522 378 522 647 
L 522 3238 
Q 522 3728 498 3840 
Q 475 3953 426 3993 
Q 378 4034 297 4034 
Q 231 4034 84 3984 
L 41 4094 
L 897 4444 
L 1041 4444 
z
" transform="scale(0.015625)"/>
       <path id="TimesNewRomanPSMT-2d" d="M 259 1672 
L 1875 1672 
L 1875 1200 
L 259 1200 
L 259 1672 
z
" transform="scale(0.015625)"/>
       <path id="DejaVuSans-Oblique-3c9" d="M 1369 -91 
Q 72 -91 434 1766 
Q 575 2500 1256 3500 
L 1875 3500 
Q 1231 2500 1088 1750 
Q 819 397 1519 397 
Q 2166 397 2478 2078 
L 3009 2078 
Q 2669 388 3316 397 
Q 4013 403 4275 1750 
Q 4419 2500 4169 3500 
L 4788 3500 
Q 5075 2500 4934 1766 
Q 4578 -94 3278 -91 
Q 2428 -88 2503 844 
Q 2194 -91 1369 -91 
z
" transform="scale(0.015625)"/>
       <path id="DejaVuSans-Oblique-6d" d="M 5747 2113 
L 5338 0 
L 4763 0 
L 5166 2094 
Q 5191 2228 5203 2325 
Q 5216 2422 5216 2491 
Q 5216 2772 5059 2928 
Q 4903 3084 4622 3084 
Q 4203 3084 3875 2770 
Q 3547 2456 3450 1953 
L 3066 0 
L 2491 0 
L 2900 2094 
Q 2925 2209 2937 2307 
Q 2950 2406 2950 2484 
Q 2950 2769 2794 2926 
Q 2638 3084 2363 3084 
Q 1938 3084 1609 2770 
Q 1281 2456 1184 1953 
L 800 0 
L 225 0 
L 909 3500 
L 1484 3500 
L 1375 2956 
Q 1609 3263 1923 3423 
Q 2238 3584 2597 3584 
Q 2978 3584 3223 3384 
Q 3469 3184 3519 2828 
Q 3781 3197 4126 3390 
Q 4472 3584 4856 3584 
Q 5306 3584 5551 3325 
Q 5797 3066 5797 2591 
Q 5797 2488 5784 2364 
Q 5772 2241 5747 2113 
z
" transform="scale(0.015625)"/>
       <path id="TimesNewRomanPSMT-64" d="M 2222 322 
Q 2013 103 1813 7 
Q 1613 -88 1381 -88 
Q 913 -88 563 304 
Q 213 697 213 1313 
Q 213 1928 600 2439 
Q 988 2950 1597 2950 
Q 1975 2950 2222 2709 
L 2222 3238 
Q 2222 3728 2198 3840 
Q 2175 3953 2125 3993 
Q 2075 4034 2000 4034 
Q 1919 4034 1784 3984 
L 1744 4094 
L 2597 4444 
L 2738 4444 
L 2738 1134 
Q 2738 631 2761 520 
Q 2784 409 2836 365 
Q 2888 322 2956 322 
Q 3041 322 3181 375 
L 3216 266 
L 2366 -88 
L 2222 -88 
L 2222 322 
z
M 2222 541 
L 2222 2016 
Q 2203 2228 2109 2403 
Q 2016 2578 1861 2667 
Q 1706 2756 1559 2756 
Q 1284 2756 1069 2509 
Q 784 2184 784 1559 
Q 784 928 1059 592 
Q 1334 256 1672 256 
Q 1956 256 2222 541 
z
" transform="scale(0.015625)"/>
       <path id="TimesNewRomanPSMT-2f" d="M 1794 4444 
L 259 -88 
L 9 -88 
L 1544 4444 
L 1794 4444 
z
" transform="scale(0.015625)"/>
      </defs>
      <use xlink:href="#TimesNewRomanPSMT-41" transform="translate(0 0.5625)"/>
      <use xlink:href="#TimesNewRomanPSMT-6e" transform="translate(72.216797 0.5625)"/>
      <use xlink:href="#TimesNewRomanPSMT-67" transform="translate(122.216797 0.5625)"/>
      <use xlink:href="#TimesNewRomanPSMT-75" transform="translate(172.216797 0.5625)"/>
      <use xlink:href="#TimesNewRomanPSMT-6c" transform="translate(222.216797 0.5625)"/>
      <use xlink:href="#TimesNewRomanPSMT-61" transform="translate(250 0.5625)"/>
      <use xlink:href="#TimesNewRomanPSMT-72" transform="translate(294.384766 0.5625)"/>
      <use xlink:href="#TimesNewRomanPSMT-20" transform="translate(327.685547 0.5625)"/>
      <use xlink:href="#TimesNewRomanPSMT-76" transform="translate(352.685547 0.5625)"/>
      <use xlink:href="#TimesNewRomanPSMT-65" transform="translate(402.685547 0.5625)"/>
      <use xlink:href="#TimesNewRomanPSMT-6c" transform="translate(447.070312 0.5625)"/>
      <use xlink:href="#TimesNewRomanPSMT-6f" transform="translate(474.853516 0.5625)"/>
      <use xlink:href="#TimesNewRomanPSMT-63" transform="translate(524.853516 0.5625)"/>
      <use xlink:href="#TimesNewRomanPSMT-69" transform="translate(569.238281 0.5625)"/>
      <use xlink:href="#TimesNewRomanPSMT-74" transform="translate(597.021484 0.5625)"/>
      <use xlink:href="#TimesNewRomanPSMT-79" transform="translate(624.804688 0.5625)"/>
      <use xlink:href="#TimesNewRomanPSMT-20" transform="translate(674.804688 0.5625)"/>
      <use xlink:href="#TimesNewRomanPSMT-6f" transform="translate(699.804688 0.5625)"/>
      <use xlink:href="#TimesNewRomanPSMT-66" transform="translate(749.804688 0.5625)"/>
      <use xlink:href="#TimesNewRomanPSMT-20" transform="translate(783.105469 0.5625)"/>
      <use xlink:href="#TimesNewRomanPSMT-74" transform="translate(808.105469 0.5625)"/>
      <use xlink:href="#TimesNewRomanPSMT-68" transform="translate(835.888672 0.5625)"/>
      <use xlink:href="#TimesNewRomanPSMT-65" transform="translate(885.888672 0.5625)"/>
      <use xlink:href="#TimesNewRomanPSMT-20" transform="translate(930.273438 0.5625)"/>
      <use xlink:href="#TimesNewRomanPSMT-6d" transform="translate(955.273438 0.5625)"/>
      <use xlink:href="#TimesNewRomanPSMT-6f" transform="translate(1033.056641 0.5625)"/>
      <use xlink:href="#TimesNewRomanPSMT-74" transform="translate(1083.056641 0.5625)"/>
      <use xlink:href="#TimesNewRomanPSMT-6f" transform="translate(1110.839844 0.5625)"/>
      <use xlink:href="#TimesNewRomanPSMT-72" transform="translate(1160.839844 0.5625)"/>
      <use xlink:href="#TimesNewRomanPSMT-20" transform="translate(1194.140625 0.5625)"/>
      <use xlink:href="#TimesNewRomanPSMT-2d" transform="translate(1219.140625 0.5625)"/>
      <use xlink:href="#TimesNewRomanPSMT-20" transform="translate(1252.441406 0.5625)"/>
      <use xlink:href="#DejaVuSans-Oblique-3c9" transform="translate(1277.441406 0.5625)"/>
      <use xlink:href="#DejaVuSans-Oblique-6d" transform="translate(1361.181641 -15.84375) scale(0.7)"/>
      <use xlink:href="#TimesNewRomanPSMT-20" transform="translate(1432.104492 0.5625)"/>
      <use xlink:href="#TimesNewRomanPSMT-28" transform="translate(1457.104492 0.5625)"/>
      <use xlink:href="#TimesNewRomanPSMT-72" transform="translate(1490.405273 0.5625)"/>
      <use xlink:href="#TimesNewRomanPSMT-61" transform="translate(1523.706055 0.5625)"/>
      <use xlink:href="#TimesNewRomanPSMT-64" transform="translate(1568.09082 0.5625)"/>
      <use xlink:href="#TimesNewRomanPSMT-2f" transform="translate(1618.09082 0.5625)"/>
      <use xlink:href="#TimesNewRomanPSMT-73" transform="translate(1645.874023 0.5625)"/>
      <use xlink:href="#TimesNewRomanPSMT-29" transform="translate(1684.790039 0.5625)"/>
     </g>
    </g>
   </g>
   <g id="line2d_29">
    <path d="M 69.218182 142.367211 
L 69.228327 142.646694 
L 69.2892 141.391401 
L 69.421091 139.968101 
L 69.451527 140.425384 
L 69.471818 140.36123 
L 69.603709 137.316811 
L 69.887782 129.388073 
L 70.384909 109.330621 
L 70.902327 93.166423 
L 71.064655 89.110146 
L 71.277709 85.555374 
L 71.348727 85.035002 
L 71.389309 85.511581 
L 71.399455 85.550426 
L 71.541491 83.276436 
L 71.703818 82.078948 
L 71.713964 82.366686 
L 71.805273 82.582848 
L 71.856 82.410747 
L 71.987891 84.889323 
L 72.018327 84.831807 
L 72.424145 92.312616 
L 76.046073 211.717714 
L 76.573636 221.384096 
L 76.583782 221.170189 
L 76.6548 221.833713 
L 76.867855 225.27024 
L 77.080909 228.146315 
L 77.111345 227.842292 
L 77.141782 228.000249 
L 77.182364 228.176365 
L 77.233091 227.898288 
L 77.334545 227.678698 
L 77.436 228.816372 
L 77.476582 228.688469 
L 77.486727 228.70652 
L 77.537455 229.320932 
L 77.598327 228.906524 
L 77.689636 228.127963 
L 77.720073 228.824331 
L 77.740364 228.878211 
L 77.8824 227.625811 
L 78.034582 225.522932 
L 78.450545 217.147567 
L 78.694036 207.08956 
L 79.688291 157.822208 
L 80.510073 114.330536 
L 81.392727 82.263975 
L 81.4536 82.675365 
L 81.555055 80.33297 
L 81.849273 74.425472 
L 81.879709 74.815632 
L 81.9 74.806895 
L 82.092764 71.247805 
L 82.102909 71.119391 
L 82.184073 71.470206 
L 82.255091 71.776275 
L 82.305818 73.730227 
L 82.366691 72.599365 
L 82.447855 70.847363 
L 82.559455 68.088939 
L 82.640618 69.10955 
L 82.711636 69.690684 
L 82.762364 71.057631 
L 82.813091 69.859328 
L 82.914545 68.914948 
L 82.944982 69.040062 
L 82.995709 68.628507 
L 83.026145 67.826207 
L 83.168182 66.380357 
L 83.178327 66.973245 
L 83.229055 67.397878 
L 83.421818 69.70411 
L 83.523273 69.173551 
L 83.574 68.882473 
L 83.634873 69.037148 
L 83.716036 69.179999 
L 83.837782 70.011537 
L 84.152291 74.592424 
L 84.649418 87.837572 
L 85.166836 110.762933 
L 86.708945 184.285646 
L 87.469855 203.925244 
L 87.987273 212.397384 
L 88.007564 212.173105 
L 88.088727 212.002616 
L 88.342364 215.331068 
L 88.443818 216.678623 
L 88.474255 216.394899 
L 88.494545 216.425244 
L 88.646727 217.492782 
L 88.697455 217.472405 
L 88.798909 216.857493 
L 88.809055 217.159629 
L 88.849636 217.110706 
L 88.991673 216.392869 
L 89.123564 214.898286 
L 89.356909 210.437389 
L 89.712 200.097136 
L 91.020764 135.315502 
L 91.528036 110.668749 
L 91.872982 96.593173 
L 92.2788 83.620072 
L 92.359964 80.695949 
L 92.674473 72.667936 
L 93.354218 62.042767 
L 93.415091 61.730112 
L 93.475964 61.924786 
L 93.536836 61.552115 
L 93.567273 61.454028 
L 93.709309 63.458358 
L 93.7296 63.172352 
L 93.820909 63.599726 
L 93.831055 63.463994 
L 93.881782 64.190611 
L 94.155709 68.302834 
L 94.612255 82.153814 
L 95.170255 108.03457 
L 97.097891 201.15484 
L 97.290655 204.863329 
L 97.321091 205.221341 
L 97.452982 209.058206 
L 97.737055 216.159262 
L 97.828364 217.868748 
L 97.899382 217.548332 
L 97.939964 217.674106 
L 98.082 218.329102 
L 98.234182 221.677927 
L 98.244327 221.556001 
L 98.426945 222.277822 
L 98.437091 222.308522 
L 98.447236 222.099455 
L 98.487818 222.12902 
L 98.538545 221.798649 
L 98.589273 222.045387 
L 98.64 222.637901 
L 98.711018 222.46327 
L 98.741455 222.446296 
L 98.893636 220.333296 
L 99.390764 211.864398 
L 99.958909 192.139773 
L 100.253127 176.753869 
L 101.815527 96.39915 
L 102.190909 84.024518 
L 102.221345 84.744385 
L 102.292364 83.935588 
L 102.546 76.04218 
L 102.556145 76.107977 
L 102.819927 72.834955 
L 102.870655 71.360686 
L 103.154727 66.560921 
L 103.164873 66.924081 
L 103.256182 66.300102 
L 103.266327 66.323313 
L 103.296764 66.163693 
L 103.398218 65.125797 
L 103.662 62.996465 
L 103.672145 63.471306 
L 103.814182 64.479065 
L 103.915636 64.282258 
L 103.966364 64.47346 
L 104.017091 64.022201 
L 104.077964 64.415264 
L 104.169273 65.832354 
L 104.473636 72.719198 
L 104.483782 72.693075 
L 104.493927 72.906983 
L 104.778 81.283578 
L 105.812836 132.224293 
L 106.928836 186.984718 
L 107.568 207.612839 
L 107.588291 207.307661 
L 107.770909 208.863666 
L 107.923091 214.530075 
L 107.933236 214.525689 
L 108.024545 215.994991 
L 108.085418 215.628858 
L 108.126 215.694445 
L 108.318764 218.187207 
L 108.633273 221.270793 
L 108.684 221.163433 
L 108.734727 221.059017 
L 108.785455 221.212748 
L 108.836182 221.86764 
L 108.886909 221.499112 
L 108.988364 219.821041 
L 109.008655 220.176757 
L 109.272436 218.277613 
L 109.475345 214.468473 
L 109.901455 201.466078 
L 110.256545 186.72169 
L 110.530473 171.035741 
L 111.626182 113.94635 
L 112.407382 84.490969 
L 112.650873 77.250545 
L 112.742182 75.068424 
L 112.8132 75.422937 
L 112.843636 75.411623 
L 113.127709 67.971521 
L 113.198727 66.87866 
L 113.249455 67.5771 
L 113.300182 67.888339 
L 113.350909 67.51963 
L 113.5944 62.95916 
L 113.604545 62.834033 
L 113.665418 63.446359 
L 113.756727 64.057935 
L 113.777018 63.515637 
L 113.807455 63.461977 
L 113.8176 63.539602 
L 113.858182 63.519607 
L 113.959636 64.265685 
L 113.979927 63.751036 
L 114.121964 63.436462 
L 114.162545 63.549334 
L 114.314727 65.36514 
L 114.324873 65.334867 
L 114.345164 65.599904 
L 114.558218 70.026399 
L 114.943745 82.478947 
L 115.704655 118.805096 
L 117.074291 187.645279 
L 117.906218 210.487621 
L 118.525091 220.638868 
L 118.575818 219.968669 
L 118.626545 220.770041 
L 118.636691 220.419262 
L 118.677273 220.27026 
L 118.728 220.288704 
L 118.829455 221.587837 
L 118.859891 221.220175 
L 118.880182 221.209321 
L 118.890327 221.297654 
L 118.910618 221.311591 
L 118.981636 221.403832 
L 119.083091 220.208352 
L 119.133818 220.34274 
L 119.143964 220.615065 
L 119.235273 220.169448 
L 119.245418 220.206319 
L 119.275855 219.95396 
L 119.417891 217.641801 
L 119.854145 207.24486 
L 120.817964 168.748821 
L 122.552836 81.872464 
L 123.090545 57.917617 
L 123.100691 58.210112 
L 123.151418 56.967895 
L 123.699273 45.703326 
L 123.709418 46.1171 
L 123.75 45.976234 
L 123.871745 44.687696 
L 123.902182 44.64 
L 123.942764 44.766623 
L 123.983345 45.446789 
L 124.226836 49.794888 
L 124.723964 67.687189 
L 125.363127 111.104567 
L 127.026982 231.393626 
L 127.351636 242.672209 
L 127.361782 242.202118 
L 127.402364 242.129953 
L 127.554545 246.158996 
L 127.564691 245.734969 
L 127.656 246.24 
L 127.666145 245.977438 
L 127.757455 245.534679 
L 127.798036 245.850593 
L 127.909636 245.195305 
L 128.061818 241.923301 
L 128.071964 241.985052 
L 128.1024 241.513535 
L 128.183564 238.389417 
L 128.690836 216.073746 
L 129.33 173.073692 
L 130.172073 115.341299 
L 130.811236 82.988752 
L 131.267782 69.748571 
L 131.663455 63.182547 
L 131.805491 65.684674 
L 131.815636 65.819959 
L 131.856218 65.020579 
L 131.957673 65.035062 
L 131.917091 65.074724 
L 131.967818 65.042971 
L 132.170727 67.09564 
L 132.180873 66.699702 
L 132.241745 68.134588 
L 132.272182 68.957948 
L 132.373636 68.823894 
L 132.424364 68.265177 
L 132.475091 68.906925 
L 132.678 74.590698 
L 132.880909 78.264793 
L 132.891055 78.071845 
L 132.982364 80.53648 
L 133.144691 85.859853 
L 133.783855 104.474743 
L 134.179527 118.372549 
L 136.086873 188.24078 
L 136.959382 211.231569 
L 137.395636 217.086964 
L 137.466655 216.800961 
L 137.497091 216.748563 
L 137.507236 216.915476 
L 137.547818 217.036075 
L 137.598545 218.86518 
L 137.659418 217.932117 
L 137.831891 215.911809 
L 137.953636 214.375948 
L 137.963782 215.155597 
L 138.095673 215.450786 
L 138.105818 215.44687 
L 138.684109 198.557153 
L 139.475455 165.609594 
L 139.789964 149.341308 
L 140.875527 97.228666 
L 141.352364 79.474918 
L 141.514691 75.467553 
L 142.265455 63.769939 
L 142.397345 65.5403 
L 142.569818 66.734997 
L 142.620545 65.836027 
L 142.681418 66.272918 
L 142.722 66.356513 
L 143.411891 83.190592 
L 143.584364 86.076757 
L 143.594509 85.972374 
L 143.635091 86.435895 
L 143.848145 95.227245 
L 144.527891 124.33966 
L 145.491709 167.456928 
L 146.100436 190.277552 
L 146.4048 199.597613 
L 146.861345 210.054506 
L 146.922218 211.612729 
L 147.135273 216.463931 
L 147.236727 215.569395 
L 147.338182 214.495289 
L 147.358473 215.179878 
L 147.429491 216.315696 
L 147.490364 215.888819 
L 147.693273 218.741587 
L 147.8556 214.45313 
L 147.946909 212.61541 
L 147.997636 213.654888 
L 148.048364 214.442405 
L 148.099091 213.289217 
L 148.109236 213.436175 
L 148.159964 212.827453 
L 148.302 209.759421 
L 148.555636 203.613713 
L 148.586073 203.169012 
L 148.7484 197.56289 
L 150.574582 116.714798 
L 151.284764 88.045064 
L 151.487673 84.886338 
L 151.528255 83.684166 
L 151.660145 78.802897 
L 151.903636 71.223698 
L 151.944218 71.327295 
L 151.954364 71.278462 
L 151.964509 71.510315 
L 152.045673 71.375714 
L 152.106545 71.144624 
L 152.258727 68.119483 
L 152.512364 65.834675 
L 152.583382 66.177794 
L 152.613818 66.242545 
L 152.715273 67.610884 
L 152.745709 67.507225 
L 152.979055 68.580172 
L 153.121091 69.524454 
L 153.141382 69.280074 
L 153.171818 69.380927 
L 153.425455 78.070352 
L 153.4356 77.617992 
L 153.526909 78.358794 
L 154.115345 98.290087 
L 156.347345 195.050271 
L 157.128545 213.655672 
L 157.138691 213.478605 
L 157.189418 213.961748 
L 157.483636 217.41984 
L 157.514073 216.488303 
L 157.534364 216.2755 
L 157.5648 217.042432 
L 157.686545 217.266212 
L 157.635818 217.006001 
L 157.706836 217.215083 
L 157.737273 217.224574 
L 157.838727 218.34939 
L 157.859018 217.940456 
L 157.980764 216.879882 
L 158.061927 215.259648 
L 158.295273 211.733668 
L 158.315564 211.734708 
L 158.498182 208.630585 
L 158.731527 202.702187 
L 158.904 196.452666 
L 160.030145 149.774845 
L 161.278036 94.126914 
L 161.744727 79.718222 
L 161.754873 80.123089 
L 161.825891 78.948817 
L 161.967927 74.91174 
L 162.201273 70.640461 
L 162.211418 70.880661 
L 162.252 70.947879 
L 162.404182 68.797136 
L 162.414327 68.985222 
L 162.485345 68.441922 
L 162.759273 66.121338 
L 162.789709 67.036789 
L 162.81 67.240799 
L 162.820145 66.860772 
L 162.860727 66.901124 
L 162.911455 66.462545 
L 162.952036 67.095089 
L 163.185382 70.085612 
L 163.215818 70.806121 
L 163.286836 70.116539 
L 163.317273 70.05339 
L 163.469455 75.492249 
L 163.4796 75.488889 
L 164.169491 95.839147 
L 166.502945 196.550125 
L 166.908764 206.324612 
L 167.426182 215.142407 
L 167.466764 215.129253 
L 167.649382 217.462674 
L 167.832 219.576409 
L 167.842145 219.128164 
L 167.913164 217.87956 
L 168.034909 214.621799 
L 168.1668 215.154597 
L 168.187091 215.036101 
L 168.197236 215.572791 
L 168.237818 215.788585 
L 168.258109 215.371146 
L 168.339273 214.313279 
L 168.826255 204.679104 
L 168.897273 203.082804 
L 169.120473 193.535557 
L 169.495855 180.777282 
L 169.800218 165.098207 
L 170.145164 150.95535 
L 171.940909 77.725288 
L 171.951055 77.858407 
L 172.448182 69.090916 
L 172.478618 69.523059 
L 172.498909 69.512849 
L 172.6308 67.792221 
L 172.691673 66.696287 
L 172.752545 66.039676 
L 172.803273 66.493522 
L 173.107636 68.420481 
L 173.148218 68.141962 
L 173.168509 68.170508 
L 173.209091 68.183302 
L 173.564182 75.289208 
L 173.574327 74.503981 
L 173.665636 74.401815 
L 173.97 84.358426 
L 173.980145 84.156287 
L 174.030873 85.274891 
L 174.345382 95.42719 
L 176.749855 198.132186 
L 177.155673 209.999306 
L 177.318 212.985868 
L 177.338291 212.672381 
L 177.551345 215.859047 
L 177.622364 216.65311 
L 177.683236 216.547252 
L 177.723818 216.575195 
L 177.774545 216.199926 
L 177.825273 216.641667 
L 177.926727 216.903478 
L 177.957164 216.80153 
L 177.977455 216.773415 
L 178.109345 218.484566 
L 178.129636 218.599277 
L 178.139782 218.01079 
L 178.2108 216.515863 
L 178.332545 215.394965 
L 178.352836 215.59083 
L 178.383273 215.44297 
L 178.484727 213.256671 
L 178.515164 213.463518 
L 178.586182 212.601158 
L 178.636909 212.965135 
L 178.687636 213.594241 
L 178.718073 212.00989 
L 178.809382 207.288537 
L 179.002145 202.94992 
L 179.235491 194.717528 
L 180.402218 145.399335 
L 181.224 107.229709 
L 181.254436 106.314086 
L 181.964618 81.760492 
L 182.380582 71.51052 
L 182.400873 71.618343 
L 182.553055 69.9575 
L 182.837127 67.741085 
L 182.847273 67.708655 
L 182.948727 66.554163 
L 182.969018 66.916267 
L 182.999455 67.025646 
L 183.050182 66.228232 
L 183.100909 66.955113 
L 183.202364 67.820911 
L 183.212509 67.021325 
L 183.253091 66.541595 
L 183.303818 66.874785 
L 183.527018 70.976354 
L 183.750218 73.686012 
L 183.861818 76.153386 
L 184.308218 89.72098 
L 184.693745 104.754983 
L 185.069127 118.619278 
L 185.424218 136.560426 
L 186.905455 199.528524 
L 186.9156 199.400557 
L 186.946036 200.093882 
L 187.869273 218.335594 
L 187.879418 218.195746 
L 187.92 218.585283 
L 187.970727 218.445322 
L 188.173636 216.553512 
L 188.224364 216.902274 
L 188.275091 217.604369 
L 188.325818 216.830062 
L 188.335964 216.97744 
L 188.396836 216.440662 
L 188.569309 213.532075 
L 188.630182 212.519848 
L 188.711345 212.620439 
L 188.934545 208.220546 
L 189.086727 203.930396 
L 189.1476 202.87536 
L 189.391091 195.826139 
L 189.624436 185.591121 
L 190.192582 161.82934 
L 191.572364 100.17824 
L 191.673818 96.958681 
L 192.028909 85.087605 
L 192.069491 84.314692 
L 192.840545 67.900534 
L 192.881127 67.944863 
L 192.942 67.815559 
L 192.952145 68.098842 
L 192.992727 68.339914 
L 193.002873 67.778468 
L 193.094182 66.967128 
L 193.195636 67.220072 
L 193.246364 67.474192 
L 193.266655 67.134258 
L 193.297091 67.150327 
L 193.347818 66.849354 
L 193.368109 67.744081 
L 193.449273 69.715298 
L 193.550727 68.948577 
L 193.601455 68.31475 
L 193.652182 68.58142 
L 193.814509 72.192107 
L 194.291345 84.155733 
L 195.884182 151.159418 
L 196.442182 176.835395 
L 197.771236 216.105807 
L 197.862545 216.909122 
L 197.892982 216.272639 
L 197.913273 216.136591 
L 197.974145 216.448316 
L 198.014727 216.470812 
L 198.116182 219.211365 
L 198.156764 218.565898 
L 198.166909 218.570285 
L 198.319091 215.993678 
L 198.501709 218.787056 
L 198.522 219.087497 
L 198.572727 218.371299 
L 198.826364 210.607562 
L 198.846655 211.18158 
L 198.877091 210.931222 
L 198.937964 211.342542 
L 198.978545 211.434827 
L 199.201745 205.724561 
L 199.465527 195.96588 
L 199.698873 189.560401 
L 199.851055 184.271277 
L 201.058364 128.654341 
L 201.403309 112.59739 
L 202.3164 79.840347 
L 202.986 68.115718 
L 203.057018 69.068427 
L 203.138182 69.561655 
L 203.148327 68.88157 
L 203.290364 67.264895 
L 203.391818 67.869371 
L 203.442545 68.326546 
L 203.503418 68.013001 
L 203.594727 68.093631 
L 203.696182 67.143645 
L 203.716473 67.569987 
L 203.787491 69.057567 
L 204.4368 85.301833 
L 204.66 90.343665 
L 205.583236 130.727986 
L 206.364436 165.5893 
L 207.541309 208.745085 
L 207.845673 213.95022 
L 208.210909 217.509053 
L 208.261636 217.367247 
L 208.312364 216.480816 
L 208.373236 216.855976 
L 208.464545 217.031536 
L 208.515273 217.304384 
L 208.566 216.990598 
L 208.616727 216.157127 
L 208.6776 216.629055 
L 208.718182 216.826569 
L 208.728327 216.328496 
L 208.768909 215.866675 
L 208.809491 216.541935 
L 208.819636 216.576108 
L 208.829782 216.254637 
L 208.870364 216.083573 
L 209.022545 212.21787 
L 209.042836 212.260515 
L 209.306618 206.554726 
L 209.468945 199.632921 
L 209.732727 192.247374 
L 209.813891 189.677101 
L 210.483491 162.235642 
L 211.995164 94.279881 
L 212.573455 77.098159 
L 212.5836 77.363114 
L 213.101018 67.231532 
L 213.182182 65.343956 
L 213.243055 66.442931 
L 213.435818 67.878538 
L 213.557564 66.971365 
L 213.588 66.865489 
L 213.638727 67.083688 
L 213.659018 67.014093 
L 213.750327 67.347927 
L 213.841636 69.010091 
L 213.892364 70.679604 
L 213.973527 70.219447 
L 214.0344 70.822079 
L 214.176436 72.827626 
L 214.359055 78.16503 
L 215.515636 121.159407 
L 215.759127 131.615705 
L 216.4896 167.169011 
L 217.007018 187.460818 
L 217.463564 201.953443 
L 218.153455 215.710052 
L 218.194036 215.675261 
L 218.204182 215.682617 
L 218.366509 218.473259 
L 218.407091 219.030633 
L 218.457818 218.508279 
L 218.508545 217.062826 
L 218.579564 217.733143 
L 218.660727 218.313578 
L 218.711455 218.099868 
L 218.863636 213.686208 
L 218.914364 213.462694 
L 219.036109 214.888314 
L 219.066545 215.113013 
L 219.117273 215.078115 
L 219.310036 208.886821 
L 219.827455 195.38518 
L 219.898473 193.356819 
L 220.223127 179.456878 
L 222.779782 75.106258 
L 223.013127 71.250774 
L 223.023273 71.166364 
L 223.063855 71.693156 
L 223.074 71.72849 
L 223.094291 71.429374 
L 223.124727 71.401938 
L 223.307345 68.65751 
L 223.429091 67.286226 
L 223.479818 67.596744 
L 223.530545 68.642279 
L 223.591418 67.744065 
L 223.632 67.669458 
L 223.682727 65.920393 
L 223.753745 66.540168 
L 223.784182 66.608276 
L 223.936364 68.84336 
L 224.037818 70.978961 
L 224.118982 70.603289 
L 224.169709 71.204931 
L 224.321891 74.15561 
L 224.575527 79.39399 
L 224.707418 82.685663 
L 225.762545 126.597567 
L 226.472727 159.047521 
L 227.700327 205.391242 
L 228.248182 216.705571 
L 228.3192 216.295539 
L 228.349636 216.239643 
L 228.400364 216.31544 
L 228.481527 217.501021 
L 228.552545 218.976668 
L 228.623564 218.040424 
L 228.704727 217.252814 
L 228.7656 217.563948 
L 228.856909 217.491747 
L 228.958364 218.138808 
L 228.978655 218.02791 
L 229.009091 217.975982 
L 229.262727 211.844622 
L 229.272873 212.255983 
L 229.343891 210.978627 
L 229.77 201.211049 
L 230.175818 187.222554 
L 230.226545 185.686132 
L 230.480182 174.593639 
L 230.490327 174.679081 
L 230.814982 160.332764 
L 231.880255 110.104721 
L 232.377382 91.956029 
L 232.955673 76.903808 
L 233.077418 72.187475 
L 233.219455 68.189753 
L 233.270182 68.986257 
L 233.422364 69.671365 
L 233.5644 67.024935 
L 233.574545 66.920882 
L 233.615127 67.553079 
L 233.726727 68.008147 
L 233.777455 67.860897 
L 233.878909 65.361716 
L 233.929636 65.746626 
L 234.132545 70.439916 
L 234.234 69.451686 
L 234.244145 70.38493 
L 234.842727 83.570555 
L 235.045636 89.475515 
L 235.258691 97.670868 
L 235.745673 118.965911 
L 237.1356 180.908763 
L 237.977673 206.854724 
L 238.150145 212.832038 
L 238.3632 215.959649 
L 238.657418 217.638268 
L 238.748727 218.820042 
L 238.779164 217.999699 
L 238.890764 216.401905 
L 238.951636 215.7377 
L 239.002364 216.399776 
L 239.103818 219.010504 
L 239.124109 218.237751 
L 239.154545 218.012742 
L 239.306727 213.534311 
L 239.316873 214.181456 
L 239.408182 213.286678 
L 240.067636 196.158178 
L 240.321273 186.58548 
L 241.031455 158.147492 
L 241.254655 146.018103 
L 242.096727 107.467058 
L 242.1576 105.307412 
L 242.756182 85.207665 
L 242.766327 85.200742 
L 242.918509 81.303153 
L 243.354764 72.242478 
L 243.3852 71.655201 
L 243.466364 69.828207 
L 243.6084 67.903584 
L 243.922909 66.320485 
L 243.9432 66.561486 
L 243.973636 66.704976 
L 244.024364 66.449555 
L 244.034509 66.463576 
L 244.075091 66.474131 
L 244.227273 69.084725 
L 244.237418 68.956734 
L 244.288145 69.68869 
L 244.978036 82.746826 
L 248.214436 210.715821 
L 248.660836 217.071691 
L 248.701418 217.007561 
L 248.884036 218.256802 
L 248.995636 218.909278 
L 249.015927 218.460096 
L 249.360873 215.830893 
L 249.918873 203.727374 
L 250.142073 198.737449 
L 250.416 190.733197 
L 250.700073 177.931024 
L 252.698727 88.918174 
L 252.708873 88.964085 
L 253.256727 74.332166 
L 253.266873 74.536444 
L 253.327745 73.734648 
L 253.571236 69.841307 
L 253.764 66.886029 
L 253.784291 67.005308 
L 253.865455 66.541606 
L 253.916182 66.738578 
L 254.058218 68.244825 
L 254.068364 68.310792 
L 254.119091 67.941718 
L 254.271273 64.650496 
L 254.281418 65.088946 
L 254.322 65.264557 
L 254.504618 71.932893 
L 254.677091 74.174658 
L 254.687236 73.58571 
L 254.727818 73.695741 
L 254.778545 74.358279 
L 254.829273 73.649677 
L 254.849564 74.161838 
L 254.930727 75.626701 
L 255.194509 86.584001 
L 255.438 93.463188 
L 255.448145 93.113088 
L 255.569891 97.555752 
L 257.040982 164.782363 
L 257.67 191.196289 
L 257.680145 191.105178 
L 257.700436 191.688446 
L 258.633818 216.650608 
L 258.664255 216.174207 
L 258.735273 216.300256 
L 258.775855 216.187212 
L 258.836727 216.149734 
L 258.988909 217.567656 
L 259.090364 216.582648 
L 259.110655 216.622181 
L 259.141091 216.468202 
L 259.151236 216.639316 
L 259.191818 216.613618 
L 259.293273 217.415696 
L 259.344 217.410079 
L 259.445455 216.243563 
L 259.475891 216.607551 
L 259.496182 216.563062 
L 259.546909 216.971976 
L 259.577345 215.932696 
L 259.962873 208.034243 
L 260.642618 186.567923 
L 262.965927 85.92569 
L 263.402182 74.849431 
L 263.412327 75.127234 
L 263.483345 74.118516 
L 264.163091 64.059004 
L 264.213818 65.535596 
L 264.366 70.306708 
L 264.376145 69.850664 
L 264.416727 70.188203 
L 264.467455 70.131572 
L 264.599345 68.202518 
L 264.619636 68.099558 
L 264.670364 68.282616 
L 264.822545 74.072221 
L 264.832691 73.6409 
L 264.924 74.470154 
L 264.934145 74.287884 
L 265.005164 74.841059 
L 265.076182 76.67945 
L 265.279091 83.493864 
L 265.350109 85.297237 
L 265.826945 102.502132 
L 267.947345 193.817671 
L 268.150255 202.770461 
L 268.414036 208.113407 
L 268.779273 214.371859 
L 268.809709 214.184055 
L 268.83 214.193341 
L 269.032909 218.782017 
L 269.134364 217.86434 
L 269.154655 217.912126 
L 269.185091 217.73951 
L 269.286545 219.39235 
L 269.306836 218.703978 
L 269.651782 215.450953 
L 270.1692 207.134638 
L 271.275055 166.472778 
L 272.370764 114.549661 
L 272.908473 93.127335 
L 274.004182 66.356757 
L 274.044764 66.895793 
L 274.105636 66.719883 
L 274.207091 68.922069 
L 274.237527 68.558332 
L 274.257818 68.644835 
L 274.278109 68.271668 
L 274.308545 68.183639 
L 274.440436 66.047219 
L 274.460727 65.894103 
L 274.592618 68.019614 
L 274.612909 68.242836 
L 274.643345 67.471013 
L 274.714364 67.313773 
L 274.734655 67.505874 
L 274.765091 67.582758 
L 274.927418 72.298641 
L 276.012982 105.160584 
L 276.611564 131.374727 
L 277.849309 186.373395 
L 278.630509 208.340275 
L 278.721818 210.063473 
L 278.874 214.41704 
L 278.884145 214.198639 
L 279.056618 217.146921 
L 279.2088 217.873467 
L 279.279818 218.363515 
L 279.330545 218.291081 
L 279.432 216.525334 
L 279.462436 217.27538 
L 279.482727 217.341417 
L 279.533455 218.509151 
L 279.604473 218.499256 
L 279.634909 218.648038 
L 279.645055 218.206348 
L 279.736364 216.865187 
L 280.395818 203.989906 
L 280.497273 200.432699 
L 280.537855 200.87427 
L 280.649455 198.609359 
L 280.903091 187.156675 
L 283.195964 88.985891 
L 283.794545 73.85987 
L 283.896 70.983973 
L 283.997455 68.492946 
L 284.038036 68.498511 
L 284.048182 68.414864 
L 284.109055 68.751811 
L 284.149636 68.878163 
L 284.200364 68.80986 
L 284.251091 67.616795 
L 284.322109 67.700044 
L 284.352545 67.609714 
L 284.372836 67.89261 
L 284.504727 69.263646 
L 284.525018 68.220434 
L 284.606182 66.295809 
L 284.727927 66.740775 
L 284.859818 68.675634 
L 284.910545 69.884725 
L 284.981564 69.187054 
L 285.012 69.110223 
L 285.184473 74.052481 
L 285.468545 81.104721 
L 285.762764 89.138148 
L 287.396182 159.318528 
L 287.710691 175.227905 
L 288.319418 198.066496 
L 288.846982 212.067606 
L 289.019455 215.346158 
L 289.049891 214.187485 
L 289.070182 214.074117 
L 289.090473 214.500392 
L 289.131055 215.268238 
L 289.212218 218.231463 
L 289.273091 219.234583 
L 289.313673 218.257331 
L 289.374545 217.916035 
L 289.455709 218.082782 
L 289.476 218.067699 
L 289.526727 217.634408 
L 289.5876 217.932367 
L 289.628182 217.938608 
L 289.678909 218.209734 
L 289.729636 217.823761 
L 289.739782 218.12689 
L 289.780364 218.16167 
L 289.932545 215.799014 
L 289.942691 215.992375 
L 290.003564 215.178994 
L 290.2572 211.038208 
L 290.947091 191.999593 
L 292.479055 122.427578 
L 292.895018 105.278464 
L 293.706655 79.180877 
L 293.787818 77.925123 
L 293.929855 73.431426 
L 294.142909 70.46191 
L 294.173345 70.610846 
L 294.244364 70.125015 
L 294.396545 67.563354 
L 294.406691 67.782161 
L 294.498 67.578049 
L 294.548727 67.04219 
L 294.6096 67.325667 
L 294.650182 67.444816 
L 294.751636 68.440274 
L 294.771927 68.131454 
L 294.802364 68.132945 
L 294.954545 66.841184 
L 295.096582 70.510719 
L 295.411091 76.02573 
L 295.421236 75.769977 
L 295.492255 76.517247 
L 295.634291 79.03541 
L 295.8372 87.490084 
L 297.227127 145.984087 
L 298.505455 198.872111 
L 299.215636 214.3246 
L 299.235927 213.598353 
L 299.266364 213.328436 
L 299.286655 214.00151 
L 299.357673 214.944113 
L 299.418545 216.998415 
L 299.52 219.378836 
L 299.580873 218.615476 
L 299.875091 216.865577 
L 300.017127 217.894001 
L 300.027273 217.947942 
L 300.078 217.656577 
L 300.280909 211.501456 
L 300.321491 212.215182 
L 300.331636 212.180579 
L 300.463527 210.955429 
L 300.514255 209.561957 
L 300.899782 197.744256 
L 302.096945 146.495335 
L 302.939018 107.666629 
L 303.283964 96.303021 
L 303.588327 85.054116 
L 303.8724 78.81925 
L 303.943418 76.843293 
L 304.4304 67.615857 
L 304.440545 67.529105 
L 304.450691 68.268415 
L 304.542 69.263857 
L 304.592727 68.810775 
L 304.795636 65.155222 
L 305.018836 68.114329 
L 305.1 69.095626 
L 305.130436 68.221879 
L 305.201455 68.068699 
L 305.353636 73.038705 
L 305.363782 72.606916 
L 305.455091 72.87761 
L 305.597127 75.351401 
L 305.708727 78.442961 
L 305.860909 84.331788 
L 305.871055 84.219391 
L 305.901491 84.928058 
L 306.205855 94.846375 
L 306.530509 108.975439 
L 307.372582 146.557274 
L 307.900145 171.177103 
L 308.376982 189.391213 
L 309.371236 216.974872 
L 309.513273 218.15846 
L 309.523418 217.988193 
L 309.564 217.952864 
L 309.614727 217.239385 
L 309.665455 217.40542 
L 309.716182 218.807804 
L 309.777055 218.089644 
L 309.868364 218.150726 
L 309.949527 217.345088 
L 309.969818 217.181461 
L 309.990109 217.799863 
L 310.050982 218.423157 
L 310.071273 218.59143 
L 310.101709 217.978806 
L 310.122 217.87422 
L 310.152436 218.243886 
L 310.172727 218.290535 
L 310.182873 218.025781 
L 310.223455 217.888824 
L 310.375636 213.70779 
L 310.781455 205.887225 
L 310.933636 200.686456 
L 311.004655 199.181994 
L 311.329309 188.595493 
L 311.968473 159.449755 
L 312.556909 133.382375 
L 313.256945 101.002917 
L 313.541018 92.984073 
L 313.906255 81.309136 
L 314.230909 72.139498 
L 314.241055 72.27031 
L 314.291782 71.554119 
L 314.738182 66.461805 
L 314.788909 66.662168 
L 314.941091 67.986536 
L 314.991818 68.346324 
L 315.001964 67.660154 
L 315.042545 67.30514 
L 315.093273 67.404577 
L 315.194727 69.445423 
L 315.235309 69.16366 
L 315.245455 69.213623 
L 315.2556 68.808784 
L 315.346909 67.941166 
L 315.397636 68.023923 
L 315.5904 73.710506 
L 315.833891 78.357603 
L 315.955636 81.453877 
L 316.1484 89.207527 
L 316.341164 93.232224 
L 316.452764 97.475785 
L 317.142655 128.683212 
L 318.3804 183.766092 
L 319.039855 205.026023 
L 319.557273 215.950287 
L 319.060145 204.933154 
L 319.648582 215.427192 
L 319.658727 215.400621 
L 319.780473 215.961385 
L 319.810909 216.042306 
L 319.963091 219.140496 
L 319.983382 218.968724 
L 320.013818 219.083995 
L 320.155855 216.725397 
L 320.216727 216.532707 
L 320.247164 217.013475 
L 320.267455 217.030092 
L 320.368909 215.44424 
L 320.399345 215.64024 
L 320.470364 215.376257 
L 320.622545 211.568608 
L 321.545782 184.900441 
L 322.773382 129.553246 
L 323.270509 108.017117 
L 324.011127 82.586829 
L 324.214036 75.980948 
L 324.427091 72.170993 
L 324.437236 72.451319 
L 324.5184 71.666231 
L 324.7416 68.691465 
L 324.934364 66.231623 
L 324.995236 66.441376 
L 325.086545 66.65639 
L 325.279309 69.189818 
L 325.289455 69.375633 
L 325.2996 69.031105 
L 325.340182 69.353111 
L 325.441636 66.910899 
L 325.461927 67.150078 
L 325.492364 67.15422 
L 325.695273 73.828098 
L 325.827164 73.402285 
L 325.847455 73.452141 
L 325.999636 79.913836 
L 326.009782 79.795822 
L 326.821418 108.484993 
L 327.369273 132.099068 
L 327.724364 148.700209 
L 328.180909 170.374548 
L 328.191055 170.34574 
L 329.327345 208.263183 
L 329.702727 216.183622 
L 329.733164 215.98037 
L 330.007091 217.937032 
L 329.7636 215.91403 
L 330.057818 217.778659 
L 330.21 216.224272 
L 330.260727 216.495057 
L 330.270873 216.56452 
L 330.352036 216.444434 
L 330.463636 216.171786 
L 330.372327 216.514589 
L 330.514364 216.256055 
L 330.565091 217.05751 
L 330.605673 215.359102 
L 331.2144 201.229766 
L 331.569491 192.143875 
L 331.681091 186.431295 
L 331.924582 174.144765 
L 331.944873 174.255139 
L 333.933382 89.115227 
L 334.674 70.740301 
L 334.684145 70.832416 
L 334.724727 70.307183 
L 334.7856 69.277163 
L 334.876909 67.900927 
L 334.958073 68.036747 
L 334.988509 68.105849 
L 335.049382 67.526952 
L 335.089964 67.562026 
L 335.282727 66.329503 
L 335.475491 69.324841 
L 335.485636 69.583831 
L 335.5668 68.838862 
L 335.637818 68.403737 
L 335.688545 68.601309 
L 336.317564 83.953876 
L 337.058182 112.258693 
L 337.494436 130.697494 
L 337.869818 149.01036 
L 338.265491 166.285219 
L 338.539418 178.840599 
L 338.935091 193.371622 
L 339.381491 207.070056 
L 339.645273 212.669773 
L 339.797455 214.993193 
L 339.8076 214.934038 
L 339.848182 215.169155 
L 339.888764 214.797018 
L 339.898909 214.773335 
L 340.071382 217.740639 
L 340.101818 218.082773 
L 340.111964 217.093155 
L 340.254 215.779851 
L 340.264145 216.526922 
L 340.406182 217.231323 
L 340.456909 216.390005 
L 340.507636 217.439636 
L 340.609091 219.205457 
L 340.659818 218.186768 
L 340.913455 211.106829 
L 340.9236 211.382729 
L 341.227964 206.269673 
L 342.222218 167.647067 
L 342.780218 144.483579 
L 343.165745 125.182395 
L 344.109273 87.472813 
L 344.119418 87.563122 
L 344.667273 71.427111 
L 344.728145 71.590812 
L 344.768727 71.296087 
L 344.799164 71.841325 
L 344.819455 71.944253 
L 344.971636 68.839082 
L 344.981782 69.164383 
L 345.073091 68.732376 
L 345.083236 68.904655 
L 345.123818 68.919166 
L 345.265855 66.848117 
L 345.438327 65.537411 
L 345.478909 65.575102 
L 345.641236 68.139755 
L 345.732545 69.075604 
L 345.773127 68.752644 
L 345.834 69.26562 
L 346.189091 78.085894 
L 346.199236 78.054511 
L 346.848545 95.810212 
L 347.163055 109.860307 
L 348.8472 186.128867 
L 349.435636 205.847521 
L 349.455927 205.287373 
L 349.648691 208.526754 
L 349.892182 216.56976 
L 350.024073 215.526409 
L 350.044364 215.420099 
L 350.054509 215.574311 
L 350.095091 215.508921 
L 350.145818 215.811431 
L 350.216836 215.759596 
L 350.247273 215.756758 
L 350.450182 218.280625 
L 350.5212 218.824357 
L 350.551636 219.105182 
L 350.592218 218.471935 
L 350.642945 217.405203 
L 350.754545 214.547731 
L 350.835709 215.88507 
L 350.856 216.026499 
L 350.906727 215.622945 
L 351.008182 214.737802 
L 351.028473 215.017654 
L 351.058909 214.951078 
L 351.211091 209.186029 
L 351.221236 209.306249 
L 351.261818 208.467913 
L 351.414 202.443335 
L 351.424145 202.919478 
L 351.495164 201.577664 
L 351.728509 194.62999 
L 352.905382 143.919949 
L 353.727164 106.856516 
L 354.640255 76.910523 
L 354.904036 71.395297 
L 355.015636 69.771244 
L 355.056218 70.055936 
L 355.117091 69.952062 
L 355.279418 67.189863 
L 355.472182 65.623773 
L 355.522909 65.830798 
L 355.675091 68.994634 
L 355.776545 67.723783 
L 355.786691 68.218674 
L 356.263527 74.293318 
L 356.801236 90.470267 
L 357.815782 133.392767 
L 358.657855 171.489006 
L 359.4492 198.875109 
L 359.591236 203.163707 
L 360.0072 213.926096 
L 360.189818 216.55426 
L 360.240545 215.81433 
L 360.342 214.835295 
L 360.382582 214.893083 
L 360.392727 214.854853 
L 360.534764 217.973771 
L 360.544909 218.069826 
L 360.595636 217.73006 
L 360.697091 216.192988 
L 360.727527 216.639092 
L 360.798545 216.612165 
L 360.849273 216.895359 
L 360.879709 216.16942 
L 361.204364 212.774618 
L 361.224655 212.850572 
L 361.265236 212.156673 
L 361.356545 208.978477 
L 361.498582 204.987286 
L 361.518873 205.001354 
L 361.884109 194.418725 
L 362.624727 165.341261 
L 362.776909 157.705769 
L 363.192873 136.079178 
L 363.852327 108.00843 
L 364.663964 80.702785 
L 365.049491 71.149853 
L 365.161091 70.092818 
L 365.191527 70.194655 
L 365.221964 69.529682 
L 365.465455 65.422161 
L 365.546618 66.01823 
L 365.566909 66.003908 
L 365.668364 67.895631 
L 365.6988 67.402293 
L 365.850982 67.791017 
L 365.911855 69.06041 
L 365.972727 69.585146 
L 366.023455 69.305031 
L 366.124909 68.739633 
L 366.135055 69.034267 
L 366.185782 69.83985 
L 366.317673 73.690134 
L 366.622036 80.101522 
L 366.804655 84.003068 
L 367.4844 112.676009 
L 368.316327 150.47643 
L 369.1584 186.440396 
L 369.675818 202.90995 
L 369.746836 204.420167 
L 370.355564 216.065615 
L 370.538182 217.388079 
L 370.639636 218.077934 
L 370.670073 217.870244 
L 370.690364 217.843432 
L 370.741091 218.164825 
L 370.791818 218.063559 
L 370.842545 216.642391 
L 370.913564 217.122317 
L 370.944 217.132808 
L 370.994727 218.6121 
L 371.0556 217.681348 
L 371.146909 216.846404 
L 371.299091 211.470196 
L 371.309236 211.994406 
L 371.400545 211.037524 
L 371.410691 211.175862 
L 371.471564 210.521978 
L 371.623745 206.931532 
L 372.445527 176.619392 
L 372.8412 161.785191 
L 373.084691 149.447744 
L 373.581818 125.376886 
L 373.581818 125.376886 
" clip-path="url(#p1783476e81)" style="fill: none; stroke: #000000; stroke-width: 0.5; stroke-linecap: square"/>
   </g>
   <g id="patch_3">
    <path d="M 54 256.32 
L 54 34.56 
" style="fill: none; stroke: #000000; stroke-width: 0.8; stroke-linejoin: miter; stroke-linecap: square"/>
   </g>
   <g id="patch_4">
    <path d="M 388.8 256.32 
L 388.8 34.56 
" style="fill: none; stroke: #000000; stroke-width: 0.8; stroke-linejoin: miter; stroke-linecap: square"/>
   </g>
   <g id="patch_5">
    <path d="M 54 256.32 
L 388.8 256.32 
" style="fill: none; stroke: #000000; stroke-width: 0.8; stroke-linejoin: miter; stroke-linecap: square"/>
   </g>
   <g id="patch_6">
    <path d="M 54 34.56 
L 388.8 34.56 
" style="fill: none; stroke: #000000; stroke-width: 0.8; stroke-linejoin: miter; stroke-linecap: square"/>
   </g>
   <g id="text_17">
    <!-- $\omega_{m}$ (rad/s) - (JUKF) -->
    <g transform="translate(175.75 28.56) scale(0.11 -0.11)">
     <defs>
      <path id="TimesNewRomanPSMT-4a" d="M 638 4122 
L 638 4238 
L 2453 4238 
L 2453 4122 
L 2300 4122 
Q 2041 4122 1922 3969 
Q 1847 3869 1847 3488 
L 1847 1416 
Q 1847 938 1742 641 
Q 1638 344 1381 123 
Q 1125 -97 763 -97 
Q 469 -97 300 48 
Q 131 194 131 381 
Q 131 534 209 613 
Q 313 709 450 709 
Q 550 709 629 643 
Q 709 578 831 294 
Q 903 125 1016 125 
Q 1100 125 1173 228 
Q 1247 331 1247 594 
L 1247 3488 
Q 1247 3809 1206 3913 
Q 1175 3991 1075 4047 
Q 941 4122 791 4122 
L 638 4122 
z
" transform="scale(0.015625)"/>
      <path id="TimesNewRomanPSMT-55" d="M 3053 4122 
L 3053 4238 
L 4553 4238 
L 4553 4122 
L 4394 4122 
Q 4144 4122 4009 3913 
Q 3944 3816 3944 3463 
L 3944 1744 
Q 3944 1106 3817 754 
Q 3691 403 3320 151 
Q 2950 -100 2313 -100 
Q 1619 -100 1259 140 
Q 900 381 750 788 
Q 650 1066 650 1831 
L 650 3488 
Q 650 3878 542 4000 
Q 434 4122 194 4122 
L 34 4122 
L 34 4238 
L 1866 4238 
L 1866 4122 
L 1703 4122 
Q 1441 4122 1328 3956 
Q 1250 3844 1250 3488 
L 1250 1641 
Q 1250 1394 1295 1075 
Q 1341 756 1459 578 
Q 1578 400 1801 284 
Q 2025 169 2350 169 
Q 2766 169 3094 350 
Q 3422 531 3542 814 
Q 3663 1097 3663 1772 
L 3663 3488 
Q 3663 3884 3575 3984 
Q 3453 4122 3213 4122 
L 3053 4122 
z
" transform="scale(0.015625)"/>
      <path id="TimesNewRomanPSMT-4b" d="M 1913 2350 
L 3475 797 
Q 3859 413 4131 273 
Q 4403 134 4675 116 
L 4675 0 
L 2659 0 
L 2659 116 
Q 2841 116 2920 177 
Q 3000 238 3000 313 
Q 3000 388 2970 447 
Q 2941 506 2775 669 
L 1313 2116 
L 1313 750 
Q 1313 428 1353 325 
Q 1384 247 1484 191 
Q 1619 116 1769 116 
L 1913 116 
L 1913 0 
L 106 0 
L 106 116 
L 256 116 
Q 519 116 638 269 
Q 713 369 713 750 
L 713 3488 
Q 713 3809 672 3916 
Q 641 3991 544 4047 
Q 406 4122 256 4122 
L 106 4122 
L 106 4238 
L 1913 4238 
L 1913 4122 
L 1769 4122 
Q 1622 4122 1484 4050 
Q 1388 4000 1350 3900 
Q 1313 3800 1313 3488 
L 1313 2191 
Q 1375 2250 1741 2588 
Q 2669 3438 2863 3722 
Q 2947 3847 2947 3941 
Q 2947 4013 2881 4067 
Q 2816 4122 2659 4122 
L 2563 4122 
L 2563 4238 
L 4119 4238 
L 4119 4122 
Q 3981 4119 3868 4084 
Q 3756 4050 3593 3951 
Q 3431 3853 3194 3634 
Q 3125 3572 2559 2994 
L 1913 2350 
z
" transform="scale(0.015625)"/>
      <path id="TimesNewRomanPSMT-46" d="M 1309 4006 
L 1309 2341 
L 2081 2341 
Q 2347 2341 2470 2458 
Q 2594 2575 2634 2922 
L 2750 2922 
L 2750 1488 
L 2634 1488 
Q 2631 1734 2570 1850 
Q 2509 1966 2401 2023 
Q 2294 2081 2081 2081 
L 1309 2081 
L 1309 750 
Q 1309 428 1350 325 
Q 1381 247 1481 191 
Q 1619 116 1769 116 
L 1922 116 
L 1922 0 
L 103 0 
L 103 116 
L 253 116 
Q 516 116 634 269 
Q 709 369 709 750 
L 709 3488 
Q 709 3809 669 3913 
Q 638 3991 541 4047 
Q 406 4122 253 4122 
L 103 4122 
L 103 4238 
L 3256 4238 
L 3297 3306 
L 3188 3306 
Q 3106 3603 2998 3742 
Q 2891 3881 2733 3943 
Q 2575 4006 2244 4006 
L 1309 4006 
z
" transform="scale(0.015625)"/>
     </defs>
     <use xlink:href="#DejaVuSans-Oblique-3c9" transform="translate(0 0.5625)"/>
     <use xlink:href="#DejaVuSans-Oblique-6d" transform="translate(83.740234 -15.84375) scale(0.7)"/>
     <use xlink:href="#TimesNewRomanPSMT-20" transform="translate(154.663086 0.5625)"/>
     <use xlink:href="#TimesNewRomanPSMT-28" transform="translate(179.663086 0.5625)"/>
     <use xlink:href="#TimesNewRomanPSMT-72" transform="translate(212.963867 0.5625)"/>
     <use xlink:href="#TimesNewRomanPSMT-61" transform="translate(246.264648 0.5625)"/>
     <use xlink:href="#TimesNewRomanPSMT-64" transform="translate(290.649414 0.5625)"/>
     <use xlink:href="#TimesNewRomanPSMT-2f" transform="translate(340.649414 0.5625)"/>
     <use xlink:href="#TimesNewRomanPSMT-73" transform="translate(368.432617 0.5625)"/>
     <use xlink:href="#TimesNewRomanPSMT-29" transform="translate(407.348633 0.5625)"/>
     <use xlink:href="#TimesNewRomanPSMT-20" transform="translate(440.649414 0.5625)"/>
     <use xlink:href="#TimesNewRomanPSMT-2d" transform="translate(465.649414 0.5625)"/>
     <use xlink:href="#TimesNewRomanPSMT-20" transform="translate(498.950195 0.5625)"/>
     <use xlink:href="#TimesNewRomanPSMT-28" transform="translate(523.950195 0.5625)"/>
     <use xlink:href="#TimesNewRomanPSMT-4a" transform="translate(557.250977 0.5625)"/>
     <use xlink:href="#TimesNewRomanPSMT-55" transform="translate(596.166992 0.5625)"/>
     <use xlink:href="#TimesNewRomanPSMT-4b" transform="translate(668.383789 0.5625)"/>
     <use xlink:href="#TimesNewRomanPSMT-46" transform="translate(740.600586 0.5625)"/>
     <use xlink:href="#TimesNewRomanPSMT-29" transform="translate(796.21582 0.5625)"/>
    </g>
   </g>
   <g id="legend_1">
    <g id="patch_7">
     <path d="M 334.3 57.238125 
L 381.8 57.238125 
Q 383.8 57.238125 383.8 55.238125 
L 383.8 41.56 
Q 383.8 39.56 381.8 39.56 
L 334.3 39.56 
Q 332.3 39.56 332.3 41.56 
L 332.3 55.238125 
Q 332.3 57.238125 334.3 57.238125 
z
" style="fill: #ffffff; opacity: 0.8; stroke: #cccccc; stroke-linejoin: miter"/>
    </g>
    <g id="line2d_30">
     <path d="M 336.3 47.658438 
L 346.3 47.658438 
L 356.3 47.658438 
" style="fill: none; stroke: #000000; stroke-width: 0.5; stroke-linecap: square"/>
    </g>
    <g id="text_18">
     <!-- $\omega_{m}$ -->
     <g transform="translate(364.3 51.158438) scale(0.1 -0.1)">
      <use xlink:href="#DejaVuSans-Oblique-3c9" transform="translate(0 0.3125)"/>
      <use xlink:href="#DejaVuSans-Oblique-6d" transform="translate(83.740234 -16.09375) scale(0.7)"/>
     </g>
    </g>
   </g>
  </g>
 </g>
 <defs>
  <clipPath id="p1783476e81">
   <rect x="54" y="34.56" width="334.8" height="221.76"/>
  </clipPath>
 </defs>
</svg>
