<?xml version="1.0" encoding="utf-8" standalone="no"?>
<!DOCTYPE svg PUBLIC "-//W3C//DTD SVG 1.1//EN"
  "http://www.w3.org/Graphics/SVG/1.1/DTD/svg11.dtd">
<svg xmlns:xlink="http://www.w3.org/1999/xlink" width="432pt" height="288pt" viewBox="0 0 432 288" xmlns="http://www.w3.org/2000/svg" version="1.1">
 <metadata>
  <rdf:RDF xmlns:dc="http://purl.org/dc/elements/1.1/" xmlns:cc="http://creativecommons.org/ns#" xmlns:rdf="http://www.w3.org/1999/02/22-rdf-syntax-ns#">
   <cc:Work>
    <dc:type rdf:resource="http://purl.org/dc/dcmitype/StillImage"/>
    <dc:date>2024-11-10T15:31:07.548147</dc:date>
    <dc:format>image/svg+xml</dc:format>
    <dc:creator>
     <cc:Agent>
      <dc:title>Matplotlib v3.9.1, https://matplotlib.org/</dc:title>
     </cc:Agent>
    </dc:creator>
   </cc:Work>
  </rdf:RDF>
 </metadata>
 <defs>
  <style type="text/css">*{stroke-linejoin: round; stroke-linecap: butt}</style>
 </defs>
 <g id="figure_1">
  <g id="patch_1">
   <path d="M 0 288 
L 432 288 
L 432 0 
L 0 0 
z
" style="fill: #ffffff"/>
  </g>
  <g id="axes_1">
   <g id="patch_2">
    <path d="M 54 256.32 
L 388.8 256.32 
L 388.8 34.56 
L 54 34.56 
z
" style="fill: #ffffff"/>
   </g>
   <g id="matplotlib.axis_1">
    <g id="xtick_1">
     <g id="line2d_1">
      <path d="M 69.218182 256.32 
L 69.218182 34.56 
" clip-path="url(#p2007213f7b)" style="fill: none; stroke: #b0b0b0; stroke-width: 0.2; stroke-linecap: square"/>
     </g>
     <g id="line2d_2">
      <defs>
       <path id="maff1ef6868" d="M 0 0 
L 0 3.5 
" style="stroke: #000000; stroke-width: 0.8"/>
      </defs>
      <g>
       <use xlink:href="#maff1ef6868" x="69.218182" y="256.32" style="stroke: #000000; stroke-width: 0.8"/>
      </g>
     </g>
     <g id="text_1">
      <!-- 0 -->
      <g transform="translate(65.718807 271.678281) scale(0.11 -0.11)">
       <defs>
        <path id="DejaVuSans-30" d="M 2034 4250 
Q 1547 4250 1301 3770 
Q 1056 3291 1056 2328 
Q 1056 1369 1301 889 
Q 1547 409 2034 409 
Q 2525 409 2770 889 
Q 3016 1369 3016 2328 
Q 3016 3291 2770 3770 
Q 2525 4250 2034 4250 
z
M 2034 4750 
Q 2819 4750 3233 4129 
Q 3647 3509 3647 2328 
Q 3647 1150 3233 529 
Q 2819 -91 2034 -91 
Q 1250 -91 836 529 
Q 422 1150 422 2328 
Q 422 3509 836 4129 
Q 1250 4750 2034 4750 
z
" transform="scale(0.015625)"/>
       </defs>
       <use xlink:href="#DejaVuSans-30"/>
      </g>
     </g>
    </g>
    <g id="xtick_2">
     <g id="line2d_3">
      <path d="M 119.945455 256.32 
L 119.945455 34.56 
" clip-path="url(#p2007213f7b)" style="fill: none; stroke: #b0b0b0; stroke-width: 0.2; stroke-linecap: square"/>
     </g>
     <g id="line2d_4">
      <g>
       <use xlink:href="#maff1ef6868" x="119.945455" y="256.32" style="stroke: #000000; stroke-width: 0.8"/>
      </g>
     </g>
     <g id="text_2">
      <!-- 5 -->
      <g transform="translate(116.44608 271.678281) scale(0.11 -0.11)">
       <defs>
        <path id="DejaVuSans-35" d="M 691 4666 
L 3169 4666 
L 3169 4134 
L 1269 4134 
L 1269 2991 
Q 1406 3038 1543 3061 
Q 1681 3084 1819 3084 
Q 2600 3084 3056 2656 
Q 3513 2228 3513 1497 
Q 3513 744 3044 326 
Q 2575 -91 1722 -91 
Q 1428 -91 1123 -41 
Q 819 9 494 109 
L 494 744 
Q 775 591 1075 516 
Q 1375 441 1709 441 
Q 2250 441 2565 725 
Q 2881 1009 2881 1497 
Q 2881 1984 2565 2268 
Q 2250 2553 1709 2553 
Q 1456 2553 1204 2497 
Q 953 2441 691 2322 
L 691 4666 
z
" transform="scale(0.015625)"/>
       </defs>
       <use xlink:href="#DejaVuSans-35"/>
      </g>
     </g>
    </g>
    <g id="xtick_3">
     <g id="line2d_5">
      <path d="M 170.672727 256.32 
L 170.672727 34.56 
" clip-path="url(#p2007213f7b)" style="fill: none; stroke: #b0b0b0; stroke-width: 0.2; stroke-linecap: square"/>
     </g>
     <g id="line2d_6">
      <g>
       <use xlink:href="#maff1ef6868" x="170.672727" y="256.32" style="stroke: #000000; stroke-width: 0.8"/>
      </g>
     </g>
     <g id="text_3">
      <!-- 10 -->
      <g transform="translate(163.673977 271.678281) scale(0.11 -0.11)">
       <defs>
        <path id="DejaVuSans-31" d="M 794 531 
L 1825 531 
L 1825 4091 
L 703 3866 
L 703 4441 
L 1819 4666 
L 2450 4666 
L 2450 531 
L 3481 531 
L 3481 0 
L 794 0 
L 794 531 
z
" transform="scale(0.015625)"/>
       </defs>
       <use xlink:href="#DejaVuSans-31"/>
       <use xlink:href="#DejaVuSans-30" x="63.623047"/>
      </g>
     </g>
    </g>
    <g id="xtick_4">
     <g id="line2d_7">
      <path d="M 221.4 256.32 
L 221.4 34.56 
" clip-path="url(#p2007213f7b)" style="fill: none; stroke: #b0b0b0; stroke-width: 0.2; stroke-linecap: square"/>
     </g>
     <g id="line2d_8">
      <g>
       <use xlink:href="#maff1ef6868" x="221.4" y="256.32" style="stroke: #000000; stroke-width: 0.8"/>
      </g>
     </g>
     <g id="text_4">
      <!-- 15 -->
      <g transform="translate(214.40125 271.678281) scale(0.11 -0.11)">
       <use xlink:href="#DejaVuSans-31"/>
       <use xlink:href="#DejaVuSans-35" x="63.623047"/>
      </g>
     </g>
    </g>
    <g id="xtick_5">
     <g id="line2d_9">
      <path d="M 272.127273 256.32 
L 272.127273 34.56 
" clip-path="url(#p2007213f7b)" style="fill: none; stroke: #b0b0b0; stroke-width: 0.2; stroke-linecap: square"/>
     </g>
     <g id="line2d_10">
      <g>
       <use xlink:href="#maff1ef6868" x="272.127273" y="256.32" style="stroke: #000000; stroke-width: 0.8"/>
      </g>
     </g>
     <g id="text_5">
      <!-- 20 -->
      <g transform="translate(265.128523 271.678281) scale(0.11 -0.11)">
       <defs>
        <path id="DejaVuSans-32" d="M 1228 531 
L 3431 531 
L 3431 0 
L 469 0 
L 469 531 
Q 828 903 1448 1529 
Q 2069 2156 2228 2338 
Q 2531 2678 2651 2914 
Q 2772 3150 2772 3378 
Q 2772 3750 2511 3984 
Q 2250 4219 1831 4219 
Q 1534 4219 1204 4116 
Q 875 4013 500 3803 
L 500 4441 
Q 881 4594 1212 4672 
Q 1544 4750 1819 4750 
Q 2544 4750 2975 4387 
Q 3406 4025 3406 3419 
Q 3406 3131 3298 2873 
Q 3191 2616 2906 2266 
Q 2828 2175 2409 1742 
Q 1991 1309 1228 531 
z
" transform="scale(0.015625)"/>
       </defs>
       <use xlink:href="#DejaVuSans-32"/>
       <use xlink:href="#DejaVuSans-30" x="63.623047"/>
      </g>
     </g>
    </g>
    <g id="xtick_6">
     <g id="line2d_11">
      <path d="M 322.854545 256.32 
L 322.854545 34.56 
" clip-path="url(#p2007213f7b)" style="fill: none; stroke: #b0b0b0; stroke-width: 0.2; stroke-linecap: square"/>
     </g>
     <g id="line2d_12">
      <g>
       <use xlink:href="#maff1ef6868" x="322.854545" y="256.32" style="stroke: #000000; stroke-width: 0.8"/>
      </g>
     </g>
     <g id="text_6">
      <!-- 25 -->
      <g transform="translate(315.855795 271.678281) scale(0.11 -0.11)">
       <use xlink:href="#DejaVuSans-32"/>
       <use xlink:href="#DejaVuSans-35" x="63.623047"/>
      </g>
     </g>
    </g>
    <g id="xtick_7">
     <g id="line2d_13">
      <path d="M 373.581818 256.32 
L 373.581818 34.56 
" clip-path="url(#p2007213f7b)" style="fill: none; stroke: #b0b0b0; stroke-width: 0.2; stroke-linecap: square"/>
     </g>
     <g id="line2d_14">
      <g>
       <use xlink:href="#maff1ef6868" x="373.581818" y="256.32" style="stroke: #000000; stroke-width: 0.8"/>
      </g>
     </g>
     <g id="text_7">
      <!-- 30 -->
      <g transform="translate(366.583068 271.678281) scale(0.11 -0.11)">
       <defs>
        <path id="DejaVuSans-33" d="M 2597 2516 
Q 3050 2419 3304 2112 
Q 3559 1806 3559 1356 
Q 3559 666 3084 287 
Q 2609 -91 1734 -91 
Q 1441 -91 1130 -33 
Q 819 25 488 141 
L 488 750 
Q 750 597 1062 519 
Q 1375 441 1716 441 
Q 2309 441 2620 675 
Q 2931 909 2931 1356 
Q 2931 1769 2642 2001 
Q 2353 2234 1838 2234 
L 1294 2234 
L 1294 2753 
L 1863 2753 
Q 2328 2753 2575 2939 
Q 2822 3125 2822 3475 
Q 2822 3834 2567 4026 
Q 2313 4219 1838 4219 
Q 1578 4219 1281 4162 
Q 984 4106 628 3988 
L 628 4550 
Q 988 4650 1302 4700 
Q 1616 4750 1894 4750 
Q 2613 4750 3031 4423 
Q 3450 4097 3450 3541 
Q 3450 3153 3228 2886 
Q 3006 2619 2597 2516 
z
" transform="scale(0.015625)"/>
       </defs>
       <use xlink:href="#DejaVuSans-33"/>
       <use xlink:href="#DejaVuSans-30" x="63.623047"/>
      </g>
     </g>
    </g>
    <g id="text_8">
     <!-- Time (s) -->
     <g transform="translate(202.807422 285.604062) scale(0.11 -0.11)">
      <defs>
       <path id="TimesNewRomanPSMT-54" d="M 3703 4238 
L 3750 3244 
L 3631 3244 
Q 3597 3506 3538 3619 
Q 3441 3800 3280 3886 
Q 3119 3972 2856 3972 
L 2259 3972 
L 2259 734 
Q 2259 344 2344 247 
Q 2463 116 2709 116 
L 2856 116 
L 2856 0 
L 1059 0 
L 1059 116 
L 1209 116 
Q 1478 116 1591 278 
Q 1659 378 1659 734 
L 1659 3972 
L 1150 3972 
Q 853 3972 728 3928 
Q 566 3869 450 3700 
Q 334 3531 313 3244 
L 194 3244 
L 244 4238 
L 3703 4238 
z
" transform="scale(0.015625)"/>
       <path id="TimesNewRomanPSMT-69" d="M 928 4444 
Q 1059 4444 1151 4351 
Q 1244 4259 1244 4128 
Q 1244 3997 1151 3903 
Q 1059 3809 928 3809 
Q 797 3809 703 3903 
Q 609 3997 609 4128 
Q 609 4259 701 4351 
Q 794 4444 928 4444 
z
M 1188 2947 
L 1188 647 
Q 1188 378 1227 289 
Q 1266 200 1342 156 
Q 1419 113 1622 113 
L 1622 0 
L 231 0 
L 231 113 
Q 441 113 512 153 
Q 584 194 626 287 
Q 669 381 669 647 
L 669 1750 
Q 669 2216 641 2353 
Q 619 2453 572 2492 
Q 525 2531 444 2531 
Q 356 2531 231 2484 
L 188 2597 
L 1050 2947 
L 1188 2947 
z
" transform="scale(0.015625)"/>
       <path id="TimesNewRomanPSMT-6d" d="M 1050 2338 
Q 1363 2650 1419 2697 
Q 1559 2816 1721 2881 
Q 1884 2947 2044 2947 
Q 2313 2947 2506 2790 
Q 2700 2634 2766 2338 
Q 3088 2713 3309 2830 
Q 3531 2947 3766 2947 
Q 3994 2947 4170 2830 
Q 4347 2713 4450 2447 
Q 4519 2266 4519 1878 
L 4519 647 
Q 4519 378 4559 278 
Q 4591 209 4675 161 
Q 4759 113 4950 113 
L 4950 0 
L 3538 0 
L 3538 113 
L 3597 113 
Q 3781 113 3884 184 
Q 3956 234 3988 344 
Q 4000 397 4000 647 
L 4000 1878 
Q 4000 2228 3916 2372 
Q 3794 2572 3525 2572 
Q 3359 2572 3192 2489 
Q 3025 2406 2788 2181 
L 2781 2147 
L 2788 2013 
L 2788 647 
Q 2788 353 2820 281 
Q 2853 209 2943 161 
Q 3034 113 3253 113 
L 3253 0 
L 1806 0 
L 1806 113 
Q 2044 113 2133 169 
Q 2222 225 2256 338 
Q 2272 391 2272 647 
L 2272 1878 
Q 2272 2228 2169 2381 
Q 2031 2581 1784 2581 
Q 1616 2581 1450 2491 
Q 1191 2353 1050 2181 
L 1050 647 
Q 1050 366 1089 281 
Q 1128 197 1204 155 
Q 1281 113 1516 113 
L 1516 0 
L 100 0 
L 100 113 
Q 297 113 375 155 
Q 453 197 493 289 
Q 534 381 534 647 
L 534 1741 
Q 534 2213 506 2350 
Q 484 2453 437 2492 
Q 391 2531 309 2531 
Q 222 2531 100 2484 
L 53 2597 
L 916 2947 
L 1050 2947 
L 1050 2338 
z
" transform="scale(0.015625)"/>
       <path id="TimesNewRomanPSMT-65" d="M 681 1784 
Q 678 1147 991 784 
Q 1303 422 1725 422 
Q 2006 422 2214 576 
Q 2422 731 2563 1106 
L 2659 1044 
Q 2594 616 2278 264 
Q 1963 -88 1488 -88 
Q 972 -88 605 314 
Q 238 716 238 1394 
Q 238 2128 614 2539 
Q 991 2950 1559 2950 
Q 2041 2950 2350 2633 
Q 2659 2316 2659 1784 
L 681 1784 
z
M 681 1966 
L 2006 1966 
Q 1991 2241 1941 2353 
Q 1863 2528 1708 2628 
Q 1553 2728 1384 2728 
Q 1125 2728 920 2526 
Q 716 2325 681 1966 
z
" transform="scale(0.015625)"/>
       <path id="TimesNewRomanPSMT-20" transform="scale(0.015625)"/>
       <path id="TimesNewRomanPSMT-28" d="M 1988 -1253 
L 1988 -1369 
Q 1516 -1131 1200 -813 
Q 750 -359 506 256 
Q 263 872 263 1534 
Q 263 2503 741 3301 
Q 1219 4100 1988 4444 
L 1988 4313 
Q 1603 4100 1356 3731 
Q 1109 3363 987 2797 
Q 866 2231 866 1616 
Q 866 947 969 400 
Q 1050 -31 1165 -292 
Q 1281 -553 1476 -793 
Q 1672 -1034 1988 -1253 
z
" transform="scale(0.015625)"/>
       <path id="TimesNewRomanPSMT-73" d="M 2050 2947 
L 2050 1972 
L 1947 1972 
Q 1828 2431 1642 2597 
Q 1456 2763 1169 2763 
Q 950 2763 815 2647 
Q 681 2531 681 2391 
Q 681 2216 781 2091 
Q 878 1963 1175 1819 
L 1631 1597 
Q 2266 1288 2266 781 
Q 2266 391 1970 151 
Q 1675 -88 1309 -88 
Q 1047 -88 709 6 
Q 606 38 541 38 
Q 469 38 428 -44 
L 325 -44 
L 325 978 
L 428 978 
Q 516 541 762 319 
Q 1009 97 1316 97 
Q 1531 97 1667 223 
Q 1803 350 1803 528 
Q 1803 744 1651 891 
Q 1500 1038 1047 1263 
Q 594 1488 453 1669 
Q 313 1847 313 2119 
Q 313 2472 555 2709 
Q 797 2947 1181 2947 
Q 1350 2947 1591 2875 
Q 1750 2828 1803 2828 
Q 1853 2828 1881 2850 
Q 1909 2872 1947 2947 
L 2050 2947 
z
" transform="scale(0.015625)"/>
       <path id="TimesNewRomanPSMT-29" d="M 144 4313 
L 144 4444 
Q 619 4209 934 3891 
Q 1381 3434 1625 2820 
Q 1869 2206 1869 1541 
Q 1869 572 1392 -226 
Q 916 -1025 144 -1369 
L 144 -1253 
Q 528 -1038 776 -670 
Q 1025 -303 1145 264 
Q 1266 831 1266 1447 
Q 1266 2113 1163 2663 
Q 1084 3094 967 3353 
Q 850 3613 656 3853 
Q 463 4094 144 4313 
z
" transform="scale(0.015625)"/>
      </defs>
      <use xlink:href="#TimesNewRomanPSMT-54"/>
      <use xlink:href="#TimesNewRomanPSMT-69" x="57.583984"/>
      <use xlink:href="#TimesNewRomanPSMT-6d" x="85.367188"/>
      <use xlink:href="#TimesNewRomanPSMT-65" x="163.150391"/>
      <use xlink:href="#TimesNewRomanPSMT-20" x="207.535156"/>
      <use xlink:href="#TimesNewRomanPSMT-28" x="232.535156"/>
      <use xlink:href="#TimesNewRomanPSMT-73" x="265.835938"/>
      <use xlink:href="#TimesNewRomanPSMT-29" x="304.751953"/>
     </g>
    </g>
   </g>
   <g id="matplotlib.axis_2">
    <g id="ytick_1">
     <g id="line2d_15">
      <path d="M 54 225.478577 
L 388.8 225.478577 
" clip-path="url(#p2007213f7b)" style="fill: none; stroke: #b0b0b0; stroke-width: 0.2; stroke-linecap: square"/>
     </g>
     <g id="line2d_16">
      <defs>
       <path id="m0b33a995b3" d="M 0 0 
L -3.5 0 
" style="stroke: #000000; stroke-width: 0.8"/>
      </defs>
      <g>
       <use xlink:href="#m0b33a995b3" x="54" y="225.478577" style="stroke: #000000; stroke-width: 0.8"/>
      </g>
     </g>
     <g id="text_9">
      <!-- −2 -->
      <g transform="translate(30.783594 229.657717) scale(0.11 -0.11)">
       <defs>
        <path id="DejaVuSans-2212" d="M 678 2272 
L 4684 2272 
L 4684 1741 
L 678 1741 
L 678 2272 
z
" transform="scale(0.015625)"/>
       </defs>
       <use xlink:href="#DejaVuSans-2212"/>
       <use xlink:href="#DejaVuSans-32" x="83.789062"/>
      </g>
     </g>
    </g>
    <g id="ytick_2">
     <g id="line2d_17">
      <path d="M 54 182.795515 
L 388.8 182.795515 
" clip-path="url(#p2007213f7b)" style="fill: none; stroke: #b0b0b0; stroke-width: 0.2; stroke-linecap: square"/>
     </g>
     <g id="line2d_18">
      <g>
       <use xlink:href="#m0b33a995b3" x="54" y="182.795515" style="stroke: #000000; stroke-width: 0.8"/>
      </g>
     </g>
     <g id="text_10">
      <!-- −1 -->
      <g transform="translate(30.783594 186.974656) scale(0.11 -0.11)">
       <use xlink:href="#DejaVuSans-2212"/>
       <use xlink:href="#DejaVuSans-31" x="83.789062"/>
      </g>
     </g>
    </g>
    <g id="ytick_3">
     <g id="line2d_19">
      <path d="M 54 140.112453 
L 388.8 140.112453 
" clip-path="url(#p2007213f7b)" style="fill: none; stroke: #b0b0b0; stroke-width: 0.2; stroke-linecap: square"/>
     </g>
     <g id="line2d_20">
      <g>
       <use xlink:href="#m0b33a995b3" x="54" y="140.112453" style="stroke: #000000; stroke-width: 0.8"/>
      </g>
     </g>
     <g id="text_11">
      <!-- 0 -->
      <g transform="translate(40.00125 144.291594) scale(0.11 -0.11)">
       <use xlink:href="#DejaVuSans-30"/>
      </g>
     </g>
    </g>
    <g id="ytick_4">
     <g id="line2d_21">
      <path d="M 54 97.429392 
L 388.8 97.429392 
" clip-path="url(#p2007213f7b)" style="fill: none; stroke: #b0b0b0; stroke-width: 0.2; stroke-linecap: square"/>
     </g>
     <g id="line2d_22">
      <g>
       <use xlink:href="#m0b33a995b3" x="54" y="97.429392" style="stroke: #000000; stroke-width: 0.8"/>
      </g>
     </g>
     <g id="text_12">
      <!-- 1 -->
      <g transform="translate(40.00125 101.608532) scale(0.11 -0.11)">
       <use xlink:href="#DejaVuSans-31"/>
      </g>
     </g>
    </g>
    <g id="ytick_5">
     <g id="line2d_23">
      <path d="M 54 54.74633 
L 388.8 54.74633 
" clip-path="url(#p2007213f7b)" style="fill: none; stroke: #b0b0b0; stroke-width: 0.2; stroke-linecap: square"/>
     </g>
     <g id="line2d_24">
      <g>
       <use xlink:href="#m0b33a995b3" x="54" y="54.74633" style="stroke: #000000; stroke-width: 0.8"/>
      </g>
     </g>
     <g id="text_13">
      <!-- 2 -->
      <g transform="translate(40.00125 58.92547) scale(0.11 -0.11)">
       <use xlink:href="#DejaVuSans-32"/>
      </g>
     </g>
    </g>
    <g id="text_14">
     <!-- Angular position of the motor - $\theta_{m}$ (rad) -->
     <g transform="translate(24.363594 235.035) rotate(-90) scale(0.11 -0.11)">
      <defs>
       <path id="TimesNewRomanPSMT-41" d="M 2928 1419 
L 1288 1419 
L 1000 750 
Q 894 503 894 381 
Q 894 284 986 211 
Q 1078 138 1384 116 
L 1384 0 
L 50 0 
L 50 116 
Q 316 163 394 238 
Q 553 388 747 847 
L 2238 4334 
L 2347 4334 
L 3822 809 
Q 4000 384 4145 257 
Q 4291 131 4550 116 
L 4550 0 
L 2878 0 
L 2878 116 
Q 3131 128 3220 200 
Q 3309 272 3309 375 
Q 3309 513 3184 809 
L 2928 1419 
z
M 2841 1650 
L 2122 3363 
L 1384 1650 
L 2841 1650 
z
" transform="scale(0.015625)"/>
       <path id="TimesNewRomanPSMT-6e" d="M 1034 2341 
Q 1538 2947 1994 2947 
Q 2228 2947 2397 2830 
Q 2566 2713 2666 2444 
Q 2734 2256 2734 1869 
L 2734 647 
Q 2734 375 2778 278 
Q 2813 200 2889 156 
Q 2966 113 3172 113 
L 3172 0 
L 1756 0 
L 1756 113 
L 1816 113 
Q 2016 113 2095 173 
Q 2175 234 2206 353 
Q 2219 400 2219 647 
L 2219 1819 
Q 2219 2209 2117 2386 
Q 2016 2563 1775 2563 
Q 1403 2563 1034 2156 
L 1034 647 
Q 1034 356 1069 288 
Q 1113 197 1189 155 
Q 1266 113 1500 113 
L 1500 0 
L 84 0 
L 84 113 
L 147 113 
Q 366 113 442 223 
Q 519 334 519 647 
L 519 1709 
Q 519 2225 495 2337 
Q 472 2450 423 2490 
Q 375 2531 294 2531 
Q 206 2531 84 2484 
L 38 2597 
L 900 2947 
L 1034 2947 
L 1034 2341 
z
" transform="scale(0.015625)"/>
       <path id="TimesNewRomanPSMT-67" d="M 966 1044 
Q 703 1172 562 1401 
Q 422 1631 422 1909 
Q 422 2334 742 2640 
Q 1063 2947 1563 2947 
Q 1972 2947 2272 2747 
L 2878 2747 
Q 3013 2747 3034 2739 
Q 3056 2731 3066 2713 
Q 3084 2684 3084 2613 
Q 3084 2531 3069 2500 
Q 3059 2484 3036 2475 
Q 3013 2466 2878 2466 
L 2506 2466 
Q 2681 2241 2681 1891 
Q 2681 1491 2375 1206 
Q 2069 922 1553 922 
Q 1341 922 1119 984 
Q 981 866 932 777 
Q 884 688 884 625 
Q 884 572 936 522 
Q 988 472 1138 450 
Q 1225 438 1575 428 
Q 2219 413 2409 384 
Q 2700 344 2873 169 
Q 3047 -6 3047 -263 
Q 3047 -616 2716 -925 
Q 2228 -1381 1444 -1381 
Q 841 -1381 425 -1109 
Q 191 -953 191 -784 
Q 191 -709 225 -634 
Q 278 -519 444 -313 
Q 466 -284 763 25 
Q 600 122 533 198 
Q 466 275 466 372 
Q 466 481 555 628 
Q 644 775 966 1044 
z
M 1509 2797 
Q 1278 2797 1122 2612 
Q 966 2428 966 2047 
Q 966 1553 1178 1281 
Q 1341 1075 1591 1075 
Q 1828 1075 1981 1253 
Q 2134 1431 2134 1813 
Q 2134 2309 1919 2591 
Q 1759 2797 1509 2797 
z
M 934 0 
Q 788 -159 713 -296 
Q 638 -434 638 -550 
Q 638 -700 819 -813 
Q 1131 -1006 1722 -1006 
Q 2284 -1006 2551 -807 
Q 2819 -609 2819 -384 
Q 2819 -222 2659 -153 
Q 2497 -84 2016 -72 
Q 1313 -53 934 0 
z
" transform="scale(0.015625)"/>
       <path id="TimesNewRomanPSMT-75" d="M 2709 2863 
L 2709 1128 
Q 2709 631 2732 520 
Q 2756 409 2807 365 
Q 2859 322 2928 322 
Q 3025 322 3147 375 
L 3191 266 
L 2334 -88 
L 2194 -88 
L 2194 519 
Q 1825 119 1631 15 
Q 1438 -88 1222 -88 
Q 981 -88 804 51 
Q 628 191 559 409 
Q 491 628 491 1028 
L 491 2306 
Q 491 2509 447 2587 
Q 403 2666 317 2708 
Q 231 2750 6 2747 
L 6 2863 
L 1009 2863 
L 1009 947 
Q 1009 547 1148 422 
Q 1288 297 1484 297 
Q 1619 297 1789 381 
Q 1959 466 2194 703 
L 2194 2325 
Q 2194 2569 2105 2655 
Q 2016 2741 1734 2747 
L 1734 2863 
L 2709 2863 
z
" transform="scale(0.015625)"/>
       <path id="TimesNewRomanPSMT-6c" d="M 1184 4444 
L 1184 647 
Q 1184 378 1223 290 
Q 1263 203 1344 158 
Q 1425 113 1647 113 
L 1647 0 
L 244 0 
L 244 113 
Q 441 113 512 153 
Q 584 194 625 287 
Q 666 381 666 647 
L 666 3247 
Q 666 3731 644 3842 
Q 622 3953 573 3993 
Q 525 4034 450 4034 
Q 369 4034 244 3984 
L 191 4094 
L 1044 4444 
L 1184 4444 
z
" transform="scale(0.015625)"/>
       <path id="TimesNewRomanPSMT-61" d="M 1822 413 
Q 1381 72 1269 19 
Q 1100 -59 909 -59 
Q 613 -59 420 144 
Q 228 347 228 678 
Q 228 888 322 1041 
Q 450 1253 767 1440 
Q 1084 1628 1822 1897 
L 1822 2009 
Q 1822 2438 1686 2597 
Q 1550 2756 1291 2756 
Q 1094 2756 978 2650 
Q 859 2544 859 2406 
L 866 2225 
Q 866 2081 792 2003 
Q 719 1925 600 1925 
Q 484 1925 411 2006 
Q 338 2088 338 2228 
Q 338 2497 613 2722 
Q 888 2947 1384 2947 
Q 1766 2947 2009 2819 
Q 2194 2722 2281 2516 
Q 2338 2381 2338 1966 
L 2338 994 
Q 2338 584 2353 492 
Q 2369 400 2405 369 
Q 2441 338 2488 338 
Q 2538 338 2575 359 
Q 2641 400 2828 588 
L 2828 413 
Q 2478 -56 2159 -56 
Q 2006 -56 1915 50 
Q 1825 156 1822 413 
z
M 1822 616 
L 1822 1706 
Q 1350 1519 1213 1441 
Q 966 1303 859 1153 
Q 753 1003 753 825 
Q 753 600 887 451 
Q 1022 303 1197 303 
Q 1434 303 1822 616 
z
" transform="scale(0.015625)"/>
       <path id="TimesNewRomanPSMT-72" d="M 1038 2947 
L 1038 2303 
Q 1397 2947 1775 2947 
Q 1947 2947 2059 2842 
Q 2172 2738 2172 2600 
Q 2172 2478 2090 2393 
Q 2009 2309 1897 2309 
Q 1788 2309 1652 2417 
Q 1516 2525 1450 2525 
Q 1394 2525 1328 2463 
Q 1188 2334 1038 2041 
L 1038 669 
Q 1038 431 1097 309 
Q 1138 225 1241 169 
Q 1344 113 1538 113 
L 1538 0 
L 72 0 
L 72 113 
Q 291 113 397 181 
Q 475 231 506 341 
Q 522 394 522 644 
L 522 1753 
Q 522 2253 501 2348 
Q 481 2444 426 2487 
Q 372 2531 291 2531 
Q 194 2531 72 2484 
L 41 2597 
L 906 2947 
L 1038 2947 
z
" transform="scale(0.015625)"/>
       <path id="TimesNewRomanPSMT-70" d="M -6 2578 
L 875 2934 
L 994 2934 
L 994 2266 
Q 1216 2644 1439 2795 
Q 1663 2947 1909 2947 
Q 2341 2947 2628 2609 
Q 2981 2197 2981 1534 
Q 2981 794 2556 309 
Q 2206 -88 1675 -88 
Q 1444 -88 1275 -22 
Q 1150 25 994 166 
L 994 -706 
Q 994 -1000 1030 -1079 
Q 1066 -1159 1155 -1206 
Q 1244 -1253 1478 -1253 
L 1478 -1369 
L -22 -1369 
L -22 -1253 
L 56 -1253 
Q 228 -1256 350 -1188 
Q 409 -1153 442 -1076 
Q 475 -1000 475 -688 
L 475 2019 
Q 475 2297 450 2372 
Q 425 2447 370 2484 
Q 316 2522 222 2522 
Q 147 2522 31 2478 
L -6 2578 
z
M 994 2081 
L 994 1013 
Q 994 666 1022 556 
Q 1066 375 1236 237 
Q 1406 100 1666 100 
Q 1978 100 2172 344 
Q 2425 663 2425 1241 
Q 2425 1897 2138 2250 
Q 1938 2494 1663 2494 
Q 1513 2494 1366 2419 
Q 1253 2363 994 2081 
z
" transform="scale(0.015625)"/>
       <path id="TimesNewRomanPSMT-6f" d="M 1600 2947 
Q 2250 2947 2644 2453 
Q 2978 2031 2978 1484 
Q 2978 1100 2793 706 
Q 2609 313 2286 112 
Q 1963 -88 1566 -88 
Q 919 -88 538 428 
Q 216 863 216 1403 
Q 216 1797 411 2186 
Q 606 2575 925 2761 
Q 1244 2947 1600 2947 
z
M 1503 2744 
Q 1338 2744 1170 2645 
Q 1003 2547 900 2300 
Q 797 2053 797 1666 
Q 797 1041 1045 587 
Q 1294 134 1700 134 
Q 2003 134 2200 384 
Q 2397 634 2397 1244 
Q 2397 2006 2069 2444 
Q 1847 2744 1503 2744 
z
" transform="scale(0.015625)"/>
       <path id="TimesNewRomanPSMT-74" d="M 1031 3803 
L 1031 2863 
L 1700 2863 
L 1700 2644 
L 1031 2644 
L 1031 788 
Q 1031 509 1111 412 
Q 1191 316 1316 316 
Q 1419 316 1516 380 
Q 1613 444 1666 569 
L 1788 569 
Q 1678 263 1478 108 
Q 1278 -47 1066 -47 
Q 922 -47 784 33 
Q 647 113 581 261 
Q 516 409 516 719 
L 516 2644 
L 63 2644 
L 63 2747 
Q 234 2816 414 2980 
Q 594 3144 734 3369 
Q 806 3488 934 3803 
L 1031 3803 
z
" transform="scale(0.015625)"/>
       <path id="TimesNewRomanPSMT-66" d="M 1319 2638 
L 1319 756 
Q 1319 356 1406 250 
Q 1522 113 1716 113 
L 1975 113 
L 1975 0 
L 266 0 
L 266 113 
L 394 113 
Q 519 113 622 175 
Q 725 238 764 344 
Q 803 450 803 756 
L 803 2638 
L 247 2638 
L 247 2863 
L 803 2863 
L 803 3050 
Q 803 3478 940 3775 
Q 1078 4072 1361 4255 
Q 1644 4438 1997 4438 
Q 2325 4438 2600 4225 
Q 2781 4084 2781 3909 
Q 2781 3816 2700 3733 
Q 2619 3650 2525 3650 
Q 2453 3650 2373 3701 
Q 2294 3753 2178 3923 
Q 2063 4094 1966 4153 
Q 1869 4213 1750 4213 
Q 1606 4213 1506 4136 
Q 1406 4059 1362 3898 
Q 1319 3738 1319 3069 
L 1319 2863 
L 2056 2863 
L 2056 2638 
L 1319 2638 
z
" transform="scale(0.015625)"/>
       <path id="TimesNewRomanPSMT-68" d="M 1041 4444 
L 1041 2350 
Q 1388 2731 1591 2839 
Q 1794 2947 1997 2947 
Q 2241 2947 2416 2812 
Q 2591 2678 2675 2391 
Q 2734 2191 2734 1659 
L 2734 647 
Q 2734 375 2778 275 
Q 2809 200 2884 156 
Q 2959 113 3159 113 
L 3159 0 
L 1753 0 
L 1753 113 
L 1819 113 
Q 2019 113 2097 173 
Q 2175 234 2206 353 
Q 2216 403 2216 647 
L 2216 1659 
Q 2216 2128 2167 2275 
Q 2119 2422 2012 2495 
Q 1906 2569 1756 2569 
Q 1603 2569 1437 2487 
Q 1272 2406 1041 2159 
L 1041 647 
Q 1041 353 1073 281 
Q 1106 209 1195 161 
Q 1284 113 1503 113 
L 1503 0 
L 84 0 
L 84 113 
Q 275 113 384 172 
Q 447 203 484 290 
Q 522 378 522 647 
L 522 3238 
Q 522 3728 498 3840 
Q 475 3953 426 3993 
Q 378 4034 297 4034 
Q 231 4034 84 3984 
L 41 4094 
L 897 4444 
L 1041 4444 
z
" transform="scale(0.015625)"/>
       <path id="TimesNewRomanPSMT-2d" d="M 259 1672 
L 1875 1672 
L 1875 1200 
L 259 1200 
L 259 1672 
z
" transform="scale(0.015625)"/>
       <path id="DejaVuSans-Oblique-3b8" d="M 2913 2219 
L 925 2219 
Q 791 1284 928 888 
Q 1100 400 1566 400 
Q 2034 400 2391 891 
Q 2703 1322 2913 2219 
z
M 3009 2750 
Q 3094 3638 2984 3950 
Q 2813 4444 2353 4444 
Q 1875 4444 1525 3956 
Q 1250 3563 1034 2750 
L 3009 2750 
z
M 2444 4913 
Q 3194 4913 3494 4250 
Q 3794 3591 3566 2422 
Q 3341 1256 2781 594 
Q 2225 -72 1475 -72 
Q 722 -72 425 594 
Q 128 1256 353 2422 
Q 581 3591 1134 4250 
Q 1691 4913 2444 4913 
z
" transform="scale(0.015625)"/>
       <path id="DejaVuSans-Oblique-6d" d="M 5747 2113 
L 5338 0 
L 4763 0 
L 5166 2094 
Q 5191 2228 5203 2325 
Q 5216 2422 5216 2491 
Q 5216 2772 5059 2928 
Q 4903 3084 4622 3084 
Q 4203 3084 3875 2770 
Q 3547 2456 3450 1953 
L 3066 0 
L 2491 0 
L 2900 2094 
Q 2925 2209 2937 2307 
Q 2950 2406 2950 2484 
Q 2950 2769 2794 2926 
Q 2638 3084 2363 3084 
Q 1938 3084 1609 2770 
Q 1281 2456 1184 1953 
L 800 0 
L 225 0 
L 909 3500 
L 1484 3500 
L 1375 2956 
Q 1609 3263 1923 3423 
Q 2238 3584 2597 3584 
Q 2978 3584 3223 3384 
Q 3469 3184 3519 2828 
Q 3781 3197 4126 3390 
Q 4472 3584 4856 3584 
Q 5306 3584 5551 3325 
Q 5797 3066 5797 2591 
Q 5797 2488 5784 2364 
Q 5772 2241 5747 2113 
z
" transform="scale(0.015625)"/>
       <path id="TimesNewRomanPSMT-64" d="M 2222 322 
Q 2013 103 1813 7 
Q 1613 -88 1381 -88 
Q 913 -88 563 304 
Q 213 697 213 1313 
Q 213 1928 600 2439 
Q 988 2950 1597 2950 
Q 1975 2950 2222 2709 
L 2222 3238 
Q 2222 3728 2198 3840 
Q 2175 3953 2125 3993 
Q 2075 4034 2000 4034 
Q 1919 4034 1784 3984 
L 1744 4094 
L 2597 4444 
L 2738 4444 
L 2738 1134 
Q 2738 631 2761 520 
Q 2784 409 2836 365 
Q 2888 322 2956 322 
Q 3041 322 3181 375 
L 3216 266 
L 2366 -88 
L 2222 -88 
L 2222 322 
z
M 2222 541 
L 2222 2016 
Q 2203 2228 2109 2403 
Q 2016 2578 1861 2667 
Q 1706 2756 1559 2756 
Q 1284 2756 1069 2509 
Q 784 2184 784 1559 
Q 784 928 1059 592 
Q 1334 256 1672 256 
Q 1956 256 2222 541 
z
" transform="scale(0.015625)"/>
      </defs>
      <use xlink:href="#TimesNewRomanPSMT-41" transform="translate(0 0.234375)"/>
      <use xlink:href="#TimesNewRomanPSMT-6e" transform="translate(72.216797 0.234375)"/>
      <use xlink:href="#TimesNewRomanPSMT-67" transform="translate(122.216797 0.234375)"/>
      <use xlink:href="#TimesNewRomanPSMT-75" transform="translate(172.216797 0.234375)"/>
      <use xlink:href="#TimesNewRomanPSMT-6c" transform="translate(222.216797 0.234375)"/>
      <use xlink:href="#TimesNewRomanPSMT-61" transform="translate(250 0.234375)"/>
      <use xlink:href="#TimesNewRomanPSMT-72" transform="translate(294.384766 0.234375)"/>
      <use xlink:href="#TimesNewRomanPSMT-20" transform="translate(327.685547 0.234375)"/>
      <use xlink:href="#TimesNewRomanPSMT-70" transform="translate(352.685547 0.234375)"/>
      <use xlink:href="#TimesNewRomanPSMT-6f" transform="translate(402.685547 0.234375)"/>
      <use xlink:href="#TimesNewRomanPSMT-73" transform="translate(452.685547 0.234375)"/>
      <use xlink:href="#TimesNewRomanPSMT-69" transform="translate(491.601562 0.234375)"/>
      <use xlink:href="#TimesNewRomanPSMT-74" transform="translate(519.384766 0.234375)"/>
      <use xlink:href="#TimesNewRomanPSMT-69" transform="translate(547.167969 0.234375)"/>
      <use xlink:href="#TimesNewRomanPSMT-6f" transform="translate(574.951172 0.234375)"/>
      <use xlink:href="#TimesNewRomanPSMT-6e" transform="translate(624.951172 0.234375)"/>
      <use xlink:href="#TimesNewRomanPSMT-20" transform="translate(674.951172 0.234375)"/>
      <use xlink:href="#TimesNewRomanPSMT-6f" transform="translate(699.951172 0.234375)"/>
      <use xlink:href="#TimesNewRomanPSMT-66" transform="translate(749.951172 0.234375)"/>
      <use xlink:href="#TimesNewRomanPSMT-20" transform="translate(783.251953 0.234375)"/>
      <use xlink:href="#TimesNewRomanPSMT-74" transform="translate(808.251953 0.234375)"/>
      <use xlink:href="#TimesNewRomanPSMT-68" transform="translate(836.035156 0.234375)"/>
      <use xlink:href="#TimesNewRomanPSMT-65" transform="translate(886.035156 0.234375)"/>
      <use xlink:href="#TimesNewRomanPSMT-20" transform="translate(930.419922 0.234375)"/>
      <use xlink:href="#TimesNewRomanPSMT-6d" transform="translate(955.419922 0.234375)"/>
      <use xlink:href="#TimesNewRomanPSMT-6f" transform="translate(1033.203125 0.234375)"/>
      <use xlink:href="#TimesNewRomanPSMT-74" transform="translate(1083.203125 0.234375)"/>
      <use xlink:href="#TimesNewRomanPSMT-6f" transform="translate(1110.986328 0.234375)"/>
      <use xlink:href="#TimesNewRomanPSMT-72" transform="translate(1160.986328 0.234375)"/>
      <use xlink:href="#TimesNewRomanPSMT-20" transform="translate(1194.287109 0.234375)"/>
      <use xlink:href="#TimesNewRomanPSMT-2d" transform="translate(1219.287109 0.234375)"/>
      <use xlink:href="#TimesNewRomanPSMT-20" transform="translate(1252.587891 0.234375)"/>
      <use xlink:href="#DejaVuSans-Oblique-3b8" transform="translate(1277.587891 0.234375)"/>
      <use xlink:href="#DejaVuSans-Oblique-6d" transform="translate(1338.769531 -16.171875) scale(0.7)"/>
      <use xlink:href="#TimesNewRomanPSMT-20" transform="translate(1409.692383 0.234375)"/>
      <use xlink:href="#TimesNewRomanPSMT-28" transform="translate(1434.692383 0.234375)"/>
      <use xlink:href="#TimesNewRomanPSMT-72" transform="translate(1467.993164 0.234375)"/>
      <use xlink:href="#TimesNewRomanPSMT-61" transform="translate(1501.293945 0.234375)"/>
      <use xlink:href="#TimesNewRomanPSMT-64" transform="translate(1545.678711 0.234375)"/>
      <use xlink:href="#TimesNewRomanPSMT-29" transform="translate(1595.678711 0.234375)"/>
     </g>
    </g>
   </g>
   <g id="line2d_25">
    <path d="M 69.218182 140.112453 
L 69.248618 148.198908 
L 69.319636 145.500711 
L 69.431236 138.523448 
L 69.471818 138.476976 
L 69.522545 137.937789 
L 69.583418 138.335671 
L 69.624 138.214409 
L 69.634145 138.451558 
L 69.674727 138.303411 
L 69.684873 138.701482 
L 69.766036 137.688312 
L 69.826909 137.215002 
L 69.928364 135.22024 
L 69.938509 137.319129 
L 70.039964 136.026333 
L 70.131273 134.597855 
L 70.232727 134.812216 
L 70.2936 136.036005 
L 70.283455 134.741758 
L 70.354473 135.766769 
L 70.689273 127.801262 
L 70.790727 125.616401 
L 70.811018 125.979679 
L 71.145818 114.119331 
L 71.308145 105.046179 
L 72.363273 72.87398 
L 72.373418 73.164668 
L 72.414 71.94364 
L 72.677782 63.718285 
L 73.4184 48.035199 
L 73.428545 47.92493 
L 73.479273 45.509888 
L 73.540145 45.964553 
L 73.783636 44.64 
L 73.844509 45.204033 
L 73.895236 44.893159 
L 73.935818 44.923531 
L 73.986545 45.662449 
L 74.037273 45.039708 
L 74.047418 44.813315 
L 74.098145 46.021341 
L 74.138727 46.212234 
L 74.270618 50.499552 
L 74.290909 50.657508 
L 74.301055 49.895908 
L 74.341636 50.245331 
L 74.351782 49.239512 
L 74.453236 49.884077 
L 74.595273 50.767038 
L 74.706873 49.701499 
L 74.696727 51.225564 
L 74.717018 49.886625 
L 74.798182 52.580809 
L 74.950364 60.987234 
L 75.011236 59.421406 
L 75.001091 61.363447 
L 75.051818 60.393413 
L 75.153273 64.478983 
L 75.183709 64.235721 
L 75.214145 63.771897 
L 75.812727 83.827801 
L 76.167818 99.322253 
L 76.177964 96.790352 
L 76.269273 101.017569 
L 76.482327 110.365589 
L 77.791091 175.205789 
L 77.943273 182.515586 
L 77.963564 182.449121 
L 79.008545 230.020837 
L 79.018691 229.318929 
L 79.515818 242.08904 
L 79.525964 241.08848 
L 79.607127 243.655411 
L 79.769455 245.943724 
L 79.820182 245.299008 
L 79.830327 243.475312 
L 79.931782 245.002853 
L 79.972364 245.032615 
L 79.982509 245.590853 
L 80.063673 244.051648 
L 80.073818 244.030105 
L 80.185418 246.24 
L 80.195564 246.170541 
L 80.357891 244.238707 
L 80.428909 242.235099 
L 80.550655 237.838922 
L 80.591236 237.927976 
L 80.986909 228.64654 
L 81.139091 222.985197 
L 81.149236 224.247392 
L 81.2304 221.530633 
L 81.392727 214.528498 
L 81.494182 208.349048 
L 81.514473 208.747463 
L 82.559455 167.321895 
L 82.853673 157.823584 
L 83.320364 133.541543 
L 83.472545 127.383237 
L 83.482691 128.566214 
L 83.563855 125.860401 
L 83.584145 126.060446 
L 84.710291 81.17501 
L 85.298727 66.507939 
L 85.308873 67.755827 
L 85.400182 66.988566 
L 85.532073 65.132784 
L 85.552364 64.983246 
L 85.562509 65.897722 
L 85.653818 64.610601 
L 85.704545 63.50825 
L 85.765418 64.184525 
L 85.806 64.198796 
L 85.927745 66.134804 
L 85.958182 66.271468 
L 86.008909 67.109276 
L 86.019055 63.201057 
L 86.120509 64.252948 
L 86.161091 64.655263 
L 86.171236 63.939517 
L 86.211818 64.410545 
L 86.221964 62.907384 
L 86.313273 64.922089 
L 86.546618 70.783246 
L 87.175636 86.538063 
L 87.48 101.088739 
L 87.530727 102.726837 
L 87.682909 109.586032 
L 87.693055 107.45428 
L 87.774218 111.877262 
L 87.794509 110.751501 
L 89.356909 178.616392 
L 89.529382 183.703985 
L 90.27 207.420737 
L 90.280145 206.957201 
L 90.341018 208.644341 
L 90.422182 209.400805 
L 90.483055 207.116139 
L 90.543927 207.994736 
L 90.574364 208.342104 
L 90.706255 212.229928 
L 90.726545 212.35291 
L 90.736691 211.023831 
L 90.828 213.099941 
L 90.838145 211.961195 
L 90.878727 212.026715 
L 90.990327 213.288882 
L 91.000473 213.255664 
L 91.030909 213.133369 
L 91.152655 211.483386 
L 91.183091 211.212402 
L 91.193236 212.15846 
L 91.284545 211.02939 
L 91.294691 211.389929 
L 91.335273 210.838081 
L 91.345418 212.978163 
L 91.446873 212.943691 
L 91.538182 209.753684 
L 91.771527 201.140257 
L 92.045455 192.623652 
L 92.146909 187.256806 
L 92.1672 187.402118 
L 92.887527 159.673283 
L 94.277455 95.452862 
L 94.429636 88.531931 
L 94.439782 89.224971 
L 94.520945 87.252957 
L 94.541236 87.583721 
L 94.936909 75.566275 
L 94.947055 76.237692 
L 95.018073 74.013092 
L 95.545636 63.571484 
L 95.555782 63.632988 
L 95.596364 63.316719 
L 95.768836 59.640216 
L 95.799273 59.648326 
L 95.971745 62.482246 
L 96.002182 62.704333 
L 96.123927 65.063587 
L 96.255818 66.564128 
L 96.265964 64.536547 
L 96.357273 66.738241 
L 96.367418 65.210249 
L 96.661636 72.172665 
L 96.844255 78.434662 
L 96.874691 78.262463 
L 97.250073 93.371873 
L 98.284909 133.820723 
L 98.4168 139.188161 
L 99.816873 199.691964 
L 100.466182 217.186712 
L 100.476327 215.220038 
L 100.577782 216.147945 
L 100.618364 216.532455 
L 100.719818 220.857685 
L 100.740109 220.0776 
L 100.821273 220.51329 
L 100.861855 221.106754 
L 100.912582 219.775597 
L 100.922727 219.754398 
L 101.064764 215.481393 
L 101.074909 215.419934 
L 101.186509 216.917962 
L 101.196655 216.818715 
L 101.379273 215.667114 
L 101.389418 216.349673 
L 101.470582 215.074774 
L 101.490873 215.50829 
L 101.835818 207.030318 
L 101.977855 200.073209 
L 102.667745 176.492865 
L 103.530109 137.450261 
L 104.524364 96.461354 
L 104.595382 93.473739 
L 105.183818 72.139581 
L 105.214255 73.400377 
L 105.640364 65.290362 
L 105.701236 66.105505 
L 105.691091 65.147963 
L 105.762109 65.727572 
L 105.792545 65.509268 
L 105.914291 63.005692 
L 105.944727 62.95878 
L 106.0056 61.614321 
L 106.066473 61.969271 
L 106.127345 62.575388 
L 106.147636 62.67984 
L 106.269382 64.553514 
L 106.502727 67.451158 
L 106.604182 67.059429 
L 106.614327 65.874263 
L 106.705636 67.750766 
L 106.715782 66.906503 
L 106.908545 73.164029 
L 107.040436 80.446764 
L 108.024545 111.971774 
L 108.176727 120.046559 
L 108.186873 119.933536 
L 108.207164 120.821927 
L 110.226109 204.758997 
L 110.611636 214.682613 
L 110.662364 213.650234 
L 110.672509 213.259339 
L 110.733382 215.181383 
L 110.763818 215.476954 
L 110.773964 214.925496 
L 110.814545 215.264743 
L 110.936291 218.153024 
L 110.966727 218.229163 
L 111.068182 216.182533 
L 111.088473 217.443801 
L 111.118909 217.377004 
L 111.129055 218.836513 
L 111.230509 218.381533 
L 111.372545 217.154955 
L 111.423273 214.682483 
L 111.484145 216.492148 
L 111.626182 214.010086 
L 111.747927 209.912587 
L 111.930545 204.948057 
L 112.062436 201.706257 
L 112.092873 202.027139 
L 112.316073 191.555808 
L 113.503091 148.911267 
L 113.756727 135.376485 
L 113.766873 137.305407 
L 113.848036 132.011743 
L 115.177091 75.430192 
L 115.187236 75.818011 
L 115.227818 74.666583 
L 115.329273 71.556217 
L 115.349564 71.942042 
L 115.684364 64.648247 
L 115.735091 64.795486 
L 115.745236 65.617518 
L 115.836545 64.667563 
L 115.887273 64.26676 
L 116.009018 62.629754 
L 116.039455 62.548664 
L 116.100327 63.702197 
L 116.1612 63.485558 
L 116.191636 63.526792 
L 116.303236 61.345376 
L 116.343818 61.601574 
L 116.394545 62.429344 
L 116.404691 60.981314 
L 116.445273 61.377708 
L 116.455418 59.835666 
L 116.546727 62.02177 
L 116.668473 64.630225 
L 116.800364 68.173926 
L 116.932255 71.186774 
L 116.962691 71.182092 
L 117.358364 82.759447 
L 117.459818 87.291533 
L 117.5004 87.271865 
L 118.525091 126.923394 
L 118.667127 136.154154 
L 118.687418 135.872199 
L 120.148364 198.862326 
L 120.158509 197.105862 
L 120.249818 200.484052 
L 120.422291 206.09194 
L 121.010727 219.965376 
L 121.051309 219.333 
L 121.112182 220.005944 
L 121.162909 221.846034 
L 121.173055 219.896564 
L 121.213636 220.049804 
L 121.223782 219.993715 
L 121.264364 220.107507 
L 121.325236 218.297692 
L 121.365818 218.322243 
L 121.426691 221.506312 
L 121.487564 220.767836 
L 121.518 220.635492 
L 121.670182 217.271764 
L 121.680327 217.620282 
L 121.731055 218.215792 
L 121.842655 214.847631 
L 122.278909 207.030091 
L 122.4108 202.660297 
L 122.989091 181.730734 
L 123.212291 167.5834 
L 125.170364 72.92388 
L 125.180509 74.60736 
L 125.271818 72.640166 
L 125.464582 65.438193 
L 125.484873 66.369511 
L 125.626909 64.747136 
L 125.687782 66.318241 
L 125.728364 66.226253 
L 125.789236 63.367796 
L 125.839964 64.648943 
L 125.880545 64.894716 
L 125.890691 63.962963 
L 125.982 65.631516 
L 126.042873 65.209654 
L 126.032727 65.966132 
L 126.073309 65.676339 
L 126.134182 67.483696 
L 126.255927 71.623577 
L 126.489273 79.05767 
L 126.682036 89.285729 
L 126.702327 88.933837 
L 127.148727 113.522938 
L 127.331345 122.429707 
L 128.832873 204.222926 
L 129.076364 210.271754 
L 129.086509 209.364919 
L 129.167673 211.723547 
L 129.33 214.146412 
L 129.187964 211.397598 
L 129.360436 213.798932 
L 129.431455 215.63145 
L 129.482182 217.98593 
L 129.532909 216.839224 
L 129.543055 215.56332 
L 129.634364 216.947791 
L 129.735818 217.171056 
L 129.857564 216.434637 
L 129.888 216.279543 
L 129.989455 212.285216 
L 130.009745 213.176661 
L 130.141636 211.660676 
L 130.050327 213.207348 
L 130.192364 211.970901 
L 130.202509 213.462361 
L 130.293818 211.083453 
L 130.303964 211.388606 
L 130.344545 210.523914 
L 130.385127 210.625353 
L 130.993855 193.850357 
L 131.440255 172.399858 
L 131.470691 172.766375 
L 133.1244 103.194441 
L 133.9056 80.53342 
L 134.047636 77.607523 
L 134.098364 78.328042 
L 134.108509 79.060242 
L 134.199818 78.081783 
L 134.209964 78.193161 
L 134.250545 77.663977 
L 134.280982 77.868494 
L 134.301273 77.627249 
L 134.352 74.226839 
L 134.412873 75.487 
L 134.554909 73.741211 
L 134.6868 68.93808 
L 134.707091 68.889414 
L 134.767964 70.87977 
L 134.818691 70.542873 
L 134.859273 70.573922 
L 134.981018 73.537377 
L 135.011455 73.659796 
L 135.0216 73.189005 
L 135.082473 75.181075 
L 135.112909 75.37437 
L 135.173782 73.200757 
L 135.234655 73.43998 
L 135.265091 73.741876 
L 135.315818 76.232296 
L 135.376691 75.698563 
L 135.427418 75.576236 
L 135.721636 81.333041 
L 135.853527 84.794047 
L 136.431818 99.898483 
L 136.553564 106.372078 
L 137.740582 152.726833 
L 138.846436 196.463965 
L 139.272545 207.78497 
L 139.302982 206.586473 
L 139.333418 206.303348 
L 139.800109 213.492052 
L 139.830545 213.590843 
L 139.942145 215.066114 
L 139.962436 215.044066 
L 139.982727 215.008377 
L 140.084182 212.345111 
L 140.094327 213.483064 
L 140.388545 212.05475 
L 140.439273 208.339512 
L 140.500145 209.259687 
L 140.845091 202.012754 
L 140.976982 197.622498 
L 141.250909 187.452734 
L 141.352364 184.122824 
L 141.372655 185.404766 
L 142.508945 138.285346 
L 143.939455 78.013002 
L 142.529236 139.139287 
L 143.9496 78.801993 
L 144.091636 76.665475 
L 144.000327 79.331481 
L 144.101782 77.753945 
L 144.548182 70.342875 
L 144.700364 68.718085 
L 144.751091 66.887544 
L 144.811964 68.432135 
L 144.852545 68.353717 
L 144.984436 70.72492 
L 145.004727 70.760462 
L 145.014873 68.792503 
L 145.106182 70.65902 
L 145.227927 71.686399 
L 145.309091 72.30415 
L 145.319236 70.797104 
L 145.410545 72.781029 
L 145.420691 72.048279 
L 145.532291 74.939149 
L 145.816364 79.37115 
L 145.826509 77.322187 
L 145.917818 79.910466 
L 146.080145 87.597005 
L 146.678727 105.003051 
L 146.729455 109.496596 
L 146.800473 108.143141 
L 147.693273 147.112722 
L 147.835309 158.556431 
L 148.149818 168.500918 
L 148.159964 167.237723 
L 148.230982 171.988194 
L 148.809273 191.669018 
L 148.819418 191.263791 
L 148.870145 193.567588 
L 149.519455 210.760638 
L 149.5296 207.983306 
L 149.620909 212.469859 
L 149.671636 214.425148 
L 149.732509 212.755949 
L 149.773091 213.092899 
L 149.884691 211.841873 
L 149.874545 213.382784 
L 149.894836 211.886058 
L 150.138327 212.967608 
L 150.1992 212.672783 
L 150.280364 211.803705 
L 150.331091 210.177323 
L 150.381818 211.444459 
L 150.391964 211.899681 
L 150.462982 210.600559 
L 150.493418 210.954006 
L 150.635455 208.398649 
L 150.777491 202.599152 
L 150.797782 203.094539 
L 150.889091 201.828134 
L 150.899236 203.345171 
L 150.990545 202.058634 
L 151.183309 197.720407 
L 151.396364 189.63307 
L 151.5384 183.132085 
L 152.360182 150.95919 
L 152.664545 136.636314 
L 152.674691 138.535337 
L 152.766 135.238562 
L 152.968909 122.078138 
L 152.979055 122.580947 
L 153.019636 120.829856 
L 153.050073 121.440726 
L 154.034182 81.982948 
L 154.044327 83.488474 
L 154.125491 80.584944 
L 154.693636 66.196637 
L 154.145782 80.955025 
L 154.724073 68.100961 
L 154.744364 67.91127 
L 154.855964 71.537405 
L 154.876255 71.401197 
L 154.896545 71.273068 
L 154.998 67.895848 
L 155.018291 69.325198 
L 155.048727 69.267565 
L 155.099455 68.8144 
L 155.140036 69.797342 
L 155.160327 69.72744 
L 155.200909 69.808823 
L 155.251636 70.749642 
L 155.261782 68.694053 
L 155.292218 68.835163 
L 155.302364 68.887763 
L 155.403818 70.549896 
L 155.413964 68.716191 
L 155.515418 70.255333 
L 155.677745 73.460886 
L 155.829927 77.532858 
L 156.316909 88.075388 
L 156.458945 95.658075 
L 156.479236 94.103813 
L 157.027091 116.457963 
L 157.169127 125.809223 
L 157.189418 125.676368 
L 157.23 127.388111 
L 157.240145 123.927876 
L 157.331455 129.60357 
L 157.3416 128.273329 
L 157.432909 130.625201 
L 157.686545 141.779398 
L 157.798145 144.836353 
L 158.954727 192.460086 
L 158.964873 191.052132 
L 159.046036 193.855689 
L 159.715636 211.905599 
L 159.776509 207.271712 
L 159.837382 207.40913 
L 159.969273 209.21576 
L 160.070727 212.261197 
L 160.101164 211.079814 
L 160.121455 211.122207 
L 160.172182 212.198628 
L 160.212764 209.546144 
L 160.222909 209.538546 
L 160.324364 208.529687 
L 160.435964 211.704515 
L 160.456255 211.561216 
L 160.486691 211.928994 
L 160.679455 209.994601 
L 160.6896 210.721945 
L 160.780909 209.649618 
L 160.933091 203.404767 
L 160.993964 204.649503 
L 160.983818 203.145872 
L 161.034545 203.766408 
L 161.136 200.201615 
L 161.166436 200.217575 
L 161.196873 200.419569 
L 161.744727 182.716972 
L 161.876618 176.874172 
L 161.907055 176.999248 
L 162.759273 141.095614 
L 162.891164 135.230094 
L 164.159345 83.638236 
L 164.453564 78.600353 
L 164.788364 72.821544 
L 164.798509 73.800111 
L 164.889818 72.960679 
L 164.991273 68.514536 
L 165.011564 68.950732 
L 165.143455 67.652927 
L 165.244909 65.90173 
L 165.255055 66.702458 
L 165.295636 66.733472 
L 165.346364 67.755555 
L 165.407236 67.354171 
L 165.498545 67.646397 
L 165.559418 67.192241 
L 165.620291 69.289719 
L 165.701455 70.312433 
L 165.833345 74.627843 
L 165.975382 78.763845 
L 166.279745 87.036288 
L 167.020364 110.011915 
L 167.1624 113.783043 
L 168.339273 166.068065 
L 168.572618 176.039068 
L 168.745091 179.455078 
L 168.805964 177.740331 
L 168.846545 179.224609 
L 169.029164 189.412858 
L 169.404545 198.427448 
L 169.414691 198.053972 
L 169.455273 199.025762 
L 169.587164 204.516448 
L 169.658182 206.535103 
L 169.790073 211.777848 
L 169.810364 212.047428 
L 169.820509 210.616871 
L 169.911818 212.316044 
L 169.921964 211.923452 
L 170.013273 212.755693 
L 170.023418 209.025324 
L 170.124873 209.38411 
L 170.165455 209.586939 
L 170.2872 212.0108 
L 170.317636 212.017847 
L 170.327782 212.299527 
L 170.388655 211.145127 
L 170.419091 211.060532 
L 170.469818 209.377451 
L 170.530691 210.168476 
L 170.571273 209.905782 
L 170.703164 206.557598 
L 170.824909 204.704765 
L 170.926364 205.174547 
L 170.936509 205.675019 
L 171.017673 204.344558 
L 171.037964 205.030337 
L 171.230727 199.032347 
L 171.372764 195.639732 
L 171.738 183.026194 
L 171.839455 180.254567 
L 171.859745 182.304682 
L 173.209091 129.078328 
L 173.361273 120.077278 
L 173.949709 95.087108 
L 174.477273 80.118289 
L 174.487418 80.616878 
L 174.568582 79.470924 
L 175.187455 67.244793 
L 175.299055 70.153931 
L 175.319345 70.112438 
L 175.390364 69.908833 
L 175.441091 70.772395 
L 175.451236 69.229881 
L 175.491818 69.327669 
L 175.593273 69.571416 
L 175.603418 68.435903 
L 175.654145 68.24406 
L 175.745455 69.251951 
L 175.8672 72.74762 
L 176.222291 79.004171 
L 176.262873 78.980225 
L 176.404909 81.547828 
L 176.465782 80.243843 
L 176.455636 81.602982 
L 176.506364 81.383638 
L 176.962909 96.947238 
L 176.973055 94.594616 
L 177.054218 99.966518 
L 177.419455 117.809552 
L 177.977455 144.605602 
L 177.9876 143.528976 
L 178.068764 146.221222 
L 179.144182 190.348902 
L 179.154327 189.578994 
L 179.225345 191.997951 
L 179.671745 202.424372 
L 180.260182 212.4477 
L 180.270327 212.395433 
L 180.310909 212.599412 
L 180.412364 215.222658 
L 180.422509 213.332293 
L 180.463091 213.355246 
L 180.574691 214.64275 
L 180.564545 213.062125 
L 180.584836 214.611921 
L 180.615273 214.502433 
L 180.666 212.773592 
L 180.676145 214.657 
L 180.726873 213.375096 
L 180.868909 212.230535 
L 181.0008 208.113127 
L 181.031236 209.200498 
L 181.122545 206.782573 
L 181.132691 207.969111 
L 181.224 206.014709 
L 181.376182 199.860705 
L 181.477636 197.520512 
L 181.508073 197.539078 
L 181.721127 189.094096 
L 181.741418 189.801414 
L 182.441455 166.146585 
L 182.573345 159.297498 
L 184.419818 82.535867 
L 184.470545 82.941678 
L 184.480691 83.023515 
L 184.500982 82.465411 
L 184.927091 70.669535 
L 184.977818 71.27145 
L 184.987964 72.579851 
L 185.079273 70.32351 
L 185.089418 70.678716 
L 185.140145 68.599632 
L 185.231455 67.208621 
L 185.282182 65.324495 
L 185.332909 65.906158 
L 185.393782 67.617995 
L 185.434364 67.470383 
L 185.545964 64.581766 
L 185.556109 64.58619 
L 185.586545 64.618627 
L 185.728582 67.517011 
L 185.738727 67.573673 
L 185.748873 64.638362 
L 185.850327 64.962184 
L 185.941636 66.459524 
L 185.992364 69.036866 
L 186.053236 68.08032 
L 186.195273 70.819799 
L 186.327164 74.053365 
L 186.499636 79.562977 
L 186.661964 85.463167 
L 186.905455 93.221683 
L 187.037345 100.249742 
L 188.021455 137.57718 
L 188.193927 148.465216 
L 189.137455 185.226548 
L 189.1476 185.240526 
L 189.634582 198.608055 
L 190.152 208.782597 
L 190.212873 207.35151 
L 190.202727 208.829443 
L 190.253455 207.783221 
L 190.385345 211.464017 
L 190.405636 211.589416 
L 190.415782 209.658061 
L 190.517236 210.496319 
L 190.557818 210.605641 
L 190.608545 211.580167 
L 190.659273 210.251293 
L 190.669418 210.83187 
L 190.71 210.764181 
L 190.8216 212.65668 
L 190.841891 212.530826 
L 190.862182 212.392922 
L 190.912909 210.274246 
L 190.973782 211.988887 
L 191.217273 208.602882 
L 191.318727 206.290483 
L 191.349164 206.381373 
L 191.876727 194.433351 
L 192.018764 188.196173 
L 192.556473 166.416438 
L 193.398545 127.764088 
L 193.530436 122.918957 
L 194.362364 89.5925 
L 194.402945 90.02838 
L 194.423236 90.984304 
L 194.971091 75.197384 
L 194.981236 75.863077 
L 195.052255 73.268863 
L 195.174 69.894651 
L 195.204436 72.527904 
L 195.224727 72.273899 
L 195.346473 68.836723 
L 195.478364 67.551999 
L 195.539236 70.564206 
L 195.610255 70.062456 
L 195.630545 70.025445 
L 195.681273 69.309307 
L 195.732 70.16955 
L 195.742145 69.885597 
L 195.782727 69.980607 
L 195.833455 72.032935 
L 195.894327 70.951249 
L 195.934909 71.19785 
L 196.046509 68.912151 
L 196.087091 69.348438 
L 196.097236 66.501273 
L 196.188545 68.202947 
L 196.320436 74.802006 
L 196.340727 75.167079 
L 196.350873 73.66541 
L 196.391455 74.423915 
L 196.4016 72.914574 
L 196.492909 75.620414 
L 196.6248 78.725132 
L 197.152364 93.400142 
L 197.324836 102.78634 
L 197.365418 102.742317 
L 198.572727 152.881309 
L 198.775636 164.593656 
L 198.785782 163.992151 
L 198.8568 166.363085 
L 199.638 196.805756 
L 198.887236 166.276493 
L 199.688727 196.451591 
L 199.698873 195.284284 
L 199.780036 197.610518 
L 200.4192 211.569003 
L 200.449636 211.825816 
L 200.500364 213.47754 
L 200.551091 212.509264 
L 200.662691 210.25819 
L 200.682982 210.302131 
L 200.703273 210.335746 
L 200.764145 212.214959 
L 200.855455 211.715756 
L 200.906182 211.140974 
L 200.916327 211.874463 
L 200.956909 211.68577 
L 201.068509 213.850243 
L 201.078655 213.762491 
L 201.159818 212.959889 
L 201.301855 208.081822 
L 201.362727 206.037251 
L 201.514909 201.969222 
L 201.525055 203.484586 
L 201.616364 201.91991 
L 201.626509 202.539046 
L 201.677236 202.995231 
L 202.225091 186.683779 
L 202.377273 181.648853 
L 202.387418 181.743995 
L 202.691782 166.058629 
L 204.761455 86.648389 
L 204.781745 86.325283 
L 205.268727 74.112263 
L 205.278873 75.381471 
L 205.370182 73.884668 
L 205.512218 69.384473 
L 205.776 67.654773 
L 205.532509 69.40369 
L 205.806436 67.696786 
L 205.826727 67.699408 
L 205.958618 70.720472 
L 206.029636 71.105667 
L 206.161527 72.341721 
L 206.232545 73.865611 
L 206.283273 75.096937 
L 206.354291 74.703605 
L 206.384727 75.123468 
L 206.394873 74.235357 
L 206.435455 74.849838 
L 206.4456 73.188497 
L 206.536909 75.579725 
L 206.547055 74.545348 
L 206.810836 81.883745 
L 207.044182 88.970146 
L 207.145636 94.335524 
L 207.176073 94.214885 
L 207.947127 122.569834 
L 209.783455 196.129258 
L 209.7936 195.197726 
L 209.864618 198.068719 
L 210.087818 203.509307 
L 209.895055 197.926273 
L 210.138545 203.056376 
L 210.148691 200.758814 
L 210.24 203.224761 
L 210.442909 209.884592 
L 210.453055 207.769432 
L 210.544364 208.741287 
L 210.645818 211.973761 
L 210.666109 211.352976 
L 210.696545 211.525219 
L 210.706691 210.694981 
L 210.808145 211.086156 
L 210.899455 211.187763 
L 211.011055 212.686917 
L 211.0212 212.654304 
L 211.051636 212.53897 
L 211.102364 210.628201 
L 211.163236 212.213121 
L 211.335709 210.002691 
L 211.640073 204.800496 
L 212.218364 192.246874 
L 212.390836 183.663394 
L 213.172036 152.452327 
L 214.572109 94.19839 
L 215.008364 82.419342 
L 215.018509 83.196007 
L 215.099673 81.408336 
L 215.160545 77.503751 
L 215.262 74.090069 
L 215.292436 74.202227 
L 215.566364 69.666734 
L 215.576509 71.294018 
L 215.667818 69.7478 
L 215.921455 68.494216 
L 215.728691 69.783198 
L 215.9316 68.886631 
L 216.012764 68.842549 
L 216.022909 68.852055 
L 216.033055 67.833302 
L 216.124364 69.066497 
L 216.225818 70.654919 
L 216.235964 69.033724 
L 216.327273 70.820627 
L 216.337418 69.903166 
L 216.540327 73.064946 
L 217.088182 83.100278 
L 217.230218 89.173487 
L 217.250509 89.102708 
L 218.052 118.147745 
L 218.204182 125.239432 
L 218.214327 124.928017 
L 218.254909 126.69226 
L 218.2752 126.449794 
L 219.726 185.750086 
L 219.736145 184.706792 
L 219.817309 187.435358 
L 220.081091 197.951191 
L 220.182545 203.14897 
L 220.202836 202.182062 
L 220.436182 205.917172 
L 220.446327 203.608046 
L 220.537636 206.767875 
L 220.669527 209.492367 
L 220.791273 210.67393 
L 220.842 210.470342 
L 220.852145 209.001153 
L 220.943455 210.290033 
L 221.034764 212.326417 
L 221.0652 212.043768 
L 221.095636 212.013463 
L 221.146364 211.698123 
L 221.197091 211.868449 
L 221.207236 212.195679 
L 221.257964 210.61826 
L 221.298545 210.375847 
L 221.308691 212.145791 
L 221.4 210.598343 
L 221.531891 208.303742 
L 221.856545 203.257587 
L 221.988436 199.249791 
L 222.018873 200.309001 
L 222.566727 183.194608 
L 222.698618 175.944379 
L 222.921818 170.785105 
L 222.931964 171.353484 
L 222.982691 168.357629 
L 223.936364 124.815875 
L 224.037818 119.452113 
L 224.068255 119.487571 
L 224.494364 105.26484 
L 224.504509 106.094651 
L 224.575527 102.926457 
L 225.255273 80.826888 
L 225.275564 81.050348 
L 225.813273 70.972072 
L 225.823418 71.56598 
L 225.914727 70.505565 
L 225.924873 71.257673 
L 226.016182 71.047069 
L 226.127782 67.654237 
L 226.148073 67.66133 
L 226.168364 67.679671 
L 226.229236 66.802704 
L 226.279964 67.538994 
L 226.320545 67.75312 
L 226.422 70.049292 
L 226.442291 69.17149 
L 226.523455 69.744327 
L 226.574182 71.944175 
L 226.6452 71.67538 
L 226.878545 76.256932 
L 226.929273 79.213583 
L 226.990145 77.424649 
L 227.213345 85.170295 
L 227.497418 96.407484 
L 228.816327 144.702844 
L 230.023636 193.383276 
L 230.033782 193.237015 
L 230.064218 194.118776 
L 230.530909 205.063876 
L 230.591782 204.143949 
L 230.632364 204.830036 
L 230.7744 209.756433 
L 230.936727 211.316851 
L 230.946873 209.775349 
L 231.038182 210.392282 
L 231.139636 213.902946 
L 231.159927 213.726606 
L 231.190364 213.725635 
L 231.200509 213.9047 
L 231.241091 213.846117 
L 231.342545 211.045782 
L 231.362836 211.894787 
L 231.393273 211.734377 
L 231.535309 209.120149 
L 231.5556 209.322836 
L 231.646909 208.096336 
L 231.657055 209.395971 
L 231.748364 207.524545 
L 231.849818 205.095006 
L 231.870109 205.358357 
L 232.570145 190.157283 
L 233.118 168.44486 
L 233.300618 160.08885 
L 235.187673 83.74176 
L 235.603636 71.766654 
L 235.207964 84.353916 
L 235.725382 71.949969 
L 235.765964 72.117119 
L 235.908 69.324739 
L 235.918145 70.963246 
L 236.009455 70.602621 
L 236.1312 67.397054 
L 236.161636 67.276998 
L 236.171782 68.365377 
L 236.263091 66.298974 
L 236.374691 63.563485 
L 236.394982 63.636432 
L 236.415273 63.722901 
L 236.567455 68.766623 
L 236.5776 68.765245 
L 236.638473 70.287593 
L 236.719636 70.998431 
L 236.729782 68.747823 
L 236.821091 71.18748 
L 236.963127 75.078036 
L 237.571855 88.54732 
L 237.592145 88.526612 
L 237.815345 100.384686 
L 237.845782 100.088257 
L 238.748727 136.778618 
L 238.900909 148.132424 
L 239.134255 157.214401 
L 239.814 182.823473 
L 239.824145 182.379526 
L 239.874873 184.869169 
L 240.574909 205.64039 
L 240.585055 205.248775 
L 240.625636 206.017453 
L 240.676364 208.477104 
L 240.737236 207.079284 
L 241.132909 214.675785 
L 240.787964 206.389396 
L 241.285091 214.400037 
L 241.427127 210.452611 
L 241.437273 210.427985 
L 241.498145 212.051557 
L 241.538727 211.854346 
L 241.589455 209.482425 
L 241.5996 212.260361 
L 241.650327 210.73239 
L 241.741636 209.498044 
L 241.843091 207.17124 
L 241.863382 207.475729 
L 241.944545 204.840616 
L 242.046 202.603089 
L 242.056145 204.180182 
L 242.360509 196.113929 
L 242.756182 183.606253 
L 242.888073 178.405707 
L 243.821455 142.557506 
L 243.993927 132.856873 
L 244.7244 105.201873 
L 244.795418 105.369076 
L 245.180945 91.828335 
L 245.952 68.844706 
L 246.012873 71.656358 
L 246.0636 69.317193 
L 246.205636 68.139026 
L 246.256364 68.508991 
L 246.266509 69.894367 
L 246.357818 68.721138 
L 246.408545 68.319103 
L 246.428836 69.951589 
L 246.459273 69.969463 
L 246.560727 74.031547 
L 246.570873 71.252498 
L 246.611455 71.442832 
L 246.6216 71.164967 
L 246.662182 71.422364 
L 246.672327 71.16911 
L 246.753491 71.879698 
L 246.915818 73.823266 
L 247.047709 76.941554 
L 247.169455 79.123657 
L 247.220182 79.081051 
L 247.230327 77.974686 
L 247.321636 79.778026 
L 247.352073 80.302937 
L 247.473818 85.017764 
L 247.575273 90.783622 
L 247.605709 90.753942 
L 248.305745 114.287985 
L 250.334836 192.001168 
L 250.974 209.313335 
L 250.984145 208.050193 
L 251.075455 210.069668 
L 251.126182 211.157206 
L 251.187055 210.522085 
L 251.227636 210.802034 
L 251.237782 209.051003 
L 251.339236 210.536265 
L 251.379818 210.652486 
L 251.501564 208.208991 
L 251.532 208.167864 
L 251.592873 210.103845 
L 251.6436 208.588156 
L 251.836364 207.620581 
L 251.897236 210.090519 
L 251.947964 209.230597 
L 251.988545 208.711001 
L 252.09 205.602913 
L 252.100145 207.188646 
L 252.150873 207.969509 
L 252.556691 198.139322 
L 252.607418 198.334241 
L 253.206 177.215176 
L 253.398764 168.840908 
L 254.423455 122.498358 
L 254.575636 116.204235 
L 255.032182 96.320143 
L 255.042327 97.075064 
L 255.1032 94.378285 
L 255.691636 76.439734 
L 255.711927 76.817063 
L 255.742364 76.144746 
L 255.793091 72.344527 
L 255.864109 72.744901 
L 255.894545 72.187971 
L 255.904691 73.820029 
L 255.945273 73.113071 
L 256.006145 74.418011 
L 256.046727 73.802672 
L 256.209055 68.311734 
L 256.249636 67.93275 
L 256.259782 68.660414 
L 256.300364 68.345611 
L 256.361236 69.374981 
L 256.401818 69.173691 
L 256.452545 65.499999 
L 256.513418 65.832138 
L 256.554 65.825588 
L 256.655455 68.471438 
L 256.675745 68.03429 
L 256.706182 68.150479 
L 256.827927 70.293581 
L 256.919236 70.267159 
L 257.122145 73.233544 
L 257.213455 76.102782 
L 257.314909 79.176061 
L 257.355491 79.047719 
L 257.375782 78.803546 
L 257.842473 91.795967 
L 257.883055 90.873247 
L 258.643964 120.238052 
L 260.358545 192.158578 
L 260.409273 192.03553 
L 260.419418 190.962099 
L 260.500582 193.089007 
L 261.170182 212.086461 
L 261.220909 211.730337 
L 261.231055 211.077972 
L 261.291927 213.58182 
L 261.423818 214.822801 
L 261.433964 212.955787 
L 261.535418 214.365884 
L 261.576 214.450847 
L 261.636873 215.886932 
L 261.6876 214.753759 
L 261.728182 214.661507 
L 261.789055 214.829336 
L 261.860073 212.777443 
L 261.931091 211.808592 
L 262.073127 208.491003 
L 262.134 206.431851 
L 262.286182 203.841055 
L 262.742727 192.176589 
L 262.752873 194.069092 
L 262.844182 191.535583 
L 263.047091 183.704597 
L 263.148545 180.668725 
L 263.158691 184.193663 
L 263.25 180.060179 
L 263.260145 180.467051 
L 263.300727 178.900423 
L 263.432618 169.719349 
L 265.979127 73.272395 
L 266.090727 71.994254 
L 266.100873 73.748409 
L 266.202327 73.276597 
L 266.344364 70.774206 
L 266.4864 66.051419 
L 266.496545 65.997166 
L 266.506691 66.195123 
L 266.547273 66.022478 
L 266.658873 69.160407 
L 266.699455 69.151629 
L 266.7096 67.75836 
L 266.800909 68.08775 
L 266.9328 71.322959 
L 266.953091 71.453723 
L 267.064691 69.359547 
L 267.074836 69.462339 
L 267.115418 69.369105 
L 267.156 69.858479 
L 267.277745 74.251297 
L 267.358909 75.392428 
L 267.460364 78.821904 
L 267.480655 77.965812 
L 267.521236 77.265507 
L 267.612545 79.038761 
L 267.622691 78.126765 
L 267.703855 79.967274 
L 268.119818 92.245654 
L 268.261855 101.418851 
L 269.438727 148.842324 
L 269.712655 159.852225 
L 270.605455 194.328961 
L 270.6156 193.265389 
L 270.696764 195.833889 
L 271.011273 203.430768 
L 271.062 203.355376 
L 271.072145 201.601689 
L 271.163455 203.200034 
L 271.315636 210.321572 
L 271.548982 212.389691 
L 271.569273 212.501365 
L 271.680873 209.24506 
L 271.721455 209.324523 
L 271.833055 210.796192 
L 271.8432 210.776415 
L 271.883782 210.845847 
L 271.975091 210.390949 
L 272.117127 205.779921 
L 272.178 204.670547 
L 272.238873 208.219348 
L 272.299745 207.288106 
L 272.380909 205.548101 
L 272.482364 200.540851 
L 272.502655 200.894341 
L 272.583818 199.712118 
L 272.593964 201.690881 
L 272.695418 200.476359 
L 272.938909 192.339417 
L 273.060655 187.929446 
L 273.760691 162.426914 
L 275.728909 84.411566 
L 275.739055 84.808374 
L 275.789782 82.869599 
L 276.236182 73.065596 
L 276.246327 73.922861 
L 276.337636 72.450648 
L 276.347782 72.631492 
L 276.4188 72.09551 
L 276.591273 69.519868 
L 276.642 68.222212 
L 276.702873 69.00401 
L 276.7536 69.042685 
L 276.885491 68.722254 
L 276.895636 68.727164 
L 276.956509 66.533487 
L 277.007236 66.978335 
L 277.047818 67.172451 
L 277.149273 69.258801 
L 277.179709 69.137364 
L 277.2 69.334894 
L 277.210145 68.871029 
L 277.250727 69.314695 
L 277.3116 68.203879 
L 277.372473 68.511063 
L 277.453636 70.093683 
L 277.555091 76.545695 
L 277.585527 76.365817 
L 277.666691 76.289146 
L 278.173964 90.300093 
L 278.620364 108.557425 
L 278.782691 114.730729 
L 279.685636 155.698869 
L 279.837818 162.029827 
L 280.091455 171.693199 
L 280.1016 171.0281 
L 280.162473 174.290633 
L 280.903091 200.373772 
L 280.933527 200.18747 
L 281.308909 208.799 
L 281.359636 208.58035 
L 281.369782 207.85686 
L 281.450945 209.707019 
L 281.511818 211.387726 
L 281.613273 213.694674 
L 281.623418 210.606398 
L 281.724873 212.294865 
L 281.765455 212.480303 
L 281.7756 211.511862 
L 281.866909 211.926656 
L 281.917636 213.077997 
L 281.968364 211.726775 
L 281.978509 212.597992 
L 282.019091 212.501843 
L 282.069818 211.662028 
L 282.079964 213.341295 
L 282.120545 213.13728 
L 282.222 211.133577 
L 282.232145 213.015939 
L 282.272727 212.650291 
L 282.3336 213.996403 
L 282.384327 213.680836 
L 282.546655 210.155266 
L 282.627818 207.633903 
L 282.769855 201.497957 
L 282.790145 202.343909 
L 283.439455 183.968424 
L 283.591636 174.333229 
L 283.601782 176.06456 
L 283.682945 171.336928 
L 284.809091 123.796337 
L 284.961273 118.596069 
L 284.971418 119.004158 
L 285.012 117.259591 
L 285.174327 109.507485 
L 285.975818 81.466672 
L 285.985964 82.119244 
L 286.056982 80.109795 
L 286.178727 78.45458 
L 286.219309 78.79791 
L 286.635273 69.359108 
L 286.2396 78.967622 
L 286.736727 70.124534 
L 286.7976 72.599347 
L 286.848327 71.607529 
L 286.990364 71.012726 
L 287.030945 70.24208 
L 287.101964 70.823725 
L 287.142545 70.938494 
L 287.244 73.66227 
L 287.274436 72.960253 
L 287.345455 73.967273 
L 287.396182 74.767129 
L 287.406327 72.033165 
L 287.446909 72.47888 
L 287.457055 70.581049 
L 287.548364 71.460288 
L 287.680255 75.086088 
L 287.761418 74.879982 
L 287.903455 77.707948 
L 287.9136 76.465709 
L 287.994764 79.553915 
L 288.370145 92.093564 
L 289.019455 117.257137 
L 289.161491 124.356336 
L 289.181782 122.110779 
L 290.744182 189.907822 
L 290.754327 188.044305 
L 290.845636 191.20396 
L 290.855782 189.248481 
L 291.403636 204.89942 
L 291.434073 203.655026 
L 291.758727 209.591829 
L 291.880473 212.870587 
L 291.910909 213.005772 
L 291.921055 212.48618 
L 292.012364 213.418301 
L 292.052945 214.416722 
L 292.113818 213.325036 
L 292.215273 210.573281 
L 292.235564 210.922926 
L 292.266 210.758428 
L 292.276145 212.646433 
L 292.3776 211.984101 
L 292.418182 211.604832 
L 292.479055 212.9603 
L 292.519636 212.455806 
L 292.651527 206.751973 
L 292.824 203.057214 
L 292.945745 199.716374 
L 293.483455 187.290714 
L 293.4936 189.917454 
L 293.584909 184.990459 
L 293.595055 185.041485 
L 293.6052 184.672745 
L 294.396545 151.886334 
L 294.690764 134.287358 
L 295.411091 106.330757 
L 295.421236 107.524075 
L 295.492255 103.964494 
L 296.273455 77.034473 
L 296.2836 77.64691 
L 296.527091 70.524329 
L 296.658982 71.539887 
L 296.679273 71.286958 
L 296.740145 73.311685 
L 296.790873 72.833681 
L 296.932909 70.666052 
L 296.983636 68.798144 
L 297.034364 69.191809 
L 297.095236 71.253742 
L 297.145964 70.658666 
L 297.186545 70.68518 
L 297.237273 70.964168 
L 297.348873 69.08018 
L 297.359018 69.140839 
L 297.440182 69.542343 
L 297.450327 67.910807 
L 297.541636 68.969454 
L 297.673527 71.364293 
L 297.998182 77.156852 
L 298.130073 82.119211 
L 298.759091 101.282702 
L 298.860545 105.833976 
L 298.890982 105.759987 
L 299.875091 148.73121 
L 300.098291 160.049925 
L 300.940364 193.379938 
L 300.950509 191.41951 
L 301.041818 193.826445 
L 301.051964 192.791042 
L 301.244727 196.859486 
L 301.254873 195.440013 
L 301.336036 198.737989 
L 301.650545 206.208909 
L 301.670836 204.039828 
L 301.701273 204.488897 
L 301.802727 209.154127 
L 301.823018 208.430816 
L 301.853455 208.751697 
L 301.9752 211.338549 
L 302.005636 211.513193 
L 302.107091 214.314253 
L 302.117236 213.011683 
L 302.157818 213.062844 
L 302.259273 211.934256 
L 302.269418 212.608617 
L 302.340436 212.135497 
L 302.411455 211.42914 
L 302.462182 210.691824 
L 302.523055 211.386025 
L 302.665091 210.230261 
L 302.675236 211.125684 
L 302.7564 209.328884 
L 302.776691 209.431659 
L 302.969455 204.616103 
L 303.111491 198.889821 
L 303.426 192.258359 
L 303.436145 193.903372 
L 303.527455 191.52113 
L 303.5376 191.59187 
L 303.547745 191.259891 
L 303.831818 179.265462 
L 303.973855 173.538728 
L 304.440545 151.829097 
L 304.592727 146.404932 
L 304.744909 141.611107 
L 304.755055 142.567316 
L 304.826073 139.421109 
L 305.698582 104.960853 
L 306.520364 74.06065 
L 306.621818 74.094405 
L 306.631964 74.282549 
L 306.672545 73.604684 
L 306.713127 73.788496 
L 306.976909 70.147739 
L 307.078364 65.017494 
L 307.098655 65.84544 
L 307.179818 65.549116 
L 307.301564 68.12518 
L 307.332 68.166503 
L 307.433455 70.095919 
L 307.4436 68.294879 
L 307.484182 68.47714 
L 307.585636 71.051949 
L 307.626218 70.386339 
L 307.697236 70.28598 
L 307.737818 70.745801 
L 307.747964 68.361996 
L 307.839273 70.603115 
L 307.971164 72.996937 
L 308.529164 85.644271 
L 308.955273 102.388834 
L 309.148036 110.430698 
L 309.766909 138.666164 
L 309.908945 144.765333 
L 310.882909 184.742063 
L 310.893055 183.263106 
L 310.974218 186.648741 
L 311.593091 203.907386 
L 311.603236 203.342542 
L 311.6844 204.526589 
L 312.049636 209.884029 
L 311.704691 204.379066 
L 312.059782 209.460968 
L 312.303273 210.807907 
L 312.414873 210.090901 
L 312.455455 210.008705 
L 312.567055 211.020606 
L 312.5772 210.96277 
L 312.607636 210.772278 
L 312.617782 212.155188 
L 312.709091 210.870662 
L 312.840982 208.012604 
L 312.871418 208.175108 
L 313.165636 202.900671 
L 313.226509 205.842602 
L 313.277236 204.687365 
L 313.317818 203.663059 
L 313.449709 196.728951 
L 313.622182 189.344978 
L 313.764218 181.010732 
L 314.555564 151.604047 
L 315.651273 108.097053 
L 315.661418 109.256669 
L 315.722291 104.5467 
L 316.564364 74.516423 
L 316.584655 75.565024 
L 316.625236 76.347245 
L 316.818 71.879897 
L 316.9296 72.880416 
L 316.939745 72.737052 
L 316.970182 72.322406 
L 317.091927 69.004999 
L 317.223818 67.880713 
L 317.284691 70.054172 
L 317.345564 69.778993 
L 317.376 69.723489 
L 317.386145 70.574618 
L 317.477455 70.135641 
L 317.589055 67.905069 
L 317.629636 68.107342 
L 317.680364 68.836803 
L 317.690509 67.047392 
L 317.720945 67.291103 
L 317.731091 67.378774 
L 317.852836 70.538611 
L 317.984727 73.294193 
L 318.126764 75.943928 
L 318.147055 74.777304 
L 318.289091 77.889287 
L 318.299236 76.863374 
L 318.3804 79.098532 
L 318.694909 87.304516 
L 318.8268 93.247111 
L 319.455818 117.670768 
L 319.648582 125.498344 
L 321.484909 199.846433 
L 321.495055 198.489942 
L 321.576218 201.245929 
L 322.093636 211.326511 
L 322.103782 210.233764 
L 322.184945 213.121297 
L 322.296545 214.103627 
L 322.408145 211.364447 
L 322.418291 211.3904 
L 322.448727 211.451946 
L 322.458873 209.673523 
L 322.550182 210.719656 
L 322.611055 213.519116 
L 322.671927 212.053498 
L 322.702364 211.902903 
L 322.753091 210.376555 
L 322.763236 213.998148 
L 322.793673 213.762369 
L 322.854545 212.863297 
L 322.905273 213.084499 
L 323.047309 207.059463 
L 323.057455 206.900056 
L 323.158909 204.127153 
L 323.1792 204.234987 
L 323.361818 201.783783 
L 323.371964 203.258652 
L 323.453127 199.867807 
L 323.970545 184.331424 
L 324.132873 178.687141 
L 324.579273 159.022108 
L 324.731455 151.06352 
L 324.792327 151.581673 
L 324.782182 149.804462 
L 324.822764 150.240097 
L 326.202545 93.623655 
L 326.212691 95.51342 
L 326.304 92.79838 
L 326.334436 92.095024 
L 326.912727 77.027636 
L 326.922873 77.605512 
L 327.004036 76.580174 
L 327.115636 73.983805 
L 327.237382 72.029676 
L 327.318545 70.818174 
L 327.369273 71.771746 
L 327.379418 72.09761 
L 327.42 71.883457 
L 327.521455 68.399936 
L 327.541745 69.208548 
L 327.572182 69.182143 
L 327.582327 68.057283 
L 327.673636 69.63639 
L 327.734509 69.252948 
L 327.785236 69.304481 
L 327.825818 69.55919 
L 327.886691 68.774293 
L 327.927273 69.15098 
L 328.028727 71.325539 
L 328.049018 71.071213 
L 328.130182 73.458562 
L 328.180909 73.130504 
L 328.302655 77.089969 
L 328.333091 77.68363 
L 328.343236 76.79341 
L 328.383818 77.629458 
L 328.393964 76.639774 
L 328.475127 78.892954 
L 328.546145 78.444523 
L 329.144727 96.600661 
L 329.286764 102.490698 
L 329.499818 114.679475 
L 329.652 120.316203 
L 329.662145 120.300587 
L 331.630364 200.975869 
L 331.640509 199.652578 
L 331.721673 203.509657 
L 331.792691 203.359617 
L 331.884 205.701813 
L 331.944873 201.907878 
L 332.005745 204.75609 
L 332.086909 206.472581 
L 332.188364 210.540593 
L 332.2188 210.436012 
L 332.442 213.421582 
L 332.5536 210.379155 
L 332.563745 210.408657 
L 332.594182 210.481415 
L 332.705782 212.246571 
L 332.736218 212.182671 
L 332.746364 212.154986 
L 332.807236 213.493696 
L 332.847818 213.26915 
L 332.979709 210.075837 
L 333.101455 208.006616 
L 333.2232 205.884034 
L 333.558 200.166617 
L 333.618873 202.247406 
L 333.659455 201.199092 
L 333.831927 193.768002 
L 334.268182 178.31824 
L 334.369636 174.270785 
L 334.389927 174.405555 
L 335.485636 127.206616 
L 335.881309 112.135011 
L 336.753818 81.042751 
L 336.763964 81.144731 
L 336.7944 80.398414 
L 337.159636 71.66918 
L 337.210364 72.761122 
L 337.220509 73.180138 
L 337.291527 71.655841 
L 337.372691 71.704923 
L 337.464 70.724427 
L 337.474145 71.853926 
L 337.565455 70.664554 
L 337.829236 66.222291 
L 337.920545 66.781792 
L 338.072727 69.837063 
L 338.082873 69.229034 
L 338.143745 71.838394 
L 338.224909 72.73777 
L 338.346655 76.004186 
L 338.387236 75.425369 
L 338.732182 83.407673 
L 338.874218 89.723002 
L 338.935091 92.146547 
L 339.036545 91.356755 
L 339.046691 91.31067 
L 339.056836 91.63805 
L 339.543818 110.903604 
L 339.949636 129.956529 
L 339.959782 128.33022 
L 340.040945 132.378074 
L 341.065636 173.618478 
L 341.075782 172.965899 
L 341.1468 175.196381 
L 341.826545 199.610057 
L 341.836691 197.981455 
L 341.978727 203.569728 
L 342.029455 205.795973 
L 342.100473 205.678874 
L 342.486 213.149307 
L 342.587455 212.919005 
L 342.648327 211.11426 
L 342.699055 212.768326 
L 342.739636 212.875365 
L 342.800509 211.248196 
L 342.841091 211.255047 
L 342.901964 214.963293 
L 342.962836 214.157515 
L 342.993273 214.012344 
L 343.003418 214.47597 
L 343.044 214.22191 
L 343.054145 214.494408 
L 343.094727 214.182542 
L 343.196182 209.602321 
L 343.216473 209.969346 
L 343.348364 207.405244 
L 343.399091 208.478781 
L 343.409236 209.06972 
L 343.459964 205.877268 
L 344.007818 194.05133 
L 344.149855 190.327805 
L 344.393345 178.68137 
L 345.286145 141.677401 
L 346.6152 87.111273 
L 346.645636 86.170198 
L 346.655782 87.806242 
L 346.696364 86.573769 
L 346.706509 89.376377 
L 346.797818 84.577949 
L 346.807964 85.363018 
L 346.889127 83.298729 
L 347.629745 66.858323 
L 347.660182 66.698798 
L 347.721055 69.578149 
L 347.771782 69.160806 
L 347.812364 69.078875 
L 347.822509 69.300606 
L 347.8428 69.278903 
L 347.863091 69.267614 
L 347.873236 69.073383 
L 347.913818 69.095936 
L 347.964545 70.620382 
L 348.025418 70.049607 
L 348.066 70.247412 
L 348.076145 68.979816 
L 348.167455 70.369747 
L 348.1776 69.976847 
L 348.258764 71.676494 
L 348.319636 72.458849 
L 348.441382 74.520465 
L 348.471818 75.009944 
L 348.481964 72.004054 
L 348.573273 74.059701 
L 348.705164 77.23012 
L 348.7356 77.219671 
L 348.826909 80.174044 
L 348.837055 77.589792 
L 348.928364 81.224492 
L 349.060255 88.102019 
L 349.090691 88.028106 
L 349.892182 115.870171 
L 350.379164 138.898948 
L 351.718364 193.559644 
L 352.124182 203.357728 
L 352.276364 208.447711 
L 352.337236 206.579133 
L 352.387964 207.024875 
L 352.631455 210.042263 
L 352.6416 208.210037 
L 352.732909 209.629919 
L 352.783636 210.742218 
L 352.793782 208.088707 
L 352.824218 208.212595 
L 352.834364 208.24814 
L 352.945964 211.351471 
L 352.956109 211.343782 
L 352.986545 211.300945 
L 352.996691 212.127935 
L 353.088 211.454266 
L 353.219891 208.743404 
L 353.240182 208.570434 
L 353.361927 206.95482 
L 353.402509 207.728046 
L 353.544545 205.877848 
L 353.554691 206.518796 
L 353.625709 204.343172 
L 353.646 203.960566 
L 353.777891 197.645729 
L 353.808327 198.074224 
L 354.437345 180.778078 
L 355.522909 137.819792 
L 355.6548 133.063947 
L 355.685236 133.096189 
L 356.638909 93.811259 
L 356.649055 95.151893 
L 356.730218 91.905698 
L 357.349091 74.318715 
L 357.369382 74.921384 
L 357.552 69.805821 
L 357.653455 67.812263 
L 357.673745 68.182198 
L 357.704182 67.912677 
L 357.754909 66.008459 
L 357.815782 66.343894 
L 357.856364 66.157278 
L 357.917236 67.720447 
L 357.967964 66.917467 
L 358.008545 66.903756 
L 358.11 68.785831 
L 358.130291 68.184202 
L 358.363636 69.28162 
L 358.566545 74.957466 
L 358.921636 79.427365 
L 359.023091 83.067778 
L 359.033236 79.91169 
L 359.733273 100.289048 
L 359.905745 109.0665 
L 360.240545 127.158315 
L 360.382582 133.460449 
L 360.402873 132.251226 
L 361.863818 192.259595 
L 361.873964 190.998214 
L 361.955127 193.688556 
L 362.574 209.065501 
L 362.584145 208.331386 
L 362.675455 209.015649 
L 362.776909 211.472194 
L 362.7972 210.933776 
L 362.827636 211.169849 
L 362.888509 210.789074 
L 362.929091 210.990327 
L 363.060982 213.833459 
L 363.071127 213.830814 
L 363.081273 213.824756 
L 363.192873 214.715805 
L 363.182727 213.71733 
L 363.213164 214.633646 
L 363.233455 214.539162 
L 363.365345 209.576283 
L 363.385636 209.400114 
L 363.487091 206.748754 
L 363.507382 207.5894 
L 363.69 204.761393 
L 363.740727 205.824383 
L 363.750873 206.550405 
L 363.832036 205.11508 
L 363.842182 204.912715 
L 363.943636 200.062831 
L 363.963927 200.894029 
L 364.521927 185.414594 
L 365.059636 164.518868 
L 365.201673 157.276049 
L 365.221964 157.58179 
L 367.088727 81.360465 
L 367.098873 82.648648 
L 367.180036 79.923616 
L 367.393091 72.105551 
L 367.545273 72.156727 
L 367.555418 73.16615 
L 367.646727 72.473653 
L 367.748182 69.639831 
L 367.788764 70.142152 
L 367.798909 70.038723 
L 367.809055 71.695352 
L 367.900364 70.446267 
L 368.001818 67.618019 
L 368.011964 68.62769 
L 368.052545 68.493322 
L 368.143855 67.300625 
L 368.164145 68.115173 
L 368.204727 68.160424 
L 368.255455 68.527828 
L 368.2656 67.342582 
L 368.285891 67.418315 
L 368.458364 68.313886 
L 368.509091 68.270824 
L 368.630836 70.383749 
L 368.772873 73.863077 
L 368.955491 78.898268 
L 369.635236 95.544503 
L 369.9396 110.124245 
L 371.157055 162.327016 
L 371.552727 175.386616 
L 371.562873 174.737842 
L 371.623745 177.876416 
L 372.110727 192.722955 
L 372.120873 192.428627 
L 372.161455 193.617465 
L 372.3948 202.958081 
L 372.618 208.859488 
L 372.719455 207.603298 
L 372.7296 206.643569 
L 372.820909 208.378235 
L 372.922364 211.36443 
L 373.044109 213.964005 
L 373.074545 214.113405 
L 373.135418 211.496979 
L 373.186145 212.811288 
L 373.226727 212.842327 
L 373.236873 213.476754 
L 373.338327 212.980644 
L 373.378909 212.812199 
L 373.480364 210.259072 
L 373.5108 210.7711 
L 373.531091 210.599942 
L 373.581818 208.899053 
L 373.581818 208.899053 
" clip-path="url(#p2007213f7b)" style="fill: none; stroke: #000000; stroke-width: 0.5; stroke-linecap: square"/>
   </g>
   <g id="patch_3">
    <path d="M 54 256.32 
L 54 34.56 
" style="fill: none; stroke: #000000; stroke-width: 0.8; stroke-linejoin: miter; stroke-linecap: square"/>
   </g>
   <g id="patch_4">
    <path d="M 388.8 256.32 
L 388.8 34.56 
" style="fill: none; stroke: #000000; stroke-width: 0.8; stroke-linejoin: miter; stroke-linecap: square"/>
   </g>
   <g id="patch_5">
    <path d="M 54 256.32 
L 388.8 256.32 
" style="fill: none; stroke: #000000; stroke-width: 0.8; stroke-linejoin: miter; stroke-linecap: square"/>
   </g>
   <g id="patch_6">
    <path d="M 54 34.56 
L 388.8 34.56 
" style="fill: none; stroke: #000000; stroke-width: 0.8; stroke-linejoin: miter; stroke-linecap: square"/>
   </g>
   <g id="text_15">
    <!-- $\theta_{m}$ (rad) - (JUKF) -->
    <g transform="translate(180.645 28.56) scale(0.11 -0.11)">
     <defs>
      <path id="TimesNewRomanPSMT-4a" d="M 638 4122 
L 638 4238 
L 2453 4238 
L 2453 4122 
L 2300 4122 
Q 2041 4122 1922 3969 
Q 1847 3869 1847 3488 
L 1847 1416 
Q 1847 938 1742 641 
Q 1638 344 1381 123 
Q 1125 -97 763 -97 
Q 469 -97 300 48 
Q 131 194 131 381 
Q 131 534 209 613 
Q 313 709 450 709 
Q 550 709 629 643 
Q 709 578 831 294 
Q 903 125 1016 125 
Q 1100 125 1173 228 
Q 1247 331 1247 594 
L 1247 3488 
Q 1247 3809 1206 3913 
Q 1175 3991 1075 4047 
Q 941 4122 791 4122 
L 638 4122 
z
" transform="scale(0.015625)"/>
      <path id="TimesNewRomanPSMT-55" d="M 3053 4122 
L 3053 4238 
L 4553 4238 
L 4553 4122 
L 4394 4122 
Q 4144 4122 4009 3913 
Q 3944 3816 3944 3463 
L 3944 1744 
Q 3944 1106 3817 754 
Q 3691 403 3320 151 
Q 2950 -100 2313 -100 
Q 1619 -100 1259 140 
Q 900 381 750 788 
Q 650 1066 650 1831 
L 650 3488 
Q 650 3878 542 4000 
Q 434 4122 194 4122 
L 34 4122 
L 34 4238 
L 1866 4238 
L 1866 4122 
L 1703 4122 
Q 1441 4122 1328 3956 
Q 1250 3844 1250 3488 
L 1250 1641 
Q 1250 1394 1295 1075 
Q 1341 756 1459 578 
Q 1578 400 1801 284 
Q 2025 169 2350 169 
Q 2766 169 3094 350 
Q 3422 531 3542 814 
Q 3663 1097 3663 1772 
L 3663 3488 
Q 3663 3884 3575 3984 
Q 3453 4122 3213 4122 
L 3053 4122 
z
" transform="scale(0.015625)"/>
      <path id="TimesNewRomanPSMT-4b" d="M 1913 2350 
L 3475 797 
Q 3859 413 4131 273 
Q 4403 134 4675 116 
L 4675 0 
L 2659 0 
L 2659 116 
Q 2841 116 2920 177 
Q 3000 238 3000 313 
Q 3000 388 2970 447 
Q 2941 506 2775 669 
L 1313 2116 
L 1313 750 
Q 1313 428 1353 325 
Q 1384 247 1484 191 
Q 1619 116 1769 116 
L 1913 116 
L 1913 0 
L 106 0 
L 106 116 
L 256 116 
Q 519 116 638 269 
Q 713 369 713 750 
L 713 3488 
Q 713 3809 672 3916 
Q 641 3991 544 4047 
Q 406 4122 256 4122 
L 106 4122 
L 106 4238 
L 1913 4238 
L 1913 4122 
L 1769 4122 
Q 1622 4122 1484 4050 
Q 1388 4000 1350 3900 
Q 1313 3800 1313 3488 
L 1313 2191 
Q 1375 2250 1741 2588 
Q 2669 3438 2863 3722 
Q 2947 3847 2947 3941 
Q 2947 4013 2881 4067 
Q 2816 4122 2659 4122 
L 2563 4122 
L 2563 4238 
L 4119 4238 
L 4119 4122 
Q 3981 4119 3868 4084 
Q 3756 4050 3593 3951 
Q 3431 3853 3194 3634 
Q 3125 3572 2559 2994 
L 1913 2350 
z
" transform="scale(0.015625)"/>
      <path id="TimesNewRomanPSMT-46" d="M 1309 4006 
L 1309 2341 
L 2081 2341 
Q 2347 2341 2470 2458 
Q 2594 2575 2634 2922 
L 2750 2922 
L 2750 1488 
L 2634 1488 
Q 2631 1734 2570 1850 
Q 2509 1966 2401 2023 
Q 2294 2081 2081 2081 
L 1309 2081 
L 1309 750 
Q 1309 428 1350 325 
Q 1381 247 1481 191 
Q 1619 116 1769 116 
L 1922 116 
L 1922 0 
L 103 0 
L 103 116 
L 253 116 
Q 516 116 634 269 
Q 709 369 709 750 
L 709 3488 
Q 709 3809 669 3913 
Q 638 3991 541 4047 
Q 406 4122 253 4122 
L 103 4122 
L 103 4238 
L 3256 4238 
L 3297 3306 
L 3188 3306 
Q 3106 3603 2998 3742 
Q 2891 3881 2733 3943 
Q 2575 4006 2244 4006 
L 1309 4006 
z
" transform="scale(0.015625)"/>
     </defs>
     <use xlink:href="#DejaVuSans-Oblique-3b8" transform="translate(0 0.234375)"/>
     <use xlink:href="#DejaVuSans-Oblique-6d" transform="translate(61.181641 -16.171875) scale(0.7)"/>
     <use xlink:href="#TimesNewRomanPSMT-20" transform="translate(132.104492 0.234375)"/>
     <use xlink:href="#TimesNewRomanPSMT-28" transform="translate(157.104492 0.234375)"/>
     <use xlink:href="#TimesNewRomanPSMT-72" transform="translate(190.405273 0.234375)"/>
     <use xlink:href="#TimesNewRomanPSMT-61" transform="translate(223.706055 0.234375)"/>
     <use xlink:href="#TimesNewRomanPSMT-64" transform="translate(268.09082 0.234375)"/>
     <use xlink:href="#TimesNewRomanPSMT-29" transform="translate(318.09082 0.234375)"/>
     <use xlink:href="#TimesNewRomanPSMT-20" transform="translate(351.391602 0.234375)"/>
     <use xlink:href="#TimesNewRomanPSMT-2d" transform="translate(376.391602 0.234375)"/>
     <use xlink:href="#TimesNewRomanPSMT-20" transform="translate(409.692383 0.234375)"/>
     <use xlink:href="#TimesNewRomanPSMT-28" transform="translate(434.692383 0.234375)"/>
     <use xlink:href="#TimesNewRomanPSMT-4a" transform="translate(467.993164 0.234375)"/>
     <use xlink:href="#TimesNewRomanPSMT-55" transform="translate(506.90918 0.234375)"/>
     <use xlink:href="#TimesNewRomanPSMT-4b" transform="translate(579.125977 0.234375)"/>
     <use xlink:href="#TimesNewRomanPSMT-46" transform="translate(651.342773 0.234375)"/>
     <use xlink:href="#TimesNewRomanPSMT-29" transform="translate(706.958008 0.234375)"/>
    </g>
   </g>
   <g id="legend_1">
    <g id="patch_7">
     <path d="M 336.5 57.238125 
L 381.8 57.238125 
Q 383.8 57.238125 383.8 55.238125 
L 383.8 41.56 
Q 383.8 39.56 381.8 39.56 
L 336.5 39.56 
Q 334.5 39.56 334.5 41.56 
L 334.5 55.238125 
Q 334.5 57.238125 336.5 57.238125 
z
" style="fill: #ffffff; opacity: 0.8; stroke: #cccccc; stroke-linejoin: miter"/>
    </g>
    <g id="line2d_26">
     <path d="M 338.5 47.658438 
L 348.5 47.658438 
L 358.5 47.658438 
" style="fill: none; stroke: #000000; stroke-width: 0.5; stroke-linecap: square"/>
    </g>
    <g id="text_16">
     <!-- $\theta_{m}$ -->
     <g transform="translate(366.5 51.158438) scale(0.1 -0.1)">
      <use xlink:href="#DejaVuSans-Oblique-3b8" transform="translate(0 0.234375)"/>
      <use xlink:href="#DejaVuSans-Oblique-6d" transform="translate(61.181641 -16.171875) scale(0.7)"/>
     </g>
    </g>
   </g>
  </g>
 </g>
 <defs>
  <clipPath id="p2007213f7b">
   <rect x="54" y="34.56" width="334.8" height="221.76"/>
  </clipPath>
 </defs>
</svg>
