<?xml version="1.0" encoding="utf-8" standalone="no"?>
<!DOCTYPE svg PUBLIC "-//W3C//DTD SVG 1.1//EN"
  "http://www.w3.org/Graphics/SVG/1.1/DTD/svg11.dtd">
<svg xmlns:xlink="http://www.w3.org/1999/xlink" width="432pt" height="288pt" viewBox="0 0 432 288" xmlns="http://www.w3.org/2000/svg" version="1.1">
 <metadata>
  <rdf:RDF xmlns:dc="http://purl.org/dc/elements/1.1/" xmlns:cc="http://creativecommons.org/ns#" xmlns:rdf="http://www.w3.org/1999/02/22-rdf-syntax-ns#">
   <cc:Work>
    <dc:type rdf:resource="http://purl.org/dc/dcmitype/StillImage"/>
    <dc:date>2024-03-30T14:26:35.763386</dc:date>
    <dc:format>image/svg+xml</dc:format>
    <dc:creator>
     <cc:Agent>
      <dc:title>Matplotlib v3.8.3, https://matplotlib.org/</dc:title>
     </cc:Agent>
    </dc:creator>
   </cc:Work>
  </rdf:RDF>
 </metadata>
 <defs>
  <style type="text/css">*{stroke-linejoin: round; stroke-linecap: butt}</style>
 </defs>
 <g id="figure_1">
  <g id="patch_1">
   <path d="M 0 288 
L 432 288 
L 432 0 
L 0 0 
z
" style="fill: #ffffff"/>
  </g>
  <g id="axes_1">
   <g id="patch_2">
    <path d="M 54 252 
L 388.8 252 
L 388.8 34.56 
L 54 34.56 
z
" style="fill: #ffffff"/>
   </g>
   <g id="matplotlib.axis_1">
    <g id="xtick_1">
     <g id="line2d_1">
      <path d="M 69.218182 252 
L 69.218182 34.56 
" clip-path="url(#pd36e3682f8)" style="fill: none; stroke: #b0b0b0; stroke-width: 0.2; stroke-linecap: square"/>
     </g>
     <g id="line2d_2">
      <defs>
       <path id="m4e1eba6154" d="M 0 0 
L 0 3.5 
" style="stroke: #000000; stroke-width: 0.8"/>
      </defs>
      <g>
       <use xlink:href="#m4e1eba6154" x="69.218182" y="252" style="stroke: #000000; stroke-width: 0.8"/>
      </g>
     </g>
     <g id="text_1">
      <!-- 0.0 -->
      <g transform="translate(60.471463 267.358281) scale(0.11 -0.11)">
       <defs>
        <path id="DejaVuSans-30" d="M 2034 4250 
Q 1547 4250 1301 3770 
Q 1056 3291 1056 2328 
Q 1056 1369 1301 889 
Q 1547 409 2034 409 
Q 2525 409 2770 889 
Q 3016 1369 3016 2328 
Q 3016 3291 2770 3770 
Q 2525 4250 2034 4250 
z
M 2034 4750 
Q 2819 4750 3233 4129 
Q 3647 3509 3647 2328 
Q 3647 1150 3233 529 
Q 2819 -91 2034 -91 
Q 1250 -91 836 529 
Q 422 1150 422 2328 
Q 422 3509 836 4129 
Q 1250 4750 2034 4750 
z
" transform="scale(0.015625)"/>
        <path id="DejaVuSans-2e" d="M 684 794 
L 1344 794 
L 1344 0 
L 684 0 
L 684 794 
z
" transform="scale(0.015625)"/>
       </defs>
       <use xlink:href="#DejaVuSans-30"/>
       <use xlink:href="#DejaVuSans-2e" x="63.623047"/>
       <use xlink:href="#DejaVuSans-30" x="95.410156"/>
      </g>
     </g>
    </g>
    <g id="xtick_2">
     <g id="line2d_3">
      <path d="M 107.263636 252 
L 107.263636 34.56 
" clip-path="url(#pd36e3682f8)" style="fill: none; stroke: #b0b0b0; stroke-width: 0.2; stroke-linecap: square"/>
     </g>
     <g id="line2d_4">
      <g>
       <use xlink:href="#m4e1eba6154" x="107.263636" y="252" style="stroke: #000000; stroke-width: 0.8"/>
      </g>
     </g>
     <g id="text_2">
      <!-- 2.5 -->
      <g transform="translate(98.516918 267.358281) scale(0.11 -0.11)">
       <defs>
        <path id="DejaVuSans-32" d="M 1228 531 
L 3431 531 
L 3431 0 
L 469 0 
L 469 531 
Q 828 903 1448 1529 
Q 2069 2156 2228 2338 
Q 2531 2678 2651 2914 
Q 2772 3150 2772 3378 
Q 2772 3750 2511 3984 
Q 2250 4219 1831 4219 
Q 1534 4219 1204 4116 
Q 875 4013 500 3803 
L 500 4441 
Q 881 4594 1212 4672 
Q 1544 4750 1819 4750 
Q 2544 4750 2975 4387 
Q 3406 4025 3406 3419 
Q 3406 3131 3298 2873 
Q 3191 2616 2906 2266 
Q 2828 2175 2409 1742 
Q 1991 1309 1228 531 
z
" transform="scale(0.015625)"/>
        <path id="DejaVuSans-35" d="M 691 4666 
L 3169 4666 
L 3169 4134 
L 1269 4134 
L 1269 2991 
Q 1406 3038 1543 3061 
Q 1681 3084 1819 3084 
Q 2600 3084 3056 2656 
Q 3513 2228 3513 1497 
Q 3513 744 3044 326 
Q 2575 -91 1722 -91 
Q 1428 -91 1123 -41 
Q 819 9 494 109 
L 494 744 
Q 775 591 1075 516 
Q 1375 441 1709 441 
Q 2250 441 2565 725 
Q 2881 1009 2881 1497 
Q 2881 1984 2565 2268 
Q 2250 2553 1709 2553 
Q 1456 2553 1204 2497 
Q 953 2441 691 2322 
L 691 4666 
z
" transform="scale(0.015625)"/>
       </defs>
       <use xlink:href="#DejaVuSans-32"/>
       <use xlink:href="#DejaVuSans-2e" x="63.623047"/>
       <use xlink:href="#DejaVuSans-35" x="95.410156"/>
      </g>
     </g>
    </g>
    <g id="xtick_3">
     <g id="line2d_5">
      <path d="M 145.309091 252 
L 145.309091 34.56 
" clip-path="url(#pd36e3682f8)" style="fill: none; stroke: #b0b0b0; stroke-width: 0.2; stroke-linecap: square"/>
     </g>
     <g id="line2d_6">
      <g>
       <use xlink:href="#m4e1eba6154" x="145.309091" y="252" style="stroke: #000000; stroke-width: 0.8"/>
      </g>
     </g>
     <g id="text_3">
      <!-- 5.0 -->
      <g transform="translate(136.562372 267.358281) scale(0.11 -0.11)">
       <use xlink:href="#DejaVuSans-35"/>
       <use xlink:href="#DejaVuSans-2e" x="63.623047"/>
       <use xlink:href="#DejaVuSans-30" x="95.410156"/>
      </g>
     </g>
    </g>
    <g id="xtick_4">
     <g id="line2d_7">
      <path d="M 183.354545 252 
L 183.354545 34.56 
" clip-path="url(#pd36e3682f8)" style="fill: none; stroke: #b0b0b0; stroke-width: 0.2; stroke-linecap: square"/>
     </g>
     <g id="line2d_8">
      <g>
       <use xlink:href="#m4e1eba6154" x="183.354545" y="252" style="stroke: #000000; stroke-width: 0.8"/>
      </g>
     </g>
     <g id="text_4">
      <!-- 7.5 -->
      <g transform="translate(174.607827 267.358281) scale(0.11 -0.11)">
       <defs>
        <path id="DejaVuSans-37" d="M 525 4666 
L 3525 4666 
L 3525 4397 
L 1831 0 
L 1172 0 
L 2766 4134 
L 525 4134 
L 525 4666 
z
" transform="scale(0.015625)"/>
       </defs>
       <use xlink:href="#DejaVuSans-37"/>
       <use xlink:href="#DejaVuSans-2e" x="63.623047"/>
       <use xlink:href="#DejaVuSans-35" x="95.410156"/>
      </g>
     </g>
    </g>
    <g id="xtick_5">
     <g id="line2d_9">
      <path d="M 221.4 252 
L 221.4 34.56 
" clip-path="url(#pd36e3682f8)" style="fill: none; stroke: #b0b0b0; stroke-width: 0.2; stroke-linecap: square"/>
     </g>
     <g id="line2d_10">
      <g>
       <use xlink:href="#m4e1eba6154" x="221.4" y="252" style="stroke: #000000; stroke-width: 0.8"/>
      </g>
     </g>
     <g id="text_5">
      <!-- 10.0 -->
      <g transform="translate(209.153906 267.358281) scale(0.11 -0.11)">
       <defs>
        <path id="DejaVuSans-31" d="M 794 531 
L 1825 531 
L 1825 4091 
L 703 3866 
L 703 4441 
L 1819 4666 
L 2450 4666 
L 2450 531 
L 3481 531 
L 3481 0 
L 794 0 
L 794 531 
z
" transform="scale(0.015625)"/>
       </defs>
       <use xlink:href="#DejaVuSans-31"/>
       <use xlink:href="#DejaVuSans-30" x="63.623047"/>
       <use xlink:href="#DejaVuSans-2e" x="127.246094"/>
       <use xlink:href="#DejaVuSans-30" x="159.033203"/>
      </g>
     </g>
    </g>
    <g id="xtick_6">
     <g id="line2d_11">
      <path d="M 259.445455 252 
L 259.445455 34.56 
" clip-path="url(#pd36e3682f8)" style="fill: none; stroke: #b0b0b0; stroke-width: 0.2; stroke-linecap: square"/>
     </g>
     <g id="line2d_12">
      <g>
       <use xlink:href="#m4e1eba6154" x="259.445455" y="252" style="stroke: #000000; stroke-width: 0.8"/>
      </g>
     </g>
     <g id="text_6">
      <!-- 12.5 -->
      <g transform="translate(247.199361 267.358281) scale(0.11 -0.11)">
       <use xlink:href="#DejaVuSans-31"/>
       <use xlink:href="#DejaVuSans-32" x="63.623047"/>
       <use xlink:href="#DejaVuSans-2e" x="127.246094"/>
       <use xlink:href="#DejaVuSans-35" x="159.033203"/>
      </g>
     </g>
    </g>
    <g id="xtick_7">
     <g id="line2d_13">
      <path d="M 297.490909 252 
L 297.490909 34.56 
" clip-path="url(#pd36e3682f8)" style="fill: none; stroke: #b0b0b0; stroke-width: 0.2; stroke-linecap: square"/>
     </g>
     <g id="line2d_14">
      <g>
       <use xlink:href="#m4e1eba6154" x="297.490909" y="252" style="stroke: #000000; stroke-width: 0.8"/>
      </g>
     </g>
     <g id="text_7">
      <!-- 15.0 -->
      <g transform="translate(285.244815 267.358281) scale(0.11 -0.11)">
       <use xlink:href="#DejaVuSans-31"/>
       <use xlink:href="#DejaVuSans-35" x="63.623047"/>
       <use xlink:href="#DejaVuSans-2e" x="127.246094"/>
       <use xlink:href="#DejaVuSans-30" x="159.033203"/>
      </g>
     </g>
    </g>
    <g id="xtick_8">
     <g id="line2d_15">
      <path d="M 335.536364 252 
L 335.536364 34.56 
" clip-path="url(#pd36e3682f8)" style="fill: none; stroke: #b0b0b0; stroke-width: 0.2; stroke-linecap: square"/>
     </g>
     <g id="line2d_16">
      <g>
       <use xlink:href="#m4e1eba6154" x="335.536364" y="252" style="stroke: #000000; stroke-width: 0.8"/>
      </g>
     </g>
     <g id="text_8">
      <!-- 17.5 -->
      <g transform="translate(323.29027 267.358281) scale(0.11 -0.11)">
       <use xlink:href="#DejaVuSans-31"/>
       <use xlink:href="#DejaVuSans-37" x="63.623047"/>
       <use xlink:href="#DejaVuSans-2e" x="127.246094"/>
       <use xlink:href="#DejaVuSans-35" x="159.033203"/>
      </g>
     </g>
    </g>
    <g id="xtick_9">
     <g id="line2d_17">
      <path d="M 373.581818 252 
L 373.581818 34.56 
" clip-path="url(#pd36e3682f8)" style="fill: none; stroke: #b0b0b0; stroke-width: 0.2; stroke-linecap: square"/>
     </g>
     <g id="line2d_18">
      <g>
       <use xlink:href="#m4e1eba6154" x="373.581818" y="252" style="stroke: #000000; stroke-width: 0.8"/>
      </g>
     </g>
     <g id="text_9">
      <!-- 20.0 -->
      <g transform="translate(361.335724 267.358281) scale(0.11 -0.11)">
       <use xlink:href="#DejaVuSans-32"/>
       <use xlink:href="#DejaVuSans-30" x="63.623047"/>
       <use xlink:href="#DejaVuSans-2e" x="127.246094"/>
       <use xlink:href="#DejaVuSans-30" x="159.033203"/>
      </g>
     </g>
    </g>
    <g id="text_10">
     <!-- Time (s) -->
     <g transform="translate(202.807422 281.284063) scale(0.11 -0.11)">
      <defs>
       <path id="TimesNewRomanPSMT-54" d="M 3703 4238 
L 3750 3244 
L 3631 3244 
Q 3597 3506 3538 3619 
Q 3441 3800 3280 3886 
Q 3119 3972 2856 3972 
L 2259 3972 
L 2259 734 
Q 2259 344 2344 247 
Q 2463 116 2709 116 
L 2856 116 
L 2856 0 
L 1059 0 
L 1059 116 
L 1209 116 
Q 1478 116 1591 278 
Q 1659 378 1659 734 
L 1659 3972 
L 1150 3972 
Q 853 3972 728 3928 
Q 566 3869 450 3700 
Q 334 3531 313 3244 
L 194 3244 
L 244 4238 
L 3703 4238 
z
" transform="scale(0.015625)"/>
       <path id="TimesNewRomanPSMT-69" d="M 928 4444 
Q 1059 4444 1151 4351 
Q 1244 4259 1244 4128 
Q 1244 3997 1151 3903 
Q 1059 3809 928 3809 
Q 797 3809 703 3903 
Q 609 3997 609 4128 
Q 609 4259 701 4351 
Q 794 4444 928 4444 
z
M 1188 2947 
L 1188 647 
Q 1188 378 1227 289 
Q 1266 200 1342 156 
Q 1419 113 1622 113 
L 1622 0 
L 231 0 
L 231 113 
Q 441 113 512 153 
Q 584 194 626 287 
Q 669 381 669 647 
L 669 1750 
Q 669 2216 641 2353 
Q 619 2453 572 2492 
Q 525 2531 444 2531 
Q 356 2531 231 2484 
L 188 2597 
L 1050 2947 
L 1188 2947 
z
" transform="scale(0.015625)"/>
       <path id="TimesNewRomanPSMT-6d" d="M 1050 2338 
Q 1363 2650 1419 2697 
Q 1559 2816 1721 2881 
Q 1884 2947 2044 2947 
Q 2313 2947 2506 2790 
Q 2700 2634 2766 2338 
Q 3088 2713 3309 2830 
Q 3531 2947 3766 2947 
Q 3994 2947 4170 2830 
Q 4347 2713 4450 2447 
Q 4519 2266 4519 1878 
L 4519 647 
Q 4519 378 4559 278 
Q 4591 209 4675 161 
Q 4759 113 4950 113 
L 4950 0 
L 3538 0 
L 3538 113 
L 3597 113 
Q 3781 113 3884 184 
Q 3956 234 3988 344 
Q 4000 397 4000 647 
L 4000 1878 
Q 4000 2228 3916 2372 
Q 3794 2572 3525 2572 
Q 3359 2572 3192 2489 
Q 3025 2406 2788 2181 
L 2781 2147 
L 2788 2013 
L 2788 647 
Q 2788 353 2820 281 
Q 2853 209 2943 161 
Q 3034 113 3253 113 
L 3253 0 
L 1806 0 
L 1806 113 
Q 2044 113 2133 169 
Q 2222 225 2256 338 
Q 2272 391 2272 647 
L 2272 1878 
Q 2272 2228 2169 2381 
Q 2031 2581 1784 2581 
Q 1616 2581 1450 2491 
Q 1191 2353 1050 2181 
L 1050 647 
Q 1050 366 1089 281 
Q 1128 197 1204 155 
Q 1281 113 1516 113 
L 1516 0 
L 100 0 
L 100 113 
Q 297 113 375 155 
Q 453 197 493 289 
Q 534 381 534 647 
L 534 1741 
Q 534 2213 506 2350 
Q 484 2453 437 2492 
Q 391 2531 309 2531 
Q 222 2531 100 2484 
L 53 2597 
L 916 2947 
L 1050 2947 
L 1050 2338 
z
" transform="scale(0.015625)"/>
       <path id="TimesNewRomanPSMT-65" d="M 681 1784 
Q 678 1147 991 784 
Q 1303 422 1725 422 
Q 2006 422 2214 576 
Q 2422 731 2563 1106 
L 2659 1044 
Q 2594 616 2278 264 
Q 1963 -88 1488 -88 
Q 972 -88 605 314 
Q 238 716 238 1394 
Q 238 2128 614 2539 
Q 991 2950 1559 2950 
Q 2041 2950 2350 2633 
Q 2659 2316 2659 1784 
L 681 1784 
z
M 681 1966 
L 2006 1966 
Q 1991 2241 1941 2353 
Q 1863 2528 1708 2628 
Q 1553 2728 1384 2728 
Q 1125 2728 920 2526 
Q 716 2325 681 1966 
z
" transform="scale(0.015625)"/>
       <path id="TimesNewRomanPSMT-20" transform="scale(0.015625)"/>
       <path id="TimesNewRomanPSMT-28" d="M 1988 -1253 
L 1988 -1369 
Q 1516 -1131 1200 -813 
Q 750 -359 506 256 
Q 263 872 263 1534 
Q 263 2503 741 3301 
Q 1219 4100 1988 4444 
L 1988 4313 
Q 1603 4100 1356 3731 
Q 1109 3363 987 2797 
Q 866 2231 866 1616 
Q 866 947 969 400 
Q 1050 -31 1165 -292 
Q 1281 -553 1476 -793 
Q 1672 -1034 1988 -1253 
z
" transform="scale(0.015625)"/>
       <path id="TimesNewRomanPSMT-73" d="M 2050 2947 
L 2050 1972 
L 1947 1972 
Q 1828 2431 1642 2597 
Q 1456 2763 1169 2763 
Q 950 2763 815 2647 
Q 681 2531 681 2391 
Q 681 2216 781 2091 
Q 878 1963 1175 1819 
L 1631 1597 
Q 2266 1288 2266 781 
Q 2266 391 1970 151 
Q 1675 -88 1309 -88 
Q 1047 -88 709 6 
Q 606 38 541 38 
Q 469 38 428 -44 
L 325 -44 
L 325 978 
L 428 978 
Q 516 541 762 319 
Q 1009 97 1316 97 
Q 1531 97 1667 223 
Q 1803 350 1803 528 
Q 1803 744 1651 891 
Q 1500 1038 1047 1263 
Q 594 1488 453 1669 
Q 313 1847 313 2119 
Q 313 2472 555 2709 
Q 797 2947 1181 2947 
Q 1350 2947 1591 2875 
Q 1750 2828 1803 2828 
Q 1853 2828 1881 2850 
Q 1909 2872 1947 2947 
L 2050 2947 
z
" transform="scale(0.015625)"/>
       <path id="TimesNewRomanPSMT-29" d="M 144 4313 
L 144 4444 
Q 619 4209 934 3891 
Q 1381 3434 1625 2820 
Q 1869 2206 1869 1541 
Q 1869 572 1392 -226 
Q 916 -1025 144 -1369 
L 144 -1253 
Q 528 -1038 776 -670 
Q 1025 -303 1145 264 
Q 1266 831 1266 1447 
Q 1266 2113 1163 2663 
Q 1084 3094 967 3353 
Q 850 3613 656 3853 
Q 463 4094 144 4313 
z
" transform="scale(0.015625)"/>
      </defs>
      <use xlink:href="#TimesNewRomanPSMT-54"/>
      <use xlink:href="#TimesNewRomanPSMT-69" x="57.583984"/>
      <use xlink:href="#TimesNewRomanPSMT-6d" x="85.367188"/>
      <use xlink:href="#TimesNewRomanPSMT-65" x="163.150391"/>
      <use xlink:href="#TimesNewRomanPSMT-20" x="207.535156"/>
      <use xlink:href="#TimesNewRomanPSMT-28" x="232.535156"/>
      <use xlink:href="#TimesNewRomanPSMT-73" x="265.835938"/>
      <use xlink:href="#TimesNewRomanPSMT-29" x="304.751953"/>
     </g>
    </g>
   </g>
   <g id="matplotlib.axis_2">
    <g id="ytick_1">
     <g id="line2d_19">
      <path d="M 54 228.929425 
L 388.8 228.929425 
" clip-path="url(#pd36e3682f8)" style="fill: none; stroke: #b0b0b0; stroke-width: 0.2; stroke-linecap: square"/>
     </g>
     <g id="line2d_20">
      <defs>
       <path id="mb9828fe04b" d="M 0 0 
L -3.5 0 
" style="stroke: #000000; stroke-width: 0.8"/>
      </defs>
      <g>
       <use xlink:href="#mb9828fe04b" x="54" y="228.929425" style="stroke: #000000; stroke-width: 0.8"/>
      </g>
     </g>
     <g id="text_11">
      <!-- −10 -->
      <g transform="translate(23.784844 233.108566) scale(0.11 -0.11)">
       <defs>
        <path id="DejaVuSans-2212" d="M 678 2272 
L 4684 2272 
L 4684 1741 
L 678 1741 
L 678 2272 
z
" transform="scale(0.015625)"/>
       </defs>
       <use xlink:href="#DejaVuSans-2212"/>
       <use xlink:href="#DejaVuSans-31" x="83.789062"/>
       <use xlink:href="#DejaVuSans-30" x="147.412109"/>
      </g>
     </g>
    </g>
    <g id="ytick_2">
     <g id="line2d_21">
      <path d="M 54 185.806083 
L 388.8 185.806083 
" clip-path="url(#pd36e3682f8)" style="fill: none; stroke: #b0b0b0; stroke-width: 0.2; stroke-linecap: square"/>
     </g>
     <g id="line2d_22">
      <g>
       <use xlink:href="#mb9828fe04b" x="54" y="185.806083" style="stroke: #000000; stroke-width: 0.8"/>
      </g>
     </g>
     <g id="text_12">
      <!-- −5 -->
      <g transform="translate(30.783594 189.985224) scale(0.11 -0.11)">
       <use xlink:href="#DejaVuSans-2212"/>
       <use xlink:href="#DejaVuSans-35" x="83.789062"/>
      </g>
     </g>
    </g>
    <g id="ytick_3">
     <g id="line2d_23">
      <path d="M 54 142.682741 
L 388.8 142.682741 
" clip-path="url(#pd36e3682f8)" style="fill: none; stroke: #b0b0b0; stroke-width: 0.2; stroke-linecap: square"/>
     </g>
     <g id="line2d_24">
      <g>
       <use xlink:href="#mb9828fe04b" x="54" y="142.682741" style="stroke: #000000; stroke-width: 0.8"/>
      </g>
     </g>
     <g id="text_13">
      <!-- 0 -->
      <g transform="translate(40.00125 146.861882) scale(0.11 -0.11)">
       <use xlink:href="#DejaVuSans-30"/>
      </g>
     </g>
    </g>
    <g id="ytick_4">
     <g id="line2d_25">
      <path d="M 54 99.559399 
L 388.8 99.559399 
" clip-path="url(#pd36e3682f8)" style="fill: none; stroke: #b0b0b0; stroke-width: 0.2; stroke-linecap: square"/>
     </g>
     <g id="line2d_26">
      <g>
       <use xlink:href="#mb9828fe04b" x="54" y="99.559399" style="stroke: #000000; stroke-width: 0.8"/>
      </g>
     </g>
     <g id="text_14">
      <!-- 5 -->
      <g transform="translate(40.00125 103.73854) scale(0.11 -0.11)">
       <use xlink:href="#DejaVuSans-35"/>
      </g>
     </g>
    </g>
    <g id="ytick_5">
     <g id="line2d_27">
      <path d="M 54 56.436057 
L 388.8 56.436057 
" clip-path="url(#pd36e3682f8)" style="fill: none; stroke: #b0b0b0; stroke-width: 0.2; stroke-linecap: square"/>
     </g>
     <g id="line2d_28">
      <g>
       <use xlink:href="#mb9828fe04b" x="54" y="56.436057" style="stroke: #000000; stroke-width: 0.8"/>
      </g>
     </g>
     <g id="text_15">
      <!-- 10 -->
      <g transform="translate(33.0025 60.615198) scale(0.11 -0.11)">
       <use xlink:href="#DejaVuSans-31"/>
       <use xlink:href="#DejaVuSans-30" x="63.623047"/>
      </g>
     </g>
    </g>
    <g id="text_16">
     <!-- Angular velocity of the motor - $\omega_{m}$ (rad/s) -->
     <g transform="translate(17.364844 237.825) rotate(-90) scale(0.11 -0.11)">
      <defs>
       <path id="TimesNewRomanPSMT-41" d="M 2928 1419 
L 1288 1419 
L 1000 750 
Q 894 503 894 381 
Q 894 284 986 211 
Q 1078 138 1384 116 
L 1384 0 
L 50 0 
L 50 116 
Q 316 163 394 238 
Q 553 388 747 847 
L 2238 4334 
L 2347 4334 
L 3822 809 
Q 4000 384 4145 257 
Q 4291 131 4550 116 
L 4550 0 
L 2878 0 
L 2878 116 
Q 3131 128 3220 200 
Q 3309 272 3309 375 
Q 3309 513 3184 809 
L 2928 1419 
z
M 2841 1650 
L 2122 3363 
L 1384 1650 
L 2841 1650 
z
" transform="scale(0.015625)"/>
       <path id="TimesNewRomanPSMT-6e" d="M 1034 2341 
Q 1538 2947 1994 2947 
Q 2228 2947 2397 2830 
Q 2566 2713 2666 2444 
Q 2734 2256 2734 1869 
L 2734 647 
Q 2734 375 2778 278 
Q 2813 200 2889 156 
Q 2966 113 3172 113 
L 3172 0 
L 1756 0 
L 1756 113 
L 1816 113 
Q 2016 113 2095 173 
Q 2175 234 2206 353 
Q 2219 400 2219 647 
L 2219 1819 
Q 2219 2209 2117 2386 
Q 2016 2563 1775 2563 
Q 1403 2563 1034 2156 
L 1034 647 
Q 1034 356 1069 288 
Q 1113 197 1189 155 
Q 1266 113 1500 113 
L 1500 0 
L 84 0 
L 84 113 
L 147 113 
Q 366 113 442 223 
Q 519 334 519 647 
L 519 1709 
Q 519 2225 495 2337 
Q 472 2450 423 2490 
Q 375 2531 294 2531 
Q 206 2531 84 2484 
L 38 2597 
L 900 2947 
L 1034 2947 
L 1034 2341 
z
" transform="scale(0.015625)"/>
       <path id="TimesNewRomanPSMT-67" d="M 966 1044 
Q 703 1172 562 1401 
Q 422 1631 422 1909 
Q 422 2334 742 2640 
Q 1063 2947 1563 2947 
Q 1972 2947 2272 2747 
L 2878 2747 
Q 3013 2747 3034 2739 
Q 3056 2731 3066 2713 
Q 3084 2684 3084 2613 
Q 3084 2531 3069 2500 
Q 3059 2484 3036 2475 
Q 3013 2466 2878 2466 
L 2506 2466 
Q 2681 2241 2681 1891 
Q 2681 1491 2375 1206 
Q 2069 922 1553 922 
Q 1341 922 1119 984 
Q 981 866 932 777 
Q 884 688 884 625 
Q 884 572 936 522 
Q 988 472 1138 450 
Q 1225 438 1575 428 
Q 2219 413 2409 384 
Q 2700 344 2873 169 
Q 3047 -6 3047 -263 
Q 3047 -616 2716 -925 
Q 2228 -1381 1444 -1381 
Q 841 -1381 425 -1109 
Q 191 -953 191 -784 
Q 191 -709 225 -634 
Q 278 -519 444 -313 
Q 466 -284 763 25 
Q 600 122 533 198 
Q 466 275 466 372 
Q 466 481 555 628 
Q 644 775 966 1044 
z
M 1509 2797 
Q 1278 2797 1122 2612 
Q 966 2428 966 2047 
Q 966 1553 1178 1281 
Q 1341 1075 1591 1075 
Q 1828 1075 1981 1253 
Q 2134 1431 2134 1813 
Q 2134 2309 1919 2591 
Q 1759 2797 1509 2797 
z
M 934 0 
Q 788 -159 713 -296 
Q 638 -434 638 -550 
Q 638 -700 819 -813 
Q 1131 -1006 1722 -1006 
Q 2284 -1006 2551 -807 
Q 2819 -609 2819 -384 
Q 2819 -222 2659 -153 
Q 2497 -84 2016 -72 
Q 1313 -53 934 0 
z
" transform="scale(0.015625)"/>
       <path id="TimesNewRomanPSMT-75" d="M 2709 2863 
L 2709 1128 
Q 2709 631 2732 520 
Q 2756 409 2807 365 
Q 2859 322 2928 322 
Q 3025 322 3147 375 
L 3191 266 
L 2334 -88 
L 2194 -88 
L 2194 519 
Q 1825 119 1631 15 
Q 1438 -88 1222 -88 
Q 981 -88 804 51 
Q 628 191 559 409 
Q 491 628 491 1028 
L 491 2306 
Q 491 2509 447 2587 
Q 403 2666 317 2708 
Q 231 2750 6 2747 
L 6 2863 
L 1009 2863 
L 1009 947 
Q 1009 547 1148 422 
Q 1288 297 1484 297 
Q 1619 297 1789 381 
Q 1959 466 2194 703 
L 2194 2325 
Q 2194 2569 2105 2655 
Q 2016 2741 1734 2747 
L 1734 2863 
L 2709 2863 
z
" transform="scale(0.015625)"/>
       <path id="TimesNewRomanPSMT-6c" d="M 1184 4444 
L 1184 647 
Q 1184 378 1223 290 
Q 1263 203 1344 158 
Q 1425 113 1647 113 
L 1647 0 
L 244 0 
L 244 113 
Q 441 113 512 153 
Q 584 194 625 287 
Q 666 381 666 647 
L 666 3247 
Q 666 3731 644 3842 
Q 622 3953 573 3993 
Q 525 4034 450 4034 
Q 369 4034 244 3984 
L 191 4094 
L 1044 4444 
L 1184 4444 
z
" transform="scale(0.015625)"/>
       <path id="TimesNewRomanPSMT-61" d="M 1822 413 
Q 1381 72 1269 19 
Q 1100 -59 909 -59 
Q 613 -59 420 144 
Q 228 347 228 678 
Q 228 888 322 1041 
Q 450 1253 767 1440 
Q 1084 1628 1822 1897 
L 1822 2009 
Q 1822 2438 1686 2597 
Q 1550 2756 1291 2756 
Q 1094 2756 978 2650 
Q 859 2544 859 2406 
L 866 2225 
Q 866 2081 792 2003 
Q 719 1925 600 1925 
Q 484 1925 411 2006 
Q 338 2088 338 2228 
Q 338 2497 613 2722 
Q 888 2947 1384 2947 
Q 1766 2947 2009 2819 
Q 2194 2722 2281 2516 
Q 2338 2381 2338 1966 
L 2338 994 
Q 2338 584 2353 492 
Q 2369 400 2405 369 
Q 2441 338 2488 338 
Q 2538 338 2575 359 
Q 2641 400 2828 588 
L 2828 413 
Q 2478 -56 2159 -56 
Q 2006 -56 1915 50 
Q 1825 156 1822 413 
z
M 1822 616 
L 1822 1706 
Q 1350 1519 1213 1441 
Q 966 1303 859 1153 
Q 753 1003 753 825 
Q 753 600 887 451 
Q 1022 303 1197 303 
Q 1434 303 1822 616 
z
" transform="scale(0.015625)"/>
       <path id="TimesNewRomanPSMT-72" d="M 1038 2947 
L 1038 2303 
Q 1397 2947 1775 2947 
Q 1947 2947 2059 2842 
Q 2172 2738 2172 2600 
Q 2172 2478 2090 2393 
Q 2009 2309 1897 2309 
Q 1788 2309 1652 2417 
Q 1516 2525 1450 2525 
Q 1394 2525 1328 2463 
Q 1188 2334 1038 2041 
L 1038 669 
Q 1038 431 1097 309 
Q 1138 225 1241 169 
Q 1344 113 1538 113 
L 1538 0 
L 72 0 
L 72 113 
Q 291 113 397 181 
Q 475 231 506 341 
Q 522 394 522 644 
L 522 1753 
Q 522 2253 501 2348 
Q 481 2444 426 2487 
Q 372 2531 291 2531 
Q 194 2531 72 2484 
L 41 2597 
L 906 2947 
L 1038 2947 
z
" transform="scale(0.015625)"/>
       <path id="TimesNewRomanPSMT-76" d="M 53 2863 
L 1400 2863 
L 1400 2747 
L 1313 2747 
Q 1191 2747 1127 2687 
Q 1063 2628 1063 2528 
Q 1063 2419 1128 2269 
L 1794 688 
L 2463 2328 
Q 2534 2503 2534 2594 
Q 2534 2638 2509 2666 
Q 2475 2713 2422 2730 
Q 2369 2747 2206 2747 
L 2206 2863 
L 3141 2863 
L 3141 2747 
Q 2978 2734 2916 2681 
Q 2806 2588 2719 2369 
L 1703 -88 
L 1575 -88 
L 553 2328 
Q 484 2497 421 2570 
Q 359 2644 263 2694 
Q 209 2722 53 2747 
L 53 2863 
z
" transform="scale(0.015625)"/>
       <path id="TimesNewRomanPSMT-6f" d="M 1600 2947 
Q 2250 2947 2644 2453 
Q 2978 2031 2978 1484 
Q 2978 1100 2793 706 
Q 2609 313 2286 112 
Q 1963 -88 1566 -88 
Q 919 -88 538 428 
Q 216 863 216 1403 
Q 216 1797 411 2186 
Q 606 2575 925 2761 
Q 1244 2947 1600 2947 
z
M 1503 2744 
Q 1338 2744 1170 2645 
Q 1003 2547 900 2300 
Q 797 2053 797 1666 
Q 797 1041 1045 587 
Q 1294 134 1700 134 
Q 2003 134 2200 384 
Q 2397 634 2397 1244 
Q 2397 2006 2069 2444 
Q 1847 2744 1503 2744 
z
" transform="scale(0.015625)"/>
       <path id="TimesNewRomanPSMT-63" d="M 2631 1088 
Q 2516 522 2178 217 
Q 1841 -88 1431 -88 
Q 944 -88 581 321 
Q 219 731 219 1428 
Q 219 2103 620 2525 
Q 1022 2947 1584 2947 
Q 2006 2947 2278 2723 
Q 2550 2500 2550 2259 
Q 2550 2141 2473 2067 
Q 2397 1994 2259 1994 
Q 2075 1994 1981 2113 
Q 1928 2178 1911 2362 
Q 1894 2547 1784 2644 
Q 1675 2738 1481 2738 
Q 1169 2738 978 2506 
Q 725 2200 725 1697 
Q 725 1184 976 792 
Q 1228 400 1656 400 
Q 1963 400 2206 609 
Q 2378 753 2541 1131 
L 2631 1088 
z
" transform="scale(0.015625)"/>
       <path id="TimesNewRomanPSMT-74" d="M 1031 3803 
L 1031 2863 
L 1700 2863 
L 1700 2644 
L 1031 2644 
L 1031 788 
Q 1031 509 1111 412 
Q 1191 316 1316 316 
Q 1419 316 1516 380 
Q 1613 444 1666 569 
L 1788 569 
Q 1678 263 1478 108 
Q 1278 -47 1066 -47 
Q 922 -47 784 33 
Q 647 113 581 261 
Q 516 409 516 719 
L 516 2644 
L 63 2644 
L 63 2747 
Q 234 2816 414 2980 
Q 594 3144 734 3369 
Q 806 3488 934 3803 
L 1031 3803 
z
" transform="scale(0.015625)"/>
       <path id="TimesNewRomanPSMT-79" d="M 38 2863 
L 1372 2863 
L 1372 2747 
L 1306 2747 
Q 1166 2747 1095 2686 
Q 1025 2625 1025 2534 
Q 1025 2413 1128 2197 
L 1825 753 
L 2466 2334 
Q 2519 2463 2519 2588 
Q 2519 2644 2497 2672 
Q 2472 2706 2419 2726 
Q 2366 2747 2231 2747 
L 2231 2863 
L 3163 2863 
L 3163 2747 
Q 3047 2734 2984 2696 
Q 2922 2659 2847 2556 
Q 2819 2513 2741 2316 
L 1575 -541 
Q 1406 -956 1132 -1168 
Q 859 -1381 606 -1381 
Q 422 -1381 303 -1275 
Q 184 -1169 184 -1031 
Q 184 -900 270 -820 
Q 356 -741 506 -741 
Q 609 -741 788 -809 
Q 913 -856 944 -856 
Q 1038 -856 1148 -759 
Q 1259 -663 1372 -384 
L 1575 113 
L 547 2272 
Q 500 2369 397 2513 
Q 319 2622 269 2659 
Q 197 2709 38 2747 
L 38 2863 
z
" transform="scale(0.015625)"/>
       <path id="TimesNewRomanPSMT-66" d="M 1319 2638 
L 1319 756 
Q 1319 356 1406 250 
Q 1522 113 1716 113 
L 1975 113 
L 1975 0 
L 266 0 
L 266 113 
L 394 113 
Q 519 113 622 175 
Q 725 238 764 344 
Q 803 450 803 756 
L 803 2638 
L 247 2638 
L 247 2863 
L 803 2863 
L 803 3050 
Q 803 3478 940 3775 
Q 1078 4072 1361 4255 
Q 1644 4438 1997 4438 
Q 2325 4438 2600 4225 
Q 2781 4084 2781 3909 
Q 2781 3816 2700 3733 
Q 2619 3650 2525 3650 
Q 2453 3650 2373 3701 
Q 2294 3753 2178 3923 
Q 2063 4094 1966 4153 
Q 1869 4213 1750 4213 
Q 1606 4213 1506 4136 
Q 1406 4059 1362 3898 
Q 1319 3738 1319 3069 
L 1319 2863 
L 2056 2863 
L 2056 2638 
L 1319 2638 
z
" transform="scale(0.015625)"/>
       <path id="TimesNewRomanPSMT-68" d="M 1041 4444 
L 1041 2350 
Q 1388 2731 1591 2839 
Q 1794 2947 1997 2947 
Q 2241 2947 2416 2812 
Q 2591 2678 2675 2391 
Q 2734 2191 2734 1659 
L 2734 647 
Q 2734 375 2778 275 
Q 2809 200 2884 156 
Q 2959 113 3159 113 
L 3159 0 
L 1753 0 
L 1753 113 
L 1819 113 
Q 2019 113 2097 173 
Q 2175 234 2206 353 
Q 2216 403 2216 647 
L 2216 1659 
Q 2216 2128 2167 2275 
Q 2119 2422 2012 2495 
Q 1906 2569 1756 2569 
Q 1603 2569 1437 2487 
Q 1272 2406 1041 2159 
L 1041 647 
Q 1041 353 1073 281 
Q 1106 209 1195 161 
Q 1284 113 1503 113 
L 1503 0 
L 84 0 
L 84 113 
Q 275 113 384 172 
Q 447 203 484 290 
Q 522 378 522 647 
L 522 3238 
Q 522 3728 498 3840 
Q 475 3953 426 3993 
Q 378 4034 297 4034 
Q 231 4034 84 3984 
L 41 4094 
L 897 4444 
L 1041 4444 
z
" transform="scale(0.015625)"/>
       <path id="TimesNewRomanPSMT-2d" d="M 259 1672 
L 1875 1672 
L 1875 1200 
L 259 1200 
L 259 1672 
z
" transform="scale(0.015625)"/>
       <path id="DejaVuSans-Oblique-3c9" d="M 1369 -91 
Q 72 -91 434 1766 
Q 575 2500 1256 3500 
L 1875 3500 
Q 1231 2500 1088 1750 
Q 819 397 1519 397 
Q 2166 397 2478 2078 
L 3009 2078 
Q 2669 388 3316 397 
Q 4013 403 4275 1750 
Q 4419 2500 4169 3500 
L 4788 3500 
Q 5075 2500 4934 1766 
Q 4578 -94 3278 -91 
Q 2428 -88 2503 844 
Q 2194 -91 1369 -91 
z
" transform="scale(0.015625)"/>
       <path id="DejaVuSans-Oblique-6d" d="M 5747 2113 
L 5338 0 
L 4763 0 
L 5166 2094 
Q 5191 2228 5203 2325 
Q 5216 2422 5216 2491 
Q 5216 2772 5059 2928 
Q 4903 3084 4622 3084 
Q 4203 3084 3875 2770 
Q 3547 2456 3450 1953 
L 3066 0 
L 2491 0 
L 2900 2094 
Q 2925 2209 2937 2307 
Q 2950 2406 2950 2484 
Q 2950 2769 2794 2926 
Q 2638 3084 2363 3084 
Q 1938 3084 1609 2770 
Q 1281 2456 1184 1953 
L 800 0 
L 225 0 
L 909 3500 
L 1484 3500 
L 1375 2956 
Q 1609 3263 1923 3423 
Q 2238 3584 2597 3584 
Q 2978 3584 3223 3384 
Q 3469 3184 3519 2828 
Q 3781 3197 4126 3390 
Q 4472 3584 4856 3584 
Q 5306 3584 5551 3325 
Q 5797 3066 5797 2591 
Q 5797 2488 5784 2364 
Q 5772 2241 5747 2113 
z
" transform="scale(0.015625)"/>
       <path id="TimesNewRomanPSMT-64" d="M 2222 322 
Q 2013 103 1813 7 
Q 1613 -88 1381 -88 
Q 913 -88 563 304 
Q 213 697 213 1313 
Q 213 1928 600 2439 
Q 988 2950 1597 2950 
Q 1975 2950 2222 2709 
L 2222 3238 
Q 2222 3728 2198 3840 
Q 2175 3953 2125 3993 
Q 2075 4034 2000 4034 
Q 1919 4034 1784 3984 
L 1744 4094 
L 2597 4444 
L 2738 4444 
L 2738 1134 
Q 2738 631 2761 520 
Q 2784 409 2836 365 
Q 2888 322 2956 322 
Q 3041 322 3181 375 
L 3216 266 
L 2366 -88 
L 2222 -88 
L 2222 322 
z
M 2222 541 
L 2222 2016 
Q 2203 2228 2109 2403 
Q 2016 2578 1861 2667 
Q 1706 2756 1559 2756 
Q 1284 2756 1069 2509 
Q 784 2184 784 1559 
Q 784 928 1059 592 
Q 1334 256 1672 256 
Q 1956 256 2222 541 
z
" transform="scale(0.015625)"/>
       <path id="TimesNewRomanPSMT-2f" d="M 1794 4444 
L 259 -88 
L 9 -88 
L 1544 4444 
L 1794 4444 
z
" transform="scale(0.015625)"/>
      </defs>
      <use xlink:href="#TimesNewRomanPSMT-41" transform="translate(0 0.5625)"/>
      <use xlink:href="#TimesNewRomanPSMT-6e" transform="translate(72.216797 0.5625)"/>
      <use xlink:href="#TimesNewRomanPSMT-67" transform="translate(122.216797 0.5625)"/>
      <use xlink:href="#TimesNewRomanPSMT-75" transform="translate(172.216797 0.5625)"/>
      <use xlink:href="#TimesNewRomanPSMT-6c" transform="translate(222.216797 0.5625)"/>
      <use xlink:href="#TimesNewRomanPSMT-61" transform="translate(250 0.5625)"/>
      <use xlink:href="#TimesNewRomanPSMT-72" transform="translate(294.384766 0.5625)"/>
      <use xlink:href="#TimesNewRomanPSMT-20" transform="translate(327.685547 0.5625)"/>
      <use xlink:href="#TimesNewRomanPSMT-76" transform="translate(352.685547 0.5625)"/>
      <use xlink:href="#TimesNewRomanPSMT-65" transform="translate(402.685547 0.5625)"/>
      <use xlink:href="#TimesNewRomanPSMT-6c" transform="translate(447.070312 0.5625)"/>
      <use xlink:href="#TimesNewRomanPSMT-6f" transform="translate(474.853516 0.5625)"/>
      <use xlink:href="#TimesNewRomanPSMT-63" transform="translate(524.853516 0.5625)"/>
      <use xlink:href="#TimesNewRomanPSMT-69" transform="translate(569.238281 0.5625)"/>
      <use xlink:href="#TimesNewRomanPSMT-74" transform="translate(597.021484 0.5625)"/>
      <use xlink:href="#TimesNewRomanPSMT-79" transform="translate(624.804688 0.5625)"/>
      <use xlink:href="#TimesNewRomanPSMT-20" transform="translate(674.804688 0.5625)"/>
      <use xlink:href="#TimesNewRomanPSMT-6f" transform="translate(699.804688 0.5625)"/>
      <use xlink:href="#TimesNewRomanPSMT-66" transform="translate(749.804688 0.5625)"/>
      <use xlink:href="#TimesNewRomanPSMT-20" transform="translate(783.105469 0.5625)"/>
      <use xlink:href="#TimesNewRomanPSMT-74" transform="translate(808.105469 0.5625)"/>
      <use xlink:href="#TimesNewRomanPSMT-68" transform="translate(835.888672 0.5625)"/>
      <use xlink:href="#TimesNewRomanPSMT-65" transform="translate(885.888672 0.5625)"/>
      <use xlink:href="#TimesNewRomanPSMT-20" transform="translate(930.273438 0.5625)"/>
      <use xlink:href="#TimesNewRomanPSMT-6d" transform="translate(955.273438 0.5625)"/>
      <use xlink:href="#TimesNewRomanPSMT-6f" transform="translate(1033.056641 0.5625)"/>
      <use xlink:href="#TimesNewRomanPSMT-74" transform="translate(1083.056641 0.5625)"/>
      <use xlink:href="#TimesNewRomanPSMT-6f" transform="translate(1110.839844 0.5625)"/>
      <use xlink:href="#TimesNewRomanPSMT-72" transform="translate(1160.839844 0.5625)"/>
      <use xlink:href="#TimesNewRomanPSMT-20" transform="translate(1194.140625 0.5625)"/>
      <use xlink:href="#TimesNewRomanPSMT-2d" transform="translate(1219.140625 0.5625)"/>
      <use xlink:href="#TimesNewRomanPSMT-20" transform="translate(1252.441406 0.5625)"/>
      <use xlink:href="#DejaVuSans-Oblique-3c9" transform="translate(1277.441406 0.5625)"/>
      <use xlink:href="#DejaVuSans-Oblique-6d" transform="translate(1361.181641 -15.84375) scale(0.7)"/>
      <use xlink:href="#TimesNewRomanPSMT-20" transform="translate(1432.104492 0.5625)"/>
      <use xlink:href="#TimesNewRomanPSMT-28" transform="translate(1457.104492 0.5625)"/>
      <use xlink:href="#TimesNewRomanPSMT-72" transform="translate(1490.405273 0.5625)"/>
      <use xlink:href="#TimesNewRomanPSMT-61" transform="translate(1523.706055 0.5625)"/>
      <use xlink:href="#TimesNewRomanPSMT-64" transform="translate(1568.09082 0.5625)"/>
      <use xlink:href="#TimesNewRomanPSMT-2f" transform="translate(1618.09082 0.5625)"/>
      <use xlink:href="#TimesNewRomanPSMT-73" transform="translate(1645.874023 0.5625)"/>
      <use xlink:href="#TimesNewRomanPSMT-29" transform="translate(1684.790039 0.5625)"/>
     </g>
    </g>
   </g>
   <g id="line2d_29">
    <path d="M 69.218182 142.680544 
L 69.294273 142.402564 
L 69.339927 142.482709 
L 69.446455 142.061224 
L 70.435636 122.860573 
L 70.785655 112.595586 
L 71.272636 98.402679 
L 71.516127 91.813184 
L 72.018327 84.662554 
L 72.033545 84.583202 
L 72.170509 82.667662 
L 72.185727 82.590899 
L 72.322691 80.677582 
L 72.337909 80.636904 
L 72.474873 78.445614 
L 72.490091 78.37766 
L 72.5814 77.021602 
L 72.611836 77.049122 
L 72.642273 77.0927 
L 72.733582 76.010616 
L 72.764018 76.119924 
L 72.809673 76.014819 
L 72.870545 76.410562 
L 72.961855 75.058058 
L 72.992291 75.15101 
L 73.037945 74.984365 
L 73.342309 76.775673 
L 74.681509 98.873293 
L 75.564164 123.019368 
L 76.477255 149.570798 
L 77.238164 173.487305 
L 77.816455 190.067432 
L 77.922982 192.04816 
L 80.083964 230.085139 
L 80.099182 230.115667 
L 80.190491 230.738045 
L 80.220927 230.620832 
L 80.266582 230.813506 
L 80.327455 230.199994 
L 80.418764 231.193415 
L 80.4492 230.879755 
L 80.479636 230.574884 
L 80.570945 231.898677 
L 80.601382 231.664049 
L 80.631818 231.43604 
L 80.723127 232.878099 
L 80.753564 232.668355 
L 80.784 232.464235 
L 80.799218 233.522991 
L 80.890527 233.223294 
L 80.936182 232.638131 
L 80.9514 233.50138 
L 81.012273 232.702222 
L 81.103582 234.407946 
L 81.134018 234.023976 
L 81.179673 234.414921 
L 81.240545 233.540351 
L 81.255764 234.324515 
L 81.316636 233.439618 
L 81.347073 233.895052 
L 81.392727 233.200622 
L 81.407945 234.318539 
L 81.468818 233.416985 
L 81.560127 234.395827 
L 81.575345 234.188275 
L 81.621 233.579276 
L 81.636218 234.726586 
L 81.697091 233.890606 
L 81.7884 235.211536 
L 81.818836 234.790803 
L 81.849273 234.377712 
L 81.864491 235.37 
L 81.925364 234.418695 
L 82.016673 235.442116 
L 82.001455 234.09451 
L 82.047109 235.031393 
L 82.092764 235.075748 
L 82.229727 233.604823 
L 82.321036 234.626433 
L 82.305818 233.554604 
L 82.336255 234.38067 
L 82.686273 229.959708 
L 82.701491 230.506974 
L 82.762364 228.962989 
L 82.777582 229.668832 
L 83.066727 225.336516 
L 83.081945 225.599466 
L 83.1276 224.591342 
L 83.812418 207.195955 
L 85.653818 139.582288 
L 85.836436 129.979839 
L 86.186455 117.041976 
L 86.369073 109.716855 
L 86.643 100.632062 
L 86.825618 94.760174 
L 87.023455 89.628416 
L 87.206073 83.678705 
L 87.556091 77.045801 
L 87.693055 74.500943 
L 87.784364 73.973928 
L 87.921327 71.659314 
L 88.012636 71.31867 
L 88.134382 69.327333 
L 88.164818 69.327129 
L 88.362655 66.790611 
L 88.393091 66.670912 
L 88.530055 65.452412 
L 88.545273 65.442365 
L 88.727891 61.959998 
L 89.230091 56.85465 
L 89.290964 56.991062 
L 89.351836 57.090032 
L 89.382273 57.177955 
L 89.504018 56.465554 
L 89.549673 56.410309 
L 89.610545 56.464369 
L 89.686636 56.484625 
L 89.8236 56.128761 
L 89.838818 56.108438 
L 89.914909 56.514157 
L 89.930127 55.823612 
L 90.006218 55.729416 
L 90.051873 55.831477 
L 90.143182 56.049304 
L 90.219273 55.969316 
L 90.234491 55.567832 
L 90.341018 55.643703 
L 90.371455 55.688663 
L 90.462764 55.155124 
L 90.4932 55.195535 
L 90.523636 55.240537 
L 90.645382 54.523076 
L 90.736691 54.57097 
L 90.828 54.715401 
L 90.843218 54.475989 
L 90.919309 54.781996 
L 91.132364 55.902302 
L 91.406291 58.158615 
L 91.512818 59.877144 
L 91.741091 64.417084 
L 92.730273 88.65567 
L 93.278127 110.558418 
L 94.054255 141.95907 
L 95.697818 199.344422 
L 95.728255 199.757686 
L 96.458727 213.739997 
L 96.504382 214.250955 
L 97.295727 224.492366 
L 97.310945 224.452082 
L 97.402255 225.413014 
L 97.919673 228.411247 
L 97.950109 228.401772 
L 97.980545 228.391381 
L 98.102291 228.988848 
L 98.132727 229.036349 
L 98.208818 229.558339 
L 98.239255 229.3595 
L 98.330564 228.793235 
L 98.376218 228.808499 
L 98.437091 228.48149 
L 98.452309 229.113475 
L 98.543618 228.56224 
L 98.589273 228.286538 
L 98.604491 228.853007 
L 98.665364 228.455633 
L 98.787109 229.543059 
L 98.817545 229.557964 
L 98.893636 229.853319 
L 98.924073 229.706331 
L 99.167564 228.487695 
L 99.380618 225.432958 
L 99.791509 217.466974 
L 100.415455 198.856788 
L 100.932873 176.464873 
L 102.454691 112.585374 
L 103.474309 78.338678 
L 104.3874 60.231507 
L 104.980909 51.112039 
L 104.996127 51.32355 
L 105.376582 48.643141 
L 105.741818 44.713891 
L 105.894 44.977348 
L 106.091836 46.978601 
L 106.791873 55.386484 
L 107.141891 63.266491 
L 107.918018 91.215653 
L 110.292055 193.352264 
L 111.220364 217.190188 
L 111.266018 217.940244 
L 112.133455 234.216925 
L 112.148673 234.082871 
L 112.179109 234.521875 
L 112.59 238.871353 
L 112.605218 238.652263 
L 112.666091 239.297542 
L 112.696527 239.478627 
L 112.970455 241.393968 
L 112.985673 241.268292 
L 113.031327 241.606904 
L 113.122636 242.116364 
L 113.168291 241.792167 
L 113.198727 241.901895 
L 113.335691 240.822626 
L 113.350909 240.794271 
L 113.548745 239.083399 
L 113.807455 237.606245 
L 113.883545 237.806956 
L 113.898764 238.087381 
L 113.959636 237.833592 
L 114.111818 236.227317 
L 114.674891 221.921353 
L 116.820655 137.558914 
L 117.9468 91.72741 
L 119.072945 63.904387 
L 119.392527 59.057398 
L 120.077345 52.33466 
L 120.366491 50.656904 
L 120.427364 50.478509 
L 120.594764 48.475739 
L 120.883909 46.545732 
L 120.944782 46.693505 
L 120.96 46.67679 
L 121.096964 47.195309 
L 121.188273 47.564905 
L 121.933964 56.468015 
L 122.512255 69.591435 
L 123.349255 97.521018 
L 125.601545 191.024653 
L 125.692855 193.095872 
L 127.199455 230.170737 
L 127.214673 230.03035 
L 127.245109 230.616393 
L 127.503818 233.839654 
L 127.595127 233.489821 
L 127.579909 234.105884 
L 127.610345 233.592706 
L 128.188636 236.898085 
L 128.203855 236.561005 
L 128.279945 236.967183 
L 128.416909 237.175127 
L 128.432127 236.863294 
L 128.508218 237.376927 
L 128.645182 238.006631 
L 128.782145 238.913461 
L 128.797364 238.969823 
L 128.812582 238.628633 
L 128.843018 238.717648 
L 128.873455 238.783026 
L 128.888673 238.588992 
L 128.919109 238.619471 
L 128.949545 238.625928 
L 129.025636 238.068904 
L 129.071291 238.07256 
L 129.101727 238.006558 
L 129.299564 235.430822 
L 129.573491 231.299003 
L 129.8322 224.977823 
L 130.3344 209.193512 
L 131.704036 152.511834 
L 132.754091 110.451505 
L 133.043236 98.86114 
L 133.606309 80.883679 
L 134.032418 72.342663 
L 135.386836 50.256721 
L 135.645545 48.972174 
L 135.432491 50.339095 
L 135.706418 49.009276 
L 135.797727 48.559429 
L 135.934691 47.521581 
L 136.178182 46.332645 
L 136.1934 46.550344 
L 136.254273 46.561536 
L 136.436891 47.256599 
L 136.710818 49.213599 
L 136.893436 51.600463 
L 137.7 66.067777 
L 137.989145 75.254492 
L 138.765273 105.389514 
L 140.271873 172.503495 
L 141.580636 213.77912 
L 141.595855 213.651222 
L 142.082836 224.035691 
L 142.508945 231.334556 
L 142.722 233.48512 
L 142.737218 233.140762 
L 142.798091 233.573071 
L 142.828527 233.445016 
L 143.041582 234.958732 
L 143.254636 236.311062 
L 143.452473 237.062198 
L 143.863364 239.322542 
L 143.939455 238.861593 
L 143.969891 239.137101 
L 144.015545 239.187098 
L 144.0612 239.098243 
L 144.274255 238.791549 
L 144.380782 237.857734 
L 144.548182 235.23184 
L 144.989509 225.357122 
L 145.887382 197.515234 
L 146.693945 162.817434 
L 147.683127 119.236974 
L 148.337509 96.540409 
L 149.113636 72.181857 
L 149.159291 71.325128 
L 149.463655 66.421638 
L 150.939818 48.088024 
L 150.955036 48.173774 
L 151.015909 47.907714 
L 151.031127 47.920664 
L 151.046345 47.85148 
L 151.168091 47.088605 
L 151.228964 47.462246 
L 151.320273 47.628308 
L 151.335491 47.418959 
L 151.411582 47.737627 
L 151.563764 48.217308 
L 151.913782 50.531717 
L 152.446418 55.709383 
L 152.720345 62.012439 
L 153.192109 75.531865 
L 153.968236 106.695767 
L 156.357491 202.318156 
L 156.874909 213.752726 
L 156.981436 215.243779 
L 157.331455 221.520157 
L 157.757564 229.023968 
L 158.244545 234.211262 
L 158.366291 233.780135 
L 158.396727 233.797941 
L 158.472818 234.556534 
L 158.518473 234.371034 
L 158.548909 234.366585 
L 158.685873 235.810325 
L 158.777182 236.291423 
L 158.853273 237.187805 
L 158.914145 237.08834 
L 159.005455 237.403132 
L 159.020673 237.122322 
L 159.081545 237.051783 
L 159.233727 235.904222 
L 159.325036 236.580173 
L 159.370691 236.53486 
L 159.385909 236.510596 
L 159.401127 236.767486 
L 159.477218 236.419464 
L 159.614182 234.973677 
L 160.009855 228.647854 
L 160.725109 212.837624 
L 161.272964 191.552911 
L 163.753527 91.085338 
L 164.484 70.852697 
L 164.514436 70.640489 
L 164.940545 64.086504 
L 165.321 56.314853 
L 165.336218 56.482144 
L 165.381873 55.936827 
L 166.081909 48.777209 
L 166.097127 48.791863 
L 166.158 48.762782 
L 166.249309 48.424626 
L 166.279745 48.438469 
L 166.371055 48.378907 
L 166.462364 48.305688 
L 166.4928 48.363192 
L 166.538455 48.476229 
L 166.553673 48.212621 
L 166.644982 48.444417 
L 166.842818 49.423608 
L 166.858036 49.001629 
L 166.949345 49.14413 
L 167.131964 50.133139 
L 167.573291 54.593182 
L 168.060273 64.424037 
L 168.638564 84.319047 
L 169.399473 114.844924 
L 171.240873 192.178488 
L 172.093091 214.886452 
L 172.123527 215.219637 
L 173.112709 231.430055 
L 173.660564 237.246297 
L 173.843182 238.289894 
L 173.934491 237.81604 
L 173.919273 238.308614 
L 173.980145 237.834544 
L 173.995364 237.83529 
L 174.147545 236.209698 
L 174.254073 236.584981 
L 174.284509 236.57298 
L 174.299727 236.561325 
L 174.421473 236.228664 
L 174.497564 236.085356 
L 174.984545 233.837413 
L 175.304127 227.849271 
L 176.019382 209.784298 
L 176.643327 185.563901 
L 178.713 97.043378 
L 178.971709 88.68318 
L 179.473909 76.06001 
L 180.082636 63.277099 
L 180.097855 63.444477 
L 180.128291 62.951977 
L 180.995727 50.742956 
L 181.071818 49.984603 
L 181.300091 47.142387 
L 181.315309 47.280952 
L 181.360964 46.870062 
L 181.680545 44.443636 
L 181.802291 45.261473 
L 181.832727 45.311019 
L 181.969691 46.208016 
L 182.061 47.057707 
L 183.019745 59.402455 
L 183.598036 74.538579 
L 184.4046 107.864595 
L 185.850327 169.211551 
L 186.504709 192.835653 
L 187.691727 222.855276 
L 187.722164 223.181946 
L 188.285236 231.203974 
L 188.315673 231.164186 
L 188.665691 234.003676 
L 189.0918 238.633722 
L 189.137455 239.203425 
L 189.213545 239.099833 
L 189.228764 238.876917 
L 189.320073 238.967565 
L 189.365727 239.057342 
L 189.380945 238.880849 
L 189.4266 238.9341 
L 189.533127 238.898869 
L 189.822273 237.702088 
L 189.959236 236.547115 
L 190.126636 235.805117 
L 190.141855 235.920899 
L 190.202727 235.70157 
L 190.461436 231.644467 
L 190.628836 227.522968 
L 191.161473 211.172078 
L 192.241964 168.968219 
L 194.479036 80.567283 
L 194.966018 70.565411 
L 195.985636 54.676023 
L 196.213909 50.416612 
L 196.259564 50.627543 
L 196.472618 49.695624 
L 196.518273 49.611462 
L 196.533491 49.790831 
L 196.594364 49.823808 
L 196.731327 48.883635 
L 196.898727 48.583445 
L 197.035691 46.978693 
L 197.127 46.565906 
L 197.187873 46.71462 
L 197.203091 46.705839 
L 197.218309 46.809278 
L 197.279182 46.880443 
L 197.446582 50.191635 
L 198.542291 66.388979 
L 199.181455 86.445253 
L 200.201073 131.715031 
L 201.6468 192.710545 
L 202.118564 205.781752 
L 202.757727 219.247397 
L 203.594727 230.248128 
L 203.792564 233.469154 
L 204.051273 235.952931 
L 204.066491 235.709662 
L 204.127364 235.983421 
L 204.1578 235.975362 
L 204.279545 236.228369 
L 204.355636 236.005633 
L 204.386073 236.182668 
L 204.431727 236.162327 
L 204.507818 235.806825 
L 204.538255 235.972559 
L 204.583909 236.008707 
L 204.720873 237.19488 
L 204.736091 237.240915 
L 204.812182 238.252973 
L 204.857836 237.858901 
L 205.116545 238.487243 
L 205.131764 238.286131 
L 205.223073 237.888848 
L 205.314382 236.561966 
L 205.740491 229.219876 
L 206.029636 222.606144 
L 206.318782 213.353487 
L 207.034036 187.193387 
L 209.438509 86.873676 
L 210.153764 70.205137 
L 211.173382 53.43221 
L 211.553836 49.91469 
L 212.116909 46.703456 
L 212.193 46.883973 
L 212.329964 47.860644 
L 212.969127 50.740918 
L 213.380018 55.595548 
L 213.593073 61.47522 
L 214.277891 84.938628 
L 215.480127 135.024532 
L 216.301909 169.916294 
L 217.001945 194.297711 
L 218.478109 227.567554 
L 219.512945 238.621678 
L 219.573818 238.866168 
L 219.634691 238.703137 
L 219.649909 238.718455 
L 219.771655 238.401187 
L 219.847745 238.009186 
L 220.410818 235.734342 
L 220.426036 236.122466 
L 220.502127 235.613253 
L 220.791273 233.363462 
L 221.963073 198.007008 
L 222.967473 156.235854 
L 224.687127 88.948858 
L 225.843709 61.31371 
L 227.0916 48.843778 
L 227.106818 48.825232 
L 227.122036 48.947913 
L 227.182909 48.897849 
L 227.259 49.004822 
L 227.395964 47.645404 
L 227.639455 46.759341 
L 227.715545 46.882555 
L 227.852509 48.178198 
L 228.187309 51.159051 
L 228.719945 61.522786 
L 229.496073 83.514384 
L 232.235345 193.665222 
L 233.026691 215.693905 
L 233.391927 221.63042 
L 233.741945 226.852372 
L 234.244145 231.949344 
L 234.9594 235.334591 
L 235.065927 234.97489 
L 235.096364 234.816672 
L 235.111582 235.235252 
L 235.172455 234.922998 
L 235.263764 235.180572 
L 235.248545 234.772591 
L 235.2942 235.050452 
L 235.476818 234.712145 
L 235.492036 234.981207 
L 235.583345 234.719519 
L 235.826836 232.613416 
L 236.237727 226.667094 
L 236.496436 221.448084 
L 236.876891 211.251093 
L 237.622582 182.822145 
L 238.124782 158.526052 
L 238.900909 124.394253 
L 239.9814 85.091641 
L 240.574909 72.391992 
L 241.624964 53.614125 
L 241.868455 51.404156 
L 241.883673 51.678307 
L 241.974982 51.435199 
L 242.248909 50.859598 
L 242.370655 49.244406 
L 242.705455 48.058078 
L 242.781545 47.296932 
L 242.8272 47.428509 
L 242.857636 47.402 
L 243.025036 48.962311 
L 244.014218 60.227977 
L 244.303364 69.141641 
L 246.357818 152.936359 
L 246.6774 167.642541 
L 247.544836 199.10798 
L 248.244873 215.885272 
L 249.081873 226.391041 
L 249.173182 227.203732 
L 249.340582 228.822399 
L 249.401455 229.055257 
L 249.553636 231.433227 
L 249.568855 231.24805 
L 249.705818 231.969446 
L 249.842782 233.253033 
L 249.858 233.273665 
L 250.010182 234.612009 
L 250.086273 234.754665 
L 250.223236 236.401703 
L 250.238455 236.4262 
L 250.314545 237.077931 
L 250.3602 237.00438 
L 250.390636 236.954797 
L 250.405855 237.181903 
L 250.497164 236.984432 
L 250.801527 234.538356 
L 251.745055 220.569161 
L 252.292909 206.202058 
L 252.7038 190.148625 
L 253.221218 167.280891 
L 254.834345 99.82841 
L 255.930055 69.024084 
L 256.554 58.345538 
L 256.614873 57.758933 
L 256.934455 52.90042 
L 257.086636 50.237582 
L 257.101855 50.46947 
L 257.391 47.933178 
L 257.406218 48.438206 
L 257.497527 48.228184 
L 257.543182 48.275491 
L 257.5584 48.09996 
L 257.649709 48.24054 
L 257.695364 48.366227 
L 257.710582 48.027751 
L 257.801891 48.385243 
L 257.954073 48.52309 
L 257.999727 48.559285 
L 258.182345 49.627641 
L 258.380182 50.503862 
L 258.410618 50.476832 
L 258.638891 52.237781 
L 259.338927 64.893633 
L 259.856345 79.62449 
L 261.225982 138.369703 
L 262.869545 203.356563 
L 262.930418 204.68749 
L 263.630455 220.213778 
L 263.645673 220.148422 
L 263.660891 220.421161 
L 264.543545 234.4285 
L 264.558764 234.285477 
L 264.5892 234.767195 
L 264.847909 238.14152 
L 264.908782 237.98491 
L 265.000091 238.842346 
L 265.076182 238.741552 
L 265.0914 238.334845 
L 265.182709 238.628104 
L 265.243582 238.582306 
L 265.365327 238.942194 
L 265.380545 238.966413 
L 265.517509 238.469417 
L 265.608818 238.314592 
L 265.654473 238.455609 
L 265.730564 238.391676 
L 265.989273 236.382302 
L 266.187109 234.205964 
L 266.826273 223.998415 
L 267.252382 212.422504 
L 267.693709 195.39087 
L 270.600382 79.471054 
L 271.011273 71.140013 
L 271.041709 70.753568 
L 271.756964 57.692698 
L 272.396127 50.473701 
L 272.609182 49.08714 
L 272.685273 48.176812 
L 272.746145 48.199927 
L 273.065727 46.833579 
L 273.096164 47.198982 
L 273.141818 47.266491 
L 273.217909 47.504866 
L 273.233127 47.177867 
L 273.294 47.162227 
L 273.446182 48.198339 
L 273.4614 48.177204 
L 273.476618 48.271358 
L 274.009255 52.375416 
L 274.207091 55.696188 
L 274.4658 62.073886 
L 275.059309 80.659809 
L 276.200673 127.330803 
L 277.8138 193.571927 
L 278.574709 213.208621 
L 279.594327 231.4269 
L 279.685636 232.134172 
L 279.746509 231.941346 
L 280.066091 233.630952 
L 280.218273 235.489017 
L 280.294364 236.137847 
L 280.340018 235.83082 
L 280.370455 235.849291 
L 280.446545 236.4346 
L 280.4922 236.340967 
L 280.522636 236.307977 
L 280.553073 236.695495 
L 280.629164 236.395121 
L 280.674818 236.280482 
L 280.811782 236.842654 
L 280.903091 237.020673 
L 280.979182 236.590582 
L 281.024836 236.617367 
L 281.131364 236.361274 
L 281.283545 234.516145 
L 281.877055 226.949625 
L 282.287945 217.230726 
L 283.140164 186.751853 
L 285.879436 78.067511 
L 286.3512 68.419273 
L 287.066455 57.578927 
L 287.157764 56.616409 
L 287.446909 53.445561 
L 287.599091 51.180505 
L 287.614309 51.386467 
L 287.675182 50.987609 
L 287.6904 51.090535 
L 288.283909 47.51977 
L 288.36 47.964075 
L 288.405655 47.888075 
L 288.679582 49.267556 
L 288.816545 50.368146 
L 288.892636 50.235638 
L 288.907855 50.027521 
L 288.968727 50.342247 
L 288.983945 50.266942 
L 289.257873 52.115322 
L 289.3644 54.343304 
L 289.775291 63.639139 
L 290.292709 78.273111 
L 290.673164 94.392523 
L 292.605873 178.627157 
L 293.640709 209.906126 
L 294.5538 228.138669 
L 295.512545 237.70615 
L 295.527764 237.667045 
L 295.542982 237.815457 
L 295.740818 238.876002 
L 295.816909 238.915867 
L 295.938655 238.243806 
L 296.045182 237.274096 
L 296.197364 236.486242 
L 296.349545 236.156484 
L 296.364764 236.424651 
L 296.456073 236.282494 
L 296.516945 236.383178 
L 296.577818 236.197308 
L 296.73 234.383731 
L 296.745218 234.647356 
L 296.806091 233.958855 
L 296.821309 234.071075 
L 297.049582 229.593391 
L 297.719182 211.734841 
L 299.362745 142.434423 
L 300.549764 93.513685 
L 301.051964 79.80188 
L 302.0868 57.517215 
L 302.4216 53.545938 
L 302.512909 52.539398 
L 302.589 52.759077 
L 302.604218 52.931737 
L 302.665091 52.718522 
L 302.802055 51.657161 
L 303.015109 51.044177 
L 303.121636 50.549371 
L 303.502091 47.243301 
L 303.517309 47.45995 
L 303.5934 47.183104 
L 303.806455 46.817297 
L 303.867327 46.453578 
L 303.897764 46.89211 
L 304.004291 47.644435 
L 304.171691 49.632364 
L 304.476055 54.702237 
L 305.191309 71.053312 
L 306.423982 118.9436 
L 307.580564 169.726657 
L 308.234945 192.95745 
L 309.071945 215.898626 
L 309.665455 227.827821 
L 309.680673 227.795358 
L 309.695891 227.99955 
L 310.045909 231.909265 
L 310.091564 231.87242 
L 310.700291 234.622141 
L 310.730727 234.669264 
L 310.882909 236.240408 
L 310.898127 236.169545 
L 310.959 236.393916 
L 311.1264 238.147357 
L 311.2938 238.757612 
L 311.324236 238.745275 
L 311.339455 238.732781 
L 311.506855 237.145167 
L 312.161236 229.934145 
L 312.815618 215.998758 
L 313.241727 200.571426 
L 313.743927 178.320449 
L 316.041873 85.90343 
L 316.741909 68.445051 
L 316.757127 68.714556 
L 316.802782 67.97476 
L 317.807182 53.737 
L 318.689836 47.649148 
L 318.811582 46.529484 
L 318.948545 45.649847 
L 318.978982 45.956893 
L 319.100727 45.608234 
L 319.252909 46.913563 
L 319.405091 48.356612 
L 319.542055 50.062286 
L 319.709455 52.594247 
L 319.937727 58.044467 
L 320.652982 77.975806 
L 321.307364 102.452534 
L 321.550855 113.721843 
L 323.285727 184.713878 
L 323.605309 194.249502 
L 324.640145 220.831312 
L 325.203218 226.490457 
L 325.796727 233.355505 
L 325.827164 233.338139 
L 325.888036 233.499033 
L 325.948909 233.432334 
L 326.040218 234.226123 
L 326.085873 234.178313 
L 326.101091 234.160767 
L 326.253273 235.419773 
L 326.344582 235.71464 
L 326.390236 235.550099 
L 326.420673 235.708224 
L 326.481545 235.455143 
L 326.496764 235.753737 
L 326.557636 235.299701 
L 326.588073 235.404515 
L 327.242455 230.401661 
L 327.257673 230.857598 
L 327.348982 230.376955 
L 327.470727 228.685399 
L 327.759873 222.254598 
L 328.246855 208.853201 
L 329.296909 169.54744 
L 329.844764 141.962805 
L 331.077436 92.446657 
L 331.747036 75.058511 
L 332.370982 63.80635 
L 332.675345 60.532786 
L 332.903618 57.123495 
L 333.710182 47.627105 
L 333.862364 48.650103 
L 333.999327 47.918229 
L 334.090636 47.779175 
L 334.242818 46.272373 
L 334.501527 49.096663 
L 335.521145 66.296653 
L 335.886382 76.788834 
L 336.4038 98.525074 
L 337.666909 154.535378 
L 337.682127 154.401699 
L 339.340909 209.692391 
L 340.056164 221.609178 
L 340.330091 224.736725 
L 340.467055 226.481992 
L 340.710545 228.70014 
L 340.771418 228.4214 
L 340.786636 228.38674 
L 340.877945 229.574233 
L 340.908382 229.528349 
L 340.938818 229.484981 
L 341.030127 230.451038 
L 341.075782 230.343914 
L 341.091 230.309309 
L 341.227964 231.398743 
L 341.243182 231.402563 
L 341.380145 233.181451 
L 341.395364 233.208993 
L 341.562764 234.962427 
L 341.791036 236.374491 
L 341.928 236.189553 
L 342.156273 234.796666 
L 342.171491 235.16121 
L 342.247582 234.679367 
L 342.536727 230.739961 
L 342.704127 227.870278 
L 343.236764 216.006903 
L 343.830273 196.466202 
L 344.286818 177.410382 
L 344.652055 160.898053 
L 346.599982 84.008563 
L 347.254364 69.20989 
L 347.2848 68.93422 
L 348.624 50.405028 
L 348.639218 50.445465 
L 348.669655 50.294615 
L 348.730527 49.490645 
L 349.004455 47.891344 
L 349.019673 48.056517 
L 349.080545 47.879928 
L 349.110982 47.893516 
L 349.232727 47.856164 
L 349.263164 47.727716 
L 349.308818 47.752442 
L 349.445782 48.444393 
L 349.461 48.484321 
L 349.521873 48.373741 
L 349.537091 48.370689 
L 349.643618 48.168841 
L 349.658836 48.175199 
L 349.689273 48.20466 
L 349.932764 51.036566 
L 350.450182 57.726668 
L 352.002436 114.316398 
L 354.026455 199.003253 
L 354.056891 199.525508 
L 354.559091 211.538921 
L 354.574309 211.408265 
L 354.589527 211.776592 
L 355.091727 221.52375 
L 355.106945 221.435606 
L 355.137382 221.816769 
L 355.746109 230.624113 
L 356.035255 234.397813 
L 356.385273 237.361125 
L 356.400491 237.051215 
L 356.4918 237.410655 
L 356.689636 238.697845 
L 356.765727 238.417702 
L 356.857036 237.787956 
L 356.887473 237.790422 
L 356.994 237.812045 
L 357.130964 236.933172 
L 357.146182 236.876421 
L 357.1614 237.285682 
L 357.267927 237.275491 
L 357.298364 237.256064 
L 357.3288 237.457779 
L 357.404891 237.243147 
L 357.526636 236.674601 
L 357.678818 235.060224 
L 357.983182 230.126136 
L 359.124545 191.327464 
L 359.1702 190.193838 
L 359.535436 174.154197 
L 361.407273 94.271986 
L 362.6856 63.61557 
L 363.3552 54.546931 
L 363.598691 51.891516 
L 364.146545 47.379329 
L 364.298727 46.894128 
L 364.435691 47.892644 
L 364.450909 47.951443 
L 364.466127 47.571372 
L 364.603091 48.004822 
L 364.740055 48.835107 
L 364.877018 49.433365 
L 364.922673 49.372505 
L 364.983545 49.714206 
L 364.998764 49.307475 
L 365.074855 50.042148 
L 365.227036 52.669941 
L 366.0336 68.388814 
L 366.459709 82.259588 
L 367.022782 106.494993 
L 369.183764 195.407372 
L 369.670745 207.766718 
L 370.355564 220.470024 
L 370.538182 222.904265 
L 371.0556 230.229988 
L 371.481709 233.260019 
L 371.527364 233.270601 
L 371.618673 233.437054 
L 371.633891 233.37979 
L 371.679545 233.208221 
L 371.770855 234.14144 
L 371.816509 234.078326 
L 371.831727 234.055464 
L 371.846945 234.35153 
L 371.938255 234.105466 
L 371.983909 234.001855 
L 372.120873 234.89611 
L 372.136091 234.908961 
L 372.212182 235.619386 
L 372.257836 235.469422 
L 372.288273 235.457304 
L 372.303491 236.080495 
L 372.3948 235.757711 
L 372.501327 234.990095 
L 373.216582 228.236148 
L 373.520945 220.934638 
L 373.581818 219.461641 
L 373.581818 219.461641 
" clip-path="url(#pd36e3682f8)" style="fill: none; stroke: #000000; stroke-width: 0.5; stroke-linecap: square"/>
   </g>
   <g id="patch_3">
    <path d="M 54 252 
L 54 34.56 
" style="fill: none; stroke: #000000; stroke-width: 0.8; stroke-linejoin: miter; stroke-linecap: square"/>
   </g>
   <g id="patch_4">
    <path d="M 388.8 252 
L 388.8 34.56 
" style="fill: none; stroke: #000000; stroke-width: 0.8; stroke-linejoin: miter; stroke-linecap: square"/>
   </g>
   <g id="patch_5">
    <path d="M 54 252 
L 388.8 252 
" style="fill: none; stroke: #000000; stroke-width: 0.8; stroke-linejoin: miter; stroke-linecap: square"/>
   </g>
   <g id="patch_6">
    <path d="M 54 34.56 
L 388.8 34.56 
" style="fill: none; stroke: #000000; stroke-width: 0.8; stroke-linejoin: miter; stroke-linecap: square"/>
   </g>
   <g id="text_17">
    <!-- $\omega_{m}$ (rad/s) - (MJUKF) -->
    <g transform="translate(170.855 28.56) scale(0.11 -0.11)">
     <defs>
      <path id="TimesNewRomanPSMT-4d" d="M 2619 0 
L 981 3566 
L 981 734 
Q 981 344 1066 247 
Q 1181 116 1431 116 
L 1581 116 
L 1581 0 
L 106 0 
L 106 116 
L 256 116 
Q 525 116 638 278 
Q 706 378 706 734 
L 706 3503 
Q 706 3784 644 3909 
Q 600 4000 483 4061 
Q 366 4122 106 4122 
L 106 4238 
L 1306 4238 
L 2844 922 
L 4356 4238 
L 5556 4238 
L 5556 4122 
L 5409 4122 
Q 5138 4122 5025 3959 
Q 4956 3859 4956 3503 
L 4956 734 
Q 4956 344 5044 247 
Q 5159 116 5409 116 
L 5556 116 
L 5556 0 
L 3756 0 
L 3756 116 
L 3906 116 
Q 4178 116 4288 278 
Q 4356 378 4356 734 
L 4356 3566 
L 2722 0 
L 2619 0 
z
" transform="scale(0.015625)"/>
      <path id="TimesNewRomanPSMT-4a" d="M 638 4122 
L 638 4238 
L 2453 4238 
L 2453 4122 
L 2300 4122 
Q 2041 4122 1922 3969 
Q 1847 3869 1847 3488 
L 1847 1416 
Q 1847 938 1742 641 
Q 1638 344 1381 123 
Q 1125 -97 763 -97 
Q 469 -97 300 48 
Q 131 194 131 381 
Q 131 534 209 613 
Q 313 709 450 709 
Q 550 709 629 643 
Q 709 578 831 294 
Q 903 125 1016 125 
Q 1100 125 1173 228 
Q 1247 331 1247 594 
L 1247 3488 
Q 1247 3809 1206 3913 
Q 1175 3991 1075 4047 
Q 941 4122 791 4122 
L 638 4122 
z
" transform="scale(0.015625)"/>
      <path id="TimesNewRomanPSMT-55" d="M 3053 4122 
L 3053 4238 
L 4553 4238 
L 4553 4122 
L 4394 4122 
Q 4144 4122 4009 3913 
Q 3944 3816 3944 3463 
L 3944 1744 
Q 3944 1106 3817 754 
Q 3691 403 3320 151 
Q 2950 -100 2313 -100 
Q 1619 -100 1259 140 
Q 900 381 750 788 
Q 650 1066 650 1831 
L 650 3488 
Q 650 3878 542 4000 
Q 434 4122 194 4122 
L 34 4122 
L 34 4238 
L 1866 4238 
L 1866 4122 
L 1703 4122 
Q 1441 4122 1328 3956 
Q 1250 3844 1250 3488 
L 1250 1641 
Q 1250 1394 1295 1075 
Q 1341 756 1459 578 
Q 1578 400 1801 284 
Q 2025 169 2350 169 
Q 2766 169 3094 350 
Q 3422 531 3542 814 
Q 3663 1097 3663 1772 
L 3663 3488 
Q 3663 3884 3575 3984 
Q 3453 4122 3213 4122 
L 3053 4122 
z
" transform="scale(0.015625)"/>
      <path id="TimesNewRomanPSMT-4b" d="M 1913 2350 
L 3475 797 
Q 3859 413 4131 273 
Q 4403 134 4675 116 
L 4675 0 
L 2659 0 
L 2659 116 
Q 2841 116 2920 177 
Q 3000 238 3000 313 
Q 3000 388 2970 447 
Q 2941 506 2775 669 
L 1313 2116 
L 1313 750 
Q 1313 428 1353 325 
Q 1384 247 1484 191 
Q 1619 116 1769 116 
L 1913 116 
L 1913 0 
L 106 0 
L 106 116 
L 256 116 
Q 519 116 638 269 
Q 713 369 713 750 
L 713 3488 
Q 713 3809 672 3916 
Q 641 3991 544 4047 
Q 406 4122 256 4122 
L 106 4122 
L 106 4238 
L 1913 4238 
L 1913 4122 
L 1769 4122 
Q 1622 4122 1484 4050 
Q 1388 4000 1350 3900 
Q 1313 3800 1313 3488 
L 1313 2191 
Q 1375 2250 1741 2588 
Q 2669 3438 2863 3722 
Q 2947 3847 2947 3941 
Q 2947 4013 2881 4067 
Q 2816 4122 2659 4122 
L 2563 4122 
L 2563 4238 
L 4119 4238 
L 4119 4122 
Q 3981 4119 3868 4084 
Q 3756 4050 3593 3951 
Q 3431 3853 3194 3634 
Q 3125 3572 2559 2994 
L 1913 2350 
z
" transform="scale(0.015625)"/>
      <path id="TimesNewRomanPSMT-46" d="M 1309 4006 
L 1309 2341 
L 2081 2341 
Q 2347 2341 2470 2458 
Q 2594 2575 2634 2922 
L 2750 2922 
L 2750 1488 
L 2634 1488 
Q 2631 1734 2570 1850 
Q 2509 1966 2401 2023 
Q 2294 2081 2081 2081 
L 1309 2081 
L 1309 750 
Q 1309 428 1350 325 
Q 1381 247 1481 191 
Q 1619 116 1769 116 
L 1922 116 
L 1922 0 
L 103 0 
L 103 116 
L 253 116 
Q 516 116 634 269 
Q 709 369 709 750 
L 709 3488 
Q 709 3809 669 3913 
Q 638 3991 541 4047 
Q 406 4122 253 4122 
L 103 4122 
L 103 4238 
L 3256 4238 
L 3297 3306 
L 3188 3306 
Q 3106 3603 2998 3742 
Q 2891 3881 2733 3943 
Q 2575 4006 2244 4006 
L 1309 4006 
z
" transform="scale(0.015625)"/>
     </defs>
     <use xlink:href="#DejaVuSans-Oblique-3c9" transform="translate(0 0.5625)"/>
     <use xlink:href="#DejaVuSans-Oblique-6d" transform="translate(83.740234 -15.84375) scale(0.7)"/>
     <use xlink:href="#TimesNewRomanPSMT-20" transform="translate(154.663086 0.5625)"/>
     <use xlink:href="#TimesNewRomanPSMT-28" transform="translate(179.663086 0.5625)"/>
     <use xlink:href="#TimesNewRomanPSMT-72" transform="translate(212.963867 0.5625)"/>
     <use xlink:href="#TimesNewRomanPSMT-61" transform="translate(246.264648 0.5625)"/>
     <use xlink:href="#TimesNewRomanPSMT-64" transform="translate(290.649414 0.5625)"/>
     <use xlink:href="#TimesNewRomanPSMT-2f" transform="translate(340.649414 0.5625)"/>
     <use xlink:href="#TimesNewRomanPSMT-73" transform="translate(368.432617 0.5625)"/>
     <use xlink:href="#TimesNewRomanPSMT-29" transform="translate(407.348633 0.5625)"/>
     <use xlink:href="#TimesNewRomanPSMT-20" transform="translate(440.649414 0.5625)"/>
     <use xlink:href="#TimesNewRomanPSMT-2d" transform="translate(465.649414 0.5625)"/>
     <use xlink:href="#TimesNewRomanPSMT-20" transform="translate(498.950195 0.5625)"/>
     <use xlink:href="#TimesNewRomanPSMT-28" transform="translate(523.950195 0.5625)"/>
     <use xlink:href="#TimesNewRomanPSMT-4d" transform="translate(557.250977 0.5625)"/>
     <use xlink:href="#TimesNewRomanPSMT-4a" transform="translate(646.166992 0.5625)"/>
     <use xlink:href="#TimesNewRomanPSMT-55" transform="translate(685.083008 0.5625)"/>
     <use xlink:href="#TimesNewRomanPSMT-4b" transform="translate(757.299805 0.5625)"/>
     <use xlink:href="#TimesNewRomanPSMT-46" transform="translate(829.516602 0.5625)"/>
     <use xlink:href="#TimesNewRomanPSMT-29" transform="translate(885.131836 0.5625)"/>
    </g>
   </g>
   <g id="legend_1">
    <g id="patch_7">
     <path d="M 334.3 152.119062 
L 381.8 152.119062 
Q 383.8 152.119062 383.8 150.119062 
L 383.8 136.440937 
Q 383.8 134.440937 381.8 134.440937 
L 334.3 134.440937 
Q 332.3 134.440937 332.3 136.440937 
L 332.3 150.119062 
Q 332.3 152.119062 334.3 152.119062 
z
" style="fill: #ffffff; opacity: 0.8; stroke: #cccccc; stroke-linejoin: miter"/>
    </g>
    <g id="line2d_30">
     <path d="M 336.3 142.539375 
L 346.3 142.539375 
L 356.3 142.539375 
" style="fill: none; stroke: #000000; stroke-width: 0.5; stroke-linecap: square"/>
    </g>
    <g id="text_18">
     <!-- $\omega_{m}$ -->
     <g transform="translate(364.3 146.039375) scale(0.1 -0.1)">
      <use xlink:href="#DejaVuSans-Oblique-3c9" transform="translate(0 0.3125)"/>
      <use xlink:href="#DejaVuSans-Oblique-6d" transform="translate(83.740234 -16.09375) scale(0.7)"/>
     </g>
    </g>
   </g>
  </g>
 </g>
 <defs>
  <clipPath id="pd36e3682f8">
   <rect x="54" y="34.56" width="334.8" height="217.44"/>
  </clipPath>
 </defs>
</svg>
