<?xml version="1.0" encoding="utf-8" standalone="no"?>
<!DOCTYPE svg PUBLIC "-//W3C//DTD SVG 1.1//EN"
  "http://www.w3.org/Graphics/SVG/1.1/DTD/svg11.dtd">
<svg xmlns:xlink="http://www.w3.org/1999/xlink" width="432pt" height="288pt" viewBox="0 0 432 288" xmlns="http://www.w3.org/2000/svg" version="1.1">
 <metadata>
  <rdf:RDF xmlns:dc="http://purl.org/dc/elements/1.1/" xmlns:cc="http://creativecommons.org/ns#" xmlns:rdf="http://www.w3.org/1999/02/22-rdf-syntax-ns#">
   <cc:Work>
    <dc:type rdf:resource="http://purl.org/dc/dcmitype/StillImage"/>
    <dc:date>2024-03-30T14:26:36.313122</dc:date>
    <dc:format>image/svg+xml</dc:format>
    <dc:creator>
     <cc:Agent>
      <dc:title>Matplotlib v3.8.3, https://matplotlib.org/</dc:title>
     </cc:Agent>
    </dc:creator>
   </cc:Work>
  </rdf:RDF>
 </metadata>
 <defs>
  <style type="text/css">*{stroke-linejoin: round; stroke-linecap: butt}</style>
 </defs>
 <g id="figure_1">
  <g id="patch_1">
   <path d="M 0 288 
L 432 288 
L 432 0 
L 0 0 
z
" style="fill: #ffffff"/>
  </g>
  <g id="axes_1">
   <g id="patch_2">
    <path d="M 54 252 
L 388.8 252 
L 388.8 34.56 
L 54 34.56 
z
" style="fill: #ffffff"/>
   </g>
   <g id="matplotlib.axis_1">
    <g id="xtick_1">
     <g id="line2d_1">
      <path d="M 69.218182 252 
L 69.218182 34.56 
" clip-path="url(#p5e60fcc994)" style="fill: none; stroke: #b0b0b0; stroke-width: 0.2; stroke-linecap: square"/>
     </g>
     <g id="line2d_2">
      <defs>
       <path id="m9c2411e431" d="M 0 0 
L 0 3.5 
" style="stroke: #000000; stroke-width: 0.8"/>
      </defs>
      <g>
       <use xlink:href="#m9c2411e431" x="69.218182" y="252" style="stroke: #000000; stroke-width: 0.8"/>
      </g>
     </g>
     <g id="text_1">
      <!-- 0.0 -->
      <g transform="translate(60.471463 267.358281) scale(0.11 -0.11)">
       <defs>
        <path id="DejaVuSans-30" d="M 2034 4250 
Q 1547 4250 1301 3770 
Q 1056 3291 1056 2328 
Q 1056 1369 1301 889 
Q 1547 409 2034 409 
Q 2525 409 2770 889 
Q 3016 1369 3016 2328 
Q 3016 3291 2770 3770 
Q 2525 4250 2034 4250 
z
M 2034 4750 
Q 2819 4750 3233 4129 
Q 3647 3509 3647 2328 
Q 3647 1150 3233 529 
Q 2819 -91 2034 -91 
Q 1250 -91 836 529 
Q 422 1150 422 2328 
Q 422 3509 836 4129 
Q 1250 4750 2034 4750 
z
" transform="scale(0.015625)"/>
        <path id="DejaVuSans-2e" d="M 684 794 
L 1344 794 
L 1344 0 
L 684 0 
L 684 794 
z
" transform="scale(0.015625)"/>
       </defs>
       <use xlink:href="#DejaVuSans-30"/>
       <use xlink:href="#DejaVuSans-2e" x="63.623047"/>
       <use xlink:href="#DejaVuSans-30" x="95.410156"/>
      </g>
     </g>
    </g>
    <g id="xtick_2">
     <g id="line2d_3">
      <path d="M 107.263636 252 
L 107.263636 34.56 
" clip-path="url(#p5e60fcc994)" style="fill: none; stroke: #b0b0b0; stroke-width: 0.2; stroke-linecap: square"/>
     </g>
     <g id="line2d_4">
      <g>
       <use xlink:href="#m9c2411e431" x="107.263636" y="252" style="stroke: #000000; stroke-width: 0.8"/>
      </g>
     </g>
     <g id="text_2">
      <!-- 2.5 -->
      <g transform="translate(98.516918 267.358281) scale(0.11 -0.11)">
       <defs>
        <path id="DejaVuSans-32" d="M 1228 531 
L 3431 531 
L 3431 0 
L 469 0 
L 469 531 
Q 828 903 1448 1529 
Q 2069 2156 2228 2338 
Q 2531 2678 2651 2914 
Q 2772 3150 2772 3378 
Q 2772 3750 2511 3984 
Q 2250 4219 1831 4219 
Q 1534 4219 1204 4116 
Q 875 4013 500 3803 
L 500 4441 
Q 881 4594 1212 4672 
Q 1544 4750 1819 4750 
Q 2544 4750 2975 4387 
Q 3406 4025 3406 3419 
Q 3406 3131 3298 2873 
Q 3191 2616 2906 2266 
Q 2828 2175 2409 1742 
Q 1991 1309 1228 531 
z
" transform="scale(0.015625)"/>
        <path id="DejaVuSans-35" d="M 691 4666 
L 3169 4666 
L 3169 4134 
L 1269 4134 
L 1269 2991 
Q 1406 3038 1543 3061 
Q 1681 3084 1819 3084 
Q 2600 3084 3056 2656 
Q 3513 2228 3513 1497 
Q 3513 744 3044 326 
Q 2575 -91 1722 -91 
Q 1428 -91 1123 -41 
Q 819 9 494 109 
L 494 744 
Q 775 591 1075 516 
Q 1375 441 1709 441 
Q 2250 441 2565 725 
Q 2881 1009 2881 1497 
Q 2881 1984 2565 2268 
Q 2250 2553 1709 2553 
Q 1456 2553 1204 2497 
Q 953 2441 691 2322 
L 691 4666 
z
" transform="scale(0.015625)"/>
       </defs>
       <use xlink:href="#DejaVuSans-32"/>
       <use xlink:href="#DejaVuSans-2e" x="63.623047"/>
       <use xlink:href="#DejaVuSans-35" x="95.410156"/>
      </g>
     </g>
    </g>
    <g id="xtick_3">
     <g id="line2d_5">
      <path d="M 145.309091 252 
L 145.309091 34.56 
" clip-path="url(#p5e60fcc994)" style="fill: none; stroke: #b0b0b0; stroke-width: 0.2; stroke-linecap: square"/>
     </g>
     <g id="line2d_6">
      <g>
       <use xlink:href="#m9c2411e431" x="145.309091" y="252" style="stroke: #000000; stroke-width: 0.8"/>
      </g>
     </g>
     <g id="text_3">
      <!-- 5.0 -->
      <g transform="translate(136.562372 267.358281) scale(0.11 -0.11)">
       <use xlink:href="#DejaVuSans-35"/>
       <use xlink:href="#DejaVuSans-2e" x="63.623047"/>
       <use xlink:href="#DejaVuSans-30" x="95.410156"/>
      </g>
     </g>
    </g>
    <g id="xtick_4">
     <g id="line2d_7">
      <path d="M 183.354545 252 
L 183.354545 34.56 
" clip-path="url(#p5e60fcc994)" style="fill: none; stroke: #b0b0b0; stroke-width: 0.2; stroke-linecap: square"/>
     </g>
     <g id="line2d_8">
      <g>
       <use xlink:href="#m9c2411e431" x="183.354545" y="252" style="stroke: #000000; stroke-width: 0.8"/>
      </g>
     </g>
     <g id="text_4">
      <!-- 7.5 -->
      <g transform="translate(174.607827 267.358281) scale(0.11 -0.11)">
       <defs>
        <path id="DejaVuSans-37" d="M 525 4666 
L 3525 4666 
L 3525 4397 
L 1831 0 
L 1172 0 
L 2766 4134 
L 525 4134 
L 525 4666 
z
" transform="scale(0.015625)"/>
       </defs>
       <use xlink:href="#DejaVuSans-37"/>
       <use xlink:href="#DejaVuSans-2e" x="63.623047"/>
       <use xlink:href="#DejaVuSans-35" x="95.410156"/>
      </g>
     </g>
    </g>
    <g id="xtick_5">
     <g id="line2d_9">
      <path d="M 221.4 252 
L 221.4 34.56 
" clip-path="url(#p5e60fcc994)" style="fill: none; stroke: #b0b0b0; stroke-width: 0.2; stroke-linecap: square"/>
     </g>
     <g id="line2d_10">
      <g>
       <use xlink:href="#m9c2411e431" x="221.4" y="252" style="stroke: #000000; stroke-width: 0.8"/>
      </g>
     </g>
     <g id="text_5">
      <!-- 10.0 -->
      <g transform="translate(209.153906 267.358281) scale(0.11 -0.11)">
       <defs>
        <path id="DejaVuSans-31" d="M 794 531 
L 1825 531 
L 1825 4091 
L 703 3866 
L 703 4441 
L 1819 4666 
L 2450 4666 
L 2450 531 
L 3481 531 
L 3481 0 
L 794 0 
L 794 531 
z
" transform="scale(0.015625)"/>
       </defs>
       <use xlink:href="#DejaVuSans-31"/>
       <use xlink:href="#DejaVuSans-30" x="63.623047"/>
       <use xlink:href="#DejaVuSans-2e" x="127.246094"/>
       <use xlink:href="#DejaVuSans-30" x="159.033203"/>
      </g>
     </g>
    </g>
    <g id="xtick_6">
     <g id="line2d_11">
      <path d="M 259.445455 252 
L 259.445455 34.56 
" clip-path="url(#p5e60fcc994)" style="fill: none; stroke: #b0b0b0; stroke-width: 0.2; stroke-linecap: square"/>
     </g>
     <g id="line2d_12">
      <g>
       <use xlink:href="#m9c2411e431" x="259.445455" y="252" style="stroke: #000000; stroke-width: 0.8"/>
      </g>
     </g>
     <g id="text_6">
      <!-- 12.5 -->
      <g transform="translate(247.199361 267.358281) scale(0.11 -0.11)">
       <use xlink:href="#DejaVuSans-31"/>
       <use xlink:href="#DejaVuSans-32" x="63.623047"/>
       <use xlink:href="#DejaVuSans-2e" x="127.246094"/>
       <use xlink:href="#DejaVuSans-35" x="159.033203"/>
      </g>
     </g>
    </g>
    <g id="xtick_7">
     <g id="line2d_13">
      <path d="M 297.490909 252 
L 297.490909 34.56 
" clip-path="url(#p5e60fcc994)" style="fill: none; stroke: #b0b0b0; stroke-width: 0.2; stroke-linecap: square"/>
     </g>
     <g id="line2d_14">
      <g>
       <use xlink:href="#m9c2411e431" x="297.490909" y="252" style="stroke: #000000; stroke-width: 0.8"/>
      </g>
     </g>
     <g id="text_7">
      <!-- 15.0 -->
      <g transform="translate(285.244815 267.358281) scale(0.11 -0.11)">
       <use xlink:href="#DejaVuSans-31"/>
       <use xlink:href="#DejaVuSans-35" x="63.623047"/>
       <use xlink:href="#DejaVuSans-2e" x="127.246094"/>
       <use xlink:href="#DejaVuSans-30" x="159.033203"/>
      </g>
     </g>
    </g>
    <g id="xtick_8">
     <g id="line2d_15">
      <path d="M 335.536364 252 
L 335.536364 34.56 
" clip-path="url(#p5e60fcc994)" style="fill: none; stroke: #b0b0b0; stroke-width: 0.2; stroke-linecap: square"/>
     </g>
     <g id="line2d_16">
      <g>
       <use xlink:href="#m9c2411e431" x="335.536364" y="252" style="stroke: #000000; stroke-width: 0.8"/>
      </g>
     </g>
     <g id="text_8">
      <!-- 17.5 -->
      <g transform="translate(323.29027 267.358281) scale(0.11 -0.11)">
       <use xlink:href="#DejaVuSans-31"/>
       <use xlink:href="#DejaVuSans-37" x="63.623047"/>
       <use xlink:href="#DejaVuSans-2e" x="127.246094"/>
       <use xlink:href="#DejaVuSans-35" x="159.033203"/>
      </g>
     </g>
    </g>
    <g id="xtick_9">
     <g id="line2d_17">
      <path d="M 373.581818 252 
L 373.581818 34.56 
" clip-path="url(#p5e60fcc994)" style="fill: none; stroke: #b0b0b0; stroke-width: 0.2; stroke-linecap: square"/>
     </g>
     <g id="line2d_18">
      <g>
       <use xlink:href="#m9c2411e431" x="373.581818" y="252" style="stroke: #000000; stroke-width: 0.8"/>
      </g>
     </g>
     <g id="text_9">
      <!-- 20.0 -->
      <g transform="translate(361.335724 267.358281) scale(0.11 -0.11)">
       <use xlink:href="#DejaVuSans-32"/>
       <use xlink:href="#DejaVuSans-30" x="63.623047"/>
       <use xlink:href="#DejaVuSans-2e" x="127.246094"/>
       <use xlink:href="#DejaVuSans-30" x="159.033203"/>
      </g>
     </g>
    </g>
    <g id="text_10">
     <!-- Time (s) -->
     <g transform="translate(202.807422 281.284063) scale(0.11 -0.11)">
      <defs>
       <path id="TimesNewRomanPSMT-54" d="M 3703 4238 
L 3750 3244 
L 3631 3244 
Q 3597 3506 3538 3619 
Q 3441 3800 3280 3886 
Q 3119 3972 2856 3972 
L 2259 3972 
L 2259 734 
Q 2259 344 2344 247 
Q 2463 116 2709 116 
L 2856 116 
L 2856 0 
L 1059 0 
L 1059 116 
L 1209 116 
Q 1478 116 1591 278 
Q 1659 378 1659 734 
L 1659 3972 
L 1150 3972 
Q 853 3972 728 3928 
Q 566 3869 450 3700 
Q 334 3531 313 3244 
L 194 3244 
L 244 4238 
L 3703 4238 
z
" transform="scale(0.015625)"/>
       <path id="TimesNewRomanPSMT-69" d="M 928 4444 
Q 1059 4444 1151 4351 
Q 1244 4259 1244 4128 
Q 1244 3997 1151 3903 
Q 1059 3809 928 3809 
Q 797 3809 703 3903 
Q 609 3997 609 4128 
Q 609 4259 701 4351 
Q 794 4444 928 4444 
z
M 1188 2947 
L 1188 647 
Q 1188 378 1227 289 
Q 1266 200 1342 156 
Q 1419 113 1622 113 
L 1622 0 
L 231 0 
L 231 113 
Q 441 113 512 153 
Q 584 194 626 287 
Q 669 381 669 647 
L 669 1750 
Q 669 2216 641 2353 
Q 619 2453 572 2492 
Q 525 2531 444 2531 
Q 356 2531 231 2484 
L 188 2597 
L 1050 2947 
L 1188 2947 
z
" transform="scale(0.015625)"/>
       <path id="TimesNewRomanPSMT-6d" d="M 1050 2338 
Q 1363 2650 1419 2697 
Q 1559 2816 1721 2881 
Q 1884 2947 2044 2947 
Q 2313 2947 2506 2790 
Q 2700 2634 2766 2338 
Q 3088 2713 3309 2830 
Q 3531 2947 3766 2947 
Q 3994 2947 4170 2830 
Q 4347 2713 4450 2447 
Q 4519 2266 4519 1878 
L 4519 647 
Q 4519 378 4559 278 
Q 4591 209 4675 161 
Q 4759 113 4950 113 
L 4950 0 
L 3538 0 
L 3538 113 
L 3597 113 
Q 3781 113 3884 184 
Q 3956 234 3988 344 
Q 4000 397 4000 647 
L 4000 1878 
Q 4000 2228 3916 2372 
Q 3794 2572 3525 2572 
Q 3359 2572 3192 2489 
Q 3025 2406 2788 2181 
L 2781 2147 
L 2788 2013 
L 2788 647 
Q 2788 353 2820 281 
Q 2853 209 2943 161 
Q 3034 113 3253 113 
L 3253 0 
L 1806 0 
L 1806 113 
Q 2044 113 2133 169 
Q 2222 225 2256 338 
Q 2272 391 2272 647 
L 2272 1878 
Q 2272 2228 2169 2381 
Q 2031 2581 1784 2581 
Q 1616 2581 1450 2491 
Q 1191 2353 1050 2181 
L 1050 647 
Q 1050 366 1089 281 
Q 1128 197 1204 155 
Q 1281 113 1516 113 
L 1516 0 
L 100 0 
L 100 113 
Q 297 113 375 155 
Q 453 197 493 289 
Q 534 381 534 647 
L 534 1741 
Q 534 2213 506 2350 
Q 484 2453 437 2492 
Q 391 2531 309 2531 
Q 222 2531 100 2484 
L 53 2597 
L 916 2947 
L 1050 2947 
L 1050 2338 
z
" transform="scale(0.015625)"/>
       <path id="TimesNewRomanPSMT-65" d="M 681 1784 
Q 678 1147 991 784 
Q 1303 422 1725 422 
Q 2006 422 2214 576 
Q 2422 731 2563 1106 
L 2659 1044 
Q 2594 616 2278 264 
Q 1963 -88 1488 -88 
Q 972 -88 605 314 
Q 238 716 238 1394 
Q 238 2128 614 2539 
Q 991 2950 1559 2950 
Q 2041 2950 2350 2633 
Q 2659 2316 2659 1784 
L 681 1784 
z
M 681 1966 
L 2006 1966 
Q 1991 2241 1941 2353 
Q 1863 2528 1708 2628 
Q 1553 2728 1384 2728 
Q 1125 2728 920 2526 
Q 716 2325 681 1966 
z
" transform="scale(0.015625)"/>
       <path id="TimesNewRomanPSMT-20" transform="scale(0.015625)"/>
       <path id="TimesNewRomanPSMT-28" d="M 1988 -1253 
L 1988 -1369 
Q 1516 -1131 1200 -813 
Q 750 -359 506 256 
Q 263 872 263 1534 
Q 263 2503 741 3301 
Q 1219 4100 1988 4444 
L 1988 4313 
Q 1603 4100 1356 3731 
Q 1109 3363 987 2797 
Q 866 2231 866 1616 
Q 866 947 969 400 
Q 1050 -31 1165 -292 
Q 1281 -553 1476 -793 
Q 1672 -1034 1988 -1253 
z
" transform="scale(0.015625)"/>
       <path id="TimesNewRomanPSMT-73" d="M 2050 2947 
L 2050 1972 
L 1947 1972 
Q 1828 2431 1642 2597 
Q 1456 2763 1169 2763 
Q 950 2763 815 2647 
Q 681 2531 681 2391 
Q 681 2216 781 2091 
Q 878 1963 1175 1819 
L 1631 1597 
Q 2266 1288 2266 781 
Q 2266 391 1970 151 
Q 1675 -88 1309 -88 
Q 1047 -88 709 6 
Q 606 38 541 38 
Q 469 38 428 -44 
L 325 -44 
L 325 978 
L 428 978 
Q 516 541 762 319 
Q 1009 97 1316 97 
Q 1531 97 1667 223 
Q 1803 350 1803 528 
Q 1803 744 1651 891 
Q 1500 1038 1047 1263 
Q 594 1488 453 1669 
Q 313 1847 313 2119 
Q 313 2472 555 2709 
Q 797 2947 1181 2947 
Q 1350 2947 1591 2875 
Q 1750 2828 1803 2828 
Q 1853 2828 1881 2850 
Q 1909 2872 1947 2947 
L 2050 2947 
z
" transform="scale(0.015625)"/>
       <path id="TimesNewRomanPSMT-29" d="M 144 4313 
L 144 4444 
Q 619 4209 934 3891 
Q 1381 3434 1625 2820 
Q 1869 2206 1869 1541 
Q 1869 572 1392 -226 
Q 916 -1025 144 -1369 
L 144 -1253 
Q 528 -1038 776 -670 
Q 1025 -303 1145 264 
Q 1266 831 1266 1447 
Q 1266 2113 1163 2663 
Q 1084 3094 967 3353 
Q 850 3613 656 3853 
Q 463 4094 144 4313 
z
" transform="scale(0.015625)"/>
      </defs>
      <use xlink:href="#TimesNewRomanPSMT-54"/>
      <use xlink:href="#TimesNewRomanPSMT-69" x="57.583984"/>
      <use xlink:href="#TimesNewRomanPSMT-6d" x="85.367188"/>
      <use xlink:href="#TimesNewRomanPSMT-65" x="163.150391"/>
      <use xlink:href="#TimesNewRomanPSMT-20" x="207.535156"/>
      <use xlink:href="#TimesNewRomanPSMT-28" x="232.535156"/>
      <use xlink:href="#TimesNewRomanPSMT-73" x="265.835938"/>
      <use xlink:href="#TimesNewRomanPSMT-29" x="304.751953"/>
     </g>
    </g>
   </g>
   <g id="matplotlib.axis_2">
    <g id="ytick_1">
     <g id="line2d_19">
      <path d="M 54 221.153631 
L 388.8 221.153631 
" clip-path="url(#p5e60fcc994)" style="fill: none; stroke: #b0b0b0; stroke-width: 0.2; stroke-linecap: square"/>
     </g>
     <g id="line2d_20">
      <defs>
       <path id="m0a2198018b" d="M 0 0 
L -3.5 0 
" style="stroke: #000000; stroke-width: 0.8"/>
      </defs>
      <g>
       <use xlink:href="#m0a2198018b" x="54" y="221.153631" style="stroke: #000000; stroke-width: 0.8"/>
      </g>
     </g>
     <g id="text_11">
      <!-- −2 -->
      <g transform="translate(30.783594 225.332771) scale(0.11 -0.11)">
       <defs>
        <path id="DejaVuSans-2212" d="M 678 2272 
L 4684 2272 
L 4684 1741 
L 678 1741 
L 678 2272 
z
" transform="scale(0.015625)"/>
       </defs>
       <use xlink:href="#DejaVuSans-2212"/>
       <use xlink:href="#DejaVuSans-32" x="83.789062"/>
      </g>
     </g>
    </g>
    <g id="ytick_2">
     <g id="line2d_21">
      <path d="M 54 182.243319 
L 388.8 182.243319 
" clip-path="url(#p5e60fcc994)" style="fill: none; stroke: #b0b0b0; stroke-width: 0.2; stroke-linecap: square"/>
     </g>
     <g id="line2d_22">
      <g>
       <use xlink:href="#m0a2198018b" x="54" y="182.243319" style="stroke: #000000; stroke-width: 0.8"/>
      </g>
     </g>
     <g id="text_12">
      <!-- −1 -->
      <g transform="translate(30.783594 186.422459) scale(0.11 -0.11)">
       <use xlink:href="#DejaVuSans-2212"/>
       <use xlink:href="#DejaVuSans-31" x="83.789062"/>
      </g>
     </g>
    </g>
    <g id="ytick_3">
     <g id="line2d_23">
      <path d="M 54 143.333007 
L 388.8 143.333007 
" clip-path="url(#p5e60fcc994)" style="fill: none; stroke: #b0b0b0; stroke-width: 0.2; stroke-linecap: square"/>
     </g>
     <g id="line2d_24">
      <g>
       <use xlink:href="#m0a2198018b" x="54" y="143.333007" style="stroke: #000000; stroke-width: 0.8"/>
      </g>
     </g>
     <g id="text_13">
      <!-- 0 -->
      <g transform="translate(40.00125 147.512147) scale(0.11 -0.11)">
       <use xlink:href="#DejaVuSans-30"/>
      </g>
     </g>
    </g>
    <g id="ytick_4">
     <g id="line2d_25">
      <path d="M 54 104.422695 
L 388.8 104.422695 
" clip-path="url(#p5e60fcc994)" style="fill: none; stroke: #b0b0b0; stroke-width: 0.2; stroke-linecap: square"/>
     </g>
     <g id="line2d_26">
      <g>
       <use xlink:href="#m0a2198018b" x="54" y="104.422695" style="stroke: #000000; stroke-width: 0.8"/>
      </g>
     </g>
     <g id="text_14">
      <!-- 1 -->
      <g transform="translate(40.00125 108.601835) scale(0.11 -0.11)">
       <use xlink:href="#DejaVuSans-31"/>
      </g>
     </g>
    </g>
    <g id="ytick_5">
     <g id="line2d_27">
      <path d="M 54 65.512383 
L 388.8 65.512383 
" clip-path="url(#p5e60fcc994)" style="fill: none; stroke: #b0b0b0; stroke-width: 0.2; stroke-linecap: square"/>
     </g>
     <g id="line2d_28">
      <g>
       <use xlink:href="#m0a2198018b" x="54" y="65.512383" style="stroke: #000000; stroke-width: 0.8"/>
      </g>
     </g>
     <g id="text_15">
      <!-- 2 -->
      <g transform="translate(40.00125 69.691523) scale(0.11 -0.11)">
       <use xlink:href="#DejaVuSans-32"/>
      </g>
     </g>
    </g>
    <g id="text_16">
     <!-- Angular position of the link - $\theta_{l}$ (rad) -->
     <g transform="translate(24.363594 225.615) rotate(-90) scale(0.11 -0.11)">
      <defs>
       <path id="TimesNewRomanPSMT-41" d="M 2928 1419 
L 1288 1419 
L 1000 750 
Q 894 503 894 381 
Q 894 284 986 211 
Q 1078 138 1384 116 
L 1384 0 
L 50 0 
L 50 116 
Q 316 163 394 238 
Q 553 388 747 847 
L 2238 4334 
L 2347 4334 
L 3822 809 
Q 4000 384 4145 257 
Q 4291 131 4550 116 
L 4550 0 
L 2878 0 
L 2878 116 
Q 3131 128 3220 200 
Q 3309 272 3309 375 
Q 3309 513 3184 809 
L 2928 1419 
z
M 2841 1650 
L 2122 3363 
L 1384 1650 
L 2841 1650 
z
" transform="scale(0.015625)"/>
       <path id="TimesNewRomanPSMT-6e" d="M 1034 2341 
Q 1538 2947 1994 2947 
Q 2228 2947 2397 2830 
Q 2566 2713 2666 2444 
Q 2734 2256 2734 1869 
L 2734 647 
Q 2734 375 2778 278 
Q 2813 200 2889 156 
Q 2966 113 3172 113 
L 3172 0 
L 1756 0 
L 1756 113 
L 1816 113 
Q 2016 113 2095 173 
Q 2175 234 2206 353 
Q 2219 400 2219 647 
L 2219 1819 
Q 2219 2209 2117 2386 
Q 2016 2563 1775 2563 
Q 1403 2563 1034 2156 
L 1034 647 
Q 1034 356 1069 288 
Q 1113 197 1189 155 
Q 1266 113 1500 113 
L 1500 0 
L 84 0 
L 84 113 
L 147 113 
Q 366 113 442 223 
Q 519 334 519 647 
L 519 1709 
Q 519 2225 495 2337 
Q 472 2450 423 2490 
Q 375 2531 294 2531 
Q 206 2531 84 2484 
L 38 2597 
L 900 2947 
L 1034 2947 
L 1034 2341 
z
" transform="scale(0.015625)"/>
       <path id="TimesNewRomanPSMT-67" d="M 966 1044 
Q 703 1172 562 1401 
Q 422 1631 422 1909 
Q 422 2334 742 2640 
Q 1063 2947 1563 2947 
Q 1972 2947 2272 2747 
L 2878 2747 
Q 3013 2747 3034 2739 
Q 3056 2731 3066 2713 
Q 3084 2684 3084 2613 
Q 3084 2531 3069 2500 
Q 3059 2484 3036 2475 
Q 3013 2466 2878 2466 
L 2506 2466 
Q 2681 2241 2681 1891 
Q 2681 1491 2375 1206 
Q 2069 922 1553 922 
Q 1341 922 1119 984 
Q 981 866 932 777 
Q 884 688 884 625 
Q 884 572 936 522 
Q 988 472 1138 450 
Q 1225 438 1575 428 
Q 2219 413 2409 384 
Q 2700 344 2873 169 
Q 3047 -6 3047 -263 
Q 3047 -616 2716 -925 
Q 2228 -1381 1444 -1381 
Q 841 -1381 425 -1109 
Q 191 -953 191 -784 
Q 191 -709 225 -634 
Q 278 -519 444 -313 
Q 466 -284 763 25 
Q 600 122 533 198 
Q 466 275 466 372 
Q 466 481 555 628 
Q 644 775 966 1044 
z
M 1509 2797 
Q 1278 2797 1122 2612 
Q 966 2428 966 2047 
Q 966 1553 1178 1281 
Q 1341 1075 1591 1075 
Q 1828 1075 1981 1253 
Q 2134 1431 2134 1813 
Q 2134 2309 1919 2591 
Q 1759 2797 1509 2797 
z
M 934 0 
Q 788 -159 713 -296 
Q 638 -434 638 -550 
Q 638 -700 819 -813 
Q 1131 -1006 1722 -1006 
Q 2284 -1006 2551 -807 
Q 2819 -609 2819 -384 
Q 2819 -222 2659 -153 
Q 2497 -84 2016 -72 
Q 1313 -53 934 0 
z
" transform="scale(0.015625)"/>
       <path id="TimesNewRomanPSMT-75" d="M 2709 2863 
L 2709 1128 
Q 2709 631 2732 520 
Q 2756 409 2807 365 
Q 2859 322 2928 322 
Q 3025 322 3147 375 
L 3191 266 
L 2334 -88 
L 2194 -88 
L 2194 519 
Q 1825 119 1631 15 
Q 1438 -88 1222 -88 
Q 981 -88 804 51 
Q 628 191 559 409 
Q 491 628 491 1028 
L 491 2306 
Q 491 2509 447 2587 
Q 403 2666 317 2708 
Q 231 2750 6 2747 
L 6 2863 
L 1009 2863 
L 1009 947 
Q 1009 547 1148 422 
Q 1288 297 1484 297 
Q 1619 297 1789 381 
Q 1959 466 2194 703 
L 2194 2325 
Q 2194 2569 2105 2655 
Q 2016 2741 1734 2747 
L 1734 2863 
L 2709 2863 
z
" transform="scale(0.015625)"/>
       <path id="TimesNewRomanPSMT-6c" d="M 1184 4444 
L 1184 647 
Q 1184 378 1223 290 
Q 1263 203 1344 158 
Q 1425 113 1647 113 
L 1647 0 
L 244 0 
L 244 113 
Q 441 113 512 153 
Q 584 194 625 287 
Q 666 381 666 647 
L 666 3247 
Q 666 3731 644 3842 
Q 622 3953 573 3993 
Q 525 4034 450 4034 
Q 369 4034 244 3984 
L 191 4094 
L 1044 4444 
L 1184 4444 
z
" transform="scale(0.015625)"/>
       <path id="TimesNewRomanPSMT-61" d="M 1822 413 
Q 1381 72 1269 19 
Q 1100 -59 909 -59 
Q 613 -59 420 144 
Q 228 347 228 678 
Q 228 888 322 1041 
Q 450 1253 767 1440 
Q 1084 1628 1822 1897 
L 1822 2009 
Q 1822 2438 1686 2597 
Q 1550 2756 1291 2756 
Q 1094 2756 978 2650 
Q 859 2544 859 2406 
L 866 2225 
Q 866 2081 792 2003 
Q 719 1925 600 1925 
Q 484 1925 411 2006 
Q 338 2088 338 2228 
Q 338 2497 613 2722 
Q 888 2947 1384 2947 
Q 1766 2947 2009 2819 
Q 2194 2722 2281 2516 
Q 2338 2381 2338 1966 
L 2338 994 
Q 2338 584 2353 492 
Q 2369 400 2405 369 
Q 2441 338 2488 338 
Q 2538 338 2575 359 
Q 2641 400 2828 588 
L 2828 413 
Q 2478 -56 2159 -56 
Q 2006 -56 1915 50 
Q 1825 156 1822 413 
z
M 1822 616 
L 1822 1706 
Q 1350 1519 1213 1441 
Q 966 1303 859 1153 
Q 753 1003 753 825 
Q 753 600 887 451 
Q 1022 303 1197 303 
Q 1434 303 1822 616 
z
" transform="scale(0.015625)"/>
       <path id="TimesNewRomanPSMT-72" d="M 1038 2947 
L 1038 2303 
Q 1397 2947 1775 2947 
Q 1947 2947 2059 2842 
Q 2172 2738 2172 2600 
Q 2172 2478 2090 2393 
Q 2009 2309 1897 2309 
Q 1788 2309 1652 2417 
Q 1516 2525 1450 2525 
Q 1394 2525 1328 2463 
Q 1188 2334 1038 2041 
L 1038 669 
Q 1038 431 1097 309 
Q 1138 225 1241 169 
Q 1344 113 1538 113 
L 1538 0 
L 72 0 
L 72 113 
Q 291 113 397 181 
Q 475 231 506 341 
Q 522 394 522 644 
L 522 1753 
Q 522 2253 501 2348 
Q 481 2444 426 2487 
Q 372 2531 291 2531 
Q 194 2531 72 2484 
L 41 2597 
L 906 2947 
L 1038 2947 
z
" transform="scale(0.015625)"/>
       <path id="TimesNewRomanPSMT-70" d="M -6 2578 
L 875 2934 
L 994 2934 
L 994 2266 
Q 1216 2644 1439 2795 
Q 1663 2947 1909 2947 
Q 2341 2947 2628 2609 
Q 2981 2197 2981 1534 
Q 2981 794 2556 309 
Q 2206 -88 1675 -88 
Q 1444 -88 1275 -22 
Q 1150 25 994 166 
L 994 -706 
Q 994 -1000 1030 -1079 
Q 1066 -1159 1155 -1206 
Q 1244 -1253 1478 -1253 
L 1478 -1369 
L -22 -1369 
L -22 -1253 
L 56 -1253 
Q 228 -1256 350 -1188 
Q 409 -1153 442 -1076 
Q 475 -1000 475 -688 
L 475 2019 
Q 475 2297 450 2372 
Q 425 2447 370 2484 
Q 316 2522 222 2522 
Q 147 2522 31 2478 
L -6 2578 
z
M 994 2081 
L 994 1013 
Q 994 666 1022 556 
Q 1066 375 1236 237 
Q 1406 100 1666 100 
Q 1978 100 2172 344 
Q 2425 663 2425 1241 
Q 2425 1897 2138 2250 
Q 1938 2494 1663 2494 
Q 1513 2494 1366 2419 
Q 1253 2363 994 2081 
z
" transform="scale(0.015625)"/>
       <path id="TimesNewRomanPSMT-6f" d="M 1600 2947 
Q 2250 2947 2644 2453 
Q 2978 2031 2978 1484 
Q 2978 1100 2793 706 
Q 2609 313 2286 112 
Q 1963 -88 1566 -88 
Q 919 -88 538 428 
Q 216 863 216 1403 
Q 216 1797 411 2186 
Q 606 2575 925 2761 
Q 1244 2947 1600 2947 
z
M 1503 2744 
Q 1338 2744 1170 2645 
Q 1003 2547 900 2300 
Q 797 2053 797 1666 
Q 797 1041 1045 587 
Q 1294 134 1700 134 
Q 2003 134 2200 384 
Q 2397 634 2397 1244 
Q 2397 2006 2069 2444 
Q 1847 2744 1503 2744 
z
" transform="scale(0.015625)"/>
       <path id="TimesNewRomanPSMT-74" d="M 1031 3803 
L 1031 2863 
L 1700 2863 
L 1700 2644 
L 1031 2644 
L 1031 788 
Q 1031 509 1111 412 
Q 1191 316 1316 316 
Q 1419 316 1516 380 
Q 1613 444 1666 569 
L 1788 569 
Q 1678 263 1478 108 
Q 1278 -47 1066 -47 
Q 922 -47 784 33 
Q 647 113 581 261 
Q 516 409 516 719 
L 516 2644 
L 63 2644 
L 63 2747 
Q 234 2816 414 2980 
Q 594 3144 734 3369 
Q 806 3488 934 3803 
L 1031 3803 
z
" transform="scale(0.015625)"/>
       <path id="TimesNewRomanPSMT-66" d="M 1319 2638 
L 1319 756 
Q 1319 356 1406 250 
Q 1522 113 1716 113 
L 1975 113 
L 1975 0 
L 266 0 
L 266 113 
L 394 113 
Q 519 113 622 175 
Q 725 238 764 344 
Q 803 450 803 756 
L 803 2638 
L 247 2638 
L 247 2863 
L 803 2863 
L 803 3050 
Q 803 3478 940 3775 
Q 1078 4072 1361 4255 
Q 1644 4438 1997 4438 
Q 2325 4438 2600 4225 
Q 2781 4084 2781 3909 
Q 2781 3816 2700 3733 
Q 2619 3650 2525 3650 
Q 2453 3650 2373 3701 
Q 2294 3753 2178 3923 
Q 2063 4094 1966 4153 
Q 1869 4213 1750 4213 
Q 1606 4213 1506 4136 
Q 1406 4059 1362 3898 
Q 1319 3738 1319 3069 
L 1319 2863 
L 2056 2863 
L 2056 2638 
L 1319 2638 
z
" transform="scale(0.015625)"/>
       <path id="TimesNewRomanPSMT-68" d="M 1041 4444 
L 1041 2350 
Q 1388 2731 1591 2839 
Q 1794 2947 1997 2947 
Q 2241 2947 2416 2812 
Q 2591 2678 2675 2391 
Q 2734 2191 2734 1659 
L 2734 647 
Q 2734 375 2778 275 
Q 2809 200 2884 156 
Q 2959 113 3159 113 
L 3159 0 
L 1753 0 
L 1753 113 
L 1819 113 
Q 2019 113 2097 173 
Q 2175 234 2206 353 
Q 2216 403 2216 647 
L 2216 1659 
Q 2216 2128 2167 2275 
Q 2119 2422 2012 2495 
Q 1906 2569 1756 2569 
Q 1603 2569 1437 2487 
Q 1272 2406 1041 2159 
L 1041 647 
Q 1041 353 1073 281 
Q 1106 209 1195 161 
Q 1284 113 1503 113 
L 1503 0 
L 84 0 
L 84 113 
Q 275 113 384 172 
Q 447 203 484 290 
Q 522 378 522 647 
L 522 3238 
Q 522 3728 498 3840 
Q 475 3953 426 3993 
Q 378 4034 297 4034 
Q 231 4034 84 3984 
L 41 4094 
L 897 4444 
L 1041 4444 
z
" transform="scale(0.015625)"/>
       <path id="TimesNewRomanPSMT-6b" d="M 1047 4444 
L 1047 1597 
L 1775 2259 
Q 2006 2472 2044 2528 
Q 2069 2566 2069 2603 
Q 2069 2666 2017 2711 
Q 1966 2756 1847 2763 
L 1847 2863 
L 3091 2863 
L 3091 2763 
Q 2834 2756 2664 2684 
Q 2494 2613 2291 2428 
L 1556 1750 
L 2291 822 
Q 2597 438 2703 334 
Q 2853 188 2966 144 
Q 3044 113 3238 113 
L 3238 0 
L 1847 0 
L 1847 113 
Q 1966 116 2008 148 
Q 2050 181 2050 241 
Q 2050 313 1925 472 
L 1047 1594 
L 1047 644 
Q 1047 366 1086 278 
Q 1125 191 1197 153 
Q 1269 116 1509 113 
L 1509 0 
L 53 0 
L 53 113 
Q 272 113 381 166 
Q 447 200 481 272 
Q 528 375 528 628 
L 528 3234 
Q 528 3731 506 3842 
Q 484 3953 434 3995 
Q 384 4038 303 4038 
Q 238 4038 106 3984 
L 53 4094 
L 903 4444 
L 1047 4444 
z
" transform="scale(0.015625)"/>
       <path id="TimesNewRomanPSMT-2d" d="M 259 1672 
L 1875 1672 
L 1875 1200 
L 259 1200 
L 259 1672 
z
" transform="scale(0.015625)"/>
       <path id="DejaVuSans-Oblique-3b8" d="M 2913 2219 
L 925 2219 
Q 791 1284 928 888 
Q 1100 400 1566 400 
Q 2034 400 2391 891 
Q 2703 1322 2913 2219 
z
M 3009 2750 
Q 3094 3638 2984 3950 
Q 2813 4444 2353 4444 
Q 1875 4444 1525 3956 
Q 1250 3563 1034 2750 
L 3009 2750 
z
M 2444 4913 
Q 3194 4913 3494 4250 
Q 3794 3591 3566 2422 
Q 3341 1256 2781 594 
Q 2225 -72 1475 -72 
Q 722 -72 425 594 
Q 128 1256 353 2422 
Q 581 3591 1134 4250 
Q 1691 4913 2444 4913 
z
" transform="scale(0.015625)"/>
       <path id="DejaVuSans-Oblique-6c" d="M 1172 4863 
L 1747 4863 
L 800 0 
L 225 0 
L 1172 4863 
z
" transform="scale(0.015625)"/>
       <path id="TimesNewRomanPSMT-64" d="M 2222 322 
Q 2013 103 1813 7 
Q 1613 -88 1381 -88 
Q 913 -88 563 304 
Q 213 697 213 1313 
Q 213 1928 600 2439 
Q 988 2950 1597 2950 
Q 1975 2950 2222 2709 
L 2222 3238 
Q 2222 3728 2198 3840 
Q 2175 3953 2125 3993 
Q 2075 4034 2000 4034 
Q 1919 4034 1784 3984 
L 1744 4094 
L 2597 4444 
L 2738 4444 
L 2738 1134 
Q 2738 631 2761 520 
Q 2784 409 2836 365 
Q 2888 322 2956 322 
Q 3041 322 3181 375 
L 3216 266 
L 2366 -88 
L 2222 -88 
L 2222 322 
z
M 2222 541 
L 2222 2016 
Q 2203 2228 2109 2403 
Q 2016 2578 1861 2667 
Q 1706 2756 1559 2756 
Q 1284 2756 1069 2509 
Q 784 2184 784 1559 
Q 784 928 1059 592 
Q 1334 256 1672 256 
Q 1956 256 2222 541 
z
" transform="scale(0.015625)"/>
      </defs>
      <use xlink:href="#TimesNewRomanPSMT-41" transform="translate(0 0.234375)"/>
      <use xlink:href="#TimesNewRomanPSMT-6e" transform="translate(72.216797 0.234375)"/>
      <use xlink:href="#TimesNewRomanPSMT-67" transform="translate(122.216797 0.234375)"/>
      <use xlink:href="#TimesNewRomanPSMT-75" transform="translate(172.216797 0.234375)"/>
      <use xlink:href="#TimesNewRomanPSMT-6c" transform="translate(222.216797 0.234375)"/>
      <use xlink:href="#TimesNewRomanPSMT-61" transform="translate(250 0.234375)"/>
      <use xlink:href="#TimesNewRomanPSMT-72" transform="translate(294.384766 0.234375)"/>
      <use xlink:href="#TimesNewRomanPSMT-20" transform="translate(327.685547 0.234375)"/>
      <use xlink:href="#TimesNewRomanPSMT-70" transform="translate(352.685547 0.234375)"/>
      <use xlink:href="#TimesNewRomanPSMT-6f" transform="translate(402.685547 0.234375)"/>
      <use xlink:href="#TimesNewRomanPSMT-73" transform="translate(452.685547 0.234375)"/>
      <use xlink:href="#TimesNewRomanPSMT-69" transform="translate(491.601562 0.234375)"/>
      <use xlink:href="#TimesNewRomanPSMT-74" transform="translate(519.384766 0.234375)"/>
      <use xlink:href="#TimesNewRomanPSMT-69" transform="translate(547.167969 0.234375)"/>
      <use xlink:href="#TimesNewRomanPSMT-6f" transform="translate(574.951172 0.234375)"/>
      <use xlink:href="#TimesNewRomanPSMT-6e" transform="translate(624.951172 0.234375)"/>
      <use xlink:href="#TimesNewRomanPSMT-20" transform="translate(674.951172 0.234375)"/>
      <use xlink:href="#TimesNewRomanPSMT-6f" transform="translate(699.951172 0.234375)"/>
      <use xlink:href="#TimesNewRomanPSMT-66" transform="translate(749.951172 0.234375)"/>
      <use xlink:href="#TimesNewRomanPSMT-20" transform="translate(783.251953 0.234375)"/>
      <use xlink:href="#TimesNewRomanPSMT-74" transform="translate(808.251953 0.234375)"/>
      <use xlink:href="#TimesNewRomanPSMT-68" transform="translate(836.035156 0.234375)"/>
      <use xlink:href="#TimesNewRomanPSMT-65" transform="translate(886.035156 0.234375)"/>
      <use xlink:href="#TimesNewRomanPSMT-20" transform="translate(930.419922 0.234375)"/>
      <use xlink:href="#TimesNewRomanPSMT-6c" transform="translate(955.419922 0.234375)"/>
      <use xlink:href="#TimesNewRomanPSMT-69" transform="translate(983.203125 0.234375)"/>
      <use xlink:href="#TimesNewRomanPSMT-6e" transform="translate(1010.986328 0.234375)"/>
      <use xlink:href="#TimesNewRomanPSMT-6b" transform="translate(1060.986328 0.234375)"/>
      <use xlink:href="#TimesNewRomanPSMT-20" transform="translate(1110.986328 0.234375)"/>
      <use xlink:href="#TimesNewRomanPSMT-2d" transform="translate(1135.986328 0.234375)"/>
      <use xlink:href="#TimesNewRomanPSMT-20" transform="translate(1169.287109 0.234375)"/>
      <use xlink:href="#DejaVuSans-Oblique-3b8" transform="translate(1194.287109 0.234375)"/>
      <use xlink:href="#DejaVuSans-Oblique-6c" transform="translate(1255.46875 -16.171875) scale(0.7)"/>
      <use xlink:href="#TimesNewRomanPSMT-20" transform="translate(1277.651367 0.234375)"/>
      <use xlink:href="#TimesNewRomanPSMT-28" transform="translate(1302.651367 0.234375)"/>
      <use xlink:href="#TimesNewRomanPSMT-72" transform="translate(1335.952148 0.234375)"/>
      <use xlink:href="#TimesNewRomanPSMT-61" transform="translate(1369.25293 0.234375)"/>
      <use xlink:href="#TimesNewRomanPSMT-64" transform="translate(1413.637695 0.234375)"/>
      <use xlink:href="#TimesNewRomanPSMT-29" transform="translate(1463.637695 0.234375)"/>
     </g>
    </g>
   </g>
   <g id="line2d_29">
    <path d="M 69.218182 143.333007 
L 69.294273 143.323931 
L 69.370364 143.687959 
L 69.4008 143.347238 
L 69.446455 143.347723 
L 69.461673 142.530696 
L 69.5682 142.664192 
L 69.598636 142.667407 
L 69.674727 143.654481 
L 69.705164 142.759068 
L 69.750818 142.765684 
L 69.826909 143.582877 
L 69.842127 142.396401 
L 69.903 142.403153 
L 70.024745 144.951317 
L 70.055182 144.953071 
L 70.176927 144.301465 
L 70.207364 144.301479 
L 70.298673 142.367017 
L 70.329109 142.36955 
L 70.359545 142.372731 
L 70.374764 140.825855 
L 70.481291 141.057965 
L 70.511727 141.065909 
L 70.526945 140.587905 
L 70.603036 141.648543 
L 70.663909 141.658921 
L 70.755218 139.210365 
L 70.785655 139.218374 
L 70.816091 139.227565 
L 70.953055 141.03298 
L 70.968273 141.035036 
L 71.059582 138.679117 
L 71.105236 138.687129 
L 71.120455 138.690448 
L 71.196545 139.488085 
L 71.226982 139.235768 
L 71.272636 139.239502 
L 71.379164 137.954829 
L 71.424818 137.961097 
L 71.500909 139.422679 
L 71.531345 138.888499 
L 71.577 138.888843 
L 71.7444 143.43215 
L 71.881364 142.695032 
L 72.018327 140.802351 
L 72.109636 140.5249 
L 72.185727 140.61996 
L 72.261818 139.85694 
L 72.277036 141.023968 
L 72.337909 140.849607 
L 72.474873 137.576531 
L 72.490091 137.524838 
L 72.505309 138.313845 
L 72.596618 138.014834 
L 72.642273 137.833801 
L 72.718364 136.25066 
L 72.7488 137.025583 
L 72.824891 136.135792 
L 72.870545 135.901667 
L 73.007509 133.463754 
L 73.327091 131.431359 
L 73.342309 132.545414 
L 73.433618 131.615082 
L 73.479273 131.241379 
L 73.570582 132.997656 
L 73.601018 132.720183 
L 73.631455 132.437858 
L 73.646673 133.398457 
L 73.737982 132.618317 
L 73.783636 132.14894 
L 73.9206 127.973166 
L 74.088 125.743873 
L 74.209745 122.595987 
L 74.2554 123.199451 
L 74.392364 121.124039 
L 74.483673 122.228207 
L 74.468455 120.861848 
L 74.514109 121.82146 
L 74.544545 121.411657 
L 74.666291 117.961533 
L 74.925 113.328024 
L 75.001091 111.223064 
L 75.061964 111.241566 
L 76.142455 95.013884 
L 76.218545 92.725502 
L 76.2642 92.80579 
L 76.964236 84.820644 
L 76.979455 84.668356 
L 76.994673 85.283598 
L 77.055545 84.690868 
L 77.146855 85.491613 
L 77.131636 84.385011 
L 77.177291 85.216309 
L 77.207727 84.945587 
L 77.222945 85.924239 
L 77.314255 85.001602 
L 77.512091 82.552965 
L 77.694709 80.0382 
L 77.740364 79.785599 
L 77.877327 76.819267 
L 77.892545 76.757231 
L 77.968636 75.175946 
L 77.999073 76.627339 
L 78.044727 76.504423 
L 78.120818 75.813381 
L 78.151255 76.192282 
L 78.196909 76.1372 
L 78.288218 74.500819 
L 78.318655 74.507695 
L 78.349091 74.523061 
L 78.4404 74.100974 
L 78.470836 74.161338 
L 78.546927 74.593598 
L 78.653455 75.032088 
L 78.790418 79.135079 
L 78.820855 78.819457 
L 79.033909 80.843038 
L 79.170873 83.162615 
L 79.414364 86.233849 
L 79.490455 87.684342 
L 79.551327 87.530234 
L 79.870909 93.284034 
L 80.068745 98.122543 
L 80.631818 111.211161 
L 80.799218 118.507792 
L 81.544909 142.804538 
L 81.757964 152.348165 
L 82.229727 171.5272 
L 82.488436 181.323691 
L 82.914545 195.858256 
L 83.051509 202.461734 
L 83.827636 220.440224 
L 83.842855 220.415964 
L 84.360273 230.609677 
L 84.421145 230.246616 
L 84.816818 235.623384 
L 84.832036 235.072859 
L 84.892909 235.924661 
L 84.923345 235.666147 
L 85.273364 239.310631 
L 85.364673 237.49647 
L 85.395109 237.797224 
L 85.440764 237.575784 
L 85.501636 238.141737 
L 85.592945 237.549894 
L 85.608164 237.67489 
L 85.653818 238.044728 
L 85.669036 236.300042 
L 85.775564 236.702202 
L 85.821218 236.64044 
L 86.034273 239.195872 
L 86.049491 237.670919 
L 86.1408 238.119959 
L 86.186455 238.307633 
L 86.277764 237.356138 
L 86.3082 237.449747 
L 86.414727 237.685728 
L 86.506036 235.636813 
L 86.566909 235.706757 
L 86.582127 235.564166 
L 86.643 235.596577 
L 86.734309 237.273986 
L 86.779964 237.233155 
L 86.795182 237.216706 
L 86.871273 236.444716 
L 86.916927 236.49165 
L 86.947364 236.414217 
L 87.023455 235.117648 
L 87.069109 235.352398 
L 87.099545 235.225345 
L 87.221291 233.32786 
L 87.266945 233.688444 
L 87.632182 230.499704 
L 87.784364 228.927969 
L 87.799582 228.966568 
L 87.8148 228.762127 
L 87.936545 225.776945 
L 88.134382 220.951097 
L 88.453964 213.103614 
L 88.758327 203.392653 
L 89.717073 173.349576 
L 90.523636 136.254047 
L 90.706255 125.286121 
L 91.969364 72.822619 
L 91.984582 73.050676 
L 92.015018 72.173231 
L 92.578091 58.534204 
L 92.593309 59.093991 
L 92.654182 57.916309 
L 92.730273 56.637889 
L 92.806364 54.487057 
L 92.867236 54.746385 
L 92.897673 55.183263 
L 93.034636 53.297363 
L 93.125945 54.315481 
L 93.110727 52.907764 
L 93.156382 53.936412 
L 94.023818 44.443636 
L 94.115127 45.159441 
L 94.145564 45.144923 
L 94.176 45.141342 
L 94.312964 47.835761 
L 94.328182 47.863 
L 94.3434 47.591364 
L 94.434709 47.811676 
L 94.632545 48.199362 
L 94.723855 47.486086 
L 94.708636 48.388775 
L 94.769509 47.794286 
L 94.784727 47.90285 
L 94.921691 51.392304 
L 94.952127 51.272958 
L 95.165182 54.588444 
L 95.317364 58.598097 
L 95.332582 58.242678 
L 95.408673 58.131036 
L 95.621727 61.144477 
L 95.636945 60.978823 
L 95.667382 61.550286 
L 96.154364 71.671374 
L 96.291327 76.56822 
L 97.280509 107.564301 
L 98.132727 147.935986 
L 98.619709 171.254163 
L 99.411055 200.803864 
L 100.171964 221.849836 
L 100.598073 228.436317 
L 100.643727 229.095243 
L 100.658945 227.941847 
L 100.719818 228.757936 
L 100.811127 228.294111 
L 100.795909 229.195821 
L 100.826345 228.471931 
L 101.161145 231.070605 
L 101.404636 233.079189 
L 101.5416 235.055811 
L 101.556818 235.083167 
L 101.632909 235.543186 
L 101.678564 235.490688 
L 101.709 235.491067 
L 101.724218 235.744665 
L 101.785091 235.700947 
L 101.952491 233.068963 
L 102.241636 232.225351 
L 102.256855 232.558607 
L 102.317727 232.093364 
L 102.576436 226.809577 
L 102.774273 223.430827 
L 102.911236 221.083975 
L 102.941673 221.380679 
L 103.230818 217.347721 
L 103.246036 218.318762 
L 103.322127 216.604808 
L 103.961291 200.083769 
L 104.600455 176.451225 
L 104.828727 166.243846 
L 104.935255 162.159264 
L 106.822309 86.162287 
L 107.187545 77.962875 
L 107.202764 78.497291 
L 107.263636 76.987522 
L 107.446255 71.678658 
L 108.131073 59.273848 
L 108.481091 54.028741 
L 108.557182 52.688716 
L 108.602836 52.795335 
L 108.937636 51.32775 
L 108.952855 51.817699 
L 109.044164 51.338497 
L 109.089818 51.289939 
L 109.165909 51.051017 
L 109.318091 53.076274 
L 109.333309 52.167562 
L 109.424618 52.745801 
L 109.561582 53.522119 
L 109.622455 53.826665 
L 109.698545 54.877741 
L 109.7442 54.532008 
L 109.774636 54.742288 
L 109.789855 53.654381 
L 109.881164 54.429699 
L 109.926818 54.825869 
L 110.018127 53.337225 
L 110.048564 53.649767 
L 110.383364 57.996082 
L 110.565982 61.05444 
L 110.763818 66.342549 
L 110.916 70.00422 
L 111.524727 85.326918 
L 111.539945 84.823179 
L 111.5856 86.297676 
L 112.285636 111.699628 
L 112.437818 120.281675 
L 112.453036 119.938252 
L 114.264 194.431265 
L 114.279218 194.016309 
L 114.324873 195.509499 
L 115.314055 224.011452 
L 115.983655 234.330465 
L 116.090182 235.889981 
L 116.227145 237.24722 
L 116.242364 237.346925 
L 116.257582 236.875023 
L 116.333673 237.214797 
L 116.394545 237.521627 
L 116.470636 238.978169 
L 116.501073 237.716967 
L 116.546727 237.858515 
L 116.622818 239.114007 
L 116.668473 238.698018 
L 116.698909 238.733199 
L 116.775 239.015747 
L 116.790218 238.477867 
L 116.851091 238.450227 
L 116.927182 237.691866 
L 116.957618 238.38177 
L 117.003273 238.276289 
L 117.140236 236.197572 
L 117.155455 236.13251 
L 117.292418 233.83832 
L 117.322855 234.008906 
L 117.459818 233.311178 
L 117.596782 230.339949 
L 117.627218 231.115783 
L 117.764182 229.687887 
L 117.7794 230.184743 
L 117.840273 229.438164 
L 117.870709 229.916636 
L 118.449 220.922442 
L 118.631618 216.410569 
L 119.1186 202.148795 
L 119.970818 173.082754 
L 120.168655 164.003581 
L 121.903527 92.797242 
L 122.892709 62.725453 
L 123.166636 58.209878 
L 123.181855 59.313302 
L 123.257945 57.882486 
L 123.623182 54.049288 
L 123.714491 54.695327 
L 123.699273 53.982261 
L 123.744927 54.435528 
L 124.003636 51.990857 
L 124.018855 53.160808 
L 124.110164 51.904149 
L 124.231909 51.534571 
L 124.368873 48.721761 
L 124.384091 48.710951 
L 124.444964 48.22149 
L 124.490618 48.650321 
L 124.536273 48.687773 
L 124.658018 49.936916 
L 124.688455 50.02046 
L 124.764545 51.314406 
L 124.8102 51.214673 
L 124.916727 51.615568 
L 124.931945 50.443697 
L 125.008036 52.220966 
L 125.829818 58.603301 
L 126.012436 63.996905 
L 126.575509 77.941344 
L 127.001618 93.612548 
L 128.036455 133.975108 
L 128.523436 157.19209 
L 129.527836 197.263138 
L 129.969164 208.265209 
L 130.471364 219.105601 
L 130.486582 218.314849 
L 130.547455 219.464023 
L 130.699636 224.775156 
L 131.080091 230.294353 
L 131.232273 232.101085 
L 131.323582 233.062731 
L 131.384455 233.537812 
L 131.521418 236.733628 
L 131.536636 236.818939 
L 131.627945 235.896359 
L 131.658382 236.027402 
L 131.764909 236.433288 
L 131.856218 235.937005 
L 131.886655 235.98635 
L 131.917091 236.02422 
L 132.0084 236.835923 
L 132.054055 236.821347 
L 132.084491 236.911281 
L 132.145364 236.8279 
L 132.236673 238.475047 
L 132.267109 238.381368 
L 132.449727 237.526683 
L 132.586691 236.510804 
L 132.617127 236.903886 
L 132.754091 235.58341 
L 132.769309 236.696913 
L 132.8454 235.158856 
L 132.982364 232.964152 
L 133.058455 231.591055 
L 133.104109 232.441052 
L 133.591091 224.620406 
L 133.743273 220.659555 
L 133.758491 220.765875 
L 134.336782 205.321099 
L 134.656364 193.077695 
L 134.808545 185.419722 
L 134.945509 180.824415 
L 135.949909 137.220318 
L 136.223836 126.424192 
L 137.319545 83.190946 
L 137.334764 83.370595 
L 137.3652 82.445914 
L 138.080455 63.336788 
L 138.095673 63.956458 
L 138.156545 62.816372 
L 138.339164 58.093636 
L 138.400036 58.556846 
L 138.719618 53.83576 
L 138.917455 52.491202 
L 138.947891 52.537393 
L 139.221818 51.177306 
L 139.237036 52.498587 
L 139.328345 51.473034 
L 139.374 51.314253 
L 139.495745 48.870705 
L 139.602273 48.721173 
L 139.693582 48.113339 
L 139.724018 48.133209 
L 139.845764 48.389851 
L 139.906636 48.550993 
L 139.997945 47.679855 
L 140.028382 47.809925 
L 140.058818 47.951321 
L 140.134909 49.584873 
L 140.180564 49.434525 
L 140.271873 50.715134 
L 140.363182 52.242358 
L 140.500145 53.510679 
L 140.819727 57.611913 
L 140.956691 61.003229 
L 141.489327 71.660249 
L 142.189364 91.494802 
L 142.417636 101.280413 
L 142.432855 101.103264 
L 143.452473 144.337676 
L 144.532964 188.856112 
L 145.156909 208.237945 
L 145.172127 207.933891 
L 146.039564 228.215963 
L 146.222182 230.618698 
L 146.2374 229.455337 
L 146.754818 234.430065 
L 146.770036 233.576288 
L 146.876564 233.795419 
L 146.983091 234.081855 
L 147.120055 235.541141 
L 147.135273 235.560655 
L 147.211364 236.262342 
L 147.2418 235.99527 
L 147.287455 235.978049 
L 147.363545 235.407454 
L 147.454855 236.98127 
L 147.485291 236.894291 
L 147.515727 236.795745 
L 147.591818 235.005349 
L 147.637473 235.456993 
L 147.667909 235.305324 
L 147.683127 236.113406 
L 147.774436 235.843158 
L 147.820091 235.537548 
L 147.835309 236.69586 
L 147.926618 235.28505 
L 147.972273 234.893796 
L 148.048364 232.798429 
L 148.094018 233.1501 
L 148.352727 229.283898 
L 148.489691 225.677061 
L 148.900582 217.531853 
L 149.646273 199.750659 
L 149.844109 194.073574 
L 150.407182 170.920253 
L 150.605018 161.431076 
L 152.507291 83.416028 
L 153.146455 66.146983 
L 153.161673 66.883217 
L 153.222545 65.588958 
L 153.237764 65.713102 
L 153.831273 55.251855 
L 153.846491 55.924708 
L 153.907364 55.165716 
L 154.044327 51.537518 
L 154.668273 45.73001 
L 154.683491 46.480773 
L 154.7748 45.863584 
L 154.820455 45.813135 
L 154.9422 46.705022 
L 154.972636 46.728102 
L 155.140036 48.434439 
L 155.292218 49.216894 
L 155.353091 49.523262 
L 155.490055 51.258758 
L 155.581364 52.52875 
L 155.748764 55.700515 
L 156.174873 61.305945 
L 156.494455 67.039631 
L 156.646636 71.887506 
L 156.798818 75.060634 
L 156.814036 74.695594 
L 156.859691 75.876576 
L 157.529291 96.333142 
L 158.488036 134.77199 
L 160.222909 207.509063 
L 160.238127 207.501745 
L 160.588145 214.631544 
L 161.151218 225.742459 
L 161.653418 232.332318 
L 161.896909 234.280125 
L 161.912127 233.23077 
L 162.003436 233.462432 
L 162.049091 233.718711 
L 162.170836 236.434621 
L 162.201273 236.549345 
L 162.216491 236.077468 
L 162.277364 236.264446 
L 162.353455 237.343234 
L 162.399109 237.202923 
L 162.429545 237.240616 
L 162.520855 237.818788 
L 162.551291 237.811851 
L 162.581727 237.793903 
L 162.673036 238.26275 
L 162.703473 238.202011 
L 162.733909 238.130565 
L 162.855655 236.901835 
L 162.886091 236.774747 
L 162.901309 237.151952 
L 162.962182 236.851289 
L 162.9774 237.387763 
L 163.068709 237.003151 
L 163.342636 234.457595 
L 163.555691 230.682565 
L 163.586127 230.906409 
L 163.8144 225.814709 
L 164.027455 221.156473 
L 164.103545 218.204199 
L 164.1492 218.728755 
L 164.484 213.440883 
L 164.499218 214.302231 
L 164.560091 212.650412 
L 164.864455 203.428211 
L 165.047073 195.624932 
L 165.671018 170.01927 
L 167.968964 78.109541 
L 168.592909 63.076434 
L 168.608127 63.419982 
L 168.669 62.304104 
L 168.805964 58.635559 
L 168.8364 59.081308 
L 169.034236 56.723414 
L 169.429909 51.02498 
L 169.064673 56.931365 
L 169.551655 51.408773 
L 169.658182 50.15272 
L 169.734273 50.310715 
L 169.749491 51.583918 
L 169.8408 51.207552 
L 169.886455 51.081523 
L 169.977764 52.680268 
L 170.023418 52.629276 
L 170.038636 52.617641 
L 170.099509 51.479979 
L 170.145164 52.053582 
L 170.190818 52.089513 
L 170.266909 52.512709 
L 170.312564 52.460226 
L 170.343 52.54312 
L 170.479964 53.933172 
L 170.571273 54.526852 
L 170.662582 52.905623 
L 170.693018 53.112513 
L 170.738673 52.964072 
L 170.951727 54.65139 
L 170.966945 53.818136 
L 171.058255 54.325438 
L 171.256091 56.267654 
L 171.393055 59.890756 
L 171.940909 70.131278 
L 172.245273 80.308692 
L 172.260491 80.152042 
L 172.275709 80.598641 
L 172.930091 103.242251 
L 173.112709 110.194169 
L 175.806327 216.244595 
L 176.430273 228.853639 
L 176.445491 227.892028 
L 176.521582 229.433265 
L 177.039 235.599845 
L 177.130309 234.224708 
L 177.160745 234.43208 
L 177.267273 235.796801 
L 177.404236 237.15016 
L 177.419455 237.205 
L 177.434673 236.203183 
L 177.525982 237.01831 
L 177.571636 237.103564 
L 177.647727 239.666744 
L 177.693382 239.110113 
L 177.799909 239.141178 
L 177.815127 239.521431 
L 177.891218 238.706148 
L 177.952091 238.547759 
L 177.967309 238.913699 
L 178.0434 238.245357 
L 178.104273 237.969765 
L 178.195582 238.763155 
L 178.226018 238.577376 
L 178.256455 238.380115 
L 178.3782 235.871518 
L 178.636909 232.899078 
L 179.580436 217.761063 
L 180.234818 199.528594 
L 180.463091 189.516695 
L 180.478309 189.707999 
L 180.493527 189.126656 
L 180.965291 166.790758 
L 183.034964 82.307551 
L 183.780655 62.947971 
L 183.826309 62.952461 
L 184.039364 59.082157 
L 184.054582 60.097998 
L 184.130673 58.795426 
L 184.419818 53.857933 
L 184.556782 51.210364 
L 184.800273 48.79419 
L 184.922018 48.886417 
L 185.332909 46.661935 
L 185.409 47.075174 
L 185.545964 49.766639 
L 185.561182 49.806045 
L 185.682927 51.206357 
L 185.941636 52.459405 
L 185.956855 51.869919 
L 186.048164 52.427189 
L 186.5808 57.964671 
L 186.763418 62.643775 
L 187.235182 73.161147 
L 187.448236 79.388818 
L 188.072182 99.584192 
L 188.300455 109.827999 
L 188.315673 109.132668 
L 188.361327 110.985607 
L 189.061364 143.386563 
L 189.213545 150.019222 
L 189.228764 148.800268 
L 189.289636 151.50712 
L 189.746182 172.331741 
L 189.913582 178.826546 
L 190.583182 203.067447 
L 190.5984 201.799457 
L 191.115818 214.848443 
L 191.131036 214.062072 
L 191.191909 215.423863 
L 191.207127 215.091444 
L 191.876727 231.171545 
L 192.013691 234.381295 
L 192.455018 238.041962 
L 192.485455 238.21582 
L 192.500673 237.330729 
L 192.576764 238.603133 
L 192.637636 238.854061 
L 192.652855 238.355983 
L 192.728945 239.129681 
L 192.942 239.777795 
L 192.972436 240.729568 
L 193.048527 239.606609 
L 193.094182 239.549096 
L 193.215927 238.067049 
L 193.246364 237.967133 
L 193.261582 238.826266 
L 193.368109 238.587643 
L 193.474636 237.937865 
L 193.489855 239.340434 
L 193.581164 238.551881 
L 193.626818 238.19714 
L 193.779 234.284422 
L 193.794218 234.86084 
L 193.855091 234.21681 
L 194.007273 230.105788 
L 194.311636 226.426506 
L 194.463818 220.549433 
L 194.920364 211.569222 
L 194.935582 211.715997 
L 194.9508 211.304305 
L 195.483436 193.740249 
L 196.092164 168.300789 
L 198.344455 77.627032 
L 198.359673 77.717694 
L 198.374891 77.282986 
L 199.105364 59.695868 
L 199.561909 54.080984 
L 199.638 52.828171 
L 199.653218 54.803939 
L 199.866273 53.366059 
L 199.881491 54.083497 
L 199.942364 53.615944 
L 200.079327 50.961119 
L 200.398909 48.804135 
L 200.475 48.358994 
L 200.505436 48.623028 
L 200.551091 48.605238 
L 200.733709 50.382456 
L 200.779364 50.488565 
L 200.916327 51.159919 
L 200.946764 51.077006 
L 201.235909 52.632092 
L 201.388091 54.559723 
L 201.616364 57.450114 
L 201.631582 56.898209 
L 201.692455 57.719029 
L 201.707673 57.425075 
L 202.149 64.05898 
L 202.301182 68.870255 
L 202.4838 73.709704 
L 203.183836 94.632739 
L 203.746909 117.885123 
L 203.899091 123.815389 
L 203.914309 123.786709 
L 204.736091 164.189433 
L 204.888273 170.566639 
L 205.070891 179.784572 
L 205.557873 195.060087 
L 206.075291 209.104842 
L 206.866636 227.328612 
L 206.881855 226.44552 
L 206.957945 227.79619 
L 207.627545 236.998191 
L 207.6732 236.589114 
L 207.703636 236.749495 
L 207.779727 237.930154 
L 207.825382 237.785819 
L 207.855818 237.892769 
L 207.947127 236.810691 
L 207.977564 236.875522 
L 208.008 236.929035 
L 208.023218 236.339346 
L 208.099309 237.243326 
L 208.160182 237.245973 
L 208.281927 235.48293 
L 208.312364 235.427302 
L 208.449327 233.968645 
L 208.464545 233.912786 
L 208.540636 232.404455 
L 208.571073 233.580712 
L 208.753691 232.121403 
L 208.768909 232.009899 
L 208.784127 232.946444 
L 208.875436 232.228614 
L 209.438509 226.345041 
L 209.605909 222.132064 
L 209.758091 218.413033 
L 209.834182 216.956872 
L 209.986364 212.650493 
L 210.001582 214.141038 
L 210.077673 212.303219 
L 210.716836 193.050196 
L 211.462527 163.183843 
L 213.288709 89.09679 
L 213.851782 74.196313 
L 213.943091 71.589337 
L 214.080055 65.756929 
L 214.551818 56.167847 
L 214.110491 66.416306 
L 214.567036 57.678007 
L 214.932273 53.882793 
L 214.947491 54.517377 
L 215.023582 53.749402 
L 215.084455 53.242259 
L 215.099673 54.090478 
L 215.190982 53.407977 
L 215.312727 52.296407 
L 215.388818 52.755991 
L 215.404036 54.133581 
L 215.495345 52.619499 
L 215.617091 52.023237 
L 215.784491 49.551718 
L 215.830145 49.574345 
L 215.845364 49.587346 
L 215.860582 48.938718 
L 215.951891 49.693881 
L 215.997545 49.80873 
L 216.073636 50.382254 
L 216.119291 50.107097 
L 216.149727 50.239563 
L 216.164945 49.780168 
L 216.241036 50.310921 
L 216.378 51.460548 
L 216.530182 54.879738 
L 216.621491 53.630144 
L 216.651927 53.947976 
L 217.199782 60.905958 
L 217.443273 66.918786 
L 217.610673 71.364418 
L 218.158527 87.445583 
L 218.2194 87.341562 
L 218.965091 116.329083 
L 219.208582 127.337808 
L 220.852145 194.316513 
L 221.597836 215.659464 
L 222.450055 232.727218 
L 222.693545 234.855081 
L 222.708764 234.381331 
L 222.784855 235.400588 
L 223.074 237.657542 
L 223.165309 236.045274 
L 223.195745 236.121839 
L 223.226182 236.18792 
L 223.317491 234.853336 
L 223.363145 234.880509 
L 223.378364 234.884205 
L 223.393582 235.948728 
L 223.500109 235.833719 
L 223.682727 235.534612 
L 223.697945 236.288946 
L 223.789255 235.819855 
L 223.834909 235.585928 
L 223.850127 235.997837 
L 223.911 235.635103 
L 224.047964 232.290174 
L 224.063182 232.165619 
L 224.0784 232.815811 
L 224.139273 232.275712 
L 224.154491 233.185709 
L 224.2458 232.31016 
L 224.367545 231.016227 
L 224.443636 231.16892 
L 224.458855 231.28036 
L 224.489291 230.867131 
L 224.534945 231.615937 
L 225.037145 221.743896 
L 225.539345 208.618135 
L 226.193727 187.116351 
L 226.422 175.593791 
L 226.437218 175.619289 
L 227.411182 131.147291 
L 227.5938 120.902321 
L 228.278618 96.116407 
L 229.237364 65.181076 
L 229.252582 65.497562 
L 229.298236 64.506545 
L 229.6026 60.39305 
L 229.846091 54.565885 
L 229.983055 52.625442 
L 230.302636 49.4209 
L 230.348291 49.518928 
L 230.759182 46.411301 
L 230.7744 47.024757 
L 230.850491 46.193965 
L 230.911364 46.086768 
L 231.063545 46.948367 
L 231.078764 46.75705 
L 231.154855 47.009701 
L 231.215727 47.129632 
L 231.337473 48.566803 
L 231.520091 49.490576 
L 231.596182 50.514238 
L 231.641836 50.308001 
L 231.976636 52.996247 
L 231.991855 52.058362 
L 232.052727 52.833374 
L 232.204909 57.200204 
L 232.402745 60.690957 
L 232.737545 67.575533 
L 232.889727 72.503786 
L 232.904945 72.348166 
L 232.935382 73.113344 
L 233.422364 88.03822 
L 233.6202 94.949243 
L 234.320236 123.784889 
L 236.207291 199.917857 
L 236.846455 216.967189 
L 236.861673 216.015826 
L 236.937764 217.644403 
L 237.303 226.549727 
L 237.379091 228.945018 
L 237.424745 228.754348 
L 237.835636 233.072287 
L 238.368273 236.131565 
L 238.444364 235.888682 
L 238.566109 237.136203 
L 238.596545 237.155499 
L 238.718291 236.061152 
L 238.748727 236.026088 
L 238.824818 235.508663 
L 238.855255 235.865674 
L 238.900909 235.729955 
L 238.916127 236.565389 
L 239.007436 236.023485 
L 239.053091 235.806011 
L 239.129182 234.336932 
L 239.174836 234.990796 
L 239.357455 233.941903 
L 239.372673 234.584801 
L 239.448764 233.297716 
L 239.737909 229.82324 
L 239.874873 225.54423 
L 240.422727 215.402241 
L 240.605345 210.14647 
L 241.031455 195.801248 
L 241.214073 190.347079 
L 242.248909 150.798161 
L 242.416309 141.875969 
L 243.8316 83.140685 
L 244.288145 72.330958 
L 244.318582 72.439277 
L 244.836 61.393163 
L 244.851218 61.674801 
L 244.896873 60.908748 
L 245.140364 56.081272 
L 245.307764 50.252085 
L 245.444727 48.686028 
L 245.520818 48.719397 
L 245.536036 49.469134 
L 245.596909 49.000105 
L 245.718655 47.026563 
L 245.749091 46.857825 
L 245.8404 48.123587 
L 245.870836 47.998478 
L 245.901273 47.883999 
L 245.916491 48.220719 
L 245.962145 48.07583 
L 245.977364 48.032777 
L 246.053455 47.245884 
L 246.068673 48.080797 
L 246.083891 48.058207 
L 246.129545 48.00644 
L 246.144764 48.641806 
L 246.251291 48.507724 
L 246.281727 48.528683 
L 246.433909 51.382933 
L 246.525218 49.960962 
L 246.555655 50.079572 
L 246.586091 50.208857 
L 246.662182 51.497794 
L 246.707836 51.225444 
L 246.814364 52.260703 
L 246.829582 51.273676 
L 246.905673 52.469108 
L 246.981764 52.381966 
L 247.347 56.905377 
L 247.499182 59.72316 
L 248.336182 76.448796 
L 248.473145 82.063025 
L 248.503582 81.68169 
L 249.234055 108.154044 
L 249.781909 134.044885 
L 250.0254 146.37551 
L 251.288509 197.25753 
L 252.262473 226.430506 
L 252.308127 226.17505 
L 252.642927 231.776043 
L 252.810327 232.621248 
L 253.053818 236.624709 
L 253.129909 236.496044 
L 253.221218 234.357449 
L 253.251655 234.592837 
L 253.662545 236.931722 
L 253.677764 236.842885 
L 253.738636 236.973802 
L 253.814727 237.487169 
L 253.845164 237.05795 
L 253.890818 237.06477 
L 254.058218 238.639475 
L 254.119091 238.495793 
L 254.256055 236.648992 
L 254.271273 236.5816 
L 254.286491 237.746614 
L 254.3778 237.060376 
L 254.438673 237.326136 
L 254.575636 236.135152 
L 254.697382 234.200578 
L 254.88 231.631812 
L 255.016964 229.276046 
L 255.0474 229.290756 
L 255.336545 223.692982 
L 255.534382 216.844237 
L 255.580036 217.77352 
L 256.173545 201.26046 
L 256.356164 193.405149 
L 257.162727 162.755419 
L 257.391 151.545275 
L 257.421436 150.76903 
L 258.988909 86.153573 
L 259.004127 87.109256 
L 259.065 85.173635 
L 259.521545 70.514958 
L 259.673727 67.7601 
L 259.688945 68.148421 
L 259.7346 67.171539 
L 259.765036 67.58423 
L 259.825909 66.350124 
L 259.841127 67.610319 
L 259.932436 66.074981 
L 260.510727 56.722725 
L 260.525945 57.868612 
L 260.617255 57.475055 
L 260.739 55.761829 
L 260.815091 54.536033 
L 260.845527 55.621911 
L 260.891182 55.337961 
L 261.012927 53.452139 
L 261.195545 52.540509 
L 261.058582 53.635814 
L 261.256418 52.863744 
L 261.271636 52.842275 
L 261.393382 51.541462 
L 261.4086 51.544724 
L 261.423818 51.550905 
L 261.499909 52.783791 
L 261.530345 52.038299 
L 261.576 52.129844 
L 261.712964 54.617113 
L 261.7434 54.427071 
L 261.804273 54.711744 
L 261.819491 53.736025 
L 261.9108 54.125639 
L 262.032545 55.422638 
L 262.108636 54.892565 
L 262.123855 54.659095 
L 262.184727 55.225115 
L 262.215164 54.941611 
L 262.276036 54.913081 
L 262.413 56.480592 
L 262.428218 55.441294 
L 262.519527 56.49051 
L 263.143473 66.583147 
L 263.478273 76.111214 
L 263.630455 80.926051 
L 263.645673 80.487718 
L 263.691327 81.88594 
L 263.950036 93.389647 
L 264.817473 127.453865 
L 266.445818 195.84365 
L 266.461036 194.536596 
L 267.206727 217.031671 
L 267.221945 216.65309 
L 267.2676 217.686073 
L 267.298036 217.347274 
L 267.663273 224.491414 
L 267.678491 224.250785 
L 267.724145 224.981993 
L 268.256782 231.585677 
L 268.424182 233.072831 
L 268.561145 236.003998 
L 268.880727 237.676356 
L 268.895945 237.060129 
L 268.972036 237.903766 
L 269.032909 237.911204 
L 269.048127 238.483472 
L 269.139436 238.220604 
L 269.2764 237.804359 
L 269.352491 237.874171 
L 269.413364 237.607346 
L 269.428582 238.461101 
L 269.519891 237.964472 
L 269.641636 237.15012 
L 269.7786 234.100983 
L 269.809036 234.254959 
L 270.022091 231.311159 
L 270.098182 229.470785 
L 270.143836 229.821995 
L 270.859091 218.424041 
L 270.996055 213.092916 
L 271.665655 192.446434 
L 272.533091 157.456087 
L 272.685273 147.574937 
L 272.700491 148.050111 
L 274.131 87.59935 
L 274.146218 88.663217 
L 274.207091 86.675074 
L 274.222309 87.193721 
L 274.739727 73.341251 
L 274.754945 74.565426 
L 274.831036 73.028412 
L 274.968 69.108319 
L 275.104964 64.741696 
L 275.561509 58.082076 
L 275.728909 55.343573 
L 275.805 52.989238 
L 275.850655 53.217005 
L 275.957182 51.254995 
L 276.094145 48.994588 
L 276.185455 48.491275 
L 276.200673 49.317479 
L 276.291982 48.913988 
L 276.413727 48.411289 
L 276.428945 50.144992 
L 276.520255 49.558172 
L 276.565909 49.496616 
L 276.687655 50.793418 
L 276.718091 50.808104 
L 276.733309 50.411942 
L 276.839836 50.481783 
L 276.870273 50.549757 
L 276.961582 49.572737 
L 277.007236 49.747727 
L 277.022455 49.811491 
L 277.159418 51.088807 
L 277.402909 52.898411 
L 277.539873 54.491467 
L 277.707273 56.599511 
L 277.844236 59.435811 
L 278.605145 72.55228 
L 278.848636 81.61351 
L 279.305182 96.853969 
L 279.335618 97.475448 
L 280.035655 126.775766 
L 281.740091 197.348564 
L 281.755309 196.450185 
L 281.816182 198.446926 
L 282.029236 203.852992 
L 282.805364 223.353316 
L 283.566273 235.173439 
L 283.581491 234.589237 
L 283.6728 235.242004 
L 283.870636 236.61706 
L 283.946727 237.856311 
L 283.977164 236.974009 
L 284.098909 237.487597 
L 284.235873 238.145381 
L 284.251091 238.146597 
L 284.327182 237.458506 
L 284.3424 238.2697 
L 284.357618 238.252623 
L 284.479364 237.930523 
L 284.494582 238.997885 
L 284.585891 237.789558 
L 284.707636 237.472532 
L 284.722855 238.027615 
L 284.783727 237.672352 
L 284.920691 235.831574 
L 285.088091 234.41275 
L 285.255491 230.270578 
L 285.803345 222.264762 
L 286.335982 209.455469 
L 286.731655 195.328271 
L 287.446909 168.265015 
L 287.599091 160.457736 
L 287.614309 161.10183 
L 287.659964 159.095036 
L 289.318745 90.776564 
L 290.110091 67.754998 
L 290.718818 58.992116 
L 290.734036 59.537763 
L 290.794909 58.740156 
L 290.825345 59.206754 
L 291.479727 51.468573 
L 291.510164 52.084283 
L 291.555818 51.923053 
L 291.647127 52.405118 
L 291.677564 52.339436 
L 291.708 52.28437 
L 291.723218 53.027934 
L 291.814527 52.75273 
L 291.860182 52.749859 
L 291.951491 51.965588 
L 291.981927 52.009962 
L 292.012364 52.065233 
L 292.103673 50.741673 
L 292.134109 50.843023 
L 292.164545 50.95562 
L 292.179764 50.473438 
L 292.271073 50.984519 
L 292.468909 51.62419 
L 292.484127 51.138945 
L 292.560218 52.144036 
L 292.697182 54.026648 
L 292.849364 56.585784 
L 292.864582 56.0304 
L 292.925455 56.817677 
L 292.955891 56.748988 
L 293.153727 60.895777 
L 293.305909 62.50169 
L 293.321127 61.974596 
L 293.382 63.1336 
L 293.397218 62.930953 
L 293.655927 70.235564 
L 294.158127 84.728401 
L 294.964691 113.431892 
L 296.197364 168.884316 
L 296.3952 180.421612 
L 297.080018 203.693668 
L 297.764836 221.73342 
L 297.871364 223.077604 
L 297.886582 221.20517 
L 297.977891 222.928467 
L 298.556182 231.644804 
L 298.5714 231.291605 
L 298.632273 231.906173 
L 298.647491 231.698691 
L 298.784455 233.861694 
L 298.860545 235.834744 
L 298.9062 235.785817 
L 298.936636 235.972464 
L 299.058382 237.892717 
L 299.164909 238.799004 
L 299.317091 239.695308 
L 299.4084 238.699428 
L 299.454055 238.710387 
L 299.545364 238.771127 
L 299.621455 238.282931 
L 299.667109 238.478593 
L 299.773636 237.983607 
L 299.788855 238.903346 
L 299.880164 238.172801 
L 299.925818 237.931242 
L 300.001909 236.3148 
L 300.047564 236.436984 
L 300.078 236.213488 
L 300.154091 234.503581 
L 300.199745 234.747525 
L 300.306273 233.432865 
L 300.443236 230.65669 
L 300.473673 231.111607 
L 300.610636 229.582778 
L 300.625855 229.820489 
L 300.671509 229.137862 
L 301.356327 216.909575 
L 301.599818 208.264083 
L 301.782436 203.101611 
L 302.497691 176.867286 
L 302.528127 177.166283 
L 303.106418 147.403016 
L 304.308655 97.898119 
L 304.795636 83.01432 
L 304.810855 83.801981 
L 304.871727 82.012953 
L 305.023909 76.962985 
L 305.039127 77.813381 
L 305.115218 75.964541 
L 305.663073 64.856941 
L 306.393545 53.124089 
L 306.408764 54.383312 
L 306.500073 54.089919 
L 306.621818 52.783565 
L 306.758782 50.970598 
L 306.850091 50.712676 
L 306.971836 49.673712 
L 307.002273 49.642796 
L 307.017491 49.924644 
L 307.078364 49.908303 
L 307.169673 48.880908 
L 307.200109 48.921414 
L 307.230545 48.972591 
L 307.245764 48.692501 
L 307.321855 49.145609 
L 307.382727 49.349692 
L 307.504473 51.328546 
L 307.534909 51.491852 
L 307.671873 53.951741 
L 307.702309 53.57664 
L 307.763182 54.063173 
L 307.7784 53.40989 
L 307.839273 53.953688 
L 307.915364 55.535754 
L 307.961018 55.148844 
L 308.448 61.278798 
L 308.584964 65.366423 
L 308.934982 74.374054 
L 309.771982 97.680014 
L 310.806818 138.930588 
L 310.959 147.360665 
L 311.187273 160.409072 
L 311.2938 163.720889 
L 312.2982 202.526945 
L 313.059109 223.261135 
L 313.241727 224.999821 
L 313.256945 225.024363 
L 313.546091 230.674103 
L 313.683055 234.164164 
L 314.002636 237.688937 
L 314.017855 237.019308 
L 314.154818 238.317205 
L 314.276564 240.880681 
L 314.535273 242.116364 
L 314.550491 241.604672 
L 314.657018 241.644979 
L 314.687455 241.65738 
L 314.8092 240.507904 
L 314.991818 240.083214 
L 315.067909 239.540503 
L 315.083127 240.226514 
L 315.098345 240.151819 
L 315.144 239.911084 
L 315.265745 238.651153 
L 315.296182 238.433896 
L 315.3114 239.366961 
L 315.372273 238.887374 
L 315.494018 235.952503 
L 315.600545 234.857887 
L 315.676636 232.186309 
L 315.722291 232.59845 
L 316.102745 226.335453 
L 316.285364 222.519626 
L 316.300582 224.829212 
L 316.391891 223.308123 
L 316.818 211.472471 
L 318.568091 138.788076 
L 318.857236 123.227077 
L 319.633364 93.230313 
L 319.648582 93.310922 
L 320.196436 77.888785 
L 320.987782 58.985914 
L 321.231273 54.724438 
L 321.3378 55.105106 
L 321.824782 50.590893 
L 322.068273 49.647133 
L 322.190018 47.920888 
L 322.220455 47.880104 
L 322.3422 48.868937 
L 322.372636 48.883156 
L 322.387855 48.034456 
L 322.448727 48.106755 
L 322.524818 50.199567 
L 322.555255 49.266643 
L 322.600909 49.404946 
L 322.616127 48.62298 
L 322.692218 49.690355 
L 322.753091 49.982591 
L 322.768309 49.214199 
L 322.874836 49.421163 
L 322.966145 50.809854 
L 322.996582 50.261978 
L 323.072673 52.540192 
L 323.514 56.955082 
L 323.6814 63.159356 
L 324.411873 77.788733 
L 325.081473 99.279826 
L 326.040218 139.232688 
L 327.622909 204.697176 
L 327.638127 204.464534 
L 327.668564 205.384347 
L 328.475127 226.272004 
L 329.144727 237.061361 
L 329.159945 236.849273 
L 329.220818 237.41922 
L 329.236036 237.371608 
L 329.266473 237.63305 
L 329.296909 237.884333 
L 329.388218 235.538262 
L 329.418655 235.74643 
L 329.449091 235.944276 
L 329.464309 234.666889 
L 329.555618 235.155994 
L 329.677364 235.647497 
L 329.768673 234.242748 
L 329.799109 234.312492 
L 329.829545 234.372439 
L 329.905636 235.720638 
L 329.920855 234.338827 
L 329.936073 234.347175 
L 329.981727 234.356959 
L 329.996945 234.799392 
L 330.073036 233.972441 
L 330.133909 233.878155 
L 330.149127 234.250816 
L 330.240436 233.948792 
L 330.286091 233.788627 
L 330.362182 232.44129 
L 330.407836 232.487377 
L 330.438273 232.321113 
L 330.575236 230.474453 
L 330.742636 228.97839 
L 330.605673 230.619724 
L 330.818727 229.074074 
L 330.833945 230.386153 
L 330.925255 229.153512 
L 331.412236 221.930174 
L 331.960091 210.217011 
L 332.142709 203.727043 
L 333.025364 174.362507 
L 333.314509 160.764625 
L 335.232 80.601693 
L 335.247218 80.990116 
L 335.764636 67.107124 
L 335.795073 67.837657 
L 336.373364 57.630964 
L 336.388582 57.946461 
L 336.449455 57.124933 
L 336.479891 56.894983 
L 337.058182 48.664646 
L 337.164709 49.610534 
L 337.210364 49.419448 
L 337.225582 50.376141 
L 337.316891 49.662467 
L 337.362545 49.552254 
L 337.499509 47.712125 
L 337.590818 47.632628 
L 337.666909 47.883484 
L 337.697345 47.655677 
L 337.743 47.754724 
L 337.819091 48.499107 
L 337.834309 47.669549 
L 337.849527 47.724902 
L 337.895182 47.907207 
L 337.971273 48.735119 
L 338.001709 48.091202 
L 338.047364 48.357962 
L 338.062582 47.39039 
L 338.138673 49.36995 
L 338.275636 50.725848 
L 338.473473 55.361123 
L 338.656091 57.667129 
L 338.793055 61.662399 
L 338.823491 61.593198 
L 339.493091 74.425268 
L 339.949636 86.752363 
L 340.117036 92.707011 
L 340.786636 118.737931 
L 340.938818 126.723081 
L 341.167091 138.858865 
L 341.349709 148.162589 
L 342.232364 182.76496 
L 342.247582 181.714189 
L 342.308455 183.990399 
L 342.491073 192.434455 
L 343.069364 209.273226 
L 343.084582 208.712841 
L 343.145455 210.327254 
L 343.297636 217.007195 
L 343.571564 224.014213 
L 343.617218 223.927149 
L 344.134636 233.363402 
L 344.149855 233.037102 
L 344.210727 233.797307 
L 344.439 236.244781 
L 344.454218 236.154878 
L 344.591182 236.872041 
L 344.682491 235.525916 
L 344.712927 235.711375 
L 344.819455 236.196353 
L 344.895545 236.180152 
L 344.910764 236.055424 
L 344.971636 236.253741 
L 345.123818 236.989209 
L 345.139036 236.866023 
L 345.199909 236.905032 
L 345.230345 237.809524 
L 345.306436 237.334306 
L 345.352091 237.278996 
L 345.367309 237.88194 
L 345.458618 237.415446 
L 345.580364 237.050734 
L 345.595582 237.537761 
L 345.656455 237.24088 
L 345.793418 234.359505 
L 345.808636 234.255827 
L 345.9456 231.774515 
L 346.036909 230.353335 
L 346.189091 228.130274 
L 346.204309 228.951367 
L 346.295618 228.569627 
L 346.676073 222.126198 
L 347.345673 207.618674 
L 347.893527 188.469278 
L 348.395727 166.372056 
L 348.578345 159.738445 
L 350.4654 81.516643 
L 350.906727 71.470085 
L 350.921945 71.495943 
L 351.652418 57.340242 
L 352.124182 52.294266 
L 352.1394 52.97376 
L 352.230709 52.173678 
L 352.291582 52.309509 
L 352.428545 51.384049 
L 352.443764 52.603536 
L 352.535073 51.953292 
L 352.580727 51.861669 
L 352.656818 51.291768 
L 352.672036 52.390712 
L 352.732909 52.374709 
L 352.748127 51.930442 
L 352.839436 52.278229 
L 352.885091 52.349787 
L 352.900309 52.048088 
L 352.9764 52.487958 
L 353.052491 53.061585 
L 353.113364 53.320942 
L 353.235109 54.525636 
L 353.341636 55.64032 
L 353.4786 56.865821 
L 353.493818 57.00492 
L 353.509036 55.643444 
L 353.600345 56.141968 
L 353.661218 55.944748 
L 354.178636 62.453279 
L 354.193855 60.965737 
L 354.269945 63.163423 
L 354.741709 74.742984 
L 355.548273 98.821525 
L 355.746109 111.955868 
L 358.135364 206.232096 
L 358.1658 206.144725 
L 358.987582 226.072407 
L 359.124545 230.031773 
L 359.200636 231.410495 
L 359.261509 231.229798 
L 359.581091 234.323164 
L 359.596309 233.992101 
L 359.6724 234.56322 
L 359.733273 235.018404 
L 359.748491 234.111157 
L 359.824582 235.281601 
L 359.885455 235.632432 
L 359.961545 237.36703 
L 360.0072 236.653772 
L 360.113727 237.374604 
L 360.189818 237.751865 
L 360.235473 237.631455 
L 360.265909 237.669516 
L 360.357218 239.847635 
L 360.402873 239.834193 
L 360.418091 239.824231 
L 360.433309 240.359913 
L 360.494182 240.282432 
L 360.615927 238.547826 
L 360.722455 238.099386 
L 360.905073 235.467841 
L 361.102909 234.681587 
L 361.118127 235.049198 
L 361.179 234.45002 
L 361.635545 228.408558 
L 361.650764 228.420633 
L 362.168182 218.203971 
L 362.396455 210.732006 
L 362.868218 195.68968 
L 363.644345 165.364823 
L 365.911855 72.068337 
L 366.124909 67.263486 
L 366.140127 69.004999 
L 366.231436 67.078192 
L 366.505364 63.16277 
L 366.292309 67.459878 
L 366.520582 63.174029 
L 367.114091 54.045548 
L 367.129309 54.385949 
L 367.190182 53.803147 
L 367.2054 54.581929 
L 367.266273 54.052692 
L 367.281491 54.500262 
L 367.342364 54.027698 
L 367.479327 49.891867 
L 367.494545 49.807273 
L 367.509764 50.365452 
L 367.585855 49.532666 
L 367.798909 48.828506 
L 367.814127 49.00756 
L 367.875 48.939168 
L 367.890218 49.070621 
L 367.905436 49.06221 
L 367.951091 49.052634 
L 368.072836 50.08481 
L 368.103273 50.131624 
L 368.118491 49.623234 
L 368.225018 49.77333 
L 368.255455 49.868996 
L 368.392418 51.169692 
L 368.407636 51.245602 
L 368.422855 50.759347 
L 368.483727 51.103902 
L 368.498945 50.862269 
L 368.559818 51.262284 
L 368.712 52.488624 
L 368.727218 52.333744 
L 369.122891 56.952211 
L 369.655527 66.100668 
L 370.005545 74.949988 
L 370.157727 81.509388 
L 370.172945 81.33283 
L 370.842545 104.096147 
L 371.025164 110.889048 
L 371.983909 154.231347 
L 372.257836 167.447836 
L 373.277455 206.32123 
L 373.292673 205.574399 
L 373.353545 207.366097 
L 373.581818 214.129049 
L 373.581818 214.129049 
" clip-path="url(#p5e60fcc994)" style="fill: none; stroke: #000000; stroke-width: 0.5; stroke-linecap: square"/>
   </g>
   <g id="patch_3">
    <path d="M 54 252 
L 54 34.56 
" style="fill: none; stroke: #000000; stroke-width: 0.8; stroke-linejoin: miter; stroke-linecap: square"/>
   </g>
   <g id="patch_4">
    <path d="M 388.8 252 
L 388.8 34.56 
" style="fill: none; stroke: #000000; stroke-width: 0.8; stroke-linejoin: miter; stroke-linecap: square"/>
   </g>
   <g id="patch_5">
    <path d="M 54 252 
L 388.8 252 
" style="fill: none; stroke: #000000; stroke-width: 0.8; stroke-linejoin: miter; stroke-linecap: square"/>
   </g>
   <g id="patch_6">
    <path d="M 54 34.56 
L 388.8 34.56 
" style="fill: none; stroke: #000000; stroke-width: 0.8; stroke-linejoin: miter; stroke-linecap: square"/>
   </g>
   <g id="text_17">
    <!-- $\theta_{l}$ (rad) - (MJUKF) -->
    <g transform="translate(178.445 28.56) scale(0.11 -0.11)">
     <defs>
      <path id="TimesNewRomanPSMT-4d" d="M 2619 0 
L 981 3566 
L 981 734 
Q 981 344 1066 247 
Q 1181 116 1431 116 
L 1581 116 
L 1581 0 
L 106 0 
L 106 116 
L 256 116 
Q 525 116 638 278 
Q 706 378 706 734 
L 706 3503 
Q 706 3784 644 3909 
Q 600 4000 483 4061 
Q 366 4122 106 4122 
L 106 4238 
L 1306 4238 
L 2844 922 
L 4356 4238 
L 5556 4238 
L 5556 4122 
L 5409 4122 
Q 5138 4122 5025 3959 
Q 4956 3859 4956 3503 
L 4956 734 
Q 4956 344 5044 247 
Q 5159 116 5409 116 
L 5556 116 
L 5556 0 
L 3756 0 
L 3756 116 
L 3906 116 
Q 4178 116 4288 278 
Q 4356 378 4356 734 
L 4356 3566 
L 2722 0 
L 2619 0 
z
" transform="scale(0.015625)"/>
      <path id="TimesNewRomanPSMT-4a" d="M 638 4122 
L 638 4238 
L 2453 4238 
L 2453 4122 
L 2300 4122 
Q 2041 4122 1922 3969 
Q 1847 3869 1847 3488 
L 1847 1416 
Q 1847 938 1742 641 
Q 1638 344 1381 123 
Q 1125 -97 763 -97 
Q 469 -97 300 48 
Q 131 194 131 381 
Q 131 534 209 613 
Q 313 709 450 709 
Q 550 709 629 643 
Q 709 578 831 294 
Q 903 125 1016 125 
Q 1100 125 1173 228 
Q 1247 331 1247 594 
L 1247 3488 
Q 1247 3809 1206 3913 
Q 1175 3991 1075 4047 
Q 941 4122 791 4122 
L 638 4122 
z
" transform="scale(0.015625)"/>
      <path id="TimesNewRomanPSMT-55" d="M 3053 4122 
L 3053 4238 
L 4553 4238 
L 4553 4122 
L 4394 4122 
Q 4144 4122 4009 3913 
Q 3944 3816 3944 3463 
L 3944 1744 
Q 3944 1106 3817 754 
Q 3691 403 3320 151 
Q 2950 -100 2313 -100 
Q 1619 -100 1259 140 
Q 900 381 750 788 
Q 650 1066 650 1831 
L 650 3488 
Q 650 3878 542 4000 
Q 434 4122 194 4122 
L 34 4122 
L 34 4238 
L 1866 4238 
L 1866 4122 
L 1703 4122 
Q 1441 4122 1328 3956 
Q 1250 3844 1250 3488 
L 1250 1641 
Q 1250 1394 1295 1075 
Q 1341 756 1459 578 
Q 1578 400 1801 284 
Q 2025 169 2350 169 
Q 2766 169 3094 350 
Q 3422 531 3542 814 
Q 3663 1097 3663 1772 
L 3663 3488 
Q 3663 3884 3575 3984 
Q 3453 4122 3213 4122 
L 3053 4122 
z
" transform="scale(0.015625)"/>
      <path id="TimesNewRomanPSMT-4b" d="M 1913 2350 
L 3475 797 
Q 3859 413 4131 273 
Q 4403 134 4675 116 
L 4675 0 
L 2659 0 
L 2659 116 
Q 2841 116 2920 177 
Q 3000 238 3000 313 
Q 3000 388 2970 447 
Q 2941 506 2775 669 
L 1313 2116 
L 1313 750 
Q 1313 428 1353 325 
Q 1384 247 1484 191 
Q 1619 116 1769 116 
L 1913 116 
L 1913 0 
L 106 0 
L 106 116 
L 256 116 
Q 519 116 638 269 
Q 713 369 713 750 
L 713 3488 
Q 713 3809 672 3916 
Q 641 3991 544 4047 
Q 406 4122 256 4122 
L 106 4122 
L 106 4238 
L 1913 4238 
L 1913 4122 
L 1769 4122 
Q 1622 4122 1484 4050 
Q 1388 4000 1350 3900 
Q 1313 3800 1313 3488 
L 1313 2191 
Q 1375 2250 1741 2588 
Q 2669 3438 2863 3722 
Q 2947 3847 2947 3941 
Q 2947 4013 2881 4067 
Q 2816 4122 2659 4122 
L 2563 4122 
L 2563 4238 
L 4119 4238 
L 4119 4122 
Q 3981 4119 3868 4084 
Q 3756 4050 3593 3951 
Q 3431 3853 3194 3634 
Q 3125 3572 2559 2994 
L 1913 2350 
z
" transform="scale(0.015625)"/>
      <path id="TimesNewRomanPSMT-46" d="M 1309 4006 
L 1309 2341 
L 2081 2341 
Q 2347 2341 2470 2458 
Q 2594 2575 2634 2922 
L 2750 2922 
L 2750 1488 
L 2634 1488 
Q 2631 1734 2570 1850 
Q 2509 1966 2401 2023 
Q 2294 2081 2081 2081 
L 1309 2081 
L 1309 750 
Q 1309 428 1350 325 
Q 1381 247 1481 191 
Q 1619 116 1769 116 
L 1922 116 
L 1922 0 
L 103 0 
L 103 116 
L 253 116 
Q 516 116 634 269 
Q 709 369 709 750 
L 709 3488 
Q 709 3809 669 3913 
Q 638 3991 541 4047 
Q 406 4122 253 4122 
L 103 4122 
L 103 4238 
L 3256 4238 
L 3297 3306 
L 3188 3306 
Q 3106 3603 2998 3742 
Q 2891 3881 2733 3943 
Q 2575 4006 2244 4006 
L 1309 4006 
z
" transform="scale(0.015625)"/>
     </defs>
     <use xlink:href="#DejaVuSans-Oblique-3b8" transform="translate(0 0.234375)"/>
     <use xlink:href="#DejaVuSans-Oblique-6c" transform="translate(61.181641 -16.171875) scale(0.7)"/>
     <use xlink:href="#TimesNewRomanPSMT-20" transform="translate(83.364258 0.234375)"/>
     <use xlink:href="#TimesNewRomanPSMT-28" transform="translate(108.364258 0.234375)"/>
     <use xlink:href="#TimesNewRomanPSMT-72" transform="translate(141.665039 0.234375)"/>
     <use xlink:href="#TimesNewRomanPSMT-61" transform="translate(174.96582 0.234375)"/>
     <use xlink:href="#TimesNewRomanPSMT-64" transform="translate(219.350586 0.234375)"/>
     <use xlink:href="#TimesNewRomanPSMT-29" transform="translate(269.350586 0.234375)"/>
     <use xlink:href="#TimesNewRomanPSMT-20" transform="translate(302.651367 0.234375)"/>
     <use xlink:href="#TimesNewRomanPSMT-2d" transform="translate(327.651367 0.234375)"/>
     <use xlink:href="#TimesNewRomanPSMT-20" transform="translate(360.952148 0.234375)"/>
     <use xlink:href="#TimesNewRomanPSMT-28" transform="translate(385.952148 0.234375)"/>
     <use xlink:href="#TimesNewRomanPSMT-4d" transform="translate(419.25293 0.234375)"/>
     <use xlink:href="#TimesNewRomanPSMT-4a" transform="translate(508.168945 0.234375)"/>
     <use xlink:href="#TimesNewRomanPSMT-55" transform="translate(547.084961 0.234375)"/>
     <use xlink:href="#TimesNewRomanPSMT-4b" transform="translate(619.301758 0.234375)"/>
     <use xlink:href="#TimesNewRomanPSMT-46" transform="translate(691.518555 0.234375)"/>
     <use xlink:href="#TimesNewRomanPSMT-29" transform="translate(747.133789 0.234375)"/>
    </g>
   </g>
   <g id="legend_1">
    <g id="patch_7">
     <path d="M 341.4 152.119062 
L 381.8 152.119062 
Q 383.8 152.119062 383.8 150.119062 
L 383.8 136.440937 
Q 383.8 134.440937 381.8 134.440937 
L 341.4 134.440937 
Q 339.4 134.440937 339.4 136.440937 
L 339.4 150.119062 
Q 339.4 152.119062 341.4 152.119062 
z
" style="fill: #ffffff; opacity: 0.8; stroke: #cccccc; stroke-linejoin: miter"/>
    </g>
    <g id="line2d_30">
     <path d="M 343.4 142.539375 
L 353.4 142.539375 
L 363.4 142.539375 
" style="fill: none; stroke: #000000; stroke-width: 0.5; stroke-linecap: square"/>
    </g>
    <g id="text_18">
     <!-- $\theta_{l}$ -->
     <g transform="translate(371.4 146.039375) scale(0.1 -0.1)">
      <use xlink:href="#DejaVuSans-Oblique-3b8" transform="translate(0 0.234375)"/>
      <use xlink:href="#DejaVuSans-Oblique-6c" transform="translate(61.181641 -16.171875) scale(0.7)"/>
     </g>
    </g>
   </g>
  </g>
 </g>
 <defs>
  <clipPath id="p5e60fcc994">
   <rect x="54" y="34.56" width="334.8" height="217.44"/>
  </clipPath>
 </defs>
</svg>
