<?xml version="1.0" encoding="utf-8" standalone="no"?>
<!DOCTYPE svg PUBLIC "-//W3C//DTD SVG 1.1//EN"
  "http://www.w3.org/Graphics/SVG/1.1/DTD/svg11.dtd">
<svg xmlns:xlink="http://www.w3.org/1999/xlink" width="432pt" height="288pt" viewBox="0 0 432 288" xmlns="http://www.w3.org/2000/svg" version="1.1">
 <metadata>
  <rdf:RDF xmlns:dc="http://purl.org/dc/elements/1.1/" xmlns:cc="http://creativecommons.org/ns#" xmlns:rdf="http://www.w3.org/1999/02/22-rdf-syntax-ns#">
   <cc:Work>
    <dc:type rdf:resource="http://purl.org/dc/dcmitype/StillImage"/>
    <dc:date>2024-03-30T14:26:35.423549</dc:date>
    <dc:format>image/svg+xml</dc:format>
    <dc:creator>
     <cc:Agent>
      <dc:title>Matplotlib v3.8.3, https://matplotlib.org/</dc:title>
     </cc:Agent>
    </dc:creator>
   </cc:Work>
  </rdf:RDF>
 </metadata>
 <defs>
  <style type="text/css">*{stroke-linejoin: round; stroke-linecap: butt}</style>
 </defs>
 <g id="figure_1">
  <g id="patch_1">
   <path d="M 0 288 
L 432 288 
L 432 0 
L 0 0 
z
" style="fill: #ffffff"/>
  </g>
  <g id="axes_1">
   <g id="patch_2">
    <path d="M 54 252 
L 388.8 252 
L 388.8 34.56 
L 54 34.56 
z
" style="fill: #ffffff"/>
   </g>
   <g id="matplotlib.axis_1">
    <g id="xtick_1">
     <g id="line2d_1">
      <path d="M 69.218182 252 
L 69.218182 34.56 
" clip-path="url(#p9993185e75)" style="fill: none; stroke: #b0b0b0; stroke-width: 0.2; stroke-linecap: square"/>
     </g>
     <g id="line2d_2">
      <defs>
       <path id="m7bc5543c90" d="M 0 0 
L 0 3.5 
" style="stroke: #000000; stroke-width: 0.8"/>
      </defs>
      <g>
       <use xlink:href="#m7bc5543c90" x="69.218182" y="252" style="stroke: #000000; stroke-width: 0.8"/>
      </g>
     </g>
     <g id="text_1">
      <!-- 0.0 -->
      <g transform="translate(60.471463 267.358281) scale(0.11 -0.11)">
       <defs>
        <path id="DejaVuSans-30" d="M 2034 4250 
Q 1547 4250 1301 3770 
Q 1056 3291 1056 2328 
Q 1056 1369 1301 889 
Q 1547 409 2034 409 
Q 2525 409 2770 889 
Q 3016 1369 3016 2328 
Q 3016 3291 2770 3770 
Q 2525 4250 2034 4250 
z
M 2034 4750 
Q 2819 4750 3233 4129 
Q 3647 3509 3647 2328 
Q 3647 1150 3233 529 
Q 2819 -91 2034 -91 
Q 1250 -91 836 529 
Q 422 1150 422 2328 
Q 422 3509 836 4129 
Q 1250 4750 2034 4750 
z
" transform="scale(0.015625)"/>
        <path id="DejaVuSans-2e" d="M 684 794 
L 1344 794 
L 1344 0 
L 684 0 
L 684 794 
z
" transform="scale(0.015625)"/>
       </defs>
       <use xlink:href="#DejaVuSans-30"/>
       <use xlink:href="#DejaVuSans-2e" x="63.623047"/>
       <use xlink:href="#DejaVuSans-30" x="95.410156"/>
      </g>
     </g>
    </g>
    <g id="xtick_2">
     <g id="line2d_3">
      <path d="M 107.263636 252 
L 107.263636 34.56 
" clip-path="url(#p9993185e75)" style="fill: none; stroke: #b0b0b0; stroke-width: 0.2; stroke-linecap: square"/>
     </g>
     <g id="line2d_4">
      <g>
       <use xlink:href="#m7bc5543c90" x="107.263636" y="252" style="stroke: #000000; stroke-width: 0.8"/>
      </g>
     </g>
     <g id="text_2">
      <!-- 2.5 -->
      <g transform="translate(98.516918 267.358281) scale(0.11 -0.11)">
       <defs>
        <path id="DejaVuSans-32" d="M 1228 531 
L 3431 531 
L 3431 0 
L 469 0 
L 469 531 
Q 828 903 1448 1529 
Q 2069 2156 2228 2338 
Q 2531 2678 2651 2914 
Q 2772 3150 2772 3378 
Q 2772 3750 2511 3984 
Q 2250 4219 1831 4219 
Q 1534 4219 1204 4116 
Q 875 4013 500 3803 
L 500 4441 
Q 881 4594 1212 4672 
Q 1544 4750 1819 4750 
Q 2544 4750 2975 4387 
Q 3406 4025 3406 3419 
Q 3406 3131 3298 2873 
Q 3191 2616 2906 2266 
Q 2828 2175 2409 1742 
Q 1991 1309 1228 531 
z
" transform="scale(0.015625)"/>
        <path id="DejaVuSans-35" d="M 691 4666 
L 3169 4666 
L 3169 4134 
L 1269 4134 
L 1269 2991 
Q 1406 3038 1543 3061 
Q 1681 3084 1819 3084 
Q 2600 3084 3056 2656 
Q 3513 2228 3513 1497 
Q 3513 744 3044 326 
Q 2575 -91 1722 -91 
Q 1428 -91 1123 -41 
Q 819 9 494 109 
L 494 744 
Q 775 591 1075 516 
Q 1375 441 1709 441 
Q 2250 441 2565 725 
Q 2881 1009 2881 1497 
Q 2881 1984 2565 2268 
Q 2250 2553 1709 2553 
Q 1456 2553 1204 2497 
Q 953 2441 691 2322 
L 691 4666 
z
" transform="scale(0.015625)"/>
       </defs>
       <use xlink:href="#DejaVuSans-32"/>
       <use xlink:href="#DejaVuSans-2e" x="63.623047"/>
       <use xlink:href="#DejaVuSans-35" x="95.410156"/>
      </g>
     </g>
    </g>
    <g id="xtick_3">
     <g id="line2d_5">
      <path d="M 145.309091 252 
L 145.309091 34.56 
" clip-path="url(#p9993185e75)" style="fill: none; stroke: #b0b0b0; stroke-width: 0.2; stroke-linecap: square"/>
     </g>
     <g id="line2d_6">
      <g>
       <use xlink:href="#m7bc5543c90" x="145.309091" y="252" style="stroke: #000000; stroke-width: 0.8"/>
      </g>
     </g>
     <g id="text_3">
      <!-- 5.0 -->
      <g transform="translate(136.562372 267.358281) scale(0.11 -0.11)">
       <use xlink:href="#DejaVuSans-35"/>
       <use xlink:href="#DejaVuSans-2e" x="63.623047"/>
       <use xlink:href="#DejaVuSans-30" x="95.410156"/>
      </g>
     </g>
    </g>
    <g id="xtick_4">
     <g id="line2d_7">
      <path d="M 183.354545 252 
L 183.354545 34.56 
" clip-path="url(#p9993185e75)" style="fill: none; stroke: #b0b0b0; stroke-width: 0.2; stroke-linecap: square"/>
     </g>
     <g id="line2d_8">
      <g>
       <use xlink:href="#m7bc5543c90" x="183.354545" y="252" style="stroke: #000000; stroke-width: 0.8"/>
      </g>
     </g>
     <g id="text_4">
      <!-- 7.5 -->
      <g transform="translate(174.607827 267.358281) scale(0.11 -0.11)">
       <defs>
        <path id="DejaVuSans-37" d="M 525 4666 
L 3525 4666 
L 3525 4397 
L 1831 0 
L 1172 0 
L 2766 4134 
L 525 4134 
L 525 4666 
z
" transform="scale(0.015625)"/>
       </defs>
       <use xlink:href="#DejaVuSans-37"/>
       <use xlink:href="#DejaVuSans-2e" x="63.623047"/>
       <use xlink:href="#DejaVuSans-35" x="95.410156"/>
      </g>
     </g>
    </g>
    <g id="xtick_5">
     <g id="line2d_9">
      <path d="M 221.4 252 
L 221.4 34.56 
" clip-path="url(#p9993185e75)" style="fill: none; stroke: #b0b0b0; stroke-width: 0.2; stroke-linecap: square"/>
     </g>
     <g id="line2d_10">
      <g>
       <use xlink:href="#m7bc5543c90" x="221.4" y="252" style="stroke: #000000; stroke-width: 0.8"/>
      </g>
     </g>
     <g id="text_5">
      <!-- 10.0 -->
      <g transform="translate(209.153906 267.358281) scale(0.11 -0.11)">
       <defs>
        <path id="DejaVuSans-31" d="M 794 531 
L 1825 531 
L 1825 4091 
L 703 3866 
L 703 4441 
L 1819 4666 
L 2450 4666 
L 2450 531 
L 3481 531 
L 3481 0 
L 794 0 
L 794 531 
z
" transform="scale(0.015625)"/>
       </defs>
       <use xlink:href="#DejaVuSans-31"/>
       <use xlink:href="#DejaVuSans-30" x="63.623047"/>
       <use xlink:href="#DejaVuSans-2e" x="127.246094"/>
       <use xlink:href="#DejaVuSans-30" x="159.033203"/>
      </g>
     </g>
    </g>
    <g id="xtick_6">
     <g id="line2d_11">
      <path d="M 259.445455 252 
L 259.445455 34.56 
" clip-path="url(#p9993185e75)" style="fill: none; stroke: #b0b0b0; stroke-width: 0.2; stroke-linecap: square"/>
     </g>
     <g id="line2d_12">
      <g>
       <use xlink:href="#m7bc5543c90" x="259.445455" y="252" style="stroke: #000000; stroke-width: 0.8"/>
      </g>
     </g>
     <g id="text_6">
      <!-- 12.5 -->
      <g transform="translate(247.199361 267.358281) scale(0.11 -0.11)">
       <use xlink:href="#DejaVuSans-31"/>
       <use xlink:href="#DejaVuSans-32" x="63.623047"/>
       <use xlink:href="#DejaVuSans-2e" x="127.246094"/>
       <use xlink:href="#DejaVuSans-35" x="159.033203"/>
      </g>
     </g>
    </g>
    <g id="xtick_7">
     <g id="line2d_13">
      <path d="M 297.490909 252 
L 297.490909 34.56 
" clip-path="url(#p9993185e75)" style="fill: none; stroke: #b0b0b0; stroke-width: 0.2; stroke-linecap: square"/>
     </g>
     <g id="line2d_14">
      <g>
       <use xlink:href="#m7bc5543c90" x="297.490909" y="252" style="stroke: #000000; stroke-width: 0.8"/>
      </g>
     </g>
     <g id="text_7">
      <!-- 15.0 -->
      <g transform="translate(285.244815 267.358281) scale(0.11 -0.11)">
       <use xlink:href="#DejaVuSans-31"/>
       <use xlink:href="#DejaVuSans-35" x="63.623047"/>
       <use xlink:href="#DejaVuSans-2e" x="127.246094"/>
       <use xlink:href="#DejaVuSans-30" x="159.033203"/>
      </g>
     </g>
    </g>
    <g id="xtick_8">
     <g id="line2d_15">
      <path d="M 335.536364 252 
L 335.536364 34.56 
" clip-path="url(#p9993185e75)" style="fill: none; stroke: #b0b0b0; stroke-width: 0.2; stroke-linecap: square"/>
     </g>
     <g id="line2d_16">
      <g>
       <use xlink:href="#m7bc5543c90" x="335.536364" y="252" style="stroke: #000000; stroke-width: 0.8"/>
      </g>
     </g>
     <g id="text_8">
      <!-- 17.5 -->
      <g transform="translate(323.29027 267.358281) scale(0.11 -0.11)">
       <use xlink:href="#DejaVuSans-31"/>
       <use xlink:href="#DejaVuSans-37" x="63.623047"/>
       <use xlink:href="#DejaVuSans-2e" x="127.246094"/>
       <use xlink:href="#DejaVuSans-35" x="159.033203"/>
      </g>
     </g>
    </g>
    <g id="xtick_9">
     <g id="line2d_17">
      <path d="M 373.581818 252 
L 373.581818 34.56 
" clip-path="url(#p9993185e75)" style="fill: none; stroke: #b0b0b0; stroke-width: 0.2; stroke-linecap: square"/>
     </g>
     <g id="line2d_18">
      <g>
       <use xlink:href="#m7bc5543c90" x="373.581818" y="252" style="stroke: #000000; stroke-width: 0.8"/>
      </g>
     </g>
     <g id="text_9">
      <!-- 20.0 -->
      <g transform="translate(361.335724 267.358281) scale(0.11 -0.11)">
       <use xlink:href="#DejaVuSans-32"/>
       <use xlink:href="#DejaVuSans-30" x="63.623047"/>
       <use xlink:href="#DejaVuSans-2e" x="127.246094"/>
       <use xlink:href="#DejaVuSans-30" x="159.033203"/>
      </g>
     </g>
    </g>
    <g id="text_10">
     <!-- Time (s) -->
     <g transform="translate(202.807422 281.284063) scale(0.11 -0.11)">
      <defs>
       <path id="TimesNewRomanPSMT-54" d="M 3703 4238 
L 3750 3244 
L 3631 3244 
Q 3597 3506 3538 3619 
Q 3441 3800 3280 3886 
Q 3119 3972 2856 3972 
L 2259 3972 
L 2259 734 
Q 2259 344 2344 247 
Q 2463 116 2709 116 
L 2856 116 
L 2856 0 
L 1059 0 
L 1059 116 
L 1209 116 
Q 1478 116 1591 278 
Q 1659 378 1659 734 
L 1659 3972 
L 1150 3972 
Q 853 3972 728 3928 
Q 566 3869 450 3700 
Q 334 3531 313 3244 
L 194 3244 
L 244 4238 
L 3703 4238 
z
" transform="scale(0.015625)"/>
       <path id="TimesNewRomanPSMT-69" d="M 928 4444 
Q 1059 4444 1151 4351 
Q 1244 4259 1244 4128 
Q 1244 3997 1151 3903 
Q 1059 3809 928 3809 
Q 797 3809 703 3903 
Q 609 3997 609 4128 
Q 609 4259 701 4351 
Q 794 4444 928 4444 
z
M 1188 2947 
L 1188 647 
Q 1188 378 1227 289 
Q 1266 200 1342 156 
Q 1419 113 1622 113 
L 1622 0 
L 231 0 
L 231 113 
Q 441 113 512 153 
Q 584 194 626 287 
Q 669 381 669 647 
L 669 1750 
Q 669 2216 641 2353 
Q 619 2453 572 2492 
Q 525 2531 444 2531 
Q 356 2531 231 2484 
L 188 2597 
L 1050 2947 
L 1188 2947 
z
" transform="scale(0.015625)"/>
       <path id="TimesNewRomanPSMT-6d" d="M 1050 2338 
Q 1363 2650 1419 2697 
Q 1559 2816 1721 2881 
Q 1884 2947 2044 2947 
Q 2313 2947 2506 2790 
Q 2700 2634 2766 2338 
Q 3088 2713 3309 2830 
Q 3531 2947 3766 2947 
Q 3994 2947 4170 2830 
Q 4347 2713 4450 2447 
Q 4519 2266 4519 1878 
L 4519 647 
Q 4519 378 4559 278 
Q 4591 209 4675 161 
Q 4759 113 4950 113 
L 4950 0 
L 3538 0 
L 3538 113 
L 3597 113 
Q 3781 113 3884 184 
Q 3956 234 3988 344 
Q 4000 397 4000 647 
L 4000 1878 
Q 4000 2228 3916 2372 
Q 3794 2572 3525 2572 
Q 3359 2572 3192 2489 
Q 3025 2406 2788 2181 
L 2781 2147 
L 2788 2013 
L 2788 647 
Q 2788 353 2820 281 
Q 2853 209 2943 161 
Q 3034 113 3253 113 
L 3253 0 
L 1806 0 
L 1806 113 
Q 2044 113 2133 169 
Q 2222 225 2256 338 
Q 2272 391 2272 647 
L 2272 1878 
Q 2272 2228 2169 2381 
Q 2031 2581 1784 2581 
Q 1616 2581 1450 2491 
Q 1191 2353 1050 2181 
L 1050 647 
Q 1050 366 1089 281 
Q 1128 197 1204 155 
Q 1281 113 1516 113 
L 1516 0 
L 100 0 
L 100 113 
Q 297 113 375 155 
Q 453 197 493 289 
Q 534 381 534 647 
L 534 1741 
Q 534 2213 506 2350 
Q 484 2453 437 2492 
Q 391 2531 309 2531 
Q 222 2531 100 2484 
L 53 2597 
L 916 2947 
L 1050 2947 
L 1050 2338 
z
" transform="scale(0.015625)"/>
       <path id="TimesNewRomanPSMT-65" d="M 681 1784 
Q 678 1147 991 784 
Q 1303 422 1725 422 
Q 2006 422 2214 576 
Q 2422 731 2563 1106 
L 2659 1044 
Q 2594 616 2278 264 
Q 1963 -88 1488 -88 
Q 972 -88 605 314 
Q 238 716 238 1394 
Q 238 2128 614 2539 
Q 991 2950 1559 2950 
Q 2041 2950 2350 2633 
Q 2659 2316 2659 1784 
L 681 1784 
z
M 681 1966 
L 2006 1966 
Q 1991 2241 1941 2353 
Q 1863 2528 1708 2628 
Q 1553 2728 1384 2728 
Q 1125 2728 920 2526 
Q 716 2325 681 1966 
z
" transform="scale(0.015625)"/>
       <path id="TimesNewRomanPSMT-20" transform="scale(0.015625)"/>
       <path id="TimesNewRomanPSMT-28" d="M 1988 -1253 
L 1988 -1369 
Q 1516 -1131 1200 -813 
Q 750 -359 506 256 
Q 263 872 263 1534 
Q 263 2503 741 3301 
Q 1219 4100 1988 4444 
L 1988 4313 
Q 1603 4100 1356 3731 
Q 1109 3363 987 2797 
Q 866 2231 866 1616 
Q 866 947 969 400 
Q 1050 -31 1165 -292 
Q 1281 -553 1476 -793 
Q 1672 -1034 1988 -1253 
z
" transform="scale(0.015625)"/>
       <path id="TimesNewRomanPSMT-73" d="M 2050 2947 
L 2050 1972 
L 1947 1972 
Q 1828 2431 1642 2597 
Q 1456 2763 1169 2763 
Q 950 2763 815 2647 
Q 681 2531 681 2391 
Q 681 2216 781 2091 
Q 878 1963 1175 1819 
L 1631 1597 
Q 2266 1288 2266 781 
Q 2266 391 1970 151 
Q 1675 -88 1309 -88 
Q 1047 -88 709 6 
Q 606 38 541 38 
Q 469 38 428 -44 
L 325 -44 
L 325 978 
L 428 978 
Q 516 541 762 319 
Q 1009 97 1316 97 
Q 1531 97 1667 223 
Q 1803 350 1803 528 
Q 1803 744 1651 891 
Q 1500 1038 1047 1263 
Q 594 1488 453 1669 
Q 313 1847 313 2119 
Q 313 2472 555 2709 
Q 797 2947 1181 2947 
Q 1350 2947 1591 2875 
Q 1750 2828 1803 2828 
Q 1853 2828 1881 2850 
Q 1909 2872 1947 2947 
L 2050 2947 
z
" transform="scale(0.015625)"/>
       <path id="TimesNewRomanPSMT-29" d="M 144 4313 
L 144 4444 
Q 619 4209 934 3891 
Q 1381 3434 1625 2820 
Q 1869 2206 1869 1541 
Q 1869 572 1392 -226 
Q 916 -1025 144 -1369 
L 144 -1253 
Q 528 -1038 776 -670 
Q 1025 -303 1145 264 
Q 1266 831 1266 1447 
Q 1266 2113 1163 2663 
Q 1084 3094 967 3353 
Q 850 3613 656 3853 
Q 463 4094 144 4313 
z
" transform="scale(0.015625)"/>
      </defs>
      <use xlink:href="#TimesNewRomanPSMT-54"/>
      <use xlink:href="#TimesNewRomanPSMT-69" x="57.583984"/>
      <use xlink:href="#TimesNewRomanPSMT-6d" x="85.367188"/>
      <use xlink:href="#TimesNewRomanPSMT-65" x="163.150391"/>
      <use xlink:href="#TimesNewRomanPSMT-20" x="207.535156"/>
      <use xlink:href="#TimesNewRomanPSMT-28" x="232.535156"/>
      <use xlink:href="#TimesNewRomanPSMT-73" x="265.835938"/>
      <use xlink:href="#TimesNewRomanPSMT-29" x="304.751953"/>
     </g>
    </g>
   </g>
   <g id="matplotlib.axis_2">
    <g id="ytick_1">
     <g id="line2d_19">
      <path d="M 54 218.59874 
L 388.8 218.59874 
" clip-path="url(#p9993185e75)" style="fill: none; stroke: #b0b0b0; stroke-width: 0.2; stroke-linecap: square"/>
     </g>
     <g id="line2d_20">
      <defs>
       <path id="md213964f58" d="M 0 0 
L -3.5 0 
" style="stroke: #000000; stroke-width: 0.8"/>
      </defs>
      <g>
       <use xlink:href="#md213964f58" x="54" y="218.59874" style="stroke: #000000; stroke-width: 0.8"/>
      </g>
     </g>
     <g id="text_11">
      <!-- −2 -->
      <g transform="translate(30.783594 222.77788) scale(0.11 -0.11)">
       <defs>
        <path id="DejaVuSans-2212" d="M 678 2272 
L 4684 2272 
L 4684 1741 
L 678 1741 
L 678 2272 
z
" transform="scale(0.015625)"/>
       </defs>
       <use xlink:href="#DejaVuSans-2212"/>
       <use xlink:href="#DejaVuSans-32" x="83.789062"/>
      </g>
     </g>
    </g>
    <g id="ytick_2">
     <g id="line2d_21">
      <path d="M 54 177.244691 
L 388.8 177.244691 
" clip-path="url(#p9993185e75)" style="fill: none; stroke: #b0b0b0; stroke-width: 0.2; stroke-linecap: square"/>
     </g>
     <g id="line2d_22">
      <g>
       <use xlink:href="#md213964f58" x="54" y="177.244691" style="stroke: #000000; stroke-width: 0.8"/>
      </g>
     </g>
     <g id="text_12">
      <!-- −1 -->
      <g transform="translate(30.783594 181.423832) scale(0.11 -0.11)">
       <use xlink:href="#DejaVuSans-2212"/>
       <use xlink:href="#DejaVuSans-31" x="83.789062"/>
      </g>
     </g>
    </g>
    <g id="ytick_3">
     <g id="line2d_23">
      <path d="M 54 135.890643 
L 388.8 135.890643 
" clip-path="url(#p9993185e75)" style="fill: none; stroke: #b0b0b0; stroke-width: 0.2; stroke-linecap: square"/>
     </g>
     <g id="line2d_24">
      <g>
       <use xlink:href="#md213964f58" x="54" y="135.890643" style="stroke: #000000; stroke-width: 0.8"/>
      </g>
     </g>
     <g id="text_13">
      <!-- 0 -->
      <g transform="translate(40.00125 140.069783) scale(0.11 -0.11)">
       <use xlink:href="#DejaVuSans-30"/>
      </g>
     </g>
    </g>
    <g id="ytick_4">
     <g id="line2d_25">
      <path d="M 54 94.536594 
L 388.8 94.536594 
" clip-path="url(#p9993185e75)" style="fill: none; stroke: #b0b0b0; stroke-width: 0.2; stroke-linecap: square"/>
     </g>
     <g id="line2d_26">
      <g>
       <use xlink:href="#md213964f58" x="54" y="94.536594" style="stroke: #000000; stroke-width: 0.8"/>
      </g>
     </g>
     <g id="text_14">
      <!-- 1 -->
      <g transform="translate(40.00125 98.715735) scale(0.11 -0.11)">
       <use xlink:href="#DejaVuSans-31"/>
      </g>
     </g>
    </g>
    <g id="ytick_5">
     <g id="line2d_27">
      <path d="M 54 53.182545 
L 388.8 53.182545 
" clip-path="url(#p9993185e75)" style="fill: none; stroke: #b0b0b0; stroke-width: 0.2; stroke-linecap: square"/>
     </g>
     <g id="line2d_28">
      <g>
       <use xlink:href="#md213964f58" x="54" y="53.182545" style="stroke: #000000; stroke-width: 0.8"/>
      </g>
     </g>
     <g id="text_15">
      <!-- 2 -->
      <g transform="translate(40.00125 57.361686) scale(0.11 -0.11)">
       <use xlink:href="#DejaVuSans-32"/>
      </g>
     </g>
    </g>
    <g id="text_16">
     <!-- Angular position of the motor - $\theta_{m}$ (rad) -->
     <g transform="translate(24.363594 232.875) rotate(-90) scale(0.11 -0.11)">
      <defs>
       <path id="TimesNewRomanPSMT-41" d="M 2928 1419 
L 1288 1419 
L 1000 750 
Q 894 503 894 381 
Q 894 284 986 211 
Q 1078 138 1384 116 
L 1384 0 
L 50 0 
L 50 116 
Q 316 163 394 238 
Q 553 388 747 847 
L 2238 4334 
L 2347 4334 
L 3822 809 
Q 4000 384 4145 257 
Q 4291 131 4550 116 
L 4550 0 
L 2878 0 
L 2878 116 
Q 3131 128 3220 200 
Q 3309 272 3309 375 
Q 3309 513 3184 809 
L 2928 1419 
z
M 2841 1650 
L 2122 3363 
L 1384 1650 
L 2841 1650 
z
" transform="scale(0.015625)"/>
       <path id="TimesNewRomanPSMT-6e" d="M 1034 2341 
Q 1538 2947 1994 2947 
Q 2228 2947 2397 2830 
Q 2566 2713 2666 2444 
Q 2734 2256 2734 1869 
L 2734 647 
Q 2734 375 2778 278 
Q 2813 200 2889 156 
Q 2966 113 3172 113 
L 3172 0 
L 1756 0 
L 1756 113 
L 1816 113 
Q 2016 113 2095 173 
Q 2175 234 2206 353 
Q 2219 400 2219 647 
L 2219 1819 
Q 2219 2209 2117 2386 
Q 2016 2563 1775 2563 
Q 1403 2563 1034 2156 
L 1034 647 
Q 1034 356 1069 288 
Q 1113 197 1189 155 
Q 1266 113 1500 113 
L 1500 0 
L 84 0 
L 84 113 
L 147 113 
Q 366 113 442 223 
Q 519 334 519 647 
L 519 1709 
Q 519 2225 495 2337 
Q 472 2450 423 2490 
Q 375 2531 294 2531 
Q 206 2531 84 2484 
L 38 2597 
L 900 2947 
L 1034 2947 
L 1034 2341 
z
" transform="scale(0.015625)"/>
       <path id="TimesNewRomanPSMT-67" d="M 966 1044 
Q 703 1172 562 1401 
Q 422 1631 422 1909 
Q 422 2334 742 2640 
Q 1063 2947 1563 2947 
Q 1972 2947 2272 2747 
L 2878 2747 
Q 3013 2747 3034 2739 
Q 3056 2731 3066 2713 
Q 3084 2684 3084 2613 
Q 3084 2531 3069 2500 
Q 3059 2484 3036 2475 
Q 3013 2466 2878 2466 
L 2506 2466 
Q 2681 2241 2681 1891 
Q 2681 1491 2375 1206 
Q 2069 922 1553 922 
Q 1341 922 1119 984 
Q 981 866 932 777 
Q 884 688 884 625 
Q 884 572 936 522 
Q 988 472 1138 450 
Q 1225 438 1575 428 
Q 2219 413 2409 384 
Q 2700 344 2873 169 
Q 3047 -6 3047 -263 
Q 3047 -616 2716 -925 
Q 2228 -1381 1444 -1381 
Q 841 -1381 425 -1109 
Q 191 -953 191 -784 
Q 191 -709 225 -634 
Q 278 -519 444 -313 
Q 466 -284 763 25 
Q 600 122 533 198 
Q 466 275 466 372 
Q 466 481 555 628 
Q 644 775 966 1044 
z
M 1509 2797 
Q 1278 2797 1122 2612 
Q 966 2428 966 2047 
Q 966 1553 1178 1281 
Q 1341 1075 1591 1075 
Q 1828 1075 1981 1253 
Q 2134 1431 2134 1813 
Q 2134 2309 1919 2591 
Q 1759 2797 1509 2797 
z
M 934 0 
Q 788 -159 713 -296 
Q 638 -434 638 -550 
Q 638 -700 819 -813 
Q 1131 -1006 1722 -1006 
Q 2284 -1006 2551 -807 
Q 2819 -609 2819 -384 
Q 2819 -222 2659 -153 
Q 2497 -84 2016 -72 
Q 1313 -53 934 0 
z
" transform="scale(0.015625)"/>
       <path id="TimesNewRomanPSMT-75" d="M 2709 2863 
L 2709 1128 
Q 2709 631 2732 520 
Q 2756 409 2807 365 
Q 2859 322 2928 322 
Q 3025 322 3147 375 
L 3191 266 
L 2334 -88 
L 2194 -88 
L 2194 519 
Q 1825 119 1631 15 
Q 1438 -88 1222 -88 
Q 981 -88 804 51 
Q 628 191 559 409 
Q 491 628 491 1028 
L 491 2306 
Q 491 2509 447 2587 
Q 403 2666 317 2708 
Q 231 2750 6 2747 
L 6 2863 
L 1009 2863 
L 1009 947 
Q 1009 547 1148 422 
Q 1288 297 1484 297 
Q 1619 297 1789 381 
Q 1959 466 2194 703 
L 2194 2325 
Q 2194 2569 2105 2655 
Q 2016 2741 1734 2747 
L 1734 2863 
L 2709 2863 
z
" transform="scale(0.015625)"/>
       <path id="TimesNewRomanPSMT-6c" d="M 1184 4444 
L 1184 647 
Q 1184 378 1223 290 
Q 1263 203 1344 158 
Q 1425 113 1647 113 
L 1647 0 
L 244 0 
L 244 113 
Q 441 113 512 153 
Q 584 194 625 287 
Q 666 381 666 647 
L 666 3247 
Q 666 3731 644 3842 
Q 622 3953 573 3993 
Q 525 4034 450 4034 
Q 369 4034 244 3984 
L 191 4094 
L 1044 4444 
L 1184 4444 
z
" transform="scale(0.015625)"/>
       <path id="TimesNewRomanPSMT-61" d="M 1822 413 
Q 1381 72 1269 19 
Q 1100 -59 909 -59 
Q 613 -59 420 144 
Q 228 347 228 678 
Q 228 888 322 1041 
Q 450 1253 767 1440 
Q 1084 1628 1822 1897 
L 1822 2009 
Q 1822 2438 1686 2597 
Q 1550 2756 1291 2756 
Q 1094 2756 978 2650 
Q 859 2544 859 2406 
L 866 2225 
Q 866 2081 792 2003 
Q 719 1925 600 1925 
Q 484 1925 411 2006 
Q 338 2088 338 2228 
Q 338 2497 613 2722 
Q 888 2947 1384 2947 
Q 1766 2947 2009 2819 
Q 2194 2722 2281 2516 
Q 2338 2381 2338 1966 
L 2338 994 
Q 2338 584 2353 492 
Q 2369 400 2405 369 
Q 2441 338 2488 338 
Q 2538 338 2575 359 
Q 2641 400 2828 588 
L 2828 413 
Q 2478 -56 2159 -56 
Q 2006 -56 1915 50 
Q 1825 156 1822 413 
z
M 1822 616 
L 1822 1706 
Q 1350 1519 1213 1441 
Q 966 1303 859 1153 
Q 753 1003 753 825 
Q 753 600 887 451 
Q 1022 303 1197 303 
Q 1434 303 1822 616 
z
" transform="scale(0.015625)"/>
       <path id="TimesNewRomanPSMT-72" d="M 1038 2947 
L 1038 2303 
Q 1397 2947 1775 2947 
Q 1947 2947 2059 2842 
Q 2172 2738 2172 2600 
Q 2172 2478 2090 2393 
Q 2009 2309 1897 2309 
Q 1788 2309 1652 2417 
Q 1516 2525 1450 2525 
Q 1394 2525 1328 2463 
Q 1188 2334 1038 2041 
L 1038 669 
Q 1038 431 1097 309 
Q 1138 225 1241 169 
Q 1344 113 1538 113 
L 1538 0 
L 72 0 
L 72 113 
Q 291 113 397 181 
Q 475 231 506 341 
Q 522 394 522 644 
L 522 1753 
Q 522 2253 501 2348 
Q 481 2444 426 2487 
Q 372 2531 291 2531 
Q 194 2531 72 2484 
L 41 2597 
L 906 2947 
L 1038 2947 
z
" transform="scale(0.015625)"/>
       <path id="TimesNewRomanPSMT-70" d="M -6 2578 
L 875 2934 
L 994 2934 
L 994 2266 
Q 1216 2644 1439 2795 
Q 1663 2947 1909 2947 
Q 2341 2947 2628 2609 
Q 2981 2197 2981 1534 
Q 2981 794 2556 309 
Q 2206 -88 1675 -88 
Q 1444 -88 1275 -22 
Q 1150 25 994 166 
L 994 -706 
Q 994 -1000 1030 -1079 
Q 1066 -1159 1155 -1206 
Q 1244 -1253 1478 -1253 
L 1478 -1369 
L -22 -1369 
L -22 -1253 
L 56 -1253 
Q 228 -1256 350 -1188 
Q 409 -1153 442 -1076 
Q 475 -1000 475 -688 
L 475 2019 
Q 475 2297 450 2372 
Q 425 2447 370 2484 
Q 316 2522 222 2522 
Q 147 2522 31 2478 
L -6 2578 
z
M 994 2081 
L 994 1013 
Q 994 666 1022 556 
Q 1066 375 1236 237 
Q 1406 100 1666 100 
Q 1978 100 2172 344 
Q 2425 663 2425 1241 
Q 2425 1897 2138 2250 
Q 1938 2494 1663 2494 
Q 1513 2494 1366 2419 
Q 1253 2363 994 2081 
z
" transform="scale(0.015625)"/>
       <path id="TimesNewRomanPSMT-6f" d="M 1600 2947 
Q 2250 2947 2644 2453 
Q 2978 2031 2978 1484 
Q 2978 1100 2793 706 
Q 2609 313 2286 112 
Q 1963 -88 1566 -88 
Q 919 -88 538 428 
Q 216 863 216 1403 
Q 216 1797 411 2186 
Q 606 2575 925 2761 
Q 1244 2947 1600 2947 
z
M 1503 2744 
Q 1338 2744 1170 2645 
Q 1003 2547 900 2300 
Q 797 2053 797 1666 
Q 797 1041 1045 587 
Q 1294 134 1700 134 
Q 2003 134 2200 384 
Q 2397 634 2397 1244 
Q 2397 2006 2069 2444 
Q 1847 2744 1503 2744 
z
" transform="scale(0.015625)"/>
       <path id="TimesNewRomanPSMT-74" d="M 1031 3803 
L 1031 2863 
L 1700 2863 
L 1700 2644 
L 1031 2644 
L 1031 788 
Q 1031 509 1111 412 
Q 1191 316 1316 316 
Q 1419 316 1516 380 
Q 1613 444 1666 569 
L 1788 569 
Q 1678 263 1478 108 
Q 1278 -47 1066 -47 
Q 922 -47 784 33 
Q 647 113 581 261 
Q 516 409 516 719 
L 516 2644 
L 63 2644 
L 63 2747 
Q 234 2816 414 2980 
Q 594 3144 734 3369 
Q 806 3488 934 3803 
L 1031 3803 
z
" transform="scale(0.015625)"/>
       <path id="TimesNewRomanPSMT-66" d="M 1319 2638 
L 1319 756 
Q 1319 356 1406 250 
Q 1522 113 1716 113 
L 1975 113 
L 1975 0 
L 266 0 
L 266 113 
L 394 113 
Q 519 113 622 175 
Q 725 238 764 344 
Q 803 450 803 756 
L 803 2638 
L 247 2638 
L 247 2863 
L 803 2863 
L 803 3050 
Q 803 3478 940 3775 
Q 1078 4072 1361 4255 
Q 1644 4438 1997 4438 
Q 2325 4438 2600 4225 
Q 2781 4084 2781 3909 
Q 2781 3816 2700 3733 
Q 2619 3650 2525 3650 
Q 2453 3650 2373 3701 
Q 2294 3753 2178 3923 
Q 2063 4094 1966 4153 
Q 1869 4213 1750 4213 
Q 1606 4213 1506 4136 
Q 1406 4059 1362 3898 
Q 1319 3738 1319 3069 
L 1319 2863 
L 2056 2863 
L 2056 2638 
L 1319 2638 
z
" transform="scale(0.015625)"/>
       <path id="TimesNewRomanPSMT-68" d="M 1041 4444 
L 1041 2350 
Q 1388 2731 1591 2839 
Q 1794 2947 1997 2947 
Q 2241 2947 2416 2812 
Q 2591 2678 2675 2391 
Q 2734 2191 2734 1659 
L 2734 647 
Q 2734 375 2778 275 
Q 2809 200 2884 156 
Q 2959 113 3159 113 
L 3159 0 
L 1753 0 
L 1753 113 
L 1819 113 
Q 2019 113 2097 173 
Q 2175 234 2206 353 
Q 2216 403 2216 647 
L 2216 1659 
Q 2216 2128 2167 2275 
Q 2119 2422 2012 2495 
Q 1906 2569 1756 2569 
Q 1603 2569 1437 2487 
Q 1272 2406 1041 2159 
L 1041 647 
Q 1041 353 1073 281 
Q 1106 209 1195 161 
Q 1284 113 1503 113 
L 1503 0 
L 84 0 
L 84 113 
Q 275 113 384 172 
Q 447 203 484 290 
Q 522 378 522 647 
L 522 3238 
Q 522 3728 498 3840 
Q 475 3953 426 3993 
Q 378 4034 297 4034 
Q 231 4034 84 3984 
L 41 4094 
L 897 4444 
L 1041 4444 
z
" transform="scale(0.015625)"/>
       <path id="TimesNewRomanPSMT-2d" d="M 259 1672 
L 1875 1672 
L 1875 1200 
L 259 1200 
L 259 1672 
z
" transform="scale(0.015625)"/>
       <path id="DejaVuSans-Oblique-3b8" d="M 2913 2219 
L 925 2219 
Q 791 1284 928 888 
Q 1100 400 1566 400 
Q 2034 400 2391 891 
Q 2703 1322 2913 2219 
z
M 3009 2750 
Q 3094 3638 2984 3950 
Q 2813 4444 2353 4444 
Q 1875 4444 1525 3956 
Q 1250 3563 1034 2750 
L 3009 2750 
z
M 2444 4913 
Q 3194 4913 3494 4250 
Q 3794 3591 3566 2422 
Q 3341 1256 2781 594 
Q 2225 -72 1475 -72 
Q 722 -72 425 594 
Q 128 1256 353 2422 
Q 581 3591 1134 4250 
Q 1691 4913 2444 4913 
z
" transform="scale(0.015625)"/>
       <path id="DejaVuSans-Oblique-6d" d="M 5747 2113 
L 5338 0 
L 4763 0 
L 5166 2094 
Q 5191 2228 5203 2325 
Q 5216 2422 5216 2491 
Q 5216 2772 5059 2928 
Q 4903 3084 4622 3084 
Q 4203 3084 3875 2770 
Q 3547 2456 3450 1953 
L 3066 0 
L 2491 0 
L 2900 2094 
Q 2925 2209 2937 2307 
Q 2950 2406 2950 2484 
Q 2950 2769 2794 2926 
Q 2638 3084 2363 3084 
Q 1938 3084 1609 2770 
Q 1281 2456 1184 1953 
L 800 0 
L 225 0 
L 909 3500 
L 1484 3500 
L 1375 2956 
Q 1609 3263 1923 3423 
Q 2238 3584 2597 3584 
Q 2978 3584 3223 3384 
Q 3469 3184 3519 2828 
Q 3781 3197 4126 3390 
Q 4472 3584 4856 3584 
Q 5306 3584 5551 3325 
Q 5797 3066 5797 2591 
Q 5797 2488 5784 2364 
Q 5772 2241 5747 2113 
z
" transform="scale(0.015625)"/>
       <path id="TimesNewRomanPSMT-64" d="M 2222 322 
Q 2013 103 1813 7 
Q 1613 -88 1381 -88 
Q 913 -88 563 304 
Q 213 697 213 1313 
Q 213 1928 600 2439 
Q 988 2950 1597 2950 
Q 1975 2950 2222 2709 
L 2222 3238 
Q 2222 3728 2198 3840 
Q 2175 3953 2125 3993 
Q 2075 4034 2000 4034 
Q 1919 4034 1784 3984 
L 1744 4094 
L 2597 4444 
L 2738 4444 
L 2738 1134 
Q 2738 631 2761 520 
Q 2784 409 2836 365 
Q 2888 322 2956 322 
Q 3041 322 3181 375 
L 3216 266 
L 2366 -88 
L 2222 -88 
L 2222 322 
z
M 2222 541 
L 2222 2016 
Q 2203 2228 2109 2403 
Q 2016 2578 1861 2667 
Q 1706 2756 1559 2756 
Q 1284 2756 1069 2509 
Q 784 2184 784 1559 
Q 784 928 1059 592 
Q 1334 256 1672 256 
Q 1956 256 2222 541 
z
" transform="scale(0.015625)"/>
      </defs>
      <use xlink:href="#TimesNewRomanPSMT-41" transform="translate(0 0.234375)"/>
      <use xlink:href="#TimesNewRomanPSMT-6e" transform="translate(72.216797 0.234375)"/>
      <use xlink:href="#TimesNewRomanPSMT-67" transform="translate(122.216797 0.234375)"/>
      <use xlink:href="#TimesNewRomanPSMT-75" transform="translate(172.216797 0.234375)"/>
      <use xlink:href="#TimesNewRomanPSMT-6c" transform="translate(222.216797 0.234375)"/>
      <use xlink:href="#TimesNewRomanPSMT-61" transform="translate(250 0.234375)"/>
      <use xlink:href="#TimesNewRomanPSMT-72" transform="translate(294.384766 0.234375)"/>
      <use xlink:href="#TimesNewRomanPSMT-20" transform="translate(327.685547 0.234375)"/>
      <use xlink:href="#TimesNewRomanPSMT-70" transform="translate(352.685547 0.234375)"/>
      <use xlink:href="#TimesNewRomanPSMT-6f" transform="translate(402.685547 0.234375)"/>
      <use xlink:href="#TimesNewRomanPSMT-73" transform="translate(452.685547 0.234375)"/>
      <use xlink:href="#TimesNewRomanPSMT-69" transform="translate(491.601562 0.234375)"/>
      <use xlink:href="#TimesNewRomanPSMT-74" transform="translate(519.384766 0.234375)"/>
      <use xlink:href="#TimesNewRomanPSMT-69" transform="translate(547.167969 0.234375)"/>
      <use xlink:href="#TimesNewRomanPSMT-6f" transform="translate(574.951172 0.234375)"/>
      <use xlink:href="#TimesNewRomanPSMT-6e" transform="translate(624.951172 0.234375)"/>
      <use xlink:href="#TimesNewRomanPSMT-20" transform="translate(674.951172 0.234375)"/>
      <use xlink:href="#TimesNewRomanPSMT-6f" transform="translate(699.951172 0.234375)"/>
      <use xlink:href="#TimesNewRomanPSMT-66" transform="translate(749.951172 0.234375)"/>
      <use xlink:href="#TimesNewRomanPSMT-20" transform="translate(783.251953 0.234375)"/>
      <use xlink:href="#TimesNewRomanPSMT-74" transform="translate(808.251953 0.234375)"/>
      <use xlink:href="#TimesNewRomanPSMT-68" transform="translate(836.035156 0.234375)"/>
      <use xlink:href="#TimesNewRomanPSMT-65" transform="translate(886.035156 0.234375)"/>
      <use xlink:href="#TimesNewRomanPSMT-20" transform="translate(930.419922 0.234375)"/>
      <use xlink:href="#TimesNewRomanPSMT-6d" transform="translate(955.419922 0.234375)"/>
      <use xlink:href="#TimesNewRomanPSMT-6f" transform="translate(1033.203125 0.234375)"/>
      <use xlink:href="#TimesNewRomanPSMT-74" transform="translate(1083.203125 0.234375)"/>
      <use xlink:href="#TimesNewRomanPSMT-6f" transform="translate(1110.986328 0.234375)"/>
      <use xlink:href="#TimesNewRomanPSMT-72" transform="translate(1160.986328 0.234375)"/>
      <use xlink:href="#TimesNewRomanPSMT-20" transform="translate(1194.287109 0.234375)"/>
      <use xlink:href="#TimesNewRomanPSMT-2d" transform="translate(1219.287109 0.234375)"/>
      <use xlink:href="#TimesNewRomanPSMT-20" transform="translate(1252.587891 0.234375)"/>
      <use xlink:href="#DejaVuSans-Oblique-3b8" transform="translate(1277.587891 0.234375)"/>
      <use xlink:href="#DejaVuSans-Oblique-6d" transform="translate(1338.769531 -16.171875) scale(0.7)"/>
      <use xlink:href="#TimesNewRomanPSMT-20" transform="translate(1409.692383 0.234375)"/>
      <use xlink:href="#TimesNewRomanPSMT-28" transform="translate(1434.692383 0.234375)"/>
      <use xlink:href="#TimesNewRomanPSMT-72" transform="translate(1467.993164 0.234375)"/>
      <use xlink:href="#TimesNewRomanPSMT-61" transform="translate(1501.293945 0.234375)"/>
      <use xlink:href="#TimesNewRomanPSMT-64" transform="translate(1545.678711 0.234375)"/>
      <use xlink:href="#TimesNewRomanPSMT-29" transform="translate(1595.678711 0.234375)"/>
     </g>
    </g>
   </g>
   <g id="line2d_29">
    <path d="M 69.218182 135.890643 
L 69.294273 135.948348 
L 69.416018 134.889685 
L 69.446455 134.884292 
L 69.461673 135.007174 
L 69.522545 134.985688 
L 69.613855 138.389694 
L 69.659509 138.34572 
L 69.674727 138.329149 
L 69.750818 137.390578 
L 69.766036 139.52152 
L 69.857345 138.819825 
L 69.903 138.714403 
L 69.979091 136.361894 
L 70.024745 136.568393 
L 70.055182 136.478027 
L 70.0704 138.495593 
L 70.176927 137.974224 
L 70.283455 137.308476 
L 70.298673 137.984656 
L 70.389982 137.856774 
L 70.511727 137.131057 
L 70.587818 135.028512 
L 70.633473 135.354741 
L 70.892182 132.849636 
L 70.968273 130.755348 
L 70.983491 133.372431 
L 70.998709 133.200977 
L 71.044364 132.676642 
L 71.059582 134.08532 
L 71.150891 132.525901 
L 71.577 126.719535 
L 71.759618 118.94689 
L 71.805273 118.16157 
L 71.896582 120.61624 
L 71.927018 120.071774 
L 72.505309 107.722977 
L 72.794455 100.794925 
L 72.870545 97.286092 
L 72.9162 98.309029 
L 73.098818 93.294804 
L 73.251 88.213517 
L 73.266218 88.581552 
L 73.311873 87.625452 
L 74.088 72.370577 
L 74.103218 74.246413 
L 74.179309 70.860529 
L 74.696727 61.937801 
L 74.833691 56.812407 
L 74.848909 56.622531 
L 74.925 54.034517 
L 74.955436 55.898533 
L 75.077182 54.044673 
L 75.214145 51.569896 
L 75.229364 51.426464 
L 75.305455 48.951714 
L 75.351109 50.054534 
L 75.533727 48.199294 
L 75.670691 45.622784 
L 75.685909 45.546055 
L 75.701127 47.235349 
L 75.807655 46.811043 
L 75.838091 46.698642 
L 75.853309 48.37124 
L 75.944618 47.606917 
L 75.990273 47.48704 
L 76.112018 44.712627 
L 76.142455 44.684426 
L 76.157673 45.907128 
L 76.248982 45.48865 
L 76.294636 45.501129 
L 76.385945 44.472745 
L 76.416382 44.522892 
L 76.446818 44.581783 
L 76.568564 46.593424 
L 76.599 46.684724 
L 76.690309 46.03783 
L 76.720745 46.165493 
L 76.903364 47.431924 
L 76.994673 44.590811 
L 77.025109 44.813171 
L 77.055545 45.045108 
L 77.070764 44.443636 
L 77.131636 44.948569 
L 77.207727 47.254389 
L 77.253382 46.273812 
L 77.299036 45.79416 
L 77.740364 50.968438 
L 77.816455 53.717545 
L 77.862109 53.295568 
L 77.968636 55.952088 
L 78.120818 59.398072 
L 78.136036 58.907159 
L 78.196909 59.946695 
L 78.577364 67.232424 
L 78.592582 66.074388 
L 78.668673 68.353744 
L 78.729545 69.578258 
L 78.744764 66.6592 
L 78.820855 70.338796 
L 79.262182 79.801436 
L 79.2774 76.726625 
L 79.368709 79.59049 
L 80.251364 102.304089 
L 80.327455 107.106066 
L 80.373109 106.970011 
L 81.544909 136.887034 
L 81.560127 136.27341 
L 81.621 138.023863 
L 81.636218 137.59699 
L 82.534091 165.162677 
L 82.655836 172.846904 
L 83.447182 197.004111 
L 83.599364 203.608216 
L 83.858073 214.284064 
L 84.664636 231.905618 
L 84.8016 235.956839 
L 84.816818 236.100123 
L 84.832036 234.00403 
L 84.923345 235.430585 
L 84.984218 235.400834 
L 85.045091 235.817294 
L 85.1364 235.024605 
L 85.166836 235.181279 
L 85.197273 235.33042 
L 85.212491 234.967111 
L 85.273364 235.222996 
L 85.288582 234.945165 
L 85.349455 235.150276 
L 85.516855 239.513731 
L 85.577727 239.53599 
L 85.669036 242.116364 
L 85.714691 242.031943 
L 85.729909 241.998742 
L 85.882091 239.512912 
L 85.897309 240.149133 
L 85.988618 239.468399 
L 86.521255 235.650168 
L 86.566909 235.08462 
L 86.643 232.48367 
L 86.658218 235.50558 
L 86.673436 235.296814 
L 86.719091 234.660261 
L 86.840836 230.443231 
L 87.48 219.775403 
L 87.556091 215.220035 
L 87.601745 215.227018 
L 87.708273 210.761697 
L 87.784364 207.413437 
L 87.830018 208.537913 
L 87.936545 204.154166 
L 88.073509 197.951105 
L 88.469182 187.150136 
L 88.545273 183.431941 
L 88.590927 184.145324 
L 88.621364 183.396474 
L 88.636582 185.361696 
L 88.697455 183.838164 
L 88.712673 185.647427 
L 88.788764 182.145905 
L 89.306182 166.334626 
L 89.443145 161.060071 
L 89.473582 161.750193 
L 89.914909 148.791975 
L 89.930127 151.277513 
L 90.006218 146.386235 
L 91.132364 113.259472 
L 91.284545 107.088058 
L 91.680218 91.890849 
L 91.969364 83.859989 
L 92.045455 84.798963 
L 92.060673 85.452037 
L 92.121545 84.082155 
L 92.197636 82.064944 
L 92.212855 84.29534 
L 92.228073 83.965388 
L 93.110727 66.221586 
L 93.141164 66.522697 
L 93.186818 65.987828 
L 93.308564 62.085646 
L 93.354218 62.154047 
L 93.415091 61.634926 
L 93.5064 63.704653 
L 93.552055 63.400824 
L 93.567273 63.305727 
L 93.582491 65.060305 
L 93.6738 64.600733 
L 93.719455 64.387602 
L 93.734673 65.65983 
L 93.825982 64.813638 
L 93.871636 64.685819 
L 93.993382 63.40903 
L 94.023818 63.383976 
L 94.069473 62.864485 
L 94.130345 63.191684 
L 94.176 63.232529 
L 94.191218 61.859916 
L 94.282527 62.275676 
L 94.328182 62.413612 
L 94.3434 60.769172 
L 94.434709 62.619316 
L 94.480364 62.849522 
L 94.556455 64.149823 
L 94.586891 63.229188 
L 94.708636 64.572454 
L 94.830382 67.45619 
L 94.860818 67.741993 
L 94.876036 66.285256 
L 94.952127 68.83522 
L 95.089091 70.254905 
L 95.1804 67.828087 
L 95.210836 68.229574 
L 95.393455 71.323034 
L 95.530418 76.495913 
L 95.545636 76.746614 
L 95.560855 74.663596 
L 95.652164 76.842292 
L 95.926091 83.343886 
L 96.154364 89.335999 
L 96.169582 86.994213 
L 96.260891 89.465473 
L 96.687 97.523415 
L 96.702218 95.922169 
L 96.778309 99.218083 
L 96.991364 102.463186 
L 97.006582 101.518178 
L 97.067455 103.038451 
L 97.204418 106.9537 
L 97.752273 122.752874 
L 97.904455 129.698846 
L 97.919673 129.334979 
L 97.965327 130.568027 
L 97.995764 130.155167 
L 98.284909 140.730641 
L 98.361 147.111456 
L 98.406655 145.732698 
L 98.665364 152.654257 
L 98.680582 148.557709 
L 98.771891 151.439225 
L 100.5372 196.759668 
L 100.795909 201.417393 
L 100.872 203.862182 
L 100.917655 203.050748 
L 101.024182 204.544735 
L 101.100273 204.454558 
L 101.115491 202.12215 
L 101.222018 202.78335 
L 101.252455 202.98231 
L 101.404636 207.506417 
L 101.419855 207.361751 
L 101.480727 207.574778 
L 101.495945 205.531457 
L 101.587255 206.867666 
L 101.632909 206.935693 
L 101.709 209.16296 
L 101.739436 208.416902 
L 101.785091 208.387704 
L 101.906836 206.460489 
L 101.952491 206.587507 
L 102.089455 206.091193 
L 102.165545 203.671994 
L 102.2112 203.881213 
L 102.256855 204.017309 
L 102.317727 203.564865 
L 102.332945 204.129145 
L 102.409036 203.38309 
L 102.546 202.714806 
L 102.682964 198.336427 
L 102.774273 197.022602 
L 102.789491 199.084072 
L 102.8808 196.897992 
L 102.941673 197.233172 
L 103.504745 186.059566 
L 103.611273 182.321613 
L 103.748236 179.076706 
L 104.22 169.755662 
L 104.235218 171.259309 
L 104.311309 168.504867 
L 104.980909 151.003891 
L 105.117873 144.307602 
L 105.437455 135.291674 
L 105.513545 135.560333 
L 105.528764 137.550673 
L 105.604855 135.107513 
L 105.970091 120.72708 
L 106.244018 109.930412 
L 106.654909 100.894398 
L 106.670127 101.779624 
L 106.731 100.074405 
L 106.989709 92.682439 
L 108.024545 66.694814 
L 108.039764 67.847231 
L 108.176727 66.989978 
L 108.268036 68.034653 
L 108.252818 66.704023 
L 108.298473 67.691785 
L 108.328909 67.361099 
L 108.450655 65.137201 
L 108.481091 64.868893 
L 108.602836 61.681525 
L 108.633273 61.481808 
L 108.755018 59.218968 
L 108.937636 58.651159 
L 109.028945 60.587215 
L 109.059382 60.579584 
L 109.089818 60.585509 
L 109.165909 61.181654 
L 109.181127 60.136631 
L 109.242 60.265637 
L 109.333309 59.481583 
L 109.363745 59.610609 
L 109.394182 59.753686 
L 109.470273 61.695771 
L 109.500709 60.081804 
L 109.698545 61.575886 
L 109.713764 60.328329 
L 109.789855 62.250588 
L 110.002909 64.86013 
L 110.170309 69.453657 
L 110.307273 73.085806 
L 110.459455 75.731348 
L 110.474673 73.622604 
L 110.550764 76.837671 
L 111.052964 87.989561 
L 111.0834 87.525141 
L 111.448636 94.639462 
L 111.463855 92.54701 
L 111.555164 94.627682 
L 112.194327 114.024434 
L 112.879145 137.119334 
L 112.909582 136.831336 
L 113.046545 140.029482 
L 113.061764 139.173684 
L 113.122636 141.076843 
L 113.305255 149.654624 
L 113.807455 162.404871 
L 113.822673 159.9417 
L 113.913982 162.713521 
L 114.492273 182.665054 
L 114.690109 192.127251 
L 114.735764 191.785608 
L 115.024909 198.677222 
L 115.040127 197.023023 
L 115.131436 197.97939 
L 115.709727 209.379639 
L 115.785818 209.310732 
L 115.801036 207.601293 
L 115.892345 208.603816 
L 116.014091 209.698493 
L 116.029309 208.793003 
L 116.120618 209.059382 
L 116.166273 209.396418 
L 116.181491 208.307434 
L 116.2728 209.400255 
L 116.394545 209.909867 
L 116.409764 209.533969 
L 116.516291 209.628368 
L 116.622818 210.019244 
L 116.638036 208.135333 
L 116.729345 209.342869 
L 116.775 209.311124 
L 116.927182 208.65519 
L 117.018491 210.472623 
L 117.048927 210.328959 
L 117.079364 210.171484 
L 117.094582 210.602411 
L 117.155455 210.22992 
L 117.2772 206.525857 
L 117.307636 206.27051 
L 117.322855 207.454376 
L 117.414164 206.542727 
L 117.688091 203.690059 
L 117.703309 204.749216 
L 117.764182 203.880372 
L 117.901145 197.132742 
L 118.296818 191.862204 
L 118.312036 194.793677 
L 118.418564 194.046334 
L 118.525091 191.525602 
L 118.662055 186.750858 
L 118.692491 188.020103 
L 119.057727 180.096439 
L 119.072945 180.370132 
L 119.1186 179.228569 
L 120.199091 149.42188 
L 120.336055 142.818095 
L 120.366491 143.55667 
L 120.503455 140.351545 
L 120.518673 142.645221 
L 120.594764 138.970315 
L 121.644818 105.984649 
L 121.720909 100.851895 
L 121.766564 101.267224 
L 121.812218 102.121701 
L 121.949182 98.252312 
L 121.9644 99.364616 
L 122.025273 97.729229 
L 122.162236 92.216849 
L 122.192673 93.855581 
L 122.710091 79.241676 
L 122.725309 80.779027 
L 122.8014 78.908175 
L 123.775364 60.334997 
L 123.866673 63.663669 
L 123.897109 63.473658 
L 123.927545 63.296952 
L 123.942764 63.756883 
L 124.003636 63.453675 
L 124.079727 61.489586 
L 124.094945 64.017029 
L 124.110164 63.9703 
L 124.231909 63.624448 
L 124.308 62.644744 
L 124.338436 63.175525 
L 124.384091 63.188446 
L 124.4754 60.677676 
L 124.536273 60.808448 
L 124.612364 63.250979 
L 124.658018 63.117617 
L 124.688455 63.248352 
L 124.825418 65.566457 
L 124.840636 65.66495 
L 124.992818 68.325088 
L 125.084127 65.222913 
L 125.114564 65.517849 
L 125.145 65.824793 
L 125.160218 63.957018 
L 125.236309 66.834285 
L 125.297182 67.55142 
L 125.418927 70.836878 
L 125.677636 75.453376 
L 125.753727 77.644825 
L 125.799382 76.598725 
L 126.362455 85.049355 
L 126.377673 83.756243 
L 126.438545 85.122966 
L 126.575509 90.024985 
L 127.351636 110.673505 
L 127.640782 121.954092 
L 127.671218 121.160052 
L 128.569091 147.93333 
L 128.584309 145.394233 
L 128.675618 146.217274 
L 130.380055 194.416711 
L 130.699636 200.055373 
L 130.410491 194.094527 
L 130.760509 199.933282 
L 130.790945 199.867333 
L 130.851818 200.791297 
L 130.867036 199.447433 
L 130.943127 201.450412 
L 131.019218 201.298395 
L 131.232273 205.642975 
L 131.308364 208.417925 
L 131.354018 207.37033 
L 131.384455 207.616592 
L 131.521418 210.70366 
L 131.536636 210.79092 
L 131.627945 209.16089 
L 131.6736 209.336973 
L 131.688818 209.3888 
L 131.704036 207.811061 
L 131.795345 208.296978 
L 131.841 208.360611 
L 131.917091 209.73625 
L 131.962745 209.387466 
L 131.993182 209.360094 
L 132.114927 206.661152 
L 132.221455 206.367626 
L 132.358418 203.868327 
L 132.373636 203.785344 
L 132.464945 207.61203 
L 132.495382 207.401042 
L 132.525818 207.177777 
L 132.601909 204.775057 
L 132.647564 205.7112 
L 132.678 205.435263 
L 132.769309 207.620961 
L 132.799745 207.30086 
L 132.8454 208.008866 
L 133.134545 204.144727 
L 133.149764 205.990142 
L 133.225855 203.242474 
L 133.438909 198.412016 
L 133.591091 193.596989 
L 133.606309 193.760283 
L 133.636745 193.163069 
L 133.895455 186.022648 
L 134.123727 178.87906 
L 134.154164 179.380153 
L 134.275909 177.890972 
L 134.291127 179.500704 
L 134.367218 177.49493 
L 134.884636 166.589139 
L 134.899855 168.12259 
L 134.975945 165.065227 
L 135.189 156.299008 
L 135.341182 149.049931 
L 135.797727 137.01659 
L 135.812945 138.19176 
L 135.873818 136.373859 
L 135.889036 136.43082 
L 136.634727 111.046571 
L 136.771691 105.51956 
L 137.091273 98.243417 
L 137.106491 99.239608 
L 137.167364 97.561989 
L 137.182582 98.191065 
L 138.080455 76.045997 
L 138.095673 76.546372 
L 138.156545 75.346228 
L 138.384818 71.850713 
L 138.521782 67.847384 
L 138.537 67.622146 
L 138.552218 69.120536 
L 138.628309 66.149195 
L 139.221818 58.373588 
L 138.7044 66.368308 
L 139.252255 59.247755 
L 139.297909 59.079956 
L 139.313127 60.449178 
L 139.419655 60.213726 
L 139.450091 60.166952 
L 139.5414 58.263712 
L 139.587055 58.280755 
L 139.602273 58.293416 
L 139.693582 57.41217 
L 139.754455 57.572806 
L 139.921855 61.839307 
L 140.180564 63.77499 
L 140.211 64.037774 
L 140.287091 68.464026 
L 140.317527 66.525118 
L 140.3784 66.195114 
L 140.743636 70.498657 
L 140.8806 74.580322 
L 140.971909 76.393746 
L 141.048 80.752787 
L 141.093655 79.636157 
L 141.124091 80.190236 
L 141.139309 78.386737 
L 141.230618 79.820042 
L 141.961091 94.58023 
L 142.037182 98.188005 
L 142.082836 96.319952 
L 142.493727 108.876105 
L 142.737218 119.942161 
L 145.233 190.894894 
L 145.309091 190.520817 
L 145.324309 188.523238 
L 145.415618 190.805619 
L 145.841727 198.183364 
L 145.856945 197.57717 
L 145.917818 198.626933 
L 145.933036 198.408431 
L 146.222182 203.965077 
L 146.298273 206.129102 
L 146.343927 205.503891 
L 146.374364 205.841401 
L 146.450455 208.23147 
L 146.480891 206.936919 
L 146.907 211.516103 
L 146.983091 211.208558 
L 147.0744 207.78464 
L 147.104836 207.799177 
L 147.211364 207.704342 
L 147.226582 208.705093 
L 147.317891 207.518246 
L 147.363545 207.384042 
L 147.378764 208.92296 
L 147.485291 208.53459 
L 147.820091 206.806958 
L 147.957055 203.281804 
L 148.124455 200.574088 
L 148.139673 203.624232 
L 148.230982 201.436383 
L 148.291855 201.927778 
L 148.991891 189.775734 
L 149.265818 184.061548 
L 149.402782 177.565969 
L 149.494091 173.840876 
L 149.631055 170.229957 
L 149.661491 170.767186 
L 149.722364 169.247168 
L 149.737582 170.72694 
L 149.813673 168.242516 
L 150.559364 150.07804 
L 150.574582 151.69392 
L 150.650673 149.537805 
L 151.548545 121.395055 
L 151.700727 112.193022 
L 151.715945 115.661369 
L 151.807255 114.760447 
L 152.157273 106.854433 
L 152.172491 107.672305 
L 152.233364 105.94579 
L 152.370327 98.075844 
L 153.542127 68.614316 
L 153.755182 65.395563 
L 153.7704 67.036287 
L 153.861709 65.282686 
L 154.135636 61.350095 
L 153.922582 65.531365 
L 154.211727 62.037361 
L 154.226945 62.422336 
L 154.287818 61.972006 
L 154.318255 62.001629 
L 154.363909 61.711478 
L 154.500873 59.32601 
L 154.516091 59.265563 
L 154.531309 59.635143 
L 154.561745 59.528732 
L 154.592182 59.43481 
L 154.6074 60.785091 
L 154.698709 59.236814 
L 154.744364 59.186743 
L 154.790018 57.804009 
L 154.850891 58.546762 
L 154.896545 58.599919 
L 154.911764 56.535169 
L 155.003073 57.490609 
L 155.048727 57.641815 
L 155.185691 60.460303 
L 155.200909 60.545671 
L 155.216127 59.468873 
L 155.307436 60.636922 
L 155.353091 60.982153 
L 155.368309 59.548505 
L 155.4444 62.066199 
L 155.505273 62.64331 
L 155.581364 64.838824 
L 155.627018 64.482697 
L 155.733545 65.815712 
L 155.870509 68.988913 
L 156.387927 77.832489 
L 156.722727 85.944763 
L 156.951 93.578203 
L 156.966218 92.655535 
L 157.179273 96.013691 
L 157.194491 95.143119 
L 157.255364 96.621861 
L 157.270582 96.592717 
L 157.483636 99.244287 
L 157.498855 98.878923 
L 157.544509 100.079641 
L 157.711909 105.849582 
L 157.848873 110.712838 
L 157.879309 110.442306 
L 158.244545 122.616893 
L 158.396727 130.494927 
L 158.411945 128.120311 
L 158.488036 132.922336 
L 158.564127 132.214696 
L 158.701091 135.959992 
L 158.716309 135.403825 
L 158.777182 137.196395 
L 158.7924 136.075581 
L 159.081545 147.59228 
L 159.233727 154.340746 
L 159.325036 151.991125 
L 159.309818 154.437038 
L 159.355473 152.891449 
L 159.766364 167.033504 
L 159.9642 177.282752 
L 160.146818 179.747116 
L 160.162036 179.381607 
L 160.207691 180.57933 
L 160.222909 180.975752 
L 160.238127 178.502523 
L 160.299 180.075422 
L 160.375091 181.787487 
L 160.831636 195.140475 
L 160.862073 195.042997 
L 161.440364 205.603711 
L 161.455582 202.55351 
L 161.546891 204.390837 
L 161.896909 209.411659 
L 161.973 208.715671 
L 162.049091 212.377906 
L 162.094745 212.35412 
L 162.125182 212.472089 
L 162.201273 213.456548 
L 162.216491 211.847782 
L 162.277364 211.956829 
L 162.353455 213.521337 
L 162.368673 211.681529 
L 162.383891 211.682015 
L 162.429545 211.664666 
L 162.566509 208.702096 
L 162.581727 208.666207 
L 162.673036 210.58863 
L 162.718691 210.412318 
L 162.733909 210.347816 
L 162.825218 212.509695 
L 162.870873 212.23317 
L 162.886091 212.134747 
L 163.023055 206.620694 
L 163.083927 205.216979 
L 163.266545 203.212259 
L 163.281764 204.718565 
L 163.373073 204.067722 
L 163.951364 196.81782 
L 163.433945 204.648496 
L 164.027455 196.835993 
L 164.042673 197.506908 
L 164.103545 196.296416 
L 164.286164 188.257781 
L 164.864455 174.695034 
L 164.940545 175.157132 
L 164.955764 176.911778 
L 165.047073 174.718258 
L 165.244909 168.888894 
L 165.381873 161.749992 
L 166.081909 140.715479 
L 166.218873 135.790266 
L 167.223273 107.941659 
L 167.238491 108.821445 
L 167.299364 107.070536 
L 167.314582 107.932539 
L 168.592909 74.248486 
L 168.608127 76.135386 
L 168.699436 74.474198 
L 169.201636 66.285278 
L 169.216855 67.390604 
L 169.277727 66.724257 
L 169.414691 63.123864 
L 169.445127 63.523384 
L 169.734273 61.021699 
L 169.749491 61.488096 
L 169.8408 61.119104 
L 169.886455 61.034842 
L 169.901673 61.797711 
L 169.977764 60.221387 
L 170.038636 60.25374 
L 170.053855 59.512257 
L 170.145164 60.225756 
L 170.190818 60.361412 
L 170.206036 59.293423 
L 170.266909 59.537552 
L 170.343 62.454702 
L 170.373436 60.17039 
L 170.647364 62.293856 
L 170.875636 68.581931 
L 170.890855 67.533582 
L 170.951727 68.308165 
L 171.027818 72.185832 
L 171.073473 72.044852 
L 171.18 73.889139 
L 171.256091 73.237826 
L 171.271309 72.114556 
L 171.332182 73.105233 
L 171.408273 75.995738 
L 171.453927 75.460963 
L 171.712636 81.354441 
L 171.895255 86.226585 
L 172.625727 103.713675 
L 172.777909 107.615577 
L 172.793127 105.305237 
L 172.869218 108.263308 
L 173.919273 138.345226 
L 174.101891 147.372675 
L 174.299727 149.952111 
L 174.314945 149.666378 
L 174.345382 150.564734 
L 175.821545 191.999526 
L 175.836764 189.663487 
L 175.928073 191.209078 
L 176.688982 205.580287 
L 177.267273 211.984534 
L 177.358582 210.027736 
L 177.389018 210.111394 
L 177.495545 210.492167 
L 177.556418 211.59065 
L 177.586855 210.123005 
L 177.647727 210.083942 
L 177.723818 209.820579 
L 177.815127 212.086034 
L 177.860782 211.920616 
L 177.876 211.858862 
L 178.028182 208.113225 
L 178.0434 208.578965 
L 178.104273 208.16924 
L 178.180364 206.434981 
L 178.2108 207.976096 
L 178.636909 204.515118 
L 178.789091 200.093258 
L 178.804309 200.854345 
L 178.865182 199.899909 
L 178.895618 200.184506 
L 180.036982 179.849454 
L 180.387 168.537705 
L 180.615273 162.623649 
L 180.630491 162.867784 
L 181.147909 150.733269 
L 181.163127 151.673968 
L 181.224 149.861709 
L 181.832727 128.938839 
L 181.969691 123.247922 
L 182.213182 113.466565 
L 182.350145 108.654349 
L 182.380582 109.040059 
L 183.050182 91.397878 
L 183.0654 91.801452 
L 183.111055 90.623291 
L 184.267636 62.856718 
L 183.141491 91.349682 
L 184.298073 63.059139 
L 184.343727 62.508541 
L 184.358945 63.413129 
L 184.419818 62.734199 
L 184.511127 64.979538 
L 184.541564 64.689555 
L 184.572 64.411513 
L 184.708964 61.120396 
L 184.724182 61.014912 
L 184.7394 62.283263 
L 184.815491 60.665758 
L 184.952455 59.627984 
L 184.967673 60.432854 
L 185.028545 60.255386 
L 185.104636 58.661843 
L 185.119855 61.408703 
L 185.180727 61.353735 
L 185.256818 62.459657 
L 185.302473 62.29207 
L 185.332909 62.328863 
L 185.348127 62.085264 
L 185.424218 62.60786 
L 185.485091 62.793561 
L 185.561182 63.754379 
L 185.5764 62.041399 
L 185.637273 62.350953 
L 185.713364 65.205072 
L 185.7438 63.469278 
L 185.789455 63.800891 
L 185.880764 62.892388 
L 185.9112 63.166321 
L 185.941636 63.452918 
L 185.956855 62.107089 
L 186.048164 63.081925 
L 186.169909 64.206927 
L 186.291655 68.379642 
L 186.322091 68.807979 
L 186.398182 72.126643 
L 186.443836 71.590492 
L 186.474273 72.06288 
L 186.626455 77.553597 
L 186.717764 76.164054 
L 186.732982 76.434618 
L 187.235182 85.922768 
L 187.372145 91.043159 
L 187.402582 90.397161 
L 187.463455 91.828657 
L 187.478673 90.26523 
L 187.569982 91.936373 
L 187.691727 97.033047 
L 187.828691 101.659061 
L 189.441818 146.388232 
L 189.746182 157.239549 
L 189.7614 155.910623 
L 189.822273 157.734938 
L 189.959236 161.52142 
L 190.050545 163.525192 
L 190.065764 160.872996 
L 190.157073 161.799855 
L 190.354909 168.892678 
L 190.491873 174.13535 
L 191.344091 196.65582 
L 191.404964 196.532436 
L 191.876727 206.551767 
L 191.952818 209.394183 
L 191.998473 208.437022 
L 192.028909 208.773771 
L 192.120218 206.851538 
L 192.150655 207.144421 
L 192.257182 209.062169 
L 192.546327 214.957623 
L 192.561545 215.007816 
L 192.652855 214.451843 
L 192.683291 214.504207 
L 192.713727 214.542407 
L 192.728945 214.18692 
L 192.805036 214.607535 
L 192.820255 214.601384 
L 192.865909 214.562489 
L 193.322455 207.097657 
L 193.413764 209.87405 
L 193.4442 209.619332 
L 193.474636 209.352909 
L 193.489855 210.040083 
L 193.550727 209.464964 
L 193.565945 210.315534 
L 193.642036 208.560341 
L 193.763782 205.963917 
L 193.855091 204.171058 
L 193.931182 199.470724 
L 193.961618 201.850027 
L 194.159455 198.921128 
L 194.235545 195.591806 
L 194.2812 196.501012 
L 194.463818 191.589436 
L 194.600782 186.626088 
L 194.616 186.313065 
L 194.631218 189.73013 
L 194.722527 186.29872 
L 194.920364 179.944671 
L 195.057327 174.307525 
L 195.087764 175.365065 
L 195.224727 172.871965 
L 195.239945 173.113998 
L 195.270382 172.372888 
L 195.742145 158.124346 
L 195.772582 158.234454 
L 195.909545 155.266558 
L 195.924764 157.938586 
L 196.016073 155.686726 
L 196.29 146.280333 
L 196.442182 139.27028 
L 196.594364 133.760428 
L 196.609582 135.437228 
L 196.700891 133.447211 
L 196.761764 133.67602 
L 196.974818 127.979184 
L 196.990036 128.493884 
L 197.035691 127.118849 
L 197.279182 117.481773 
L 197.446582 107.490103 
L 197.811818 97.677679 
L 197.827036 100.251512 
L 197.918345 98.932327 
L 198.116182 94.988104 
L 198.1314 96.579654 
L 198.207491 94.244238 
L 198.953182 77.085553 
L 198.9684 77.550358 
L 199.029273 76.336636 
L 199.181455 70.378316 
L 199.561909 64.72149 
L 199.638 65.324485 
L 199.714091 64.482833 
L 199.790182 64.718785 
L 199.8054 64.789975 
L 199.835836 64.521376 
L 199.942364 63.364032 
L 199.957582 64.468892 
L 200.033673 62.786517 
L 200.170636 61.865026 
L 200.246727 61.979521 
L 200.322818 60.707484 
L 200.353255 61.67353 
L 200.398909 61.630867 
L 200.490218 58.699319 
L 200.520655 58.730711 
L 200.551091 58.776028 
L 200.703273 60.344143 
L 200.718491 59.876042 
L 200.779364 60.151786 
L 200.901109 62.308284 
L 200.931545 62.515001 
L 200.946764 61.22743 
L 201.038073 61.692169 
L 201.083727 62.087884 
L 201.098945 61.239597 
L 201.159818 61.831881 
L 201.296782 66.634712 
L 201.312 66.813763 
L 201.327218 65.731308 
L 201.388091 66.488734 
L 201.403309 63.98977 
L 201.494618 66.195643 
L 201.844636 72.066654 
L 201.996818 77.097967 
L 202.133782 80.393613 
L 202.377273 87.377123 
L 202.514236 91.077689 
L 202.544673 90.461619 
L 203.214273 109.335758 
L 203.442545 114.819698 
L 203.457764 111.73978 
L 203.549073 114.593957 
L 203.746909 121.900811 
L 203.823 119.786771 
L 203.838218 118.846838 
L 203.914309 120.94791 
L 204.203455 131.406969 
L 204.355636 140.015701 
L 204.568691 146.503533 
L 204.599127 145.911091 
L 204.812182 150.539014 
L 205.040455 155.677014 
L 205.253509 164.537478 
L 205.725273 177.039181 
L 205.740491 175.01657 
L 205.8318 177.607878 
L 206.790545 200.387726 
L 206.805764 199.010712 
L 206.881855 201.268585 
L 206.957945 201.260954 
L 207.171 205.207189 
L 207.186218 203.474121 
L 207.277527 204.418772 
L 207.323182 204.891581 
L 207.414491 202.58146 
L 207.444927 202.852318 
L 207.551455 204.339607 
L 207.627545 206.792134 
L 207.6732 206.65634 
L 207.703636 206.823185 
L 207.718855 205.90029 
L 207.810164 206.134634 
L 207.855818 206.29867 
L 207.977564 207.61275 
L 208.008 207.648872 
L 208.099309 209.522322 
L 208.129745 209.501212 
L 208.160182 209.466373 
L 208.1754 210.985149 
L 208.281927 210.538022 
L 208.388455 209.847766 
L 208.464545 208.6535 
L 208.494982 209.73673 
L 208.571073 208.439437 
L 208.616727 208.065292 
L 208.768909 204.53841 
L 208.845 203.812491 
L 208.860218 205.158002 
L 208.951527 204.655417 
L 209.271109 199.171522 
L 209.316764 199.464422 
L 209.377636 198.439799 
L 209.5146 192.275821 
L 209.529818 191.997836 
L 209.545036 193.536277 
L 209.605909 192.391356 
L 209.621127 192.654285 
L 209.666782 191.769002 
L 209.697218 191.909499 
L 209.986364 183.491554 
L 210.123327 179.185679 
L 210.366818 175.690485 
L 210.382036 178.042812 
L 210.473345 177.026143 
L 210.595091 173.626518 
L 210.716836 166.760663 
L 210.762491 166.82046 
L 210.899455 164.162434 
L 210.914673 165.264024 
L 210.975545 163.617203 
L 211.005982 163.887647 
L 211.066855 164.931856 
L 211.356 154.616932 
L 211.492964 146.031756 
L 211.888636 136.429282 
L 211.903855 139.044054 
L 211.995164 136.816166 
L 212.193 129.099013 
L 212.314745 123.636394 
L 212.832164 111.49117 
L 214.095273 74.274095 
L 214.171364 75.018601 
L 214.186582 75.341634 
L 214.232236 74.473344 
L 214.475727 68.323627 
L 214.551818 68.461073 
L 214.643127 71.421687 
L 214.673564 71.009341 
L 214.704 70.607701 
L 214.795309 72.98207 
L 214.825745 72.617669 
L 214.856182 72.262978 
L 214.993145 68.075322 
L 215.023582 68.284353 
L 215.084455 67.742812 
L 215.160545 63.707007 
L 215.2062 64.006708 
L 215.312727 62.803858 
L 215.388818 63.520967 
L 215.464909 60.673862 
L 215.510564 61.300018 
L 215.541 61.24919 
L 215.662745 62.998078 
L 215.693182 63.01257 
L 215.769273 63.68881 
L 215.784491 62.595941 
L 215.845364 62.722634 
L 215.982327 65.056012 
L 215.997545 65.121007 
L 216.012764 62.005065 
L 216.104073 63.193163 
L 216.149727 63.476062 
L 216.164945 60.893746 
L 216.256255 63.182434 
L 216.682364 67.146541 
L 216.849764 71.366625 
L 216.986727 74.939916 
L 217.138909 79.791284 
L 217.154127 78.016016 
L 217.245436 79.7022 
L 217.519364 83.041589 
L 217.534582 81.697777 
L 217.625891 82.993768 
L 218.432455 102.698513 
L 218.508545 106.42781 
L 218.5542 104.841545 
L 218.599855 104.832136 
L 219.726 139.522644 
L 219.939055 147.560791 
L 220.258636 153.861122 
L 220.273855 153.786452 
L 220.289073 154.23553 
L 220.563 160.307385 
L 220.578218 158.941625 
L 220.654309 161.956219 
L 221.171727 179.956995 
L 221.354345 186.572263 
L 221.476091 191.731092 
L 221.613055 194.599896 
L 221.643491 194.511166 
L 221.704364 195.748854 
L 221.719582 193.74802 
L 221.810891 195.910059 
L 222.541364 209.078749 
L 222.632673 207.086133 
L 222.663109 207.346225 
L 222.693545 207.59386 
L 222.784855 205.422877 
L 222.830509 205.711875 
L 222.845727 205.802407 
L 222.982691 208.428964 
L 222.997909 208.488862 
L 223.074 209.533431 
L 223.104436 208.815784 
L 223.150091 208.911496 
L 223.256618 212.062791 
L 223.271836 212.06022 
L 223.302273 212.04423 
L 223.378364 210.669393 
L 223.4088 211.414848 
L 223.454455 211.29064 
L 223.591418 208.866004 
L 223.606636 208.791332 
L 223.621855 210.700075 
L 223.713164 208.863899 
L 223.758818 208.555388 
L 223.834909 206.512699 
L 223.880564 206.519691 
L 223.911 206.256104 
L 223.987091 203.762901 
L 224.032745 204.394551 
L 224.063182 204.075559 
L 224.0784 205.23854 
L 224.169709 204.421751 
L 224.215364 203.867796 
L 224.230582 206.573539 
L 224.321891 205.193781 
L 224.443636 202.094625 
L 224.519727 199.778423 
L 224.565382 200.079473 
L 224.595818 199.590144 
L 224.732782 195.439062 
L 224.900182 191.160181 
L 224.763218 196.513305 
L 224.976273 192.041347 
L 225.067582 193.779148 
L 225.0828 193.472684 
L 225.585 182.134909 
L 225.737182 176.324449 
L 225.782836 175.454772 
L 225.813273 174.67718 
L 225.950236 167.629091 
L 225.980673 167.685788 
L 226.650273 151.76665 
L 226.665491 152.054884 
L 226.695927 151.183925 
L 226.741582 151.250656 
L 227.030727 139.575635 
L 227.182909 132.977883 
L 227.259 130.400604 
L 227.274218 133.926382 
L 227.791636 115.407283 
L 228.019909 107.29397 
L 228.035127 108.044196 
L 228.933 83.787853 
L 228.948218 84.613959 
L 229.024309 82.823565 
L 229.541727 69.085083 
L 229.693909 69.645199 
L 229.709127 71.995792 
L 229.785218 68.436937 
L 229.998273 64.159696 
L 230.180891 58.050194 
L 230.302636 56.075354 
L 230.378727 57.099732 
L 230.470036 63.235379 
L 230.530909 62.925521 
L 230.652655 61.539844 
L 230.759182 61.334814 
L 230.896145 59.637651 
L 230.911364 59.640839 
L 231.033109 62.461808 
L 231.063545 62.525791 
L 231.078764 61.266805 
L 231.170073 62.323489 
L 231.215727 62.512928 
L 231.337473 64.126754 
L 231.444 65.080892 
L 231.459218 63.526254 
L 231.550527 65.182055 
L 231.672273 66.04892 
L 231.687491 64.161913 
L 231.7788 65.95624 
L 231.824455 66.489929 
L 231.900545 69.213951 
L 231.9462 69.088082 
L 231.991855 68.28486 
L 232.204909 72.4242 
L 232.220127 71.091669 
L 232.311436 71.929277 
L 232.813636 80.414344 
L 232.9506 85.396351 
L 233.118 90.741729 
L 233.270182 95.920489 
L 233.422364 100.271604 
L 233.437582 98.232792 
L 234.168055 119.434987 
L 235.476818 153.652391 
L 235.492036 152.549681 
L 235.552909 154.318344 
L 235.705091 162.401984 
L 235.720309 160.584752 
L 235.7964 164.507928 
L 236.146418 171.299153 
L 236.618182 182.145335 
L 236.6334 180.674221 
L 236.709491 183.854699 
L 236.922545 190.708425 
L 236.998636 193.11663 
L 237.013855 190.533215 
L 237.029073 190.838622 
L 237.074727 191.74125 
L 237.211691 198.24132 
L 237.226909 198.511086 
L 237.242127 196.250015 
L 237.333436 198.693444 
L 237.911727 209.392561 
L 238.079127 214.191838 
L 238.14 214.508195 
L 238.231309 211.090141 
L 238.276964 211.233547 
L 238.368273 211.652911 
L 238.444364 213.554811 
L 238.4748 212.592878 
L 238.520455 212.578811 
L 238.596545 211.746661 
L 238.626982 212.098825 
L 238.672636 211.982885 
L 238.748727 210.731483 
L 238.794382 210.881845 
L 238.824818 210.740126 
L 238.900909 209.084866 
L 238.931345 210.202626 
L 238.977 209.907467 
L 238.992218 212.683198 
L 239.083527 211.91551 
L 239.129182 211.524904 
L 239.250927 208.659767 
L 239.281364 208.340013 
L 239.357455 206.015168 
L 239.403109 206.215353 
L 239.433545 205.847024 
L 239.448764 207.133453 
L 239.540073 206.24022 
L 239.890091 200.010484 
L 240.042273 194.579076 
L 240.194455 190.886637 
L 240.209673 191.40947 
L 240.270545 190.178761 
L 240.437945 182.985453 
L 241.031455 172.142818 
L 241.046673 172.924835 
L 241.107545 171.38229 
L 243.542455 101.505037 
L 243.557673 104.443301 
L 243.648982 103.349433 
L 244.075091 89.693463 
L 244.212055 84.536362 
L 245.064273 66.373995 
L 245.079491 66.613515 
L 245.125145 66.008329 
L 245.155582 66.656257 
L 245.368636 63.346357 
L 245.383855 64.406662 
L 245.459945 62.503751 
L 245.520818 61.986193 
L 245.612127 64.725651 
L 245.642564 64.517438 
L 245.673 64.319955 
L 245.749091 63.101171 
L 245.794745 63.687302 
L 245.825182 63.548697 
L 245.946927 60.983786 
L 245.977364 60.911077 
L 246.053455 59.952424 
L 246.068673 62.244481 
L 246.159982 60.428826 
L 246.205636 60.462462 
L 246.220855 60.273681 
L 246.281727 60.382156 
L 246.418691 61.895082 
L 246.449127 61.622973 
L 246.586091 62.490572 
L 246.6774 61.119922 
L 246.707836 61.366342 
L 246.966545 64.045102 
L 246.981764 62.452732 
L 247.073073 62.974259 
L 247.194818 65.133741 
L 247.331782 67.805366 
L 247.347 68.043119 
L 247.362218 66.271997 
L 247.438309 68.853127 
L 247.499182 69.897012 
L 247.575273 73.117963 
L 247.620927 72.640836 
L 248.031818 81.41796 
L 248.199218 86.606664 
L 248.868818 102.786999 
L 248.944909 107.376002 
L 248.990564 106.950114 
L 249.477545 117.072891 
L 249.492764 115.689097 
L 249.553636 117.385969 
L 249.675382 124.992329 
L 250.771091 158.512319 
L 250.938491 164.835882 
L 251.151545 170.5176 
L 251.166764 167.753999 
L 251.258073 170.143714 
L 252.597273 204.185259 
L 252.612491 200.798587 
L 252.7038 203.923864 
L 252.977727 208.429903 
L 253.053818 211.535751 
L 253.084255 209.499577 
L 253.434273 213.484102 
L 253.510364 215.524381 
L 253.525582 212.290912 
L 253.586455 212.441927 
L 253.662545 213.697168 
L 253.7082 213.63455 
L 253.738636 213.637382 
L 253.8756 210.370524 
L 253.890818 210.33841 
L 253.982127 214.384472 
L 254.012564 214.267951 
L 254.043 214.139165 
L 254.119091 212.976673 
L 254.149527 213.692488 
L 254.225618 212.591299 
L 254.271273 212.265116 
L 254.286491 212.979302 
L 254.3778 212.70363 
L 254.423455 212.291239 
L 254.5452 208.872224 
L 254.651727 207.411175 
L 254.788691 203.443147 
L 254.803909 203.244258 
L 254.819127 204.393965 
L 254.88 203.56146 
L 254.895218 204.165689 
L 254.956091 203.27598 
L 255.093055 200.789294 
L 255.123491 200.992011 
L 255.184364 199.957842 
L 255.199582 200.930459 
L 255.290891 199.720041 
L 255.412636 195.732978 
L 255.488727 191.107406 
L 255.534382 191.657411 
L 255.793091 184.12034 
L 256.082236 177.388067 
L 257.314909 146.131218 
L 257.497527 136.489744 
L 258.912818 94.220819 
L 258.988909 94.616617 
L 259.004127 95.021636 
L 259.049782 93.820025 
L 259.080218 94.677991 
L 259.369364 87.121119 
L 259.384582 89.193417 
L 259.475891 87.793719 
L 259.749818 79.426222 
L 259.886782 76.261232 
L 259.917218 76.365559 
L 260.130273 72.239248 
L 260.145491 73.682199 
L 260.2368 72.88727 
L 260.282455 72.220029 
L 260.358545 69.228765 
L 260.4042 69.377472 
L 260.434636 68.99506 
L 260.510727 65.521009 
L 260.556382 66.506016 
L 260.662909 65.430816 
L 260.678127 66.899257 
L 260.784655 66.499574 
L 260.815091 66.278974 
L 260.9064 68.241083 
L 260.936836 68.071136 
L 261.043364 67.054146 
L 261.180327 65.28049 
L 261.195545 65.252909 
L 261.210764 67.268732 
L 261.317291 66.857873 
L 261.423818 66.820744 
L 261.499909 67.6477 
L 261.591218 64.958208 
L 261.621655 65.077695 
L 261.652091 65.210357 
L 261.667309 64.561533 
L 261.728182 64.883848 
L 261.804273 66.736842 
L 261.834709 65.56919 
L 261.880364 65.908201 
L 261.971673 64.605323 
L 262.002109 64.888123 
L 262.108636 65.938318 
L 262.123855 64.008318 
L 262.215164 64.982043 
L 262.260818 65.553891 
L 262.276036 64.095095 
L 262.367345 65.155394 
L 262.641273 70.557145 
L 262.763018 75.22878 
L 263.021727 81.513065 
L 263.158691 85.250027 
L 263.173909 85.571048 
L 263.189127 82.649231 
L 263.280436 85.153821 
L 263.630455 95.221242 
L 263.934818 104.606944 
L 263.950036 103.83295 
L 264.010909 105.423314 
L 264.026127 105.104945 
L 264.619636 118.505843 
L 264.634855 117.50271 
L 264.695727 119.293421 
L 264.878345 128.026669 
L 265.837091 158.110829 
L 265.974055 163.294537 
L 266.369727 172.002046 
L 266.384945 171.672683 
L 266.4306 172.953832 
L 266.902364 184.551205 
L 266.917582 182.953415 
L 267.008891 183.800786 
L 267.708927 198.056425 
L 267.891545 199.832184 
L 267.906764 199.396333 
L 267.967636 200.208239 
L 268.180691 204.985429 
L 268.348091 207.131912 
L 268.485055 209.256721 
L 268.576364 209.900487 
L 268.652455 211.445384 
L 268.667673 209.630543 
L 268.682891 209.67556 
L 268.728545 209.789767 
L 268.819855 208.194938 
L 268.850291 208.214359 
L 268.880727 208.220631 
L 268.956818 207.592659 
L 268.972036 208.936381 
L 269.032909 208.837651 
L 269.048127 209.241762 
L 269.139436 208.888773 
L 269.261182 208.438775 
L 269.2764 211.236203 
L 269.367709 207.978638 
L 269.535109 206.120439 
L 269.641636 204.736974 
L 269.656855 206.512938 
L 269.748164 205.932401 
L 270.022091 202.061191 
L 270.098182 202.577586 
L 270.1134 204.809822 
L 270.189491 199.707749 
L 270.250364 198.686571 
L 270.372109 194.487782 
L 270.417764 195.298573 
L 271.087364 181.073976 
L 271.102582 183.63146 
L 271.178673 180.238702 
L 272.304818 151.37599 
L 272.441782 145.513137 
L 273.902727 105.783471 
L 273.917945 106.291774 
L 273.9636 104.979523 
L 274.739727 84.874332 
L 274.754945 85.439269 
L 275.044091 78.081043 
L 275.120182 74.453052 
L 275.165836 74.670335 
L 275.728909 64.946361 
L 275.744127 66.790081 
L 275.820218 64.284152 
L 275.881091 63.711147 
L 275.896309 64.776872 
L 275.987618 63.533526 
L 276.033273 63.195488 
L 276.048491 64.073921 
L 276.124582 62.918313 
L 276.261545 61.661506 
L 276.383291 58.509511 
L 276.489818 58.232222 
L 276.581127 58.331735 
L 276.642 58.431036 
L 276.657218 57.778865 
L 276.733309 59.029295 
L 276.870273 59.798659 
L 277.007236 62.457209 
L 277.022455 62.563924 
L 277.037673 60.755939 
L 277.128982 62.689269 
L 277.174636 63.092184 
L 277.3116 67.279101 
L 277.326818 67.440136 
L 277.342036 65.876275 
L 277.433345 67.412307 
L 277.479 67.971182 
L 277.494218 66.467913 
L 277.585527 66.799134 
L 277.631182 67.446557 
L 277.768145 72.421756 
L 277.859455 74.474365 
L 277.935545 73.742122 
L 277.950764 72.337505 
L 278.042073 73.415463 
L 278.239909 78.512622 
L 278.376873 82.819737 
L 278.407309 82.634703 
L 278.696455 88.05734 
L 278.711673 87.489272 
L 278.772545 88.91561 
L 279.076909 99.39261 
L 279.107345 97.704328 
L 279.685636 114.926223 
L 279.807382 121.097696 
L 280.142182 127.846385 
L 280.1574 127.365888 
L 280.203055 128.69675 
L 280.294364 133.387205 
L 280.431327 137.727834 
L 281.055273 152.881687 
L 281.146582 158.563292 
L 281.435727 163.838217 
L 281.450945 162.080702 
L 281.527036 165.530764 
L 282.424909 188.837041 
L 282.516218 188.062423 
L 282.501 189.394886 
L 282.531436 188.385444 
L 282.881455 197.264638 
L 283.033636 201.826774 
L 283.048855 201.131521 
L 283.124945 202.634924 
L 283.261909 204.793486 
L 283.398873 208.67535 
L 283.414091 208.827661 
L 283.429309 208.038736 
L 283.490182 208.604957 
L 283.5054 207.788724 
L 283.596709 208.634005 
L 283.718455 210.007208 
L 283.794545 209.548011 
L 283.809764 208.080422 
L 283.916291 208.22965 
L 283.946727 208.320832 
L 284.022818 210.358864 
L 284.053255 208.9666 
L 284.098909 209.00952 
L 284.144564 210.436071 
L 284.205436 209.171032 
L 284.251091 209.117703 
L 284.3424 210.303832 
L 284.388055 210.162347 
L 284.403273 210.108955 
L 284.418491 212.901163 
L 284.5098 211.380356 
L 284.555455 211.132007 
L 284.6772 207.232278 
L 284.859818 205.352615 
L 284.875036 207.397345 
L 284.966345 205.444077 
L 285.316364 201.072919 
L 285.468545 198.387189 
L 285.483764 199.111198 
L 285.559855 198.042003 
L 285.696818 196.79347 
L 285.712036 197.674943 
L 285.772909 196.506105 
L 285.955527 190.026318 
L 286.320764 180.043135 
L 286.914273 165.033589 
L 287.051236 159.573299 
L 288.436091 119.58669 
L 288.573055 115.838008 
L 288.816545 108.743384 
L 288.907855 112.459801 
L 288.938291 111.572062 
L 289.425273 95.941543 
L 289.562236 90.962135 
L 289.729636 87.119073 
L 289.805727 87.281131 
L 289.820945 88.310628 
L 289.881818 86.82869 
L 289.957909 84.190843 
L 290.003564 85.486583 
L 290.110091 81.500087 
L 290.247055 78.324566 
L 290.871 65.119589 
L 290.931873 66.371578 
L 291.023182 65.599098 
L 291.0384 66.711458 
L 291.129709 65.582469 
L 291.251455 64.916545 
L 291.266673 66.085869 
L 291.357982 65.242922 
L 291.403636 65.008514 
L 291.525382 62.862345 
L 291.555818 62.778773 
L 291.723218 60.681431 
L 291.860182 60.738102 
L 291.8754 60.566262 
L 291.936273 60.746477 
L 292.058018 62.980895 
L 292.088455 63.135291 
L 292.164545 64.98201 
L 292.194982 63.401493 
L 292.240636 63.71224 
L 292.316727 65.972424 
L 292.331945 62.810017 
L 292.468909 64.226699 
L 292.605873 69.368062 
L 292.697182 70.261869 
L 292.7124 69.22689 
L 292.803709 69.814697 
L 292.864582 69.547402 
L 293.305909 76.854591 
L 293.442873 82.2664 
L 294.142909 96.369149 
L 294.158127 93.296142 
L 294.249436 96.255446 
L 294.447273 102.75326 
L 294.599455 109.514936 
L 294.614673 109.433638 
L 294.629891 109.845266 
L 295.816909 142.776194 
L 295.953873 150.868908 
L 296.349545 160.083237 
L 296.364764 159.694826 
L 296.410418 161.042725 
L 296.440855 160.121439 
L 297.338727 185.610389 
L 297.353945 184.890178 
L 297.414818 186.404309 
L 297.430036 185.825772 
L 298.251818 203.94723 
L 298.267036 203.451811 
L 298.327909 204.316797 
L 298.404 206.008515 
L 298.495309 202.458914 
L 298.525745 202.807619 
L 298.5714 202.417666 
L 299.164909 208.887356 
L 299.180127 208.762824 
L 299.241 208.889094 
L 299.362745 210.576274 
L 299.423618 210.45398 
L 299.469273 210.395614 
L 299.591018 209.250102 
L 299.621455 209.146191 
L 299.636673 209.731137 
L 299.697545 209.469839 
L 299.773636 206.557132 
L 299.804073 208.570908 
L 300.001909 207.295165 
L 300.154091 204.940551 
L 300.306273 202.207667 
L 300.397582 205.248031 
L 300.428018 204.825062 
L 300.534545 202.467559 
L 300.686727 196.941391 
L 300.701945 197.907393 
L 300.762818 196.854384 
L 300.793255 197.379099 
L 300.915 193.196466 
L 301.599818 180.256784 
L 301.615036 181.557865 
L 301.706345 179.937115 
L 302.208545 167.40516 
L 302.345509 160.443565 
L 302.893364 142.923924 
L 303.075982 135.254284 
L 303.349909 129.924456 
L 303.365127 132.12313 
L 303.441218 129.53495 
L 304.491273 96.425995 
L 304.567364 97.032783 
L 304.582582 99.074189 
L 304.673891 96.57999 
L 305.419582 79.51927 
L 305.480455 78.314928 
L 305.495673 81.825053 
L 305.586982 77.974085 
L 305.632636 77.147689 
L 305.647855 78.39835 
L 305.708727 77.338011 
L 305.723945 77.673236 
L 305.784818 76.661977 
L 305.967436 69.580515 
L 306.165273 66.359741 
L 306.241364 64.008861 
L 306.2718 66.150179 
L 306.317455 65.72585 
L 306.454418 63.121533 
L 306.469636 63.017152 
L 306.484855 63.969132 
L 306.560945 62.316545 
L 306.621818 62.017659 
L 306.713127 63.735708 
L 306.743564 63.643611 
L 306.774 63.564231 
L 306.850091 62.252627 
L 306.880527 62.847675 
L 306.926182 62.817199 
L 306.956618 60.489097 
L 307.047927 60.943342 
L 307.078364 60.993176 
L 307.093582 60.585968 
L 307.154455 60.739318 
L 307.291418 62.911717 
L 307.306636 62.983533 
L 307.321855 62.428447 
L 307.413164 62.575277 
L 307.458818 62.87822 
L 307.474036 61.900358 
L 307.534909 62.363397 
L 307.671873 65.73216 
L 307.702309 65.375576 
L 307.915364 67.909956 
L 308.052327 71.849891 
L 308.082764 70.890158 
L 308.371909 77.183202 
L 308.448 79.844136 
L 308.493655 78.435207 
L 309.589364 100.270826 
L 309.7872 106.362076 
L 309.832855 105.585233 
L 311.339455 150.540337 
L 311.491636 157.267036 
L 311.506855 157.256245 
L 312.024273 169.52843 
L 312.054709 170.030924 
L 312.861273 190.162152 
L 312.876491 189.636231 
L 312.937364 190.988455 
L 312.952582 191.003694 
L 313.089545 196.17474 
L 313.165636 200.250537 
L 313.211291 200.192081 
L 313.317818 203.073735 
L 313.439564 207.812018 
L 313.546091 209.08512 
L 313.561309 207.788676 
L 313.652618 208.792835 
L 313.698273 209.343364 
L 313.713491 206.883199 
L 313.8048 209.163851 
L 313.850455 209.620269 
L 313.865673 205.953278 
L 313.956982 208.141249 
L 314.078727 209.915981 
L 314.154818 212.428134 
L 314.185255 211.070074 
L 314.307 211.499829 
L 314.398309 209.205123 
L 314.443964 209.304446 
L 314.459182 209.331685 
L 314.4744 208.854152 
L 314.550491 209.598619 
L 314.611364 209.604203 
L 314.626582 210.000036 
L 314.687455 209.942595 
L 314.8092 208.629614 
L 314.839636 208.532349 
L 314.854855 209.701631 
L 314.946164 208.207554 
L 315.067909 207.61306 
L 315.083127 208.298417 
L 315.174436 207.979797 
L 315.524455 205.594472 
L 315.661418 202.25367 
L 315.904909 197.536034 
L 316.041873 194.805132 
L 316.057091 194.53144 
L 316.072309 197.616344 
L 316.163618 195.257737 
L 316.589727 186.112133 
L 316.726691 181.611452 
L 317.350636 165.31361 
L 317.502818 160.5447 
L 317.518036 161.239898 
L 317.578909 159.585833 
L 317.731091 155.745421 
L 317.746309 156.416166 
L 317.807182 154.716383 
L 317.9898 147.257508 
L 318.568091 132.254317 
L 318.583309 133.657271 
L 318.6594 131.336102 
L 320.242091 82.353147 
L 320.394273 82.555032 
L 320.409491 84.550797 
L 320.5008 82.773839 
L 321.383455 64.458447 
L 321.398673 65.953437 
L 321.474764 63.473897 
L 321.535636 62.879989 
L 321.550855 64.325855 
L 321.626945 62.338052 
L 321.687818 61.881212 
L 321.703036 63.588491 
L 321.794345 61.704167 
L 321.84 61.468284 
L 321.931309 63.404589 
L 321.961745 63.300171 
L 321.992182 63.208199 
L 322.068273 62.429052 
L 322.113927 62.603418 
L 322.144364 62.569309 
L 322.296545 63.788604 
L 322.463945 62.350513 
L 322.372636 63.811268 
L 322.524818 62.58446 
L 322.540036 61.915113 
L 322.631345 62.084329 
L 322.753091 62.824519 
L 322.829182 66.163024 
L 322.859618 64.260739 
L 322.981364 64.884815 
L 323.057455 67.643533 
L 323.103109 67.386411 
L 323.148764 67.130582 
L 323.361818 71.039299 
L 323.498782 73.612109 
L 323.818364 77.136456 
L 323.833582 74.974274 
L 323.924891 75.592032 
L 324.503182 88.056147 
L 324.655364 96.003324 
L 324.670582 95.450848 
L 324.731455 96.957559 
L 324.807545 98.682813 
L 325.035818 107.427782 
L 325.051036 107.109442 
L 325.096691 108.287872 
L 325.111909 108.681571 
L 325.127127 105.902937 
L 325.218436 107.355871 
L 325.872818 127.096676 
L 325.948909 130.599578 
L 326.009782 130.106474 
L 326.481545 146.764404 
L 326.679382 153.849181 
L 327.090273 164.683967 
L 327.105491 162.964182 
L 327.181582 165.006674 
L 328.536 201.850524 
L 327.257673 164.827076 
L 328.566436 200.40311 
L 328.627309 199.825983 
L 328.764273 202.017371 
L 328.779491 201.028921 
L 328.855582 202.60674 
L 328.992545 205.859939 
L 329.068636 205.812955 
L 329.2056 209.980915 
L 329.236036 209.690573 
L 329.296909 210.227503 
L 329.388218 209.036774 
L 329.373 210.307278 
L 329.433873 209.346806 
L 329.449091 209.443879 
L 329.525182 210.996654 
L 329.570836 210.421198 
L 329.601273 210.545761 
L 329.753455 213.629279 
L 329.920855 211.10322 
L 329.981727 210.988278 
L 329.996945 211.440199 
L 330.057818 211.25732 
L 330.179564 208.809183 
L 330.21 208.651587 
L 330.286091 207.145708 
L 330.331745 207.289468 
L 330.362182 207.069025 
L 330.3774 207.689917 
L 330.438273 207.197998 
L 330.453491 209.56679 
L 330.5448 207.479403 
L 330.590455 207.005867 
L 330.727418 202.003941 
L 330.894818 198.872179 
L 330.910036 201.556797 
L 331.016564 200.97366 
L 331.275273 196.79527 
L 331.290491 198.620348 
L 331.3818 196.386156 
L 331.579636 191.804104 
L 331.7166 186.038493 
L 331.747036 187.561089 
L 333.192764 152.463866 
L 333.710182 135.478503 
L 333.847145 129.122868 
L 333.877582 129.924289 
L 333.938455 128.114318 
L 333.953673 130.508632 
L 334.044982 127.433761 
L 334.090636 126.06875 
L 334.105855 128.501853 
L 334.166727 126.667645 
L 334.181945 126.947395 
L 334.212382 126.025156 
L 334.318909 121.566454 
L 334.486309 109.004782 
L 334.927636 99.019041 
L 334.942855 99.427313 
L 334.988509 98.183012 
L 335.460273 87.804654 
L 335.475491 89.599094 
L 335.551582 87.406406 
L 336.145091 71.887766 
L 336.297273 66.816672 
L 336.434236 64.383592 
L 336.525545 62.237345 
L 336.601636 60.044773 
L 336.647291 60.658317 
L 336.677727 60.362237 
L 336.769036 62.638451 
L 336.799473 62.38953 
L 336.906 61.592694 
L 336.982091 59.781855 
L 336.997309 62.042667 
L 337.012527 61.963639 
L 337.058182 61.744437 
L 337.134273 60.561931 
L 337.179927 60.944617 
L 337.210364 60.867076 
L 337.225582 61.98882 
L 337.316891 60.588906 
L 337.362545 60.563334 
L 337.392982 59.540975 
L 337.484291 59.702757 
L 337.514727 59.751616 
L 337.529945 59.403669 
L 337.590818 59.552312 
L 337.743 64.15509 
L 337.773436 62.903271 
L 337.819091 63.134148 
L 337.895182 64.228661 
L 337.9104 62.371754 
L 337.971273 62.786527 
L 338.093018 65.673824 
L 338.199545 67.263685 
L 338.351727 69.449708 
L 338.366945 67.287249 
L 338.458255 68.043041 
L 338.732182 72.500618 
L 338.808273 72.450564 
L 338.823491 70.845436 
L 338.9148 72.594081 
L 339.112636 77.810326 
L 339.295255 81.200652 
L 339.508309 87.955305 
L 340.634455 114.556868 
L 340.801855 122.673604 
L 341.471455 138.255251 
L 341.486673 137.067792 
L 341.562764 138.996063 
L 342.993273 178.073586 
L 343.008491 177.469302 
L 343.069364 178.97007 
L 343.312855 190.796311 
L 343.388945 190.476031 
L 343.982455 205.188705 
L 343.997673 203.114299 
L 344.073764 206.082594 
L 344.134636 206.905923 
L 344.256382 210.128916 
L 344.286818 210.466954 
L 344.362909 213.065921 
L 344.408564 212.166044 
L 344.591182 213.423042 
L 344.682491 211.608547 
L 344.712927 211.759006 
L 344.743364 211.897035 
L 344.819455 213.810656 
L 344.865109 213.798579 
L 344.895545 213.863288 
L 344.986855 212.460993 
L 345.017291 212.475371 
L 345.047727 212.477595 
L 345.169473 211.870117 
L 345.199909 211.812665 
L 345.215127 212.039742 
L 345.291218 211.685109 
L 345.352091 211.46578 
L 345.367309 212.351845 
L 345.458618 211.353574 
L 345.808636 209.247837 
L 345.884727 206.286501 
L 345.930382 206.716318 
L 345.960818 206.369617 
L 345.976036 207.142935 
L 346.036909 206.400234 
L 346.052127 207.53004 
L 346.128218 205.664852 
L 346.417364 200.655576 
L 346.554327 198.566074 
L 346.721727 194.002014 
L 346.873909 189.331204 
L 346.889127 190.202927 
L 346.95 188.927262 
L 346.980436 189.676083 
L 347.330455 179.942403 
L 347.528291 172.742488 
L 347.573945 173.025544 
L 347.634818 171.515239 
L 347.650036 172.818586 
L 347.726127 170.56419 
L 348.015273 160.600588 
L 348.091364 157.831291 
L 348.106582 161.519587 
L 348.395727 152.244704 
L 348.532691 146.754986 
L 350.145818 102.399659 
L 350.161036 103.908002 
L 350.237127 100.650971 
L 350.526273 90.42647 
L 350.663236 85.609599 
L 351.058909 75.62486 
L 350.693673 87.116159 
L 351.135 75.970244 
L 351.150218 76.715489 
L 351.226309 75.263557 
L 351.287182 74.15047 
L 351.3024 76.022808 
L 351.393709 74.242216 
L 351.591545 71.355781 
L 351.606764 72.712867 
L 351.698073 71.314089 
L 351.743727 70.73044 
L 351.880691 65.524323 
L 352.352455 60.018765 
L 352.382891 61.409538 
L 352.428545 61.269922 
L 352.504636 60.050925 
L 352.535073 61.102108 
L 352.580727 61.073661 
L 352.656818 62.344852 
L 352.672036 59.781104 
L 352.732909 59.877478 
L 352.869873 65.502211 
L 352.885091 65.558909 
L 352.900309 64.527142 
L 353.006836 64.768874 
L 353.113364 65.970268 
L 353.189455 67.569158 
L 353.235109 66.965891 
L 353.341636 67.789773 
L 353.356855 66.216577 
L 353.448164 67.199929 
L 353.569909 68.439684 
L 353.585127 65.830412 
L 353.676436 68.304551 
L 354.254727 77.524718 
L 354.437345 81.485544 
L 355.091727 97.235269 
L 355.396091 108.344088 
L 355.411309 104.748765 
L 355.502618 106.97589 
L 355.700455 110.03298 
L 355.715673 109.446722 
L 355.776545 111.134381 
L 355.928727 118.118488 
L 356.309182 127.121175 
L 356.3244 126.214967 
L 356.385273 128.02668 
L 356.461364 133.793 
L 356.507018 133.596134 
L 357.450545 159.244933 
L 357.465764 158.397242 
L 357.526636 160.201571 
L 357.6636 163.916511 
L 357.694036 163.796715 
L 358.059273 177.039651 
L 358.226673 186.362869 
L 358.744091 196.630094 
L 358.759309 195.137057 
L 358.850618 196.246781 
L 359.124545 200.071268 
L 359.139764 197.941637 
L 359.215855 200.588599 
L 359.352818 202.893866 
L 359.428909 205.480505 
L 359.474564 205.027214 
L 359.581091 206.969613 
L 359.702836 210.573394 
L 359.733273 210.789766 
L 359.855018 213.107953 
L 359.885455 213.247762 
L 359.900673 212.730708 
L 359.961545 212.957321 
L 360.037636 214.37472 
L 360.052855 211.736507 
L 360.113727 211.827712 
L 360.189818 212.257729 
L 360.311564 209.40369 
L 360.342 209.351691 
L 360.494182 207.75569 
L 360.539836 207.623598 
L 360.646364 207.254923 
L 360.661582 208.52788 
L 360.768109 208.2789 
L 360.798545 208.052942 
L 360.813764 208.93566 
L 360.905073 208.463746 
L 360.950727 208.027873 
L 361.026818 205.675339 
L 361.072473 205.81837 
L 361.635545 198.792445 
L 361.711636 196.68631 
L 361.757291 198.049797 
L 362.092091 190.6346 
L 362.168182 186.833184 
L 362.213836 187.005187 
L 362.396455 182.547949 
L 362.548636 175.952719 
L 362.563855 178.240284 
L 362.655164 175.368943 
L 362.776909 173.096631 
L 362.868218 176.291886 
L 362.898655 175.494565 
L 363.081273 168.518845 
L 363.248673 159.770482 
L 363.613909 152.053763 
L 363.629127 155.106766 
L 363.705218 150.263452 
L 365.592273 92.263724 
L 365.744455 88.631801 
L 365.759673 90.20257 
L 365.835764 88.499778 
L 366.048818 83.340194 
L 366.140127 86.178181 
L 366.170564 85.493382 
L 366.277091 81.875625 
L 366.353182 78.097765 
L 366.398836 78.611192 
L 366.581455 74.135117 
L 366.657545 71.371931 
L 366.7032 71.502773 
L 366.733636 71.026396 
L 366.8706 66.575501 
L 366.961909 65.337068 
L 367.053218 67.463164 
L 367.083655 67.132357 
L 367.114091 66.813464 
L 367.235836 64.028376 
L 367.266273 63.777697 
L 367.281491 64.931516 
L 367.357582 62.374369 
L 367.418455 61.989088 
L 367.509764 64.877657 
L 367.5402 64.736545 
L 367.570636 64.607102 
L 367.753255 61.746307 
L 367.798909 61.690359 
L 367.859782 59.826962 
L 367.905436 60.687825 
L 367.951091 60.728674 
L 368.027182 61.055225 
L 368.118491 58.335306 
L 368.148927 58.457251 
L 368.179364 58.592699 
L 368.255455 60.112727 
L 368.285891 59.224182 
L 368.331545 59.522792 
L 368.407636 61.280568 
L 368.438073 59.942004 
L 368.483727 60.331506 
L 368.559818 62.148887 
L 368.605473 62.03003 
L 368.712 63.279345 
L 368.788091 66.810728 
L 368.833745 66.67786 
L 368.864182 67.073692 
L 368.955491 64.567259 
L 368.985927 65.006836 
L 369.092455 67.597697 
L 369.168545 69.558141 
L 369.229418 69.267358 
L 369.320727 71.1791 
L 369.396818 74.200949 
L 369.442473 73.979228 
L 369.549 77.811914 
L 369.625091 80.513412 
L 369.670745 79.968883 
L 370.233818 92.033088 
L 370.370782 98.154007 
L 370.614273 102.43435 
L 370.629491 101.193993 
L 370.705582 102.809364 
L 371.375182 122.508458 
L 371.527364 128.691395 
L 371.740418 136.023459 
L 371.770855 135.98784 
L 372.06 143.328889 
L 372.075218 142.361939 
L 372.136091 144.130265 
L 372.166527 143.030917 
L 372.440455 154.183707 
L 372.744818 163.798927 
L 372.760036 162.09193 
L 372.851345 164.198679 
L 373.581818 185.170444 
L 373.581818 185.170444 
" clip-path="url(#p9993185e75)" style="fill: none; stroke: #000000; stroke-width: 0.5; stroke-linecap: square"/>
   </g>
   <g id="patch_3">
    <path d="M 54 252 
L 54 34.56 
" style="fill: none; stroke: #000000; stroke-width: 0.8; stroke-linejoin: miter; stroke-linecap: square"/>
   </g>
   <g id="patch_4">
    <path d="M 388.8 252 
L 388.8 34.56 
" style="fill: none; stroke: #000000; stroke-width: 0.8; stroke-linejoin: miter; stroke-linecap: square"/>
   </g>
   <g id="patch_5">
    <path d="M 54 252 
L 388.8 252 
" style="fill: none; stroke: #000000; stroke-width: 0.8; stroke-linejoin: miter; stroke-linecap: square"/>
   </g>
   <g id="patch_6">
    <path d="M 54 34.56 
L 388.8 34.56 
" style="fill: none; stroke: #000000; stroke-width: 0.8; stroke-linejoin: miter; stroke-linecap: square"/>
   </g>
   <g id="text_17">
    <!-- $\theta_{m}$ (rad) - (MJUKF) -->
    <g transform="translate(175.75 28.56) scale(0.11 -0.11)">
     <defs>
      <path id="TimesNewRomanPSMT-4d" d="M 2619 0 
L 981 3566 
L 981 734 
Q 981 344 1066 247 
Q 1181 116 1431 116 
L 1581 116 
L 1581 0 
L 106 0 
L 106 116 
L 256 116 
Q 525 116 638 278 
Q 706 378 706 734 
L 706 3503 
Q 706 3784 644 3909 
Q 600 4000 483 4061 
Q 366 4122 106 4122 
L 106 4238 
L 1306 4238 
L 2844 922 
L 4356 4238 
L 5556 4238 
L 5556 4122 
L 5409 4122 
Q 5138 4122 5025 3959 
Q 4956 3859 4956 3503 
L 4956 734 
Q 4956 344 5044 247 
Q 5159 116 5409 116 
L 5556 116 
L 5556 0 
L 3756 0 
L 3756 116 
L 3906 116 
Q 4178 116 4288 278 
Q 4356 378 4356 734 
L 4356 3566 
L 2722 0 
L 2619 0 
z
" transform="scale(0.015625)"/>
      <path id="TimesNewRomanPSMT-4a" d="M 638 4122 
L 638 4238 
L 2453 4238 
L 2453 4122 
L 2300 4122 
Q 2041 4122 1922 3969 
Q 1847 3869 1847 3488 
L 1847 1416 
Q 1847 938 1742 641 
Q 1638 344 1381 123 
Q 1125 -97 763 -97 
Q 469 -97 300 48 
Q 131 194 131 381 
Q 131 534 209 613 
Q 313 709 450 709 
Q 550 709 629 643 
Q 709 578 831 294 
Q 903 125 1016 125 
Q 1100 125 1173 228 
Q 1247 331 1247 594 
L 1247 3488 
Q 1247 3809 1206 3913 
Q 1175 3991 1075 4047 
Q 941 4122 791 4122 
L 638 4122 
z
" transform="scale(0.015625)"/>
      <path id="TimesNewRomanPSMT-55" d="M 3053 4122 
L 3053 4238 
L 4553 4238 
L 4553 4122 
L 4394 4122 
Q 4144 4122 4009 3913 
Q 3944 3816 3944 3463 
L 3944 1744 
Q 3944 1106 3817 754 
Q 3691 403 3320 151 
Q 2950 -100 2313 -100 
Q 1619 -100 1259 140 
Q 900 381 750 788 
Q 650 1066 650 1831 
L 650 3488 
Q 650 3878 542 4000 
Q 434 4122 194 4122 
L 34 4122 
L 34 4238 
L 1866 4238 
L 1866 4122 
L 1703 4122 
Q 1441 4122 1328 3956 
Q 1250 3844 1250 3488 
L 1250 1641 
Q 1250 1394 1295 1075 
Q 1341 756 1459 578 
Q 1578 400 1801 284 
Q 2025 169 2350 169 
Q 2766 169 3094 350 
Q 3422 531 3542 814 
Q 3663 1097 3663 1772 
L 3663 3488 
Q 3663 3884 3575 3984 
Q 3453 4122 3213 4122 
L 3053 4122 
z
" transform="scale(0.015625)"/>
      <path id="TimesNewRomanPSMT-4b" d="M 1913 2350 
L 3475 797 
Q 3859 413 4131 273 
Q 4403 134 4675 116 
L 4675 0 
L 2659 0 
L 2659 116 
Q 2841 116 2920 177 
Q 3000 238 3000 313 
Q 3000 388 2970 447 
Q 2941 506 2775 669 
L 1313 2116 
L 1313 750 
Q 1313 428 1353 325 
Q 1384 247 1484 191 
Q 1619 116 1769 116 
L 1913 116 
L 1913 0 
L 106 0 
L 106 116 
L 256 116 
Q 519 116 638 269 
Q 713 369 713 750 
L 713 3488 
Q 713 3809 672 3916 
Q 641 3991 544 4047 
Q 406 4122 256 4122 
L 106 4122 
L 106 4238 
L 1913 4238 
L 1913 4122 
L 1769 4122 
Q 1622 4122 1484 4050 
Q 1388 4000 1350 3900 
Q 1313 3800 1313 3488 
L 1313 2191 
Q 1375 2250 1741 2588 
Q 2669 3438 2863 3722 
Q 2947 3847 2947 3941 
Q 2947 4013 2881 4067 
Q 2816 4122 2659 4122 
L 2563 4122 
L 2563 4238 
L 4119 4238 
L 4119 4122 
Q 3981 4119 3868 4084 
Q 3756 4050 3593 3951 
Q 3431 3853 3194 3634 
Q 3125 3572 2559 2994 
L 1913 2350 
z
" transform="scale(0.015625)"/>
      <path id="TimesNewRomanPSMT-46" d="M 1309 4006 
L 1309 2341 
L 2081 2341 
Q 2347 2341 2470 2458 
Q 2594 2575 2634 2922 
L 2750 2922 
L 2750 1488 
L 2634 1488 
Q 2631 1734 2570 1850 
Q 2509 1966 2401 2023 
Q 2294 2081 2081 2081 
L 1309 2081 
L 1309 750 
Q 1309 428 1350 325 
Q 1381 247 1481 191 
Q 1619 116 1769 116 
L 1922 116 
L 1922 0 
L 103 0 
L 103 116 
L 253 116 
Q 516 116 634 269 
Q 709 369 709 750 
L 709 3488 
Q 709 3809 669 3913 
Q 638 3991 541 4047 
Q 406 4122 253 4122 
L 103 4122 
L 103 4238 
L 3256 4238 
L 3297 3306 
L 3188 3306 
Q 3106 3603 2998 3742 
Q 2891 3881 2733 3943 
Q 2575 4006 2244 4006 
L 1309 4006 
z
" transform="scale(0.015625)"/>
     </defs>
     <use xlink:href="#DejaVuSans-Oblique-3b8" transform="translate(0 0.234375)"/>
     <use xlink:href="#DejaVuSans-Oblique-6d" transform="translate(61.181641 -16.171875) scale(0.7)"/>
     <use xlink:href="#TimesNewRomanPSMT-20" transform="translate(132.104492 0.234375)"/>
     <use xlink:href="#TimesNewRomanPSMT-28" transform="translate(157.104492 0.234375)"/>
     <use xlink:href="#TimesNewRomanPSMT-72" transform="translate(190.405273 0.234375)"/>
     <use xlink:href="#TimesNewRomanPSMT-61" transform="translate(223.706055 0.234375)"/>
     <use xlink:href="#TimesNewRomanPSMT-64" transform="translate(268.09082 0.234375)"/>
     <use xlink:href="#TimesNewRomanPSMT-29" transform="translate(318.09082 0.234375)"/>
     <use xlink:href="#TimesNewRomanPSMT-20" transform="translate(351.391602 0.234375)"/>
     <use xlink:href="#TimesNewRomanPSMT-2d" transform="translate(376.391602 0.234375)"/>
     <use xlink:href="#TimesNewRomanPSMT-20" transform="translate(409.692383 0.234375)"/>
     <use xlink:href="#TimesNewRomanPSMT-28" transform="translate(434.692383 0.234375)"/>
     <use xlink:href="#TimesNewRomanPSMT-4d" transform="translate(467.993164 0.234375)"/>
     <use xlink:href="#TimesNewRomanPSMT-4a" transform="translate(556.90918 0.234375)"/>
     <use xlink:href="#TimesNewRomanPSMT-55" transform="translate(595.825195 0.234375)"/>
     <use xlink:href="#TimesNewRomanPSMT-4b" transform="translate(668.041992 0.234375)"/>
     <use xlink:href="#TimesNewRomanPSMT-46" transform="translate(740.258789 0.234375)"/>
     <use xlink:href="#TimesNewRomanPSMT-29" transform="translate(795.874023 0.234375)"/>
    </g>
   </g>
   <g id="legend_1">
    <g id="patch_7">
     <path d="M 336.5 57.238125 
L 381.8 57.238125 
Q 383.8 57.238125 383.8 55.238125 
L 383.8 41.56 
Q 383.8 39.56 381.8 39.56 
L 336.5 39.56 
Q 334.5 39.56 334.5 41.56 
L 334.5 55.238125 
Q 334.5 57.238125 336.5 57.238125 
z
" style="fill: #ffffff; opacity: 0.8; stroke: #cccccc; stroke-linejoin: miter"/>
    </g>
    <g id="line2d_30">
     <path d="M 338.5 47.658437 
L 348.5 47.658437 
L 358.5 47.658437 
" style="fill: none; stroke: #000000; stroke-width: 0.5; stroke-linecap: square"/>
    </g>
    <g id="text_18">
     <!-- $\theta_{m}$ -->
     <g transform="translate(366.5 51.158437) scale(0.1 -0.1)">
      <use xlink:href="#DejaVuSans-Oblique-3b8" transform="translate(0 0.234375)"/>
      <use xlink:href="#DejaVuSans-Oblique-6d" transform="translate(61.181641 -16.171875) scale(0.7)"/>
     </g>
    </g>
   </g>
  </g>
 </g>
 <defs>
  <clipPath id="p9993185e75">
   <rect x="54" y="34.56" width="334.8" height="217.44"/>
  </clipPath>
 </defs>
</svg>
