<?xml version="1.0" encoding="utf-8" standalone="no"?>
<!DOCTYPE svg PUBLIC "-//W3C//DTD SVG 1.1//EN"
  "http://www.w3.org/Graphics/SVG/1.1/DTD/svg11.dtd">
<svg xmlns:xlink="http://www.w3.org/1999/xlink" width="432pt" height="288pt" viewBox="0 0 432 288" xmlns="http://www.w3.org/2000/svg" version="1.1">
 <metadata>
  <rdf:RDF xmlns:dc="http://purl.org/dc/elements/1.1/" xmlns:cc="http://creativecommons.org/ns#" xmlns:rdf="http://www.w3.org/1999/02/22-rdf-syntax-ns#">
   <cc:Work>
    <dc:type rdf:resource="http://purl.org/dc/dcmitype/StillImage"/>
    <dc:date>2024-04-01T15:58:40.017461</dc:date>
    <dc:format>image/svg+xml</dc:format>
    <dc:creator>
     <cc:Agent>
      <dc:title>Matplotlib v3.8.3, https://matplotlib.org/</dc:title>
     </cc:Agent>
    </dc:creator>
   </cc:Work>
  </rdf:RDF>
 </metadata>
 <defs>
  <style type="text/css">*{stroke-linejoin: round; stroke-linecap: butt}</style>
 </defs>
 <g id="figure_1">
  <g id="patch_1">
   <path d="M 0 288 
L 432 288 
L 432 0 
L 0 0 
z
" style="fill: #ffffff"/>
  </g>
  <g id="axes_1">
   <g id="patch_2">
    <path d="M 54 252 
L 388.8 252 
L 388.8 34.56 
L 54 34.56 
z
" style="fill: #ffffff"/>
   </g>
   <g id="matplotlib.axis_1">
    <g id="xtick_1">
     <g id="line2d_1">
      <path d="M 69.218182 252 
L 69.218182 34.56 
" clip-path="url(#p7aa5a0a03c)" style="fill: none; stroke: #b0b0b0; stroke-width: 0.2; stroke-linecap: square"/>
     </g>
     <g id="line2d_2">
      <defs>
       <path id="mde66dc0b41" d="M 0 0 
L 0 3.5 
" style="stroke: #000000; stroke-width: 0.8"/>
      </defs>
      <g>
       <use xlink:href="#mde66dc0b41" x="69.218182" y="252" style="stroke: #000000; stroke-width: 0.8"/>
      </g>
     </g>
     <g id="text_1">
      <!-- 0.0 -->
      <g transform="translate(60.471463 267.358281) scale(0.11 -0.11)">
       <defs>
        <path id="DejaVuSans-30" d="M 2034 4250 
Q 1547 4250 1301 3770 
Q 1056 3291 1056 2328 
Q 1056 1369 1301 889 
Q 1547 409 2034 409 
Q 2525 409 2770 889 
Q 3016 1369 3016 2328 
Q 3016 3291 2770 3770 
Q 2525 4250 2034 4250 
z
M 2034 4750 
Q 2819 4750 3233 4129 
Q 3647 3509 3647 2328 
Q 3647 1150 3233 529 
Q 2819 -91 2034 -91 
Q 1250 -91 836 529 
Q 422 1150 422 2328 
Q 422 3509 836 4129 
Q 1250 4750 2034 4750 
z
" transform="scale(0.015625)"/>
        <path id="DejaVuSans-2e" d="M 684 794 
L 1344 794 
L 1344 0 
L 684 0 
L 684 794 
z
" transform="scale(0.015625)"/>
       </defs>
       <use xlink:href="#DejaVuSans-30"/>
       <use xlink:href="#DejaVuSans-2e" x="63.623047"/>
       <use xlink:href="#DejaVuSans-30" x="95.410156"/>
      </g>
     </g>
    </g>
    <g id="xtick_2">
     <g id="line2d_3">
      <path d="M 107.263636 252 
L 107.263636 34.56 
" clip-path="url(#p7aa5a0a03c)" style="fill: none; stroke: #b0b0b0; stroke-width: 0.2; stroke-linecap: square"/>
     </g>
     <g id="line2d_4">
      <g>
       <use xlink:href="#mde66dc0b41" x="107.263636" y="252" style="stroke: #000000; stroke-width: 0.8"/>
      </g>
     </g>
     <g id="text_2">
      <!-- 2.5 -->
      <g transform="translate(98.516918 267.358281) scale(0.11 -0.11)">
       <defs>
        <path id="DejaVuSans-32" d="M 1228 531 
L 3431 531 
L 3431 0 
L 469 0 
L 469 531 
Q 828 903 1448 1529 
Q 2069 2156 2228 2338 
Q 2531 2678 2651 2914 
Q 2772 3150 2772 3378 
Q 2772 3750 2511 3984 
Q 2250 4219 1831 4219 
Q 1534 4219 1204 4116 
Q 875 4013 500 3803 
L 500 4441 
Q 881 4594 1212 4672 
Q 1544 4750 1819 4750 
Q 2544 4750 2975 4387 
Q 3406 4025 3406 3419 
Q 3406 3131 3298 2873 
Q 3191 2616 2906 2266 
Q 2828 2175 2409 1742 
Q 1991 1309 1228 531 
z
" transform="scale(0.015625)"/>
        <path id="DejaVuSans-35" d="M 691 4666 
L 3169 4666 
L 3169 4134 
L 1269 4134 
L 1269 2991 
Q 1406 3038 1543 3061 
Q 1681 3084 1819 3084 
Q 2600 3084 3056 2656 
Q 3513 2228 3513 1497 
Q 3513 744 3044 326 
Q 2575 -91 1722 -91 
Q 1428 -91 1123 -41 
Q 819 9 494 109 
L 494 744 
Q 775 591 1075 516 
Q 1375 441 1709 441 
Q 2250 441 2565 725 
Q 2881 1009 2881 1497 
Q 2881 1984 2565 2268 
Q 2250 2553 1709 2553 
Q 1456 2553 1204 2497 
Q 953 2441 691 2322 
L 691 4666 
z
" transform="scale(0.015625)"/>
       </defs>
       <use xlink:href="#DejaVuSans-32"/>
       <use xlink:href="#DejaVuSans-2e" x="63.623047"/>
       <use xlink:href="#DejaVuSans-35" x="95.410156"/>
      </g>
     </g>
    </g>
    <g id="xtick_3">
     <g id="line2d_5">
      <path d="M 145.309091 252 
L 145.309091 34.56 
" clip-path="url(#p7aa5a0a03c)" style="fill: none; stroke: #b0b0b0; stroke-width: 0.2; stroke-linecap: square"/>
     </g>
     <g id="line2d_6">
      <g>
       <use xlink:href="#mde66dc0b41" x="145.309091" y="252" style="stroke: #000000; stroke-width: 0.8"/>
      </g>
     </g>
     <g id="text_3">
      <!-- 5.0 -->
      <g transform="translate(136.562372 267.358281) scale(0.11 -0.11)">
       <use xlink:href="#DejaVuSans-35"/>
       <use xlink:href="#DejaVuSans-2e" x="63.623047"/>
       <use xlink:href="#DejaVuSans-30" x="95.410156"/>
      </g>
     </g>
    </g>
    <g id="xtick_4">
     <g id="line2d_7">
      <path d="M 183.354545 252 
L 183.354545 34.56 
" clip-path="url(#p7aa5a0a03c)" style="fill: none; stroke: #b0b0b0; stroke-width: 0.2; stroke-linecap: square"/>
     </g>
     <g id="line2d_8">
      <g>
       <use xlink:href="#mde66dc0b41" x="183.354545" y="252" style="stroke: #000000; stroke-width: 0.8"/>
      </g>
     </g>
     <g id="text_4">
      <!-- 7.5 -->
      <g transform="translate(174.607827 267.358281) scale(0.11 -0.11)">
       <defs>
        <path id="DejaVuSans-37" d="M 525 4666 
L 3525 4666 
L 3525 4397 
L 1831 0 
L 1172 0 
L 2766 4134 
L 525 4134 
L 525 4666 
z
" transform="scale(0.015625)"/>
       </defs>
       <use xlink:href="#DejaVuSans-37"/>
       <use xlink:href="#DejaVuSans-2e" x="63.623047"/>
       <use xlink:href="#DejaVuSans-35" x="95.410156"/>
      </g>
     </g>
    </g>
    <g id="xtick_5">
     <g id="line2d_9">
      <path d="M 221.4 252 
L 221.4 34.56 
" clip-path="url(#p7aa5a0a03c)" style="fill: none; stroke: #b0b0b0; stroke-width: 0.2; stroke-linecap: square"/>
     </g>
     <g id="line2d_10">
      <g>
       <use xlink:href="#mde66dc0b41" x="221.4" y="252" style="stroke: #000000; stroke-width: 0.8"/>
      </g>
     </g>
     <g id="text_5">
      <!-- 10.0 -->
      <g transform="translate(209.153906 267.358281) scale(0.11 -0.11)">
       <defs>
        <path id="DejaVuSans-31" d="M 794 531 
L 1825 531 
L 1825 4091 
L 703 3866 
L 703 4441 
L 1819 4666 
L 2450 4666 
L 2450 531 
L 3481 531 
L 3481 0 
L 794 0 
L 794 531 
z
" transform="scale(0.015625)"/>
       </defs>
       <use xlink:href="#DejaVuSans-31"/>
       <use xlink:href="#DejaVuSans-30" x="63.623047"/>
       <use xlink:href="#DejaVuSans-2e" x="127.246094"/>
       <use xlink:href="#DejaVuSans-30" x="159.033203"/>
      </g>
     </g>
    </g>
    <g id="xtick_6">
     <g id="line2d_11">
      <path d="M 259.445455 252 
L 259.445455 34.56 
" clip-path="url(#p7aa5a0a03c)" style="fill: none; stroke: #b0b0b0; stroke-width: 0.2; stroke-linecap: square"/>
     </g>
     <g id="line2d_12">
      <g>
       <use xlink:href="#mde66dc0b41" x="259.445455" y="252" style="stroke: #000000; stroke-width: 0.8"/>
      </g>
     </g>
     <g id="text_6">
      <!-- 12.5 -->
      <g transform="translate(247.199361 267.358281) scale(0.11 -0.11)">
       <use xlink:href="#DejaVuSans-31"/>
       <use xlink:href="#DejaVuSans-32" x="63.623047"/>
       <use xlink:href="#DejaVuSans-2e" x="127.246094"/>
       <use xlink:href="#DejaVuSans-35" x="159.033203"/>
      </g>
     </g>
    </g>
    <g id="xtick_7">
     <g id="line2d_13">
      <path d="M 297.490909 252 
L 297.490909 34.56 
" clip-path="url(#p7aa5a0a03c)" style="fill: none; stroke: #b0b0b0; stroke-width: 0.2; stroke-linecap: square"/>
     </g>
     <g id="line2d_14">
      <g>
       <use xlink:href="#mde66dc0b41" x="297.490909" y="252" style="stroke: #000000; stroke-width: 0.8"/>
      </g>
     </g>
     <g id="text_7">
      <!-- 15.0 -->
      <g transform="translate(285.244815 267.358281) scale(0.11 -0.11)">
       <use xlink:href="#DejaVuSans-31"/>
       <use xlink:href="#DejaVuSans-35" x="63.623047"/>
       <use xlink:href="#DejaVuSans-2e" x="127.246094"/>
       <use xlink:href="#DejaVuSans-30" x="159.033203"/>
      </g>
     </g>
    </g>
    <g id="xtick_8">
     <g id="line2d_15">
      <path d="M 335.536364 252 
L 335.536364 34.56 
" clip-path="url(#p7aa5a0a03c)" style="fill: none; stroke: #b0b0b0; stroke-width: 0.2; stroke-linecap: square"/>
     </g>
     <g id="line2d_16">
      <g>
       <use xlink:href="#mde66dc0b41" x="335.536364" y="252" style="stroke: #000000; stroke-width: 0.8"/>
      </g>
     </g>
     <g id="text_8">
      <!-- 17.5 -->
      <g transform="translate(323.29027 267.358281) scale(0.11 -0.11)">
       <use xlink:href="#DejaVuSans-31"/>
       <use xlink:href="#DejaVuSans-37" x="63.623047"/>
       <use xlink:href="#DejaVuSans-2e" x="127.246094"/>
       <use xlink:href="#DejaVuSans-35" x="159.033203"/>
      </g>
     </g>
    </g>
    <g id="xtick_9">
     <g id="line2d_17">
      <path d="M 373.581818 252 
L 373.581818 34.56 
" clip-path="url(#p7aa5a0a03c)" style="fill: none; stroke: #b0b0b0; stroke-width: 0.2; stroke-linecap: square"/>
     </g>
     <g id="line2d_18">
      <g>
       <use xlink:href="#mde66dc0b41" x="373.581818" y="252" style="stroke: #000000; stroke-width: 0.8"/>
      </g>
     </g>
     <g id="text_9">
      <!-- 20.0 -->
      <g transform="translate(361.335724 267.358281) scale(0.11 -0.11)">
       <use xlink:href="#DejaVuSans-32"/>
       <use xlink:href="#DejaVuSans-30" x="63.623047"/>
       <use xlink:href="#DejaVuSans-2e" x="127.246094"/>
       <use xlink:href="#DejaVuSans-30" x="159.033203"/>
      </g>
     </g>
    </g>
    <g id="text_10">
     <!-- Time (s) -->
     <g transform="translate(202.807422 281.284063) scale(0.11 -0.11)">
      <defs>
       <path id="TimesNewRomanPSMT-54" d="M 3703 4238 
L 3750 3244 
L 3631 3244 
Q 3597 3506 3538 3619 
Q 3441 3800 3280 3886 
Q 3119 3972 2856 3972 
L 2259 3972 
L 2259 734 
Q 2259 344 2344 247 
Q 2463 116 2709 116 
L 2856 116 
L 2856 0 
L 1059 0 
L 1059 116 
L 1209 116 
Q 1478 116 1591 278 
Q 1659 378 1659 734 
L 1659 3972 
L 1150 3972 
Q 853 3972 728 3928 
Q 566 3869 450 3700 
Q 334 3531 313 3244 
L 194 3244 
L 244 4238 
L 3703 4238 
z
" transform="scale(0.015625)"/>
       <path id="TimesNewRomanPSMT-69" d="M 928 4444 
Q 1059 4444 1151 4351 
Q 1244 4259 1244 4128 
Q 1244 3997 1151 3903 
Q 1059 3809 928 3809 
Q 797 3809 703 3903 
Q 609 3997 609 4128 
Q 609 4259 701 4351 
Q 794 4444 928 4444 
z
M 1188 2947 
L 1188 647 
Q 1188 378 1227 289 
Q 1266 200 1342 156 
Q 1419 113 1622 113 
L 1622 0 
L 231 0 
L 231 113 
Q 441 113 512 153 
Q 584 194 626 287 
Q 669 381 669 647 
L 669 1750 
Q 669 2216 641 2353 
Q 619 2453 572 2492 
Q 525 2531 444 2531 
Q 356 2531 231 2484 
L 188 2597 
L 1050 2947 
L 1188 2947 
z
" transform="scale(0.015625)"/>
       <path id="TimesNewRomanPSMT-6d" d="M 1050 2338 
Q 1363 2650 1419 2697 
Q 1559 2816 1721 2881 
Q 1884 2947 2044 2947 
Q 2313 2947 2506 2790 
Q 2700 2634 2766 2338 
Q 3088 2713 3309 2830 
Q 3531 2947 3766 2947 
Q 3994 2947 4170 2830 
Q 4347 2713 4450 2447 
Q 4519 2266 4519 1878 
L 4519 647 
Q 4519 378 4559 278 
Q 4591 209 4675 161 
Q 4759 113 4950 113 
L 4950 0 
L 3538 0 
L 3538 113 
L 3597 113 
Q 3781 113 3884 184 
Q 3956 234 3988 344 
Q 4000 397 4000 647 
L 4000 1878 
Q 4000 2228 3916 2372 
Q 3794 2572 3525 2572 
Q 3359 2572 3192 2489 
Q 3025 2406 2788 2181 
L 2781 2147 
L 2788 2013 
L 2788 647 
Q 2788 353 2820 281 
Q 2853 209 2943 161 
Q 3034 113 3253 113 
L 3253 0 
L 1806 0 
L 1806 113 
Q 2044 113 2133 169 
Q 2222 225 2256 338 
Q 2272 391 2272 647 
L 2272 1878 
Q 2272 2228 2169 2381 
Q 2031 2581 1784 2581 
Q 1616 2581 1450 2491 
Q 1191 2353 1050 2181 
L 1050 647 
Q 1050 366 1089 281 
Q 1128 197 1204 155 
Q 1281 113 1516 113 
L 1516 0 
L 100 0 
L 100 113 
Q 297 113 375 155 
Q 453 197 493 289 
Q 534 381 534 647 
L 534 1741 
Q 534 2213 506 2350 
Q 484 2453 437 2492 
Q 391 2531 309 2531 
Q 222 2531 100 2484 
L 53 2597 
L 916 2947 
L 1050 2947 
L 1050 2338 
z
" transform="scale(0.015625)"/>
       <path id="TimesNewRomanPSMT-65" d="M 681 1784 
Q 678 1147 991 784 
Q 1303 422 1725 422 
Q 2006 422 2214 576 
Q 2422 731 2563 1106 
L 2659 1044 
Q 2594 616 2278 264 
Q 1963 -88 1488 -88 
Q 972 -88 605 314 
Q 238 716 238 1394 
Q 238 2128 614 2539 
Q 991 2950 1559 2950 
Q 2041 2950 2350 2633 
Q 2659 2316 2659 1784 
L 681 1784 
z
M 681 1966 
L 2006 1966 
Q 1991 2241 1941 2353 
Q 1863 2528 1708 2628 
Q 1553 2728 1384 2728 
Q 1125 2728 920 2526 
Q 716 2325 681 1966 
z
" transform="scale(0.015625)"/>
       <path id="TimesNewRomanPSMT-20" transform="scale(0.015625)"/>
       <path id="TimesNewRomanPSMT-28" d="M 1988 -1253 
L 1988 -1369 
Q 1516 -1131 1200 -813 
Q 750 -359 506 256 
Q 263 872 263 1534 
Q 263 2503 741 3301 
Q 1219 4100 1988 4444 
L 1988 4313 
Q 1603 4100 1356 3731 
Q 1109 3363 987 2797 
Q 866 2231 866 1616 
Q 866 947 969 400 
Q 1050 -31 1165 -292 
Q 1281 -553 1476 -793 
Q 1672 -1034 1988 -1253 
z
" transform="scale(0.015625)"/>
       <path id="TimesNewRomanPSMT-73" d="M 2050 2947 
L 2050 1972 
L 1947 1972 
Q 1828 2431 1642 2597 
Q 1456 2763 1169 2763 
Q 950 2763 815 2647 
Q 681 2531 681 2391 
Q 681 2216 781 2091 
Q 878 1963 1175 1819 
L 1631 1597 
Q 2266 1288 2266 781 
Q 2266 391 1970 151 
Q 1675 -88 1309 -88 
Q 1047 -88 709 6 
Q 606 38 541 38 
Q 469 38 428 -44 
L 325 -44 
L 325 978 
L 428 978 
Q 516 541 762 319 
Q 1009 97 1316 97 
Q 1531 97 1667 223 
Q 1803 350 1803 528 
Q 1803 744 1651 891 
Q 1500 1038 1047 1263 
Q 594 1488 453 1669 
Q 313 1847 313 2119 
Q 313 2472 555 2709 
Q 797 2947 1181 2947 
Q 1350 2947 1591 2875 
Q 1750 2828 1803 2828 
Q 1853 2828 1881 2850 
Q 1909 2872 1947 2947 
L 2050 2947 
z
" transform="scale(0.015625)"/>
       <path id="TimesNewRomanPSMT-29" d="M 144 4313 
L 144 4444 
Q 619 4209 934 3891 
Q 1381 3434 1625 2820 
Q 1869 2206 1869 1541 
Q 1869 572 1392 -226 
Q 916 -1025 144 -1369 
L 144 -1253 
Q 528 -1038 776 -670 
Q 1025 -303 1145 264 
Q 1266 831 1266 1447 
Q 1266 2113 1163 2663 
Q 1084 3094 967 3353 
Q 850 3613 656 3853 
Q 463 4094 144 4313 
z
" transform="scale(0.015625)"/>
      </defs>
      <use xlink:href="#TimesNewRomanPSMT-54"/>
      <use xlink:href="#TimesNewRomanPSMT-69" x="57.583984"/>
      <use xlink:href="#TimesNewRomanPSMT-6d" x="85.367188"/>
      <use xlink:href="#TimesNewRomanPSMT-65" x="163.150391"/>
      <use xlink:href="#TimesNewRomanPSMT-20" x="207.535156"/>
      <use xlink:href="#TimesNewRomanPSMT-28" x="232.535156"/>
      <use xlink:href="#TimesNewRomanPSMT-73" x="265.835938"/>
      <use xlink:href="#TimesNewRomanPSMT-29" x="304.751953"/>
     </g>
    </g>
   </g>
   <g id="matplotlib.axis_2">
    <g id="ytick_1">
     <g id="line2d_19">
      <path d="M 54 224.463741 
L 388.8 224.463741 
" clip-path="url(#p7aa5a0a03c)" style="fill: none; stroke: #b0b0b0; stroke-width: 0.2; stroke-linecap: square"/>
     </g>
     <g id="line2d_20">
      <defs>
       <path id="md3f5d0e5fb" d="M 0 0 
L -3.5 0 
" style="stroke: #000000; stroke-width: 0.8"/>
      </defs>
      <g>
       <use xlink:href="#md3f5d0e5fb" x="54" y="224.463741" style="stroke: #000000; stroke-width: 0.8"/>
      </g>
     </g>
     <g id="text_11">
      <!-- −10 -->
      <g transform="translate(23.784844 228.642881) scale(0.11 -0.11)">
       <defs>
        <path id="DejaVuSans-2212" d="M 678 2272 
L 4684 2272 
L 4684 1741 
L 678 1741 
L 678 2272 
z
" transform="scale(0.015625)"/>
       </defs>
       <use xlink:href="#DejaVuSans-2212"/>
       <use xlink:href="#DejaVuSans-31" x="83.789062"/>
       <use xlink:href="#DejaVuSans-30" x="147.412109"/>
      </g>
     </g>
    </g>
    <g id="ytick_2">
     <g id="line2d_21">
      <path d="M 54 182.561442 
L 388.8 182.561442 
" clip-path="url(#p7aa5a0a03c)" style="fill: none; stroke: #b0b0b0; stroke-width: 0.2; stroke-linecap: square"/>
     </g>
     <g id="line2d_22">
      <g>
       <use xlink:href="#md3f5d0e5fb" x="54" y="182.561442" style="stroke: #000000; stroke-width: 0.8"/>
      </g>
     </g>
     <g id="text_12">
      <!-- −5 -->
      <g transform="translate(30.783594 186.740583) scale(0.11 -0.11)">
       <use xlink:href="#DejaVuSans-2212"/>
       <use xlink:href="#DejaVuSans-35" x="83.789062"/>
      </g>
     </g>
    </g>
    <g id="ytick_3">
     <g id="line2d_23">
      <path d="M 54 140.659144 
L 388.8 140.659144 
" clip-path="url(#p7aa5a0a03c)" style="fill: none; stroke: #b0b0b0; stroke-width: 0.2; stroke-linecap: square"/>
     </g>
     <g id="line2d_24">
      <g>
       <use xlink:href="#md3f5d0e5fb" x="54" y="140.659144" style="stroke: #000000; stroke-width: 0.8"/>
      </g>
     </g>
     <g id="text_13">
      <!-- 0 -->
      <g transform="translate(40.00125 144.838284) scale(0.11 -0.11)">
       <use xlink:href="#DejaVuSans-30"/>
      </g>
     </g>
    </g>
    <g id="ytick_4">
     <g id="line2d_25">
      <path d="M 54 98.756845 
L 388.8 98.756845 
" clip-path="url(#p7aa5a0a03c)" style="fill: none; stroke: #b0b0b0; stroke-width: 0.2; stroke-linecap: square"/>
     </g>
     <g id="line2d_26">
      <g>
       <use xlink:href="#md3f5d0e5fb" x="54" y="98.756845" style="stroke: #000000; stroke-width: 0.8"/>
      </g>
     </g>
     <g id="text_14">
      <!-- 5 -->
      <g transform="translate(40.00125 102.935986) scale(0.11 -0.11)">
       <use xlink:href="#DejaVuSans-35"/>
      </g>
     </g>
    </g>
    <g id="ytick_5">
     <g id="line2d_27">
      <path d="M 54 56.854547 
L 388.8 56.854547 
" clip-path="url(#p7aa5a0a03c)" style="fill: none; stroke: #b0b0b0; stroke-width: 0.2; stroke-linecap: square"/>
     </g>
     <g id="line2d_28">
      <g>
       <use xlink:href="#md3f5d0e5fb" x="54" y="56.854547" style="stroke: #000000; stroke-width: 0.8"/>
      </g>
     </g>
     <g id="text_15">
      <!-- 10 -->
      <g transform="translate(33.0025 61.033687) scale(0.11 -0.11)">
       <use xlink:href="#DejaVuSans-31"/>
       <use xlink:href="#DejaVuSans-30" x="63.623047"/>
      </g>
     </g>
    </g>
    <g id="text_16">
     <!-- Angular velocity of the motor - $\omega_{m}$ (rad/s) -->
     <g transform="translate(17.364844 237.825) rotate(-90) scale(0.11 -0.11)">
      <defs>
       <path id="TimesNewRomanPSMT-41" d="M 2928 1419 
L 1288 1419 
L 1000 750 
Q 894 503 894 381 
Q 894 284 986 211 
Q 1078 138 1384 116 
L 1384 0 
L 50 0 
L 50 116 
Q 316 163 394 238 
Q 553 388 747 847 
L 2238 4334 
L 2347 4334 
L 3822 809 
Q 4000 384 4145 257 
Q 4291 131 4550 116 
L 4550 0 
L 2878 0 
L 2878 116 
Q 3131 128 3220 200 
Q 3309 272 3309 375 
Q 3309 513 3184 809 
L 2928 1419 
z
M 2841 1650 
L 2122 3363 
L 1384 1650 
L 2841 1650 
z
" transform="scale(0.015625)"/>
       <path id="TimesNewRomanPSMT-6e" d="M 1034 2341 
Q 1538 2947 1994 2947 
Q 2228 2947 2397 2830 
Q 2566 2713 2666 2444 
Q 2734 2256 2734 1869 
L 2734 647 
Q 2734 375 2778 278 
Q 2813 200 2889 156 
Q 2966 113 3172 113 
L 3172 0 
L 1756 0 
L 1756 113 
L 1816 113 
Q 2016 113 2095 173 
Q 2175 234 2206 353 
Q 2219 400 2219 647 
L 2219 1819 
Q 2219 2209 2117 2386 
Q 2016 2563 1775 2563 
Q 1403 2563 1034 2156 
L 1034 647 
Q 1034 356 1069 288 
Q 1113 197 1189 155 
Q 1266 113 1500 113 
L 1500 0 
L 84 0 
L 84 113 
L 147 113 
Q 366 113 442 223 
Q 519 334 519 647 
L 519 1709 
Q 519 2225 495 2337 
Q 472 2450 423 2490 
Q 375 2531 294 2531 
Q 206 2531 84 2484 
L 38 2597 
L 900 2947 
L 1034 2947 
L 1034 2341 
z
" transform="scale(0.015625)"/>
       <path id="TimesNewRomanPSMT-67" d="M 966 1044 
Q 703 1172 562 1401 
Q 422 1631 422 1909 
Q 422 2334 742 2640 
Q 1063 2947 1563 2947 
Q 1972 2947 2272 2747 
L 2878 2747 
Q 3013 2747 3034 2739 
Q 3056 2731 3066 2713 
Q 3084 2684 3084 2613 
Q 3084 2531 3069 2500 
Q 3059 2484 3036 2475 
Q 3013 2466 2878 2466 
L 2506 2466 
Q 2681 2241 2681 1891 
Q 2681 1491 2375 1206 
Q 2069 922 1553 922 
Q 1341 922 1119 984 
Q 981 866 932 777 
Q 884 688 884 625 
Q 884 572 936 522 
Q 988 472 1138 450 
Q 1225 438 1575 428 
Q 2219 413 2409 384 
Q 2700 344 2873 169 
Q 3047 -6 3047 -263 
Q 3047 -616 2716 -925 
Q 2228 -1381 1444 -1381 
Q 841 -1381 425 -1109 
Q 191 -953 191 -784 
Q 191 -709 225 -634 
Q 278 -519 444 -313 
Q 466 -284 763 25 
Q 600 122 533 198 
Q 466 275 466 372 
Q 466 481 555 628 
Q 644 775 966 1044 
z
M 1509 2797 
Q 1278 2797 1122 2612 
Q 966 2428 966 2047 
Q 966 1553 1178 1281 
Q 1341 1075 1591 1075 
Q 1828 1075 1981 1253 
Q 2134 1431 2134 1813 
Q 2134 2309 1919 2591 
Q 1759 2797 1509 2797 
z
M 934 0 
Q 788 -159 713 -296 
Q 638 -434 638 -550 
Q 638 -700 819 -813 
Q 1131 -1006 1722 -1006 
Q 2284 -1006 2551 -807 
Q 2819 -609 2819 -384 
Q 2819 -222 2659 -153 
Q 2497 -84 2016 -72 
Q 1313 -53 934 0 
z
" transform="scale(0.015625)"/>
       <path id="TimesNewRomanPSMT-75" d="M 2709 2863 
L 2709 1128 
Q 2709 631 2732 520 
Q 2756 409 2807 365 
Q 2859 322 2928 322 
Q 3025 322 3147 375 
L 3191 266 
L 2334 -88 
L 2194 -88 
L 2194 519 
Q 1825 119 1631 15 
Q 1438 -88 1222 -88 
Q 981 -88 804 51 
Q 628 191 559 409 
Q 491 628 491 1028 
L 491 2306 
Q 491 2509 447 2587 
Q 403 2666 317 2708 
Q 231 2750 6 2747 
L 6 2863 
L 1009 2863 
L 1009 947 
Q 1009 547 1148 422 
Q 1288 297 1484 297 
Q 1619 297 1789 381 
Q 1959 466 2194 703 
L 2194 2325 
Q 2194 2569 2105 2655 
Q 2016 2741 1734 2747 
L 1734 2863 
L 2709 2863 
z
" transform="scale(0.015625)"/>
       <path id="TimesNewRomanPSMT-6c" d="M 1184 4444 
L 1184 647 
Q 1184 378 1223 290 
Q 1263 203 1344 158 
Q 1425 113 1647 113 
L 1647 0 
L 244 0 
L 244 113 
Q 441 113 512 153 
Q 584 194 625 287 
Q 666 381 666 647 
L 666 3247 
Q 666 3731 644 3842 
Q 622 3953 573 3993 
Q 525 4034 450 4034 
Q 369 4034 244 3984 
L 191 4094 
L 1044 4444 
L 1184 4444 
z
" transform="scale(0.015625)"/>
       <path id="TimesNewRomanPSMT-61" d="M 1822 413 
Q 1381 72 1269 19 
Q 1100 -59 909 -59 
Q 613 -59 420 144 
Q 228 347 228 678 
Q 228 888 322 1041 
Q 450 1253 767 1440 
Q 1084 1628 1822 1897 
L 1822 2009 
Q 1822 2438 1686 2597 
Q 1550 2756 1291 2756 
Q 1094 2756 978 2650 
Q 859 2544 859 2406 
L 866 2225 
Q 866 2081 792 2003 
Q 719 1925 600 1925 
Q 484 1925 411 2006 
Q 338 2088 338 2228 
Q 338 2497 613 2722 
Q 888 2947 1384 2947 
Q 1766 2947 2009 2819 
Q 2194 2722 2281 2516 
Q 2338 2381 2338 1966 
L 2338 994 
Q 2338 584 2353 492 
Q 2369 400 2405 369 
Q 2441 338 2488 338 
Q 2538 338 2575 359 
Q 2641 400 2828 588 
L 2828 413 
Q 2478 -56 2159 -56 
Q 2006 -56 1915 50 
Q 1825 156 1822 413 
z
M 1822 616 
L 1822 1706 
Q 1350 1519 1213 1441 
Q 966 1303 859 1153 
Q 753 1003 753 825 
Q 753 600 887 451 
Q 1022 303 1197 303 
Q 1434 303 1822 616 
z
" transform="scale(0.015625)"/>
       <path id="TimesNewRomanPSMT-72" d="M 1038 2947 
L 1038 2303 
Q 1397 2947 1775 2947 
Q 1947 2947 2059 2842 
Q 2172 2738 2172 2600 
Q 2172 2478 2090 2393 
Q 2009 2309 1897 2309 
Q 1788 2309 1652 2417 
Q 1516 2525 1450 2525 
Q 1394 2525 1328 2463 
Q 1188 2334 1038 2041 
L 1038 669 
Q 1038 431 1097 309 
Q 1138 225 1241 169 
Q 1344 113 1538 113 
L 1538 0 
L 72 0 
L 72 113 
Q 291 113 397 181 
Q 475 231 506 341 
Q 522 394 522 644 
L 522 1753 
Q 522 2253 501 2348 
Q 481 2444 426 2487 
Q 372 2531 291 2531 
Q 194 2531 72 2484 
L 41 2597 
L 906 2947 
L 1038 2947 
z
" transform="scale(0.015625)"/>
       <path id="TimesNewRomanPSMT-76" d="M 53 2863 
L 1400 2863 
L 1400 2747 
L 1313 2747 
Q 1191 2747 1127 2687 
Q 1063 2628 1063 2528 
Q 1063 2419 1128 2269 
L 1794 688 
L 2463 2328 
Q 2534 2503 2534 2594 
Q 2534 2638 2509 2666 
Q 2475 2713 2422 2730 
Q 2369 2747 2206 2747 
L 2206 2863 
L 3141 2863 
L 3141 2747 
Q 2978 2734 2916 2681 
Q 2806 2588 2719 2369 
L 1703 -88 
L 1575 -88 
L 553 2328 
Q 484 2497 421 2570 
Q 359 2644 263 2694 
Q 209 2722 53 2747 
L 53 2863 
z
" transform="scale(0.015625)"/>
       <path id="TimesNewRomanPSMT-6f" d="M 1600 2947 
Q 2250 2947 2644 2453 
Q 2978 2031 2978 1484 
Q 2978 1100 2793 706 
Q 2609 313 2286 112 
Q 1963 -88 1566 -88 
Q 919 -88 538 428 
Q 216 863 216 1403 
Q 216 1797 411 2186 
Q 606 2575 925 2761 
Q 1244 2947 1600 2947 
z
M 1503 2744 
Q 1338 2744 1170 2645 
Q 1003 2547 900 2300 
Q 797 2053 797 1666 
Q 797 1041 1045 587 
Q 1294 134 1700 134 
Q 2003 134 2200 384 
Q 2397 634 2397 1244 
Q 2397 2006 2069 2444 
Q 1847 2744 1503 2744 
z
" transform="scale(0.015625)"/>
       <path id="TimesNewRomanPSMT-63" d="M 2631 1088 
Q 2516 522 2178 217 
Q 1841 -88 1431 -88 
Q 944 -88 581 321 
Q 219 731 219 1428 
Q 219 2103 620 2525 
Q 1022 2947 1584 2947 
Q 2006 2947 2278 2723 
Q 2550 2500 2550 2259 
Q 2550 2141 2473 2067 
Q 2397 1994 2259 1994 
Q 2075 1994 1981 2113 
Q 1928 2178 1911 2362 
Q 1894 2547 1784 2644 
Q 1675 2738 1481 2738 
Q 1169 2738 978 2506 
Q 725 2200 725 1697 
Q 725 1184 976 792 
Q 1228 400 1656 400 
Q 1963 400 2206 609 
Q 2378 753 2541 1131 
L 2631 1088 
z
" transform="scale(0.015625)"/>
       <path id="TimesNewRomanPSMT-74" d="M 1031 3803 
L 1031 2863 
L 1700 2863 
L 1700 2644 
L 1031 2644 
L 1031 788 
Q 1031 509 1111 412 
Q 1191 316 1316 316 
Q 1419 316 1516 380 
Q 1613 444 1666 569 
L 1788 569 
Q 1678 263 1478 108 
Q 1278 -47 1066 -47 
Q 922 -47 784 33 
Q 647 113 581 261 
Q 516 409 516 719 
L 516 2644 
L 63 2644 
L 63 2747 
Q 234 2816 414 2980 
Q 594 3144 734 3369 
Q 806 3488 934 3803 
L 1031 3803 
z
" transform="scale(0.015625)"/>
       <path id="TimesNewRomanPSMT-79" d="M 38 2863 
L 1372 2863 
L 1372 2747 
L 1306 2747 
Q 1166 2747 1095 2686 
Q 1025 2625 1025 2534 
Q 1025 2413 1128 2197 
L 1825 753 
L 2466 2334 
Q 2519 2463 2519 2588 
Q 2519 2644 2497 2672 
Q 2472 2706 2419 2726 
Q 2366 2747 2231 2747 
L 2231 2863 
L 3163 2863 
L 3163 2747 
Q 3047 2734 2984 2696 
Q 2922 2659 2847 2556 
Q 2819 2513 2741 2316 
L 1575 -541 
Q 1406 -956 1132 -1168 
Q 859 -1381 606 -1381 
Q 422 -1381 303 -1275 
Q 184 -1169 184 -1031 
Q 184 -900 270 -820 
Q 356 -741 506 -741 
Q 609 -741 788 -809 
Q 913 -856 944 -856 
Q 1038 -856 1148 -759 
Q 1259 -663 1372 -384 
L 1575 113 
L 547 2272 
Q 500 2369 397 2513 
Q 319 2622 269 2659 
Q 197 2709 38 2747 
L 38 2863 
z
" transform="scale(0.015625)"/>
       <path id="TimesNewRomanPSMT-66" d="M 1319 2638 
L 1319 756 
Q 1319 356 1406 250 
Q 1522 113 1716 113 
L 1975 113 
L 1975 0 
L 266 0 
L 266 113 
L 394 113 
Q 519 113 622 175 
Q 725 238 764 344 
Q 803 450 803 756 
L 803 2638 
L 247 2638 
L 247 2863 
L 803 2863 
L 803 3050 
Q 803 3478 940 3775 
Q 1078 4072 1361 4255 
Q 1644 4438 1997 4438 
Q 2325 4438 2600 4225 
Q 2781 4084 2781 3909 
Q 2781 3816 2700 3733 
Q 2619 3650 2525 3650 
Q 2453 3650 2373 3701 
Q 2294 3753 2178 3923 
Q 2063 4094 1966 4153 
Q 1869 4213 1750 4213 
Q 1606 4213 1506 4136 
Q 1406 4059 1362 3898 
Q 1319 3738 1319 3069 
L 1319 2863 
L 2056 2863 
L 2056 2638 
L 1319 2638 
z
" transform="scale(0.015625)"/>
       <path id="TimesNewRomanPSMT-68" d="M 1041 4444 
L 1041 2350 
Q 1388 2731 1591 2839 
Q 1794 2947 1997 2947 
Q 2241 2947 2416 2812 
Q 2591 2678 2675 2391 
Q 2734 2191 2734 1659 
L 2734 647 
Q 2734 375 2778 275 
Q 2809 200 2884 156 
Q 2959 113 3159 113 
L 3159 0 
L 1753 0 
L 1753 113 
L 1819 113 
Q 2019 113 2097 173 
Q 2175 234 2206 353 
Q 2216 403 2216 647 
L 2216 1659 
Q 2216 2128 2167 2275 
Q 2119 2422 2012 2495 
Q 1906 2569 1756 2569 
Q 1603 2569 1437 2487 
Q 1272 2406 1041 2159 
L 1041 647 
Q 1041 353 1073 281 
Q 1106 209 1195 161 
Q 1284 113 1503 113 
L 1503 0 
L 84 0 
L 84 113 
Q 275 113 384 172 
Q 447 203 484 290 
Q 522 378 522 647 
L 522 3238 
Q 522 3728 498 3840 
Q 475 3953 426 3993 
Q 378 4034 297 4034 
Q 231 4034 84 3984 
L 41 4094 
L 897 4444 
L 1041 4444 
z
" transform="scale(0.015625)"/>
       <path id="TimesNewRomanPSMT-2d" d="M 259 1672 
L 1875 1672 
L 1875 1200 
L 259 1200 
L 259 1672 
z
" transform="scale(0.015625)"/>
       <path id="DejaVuSans-Oblique-3c9" d="M 1369 -91 
Q 72 -91 434 1766 
Q 575 2500 1256 3500 
L 1875 3500 
Q 1231 2500 1088 1750 
Q 819 397 1519 397 
Q 2166 397 2478 2078 
L 3009 2078 
Q 2669 388 3316 397 
Q 4013 403 4275 1750 
Q 4419 2500 4169 3500 
L 4788 3500 
Q 5075 2500 4934 1766 
Q 4578 -94 3278 -91 
Q 2428 -88 2503 844 
Q 2194 -91 1369 -91 
z
" transform="scale(0.015625)"/>
       <path id="DejaVuSans-Oblique-6d" d="M 5747 2113 
L 5338 0 
L 4763 0 
L 5166 2094 
Q 5191 2228 5203 2325 
Q 5216 2422 5216 2491 
Q 5216 2772 5059 2928 
Q 4903 3084 4622 3084 
Q 4203 3084 3875 2770 
Q 3547 2456 3450 1953 
L 3066 0 
L 2491 0 
L 2900 2094 
Q 2925 2209 2937 2307 
Q 2950 2406 2950 2484 
Q 2950 2769 2794 2926 
Q 2638 3084 2363 3084 
Q 1938 3084 1609 2770 
Q 1281 2456 1184 1953 
L 800 0 
L 225 0 
L 909 3500 
L 1484 3500 
L 1375 2956 
Q 1609 3263 1923 3423 
Q 2238 3584 2597 3584 
Q 2978 3584 3223 3384 
Q 3469 3184 3519 2828 
Q 3781 3197 4126 3390 
Q 4472 3584 4856 3584 
Q 5306 3584 5551 3325 
Q 5797 3066 5797 2591 
Q 5797 2488 5784 2364 
Q 5772 2241 5747 2113 
z
" transform="scale(0.015625)"/>
       <path id="TimesNewRomanPSMT-64" d="M 2222 322 
Q 2013 103 1813 7 
Q 1613 -88 1381 -88 
Q 913 -88 563 304 
Q 213 697 213 1313 
Q 213 1928 600 2439 
Q 988 2950 1597 2950 
Q 1975 2950 2222 2709 
L 2222 3238 
Q 2222 3728 2198 3840 
Q 2175 3953 2125 3993 
Q 2075 4034 2000 4034 
Q 1919 4034 1784 3984 
L 1744 4094 
L 2597 4444 
L 2738 4444 
L 2738 1134 
Q 2738 631 2761 520 
Q 2784 409 2836 365 
Q 2888 322 2956 322 
Q 3041 322 3181 375 
L 3216 266 
L 2366 -88 
L 2222 -88 
L 2222 322 
z
M 2222 541 
L 2222 2016 
Q 2203 2228 2109 2403 
Q 2016 2578 1861 2667 
Q 1706 2756 1559 2756 
Q 1284 2756 1069 2509 
Q 784 2184 784 1559 
Q 784 928 1059 592 
Q 1334 256 1672 256 
Q 1956 256 2222 541 
z
" transform="scale(0.015625)"/>
       <path id="TimesNewRomanPSMT-2f" d="M 1794 4444 
L 259 -88 
L 9 -88 
L 1544 4444 
L 1794 4444 
z
" transform="scale(0.015625)"/>
      </defs>
      <use xlink:href="#TimesNewRomanPSMT-41" transform="translate(0 0.5625)"/>
      <use xlink:href="#TimesNewRomanPSMT-6e" transform="translate(72.216797 0.5625)"/>
      <use xlink:href="#TimesNewRomanPSMT-67" transform="translate(122.216797 0.5625)"/>
      <use xlink:href="#TimesNewRomanPSMT-75" transform="translate(172.216797 0.5625)"/>
      <use xlink:href="#TimesNewRomanPSMT-6c" transform="translate(222.216797 0.5625)"/>
      <use xlink:href="#TimesNewRomanPSMT-61" transform="translate(250 0.5625)"/>
      <use xlink:href="#TimesNewRomanPSMT-72" transform="translate(294.384766 0.5625)"/>
      <use xlink:href="#TimesNewRomanPSMT-20" transform="translate(327.685547 0.5625)"/>
      <use xlink:href="#TimesNewRomanPSMT-76" transform="translate(352.685547 0.5625)"/>
      <use xlink:href="#TimesNewRomanPSMT-65" transform="translate(402.685547 0.5625)"/>
      <use xlink:href="#TimesNewRomanPSMT-6c" transform="translate(447.070312 0.5625)"/>
      <use xlink:href="#TimesNewRomanPSMT-6f" transform="translate(474.853516 0.5625)"/>
      <use xlink:href="#TimesNewRomanPSMT-63" transform="translate(524.853516 0.5625)"/>
      <use xlink:href="#TimesNewRomanPSMT-69" transform="translate(569.238281 0.5625)"/>
      <use xlink:href="#TimesNewRomanPSMT-74" transform="translate(597.021484 0.5625)"/>
      <use xlink:href="#TimesNewRomanPSMT-79" transform="translate(624.804688 0.5625)"/>
      <use xlink:href="#TimesNewRomanPSMT-20" transform="translate(674.804688 0.5625)"/>
      <use xlink:href="#TimesNewRomanPSMT-6f" transform="translate(699.804688 0.5625)"/>
      <use xlink:href="#TimesNewRomanPSMT-66" transform="translate(749.804688 0.5625)"/>
      <use xlink:href="#TimesNewRomanPSMT-20" transform="translate(783.105469 0.5625)"/>
      <use xlink:href="#TimesNewRomanPSMT-74" transform="translate(808.105469 0.5625)"/>
      <use xlink:href="#TimesNewRomanPSMT-68" transform="translate(835.888672 0.5625)"/>
      <use xlink:href="#TimesNewRomanPSMT-65" transform="translate(885.888672 0.5625)"/>
      <use xlink:href="#TimesNewRomanPSMT-20" transform="translate(930.273438 0.5625)"/>
      <use xlink:href="#TimesNewRomanPSMT-6d" transform="translate(955.273438 0.5625)"/>
      <use xlink:href="#TimesNewRomanPSMT-6f" transform="translate(1033.056641 0.5625)"/>
      <use xlink:href="#TimesNewRomanPSMT-74" transform="translate(1083.056641 0.5625)"/>
      <use xlink:href="#TimesNewRomanPSMT-6f" transform="translate(1110.839844 0.5625)"/>
      <use xlink:href="#TimesNewRomanPSMT-72" transform="translate(1160.839844 0.5625)"/>
      <use xlink:href="#TimesNewRomanPSMT-20" transform="translate(1194.140625 0.5625)"/>
      <use xlink:href="#TimesNewRomanPSMT-2d" transform="translate(1219.140625 0.5625)"/>
      <use xlink:href="#TimesNewRomanPSMT-20" transform="translate(1252.441406 0.5625)"/>
      <use xlink:href="#DejaVuSans-Oblique-3c9" transform="translate(1277.441406 0.5625)"/>
      <use xlink:href="#DejaVuSans-Oblique-6d" transform="translate(1361.181641 -15.84375) scale(0.7)"/>
      <use xlink:href="#TimesNewRomanPSMT-20" transform="translate(1432.104492 0.5625)"/>
      <use xlink:href="#TimesNewRomanPSMT-28" transform="translate(1457.104492 0.5625)"/>
      <use xlink:href="#TimesNewRomanPSMT-72" transform="translate(1490.405273 0.5625)"/>
      <use xlink:href="#TimesNewRomanPSMT-61" transform="translate(1523.706055 0.5625)"/>
      <use xlink:href="#TimesNewRomanPSMT-64" transform="translate(1568.09082 0.5625)"/>
      <use xlink:href="#TimesNewRomanPSMT-2f" transform="translate(1618.09082 0.5625)"/>
      <use xlink:href="#TimesNewRomanPSMT-73" transform="translate(1645.874023 0.5625)"/>
      <use xlink:href="#TimesNewRomanPSMT-29" transform="translate(1684.790039 0.5625)"/>
     </g>
    </g>
   </g>
   <g id="line2d_29">
    <path d="M 69.218182 140.656772 
L 69.2334 138.835656 
L 69.324709 140.423749 
L 69.370364 140.775947 
L 69.446455 140.529258 
L 69.659509 135.81023 
L 69.689945 135.873572 
L 70.024745 129.54714 
L 70.131273 126.558475 
L 70.283455 121.909531 
L 70.298673 122.067068 
L 70.755218 107.970903 
L 71.272636 91.250491 
L 71.287855 91.43452 
L 71.318291 90.779738 
L 72.109636 75.633755 
L 72.124855 76.228488 
L 72.200945 75.267749 
L 72.550964 69.506178 
L 72.566182 69.175907 
L 72.5814 69.814874 
L 72.672709 69.254804 
L 72.718364 68.979279 
L 72.870545 72.227296 
L 73.007509 69.795271 
L 73.022727 69.676498 
L 73.068382 70.118222 
L 73.098818 70.150166 
L 73.235782 72.675865 
L 73.266218 72.490195 
L 73.631455 78.631028 
L 73.707545 80.928076 
L 73.783636 80.253843 
L 73.905382 79.062956 
L 73.935818 78.984707 
L 74.088 82.145867 
L 74.301055 88.701182 
L 74.620636 97.691266 
L 74.651073 97.353572 
L 75.001091 102.389017 
L 75.168491 107.973578 
L 76.827273 158.014505 
L 77.329473 174.910403 
L 77.694709 183.108038 
L 78.273 195.869898 
L 78.516491 202.738986 
L 79.079564 214.851599 
L 79.764382 228.964363 
L 79.870909 230.474007 
L 79.931782 230.317686 
L 79.962218 231.227004 
L 80.099182 232.893853 
L 80.251364 230.003656 
L 80.266582 230.152711 
L 80.312236 229.72496 
L 80.327455 229.587742 
L 80.464418 233.420686 
L 80.707909 238.743714 
L 80.860091 238.655773 
L 80.997055 236.824824 
L 81.012273 236.736186 
L 81.149236 240.216791 
L 81.164455 240.42783 
L 81.179673 240.013427 
L 81.240545 240.323309 
L 81.392727 238.485522 
L 81.514473 239.601307 
L 81.621 239.756101 
L 81.773182 241.943355 
L 81.7884 241.737481 
L 81.849273 242.066826 
L 81.864491 242.023129 
L 81.925364 242.116364 
L 82.001455 240.579995 
L 82.047109 241.265686 
L 82.077545 241.305969 
L 82.229727 238.152253 
L 82.305818 237.904574 
L 82.351473 238.632481 
L 82.381909 238.621438 
L 82.549309 235.328297 
L 82.762364 232.678614 
L 82.777582 232.886981 
L 82.838455 232.281584 
L 82.990636 229.730351 
L 83.295 222.316581 
L 83.599364 211.31599 
L 83.614582 211.346649 
L 84.238527 189.51967 
L 85.562509 132.380966 
L 86.3082 103.41075 
L 86.643 91.991587 
L 86.886491 85.945156 
L 87.023455 80.579742 
L 87.251727 72.301125 
L 87.282164 73.442627 
L 87.327818 73.079582 
L 87.343036 73.494866 
L 87.388691 73.47955 
L 87.403909 73.475623 
L 87.48 71.790344 
L 87.525655 71.985231 
L 87.556091 71.853804 
L 87.708273 67.986131 
L 87.723491 68.790956 
L 87.799582 67.568161 
L 87.936545 64.56084 
L 87.997418 65.971222 
L 88.012636 65.990856 
L 88.1496 61.754143 
L 88.180036 62.167936 
L 88.301782 60.896722 
L 88.332218 59.559162 
L 88.469182 58.016905 
L 88.590927 59.307209 
L 88.621364 59.415058 
L 88.773545 56.410496 
L 88.788764 56.418909 
L 88.925727 54.195524 
L 89.001818 55.145607 
L 89.108345 55.939043 
L 89.154 56.359448 
L 89.230091 54.449056 
L 89.260527 55.51997 
L 89.382273 56.528473 
L 89.519236 54.645761 
L 89.534455 54.528678 
L 89.549673 54.833259 
L 89.610545 54.769055 
L 89.686636 55.8075 
L 89.732291 55.590136 
L 89.762727 55.653215 
L 89.777945 55.478125 
L 89.838818 55.3836 
L 89.914909 56.39336 
L 89.930127 55.070936 
L 90.067091 54.309686 
L 90.143182 54.774268 
L 90.173618 54.593551 
L 90.219273 54.510714 
L 90.295364 53.734133 
L 90.341018 54.199252 
L 90.371455 54.203608 
L 90.447545 53.476292 
L 90.4932 53.570573 
L 90.523636 53.574075 
L 90.599727 52.890404 
L 90.630164 53.417196 
L 90.675818 53.462194 
L 90.828 54.811499 
L 90.843218 54.49542 
L 90.919309 55.110498 
L 91.528036 61.106896 
L 92.517218 81.078669 
L 92.8368 94.526175 
L 93.186818 105.762819 
L 93.460745 115.067218 
L 93.795545 129.611024 
L 94.099909 145.288905 
L 94.115127 144.438373 
L 94.191218 146.224929 
L 94.358618 153.157852 
L 94.708636 165.926654 
L 94.754291 165.649554 
L 94.799945 168.057513 
L 95.393455 189.510812 
L 95.439109 189.440026 
L 95.621727 193.297268 
L 95.773909 197.40923 
L 95.789127 197.060295 
L 95.85 197.606576 
L 95.865218 197.502908 
L 95.926091 197.898488 
L 96.078273 201.316963 
L 96.306545 210.010545 
L 96.321764 209.872756 
L 96.458727 212.507706 
L 96.5196 211.702242 
L 96.534818 211.718742 
L 96.687 214.282399 
L 97.265291 222.293164 
L 97.295727 222.591356 
L 97.326164 221.827245 
L 97.371818 221.799473 
L 97.539218 224.905369 
L 97.600091 225.814894 
L 97.660964 225.155063 
L 97.676182 225.198261 
L 97.797927 224.041107 
L 97.828364 223.937712 
L 98.010982 225.967208 
L 98.208818 227.258649 
L 98.345782 225.992761 
L 98.361 225.877504 
L 98.376218 226.110096 
L 98.437091 225.983962 
L 98.513182 227.154325 
L 98.543618 226.46388 
L 98.589273 226.347557 
L 98.726236 228.064949 
L 98.817545 228.346979 
L 98.756673 228.058007 
L 98.878418 228.326941 
L 98.893636 228.340337 
L 99.045818 226.772611 
L 99.274091 223.769138 
L 99.502364 218.887797 
L 99.943691 208.351721 
L 100.750255 180.400488 
L 102.591655 106.383751 
L 102.728618 101.013114 
L 103.383 79.530796 
L 103.398218 80.207901 
L 103.474309 78.756714 
L 104.128691 63.402962 
L 104.417836 58.338053 
L 104.980909 51.38634 
L 105.072218 52.139368 
L 105.133091 52.329404 
L 105.330927 49.258904 
L 105.589636 44.443636 
L 105.711382 44.563214 
L 105.741818 44.56071 
L 105.909218 46.569905 
L 106.350545 50.81597 
L 106.365764 50.210735 
L 106.441855 50.923776 
L 106.852745 55.564691 
L 107.157109 63.656449 
L 108.496309 113.901042 
L 110.155091 183.364055 
L 110.170309 182.978371 
L 110.231182 183.870993 
L 110.398582 192.998025 
L 110.535545 198.511205 
L 110.596418 197.277539 
L 110.611636 197.394382 
L 110.809473 203.495824 
L 111.052964 207.326269 
L 111.113836 210.190425 
L 111.448636 219.26762 
L 111.494291 219.097342 
L 111.676909 220.432411 
L 111.753 219.502608 
L 111.783436 220.120059 
L 111.829091 220.303329 
L 112.103018 227.6759 
L 112.209545 229.248247 
L 112.2552 228.87424 
L 112.361727 229.995082 
L 112.529127 231.60734 
L 112.970455 234.890018 
L 112.985673 234.87618 
L 113.122636 235.310755 
L 113.290036 233.094711 
L 113.487873 232.082647 
L 113.518309 231.425122 
L 113.655273 230.082426 
L 113.685709 230.816907 
L 113.731364 230.689657 
L 113.883545 233.131013 
L 113.959636 234.11902 
L 113.990073 233.245178 
L 114.035727 233.113742 
L 115.953218 173.437738 
L 117.079364 124.429645 
L 117.383727 111.305295 
L 117.398945 111.327107 
L 118.220727 86.629651 
L 118.235945 86.781067 
L 118.266382 86.341748 
L 118.296818 85.90559 
L 118.449 78.473138 
L 118.631618 75.683283 
L 118.677273 75.07712 
L 118.829455 68.074999 
L 118.844673 68.205395 
L 118.859891 67.839721 
L 119.057727 65.655964 
L 119.286 63.040401 
L 119.331655 63.250832 
L 119.362091 63.108781 
L 119.544709 58.938884 
L 119.7882 55.445178 
L 119.894727 53.984032 
L 119.940382 54.853739 
L 119.970818 54.867365 
L 120.168655 52.17923 
L 120.366491 50.976119 
L 120.427364 50.751607 
L 120.594764 47.659756 
L 120.655636 46.884416 
L 120.731727 47.008048 
L 120.807818 47.507517 
L 120.838255 47.169706 
L 120.883909 47.112189 
L 121.036091 48.8643 
L 121.340455 50.161244 
L 121.355673 50.100206 
L 121.401327 50.326158 
L 121.492636 50.637371 
L 121.431764 50.263874 
L 121.538291 50.477099 
L 121.644818 50.838508 
L 121.797 54.002704 
L 121.812218 53.992216 
L 122.070927 59.027495 
L 123.227509 91.490437 
L 123.684055 112.106947 
L 124.262345 136.65268 
L 124.688455 152.466235 
L 124.901509 163.688434 
L 125.342836 177.573192 
L 125.510236 184.196736 
L 126.210273 207.338809 
L 126.225491 206.681533 
L 126.301582 207.898062 
L 126.590727 211.176693 
L 126.666818 210.181678 
L 126.682036 211.623232 
L 126.788564 215.440712 
L 127.123364 224.06222 
L 127.138582 224.03054 
L 127.199455 224.789053 
L 127.260327 224.227587 
L 127.275545 224.242752 
L 127.412509 225.18735 
L 127.427727 225.243956 
L 127.564691 226.893404 
L 127.579909 226.991178 
L 127.656 225.627829 
L 127.686436 226.381115 
L 127.732091 226.52326 
L 127.808182 226.154641 
L 127.8234 226.734576 
L 127.884273 227.109634 
L 128.021236 230.868348 
L 128.188636 232.95642 
L 128.264727 231.851907 
L 128.310382 232.084268 
L 128.416909 232.172872 
L 128.493 231.038886 
L 128.523436 231.977576 
L 128.645182 232.659133 
L 128.782145 234.310594 
L 128.797364 234.396633 
L 128.934327 232.923071 
L 128.979982 232.073653 
L 129.603927 225.083925 
L 129.8322 220.032015 
L 130.364836 205.234549 
L 131.277927 171.777582 
L 132.054055 135.765482 
L 132.480164 120.174821 
L 133.028018 98.722498 
L 133.667182 78.675007 
L 133.6824 78.961467 
L 133.728055 77.99608 
L 133.758491 78.591702 
L 133.895455 76.797731 
L 133.971545 75.935308 
L 134.123727 69.754134 
L 134.138945 70.076994 
L 134.565055 63.289819 
L 134.702018 60.34404 
L 135.036818 53.415999 
L 135.067255 53.980838 
L 135.112909 54.102331 
L 135.265091 52.482967 
L 135.280309 52.558116 
L 135.325964 52.334627 
L 135.417273 51.86744 
L 135.462927 52.200006 
L 135.493364 52.219288 
L 135.752073 49.82043 
L 135.828164 48.454581 
L 135.995564 47.518666 
L 136.178182 46.855805 
L 136.330364 48.026879 
L 136.345582 47.663304 
L 136.436891 47.935123 
L 136.710818 49.331219 
L 136.863 51.936811 
L 136.878218 51.637925 
L 136.939091 52.442086 
L 136.954309 52.401615 
L 136.969527 52.598441 
L 137.547818 61.744814 
L 137.821745 69.559262 
L 138.263073 84.245978 
L 138.841364 108.33231 
L 139.297909 131.036052 
L 139.313127 130.610995 
L 139.921855 154.122388 
L 140.819727 188.755799 
L 140.834945 188.517011 
L 140.8806 189.366297 
L 141.124091 195.901099 
L 141.337145 202.374802 
L 141.580636 210.050317 
L 141.641509 208.95093 
L 141.671945 209.288697 
L 141.732818 209.683123 
L 141.961091 216.613795 
L 141.976309 216.1854 
L 142.037182 216.871152 
L 142.235018 222.273174 
L 142.417636 224.036126 
L 142.432855 223.616418 
L 142.508945 224.211315 
L 142.722 225.291239 
L 142.8894 226.883585 
L 143.300291 231.369123 
L 143.330727 231.511529 
L 143.376382 231.215192 
L 143.482909 231.255312 
L 143.498127 230.96661 
L 143.559 230.976977 
L 143.695964 233.218308 
L 143.787273 233.883633 
L 143.863364 233.831966 
L 143.939455 233.033834 
L 143.969891 233.599536 
L 144.045982 233.658397 
L 144.091636 233.599707 
L 144.243818 233.059038 
L 144.259036 233.13372 
L 144.304691 232.875874 
L 144.472091 231.265345 
L 145.643891 202.212454 
L 146.770036 158.533107 
L 147.667909 118.265279 
L 147.683127 118.457746 
L 147.713564 117.584011 
L 148.307073 97.573376 
L 148.657091 84.373299 
L 148.717964 84.467926 
L 148.7484 84.524465 
L 148.809273 84.260396 
L 148.961455 76.851817 
L 148.976673 77.163799 
L 149.022327 76.075522 
L 149.798455 59.860241 
L 149.874545 61.031367 
L 149.9202 60.658913 
L 149.950636 60.592757 
L 150.133255 56.162903 
L 150.255 55.12914 
L 150.331091 55.834911 
L 150.361527 55.161518 
L 150.4224 54.061349 
L 150.711545 48.380002 
L 150.848509 48.824135 
L 150.863727 48.787482 
L 151.000691 49.927961 
L 151.031127 49.918436 
L 151.092 50.05011 
L 151.168091 48.572941 
L 151.213745 48.618635 
L 151.320273 48.482724 
L 151.396364 47.544421 
L 151.442018 47.872106 
L 151.502891 47.582268 
L 151.548545 47.466387 
L 151.563764 47.720583 
L 151.624636 47.980949 
L 151.700727 49.769952 
L 151.746382 48.905328 
L 151.883345 49.517438 
L 152.157273 51.390351 
L 152.309455 54.753246 
L 152.324673 54.543163 
L 152.370327 55.277123 
L 152.720345 62.960107 
L 153.298636 79.399948 
L 153.618218 91.668885 
L 154.668273 134.603351 
L 154.911764 147.914811 
L 155.581364 175.029639 
L 155.870509 181.012205 
L 155.961818 184.909695 
L 156.220527 195.756569 
L 156.646636 205.890037 
L 156.661855 205.831337 
L 157.1184 214.562776 
L 157.255364 219.013381 
L 157.331455 218.913891 
L 157.346673 218.762438 
L 157.407545 219.175412 
L 157.605382 224.946565 
L 157.711909 225.620532 
L 157.848873 223.829471 
L 157.864091 223.745367 
L 157.879309 224.232978 
L 157.940182 224.466967 
L 158.168455 229.39454 
L 158.183673 229.393858 
L 158.244545 230.276876 
L 158.305418 229.679561 
L 158.320636 229.680166 
L 158.396727 228.702051 
L 158.427164 229.803765 
L 158.472818 230.121425 
L 158.488036 229.793128 
L 158.533691 229.838361 
L 158.548909 229.851199 
L 158.685873 233.579259 
L 158.716309 233.292846 
L 158.853273 234.465835 
L 158.975018 232.738046 
L 159.066327 231.521025 
L 159.233727 229.147586 
L 159.2946 230.138608 
L 159.309818 230.103797 
L 159.446782 232.891722 
L 159.462 233.010627 
L 159.477218 232.835011 
L 159.538091 232.941352 
L 159.705491 230.309049 
L 159.888109 226.966473 
L 160.816418 205.732258 
L 161.851255 165.278771 
L 162.703473 129.722067 
L 162.870873 119.562594 
L 163.266545 103.925654 
L 163.281764 103.961468 
L 164.103545 77.430055 
L 164.133982 78.29405 
L 164.3166 76.420264 
L 164.499218 72.138377 
L 165.321 56.066777 
L 165.397091 56.8433 
L 165.442745 56.711892 
L 165.4884 56.625704 
L 165.549273 56.658463 
L 165.686236 51.38879 
L 165.914509 48.524942 
L 165.944945 48.594167 
L 166.005818 48.337858 
L 166.142782 49.33636 
L 166.158 49.414816 
L 166.279745 48.612647 
L 166.310182 48.598606 
L 166.431927 48.875241 
L 166.538455 48.928487 
L 166.675418 47.827973 
L 166.766727 47.539409 
L 166.842818 48.55552 
L 166.888473 48.062755 
L 166.995 48.132627 
L 167.147182 49.394524 
L 167.299364 51.553547 
L 167.3298 51.33824 
L 167.542855 54.226161 
L 168.090709 65.652954 
L 168.562473 81.489579 
L 169.475564 117.334088 
L 170.479964 160.472932 
L 170.723455 170.031231 
L 171.027818 180.921107 
L 171.043036 180.72941 
L 171.073473 181.355192 
L 171.18 184.830631 
L 171.332182 191.746568 
L 171.3474 190.949751 
L 171.575673 197.307546 
L 171.8496 203.284054 
L 171.940909 206.550973 
L 172.093091 213.057838 
L 172.108309 212.277329 
L 172.397455 216.751878 
L 172.458327 216.292122 
L 172.549636 216.38781 
L 172.625727 218.127141 
L 172.671382 217.845331 
L 172.701818 218.000866 
L 172.930091 225.932885 
L 172.945309 225.732608 
L 172.990964 226.563479 
L 173.006182 226.833207 
L 173.0214 225.860097 
L 173.051836 225.898579 
L 173.082273 225.938564 
L 173.158364 224.915166 
L 173.204018 225.204745 
L 173.234455 225.147015 
L 173.386636 229.256356 
L 173.401855 228.987397 
L 173.462727 229.64677 
L 173.477945 229.64079 
L 173.767091 232.504298 
L 173.843182 232.425005 
L 174.071455 229.11215 
L 174.147545 227.916606 
L 174.177982 228.993908 
L 174.223636 229.006021 
L 174.3606 231.150764 
L 174.391036 231.103321 
L 174.497564 231.371805 
L 174.558436 231.366092 
L 174.573655 231.332424 
L 174.756273 230.970825 
L 174.801927 231.59446 
L 174.847582 230.864034 
L 175.014982 229.148645 
L 175.167164 225.443986 
L 176.156345 201.283945 
L 177.099873 162.779557 
L 177.571636 141.537908 
L 177.586855 142.043249 
L 177.647727 140.402189 
L 177.891218 129.101079 
L 178.5456 103.657589 
L 179.397818 79.021095 
L 179.413036 79.273258 
L 179.473909 78.764291 
L 179.778273 66.489795 
L 179.793491 67.750901 
L 179.8848 66.842754 
L 179.930455 66.402821 
L 179.945673 67.17566 
L 180.006545 67.303997 
L 180.082636 66.304293 
L 180.128291 66.504735 
L 180.158727 66.428561 
L 180.432655 59.278289 
L 180.706582 54.711342 
L 180.843545 53.434931 
L 180.8892 53.506833 
L 180.934855 52.668886 
L 181.224 48.701103 
L 181.345745 49.049587 
L 181.452273 48.969573 
L 181.680545 45.936061 
L 181.802291 47.605961 
L 181.8936 48.751306 
L 181.924036 48.510378 
L 182.045782 49.174812 
L 182.076218 49.168688 
L 182.258836 51.570547 
L 182.289273 51.945415 
L 182.304491 51.317369 
L 182.365364 51.68 
L 182.456673 50.936702 
L 182.487109 50.965767 
L 182.532764 50.829168 
L 182.593636 51.020413 
L 182.776255 53.494262 
L 183.004527 58.529254 
L 183.582818 73.883864 
L 183.993709 88.82919 
L 186.991691 204.119426 
L 187.433018 211.817803 
L 188.300455 226.572543 
L 188.361327 226.545393 
L 188.4222 227.713759 
L 188.528727 228.892904 
L 188.543945 227.861634 
L 188.680909 227.130498 
L 188.833091 229.748814 
L 189.137455 234.939649 
L 189.213545 234.072577 
L 189.396164 232.501825 
L 189.441818 232.187491 
L 189.517909 232.25989 
L 189.654873 233.168558 
L 189.670091 233.193546 
L 189.807055 232.527921 
L 189.822273 232.486983 
L 189.898364 231.321916 
L 189.944018 231.704891 
L 190.050545 230.980461 
L 190.126636 231.305766 
L 190.141855 231.469214 
L 190.202727 231.416856 
L 190.400564 227.168086 
L 190.963636 214.71246 
L 191.161473 208.25809 
L 191.724545 189.775312 
L 191.907164 182.514109 
L 192.318055 163.106698 
L 192.942 135.929624 
L 193.018091 133.739231 
L 193.200709 122.83726 
L 193.474636 113.734576 
L 193.6116 108.494899 
L 194.1138 92.856936 
L 194.311636 86.952901 
L 194.524691 78.400918 
L 194.692091 75.342848 
L 194.707309 75.880156 
L 194.768182 75.423791 
L 194.7834 76.109139 
L 194.844273 76.302948 
L 195.224727 63.502351 
L 195.239945 63.482504 
L 195.300818 61.635248 
L 195.361691 63.143148 
L 195.376909 63.137563 
L 195.453 63.835889 
L 195.483436 63.300833 
L 195.529091 63.117569 
L 195.711709 59.280569 
L 195.909545 54.397641 
L 196.1226 50.689435 
L 196.213909 48.483442 
L 196.244345 50.242273 
L 196.442182 51.417903 
L 196.4574 51.06468 
L 196.548709 51.170456 
L 196.594364 51.267025 
L 196.746545 48.333647 
L 196.822636 47.642441 
L 196.853073 48.284564 
L 196.898727 48.273703 
L 197.050909 45.850809 
L 197.127 45.706371 
L 197.248745 47.151448 
L 197.279182 47.342832 
L 197.446582 52.723019 
L 197.644418 54.722805 
L 197.674855 54.526408 
L 197.811818 55.828181 
L 197.827036 55.404418 
L 197.887909 55.841346 
L 197.918345 55.761514 
L 198.085745 57.443407 
L 198.390109 62.745806 
L 199.044491 81.787823 
L 200.003236 122.099277 
L 201.509836 183.414787 
L 202.072909 198.014779 
L 202.118564 198.507953 
L 202.164218 200.602793 
L 202.575109 211.653754 
L 202.833818 215.189942 
L 202.849036 215.008269 
L 202.909909 215.28793 
L 203.092527 219.688561 
L 203.670818 230.259092 
L 203.701255 229.293356 
L 203.746909 229.446682 
L 203.823 231.502518 
L 203.868655 230.862531 
L 203.899091 230.904168 
L 204.051273 228.726059 
L 204.127364 228.07217 
L 204.203455 228.277165 
L 204.401291 230.729808 
L 204.812182 236.669476 
L 204.857836 235.344381 
L 204.888273 235.356903 
L 205.025236 234.551017 
L 205.177418 233.424805 
L 205.314382 231.296973 
L 206.105727 215.562507 
L 206.349218 208.645784 
L 207.110127 182.23845 
L 208.753691 112.498792 
L 208.890655 106.505148 
L 209.362418 90.509134 
L 209.590691 82.916737 
L 209.879836 76.144979 
L 210.199418 70.623193 
L 210.275509 67.555934 
L 210.564655 62.031935 
L 210.823364 58.648194 
L 210.838582 58.832402 
L 210.899455 58.457259 
L 211.127727 54.657517 
L 211.142945 54.757248 
L 211.173382 54.37654 
L 211.356 52.053509 
L 211.371218 53.253244 
L 211.432091 53.390791 
L 211.584273 50.284415 
L 211.812545 48.841334 
L 211.888636 49.268117 
L 211.919073 48.738047 
L 211.964727 48.599268 
L 211.979945 48.847036 
L 211.995164 48.842694 
L 212.040818 48.837379 
L 212.116909 48.38012 
L 212.147345 48.758374 
L 212.193 48.909119 
L 212.329964 50.002215 
L 212.497364 50.762116 
L 212.558236 50.638603 
L 212.573455 50.691969 
L 212.649545 49.668999 
L 212.6952 49.946444 
L 212.725636 50.00296 
L 212.756073 49.735114 
L 212.816945 50.127647 
L 213.090873 52.170973 
L 213.425673 57.202464 
L 213.836564 70.307384 
L 216.012764 153.659469 
L 216.621491 179.181415 
L 216.8802 186.299503 
L 217.595455 207.349172 
L 218.204182 219.534482 
L 218.2194 219.41876 
L 218.508545 221.752836 
L 218.660727 225.850036 
L 218.675945 225.287142 
L 218.767255 225.513652 
L 218.812909 225.640034 
L 219.010745 228.604176 
L 219.162927 231.699357 
L 219.345545 233.710945 
L 219.421636 232.266338 
L 219.467291 232.522489 
L 219.497727 232.452261 
L 219.512945 232.673021 
L 219.573818 232.718176 
L 219.726 231.9694 
L 219.817309 232.479144 
L 219.847745 232.418178 
L 219.984709 231.867641 
L 220.030364 231.668943 
L 220.045582 232.043521 
L 220.0608 232.024624 
L 220.106455 231.946808 
L 220.182545 231.332389 
L 220.243418 231.388986 
L 220.410818 230.697098 
L 220.426036 231.456507 
L 220.517345 231.083486 
L 220.745618 229.449481 
L 220.913018 225.937638 
L 221.217382 217.597267 
L 222.267436 184.531767 
L 222.708764 164.1889 
L 223.454455 131.166821 
L 223.469673 131.441186 
L 223.500109 130.412435 
L 224.093618 106.674038 
L 224.443636 95.844431 
L 224.458855 95.856703 
L 224.687127 90.166149 
L 225.356727 69.510031 
L 225.432818 70.582731 
L 225.478473 70.565531 
L 225.508909 70.595454 
L 225.798055 60.496864 
L 225.828491 60.551429 
L 225.950236 59.019585 
L 226.041545 58.652312 
L 226.056764 59.069726 
L 226.117636 59.183008 
L 226.482873 54.180573 
L 226.802455 49.125079 
L 226.878545 50.001329 
L 227.030727 50.536274 
L 227.045945 50.372112 
L 227.137255 50.59027 
L 227.259 50.751993 
L 227.395964 47.558897 
L 227.563364 45.814009 
L 227.578582 46.578369 
L 227.639455 46.67337 
L 227.867727 50.445684 
L 227.882945 50.050089 
L 227.943818 50.639736 
L 228.019909 50.530131 
L 228.035127 50.274217 
L 228.096 50.548211 
L 228.2634 52.710425 
L 228.719945 61.312945 
L 229.419982 80.710644 
L 231.824455 178.35942 
L 231.839673 178.094332 
L 232.159255 188.591849 
L 232.965818 210.886692 
L 232.996255 210.314748 
L 233.072345 212.044137 
L 233.665855 221.89421 
L 233.802818 223.884942 
L 233.955 228.104368 
L 234.031091 228.291679 
L 234.076745 227.475734 
L 234.259364 227.412572 
L 234.335455 227.775546 
L 234.365891 227.37912 
L 234.411545 227.259322 
L 234.563727 229.655837 
L 234.578945 229.459714 
L 234.655036 229.852868 
L 234.792 230.809412 
L 234.944182 232.232925 
L 235.020273 233.208681 
L 235.050709 232.592189 
L 235.096364 232.504605 
L 235.142018 232.984462 
L 235.202891 232.663976 
L 235.248545 232.476964 
L 235.263764 232.942711 
L 235.355073 232.526984 
L 235.629 231.257941 
L 235.781182 229.008506 
L 236.039891 225.144658 
L 236.709491 210.895412 
L 237.272564 191.42895 
L 238.596545 136.819538 
L 238.779164 126.987562 
L 239.190055 112.942946 
L 239.327018 106.247791 
L 239.890091 85.248586 
L 239.920527 85.392184 
L 239.966182 84.703535 
L 240.072709 84.720501 
L 240.118364 84.511614 
L 240.270545 77.189619 
L 240.285764 77.406571 
L 240.590127 71.880527 
L 240.757527 67.687049 
L 241.107545 60.731949 
L 241.122764 61.181929 
L 241.198855 60.268958 
L 241.868455 52.412891 
L 241.898891 52.832017 
L 241.944545 52.91061 
L 241.959764 52.76736 
L 241.9902 52.769679 
L 242.020636 52.772981 
L 242.172818 50.965797 
L 242.188036 51.494387 
L 242.248909 51.364228 
L 242.385873 46.907122 
L 242.477182 46.515428 
L 242.416309 47.094611 
L 242.4924 46.896562 
L 242.553273 46.696159 
L 242.568491 47.021279 
L 242.629364 47.149216 
L 242.705455 48.271022 
L 242.735891 47.434922 
L 242.781545 47.379725 
L 243.009818 51.312127 
L 243.025036 50.822734 
L 243.085909 51.642108 
L 243.116345 51.176535 
L 243.162 51.484163 
L 243.177218 50.865103 
L 243.238091 51.103146 
L 243.390273 53.016023 
L 243.405491 52.998559 
L 243.968564 59.939463 
L 244.3338 71.552246 
L 245.809964 128.010802 
L 246.951327 174.059786 
L 247.194818 181.805121 
L 247.483964 195.979031 
L 247.5144 195.947162 
L 247.620927 197.378605 
L 247.788327 200.761003 
L 248.031818 208.974103 
L 248.260091 213.989258 
L 248.275309 213.822368 
L 248.336182 214.313656 
L 248.488364 217.324017 
L 248.549236 216.884559 
L 248.564455 216.952292 
L 248.716636 220.227575 
L 248.792727 221.991727 
L 248.868818 221.905782 
L 248.944909 220.808303 
L 248.960127 222.079485 
L 249.1884 226.038651 
L 249.431891 228.420655 
L 249.477545 228.699303 
L 249.553636 230.783925 
L 249.599291 229.460146 
L 249.644945 229.350609 
L 249.705818 229.235227 
L 249.858 231.30917 
L 250.010182 233.134698 
L 250.0254 232.52718 
L 250.101491 233.496173 
L 250.1928 235.501347 
L 250.314545 237.403009 
L 250.344982 236.498144 
L 250.390636 236.424739 
L 250.664564 232.854901 
L 251.212418 226.041824 
L 251.516782 220.956136 
L 252.110291 206.328367 
L 252.749455 181.570141 
L 252.947291 173.324908 
L 253.8756 132.448285 
L 254.3778 112.817035 
L 254.940873 92.391647 
L 255.184364 84.021294 
L 255.199582 84.254738 
L 255.853964 72.444792 
L 255.945273 68.933716 
L 256.249636 58.420268 
L 256.295291 59.89847 
L 256.325727 59.843206 
L 256.462691 60.288702 
L 256.538782 60.739602 
L 256.554 60.804399 
L 256.599655 60.517102 
L 256.630091 60.479436 
L 256.904018 51.585418 
L 257.086636 47.516006 
L 257.2236 50.333871 
L 257.467091 52.775846 
L 257.482309 51.714625 
L 257.543182 51.730544 
L 257.680145 49.197771 
L 257.771455 47.270108 
L 257.923636 47.553322 
L 258.075818 49.410628 
L 258.091036 49.331034 
L 258.380182 51.60932 
L 258.441055 51.477392 
L 258.456273 51.551322 
L 258.471491 51.128352 
L 258.486709 51.164758 
L 258.578018 51.744618 
L 258.806291 54.755525 
L 259.673727 73.116655 
L 259.978091 86.558254 
L 259.993309 86.353487 
L 261.712964 158.787577 
L 262.108636 173.187896 
L 262.123855 173.049954 
L 262.139073 173.441367 
L 262.413 183.178709 
L 262.7478 195.203814 
L 263.006509 200.123686 
L 263.326091 207.600683 
L 263.478273 212.594854 
L 263.493491 212.43998 
L 264.010909 220.88322 
L 264.026127 220.658258 
L 264.087 221.239239 
L 264.239182 224.413548 
L 264.269618 224.301747 
L 264.330491 225.84832 
L 264.467455 227.276032 
L 264.5892 226.706841 
L 264.619636 226.677963 
L 264.7566 228.297369 
L 264.771818 228.400346 
L 264.847909 230.388903 
L 264.893564 229.816805 
L 264.924 229.908867 
L 265.000091 231.338807 
L 265.045745 230.989039 
L 265.076182 231.03271 
L 265.152273 230.643964 
L 265.167491 231.248291 
L 265.456636 233.097515 
L 265.532727 232.797069 
L 265.608818 232.545297 
L 265.624036 232.857609 
L 265.684909 232.856779 
L 265.715345 233.326119 
L 265.806655 233.204913 
L 265.882745 232.935547 
L 265.989273 231.677644 
L 266.065364 230.289315 
L 266.111018 230.884743 
L 266.369727 228.201287 
L 266.598 224.154116 
L 266.613218 224.193365 
L 266.917582 217.210415 
L 267.480655 199.283251 
L 270.143836 95.045847 
L 270.569945 81.744905 
L 270.783 75.971258 
L 270.798218 76.673324 
L 270.874309 75.604652 
L 271.087364 71.767513 
L 271.239545 65.437472 
L 271.254764 65.644189 
L 271.300418 64.751049 
L 271.330855 64.83562 
L 271.650436 60.091965 
L 271.848273 58.577336 
L 272.000455 54.264194 
L 272.152636 50.393875 
L 272.2896 51.521496 
L 272.320036 52.205324 
L 272.380909 52.938393 
L 272.426564 52.308015 
L 272.457 52.285574 
L 272.6244 48.292847 
L 272.685273 46.91284 
L 272.761364 47.362622 
L 272.989636 48.773692 
L 273.065727 48.024091 
L 273.096164 48.508709 
L 273.217909 49.632939 
L 273.248345 48.805523 
L 273.294 48.716915 
L 273.370091 49.403439 
L 273.415745 49.331286 
L 273.4614 49.271722 
L 273.598364 49.994355 
L 273.613582 49.550334 
L 273.689673 50.196125 
L 273.978818 52.332515 
L 274.267964 58.740625 
L 275.196273 84.572882 
L 275.561509 100.6083 
L 275.896309 111.293059 
L 276.155018 122.63558 
L 276.931145 155.503017 
L 277.022455 157.768265 
L 277.220291 167.564656 
L 277.874673 189.621501 
L 278.011636 193.578621 
L 278.209473 200.849978 
L 278.468182 207.041888 
L 278.4834 206.454257 
L 278.544273 206.766498 
L 278.757327 211.947544 
L 279.137782 221.590439 
L 279.305182 223.469155 
L 279.3204 223.059155 
L 279.411709 223.332852 
L 279.457364 223.445936 
L 279.609545 225.975218 
L 279.624764 225.959548 
L 279.685636 226.525468 
L 279.716073 225.772536 
L 279.761727 225.707043 
L 279.837818 226.462058 
L 279.883473 226.089054 
L 279.913909 226.049622 
L 280.111745 230.654314 
L 280.294364 234.37662 
L 280.309582 233.1479 
L 280.370455 233.116432 
L 280.446545 233.646822 
L 280.476982 233.108559 
L 280.522636 232.90294 
L 280.537855 233.328209 
L 280.598727 233.353893 
L 280.674818 232.082579 
L 280.720473 232.517802 
L 280.750909 232.420323 
L 280.887873 233.147308 
L 280.903091 233.171568 
L 281.040055 231.675067 
L 281.146582 230.237039 
L 281.435727 227.557952 
L 281.450945 227.935573 
L 281.527036 227.387164 
L 281.618345 226.06379 
L 282.014018 219.585297 
L 282.653182 200.815588 
L 283.1706 181.378082 
L 284.464145 125.039901 
L 284.753291 116.712901 
L 285.042436 102.592413 
L 285.301145 95.69103 
L 286.001182 76.451731 
L 286.0164 76.804962 
L 286.092491 76.171516 
L 286.229455 74.279045 
L 286.381636 69.742854 
L 286.549036 65.546576 
L 286.914273 56.549702 
L 286.959927 57.336449 
L 286.990364 57.162314 
L 287.127327 59.642672 
L 287.142545 59.774646 
L 287.309945 54.67896 
L 287.599091 48.812922 
L 287.736055 51.690267 
L 287.827364 52.521674 
L 287.903455 51.352174 
L 287.933891 51.986542 
L 287.979545 52.108574 
L 288.131727 47.95635 
L 288.146945 48.30378 
L 288.207818 47.682688 
L 288.238255 48.102985 
L 288.283909 48.032306 
L 288.36 49.279721 
L 288.405655 48.789391 
L 288.512182 49.041633 
L 288.557836 48.503597 
L 288.618709 48.65805 
L 288.664364 48.7895 
L 288.816545 50.148572 
L 288.907855 49.256821 
L 288.938291 49.284292 
L 289.044818 49.648536 
L 289.227436 51.56315 
L 289.333964 53.988342 
L 290.034 70.662434 
L 291.753655 143.40163 
L 292.012364 152.535875 
L 292.027582 152.46696 
L 292.240636 158.60661 
L 292.529782 174.125143 
L 292.560218 174.083019 
L 292.773273 179.83148 
L 292.8798 183.534832 
L 293.534182 204.010909 
L 293.5494 204.042362 
L 293.838545 209.442879 
L 293.853764 209.195905 
L 293.929855 209.605427 
L 293.990727 210.023879 
L 294.188564 218.98716 
L 294.295091 221.92962 
L 294.355964 221.809476 
L 294.371182 222.020999 
L 294.3864 221.455111 
L 294.447273 221.547252 
L 294.523364 220.444541 
L 294.538582 221.964789 
L 294.705982 222.837832 
L 294.827727 223.702973 
L 294.979909 226.452051 
L 294.995127 226.065654 
L 295.056 226.435534 
L 295.238618 231.123514 
L 295.421236 232.834525 
L 295.436455 232.92609 
L 295.451673 232.537959 
L 295.482109 232.539373 
L 295.512545 232.536432 
L 295.664727 231.709257 
L 295.801691 232.709783 
L 295.938655 232.772961 
L 295.953873 232.7613 
L 295.969091 232.74598 
L 296.121273 230.933682 
L 296.136491 231.633805 
L 296.2278 231.43436 
L 296.273455 231.320453 
L 296.425636 232.133953 
L 296.501727 231.997905 
L 296.516945 232.211465 
L 296.577818 232.147246 
L 296.73 229.847489 
L 296.745218 230.300831 
L 296.806091 229.714829 
L 296.836527 229.802897 
L 297.019145 226.66149 
L 297.369164 217.80358 
L 297.764836 206.003823 
L 298.160509 188.979777 
L 299.7432 125.64887 
L 300.428018 96.46765 
L 300.610636 89.449539 
L 300.641073 90.082137 
L 300.808473 85.833414 
L 301.112836 80.97942 
L 301.265018 76.040031 
L 301.752 62.441661 
L 301.828091 62.459369 
L 301.843309 62.554822 
L 301.888964 62.292413 
L 301.934618 61.46581 
L 302.512909 53.807553 
L 302.543345 54.966824 
L 302.665091 55.754944 
L 302.802055 53.323456 
L 303.502091 46.865371 
L 303.5934 47.378041 
L 303.654273 47.389626 
L 303.730364 47.718708 
L 303.776018 47.574869 
L 303.806455 47.61018 
L 303.882545 46.794092 
L 303.912982 47.643121 
L 304.080382 49.244216 
L 304.156473 51.042377 
L 304.567364 56.665731 
L 304.582582 56.617634 
L 304.7652 59.858818 
L 305.176091 70.769403 
L 305.678291 86.995435 
L 306.043527 101.503951 
L 306.971836 140.608043 
L 308.295818 190.890273 
L 308.311036 190.867251 
L 308.539309 198.29962 
L 308.9502 208.557057 
L 309.893727 225.823222 
L 309.908945 225.172409 
L 310.000255 225.537586 
L 310.137218 226.510827 
L 310.502455 230.35497 
L 310.6242 229.027019 
L 310.654636 228.938147 
L 310.837255 231.977061 
L 311.141618 235.107482 
L 311.187273 235.472534 
L 311.202491 234.749548 
L 311.263364 234.60219 
L 311.278582 234.848709 
L 311.339455 234.695754 
L 311.491636 232.054604 
L 311.643818 230.011661 
L 311.689473 230.895752 
L 311.826436 229.972603 
L 312.054709 227.12638 
L 312.724309 214.353404 
L 313.089545 203.09098 
L 313.393909 188.876333 
L 313.500436 185.121772 
L 315.828818 92.747801 
L 315.874473 91.915664 
L 316.117964 83.525294 
L 316.285364 77.085793 
L 316.376673 77.183504 
L 316.620164 73.092714 
L 317.350636 58.314824 
L 317.365855 58.613466 
L 317.426727 57.908113 
L 317.563691 55.2179 
L 317.578909 55.040797 
L 317.594127 55.967265 
L 317.655 56.075661 
L 317.8224 55.042706 
L 317.959364 53.401706 
L 318.172418 50.485893 
L 318.339818 47.760919 
L 318.415909 47.973365 
L 318.552873 48.856274 
L 318.644182 49.48039 
L 318.720273 50.011531 
L 318.750709 49.556351 
L 318.796364 49.429274 
L 318.948545 46.766404 
L 318.963764 47.255173 
L 319.055073 46.635314 
L 319.100727 46.411436 
L 319.252909 48.812625 
L 319.329 49.469891 
L 319.481182 53.107432 
L 319.4964 52.308547 
L 319.770327 56.226512 
L 320.211655 66.302691 
L 321.261709 100.474087 
L 322.113927 135.391148 
L 322.3422 145.116584 
L 323.194418 181.211275 
L 323.209636 181.726718 
L 323.224855 180.555426 
L 323.300945 181.294858 
L 323.437909 183.236497 
L 323.879236 204.084547 
L 323.970545 204.726483 
L 323.909673 203.893579 
L 323.985764 204.145941 
L 324.046636 204.22871 
L 324.274909 208.802646 
L 324.487964 217.840559 
L 324.579273 219.205703 
L 324.594491 217.836563 
L 324.670582 217.030169 
L 324.807545 215.880012 
L 324.959727 219.716801 
L 325.538018 228.971377 
L 325.796727 231.802875 
L 325.811945 231.145179 
L 325.872818 231.211798 
L 325.948909 230.806748 
L 325.979345 231.214346 
L 326.025 231.294161 
L 326.222836 233.466542 
L 326.253273 233.84811 
L 326.268491 233.456444 
L 326.3598 233.792992 
L 326.405455 233.867332 
L 326.466327 233.77863 
L 326.481545 233.772907 
L 326.496764 233.980922 
L 326.588073 233.736694 
L 326.664164 233.054621 
L 326.740255 231.755806 
L 327.090273 227.083983 
L 327.151145 227.764247 
L 327.409855 226.09263 
L 327.562036 222.282501 
L 328.3686 197.943131 
L 328.7034 188.405737 
L 329.068636 176.231244 
L 329.312127 162.585434 
L 330.133909 125.224615 
L 330.149127 125.602398 
L 330.194782 124.523835 
L 330.346964 118.523952 
L 331.016564 94.53295 
L 331.427455 81.155906 
L 331.731818 74.546666 
L 331.747036 74.952745 
L 331.807909 74.437866 
L 331.838345 74.622555 
L 331.884 74.487672 
L 332.416636 61.523244 
L 332.431855 61.613842 
L 332.462291 61.240667 
L 332.492727 60.874416 
L 332.523164 61.406906 
L 332.5536 61.407591 
L 332.644909 61.351046 
L 332.721 61.669248 
L 332.918836 55.353794 
L 333.162327 52.027073 
L 333.177545 51.859693 
L 333.192764 52.783076 
L 333.253636 53.062876 
L 333.405818 50.313644 
L 333.558 47.974862 
L 333.573218 48.308123 
L 333.664527 48.062676 
L 333.710182 48.008745 
L 333.862364 50.274885 
L 333.999327 48.165294 
L 334.212382 45.66516 
L 334.242818 45.337424 
L 334.273255 46.068714 
L 334.318909 46.110779 
L 334.471091 49.872626 
L 334.501527 50.211066 
L 334.927636 56.211529 
L 335.049382 57.299512 
L 335.429836 64.28349 
L 335.871164 76.767849 
L 336.495109 103.009907 
L 336.860345 116.223414 
L 337.103836 127.834629 
L 337.666909 151.943494 
L 337.682127 150.863867 
L 337.758218 152.612986 
L 337.9104 158.790301 
L 338.549564 185.575009 
L 339.112636 201.96554 
L 339.143073 201.33436 
L 339.264818 204.592683 
L 339.508309 211.147063 
L 339.721364 215.891979 
L 339.812673 215.771725 
L 339.964855 216.993946 
L 340.406182 226.387514 
L 340.527927 225.020348 
L 340.558364 225.078287 
L 340.634455 226.607443 
L 340.695327 226.576973 
L 340.710545 226.65663 
L 340.786636 225.578594 
L 340.801855 226.985099 
L 341.395364 235.421941 
L 341.410582 234.785548 
L 341.471455 234.874718 
L 341.608418 234.119946 
L 341.867127 233.137574 
L 342.004091 231.884293 
L 342.156273 230.062768 
L 342.171491 230.770044 
L 342.2628 230.450048 
L 342.384545 229.028176 
L 342.612818 224.254139 
L 342.628036 224.670757 
L 342.688909 223.738384 
L 342.917182 220.106994 
L 343.160673 213.449176 
L 343.632436 199.123456 
L 344.195509 174.711548 
L 344.591182 158.078979 
L 344.6064 158.146961 
L 344.804236 148.251642 
L 345.123818 136.019985 
L 345.139036 136.103023 
L 345.428182 125.517017 
L 345.580364 115.663041 
L 345.6108 115.671352 
L 346.554327 85.051031 
L 346.721727 81.198659 
L 346.934782 73.241829 
L 347.102182 69.387861 
L 347.163055 69.729388 
L 347.178273 69.644709 
L 347.193491 69.917512 
L 347.254364 69.785346 
L 347.330455 70.072733 
L 347.528291 64.818789 
L 348.015273 54.156757 
L 348.030491 54.886303 
L 348.091364 54.908956 
L 348.243545 52.415846 
L 348.319636 51.520269 
L 348.334855 52.521271 
L 348.624 53.92474 
L 348.654436 53.498138 
L 348.700091 53.420871 
L 348.852273 49.280314 
L 348.867491 49.439382 
L 348.913145 48.94345 
L 349.004455 47.846325 
L 349.080545 48.246652 
L 349.156636 48.430965 
L 349.232727 48.928769 
L 349.278382 48.678003 
L 349.308818 48.750098 
L 349.461 50.648187 
L 349.552309 50.195747 
L 349.537091 50.723176 
L 349.597964 50.211982 
L 349.613182 50.225204 
L 349.689273 49.834237 
L 349.719709 50.179404 
L 349.765364 50.346441 
L 349.932764 52.783787 
L 350.069727 53.676183 
L 350.084945 53.225012 
L 350.145818 53.774247 
L 350.176255 53.550301 
L 350.282782 54.753331 
L 350.419745 57.30065 
L 350.648018 63.711024 
L 351.515455 91.637337 
L 351.850255 108.304252 
L 352.276364 125.081628 
L 352.504636 134.302427 
L 352.809 149.296781 
L 352.824218 149.058618 
L 352.854655 149.998587 
L 353.265545 164.911815 
L 353.4786 176.386844 
L 353.874273 189.859622 
L 354.559091 205.278354 
L 354.589527 205.049896 
L 354.711273 206.13719 
L 354.878673 212.817605 
L 355.091727 216.576373 
L 355.106945 216.143309 
L 355.183036 216.824079 
L 355.396091 219.117225 
L 355.578709 225.865164 
L 355.700455 229.873705 
L 355.776545 229.163134 
L 355.837418 229.510868 
L 355.852636 229.613059 
L 355.928727 227.210342 
L 355.974382 227.484422 
L 356.004818 227.294769 
L 356.157 229.790751 
L 356.385273 231.489093 
L 356.430927 231.141922 
L 356.461364 231.138336 
L 356.689636 233.083299 
L 356.8266 231.787781 
L 356.917909 231.260716 
L 356.963564 231.513407 
L 356.994 231.418663 
L 357.130964 230.124971 
L 357.146182 230.022654 
L 357.267927 231.675375 
L 357.3288 232.376006 
L 357.374455 232.601828 
L 357.450545 232.483863 
L 357.6636 229.552884 
L 357.907091 225.564956 
L 359.444127 175.447474 
L 360.037636 149.094493 
L 360.052855 149.189355 
L 360.068073 148.719059 
L 360.494182 132.572032 
L 360.6768 120.822324 
L 361.026818 105.985843 
L 361.042036 106.662313 
L 361.102909 105.333789 
L 361.452927 92.509847 
L 361.802945 85.023289 
L 361.970345 81.875589 
L 362.1834 72.248666 
L 362.396455 66.6505 
L 362.472545 68.298113 
L 362.5182 67.860411 
L 362.548636 67.801151 
L 362.716036 64.931378 
L 362.853 61.687477 
L 363.081273 56.912999 
L 363.172582 57.802436 
L 363.203018 57.793241 
L 363.233455 57.780869 
L 363.309545 58.595516 
L 363.3552 58.237147 
L 363.385636 58.236799 
L 363.583473 51.958035 
L 363.766091 49.052365 
L 363.887836 49.930908 
L 363.918273 49.96474 
L 363.994364 48.924762 
L 364.009582 50.312006 
L 364.070455 51.073606 
L 364.100891 50.104949 
L 364.146545 50.054594 
L 364.298727 48.559417 
L 364.450909 49.926603 
L 364.572655 48.405338 
L 364.603091 48.339949 
L 364.740055 49.985437 
L 364.770491 49.953302 
L 364.907455 50.974144 
L 365.0292 49.808247 
L 365.044418 49.811327 
L 365.059636 49.822444 
L 365.364 56.03017 
L 365.379218 55.906837 
L 365.409655 56.491998 
L 366.261873 75.438386 
L 366.581455 89.233042 
L 366.961909 105.756035 
L 366.977127 105.138516 
L 367.646727 131.033224 
L 367.844564 141.129297 
L 368.742436 176.329557 
L 369.7164 204.672106 
L 369.929455 209.522465 
L 370.005545 213.778964 
L 370.066418 213.721406 
L 370.309909 218.969985 
L 370.370782 217.449718 
L 370.386 217.339328 
L 370.538182 220.210799 
L 370.5534 220.173934 
L 370.675145 222.918527 
L 370.903418 225.546177 
L 370.933855 225.491415 
L 371.101255 226.318695 
L 371.146909 226.45246 
L 371.299091 230.622096 
L 371.359964 231.41511 
L 371.3904 231.408045 
L 371.512145 232.095179 
L 371.527364 232.176918 
L 371.542582 231.71218 
L 371.603455 231.699307 
L 371.679545 230.866874 
L 371.7252 231.316467 
L 371.755636 231.316143 
L 371.8926 232.99966 
L 371.907818 233.082317 
L 371.983909 232.024397 
L 372.029564 232.150926 
L 372.06 232.099682 
L 372.212182 233.493639 
L 372.288273 232.588152 
L 372.318709 233.424265 
L 372.364364 233.51913 
L 372.546982 230.123467 
L 372.592636 229.201056 
L 372.607855 230.251491 
L 372.668727 229.749034 
L 372.683945 230.017507 
L 372.744818 229.672333 
L 372.775255 229.817564 
L 372.957873 228.410621 
L 373.247018 223.730172 
L 373.581818 214.447422 
L 373.581818 214.447422 
" clip-path="url(#p7aa5a0a03c)" style="fill: none; stroke: #000000; stroke-width: 0.5; stroke-linecap: square"/>
   </g>
   <g id="patch_3">
    <path d="M 54 252 
L 54 34.56 
" style="fill: none; stroke: #000000; stroke-width: 0.8; stroke-linejoin: miter; stroke-linecap: square"/>
   </g>
   <g id="patch_4">
    <path d="M 388.8 252 
L 388.8 34.56 
" style="fill: none; stroke: #000000; stroke-width: 0.8; stroke-linejoin: miter; stroke-linecap: square"/>
   </g>
   <g id="patch_5">
    <path d="M 54 252 
L 388.8 252 
" style="fill: none; stroke: #000000; stroke-width: 0.8; stroke-linejoin: miter; stroke-linecap: square"/>
   </g>
   <g id="patch_6">
    <path d="M 54 34.56 
L 388.8 34.56 
" style="fill: none; stroke: #000000; stroke-width: 0.8; stroke-linejoin: miter; stroke-linecap: square"/>
   </g>
   <g id="text_17">
    <!-- $\omega_{m}$ (rad/s) - (JUKF) -->
    <g transform="translate(175.75 28.56) scale(0.11 -0.11)">
     <defs>
      <path id="TimesNewRomanPSMT-4a" d="M 638 4122 
L 638 4238 
L 2453 4238 
L 2453 4122 
L 2300 4122 
Q 2041 4122 1922 3969 
Q 1847 3869 1847 3488 
L 1847 1416 
Q 1847 938 1742 641 
Q 1638 344 1381 123 
Q 1125 -97 763 -97 
Q 469 -97 300 48 
Q 131 194 131 381 
Q 131 534 209 613 
Q 313 709 450 709 
Q 550 709 629 643 
Q 709 578 831 294 
Q 903 125 1016 125 
Q 1100 125 1173 228 
Q 1247 331 1247 594 
L 1247 3488 
Q 1247 3809 1206 3913 
Q 1175 3991 1075 4047 
Q 941 4122 791 4122 
L 638 4122 
z
" transform="scale(0.015625)"/>
      <path id="TimesNewRomanPSMT-55" d="M 3053 4122 
L 3053 4238 
L 4553 4238 
L 4553 4122 
L 4394 4122 
Q 4144 4122 4009 3913 
Q 3944 3816 3944 3463 
L 3944 1744 
Q 3944 1106 3817 754 
Q 3691 403 3320 151 
Q 2950 -100 2313 -100 
Q 1619 -100 1259 140 
Q 900 381 750 788 
Q 650 1066 650 1831 
L 650 3488 
Q 650 3878 542 4000 
Q 434 4122 194 4122 
L 34 4122 
L 34 4238 
L 1866 4238 
L 1866 4122 
L 1703 4122 
Q 1441 4122 1328 3956 
Q 1250 3844 1250 3488 
L 1250 1641 
Q 1250 1394 1295 1075 
Q 1341 756 1459 578 
Q 1578 400 1801 284 
Q 2025 169 2350 169 
Q 2766 169 3094 350 
Q 3422 531 3542 814 
Q 3663 1097 3663 1772 
L 3663 3488 
Q 3663 3884 3575 3984 
Q 3453 4122 3213 4122 
L 3053 4122 
z
" transform="scale(0.015625)"/>
      <path id="TimesNewRomanPSMT-4b" d="M 1913 2350 
L 3475 797 
Q 3859 413 4131 273 
Q 4403 134 4675 116 
L 4675 0 
L 2659 0 
L 2659 116 
Q 2841 116 2920 177 
Q 3000 238 3000 313 
Q 3000 388 2970 447 
Q 2941 506 2775 669 
L 1313 2116 
L 1313 750 
Q 1313 428 1353 325 
Q 1384 247 1484 191 
Q 1619 116 1769 116 
L 1913 116 
L 1913 0 
L 106 0 
L 106 116 
L 256 116 
Q 519 116 638 269 
Q 713 369 713 750 
L 713 3488 
Q 713 3809 672 3916 
Q 641 3991 544 4047 
Q 406 4122 256 4122 
L 106 4122 
L 106 4238 
L 1913 4238 
L 1913 4122 
L 1769 4122 
Q 1622 4122 1484 4050 
Q 1388 4000 1350 3900 
Q 1313 3800 1313 3488 
L 1313 2191 
Q 1375 2250 1741 2588 
Q 2669 3438 2863 3722 
Q 2947 3847 2947 3941 
Q 2947 4013 2881 4067 
Q 2816 4122 2659 4122 
L 2563 4122 
L 2563 4238 
L 4119 4238 
L 4119 4122 
Q 3981 4119 3868 4084 
Q 3756 4050 3593 3951 
Q 3431 3853 3194 3634 
Q 3125 3572 2559 2994 
L 1913 2350 
z
" transform="scale(0.015625)"/>
      <path id="TimesNewRomanPSMT-46" d="M 1309 4006 
L 1309 2341 
L 2081 2341 
Q 2347 2341 2470 2458 
Q 2594 2575 2634 2922 
L 2750 2922 
L 2750 1488 
L 2634 1488 
Q 2631 1734 2570 1850 
Q 2509 1966 2401 2023 
Q 2294 2081 2081 2081 
L 1309 2081 
L 1309 750 
Q 1309 428 1350 325 
Q 1381 247 1481 191 
Q 1619 116 1769 116 
L 1922 116 
L 1922 0 
L 103 0 
L 103 116 
L 253 116 
Q 516 116 634 269 
Q 709 369 709 750 
L 709 3488 
Q 709 3809 669 3913 
Q 638 3991 541 4047 
Q 406 4122 253 4122 
L 103 4122 
L 103 4238 
L 3256 4238 
L 3297 3306 
L 3188 3306 
Q 3106 3603 2998 3742 
Q 2891 3881 2733 3943 
Q 2575 4006 2244 4006 
L 1309 4006 
z
" transform="scale(0.015625)"/>
     </defs>
     <use xlink:href="#DejaVuSans-Oblique-3c9" transform="translate(0 0.5625)"/>
     <use xlink:href="#DejaVuSans-Oblique-6d" transform="translate(83.740234 -15.84375) scale(0.7)"/>
     <use xlink:href="#TimesNewRomanPSMT-20" transform="translate(154.663086 0.5625)"/>
     <use xlink:href="#TimesNewRomanPSMT-28" transform="translate(179.663086 0.5625)"/>
     <use xlink:href="#TimesNewRomanPSMT-72" transform="translate(212.963867 0.5625)"/>
     <use xlink:href="#TimesNewRomanPSMT-61" transform="translate(246.264648 0.5625)"/>
     <use xlink:href="#TimesNewRomanPSMT-64" transform="translate(290.649414 0.5625)"/>
     <use xlink:href="#TimesNewRomanPSMT-2f" transform="translate(340.649414 0.5625)"/>
     <use xlink:href="#TimesNewRomanPSMT-73" transform="translate(368.432617 0.5625)"/>
     <use xlink:href="#TimesNewRomanPSMT-29" transform="translate(407.348633 0.5625)"/>
     <use xlink:href="#TimesNewRomanPSMT-20" transform="translate(440.649414 0.5625)"/>
     <use xlink:href="#TimesNewRomanPSMT-2d" transform="translate(465.649414 0.5625)"/>
     <use xlink:href="#TimesNewRomanPSMT-20" transform="translate(498.950195 0.5625)"/>
     <use xlink:href="#TimesNewRomanPSMT-28" transform="translate(523.950195 0.5625)"/>
     <use xlink:href="#TimesNewRomanPSMT-4a" transform="translate(557.250977 0.5625)"/>
     <use xlink:href="#TimesNewRomanPSMT-55" transform="translate(596.166992 0.5625)"/>
     <use xlink:href="#TimesNewRomanPSMT-4b" transform="translate(668.383789 0.5625)"/>
     <use xlink:href="#TimesNewRomanPSMT-46" transform="translate(740.600586 0.5625)"/>
     <use xlink:href="#TimesNewRomanPSMT-29" transform="translate(796.21582 0.5625)"/>
    </g>
   </g>
   <g id="legend_1">
    <g id="patch_7">
     <path d="M 334.3 152.119062 
L 381.8 152.119062 
Q 383.8 152.119062 383.8 150.119062 
L 383.8 136.440937 
Q 383.8 134.440937 381.8 134.440937 
L 334.3 134.440937 
Q 332.3 134.440937 332.3 136.440937 
L 332.3 150.119062 
Q 332.3 152.119062 334.3 152.119062 
z
" style="fill: #ffffff; opacity: 0.8; stroke: #cccccc; stroke-linejoin: miter"/>
    </g>
    <g id="line2d_30">
     <path d="M 336.3 142.539375 
L 346.3 142.539375 
L 356.3 142.539375 
" style="fill: none; stroke: #000000; stroke-width: 0.5; stroke-linecap: square"/>
    </g>
    <g id="text_18">
     <!-- $\omega_{m}$ -->
     <g transform="translate(364.3 146.039375) scale(0.1 -0.1)">
      <use xlink:href="#DejaVuSans-Oblique-3c9" transform="translate(0 0.3125)"/>
      <use xlink:href="#DejaVuSans-Oblique-6d" transform="translate(83.740234 -16.09375) scale(0.7)"/>
     </g>
    </g>
   </g>
  </g>
 </g>
 <defs>
  <clipPath id="p7aa5a0a03c">
   <rect x="54" y="34.56" width="334.8" height="217.44"/>
  </clipPath>
 </defs>
</svg>
