<?xml version="1.0" encoding="utf-8" standalone="no"?>
<!DOCTYPE svg PUBLIC "-//W3C//DTD SVG 1.1//EN"
  "http://www.w3.org/Graphics/SVG/1.1/DTD/svg11.dtd">
<svg xmlns:xlink="http://www.w3.org/1999/xlink" width="432pt" height="288pt" viewBox="0 0 432 288" xmlns="http://www.w3.org/2000/svg" version="1.1">
 <metadata>
  <rdf:RDF xmlns:dc="http://purl.org/dc/elements/1.1/" xmlns:cc="http://creativecommons.org/ns#" xmlns:rdf="http://www.w3.org/1999/02/22-rdf-syntax-ns#">
   <cc:Work>
    <dc:type rdf:resource="http://purl.org/dc/dcmitype/StillImage"/>
    <dc:date>2024-04-01T15:58:40.760106</dc:date>
    <dc:format>image/svg+xml</dc:format>
    <dc:creator>
     <cc:Agent>
      <dc:title>Matplotlib v3.8.3, https://matplotlib.org/</dc:title>
     </cc:Agent>
    </dc:creator>
   </cc:Work>
  </rdf:RDF>
 </metadata>
 <defs>
  <style type="text/css">*{stroke-linejoin: round; stroke-linecap: butt}</style>
 </defs>
 <g id="figure_1">
  <g id="patch_1">
   <path d="M 0 288 
L 432 288 
L 432 0 
L 0 0 
z
" style="fill: #ffffff"/>
  </g>
  <g id="axes_1">
   <g id="patch_2">
    <path d="M 54 252 
L 388.8 252 
L 388.8 34.56 
L 54 34.56 
z
" style="fill: #ffffff"/>
   </g>
   <g id="matplotlib.axis_1">
    <g id="xtick_1">
     <g id="line2d_1">
      <path d="M 69.218182 252 
L 69.218182 34.56 
" clip-path="url(#p81125a01d3)" style="fill: none; stroke: #b0b0b0; stroke-width: 0.2; stroke-linecap: square"/>
     </g>
     <g id="line2d_2">
      <defs>
       <path id="m18842a5f34" d="M 0 0 
L 0 3.5 
" style="stroke: #000000; stroke-width: 0.8"/>
      </defs>
      <g>
       <use xlink:href="#m18842a5f34" x="69.218182" y="252" style="stroke: #000000; stroke-width: 0.8"/>
      </g>
     </g>
     <g id="text_1">
      <!-- 0.0 -->
      <g transform="translate(60.471463 267.358281) scale(0.11 -0.11)">
       <defs>
        <path id="DejaVuSans-30" d="M 2034 4250 
Q 1547 4250 1301 3770 
Q 1056 3291 1056 2328 
Q 1056 1369 1301 889 
Q 1547 409 2034 409 
Q 2525 409 2770 889 
Q 3016 1369 3016 2328 
Q 3016 3291 2770 3770 
Q 2525 4250 2034 4250 
z
M 2034 4750 
Q 2819 4750 3233 4129 
Q 3647 3509 3647 2328 
Q 3647 1150 3233 529 
Q 2819 -91 2034 -91 
Q 1250 -91 836 529 
Q 422 1150 422 2328 
Q 422 3509 836 4129 
Q 1250 4750 2034 4750 
z
" transform="scale(0.015625)"/>
        <path id="DejaVuSans-2e" d="M 684 794 
L 1344 794 
L 1344 0 
L 684 0 
L 684 794 
z
" transform="scale(0.015625)"/>
       </defs>
       <use xlink:href="#DejaVuSans-30"/>
       <use xlink:href="#DejaVuSans-2e" x="63.623047"/>
       <use xlink:href="#DejaVuSans-30" x="95.410156"/>
      </g>
     </g>
    </g>
    <g id="xtick_2">
     <g id="line2d_3">
      <path d="M 107.263636 252 
L 107.263636 34.56 
" clip-path="url(#p81125a01d3)" style="fill: none; stroke: #b0b0b0; stroke-width: 0.2; stroke-linecap: square"/>
     </g>
     <g id="line2d_4">
      <g>
       <use xlink:href="#m18842a5f34" x="107.263636" y="252" style="stroke: #000000; stroke-width: 0.8"/>
      </g>
     </g>
     <g id="text_2">
      <!-- 2.5 -->
      <g transform="translate(98.516918 267.358281) scale(0.11 -0.11)">
       <defs>
        <path id="DejaVuSans-32" d="M 1228 531 
L 3431 531 
L 3431 0 
L 469 0 
L 469 531 
Q 828 903 1448 1529 
Q 2069 2156 2228 2338 
Q 2531 2678 2651 2914 
Q 2772 3150 2772 3378 
Q 2772 3750 2511 3984 
Q 2250 4219 1831 4219 
Q 1534 4219 1204 4116 
Q 875 4013 500 3803 
L 500 4441 
Q 881 4594 1212 4672 
Q 1544 4750 1819 4750 
Q 2544 4750 2975 4387 
Q 3406 4025 3406 3419 
Q 3406 3131 3298 2873 
Q 3191 2616 2906 2266 
Q 2828 2175 2409 1742 
Q 1991 1309 1228 531 
z
" transform="scale(0.015625)"/>
        <path id="DejaVuSans-35" d="M 691 4666 
L 3169 4666 
L 3169 4134 
L 1269 4134 
L 1269 2991 
Q 1406 3038 1543 3061 
Q 1681 3084 1819 3084 
Q 2600 3084 3056 2656 
Q 3513 2228 3513 1497 
Q 3513 744 3044 326 
Q 2575 -91 1722 -91 
Q 1428 -91 1123 -41 
Q 819 9 494 109 
L 494 744 
Q 775 591 1075 516 
Q 1375 441 1709 441 
Q 2250 441 2565 725 
Q 2881 1009 2881 1497 
Q 2881 1984 2565 2268 
Q 2250 2553 1709 2553 
Q 1456 2553 1204 2497 
Q 953 2441 691 2322 
L 691 4666 
z
" transform="scale(0.015625)"/>
       </defs>
       <use xlink:href="#DejaVuSans-32"/>
       <use xlink:href="#DejaVuSans-2e" x="63.623047"/>
       <use xlink:href="#DejaVuSans-35" x="95.410156"/>
      </g>
     </g>
    </g>
    <g id="xtick_3">
     <g id="line2d_5">
      <path d="M 145.309091 252 
L 145.309091 34.56 
" clip-path="url(#p81125a01d3)" style="fill: none; stroke: #b0b0b0; stroke-width: 0.2; stroke-linecap: square"/>
     </g>
     <g id="line2d_6">
      <g>
       <use xlink:href="#m18842a5f34" x="145.309091" y="252" style="stroke: #000000; stroke-width: 0.8"/>
      </g>
     </g>
     <g id="text_3">
      <!-- 5.0 -->
      <g transform="translate(136.562372 267.358281) scale(0.11 -0.11)">
       <use xlink:href="#DejaVuSans-35"/>
       <use xlink:href="#DejaVuSans-2e" x="63.623047"/>
       <use xlink:href="#DejaVuSans-30" x="95.410156"/>
      </g>
     </g>
    </g>
    <g id="xtick_4">
     <g id="line2d_7">
      <path d="M 183.354545 252 
L 183.354545 34.56 
" clip-path="url(#p81125a01d3)" style="fill: none; stroke: #b0b0b0; stroke-width: 0.2; stroke-linecap: square"/>
     </g>
     <g id="line2d_8">
      <g>
       <use xlink:href="#m18842a5f34" x="183.354545" y="252" style="stroke: #000000; stroke-width: 0.8"/>
      </g>
     </g>
     <g id="text_4">
      <!-- 7.5 -->
      <g transform="translate(174.607827 267.358281) scale(0.11 -0.11)">
       <defs>
        <path id="DejaVuSans-37" d="M 525 4666 
L 3525 4666 
L 3525 4397 
L 1831 0 
L 1172 0 
L 2766 4134 
L 525 4134 
L 525 4666 
z
" transform="scale(0.015625)"/>
       </defs>
       <use xlink:href="#DejaVuSans-37"/>
       <use xlink:href="#DejaVuSans-2e" x="63.623047"/>
       <use xlink:href="#DejaVuSans-35" x="95.410156"/>
      </g>
     </g>
    </g>
    <g id="xtick_5">
     <g id="line2d_9">
      <path d="M 221.4 252 
L 221.4 34.56 
" clip-path="url(#p81125a01d3)" style="fill: none; stroke: #b0b0b0; stroke-width: 0.2; stroke-linecap: square"/>
     </g>
     <g id="line2d_10">
      <g>
       <use xlink:href="#m18842a5f34" x="221.4" y="252" style="stroke: #000000; stroke-width: 0.8"/>
      </g>
     </g>
     <g id="text_5">
      <!-- 10.0 -->
      <g transform="translate(209.153906 267.358281) scale(0.11 -0.11)">
       <defs>
        <path id="DejaVuSans-31" d="M 794 531 
L 1825 531 
L 1825 4091 
L 703 3866 
L 703 4441 
L 1819 4666 
L 2450 4666 
L 2450 531 
L 3481 531 
L 3481 0 
L 794 0 
L 794 531 
z
" transform="scale(0.015625)"/>
       </defs>
       <use xlink:href="#DejaVuSans-31"/>
       <use xlink:href="#DejaVuSans-30" x="63.623047"/>
       <use xlink:href="#DejaVuSans-2e" x="127.246094"/>
       <use xlink:href="#DejaVuSans-30" x="159.033203"/>
      </g>
     </g>
    </g>
    <g id="xtick_6">
     <g id="line2d_11">
      <path d="M 259.445455 252 
L 259.445455 34.56 
" clip-path="url(#p81125a01d3)" style="fill: none; stroke: #b0b0b0; stroke-width: 0.2; stroke-linecap: square"/>
     </g>
     <g id="line2d_12">
      <g>
       <use xlink:href="#m18842a5f34" x="259.445455" y="252" style="stroke: #000000; stroke-width: 0.8"/>
      </g>
     </g>
     <g id="text_6">
      <!-- 12.5 -->
      <g transform="translate(247.199361 267.358281) scale(0.11 -0.11)">
       <use xlink:href="#DejaVuSans-31"/>
       <use xlink:href="#DejaVuSans-32" x="63.623047"/>
       <use xlink:href="#DejaVuSans-2e" x="127.246094"/>
       <use xlink:href="#DejaVuSans-35" x="159.033203"/>
      </g>
     </g>
    </g>
    <g id="xtick_7">
     <g id="line2d_13">
      <path d="M 297.490909 252 
L 297.490909 34.56 
" clip-path="url(#p81125a01d3)" style="fill: none; stroke: #b0b0b0; stroke-width: 0.2; stroke-linecap: square"/>
     </g>
     <g id="line2d_14">
      <g>
       <use xlink:href="#m18842a5f34" x="297.490909" y="252" style="stroke: #000000; stroke-width: 0.8"/>
      </g>
     </g>
     <g id="text_7">
      <!-- 15.0 -->
      <g transform="translate(285.244815 267.358281) scale(0.11 -0.11)">
       <use xlink:href="#DejaVuSans-31"/>
       <use xlink:href="#DejaVuSans-35" x="63.623047"/>
       <use xlink:href="#DejaVuSans-2e" x="127.246094"/>
       <use xlink:href="#DejaVuSans-30" x="159.033203"/>
      </g>
     </g>
    </g>
    <g id="xtick_8">
     <g id="line2d_15">
      <path d="M 335.536364 252 
L 335.536364 34.56 
" clip-path="url(#p81125a01d3)" style="fill: none; stroke: #b0b0b0; stroke-width: 0.2; stroke-linecap: square"/>
     </g>
     <g id="line2d_16">
      <g>
       <use xlink:href="#m18842a5f34" x="335.536364" y="252" style="stroke: #000000; stroke-width: 0.8"/>
      </g>
     </g>
     <g id="text_8">
      <!-- 17.5 -->
      <g transform="translate(323.29027 267.358281) scale(0.11 -0.11)">
       <use xlink:href="#DejaVuSans-31"/>
       <use xlink:href="#DejaVuSans-37" x="63.623047"/>
       <use xlink:href="#DejaVuSans-2e" x="127.246094"/>
       <use xlink:href="#DejaVuSans-35" x="159.033203"/>
      </g>
     </g>
    </g>
    <g id="xtick_9">
     <g id="line2d_17">
      <path d="M 373.581818 252 
L 373.581818 34.56 
" clip-path="url(#p81125a01d3)" style="fill: none; stroke: #b0b0b0; stroke-width: 0.2; stroke-linecap: square"/>
     </g>
     <g id="line2d_18">
      <g>
       <use xlink:href="#m18842a5f34" x="373.581818" y="252" style="stroke: #000000; stroke-width: 0.8"/>
      </g>
     </g>
     <g id="text_9">
      <!-- 20.0 -->
      <g transform="translate(361.335724 267.358281) scale(0.11 -0.11)">
       <use xlink:href="#DejaVuSans-32"/>
       <use xlink:href="#DejaVuSans-30" x="63.623047"/>
       <use xlink:href="#DejaVuSans-2e" x="127.246094"/>
       <use xlink:href="#DejaVuSans-30" x="159.033203"/>
      </g>
     </g>
    </g>
    <g id="text_10">
     <!-- Time (s) -->
     <g transform="translate(202.807422 281.284063) scale(0.11 -0.11)">
      <defs>
       <path id="TimesNewRomanPSMT-54" d="M 3703 4238 
L 3750 3244 
L 3631 3244 
Q 3597 3506 3538 3619 
Q 3441 3800 3280 3886 
Q 3119 3972 2856 3972 
L 2259 3972 
L 2259 734 
Q 2259 344 2344 247 
Q 2463 116 2709 116 
L 2856 116 
L 2856 0 
L 1059 0 
L 1059 116 
L 1209 116 
Q 1478 116 1591 278 
Q 1659 378 1659 734 
L 1659 3972 
L 1150 3972 
Q 853 3972 728 3928 
Q 566 3869 450 3700 
Q 334 3531 313 3244 
L 194 3244 
L 244 4238 
L 3703 4238 
z
" transform="scale(0.015625)"/>
       <path id="TimesNewRomanPSMT-69" d="M 928 4444 
Q 1059 4444 1151 4351 
Q 1244 4259 1244 4128 
Q 1244 3997 1151 3903 
Q 1059 3809 928 3809 
Q 797 3809 703 3903 
Q 609 3997 609 4128 
Q 609 4259 701 4351 
Q 794 4444 928 4444 
z
M 1188 2947 
L 1188 647 
Q 1188 378 1227 289 
Q 1266 200 1342 156 
Q 1419 113 1622 113 
L 1622 0 
L 231 0 
L 231 113 
Q 441 113 512 153 
Q 584 194 626 287 
Q 669 381 669 647 
L 669 1750 
Q 669 2216 641 2353 
Q 619 2453 572 2492 
Q 525 2531 444 2531 
Q 356 2531 231 2484 
L 188 2597 
L 1050 2947 
L 1188 2947 
z
" transform="scale(0.015625)"/>
       <path id="TimesNewRomanPSMT-6d" d="M 1050 2338 
Q 1363 2650 1419 2697 
Q 1559 2816 1721 2881 
Q 1884 2947 2044 2947 
Q 2313 2947 2506 2790 
Q 2700 2634 2766 2338 
Q 3088 2713 3309 2830 
Q 3531 2947 3766 2947 
Q 3994 2947 4170 2830 
Q 4347 2713 4450 2447 
Q 4519 2266 4519 1878 
L 4519 647 
Q 4519 378 4559 278 
Q 4591 209 4675 161 
Q 4759 113 4950 113 
L 4950 0 
L 3538 0 
L 3538 113 
L 3597 113 
Q 3781 113 3884 184 
Q 3956 234 3988 344 
Q 4000 397 4000 647 
L 4000 1878 
Q 4000 2228 3916 2372 
Q 3794 2572 3525 2572 
Q 3359 2572 3192 2489 
Q 3025 2406 2788 2181 
L 2781 2147 
L 2788 2013 
L 2788 647 
Q 2788 353 2820 281 
Q 2853 209 2943 161 
Q 3034 113 3253 113 
L 3253 0 
L 1806 0 
L 1806 113 
Q 2044 113 2133 169 
Q 2222 225 2256 338 
Q 2272 391 2272 647 
L 2272 1878 
Q 2272 2228 2169 2381 
Q 2031 2581 1784 2581 
Q 1616 2581 1450 2491 
Q 1191 2353 1050 2181 
L 1050 647 
Q 1050 366 1089 281 
Q 1128 197 1204 155 
Q 1281 113 1516 113 
L 1516 0 
L 100 0 
L 100 113 
Q 297 113 375 155 
Q 453 197 493 289 
Q 534 381 534 647 
L 534 1741 
Q 534 2213 506 2350 
Q 484 2453 437 2492 
Q 391 2531 309 2531 
Q 222 2531 100 2484 
L 53 2597 
L 916 2947 
L 1050 2947 
L 1050 2338 
z
" transform="scale(0.015625)"/>
       <path id="TimesNewRomanPSMT-65" d="M 681 1784 
Q 678 1147 991 784 
Q 1303 422 1725 422 
Q 2006 422 2214 576 
Q 2422 731 2563 1106 
L 2659 1044 
Q 2594 616 2278 264 
Q 1963 -88 1488 -88 
Q 972 -88 605 314 
Q 238 716 238 1394 
Q 238 2128 614 2539 
Q 991 2950 1559 2950 
Q 2041 2950 2350 2633 
Q 2659 2316 2659 1784 
L 681 1784 
z
M 681 1966 
L 2006 1966 
Q 1991 2241 1941 2353 
Q 1863 2528 1708 2628 
Q 1553 2728 1384 2728 
Q 1125 2728 920 2526 
Q 716 2325 681 1966 
z
" transform="scale(0.015625)"/>
       <path id="TimesNewRomanPSMT-20" transform="scale(0.015625)"/>
       <path id="TimesNewRomanPSMT-28" d="M 1988 -1253 
L 1988 -1369 
Q 1516 -1131 1200 -813 
Q 750 -359 506 256 
Q 263 872 263 1534 
Q 263 2503 741 3301 
Q 1219 4100 1988 4444 
L 1988 4313 
Q 1603 4100 1356 3731 
Q 1109 3363 987 2797 
Q 866 2231 866 1616 
Q 866 947 969 400 
Q 1050 -31 1165 -292 
Q 1281 -553 1476 -793 
Q 1672 -1034 1988 -1253 
z
" transform="scale(0.015625)"/>
       <path id="TimesNewRomanPSMT-73" d="M 2050 2947 
L 2050 1972 
L 1947 1972 
Q 1828 2431 1642 2597 
Q 1456 2763 1169 2763 
Q 950 2763 815 2647 
Q 681 2531 681 2391 
Q 681 2216 781 2091 
Q 878 1963 1175 1819 
L 1631 1597 
Q 2266 1288 2266 781 
Q 2266 391 1970 151 
Q 1675 -88 1309 -88 
Q 1047 -88 709 6 
Q 606 38 541 38 
Q 469 38 428 -44 
L 325 -44 
L 325 978 
L 428 978 
Q 516 541 762 319 
Q 1009 97 1316 97 
Q 1531 97 1667 223 
Q 1803 350 1803 528 
Q 1803 744 1651 891 
Q 1500 1038 1047 1263 
Q 594 1488 453 1669 
Q 313 1847 313 2119 
Q 313 2472 555 2709 
Q 797 2947 1181 2947 
Q 1350 2947 1591 2875 
Q 1750 2828 1803 2828 
Q 1853 2828 1881 2850 
Q 1909 2872 1947 2947 
L 2050 2947 
z
" transform="scale(0.015625)"/>
       <path id="TimesNewRomanPSMT-29" d="M 144 4313 
L 144 4444 
Q 619 4209 934 3891 
Q 1381 3434 1625 2820 
Q 1869 2206 1869 1541 
Q 1869 572 1392 -226 
Q 916 -1025 144 -1369 
L 144 -1253 
Q 528 -1038 776 -670 
Q 1025 -303 1145 264 
Q 1266 831 1266 1447 
Q 1266 2113 1163 2663 
Q 1084 3094 967 3353 
Q 850 3613 656 3853 
Q 463 4094 144 4313 
z
" transform="scale(0.015625)"/>
      </defs>
      <use xlink:href="#TimesNewRomanPSMT-54"/>
      <use xlink:href="#TimesNewRomanPSMT-69" x="57.583984"/>
      <use xlink:href="#TimesNewRomanPSMT-6d" x="85.367188"/>
      <use xlink:href="#TimesNewRomanPSMT-65" x="163.150391"/>
      <use xlink:href="#TimesNewRomanPSMT-20" x="207.535156"/>
      <use xlink:href="#TimesNewRomanPSMT-28" x="232.535156"/>
      <use xlink:href="#TimesNewRomanPSMT-73" x="265.835938"/>
      <use xlink:href="#TimesNewRomanPSMT-29" x="304.751953"/>
     </g>
    </g>
   </g>
   <g id="matplotlib.axis_2">
    <g id="ytick_1">
     <g id="line2d_19">
      <path d="M 54 251.923075 
L 388.8 251.923075 
" clip-path="url(#p81125a01d3)" style="fill: none; stroke: #b0b0b0; stroke-width: 0.2; stroke-linecap: square"/>
     </g>
     <g id="line2d_20">
      <defs>
       <path id="ma590b547e7" d="M 0 0 
L -3.5 0 
" style="stroke: #000000; stroke-width: 0.8"/>
      </defs>
      <g>
       <use xlink:href="#ma590b547e7" x="54" y="251.923075" style="stroke: #000000; stroke-width: 0.8"/>
      </g>
     </g>
     <g id="text_11">
      <!-- −20 -->
      <g transform="translate(23.784844 256.102215) scale(0.11 -0.11)">
       <defs>
        <path id="DejaVuSans-2212" d="M 678 2272 
L 4684 2272 
L 4684 1741 
L 678 1741 
L 678 2272 
z
" transform="scale(0.015625)"/>
       </defs>
       <use xlink:href="#DejaVuSans-2212"/>
       <use xlink:href="#DejaVuSans-32" x="83.789062"/>
       <use xlink:href="#DejaVuSans-30" x="147.412109"/>
      </g>
     </g>
    </g>
    <g id="ytick_2">
     <g id="line2d_21">
      <path d="M 54 224.682974 
L 388.8 224.682974 
" clip-path="url(#p81125a01d3)" style="fill: none; stroke: #b0b0b0; stroke-width: 0.2; stroke-linecap: square"/>
     </g>
     <g id="line2d_22">
      <g>
       <use xlink:href="#ma590b547e7" x="54" y="224.682974" style="stroke: #000000; stroke-width: 0.8"/>
      </g>
     </g>
     <g id="text_12">
      <!-- −15 -->
      <g transform="translate(23.784844 228.862114) scale(0.11 -0.11)">
       <use xlink:href="#DejaVuSans-2212"/>
       <use xlink:href="#DejaVuSans-31" x="83.789062"/>
       <use xlink:href="#DejaVuSans-35" x="147.412109"/>
      </g>
     </g>
    </g>
    <g id="ytick_3">
     <g id="line2d_23">
      <path d="M 54 197.442873 
L 388.8 197.442873 
" clip-path="url(#p81125a01d3)" style="fill: none; stroke: #b0b0b0; stroke-width: 0.2; stroke-linecap: square"/>
     </g>
     <g id="line2d_24">
      <g>
       <use xlink:href="#ma590b547e7" x="54" y="197.442873" style="stroke: #000000; stroke-width: 0.8"/>
      </g>
     </g>
     <g id="text_13">
      <!-- −10 -->
      <g transform="translate(23.784844 201.622013) scale(0.11 -0.11)">
       <use xlink:href="#DejaVuSans-2212"/>
       <use xlink:href="#DejaVuSans-31" x="83.789062"/>
       <use xlink:href="#DejaVuSans-30" x="147.412109"/>
      </g>
     </g>
    </g>
    <g id="ytick_4">
     <g id="line2d_25">
      <path d="M 54 170.202772 
L 388.8 170.202772 
" clip-path="url(#p81125a01d3)" style="fill: none; stroke: #b0b0b0; stroke-width: 0.2; stroke-linecap: square"/>
     </g>
     <g id="line2d_26">
      <g>
       <use xlink:href="#ma590b547e7" x="54" y="170.202772" style="stroke: #000000; stroke-width: 0.8"/>
      </g>
     </g>
     <g id="text_14">
      <!-- −5 -->
      <g transform="translate(30.783594 174.381913) scale(0.11 -0.11)">
       <use xlink:href="#DejaVuSans-2212"/>
       <use xlink:href="#DejaVuSans-35" x="83.789062"/>
      </g>
     </g>
    </g>
    <g id="ytick_5">
     <g id="line2d_27">
      <path d="M 54 142.962671 
L 388.8 142.962671 
" clip-path="url(#p81125a01d3)" style="fill: none; stroke: #b0b0b0; stroke-width: 0.2; stroke-linecap: square"/>
     </g>
     <g id="line2d_28">
      <g>
       <use xlink:href="#ma590b547e7" x="54" y="142.962671" style="stroke: #000000; stroke-width: 0.8"/>
      </g>
     </g>
     <g id="text_15">
      <!-- 0 -->
      <g transform="translate(40.00125 147.141812) scale(0.11 -0.11)">
       <use xlink:href="#DejaVuSans-30"/>
      </g>
     </g>
    </g>
    <g id="ytick_6">
     <g id="line2d_29">
      <path d="M 54 115.72257 
L 388.8 115.72257 
" clip-path="url(#p81125a01d3)" style="fill: none; stroke: #b0b0b0; stroke-width: 0.2; stroke-linecap: square"/>
     </g>
     <g id="line2d_30">
      <g>
       <use xlink:href="#ma590b547e7" x="54" y="115.72257" style="stroke: #000000; stroke-width: 0.8"/>
      </g>
     </g>
     <g id="text_16">
      <!-- 5 -->
      <g transform="translate(40.00125 119.901711) scale(0.11 -0.11)">
       <use xlink:href="#DejaVuSans-35"/>
      </g>
     </g>
    </g>
    <g id="ytick_7">
     <g id="line2d_31">
      <path d="M 54 88.482469 
L 388.8 88.482469 
" clip-path="url(#p81125a01d3)" style="fill: none; stroke: #b0b0b0; stroke-width: 0.2; stroke-linecap: square"/>
     </g>
     <g id="line2d_32">
      <g>
       <use xlink:href="#ma590b547e7" x="54" y="88.482469" style="stroke: #000000; stroke-width: 0.8"/>
      </g>
     </g>
     <g id="text_17">
      <!-- 10 -->
      <g transform="translate(33.0025 92.66161) scale(0.11 -0.11)">
       <use xlink:href="#DejaVuSans-31"/>
       <use xlink:href="#DejaVuSans-30" x="63.623047"/>
      </g>
     </g>
    </g>
    <g id="ytick_8">
     <g id="line2d_33">
      <path d="M 54 61.242368 
L 388.8 61.242368 
" clip-path="url(#p81125a01d3)" style="fill: none; stroke: #b0b0b0; stroke-width: 0.2; stroke-linecap: square"/>
     </g>
     <g id="line2d_34">
      <g>
       <use xlink:href="#ma590b547e7" x="54" y="61.242368" style="stroke: #000000; stroke-width: 0.8"/>
      </g>
     </g>
     <g id="text_18">
      <!-- 15 -->
      <g transform="translate(33.0025 65.421509) scale(0.11 -0.11)">
       <use xlink:href="#DejaVuSans-31"/>
       <use xlink:href="#DejaVuSans-35" x="63.623047"/>
      </g>
     </g>
    </g>
    <g id="text_19">
     <!-- Angular velocity of the link - $\omega_{l}$ (rad/s) -->
     <g transform="translate(17.364844 230.565) rotate(-90) scale(0.11 -0.11)">
      <defs>
       <path id="TimesNewRomanPSMT-41" d="M 2928 1419 
L 1288 1419 
L 1000 750 
Q 894 503 894 381 
Q 894 284 986 211 
Q 1078 138 1384 116 
L 1384 0 
L 50 0 
L 50 116 
Q 316 163 394 238 
Q 553 388 747 847 
L 2238 4334 
L 2347 4334 
L 3822 809 
Q 4000 384 4145 257 
Q 4291 131 4550 116 
L 4550 0 
L 2878 0 
L 2878 116 
Q 3131 128 3220 200 
Q 3309 272 3309 375 
Q 3309 513 3184 809 
L 2928 1419 
z
M 2841 1650 
L 2122 3363 
L 1384 1650 
L 2841 1650 
z
" transform="scale(0.015625)"/>
       <path id="TimesNewRomanPSMT-6e" d="M 1034 2341 
Q 1538 2947 1994 2947 
Q 2228 2947 2397 2830 
Q 2566 2713 2666 2444 
Q 2734 2256 2734 1869 
L 2734 647 
Q 2734 375 2778 278 
Q 2813 200 2889 156 
Q 2966 113 3172 113 
L 3172 0 
L 1756 0 
L 1756 113 
L 1816 113 
Q 2016 113 2095 173 
Q 2175 234 2206 353 
Q 2219 400 2219 647 
L 2219 1819 
Q 2219 2209 2117 2386 
Q 2016 2563 1775 2563 
Q 1403 2563 1034 2156 
L 1034 647 
Q 1034 356 1069 288 
Q 1113 197 1189 155 
Q 1266 113 1500 113 
L 1500 0 
L 84 0 
L 84 113 
L 147 113 
Q 366 113 442 223 
Q 519 334 519 647 
L 519 1709 
Q 519 2225 495 2337 
Q 472 2450 423 2490 
Q 375 2531 294 2531 
Q 206 2531 84 2484 
L 38 2597 
L 900 2947 
L 1034 2947 
L 1034 2341 
z
" transform="scale(0.015625)"/>
       <path id="TimesNewRomanPSMT-67" d="M 966 1044 
Q 703 1172 562 1401 
Q 422 1631 422 1909 
Q 422 2334 742 2640 
Q 1063 2947 1563 2947 
Q 1972 2947 2272 2747 
L 2878 2747 
Q 3013 2747 3034 2739 
Q 3056 2731 3066 2713 
Q 3084 2684 3084 2613 
Q 3084 2531 3069 2500 
Q 3059 2484 3036 2475 
Q 3013 2466 2878 2466 
L 2506 2466 
Q 2681 2241 2681 1891 
Q 2681 1491 2375 1206 
Q 2069 922 1553 922 
Q 1341 922 1119 984 
Q 981 866 932 777 
Q 884 688 884 625 
Q 884 572 936 522 
Q 988 472 1138 450 
Q 1225 438 1575 428 
Q 2219 413 2409 384 
Q 2700 344 2873 169 
Q 3047 -6 3047 -263 
Q 3047 -616 2716 -925 
Q 2228 -1381 1444 -1381 
Q 841 -1381 425 -1109 
Q 191 -953 191 -784 
Q 191 -709 225 -634 
Q 278 -519 444 -313 
Q 466 -284 763 25 
Q 600 122 533 198 
Q 466 275 466 372 
Q 466 481 555 628 
Q 644 775 966 1044 
z
M 1509 2797 
Q 1278 2797 1122 2612 
Q 966 2428 966 2047 
Q 966 1553 1178 1281 
Q 1341 1075 1591 1075 
Q 1828 1075 1981 1253 
Q 2134 1431 2134 1813 
Q 2134 2309 1919 2591 
Q 1759 2797 1509 2797 
z
M 934 0 
Q 788 -159 713 -296 
Q 638 -434 638 -550 
Q 638 -700 819 -813 
Q 1131 -1006 1722 -1006 
Q 2284 -1006 2551 -807 
Q 2819 -609 2819 -384 
Q 2819 -222 2659 -153 
Q 2497 -84 2016 -72 
Q 1313 -53 934 0 
z
" transform="scale(0.015625)"/>
       <path id="TimesNewRomanPSMT-75" d="M 2709 2863 
L 2709 1128 
Q 2709 631 2732 520 
Q 2756 409 2807 365 
Q 2859 322 2928 322 
Q 3025 322 3147 375 
L 3191 266 
L 2334 -88 
L 2194 -88 
L 2194 519 
Q 1825 119 1631 15 
Q 1438 -88 1222 -88 
Q 981 -88 804 51 
Q 628 191 559 409 
Q 491 628 491 1028 
L 491 2306 
Q 491 2509 447 2587 
Q 403 2666 317 2708 
Q 231 2750 6 2747 
L 6 2863 
L 1009 2863 
L 1009 947 
Q 1009 547 1148 422 
Q 1288 297 1484 297 
Q 1619 297 1789 381 
Q 1959 466 2194 703 
L 2194 2325 
Q 2194 2569 2105 2655 
Q 2016 2741 1734 2747 
L 1734 2863 
L 2709 2863 
z
" transform="scale(0.015625)"/>
       <path id="TimesNewRomanPSMT-6c" d="M 1184 4444 
L 1184 647 
Q 1184 378 1223 290 
Q 1263 203 1344 158 
Q 1425 113 1647 113 
L 1647 0 
L 244 0 
L 244 113 
Q 441 113 512 153 
Q 584 194 625 287 
Q 666 381 666 647 
L 666 3247 
Q 666 3731 644 3842 
Q 622 3953 573 3993 
Q 525 4034 450 4034 
Q 369 4034 244 3984 
L 191 4094 
L 1044 4444 
L 1184 4444 
z
" transform="scale(0.015625)"/>
       <path id="TimesNewRomanPSMT-61" d="M 1822 413 
Q 1381 72 1269 19 
Q 1100 -59 909 -59 
Q 613 -59 420 144 
Q 228 347 228 678 
Q 228 888 322 1041 
Q 450 1253 767 1440 
Q 1084 1628 1822 1897 
L 1822 2009 
Q 1822 2438 1686 2597 
Q 1550 2756 1291 2756 
Q 1094 2756 978 2650 
Q 859 2544 859 2406 
L 866 2225 
Q 866 2081 792 2003 
Q 719 1925 600 1925 
Q 484 1925 411 2006 
Q 338 2088 338 2228 
Q 338 2497 613 2722 
Q 888 2947 1384 2947 
Q 1766 2947 2009 2819 
Q 2194 2722 2281 2516 
Q 2338 2381 2338 1966 
L 2338 994 
Q 2338 584 2353 492 
Q 2369 400 2405 369 
Q 2441 338 2488 338 
Q 2538 338 2575 359 
Q 2641 400 2828 588 
L 2828 413 
Q 2478 -56 2159 -56 
Q 2006 -56 1915 50 
Q 1825 156 1822 413 
z
M 1822 616 
L 1822 1706 
Q 1350 1519 1213 1441 
Q 966 1303 859 1153 
Q 753 1003 753 825 
Q 753 600 887 451 
Q 1022 303 1197 303 
Q 1434 303 1822 616 
z
" transform="scale(0.015625)"/>
       <path id="TimesNewRomanPSMT-72" d="M 1038 2947 
L 1038 2303 
Q 1397 2947 1775 2947 
Q 1947 2947 2059 2842 
Q 2172 2738 2172 2600 
Q 2172 2478 2090 2393 
Q 2009 2309 1897 2309 
Q 1788 2309 1652 2417 
Q 1516 2525 1450 2525 
Q 1394 2525 1328 2463 
Q 1188 2334 1038 2041 
L 1038 669 
Q 1038 431 1097 309 
Q 1138 225 1241 169 
Q 1344 113 1538 113 
L 1538 0 
L 72 0 
L 72 113 
Q 291 113 397 181 
Q 475 231 506 341 
Q 522 394 522 644 
L 522 1753 
Q 522 2253 501 2348 
Q 481 2444 426 2487 
Q 372 2531 291 2531 
Q 194 2531 72 2484 
L 41 2597 
L 906 2947 
L 1038 2947 
z
" transform="scale(0.015625)"/>
       <path id="TimesNewRomanPSMT-76" d="M 53 2863 
L 1400 2863 
L 1400 2747 
L 1313 2747 
Q 1191 2747 1127 2687 
Q 1063 2628 1063 2528 
Q 1063 2419 1128 2269 
L 1794 688 
L 2463 2328 
Q 2534 2503 2534 2594 
Q 2534 2638 2509 2666 
Q 2475 2713 2422 2730 
Q 2369 2747 2206 2747 
L 2206 2863 
L 3141 2863 
L 3141 2747 
Q 2978 2734 2916 2681 
Q 2806 2588 2719 2369 
L 1703 -88 
L 1575 -88 
L 553 2328 
Q 484 2497 421 2570 
Q 359 2644 263 2694 
Q 209 2722 53 2747 
L 53 2863 
z
" transform="scale(0.015625)"/>
       <path id="TimesNewRomanPSMT-6f" d="M 1600 2947 
Q 2250 2947 2644 2453 
Q 2978 2031 2978 1484 
Q 2978 1100 2793 706 
Q 2609 313 2286 112 
Q 1963 -88 1566 -88 
Q 919 -88 538 428 
Q 216 863 216 1403 
Q 216 1797 411 2186 
Q 606 2575 925 2761 
Q 1244 2947 1600 2947 
z
M 1503 2744 
Q 1338 2744 1170 2645 
Q 1003 2547 900 2300 
Q 797 2053 797 1666 
Q 797 1041 1045 587 
Q 1294 134 1700 134 
Q 2003 134 2200 384 
Q 2397 634 2397 1244 
Q 2397 2006 2069 2444 
Q 1847 2744 1503 2744 
z
" transform="scale(0.015625)"/>
       <path id="TimesNewRomanPSMT-63" d="M 2631 1088 
Q 2516 522 2178 217 
Q 1841 -88 1431 -88 
Q 944 -88 581 321 
Q 219 731 219 1428 
Q 219 2103 620 2525 
Q 1022 2947 1584 2947 
Q 2006 2947 2278 2723 
Q 2550 2500 2550 2259 
Q 2550 2141 2473 2067 
Q 2397 1994 2259 1994 
Q 2075 1994 1981 2113 
Q 1928 2178 1911 2362 
Q 1894 2547 1784 2644 
Q 1675 2738 1481 2738 
Q 1169 2738 978 2506 
Q 725 2200 725 1697 
Q 725 1184 976 792 
Q 1228 400 1656 400 
Q 1963 400 2206 609 
Q 2378 753 2541 1131 
L 2631 1088 
z
" transform="scale(0.015625)"/>
       <path id="TimesNewRomanPSMT-74" d="M 1031 3803 
L 1031 2863 
L 1700 2863 
L 1700 2644 
L 1031 2644 
L 1031 788 
Q 1031 509 1111 412 
Q 1191 316 1316 316 
Q 1419 316 1516 380 
Q 1613 444 1666 569 
L 1788 569 
Q 1678 263 1478 108 
Q 1278 -47 1066 -47 
Q 922 -47 784 33 
Q 647 113 581 261 
Q 516 409 516 719 
L 516 2644 
L 63 2644 
L 63 2747 
Q 234 2816 414 2980 
Q 594 3144 734 3369 
Q 806 3488 934 3803 
L 1031 3803 
z
" transform="scale(0.015625)"/>
       <path id="TimesNewRomanPSMT-79" d="M 38 2863 
L 1372 2863 
L 1372 2747 
L 1306 2747 
Q 1166 2747 1095 2686 
Q 1025 2625 1025 2534 
Q 1025 2413 1128 2197 
L 1825 753 
L 2466 2334 
Q 2519 2463 2519 2588 
Q 2519 2644 2497 2672 
Q 2472 2706 2419 2726 
Q 2366 2747 2231 2747 
L 2231 2863 
L 3163 2863 
L 3163 2747 
Q 3047 2734 2984 2696 
Q 2922 2659 2847 2556 
Q 2819 2513 2741 2316 
L 1575 -541 
Q 1406 -956 1132 -1168 
Q 859 -1381 606 -1381 
Q 422 -1381 303 -1275 
Q 184 -1169 184 -1031 
Q 184 -900 270 -820 
Q 356 -741 506 -741 
Q 609 -741 788 -809 
Q 913 -856 944 -856 
Q 1038 -856 1148 -759 
Q 1259 -663 1372 -384 
L 1575 113 
L 547 2272 
Q 500 2369 397 2513 
Q 319 2622 269 2659 
Q 197 2709 38 2747 
L 38 2863 
z
" transform="scale(0.015625)"/>
       <path id="TimesNewRomanPSMT-66" d="M 1319 2638 
L 1319 756 
Q 1319 356 1406 250 
Q 1522 113 1716 113 
L 1975 113 
L 1975 0 
L 266 0 
L 266 113 
L 394 113 
Q 519 113 622 175 
Q 725 238 764 344 
Q 803 450 803 756 
L 803 2638 
L 247 2638 
L 247 2863 
L 803 2863 
L 803 3050 
Q 803 3478 940 3775 
Q 1078 4072 1361 4255 
Q 1644 4438 1997 4438 
Q 2325 4438 2600 4225 
Q 2781 4084 2781 3909 
Q 2781 3816 2700 3733 
Q 2619 3650 2525 3650 
Q 2453 3650 2373 3701 
Q 2294 3753 2178 3923 
Q 2063 4094 1966 4153 
Q 1869 4213 1750 4213 
Q 1606 4213 1506 4136 
Q 1406 4059 1362 3898 
Q 1319 3738 1319 3069 
L 1319 2863 
L 2056 2863 
L 2056 2638 
L 1319 2638 
z
" transform="scale(0.015625)"/>
       <path id="TimesNewRomanPSMT-68" d="M 1041 4444 
L 1041 2350 
Q 1388 2731 1591 2839 
Q 1794 2947 1997 2947 
Q 2241 2947 2416 2812 
Q 2591 2678 2675 2391 
Q 2734 2191 2734 1659 
L 2734 647 
Q 2734 375 2778 275 
Q 2809 200 2884 156 
Q 2959 113 3159 113 
L 3159 0 
L 1753 0 
L 1753 113 
L 1819 113 
Q 2019 113 2097 173 
Q 2175 234 2206 353 
Q 2216 403 2216 647 
L 2216 1659 
Q 2216 2128 2167 2275 
Q 2119 2422 2012 2495 
Q 1906 2569 1756 2569 
Q 1603 2569 1437 2487 
Q 1272 2406 1041 2159 
L 1041 647 
Q 1041 353 1073 281 
Q 1106 209 1195 161 
Q 1284 113 1503 113 
L 1503 0 
L 84 0 
L 84 113 
Q 275 113 384 172 
Q 447 203 484 290 
Q 522 378 522 647 
L 522 3238 
Q 522 3728 498 3840 
Q 475 3953 426 3993 
Q 378 4034 297 4034 
Q 231 4034 84 3984 
L 41 4094 
L 897 4444 
L 1041 4444 
z
" transform="scale(0.015625)"/>
       <path id="TimesNewRomanPSMT-6b" d="M 1047 4444 
L 1047 1597 
L 1775 2259 
Q 2006 2472 2044 2528 
Q 2069 2566 2069 2603 
Q 2069 2666 2017 2711 
Q 1966 2756 1847 2763 
L 1847 2863 
L 3091 2863 
L 3091 2763 
Q 2834 2756 2664 2684 
Q 2494 2613 2291 2428 
L 1556 1750 
L 2291 822 
Q 2597 438 2703 334 
Q 2853 188 2966 144 
Q 3044 113 3238 113 
L 3238 0 
L 1847 0 
L 1847 113 
Q 1966 116 2008 148 
Q 2050 181 2050 241 
Q 2050 313 1925 472 
L 1047 1594 
L 1047 644 
Q 1047 366 1086 278 
Q 1125 191 1197 153 
Q 1269 116 1509 113 
L 1509 0 
L 53 0 
L 53 113 
Q 272 113 381 166 
Q 447 200 481 272 
Q 528 375 528 628 
L 528 3234 
Q 528 3731 506 3842 
Q 484 3953 434 3995 
Q 384 4038 303 4038 
Q 238 4038 106 3984 
L 53 4094 
L 903 4444 
L 1047 4444 
z
" transform="scale(0.015625)"/>
       <path id="TimesNewRomanPSMT-2d" d="M 259 1672 
L 1875 1672 
L 1875 1200 
L 259 1200 
L 259 1672 
z
" transform="scale(0.015625)"/>
       <path id="DejaVuSans-Oblique-3c9" d="M 1369 -91 
Q 72 -91 434 1766 
Q 575 2500 1256 3500 
L 1875 3500 
Q 1231 2500 1088 1750 
Q 819 397 1519 397 
Q 2166 397 2478 2078 
L 3009 2078 
Q 2669 388 3316 397 
Q 4013 403 4275 1750 
Q 4419 2500 4169 3500 
L 4788 3500 
Q 5075 2500 4934 1766 
Q 4578 -94 3278 -91 
Q 2428 -88 2503 844 
Q 2194 -91 1369 -91 
z
" transform="scale(0.015625)"/>
       <path id="DejaVuSans-Oblique-6c" d="M 1172 4863 
L 1747 4863 
L 800 0 
L 225 0 
L 1172 4863 
z
" transform="scale(0.015625)"/>
       <path id="TimesNewRomanPSMT-64" d="M 2222 322 
Q 2013 103 1813 7 
Q 1613 -88 1381 -88 
Q 913 -88 563 304 
Q 213 697 213 1313 
Q 213 1928 600 2439 
Q 988 2950 1597 2950 
Q 1975 2950 2222 2709 
L 2222 3238 
Q 2222 3728 2198 3840 
Q 2175 3953 2125 3993 
Q 2075 4034 2000 4034 
Q 1919 4034 1784 3984 
L 1744 4094 
L 2597 4444 
L 2738 4444 
L 2738 1134 
Q 2738 631 2761 520 
Q 2784 409 2836 365 
Q 2888 322 2956 322 
Q 3041 322 3181 375 
L 3216 266 
L 2366 -88 
L 2222 -88 
L 2222 322 
z
M 2222 541 
L 2222 2016 
Q 2203 2228 2109 2403 
Q 2016 2578 1861 2667 
Q 1706 2756 1559 2756 
Q 1284 2756 1069 2509 
Q 784 2184 784 1559 
Q 784 928 1059 592 
Q 1334 256 1672 256 
Q 1956 256 2222 541 
z
" transform="scale(0.015625)"/>
       <path id="TimesNewRomanPSMT-2f" d="M 1794 4444 
L 259 -88 
L 9 -88 
L 1544 4444 
L 1794 4444 
z
" transform="scale(0.015625)"/>
      </defs>
      <use xlink:href="#TimesNewRomanPSMT-41" transform="translate(0 0.5625)"/>
      <use xlink:href="#TimesNewRomanPSMT-6e" transform="translate(72.216797 0.5625)"/>
      <use xlink:href="#TimesNewRomanPSMT-67" transform="translate(122.216797 0.5625)"/>
      <use xlink:href="#TimesNewRomanPSMT-75" transform="translate(172.216797 0.5625)"/>
      <use xlink:href="#TimesNewRomanPSMT-6c" transform="translate(222.216797 0.5625)"/>
      <use xlink:href="#TimesNewRomanPSMT-61" transform="translate(250 0.5625)"/>
      <use xlink:href="#TimesNewRomanPSMT-72" transform="translate(294.384766 0.5625)"/>
      <use xlink:href="#TimesNewRomanPSMT-20" transform="translate(327.685547 0.5625)"/>
      <use xlink:href="#TimesNewRomanPSMT-76" transform="translate(352.685547 0.5625)"/>
      <use xlink:href="#TimesNewRomanPSMT-65" transform="translate(402.685547 0.5625)"/>
      <use xlink:href="#TimesNewRomanPSMT-6c" transform="translate(447.070312 0.5625)"/>
      <use xlink:href="#TimesNewRomanPSMT-6f" transform="translate(474.853516 0.5625)"/>
      <use xlink:href="#TimesNewRomanPSMT-63" transform="translate(524.853516 0.5625)"/>
      <use xlink:href="#TimesNewRomanPSMT-69" transform="translate(569.238281 0.5625)"/>
      <use xlink:href="#TimesNewRomanPSMT-74" transform="translate(597.021484 0.5625)"/>
      <use xlink:href="#TimesNewRomanPSMT-79" transform="translate(624.804688 0.5625)"/>
      <use xlink:href="#TimesNewRomanPSMT-20" transform="translate(674.804688 0.5625)"/>
      <use xlink:href="#TimesNewRomanPSMT-6f" transform="translate(699.804688 0.5625)"/>
      <use xlink:href="#TimesNewRomanPSMT-66" transform="translate(749.804688 0.5625)"/>
      <use xlink:href="#TimesNewRomanPSMT-20" transform="translate(783.105469 0.5625)"/>
      <use xlink:href="#TimesNewRomanPSMT-74" transform="translate(808.105469 0.5625)"/>
      <use xlink:href="#TimesNewRomanPSMT-68" transform="translate(835.888672 0.5625)"/>
      <use xlink:href="#TimesNewRomanPSMT-65" transform="translate(885.888672 0.5625)"/>
      <use xlink:href="#TimesNewRomanPSMT-20" transform="translate(930.273438 0.5625)"/>
      <use xlink:href="#TimesNewRomanPSMT-6c" transform="translate(955.273438 0.5625)"/>
      <use xlink:href="#TimesNewRomanPSMT-69" transform="translate(983.056641 0.5625)"/>
      <use xlink:href="#TimesNewRomanPSMT-6e" transform="translate(1010.839844 0.5625)"/>
      <use xlink:href="#TimesNewRomanPSMT-6b" transform="translate(1060.839844 0.5625)"/>
      <use xlink:href="#TimesNewRomanPSMT-20" transform="translate(1110.839844 0.5625)"/>
      <use xlink:href="#TimesNewRomanPSMT-2d" transform="translate(1135.839844 0.5625)"/>
      <use xlink:href="#TimesNewRomanPSMT-20" transform="translate(1169.140625 0.5625)"/>
      <use xlink:href="#DejaVuSans-Oblique-3c9" transform="translate(1194.140625 0.5625)"/>
      <use xlink:href="#DejaVuSans-Oblique-6c" transform="translate(1277.880859 -15.84375) scale(0.7)"/>
      <use xlink:href="#TimesNewRomanPSMT-20" transform="translate(1300.063477 0.5625)"/>
      <use xlink:href="#TimesNewRomanPSMT-28" transform="translate(1325.063477 0.5625)"/>
      <use xlink:href="#TimesNewRomanPSMT-72" transform="translate(1358.364258 0.5625)"/>
      <use xlink:href="#TimesNewRomanPSMT-61" transform="translate(1391.665039 0.5625)"/>
      <use xlink:href="#TimesNewRomanPSMT-64" transform="translate(1436.049805 0.5625)"/>
      <use xlink:href="#TimesNewRomanPSMT-2f" transform="translate(1486.049805 0.5625)"/>
      <use xlink:href="#TimesNewRomanPSMT-73" transform="translate(1513.833008 0.5625)"/>
      <use xlink:href="#TimesNewRomanPSMT-29" transform="translate(1552.749023 0.5625)"/>
     </g>
    </g>
   </g>
   <g id="line2d_35">
    <path d="M 69.218182 142.962671 
L 69.294273 142.50627 
L 69.309491 143.33593 
L 69.446455 142.939637 
L 69.461673 143.50664 
L 69.552982 143.234712 
L 69.598636 143.220122 
L 69.674727 142.993739 
L 69.720382 143.061076 
L 69.750818 143.071354 
L 69.842127 141.922644 
L 69.903 142.164431 
L 69.918218 142.823111 
L 70.024745 142.662832 
L 70.207364 141.915797 
L 70.2378 142.232089 
L 70.359545 142.081957 
L 70.435636 142.390953 
L 70.481291 142.30645 
L 70.511727 142.301816 
L 70.648691 141.760026 
L 70.663909 141.723732 
L 70.679127 141.796537 
L 70.74 141.788387 
L 70.816091 141.899742 
L 70.831309 141.720609 
L 70.9074 141.409075 
L 71.044364 141.167899 
L 71.0748 141.184971 
L 71.120455 141.181841 
L 71.272636 140.582051 
L 71.287855 140.676599 
L 71.348727 140.523274 
L 71.379164 140.611272 
L 71.531345 140.26535 
L 71.653091 139.873103 
L 71.927018 136.803105 
L 73.479273 122.713346 
L 73.661891 120.121839 
L 74.088 115.636748 
L 74.103218 115.81186 
L 74.483673 113.322541 
L 74.696727 112.634419 
L 74.711945 112.794558 
L 74.803255 112.68939 
L 74.848909 112.627185 
L 74.985873 112.042256 
L 75.077182 111.761136 
L 75.244582 110.858835 
L 75.518509 110.063691 
L 75.609818 109.869645 
L 75.685909 110.233323 
L 75.731564 110.157988 
L 75.762 110.178447 
L 75.914182 111.319426 
L 76.142455 113.470581 
L 76.294636 115.437377 
L 76.385945 116.495963 
L 77.801236 134.913858 
L 78.257782 145.355261 
L 79.901345 187.476765 
L 80.6166 206.214856 
L 81.210109 215.65673 
L 81.544909 218.837745 
L 81.575345 218.794893 
L 81.697091 219.163005 
L 81.742745 219.094934 
L 81.773182 219.080695 
L 81.940582 218.585305 
L 82.047109 217.863844 
L 82.351473 214.265627 
L 82.868891 204.643833 
L 85.806 150.240659 
L 85.821218 150.262596 
L 87.175636 126.121388 
L 89.854036 48.407126 
L 90.173618 44.747872 
L 90.280145 44.443636 
L 90.310582 44.561817 
L 90.508418 44.898082 
L 90.645382 46.480908 
L 91.071491 54.072494 
L 91.512818 66.7235 
L 92.775927 107.112474 
L 93.384655 122.253343 
L 94.023818 138.874246 
L 94.495582 151.648708 
L 96.367418 205.004854 
L 97.524 238.622022 
L 97.630527 239.83871 
L 97.904455 242.116364 
L 97.919673 241.937506 
L 97.980545 242.095399 
L 98.0262 241.957786 
L 98.056636 241.913004 
L 98.224036 241.047387 
L 98.482745 238.825035 
L 98.665364 235.32357 
L 99.000164 225.533596 
L 102.439473 121.847737 
L 103.246036 97.73555 
L 104.570018 57.408956 
L 104.920036 52.311979 
L 105.315709 48.608488 
L 105.346145 48.630152 
L 105.376582 48.850523 
L 105.5592 50.086576 
L 106.152709 57.73769 
L 106.441855 65.414999 
L 109.789855 157.65987 
L 110.429018 175.852255 
L 112.316073 231.011279 
L 112.666091 236.337664 
L 112.681309 236.164097 
L 112.742182 236.608348 
L 112.7574 236.590437 
L 112.772618 236.675832 
L 112.894364 237.394029 
L 113.000891 237.294247 
L 113.153073 236.974577 
L 113.350909 235.402156 
L 113.822673 226.735161 
L 115.024909 192.513777 
L 115.785818 168.89699 
L 115.907564 165.853329 
L 117.322855 130.722036 
L 118.6164 94.925706 
L 120.031691 53.164023 
L 120.503455 46.923346 
L 120.518673 47.044933 
L 120.655636 46.801989 
L 120.96 49.143277 
L 120.975218 49.139659 
L 121.279582 53.663374 
L 121.660036 62.602226 
L 122.238327 80.463354 
L 123.547091 119.538499 
L 124.536273 144.266785 
L 125.114564 159.85757 
L 126.286364 193.785659 
L 126.499418 201.011979 
L 127.640782 233.468418 
L 127.960364 238.281005 
L 127.975582 238.229137 
L 128.219073 239.374738 
L 128.264727 239.433136 
L 128.279945 239.277229 
L 128.416909 239.034423 
L 128.614745 237.177025 
L 128.888673 232.715825 
L 129.177818 224.903811 
L 129.4974 214.897806 
L 131.080091 168.183887 
L 131.369236 160.783945 
L 133.560655 101.529314 
L 134.808545 63.529049 
L 134.823764 63.592103 
L 134.838982 63.220122 
L 135.539018 48.814622 
L 135.797727 47.375547 
L 136.482545 54.071607 
L 136.893436 63.395146 
L 137.380418 78.564358 
L 138.7044 117.964947 
L 140.971909 177.925576 
L 141.200182 184.820537 
L 141.991527 210.040127 
L 142.585036 226.940609 
L 143.208982 238.091753 
L 143.406818 239.820487 
L 143.452473 239.51044 
L 143.482909 239.505828 
L 143.969891 233.53359 
L 144.578618 219.420372 
L 145.096036 203.065847 
L 146.054782 174.274674 
L 147.104836 148.332707 
L 148.200545 119.477644 
L 148.474473 111.473923 
L 150.650673 50.385314 
L 150.970255 47.595413 
L 151.107218 47.168237 
L 151.152873 47.226804 
L 151.183309 47.1262 
L 151.335491 47.863776 
L 151.487673 49.725382 
L 151.807255 55.258146 
L 152.233364 67.582511 
L 152.674691 82.471171 
L 153.450818 105.164173 
L 153.466036 105.206621 
L 156.859691 199.385028 
L 157.833655 228.197598 
L 158.183673 234.312125 
L 158.640218 238.927063 
L 158.701091 238.951115 
L 158.868491 237.495656 
L 159.233727 233.022581 
L 159.675055 222.958218 
L 160.329436 204.14386 
L 162.079527 153.015207 
L 163.296982 121.641197 
L 165.594927 55.596842 
L 166.036255 48.965083 
L 166.310182 47.215681 
L 166.431927 47.720984 
L 166.599327 48.484268 
L 166.797164 50.712714 
L 167.040655 55.447283 
L 167.451545 66.555321 
L 168.014618 84.819574 
L 168.851618 109.462946 
L 171.666982 185.17134 
L 173.325764 233.793016 
L 173.630127 237.073627 
L 173.949709 238.517193 
L 173.964927 238.514088 
L 174.132327 238.272428 
L 174.208418 237.398481 
L 174.375818 234.758884 
L 174.786709 225.83722 
L 176.171564 184.372859 
L 177.252055 155.280217 
L 178.058618 133.386791 
L 178.849964 113.894517 
L 179.473909 94.410387 
L 180.0522 74.668379 
L 180.767455 55.24426 
L 180.782673 55.311635 
L 180.797891 55.03671 
L 181.224 49.28578 
L 181.239218 49.364533 
L 181.284873 49.103487 
L 181.482709 48.096919 
L 181.5588 48.211796 
L 181.7262 49.302332 
L 182.061 53.004329 
L 182.2284 55.659623 
L 182.593636 64.430325 
L 182.806691 70.529685 
L 183.324109 88.129423 
L 184.054582 109.86664 
L 187.189527 196.133927 
L 188.376545 230.51465 
L 188.985273 238.160852 
L 189.046145 237.832147 
L 189.380945 236.173143 
L 189.776618 230.280115 
L 190.431 214.133368 
L 190.689709 206.2183 
L 192.591982 151.954291 
L 193.870309 117.90431 
L 196.061727 55.137005 
L 196.746545 46.39467 
L 196.974818 47.657603 
L 197.553109 57.319897 
L 197.964 69.485135 
L 198.283582 80.347937 
L 199.440164 114.388738 
L 201.738109 174.642752 
L 203.214273 220.913472 
L 203.579509 230.800238 
L 203.883873 235.366003 
L 204.279545 239.101431 
L 204.355636 239.391922 
L 204.416509 239.266443 
L 204.431727 239.256369 
L 204.644782 237.871849 
L 204.796964 235.678404 
L 205.086109 229.428213 
L 205.801364 208.983399 
L 206.638364 183.216741 
L 206.744891 180.6119 
L 209.5146 106.285008 
L 211.203818 55.577854 
L 211.721236 48.395745 
L 211.919073 47.332889 
L 211.995164 47.405034 
L 212.177782 48.655879 
L 212.497364 53.254736 
L 212.877818 61.932889 
L 213.3648 74.821878 
L 214.049618 97.207981 
L 214.704 116.5748 
L 216.149727 152.137606 
L 216.454091 160.474718 
L 216.7128 167.575578 
L 218.204182 213.066276 
L 218.493327 222.956974 
L 218.904218 231.966589 
L 219.315109 237.252674 
L 219.512945 238.004182 
L 219.5586 237.943814 
L 219.741218 237.216461 
L 220.106455 232.550881 
L 220.258636 229.653496 
L 220.456473 224.778204 
L 221.430436 196.356567 
L 222.754418 158.601561 
L 224.930618 100.258337 
L 226.574182 51.927895 
L 226.5894 51.944415 
L 227.015509 47.590986 
L 227.182909 47.133172 
L 227.198127 47.210968 
L 227.259 47.305628 
L 228.202527 63.655999 
L 228.719945 78.782462 
L 230.2722 123.973328 
L 230.820055 137.924278 
L 231.854891 167.079788 
L 234.137618 232.046075 
L 234.533291 237.2209 
L 234.807218 238.630315 
L 234.837655 238.517971 
L 235.050709 237.07982 
L 235.339855 233.041506 
L 235.735527 223.434074 
L 238.3074 151.042693 
L 238.840036 137.000337 
L 240.727091 81.815264 
L 241.198855 67.946863 
L 241.929327 50.793153 
L 242.294564 46.611432 
L 242.401091 46.368187 
L 242.431527 46.530819 
L 242.522836 46.97357 
L 242.690236 48.473112 
L 242.964164 52.913939 
L 243.298964 60.956617 
L 245.064273 113.156072 
L 245.383855 122.773578 
L 246.555655 152.359755 
L 247.757891 184.399529 
L 248.305745 204.137637 
L 248.944909 223.350098 
L 249.325364 232.636495 
L 249.644945 236.870548 
L 249.918873 238.339685 
L 249.934091 238.352088 
L 249.979745 238.252042 
L 250.131927 237.582194 
L 250.390636 235.123582 
L 250.877618 226.98292 
L 251.303727 215.095701 
L 251.577655 205.367031 
L 252.673364 171.485408 
L 252.7038 170.999763 
L 255.793091 86.682969 
L 257.086636 52.032148 
L 257.436655 49.227558 
L 257.482309 48.89493 
L 257.634491 48.47068 
L 257.680145 48.555801 
L 257.847545 49.264593 
L 258.304091 56.419628 
L 258.638891 64.501853 
L 259.247618 82.525622 
L 260.2368 113.125961 
L 261.499909 145.564999 
L 261.515127 145.441787 
L 262.641273 174.873706 
L 262.899982 183.213445 
L 264.437018 228.624024 
L 264.863127 235.210068 
L 265.152273 237.428298 
L 265.197927 237.336525 
L 265.304455 237.093743 
L 265.380545 236.740998 
L 265.5936 234.883648 
L 266.0958 226.260792 
L 266.582782 212.289287 
L 268.272 162.900362 
L 268.652455 153.626728 
L 268.911164 146.879354 
L 270.356891 107.377296 
L 271.604782 68.136649 
L 272.167855 53.640356 
L 272.533091 47.103568 
L 272.578745 47.221778 
L 272.822236 46.320902 
L 272.837455 46.3273 
L 273.096164 48.079355 
L 273.248345 50.17808 
L 273.598364 57.686259 
L 274.131 72.384148 
L 274.2984 76.928998 
L 276.931145 150.345556 
L 277.8138 175.056843 
L 279.944345 235.021576 
L 280.233491 237.683266 
L 280.370455 238.259628 
L 280.431327 238.202377 
L 280.613945 237.727343 
L 280.781345 236.04014 
L 281.192236 228.456458 
L 281.709655 214.387587 
L 283.1706 171.125588 
L 285.544636 108.047699 
L 285.772909 99.949006 
L 285.833782 98.268829 
L 286.792527 70.051926 
L 287.675182 48.033547 
L 287.751273 47.297686 
L 287.903455 46.35782 
L 288.040418 46.920995 
L 288.253473 48.41044 
L 288.618709 52.949905 
L 289.014382 61.61471 
L 289.562236 79.896938 
L 290.262273 101.033562 
L 290.490545 107.563047 
L 294.0516 205.926537 
L 294.949473 231.149846 
L 295.284273 235.673542 
L 295.603855 237.914065 
L 295.679945 237.829257 
L 295.908218 236.704919 
L 296.166927 233.291693 
L 296.486509 225.764392 
L 297.612655 192.044483 
L 298.206164 175.190273 
L 299.545364 141.210829 
L 299.727982 136.649895 
L 300.808473 106.106032 
L 302.680309 51.71314 
L 302.999891 47.662999 
L 303.182509 47.014996 
L 303.243382 46.961976 
L 303.273818 47.022554 
L 303.791236 52.862874 
L 304.263 63.688115 
L 306.500073 128.791747 
L 307.397945 151.439187 
L 308.676273 187.3339 
L 309.041509 197.914245 
L 310.532891 238.042626 
L 310.730727 239.462328 
L 310.882909 238.703131 
L 310.928564 238.631762 
L 311.050309 237.975218 
L 311.324236 234.509946 
L 311.689473 227.487142 
L 312.389509 206.971556 
L 313.3026 179.968757 
L 316.437545 94.276337 
L 317.168018 70.551678 
L 317.807182 53.523221 
L 317.837618 53.177574 
L 318.339818 45.891473 
L 318.355036 46.031139 
L 318.415909 45.681535 
L 318.431127 45.707115 
L 318.492 45.525214 
L 318.568091 45.566979 
L 318.765927 47.461012 
L 318.978982 50.992931 
L 319.298564 58.677978 
L 320.683418 98.72589 
L 321.657382 126.606066 
L 323.590091 177.566625 
L 323.909673 187.531205 
L 325.538018 233.523499 
L 325.994564 238.782046 
L 326.101091 239.290763 
L 326.146745 238.948202 
L 326.1924 238.566105 
L 326.5272 235.283987 
L 326.877218 229.310901 
L 327.151145 221.536185 
L 329.236036 159.629955 
L 331.457891 100.279447 
L 333.010145 54.458391 
L 333.329727 49.428801 
L 333.344945 49.799631 
L 333.694964 47.888473 
L 333.786273 47.891836 
L 333.801491 47.738073 
L 333.877582 47.975039 
L 333.984109 48.891322 
L 334.166727 51.712703 
L 335.414618 85.130012 
L 336.464673 116.06682 
L 338.595218 172.071475 
L 340.938818 237.800751 
L 341.243182 239.267691 
L 341.288836 239.241597 
L 341.380145 239.042606 
L 341.486673 238.326279 
L 341.623636 236.714772 
L 341.988873 230.272796 
L 342.582382 215.232533 
L 343.952018 173.519726 
L 345.062945 143.753504 
L 346.6152 103.121238 
L 348.152236 56.286266 
L 348.669655 48.13731 
L 348.700091 47.944801 
L 348.715309 48.45336 
L 348.730527 48.444208 
L 348.837055 48.510347 
L 349.171855 49.697018 
L 349.491436 54.031712 
L 349.9632 65.769645 
L 355.1526 213.141085 
L 355.730891 229.145867 
L 356.461364 239.445247 
L 356.689636 237.799421 
L 356.704855 237.811325 
L 357.085309 233.420349 
L 357.359236 226.561302 
L 359.033236 176.745737 
L 359.778927 157.399091 
L 360.722455 132.713307 
L 361.072473 123.403655 
L 362.548636 79.920247 
L 362.837782 70.813584 
L 363.629127 51.611917 
L 363.979145 48.324152 
L 364.070455 47.829938 
L 364.161764 48.003775 
L 364.283509 48.406974 
L 364.313945 48.381827 
L 364.663964 51.930208 
L 364.892236 57.449319 
L 365.805327 83.605763 
L 367.068436 120.812163 
L 368.164145 148.352064 
L 368.833745 166.186164 
L 371.283873 235.91086 
L 371.573018 238.7453 
L 371.679545 239.283059 
L 371.740418 239.087029 
L 371.786073 238.9889 
L 371.907818 238.653673 
L 372.166527 235.497515 
L 372.744818 222.812319 
L 373.581818 196.41442 
L 373.581818 196.41442 
" clip-path="url(#p81125a01d3)" style="fill: none; stroke: #000000; stroke-width: 0.5; stroke-linecap: square"/>
   </g>
   <g id="patch_3">
    <path d="M 54 252 
L 54 34.56 
" style="fill: none; stroke: #000000; stroke-width: 0.8; stroke-linejoin: miter; stroke-linecap: square"/>
   </g>
   <g id="patch_4">
    <path d="M 388.8 252 
L 388.8 34.56 
" style="fill: none; stroke: #000000; stroke-width: 0.8; stroke-linejoin: miter; stroke-linecap: square"/>
   </g>
   <g id="patch_5">
    <path d="M 54 252 
L 388.8 252 
" style="fill: none; stroke: #000000; stroke-width: 0.8; stroke-linejoin: miter; stroke-linecap: square"/>
   </g>
   <g id="patch_6">
    <path d="M 54 34.56 
L 388.8 34.56 
" style="fill: none; stroke: #000000; stroke-width: 0.8; stroke-linejoin: miter; stroke-linecap: square"/>
   </g>
   <g id="text_20">
    <!-- $\omega_{l}$ (rad/s) - (JUKF) -->
    <g transform="translate(178.445 28.56) scale(0.11 -0.11)">
     <defs>
      <path id="TimesNewRomanPSMT-4a" d="M 638 4122 
L 638 4238 
L 2453 4238 
L 2453 4122 
L 2300 4122 
Q 2041 4122 1922 3969 
Q 1847 3869 1847 3488 
L 1847 1416 
Q 1847 938 1742 641 
Q 1638 344 1381 123 
Q 1125 -97 763 -97 
Q 469 -97 300 48 
Q 131 194 131 381 
Q 131 534 209 613 
Q 313 709 450 709 
Q 550 709 629 643 
Q 709 578 831 294 
Q 903 125 1016 125 
Q 1100 125 1173 228 
Q 1247 331 1247 594 
L 1247 3488 
Q 1247 3809 1206 3913 
Q 1175 3991 1075 4047 
Q 941 4122 791 4122 
L 638 4122 
z
" transform="scale(0.015625)"/>
      <path id="TimesNewRomanPSMT-55" d="M 3053 4122 
L 3053 4238 
L 4553 4238 
L 4553 4122 
L 4394 4122 
Q 4144 4122 4009 3913 
Q 3944 3816 3944 3463 
L 3944 1744 
Q 3944 1106 3817 754 
Q 3691 403 3320 151 
Q 2950 -100 2313 -100 
Q 1619 -100 1259 140 
Q 900 381 750 788 
Q 650 1066 650 1831 
L 650 3488 
Q 650 3878 542 4000 
Q 434 4122 194 4122 
L 34 4122 
L 34 4238 
L 1866 4238 
L 1866 4122 
L 1703 4122 
Q 1441 4122 1328 3956 
Q 1250 3844 1250 3488 
L 1250 1641 
Q 1250 1394 1295 1075 
Q 1341 756 1459 578 
Q 1578 400 1801 284 
Q 2025 169 2350 169 
Q 2766 169 3094 350 
Q 3422 531 3542 814 
Q 3663 1097 3663 1772 
L 3663 3488 
Q 3663 3884 3575 3984 
Q 3453 4122 3213 4122 
L 3053 4122 
z
" transform="scale(0.015625)"/>
      <path id="TimesNewRomanPSMT-4b" d="M 1913 2350 
L 3475 797 
Q 3859 413 4131 273 
Q 4403 134 4675 116 
L 4675 0 
L 2659 0 
L 2659 116 
Q 2841 116 2920 177 
Q 3000 238 3000 313 
Q 3000 388 2970 447 
Q 2941 506 2775 669 
L 1313 2116 
L 1313 750 
Q 1313 428 1353 325 
Q 1384 247 1484 191 
Q 1619 116 1769 116 
L 1913 116 
L 1913 0 
L 106 0 
L 106 116 
L 256 116 
Q 519 116 638 269 
Q 713 369 713 750 
L 713 3488 
Q 713 3809 672 3916 
Q 641 3991 544 4047 
Q 406 4122 256 4122 
L 106 4122 
L 106 4238 
L 1913 4238 
L 1913 4122 
L 1769 4122 
Q 1622 4122 1484 4050 
Q 1388 4000 1350 3900 
Q 1313 3800 1313 3488 
L 1313 2191 
Q 1375 2250 1741 2588 
Q 2669 3438 2863 3722 
Q 2947 3847 2947 3941 
Q 2947 4013 2881 4067 
Q 2816 4122 2659 4122 
L 2563 4122 
L 2563 4238 
L 4119 4238 
L 4119 4122 
Q 3981 4119 3868 4084 
Q 3756 4050 3593 3951 
Q 3431 3853 3194 3634 
Q 3125 3572 2559 2994 
L 1913 2350 
z
" transform="scale(0.015625)"/>
      <path id="TimesNewRomanPSMT-46" d="M 1309 4006 
L 1309 2341 
L 2081 2341 
Q 2347 2341 2470 2458 
Q 2594 2575 2634 2922 
L 2750 2922 
L 2750 1488 
L 2634 1488 
Q 2631 1734 2570 1850 
Q 2509 1966 2401 2023 
Q 2294 2081 2081 2081 
L 1309 2081 
L 1309 750 
Q 1309 428 1350 325 
Q 1381 247 1481 191 
Q 1619 116 1769 116 
L 1922 116 
L 1922 0 
L 103 0 
L 103 116 
L 253 116 
Q 516 116 634 269 
Q 709 369 709 750 
L 709 3488 
Q 709 3809 669 3913 
Q 638 3991 541 4047 
Q 406 4122 253 4122 
L 103 4122 
L 103 4238 
L 3256 4238 
L 3297 3306 
L 3188 3306 
Q 3106 3603 2998 3742 
Q 2891 3881 2733 3943 
Q 2575 4006 2244 4006 
L 1309 4006 
z
" transform="scale(0.015625)"/>
     </defs>
     <use xlink:href="#DejaVuSans-Oblique-3c9" transform="translate(0 0.5625)"/>
     <use xlink:href="#DejaVuSans-Oblique-6c" transform="translate(83.740234 -15.84375) scale(0.7)"/>
     <use xlink:href="#TimesNewRomanPSMT-20" transform="translate(105.922852 0.5625)"/>
     <use xlink:href="#TimesNewRomanPSMT-28" transform="translate(130.922852 0.5625)"/>
     <use xlink:href="#TimesNewRomanPSMT-72" transform="translate(164.223633 0.5625)"/>
     <use xlink:href="#TimesNewRomanPSMT-61" transform="translate(197.524414 0.5625)"/>
     <use xlink:href="#TimesNewRomanPSMT-64" transform="translate(241.90918 0.5625)"/>
     <use xlink:href="#TimesNewRomanPSMT-2f" transform="translate(291.90918 0.5625)"/>
     <use xlink:href="#TimesNewRomanPSMT-73" transform="translate(319.692383 0.5625)"/>
     <use xlink:href="#TimesNewRomanPSMT-29" transform="translate(358.608398 0.5625)"/>
     <use xlink:href="#TimesNewRomanPSMT-20" transform="translate(391.90918 0.5625)"/>
     <use xlink:href="#TimesNewRomanPSMT-2d" transform="translate(416.90918 0.5625)"/>
     <use xlink:href="#TimesNewRomanPSMT-20" transform="translate(450.209961 0.5625)"/>
     <use xlink:href="#TimesNewRomanPSMT-28" transform="translate(475.209961 0.5625)"/>
     <use xlink:href="#TimesNewRomanPSMT-4a" transform="translate(508.510742 0.5625)"/>
     <use xlink:href="#TimesNewRomanPSMT-55" transform="translate(547.426758 0.5625)"/>
     <use xlink:href="#TimesNewRomanPSMT-4b" transform="translate(619.643555 0.5625)"/>
     <use xlink:href="#TimesNewRomanPSMT-46" transform="translate(691.860352 0.5625)"/>
     <use xlink:href="#TimesNewRomanPSMT-29" transform="translate(747.475586 0.5625)"/>
    </g>
   </g>
   <g id="legend_1">
    <g id="patch_7">
     <path d="M 61 247 
L 103.6 247 
Q 105.6 247 105.6 245 
L 105.6 231.321875 
Q 105.6 229.321875 103.6 229.321875 
L 61 229.321875 
Q 59 229.321875 59 231.321875 
L 59 245 
Q 59 247 61 247 
z
" style="fill: #ffffff; opacity: 0.8; stroke: #cccccc; stroke-linejoin: miter"/>
    </g>
    <g id="line2d_36">
     <path d="M 63 237.420312 
L 73 237.420312 
L 83 237.420312 
" style="fill: none; stroke: #000000; stroke-width: 0.5; stroke-linecap: square"/>
    </g>
    <g id="text_21">
     <!-- $\omega_{l}$ -->
     <g transform="translate(91 240.920312) scale(0.1 -0.1)">
      <use xlink:href="#DejaVuSans-Oblique-3c9" transform="translate(0 0.3125)"/>
      <use xlink:href="#DejaVuSans-Oblique-6c" transform="translate(83.740234 -16.09375) scale(0.7)"/>
     </g>
    </g>
   </g>
  </g>
 </g>
 <defs>
  <clipPath id="p81125a01d3">
   <rect x="54" y="34.56" width="334.8" height="217.44"/>
  </clipPath>
 </defs>
</svg>
