<?xml version="1.0" encoding="utf-8" standalone="no"?>
<!DOCTYPE svg PUBLIC "-//W3C//DTD SVG 1.1//EN"
  "http://www.w3.org/Graphics/SVG/1.1/DTD/svg11.dtd">
<svg xmlns:xlink="http://www.w3.org/1999/xlink" width="432pt" height="288pt" viewBox="0 0 432 288" xmlns="http://www.w3.org/2000/svg" version="1.1">
 <metadata>
  <rdf:RDF xmlns:dc="http://purl.org/dc/elements/1.1/" xmlns:cc="http://creativecommons.org/ns#" xmlns:rdf="http://www.w3.org/1999/02/22-rdf-syntax-ns#">
   <cc:Work>
    <dc:type rdf:resource="http://purl.org/dc/dcmitype/StillImage"/>
    <dc:date>2024-04-01T15:58:40.377290</dc:date>
    <dc:format>image/svg+xml</dc:format>
    <dc:creator>
     <cc:Agent>
      <dc:title>Matplotlib v3.8.3, https://matplotlib.org/</dc:title>
     </cc:Agent>
    </dc:creator>
   </cc:Work>
  </rdf:RDF>
 </metadata>
 <defs>
  <style type="text/css">*{stroke-linejoin: round; stroke-linecap: butt}</style>
 </defs>
 <g id="figure_1">
  <g id="patch_1">
   <path d="M 0 288 
L 432 288 
L 432 0 
L 0 0 
z
" style="fill: #ffffff"/>
  </g>
  <g id="axes_1">
   <g id="patch_2">
    <path d="M 54 252 
L 388.8 252 
L 388.8 34.56 
L 54 34.56 
z
" style="fill: #ffffff"/>
   </g>
   <g id="matplotlib.axis_1">
    <g id="xtick_1">
     <g id="line2d_1">
      <path d="M 69.218182 252 
L 69.218182 34.56 
" clip-path="url(#p9e9c61b7dd)" style="fill: none; stroke: #b0b0b0; stroke-width: 0.2; stroke-linecap: square"/>
     </g>
     <g id="line2d_2">
      <defs>
       <path id="m83bfd24c6b" d="M 0 0 
L 0 3.5 
" style="stroke: #000000; stroke-width: 0.8"/>
      </defs>
      <g>
       <use xlink:href="#m83bfd24c6b" x="69.218182" y="252" style="stroke: #000000; stroke-width: 0.8"/>
      </g>
     </g>
     <g id="text_1">
      <!-- 0.0 -->
      <g transform="translate(60.471463 267.358281) scale(0.11 -0.11)">
       <defs>
        <path id="DejaVuSans-30" d="M 2034 4250 
Q 1547 4250 1301 3770 
Q 1056 3291 1056 2328 
Q 1056 1369 1301 889 
Q 1547 409 2034 409 
Q 2525 409 2770 889 
Q 3016 1369 3016 2328 
Q 3016 3291 2770 3770 
Q 2525 4250 2034 4250 
z
M 2034 4750 
Q 2819 4750 3233 4129 
Q 3647 3509 3647 2328 
Q 3647 1150 3233 529 
Q 2819 -91 2034 -91 
Q 1250 -91 836 529 
Q 422 1150 422 2328 
Q 422 3509 836 4129 
Q 1250 4750 2034 4750 
z
" transform="scale(0.015625)"/>
        <path id="DejaVuSans-2e" d="M 684 794 
L 1344 794 
L 1344 0 
L 684 0 
L 684 794 
z
" transform="scale(0.015625)"/>
       </defs>
       <use xlink:href="#DejaVuSans-30"/>
       <use xlink:href="#DejaVuSans-2e" x="63.623047"/>
       <use xlink:href="#DejaVuSans-30" x="95.410156"/>
      </g>
     </g>
    </g>
    <g id="xtick_2">
     <g id="line2d_3">
      <path d="M 107.263636 252 
L 107.263636 34.56 
" clip-path="url(#p9e9c61b7dd)" style="fill: none; stroke: #b0b0b0; stroke-width: 0.2; stroke-linecap: square"/>
     </g>
     <g id="line2d_4">
      <g>
       <use xlink:href="#m83bfd24c6b" x="107.263636" y="252" style="stroke: #000000; stroke-width: 0.8"/>
      </g>
     </g>
     <g id="text_2">
      <!-- 2.5 -->
      <g transform="translate(98.516918 267.358281) scale(0.11 -0.11)">
       <defs>
        <path id="DejaVuSans-32" d="M 1228 531 
L 3431 531 
L 3431 0 
L 469 0 
L 469 531 
Q 828 903 1448 1529 
Q 2069 2156 2228 2338 
Q 2531 2678 2651 2914 
Q 2772 3150 2772 3378 
Q 2772 3750 2511 3984 
Q 2250 4219 1831 4219 
Q 1534 4219 1204 4116 
Q 875 4013 500 3803 
L 500 4441 
Q 881 4594 1212 4672 
Q 1544 4750 1819 4750 
Q 2544 4750 2975 4387 
Q 3406 4025 3406 3419 
Q 3406 3131 3298 2873 
Q 3191 2616 2906 2266 
Q 2828 2175 2409 1742 
Q 1991 1309 1228 531 
z
" transform="scale(0.015625)"/>
        <path id="DejaVuSans-35" d="M 691 4666 
L 3169 4666 
L 3169 4134 
L 1269 4134 
L 1269 2991 
Q 1406 3038 1543 3061 
Q 1681 3084 1819 3084 
Q 2600 3084 3056 2656 
Q 3513 2228 3513 1497 
Q 3513 744 3044 326 
Q 2575 -91 1722 -91 
Q 1428 -91 1123 -41 
Q 819 9 494 109 
L 494 744 
Q 775 591 1075 516 
Q 1375 441 1709 441 
Q 2250 441 2565 725 
Q 2881 1009 2881 1497 
Q 2881 1984 2565 2268 
Q 2250 2553 1709 2553 
Q 1456 2553 1204 2497 
Q 953 2441 691 2322 
L 691 4666 
z
" transform="scale(0.015625)"/>
       </defs>
       <use xlink:href="#DejaVuSans-32"/>
       <use xlink:href="#DejaVuSans-2e" x="63.623047"/>
       <use xlink:href="#DejaVuSans-35" x="95.410156"/>
      </g>
     </g>
    </g>
    <g id="xtick_3">
     <g id="line2d_5">
      <path d="M 145.309091 252 
L 145.309091 34.56 
" clip-path="url(#p9e9c61b7dd)" style="fill: none; stroke: #b0b0b0; stroke-width: 0.2; stroke-linecap: square"/>
     </g>
     <g id="line2d_6">
      <g>
       <use xlink:href="#m83bfd24c6b" x="145.309091" y="252" style="stroke: #000000; stroke-width: 0.8"/>
      </g>
     </g>
     <g id="text_3">
      <!-- 5.0 -->
      <g transform="translate(136.562372 267.358281) scale(0.11 -0.11)">
       <use xlink:href="#DejaVuSans-35"/>
       <use xlink:href="#DejaVuSans-2e" x="63.623047"/>
       <use xlink:href="#DejaVuSans-30" x="95.410156"/>
      </g>
     </g>
    </g>
    <g id="xtick_4">
     <g id="line2d_7">
      <path d="M 183.354545 252 
L 183.354545 34.56 
" clip-path="url(#p9e9c61b7dd)" style="fill: none; stroke: #b0b0b0; stroke-width: 0.2; stroke-linecap: square"/>
     </g>
     <g id="line2d_8">
      <g>
       <use xlink:href="#m83bfd24c6b" x="183.354545" y="252" style="stroke: #000000; stroke-width: 0.8"/>
      </g>
     </g>
     <g id="text_4">
      <!-- 7.5 -->
      <g transform="translate(174.607827 267.358281) scale(0.11 -0.11)">
       <defs>
        <path id="DejaVuSans-37" d="M 525 4666 
L 3525 4666 
L 3525 4397 
L 1831 0 
L 1172 0 
L 2766 4134 
L 525 4134 
L 525 4666 
z
" transform="scale(0.015625)"/>
       </defs>
       <use xlink:href="#DejaVuSans-37"/>
       <use xlink:href="#DejaVuSans-2e" x="63.623047"/>
       <use xlink:href="#DejaVuSans-35" x="95.410156"/>
      </g>
     </g>
    </g>
    <g id="xtick_5">
     <g id="line2d_9">
      <path d="M 221.4 252 
L 221.4 34.56 
" clip-path="url(#p9e9c61b7dd)" style="fill: none; stroke: #b0b0b0; stroke-width: 0.2; stroke-linecap: square"/>
     </g>
     <g id="line2d_10">
      <g>
       <use xlink:href="#m83bfd24c6b" x="221.4" y="252" style="stroke: #000000; stroke-width: 0.8"/>
      </g>
     </g>
     <g id="text_5">
      <!-- 10.0 -->
      <g transform="translate(209.153906 267.358281) scale(0.11 -0.11)">
       <defs>
        <path id="DejaVuSans-31" d="M 794 531 
L 1825 531 
L 1825 4091 
L 703 3866 
L 703 4441 
L 1819 4666 
L 2450 4666 
L 2450 531 
L 3481 531 
L 3481 0 
L 794 0 
L 794 531 
z
" transform="scale(0.015625)"/>
       </defs>
       <use xlink:href="#DejaVuSans-31"/>
       <use xlink:href="#DejaVuSans-30" x="63.623047"/>
       <use xlink:href="#DejaVuSans-2e" x="127.246094"/>
       <use xlink:href="#DejaVuSans-30" x="159.033203"/>
      </g>
     </g>
    </g>
    <g id="xtick_6">
     <g id="line2d_11">
      <path d="M 259.445455 252 
L 259.445455 34.56 
" clip-path="url(#p9e9c61b7dd)" style="fill: none; stroke: #b0b0b0; stroke-width: 0.2; stroke-linecap: square"/>
     </g>
     <g id="line2d_12">
      <g>
       <use xlink:href="#m83bfd24c6b" x="259.445455" y="252" style="stroke: #000000; stroke-width: 0.8"/>
      </g>
     </g>
     <g id="text_6">
      <!-- 12.5 -->
      <g transform="translate(247.199361 267.358281) scale(0.11 -0.11)">
       <use xlink:href="#DejaVuSans-31"/>
       <use xlink:href="#DejaVuSans-32" x="63.623047"/>
       <use xlink:href="#DejaVuSans-2e" x="127.246094"/>
       <use xlink:href="#DejaVuSans-35" x="159.033203"/>
      </g>
     </g>
    </g>
    <g id="xtick_7">
     <g id="line2d_13">
      <path d="M 297.490909 252 
L 297.490909 34.56 
" clip-path="url(#p9e9c61b7dd)" style="fill: none; stroke: #b0b0b0; stroke-width: 0.2; stroke-linecap: square"/>
     </g>
     <g id="line2d_14">
      <g>
       <use xlink:href="#m83bfd24c6b" x="297.490909" y="252" style="stroke: #000000; stroke-width: 0.8"/>
      </g>
     </g>
     <g id="text_7">
      <!-- 15.0 -->
      <g transform="translate(285.244815 267.358281) scale(0.11 -0.11)">
       <use xlink:href="#DejaVuSans-31"/>
       <use xlink:href="#DejaVuSans-35" x="63.623047"/>
       <use xlink:href="#DejaVuSans-2e" x="127.246094"/>
       <use xlink:href="#DejaVuSans-30" x="159.033203"/>
      </g>
     </g>
    </g>
    <g id="xtick_8">
     <g id="line2d_15">
      <path d="M 335.536364 252 
L 335.536364 34.56 
" clip-path="url(#p9e9c61b7dd)" style="fill: none; stroke: #b0b0b0; stroke-width: 0.2; stroke-linecap: square"/>
     </g>
     <g id="line2d_16">
      <g>
       <use xlink:href="#m83bfd24c6b" x="335.536364" y="252" style="stroke: #000000; stroke-width: 0.8"/>
      </g>
     </g>
     <g id="text_8">
      <!-- 17.5 -->
      <g transform="translate(323.29027 267.358281) scale(0.11 -0.11)">
       <use xlink:href="#DejaVuSans-31"/>
       <use xlink:href="#DejaVuSans-37" x="63.623047"/>
       <use xlink:href="#DejaVuSans-2e" x="127.246094"/>
       <use xlink:href="#DejaVuSans-35" x="159.033203"/>
      </g>
     </g>
    </g>
    <g id="xtick_9">
     <g id="line2d_17">
      <path d="M 373.581818 252 
L 373.581818 34.56 
" clip-path="url(#p9e9c61b7dd)" style="fill: none; stroke: #b0b0b0; stroke-width: 0.2; stroke-linecap: square"/>
     </g>
     <g id="line2d_18">
      <g>
       <use xlink:href="#m83bfd24c6b" x="373.581818" y="252" style="stroke: #000000; stroke-width: 0.8"/>
      </g>
     </g>
     <g id="text_9">
      <!-- 20.0 -->
      <g transform="translate(361.335724 267.358281) scale(0.11 -0.11)">
       <use xlink:href="#DejaVuSans-32"/>
       <use xlink:href="#DejaVuSans-30" x="63.623047"/>
       <use xlink:href="#DejaVuSans-2e" x="127.246094"/>
       <use xlink:href="#DejaVuSans-30" x="159.033203"/>
      </g>
     </g>
    </g>
    <g id="text_10">
     <!-- Time (s) -->
     <g transform="translate(202.807422 281.284063) scale(0.11 -0.11)">
      <defs>
       <path id="TimesNewRomanPSMT-54" d="M 3703 4238 
L 3750 3244 
L 3631 3244 
Q 3597 3506 3538 3619 
Q 3441 3800 3280 3886 
Q 3119 3972 2856 3972 
L 2259 3972 
L 2259 734 
Q 2259 344 2344 247 
Q 2463 116 2709 116 
L 2856 116 
L 2856 0 
L 1059 0 
L 1059 116 
L 1209 116 
Q 1478 116 1591 278 
Q 1659 378 1659 734 
L 1659 3972 
L 1150 3972 
Q 853 3972 728 3928 
Q 566 3869 450 3700 
Q 334 3531 313 3244 
L 194 3244 
L 244 4238 
L 3703 4238 
z
" transform="scale(0.015625)"/>
       <path id="TimesNewRomanPSMT-69" d="M 928 4444 
Q 1059 4444 1151 4351 
Q 1244 4259 1244 4128 
Q 1244 3997 1151 3903 
Q 1059 3809 928 3809 
Q 797 3809 703 3903 
Q 609 3997 609 4128 
Q 609 4259 701 4351 
Q 794 4444 928 4444 
z
M 1188 2947 
L 1188 647 
Q 1188 378 1227 289 
Q 1266 200 1342 156 
Q 1419 113 1622 113 
L 1622 0 
L 231 0 
L 231 113 
Q 441 113 512 153 
Q 584 194 626 287 
Q 669 381 669 647 
L 669 1750 
Q 669 2216 641 2353 
Q 619 2453 572 2492 
Q 525 2531 444 2531 
Q 356 2531 231 2484 
L 188 2597 
L 1050 2947 
L 1188 2947 
z
" transform="scale(0.015625)"/>
       <path id="TimesNewRomanPSMT-6d" d="M 1050 2338 
Q 1363 2650 1419 2697 
Q 1559 2816 1721 2881 
Q 1884 2947 2044 2947 
Q 2313 2947 2506 2790 
Q 2700 2634 2766 2338 
Q 3088 2713 3309 2830 
Q 3531 2947 3766 2947 
Q 3994 2947 4170 2830 
Q 4347 2713 4450 2447 
Q 4519 2266 4519 1878 
L 4519 647 
Q 4519 378 4559 278 
Q 4591 209 4675 161 
Q 4759 113 4950 113 
L 4950 0 
L 3538 0 
L 3538 113 
L 3597 113 
Q 3781 113 3884 184 
Q 3956 234 3988 344 
Q 4000 397 4000 647 
L 4000 1878 
Q 4000 2228 3916 2372 
Q 3794 2572 3525 2572 
Q 3359 2572 3192 2489 
Q 3025 2406 2788 2181 
L 2781 2147 
L 2788 2013 
L 2788 647 
Q 2788 353 2820 281 
Q 2853 209 2943 161 
Q 3034 113 3253 113 
L 3253 0 
L 1806 0 
L 1806 113 
Q 2044 113 2133 169 
Q 2222 225 2256 338 
Q 2272 391 2272 647 
L 2272 1878 
Q 2272 2228 2169 2381 
Q 2031 2581 1784 2581 
Q 1616 2581 1450 2491 
Q 1191 2353 1050 2181 
L 1050 647 
Q 1050 366 1089 281 
Q 1128 197 1204 155 
Q 1281 113 1516 113 
L 1516 0 
L 100 0 
L 100 113 
Q 297 113 375 155 
Q 453 197 493 289 
Q 534 381 534 647 
L 534 1741 
Q 534 2213 506 2350 
Q 484 2453 437 2492 
Q 391 2531 309 2531 
Q 222 2531 100 2484 
L 53 2597 
L 916 2947 
L 1050 2947 
L 1050 2338 
z
" transform="scale(0.015625)"/>
       <path id="TimesNewRomanPSMT-65" d="M 681 1784 
Q 678 1147 991 784 
Q 1303 422 1725 422 
Q 2006 422 2214 576 
Q 2422 731 2563 1106 
L 2659 1044 
Q 2594 616 2278 264 
Q 1963 -88 1488 -88 
Q 972 -88 605 314 
Q 238 716 238 1394 
Q 238 2128 614 2539 
Q 991 2950 1559 2950 
Q 2041 2950 2350 2633 
Q 2659 2316 2659 1784 
L 681 1784 
z
M 681 1966 
L 2006 1966 
Q 1991 2241 1941 2353 
Q 1863 2528 1708 2628 
Q 1553 2728 1384 2728 
Q 1125 2728 920 2526 
Q 716 2325 681 1966 
z
" transform="scale(0.015625)"/>
       <path id="TimesNewRomanPSMT-20" transform="scale(0.015625)"/>
       <path id="TimesNewRomanPSMT-28" d="M 1988 -1253 
L 1988 -1369 
Q 1516 -1131 1200 -813 
Q 750 -359 506 256 
Q 263 872 263 1534 
Q 263 2503 741 3301 
Q 1219 4100 1988 4444 
L 1988 4313 
Q 1603 4100 1356 3731 
Q 1109 3363 987 2797 
Q 866 2231 866 1616 
Q 866 947 969 400 
Q 1050 -31 1165 -292 
Q 1281 -553 1476 -793 
Q 1672 -1034 1988 -1253 
z
" transform="scale(0.015625)"/>
       <path id="TimesNewRomanPSMT-73" d="M 2050 2947 
L 2050 1972 
L 1947 1972 
Q 1828 2431 1642 2597 
Q 1456 2763 1169 2763 
Q 950 2763 815 2647 
Q 681 2531 681 2391 
Q 681 2216 781 2091 
Q 878 1963 1175 1819 
L 1631 1597 
Q 2266 1288 2266 781 
Q 2266 391 1970 151 
Q 1675 -88 1309 -88 
Q 1047 -88 709 6 
Q 606 38 541 38 
Q 469 38 428 -44 
L 325 -44 
L 325 978 
L 428 978 
Q 516 541 762 319 
Q 1009 97 1316 97 
Q 1531 97 1667 223 
Q 1803 350 1803 528 
Q 1803 744 1651 891 
Q 1500 1038 1047 1263 
Q 594 1488 453 1669 
Q 313 1847 313 2119 
Q 313 2472 555 2709 
Q 797 2947 1181 2947 
Q 1350 2947 1591 2875 
Q 1750 2828 1803 2828 
Q 1853 2828 1881 2850 
Q 1909 2872 1947 2947 
L 2050 2947 
z
" transform="scale(0.015625)"/>
       <path id="TimesNewRomanPSMT-29" d="M 144 4313 
L 144 4444 
Q 619 4209 934 3891 
Q 1381 3434 1625 2820 
Q 1869 2206 1869 1541 
Q 1869 572 1392 -226 
Q 916 -1025 144 -1369 
L 144 -1253 
Q 528 -1038 776 -670 
Q 1025 -303 1145 264 
Q 1266 831 1266 1447 
Q 1266 2113 1163 2663 
Q 1084 3094 967 3353 
Q 850 3613 656 3853 
Q 463 4094 144 4313 
z
" transform="scale(0.015625)"/>
      </defs>
      <use xlink:href="#TimesNewRomanPSMT-54"/>
      <use xlink:href="#TimesNewRomanPSMT-69" x="57.583984"/>
      <use xlink:href="#TimesNewRomanPSMT-6d" x="85.367188"/>
      <use xlink:href="#TimesNewRomanPSMT-65" x="163.150391"/>
      <use xlink:href="#TimesNewRomanPSMT-20" x="207.535156"/>
      <use xlink:href="#TimesNewRomanPSMT-28" x="232.535156"/>
      <use xlink:href="#TimesNewRomanPSMT-73" x="265.835938"/>
      <use xlink:href="#TimesNewRomanPSMT-29" x="304.751953"/>
     </g>
    </g>
   </g>
   <g id="matplotlib.axis_2">
    <g id="ytick_1">
     <g id="line2d_19">
      <path d="M 54 222.351837 
L 388.8 222.351837 
" clip-path="url(#p9e9c61b7dd)" style="fill: none; stroke: #b0b0b0; stroke-width: 0.2; stroke-linecap: square"/>
     </g>
     <g id="line2d_20">
      <defs>
       <path id="m87227ec1e0" d="M 0 0 
L -3.5 0 
" style="stroke: #000000; stroke-width: 0.8"/>
      </defs>
      <g>
       <use xlink:href="#m87227ec1e0" x="54" y="222.351837" style="stroke: #000000; stroke-width: 0.8"/>
      </g>
     </g>
     <g id="text_11">
      <!-- −2 -->
      <g transform="translate(30.783594 226.530978) scale(0.11 -0.11)">
       <defs>
        <path id="DejaVuSans-2212" d="M 678 2272 
L 4684 2272 
L 4684 1741 
L 678 1741 
L 678 2272 
z
" transform="scale(0.015625)"/>
       </defs>
       <use xlink:href="#DejaVuSans-2212"/>
       <use xlink:href="#DejaVuSans-32" x="83.789062"/>
      </g>
     </g>
    </g>
    <g id="ytick_2">
     <g id="line2d_21">
      <path d="M 54 183.379238 
L 388.8 183.379238 
" clip-path="url(#p9e9c61b7dd)" style="fill: none; stroke: #b0b0b0; stroke-width: 0.2; stroke-linecap: square"/>
     </g>
     <g id="line2d_22">
      <g>
       <use xlink:href="#m87227ec1e0" x="54" y="183.379238" style="stroke: #000000; stroke-width: 0.8"/>
      </g>
     </g>
     <g id="text_12">
      <!-- −1 -->
      <g transform="translate(30.783594 187.558379) scale(0.11 -0.11)">
       <use xlink:href="#DejaVuSans-2212"/>
       <use xlink:href="#DejaVuSans-31" x="83.789062"/>
      </g>
     </g>
    </g>
    <g id="ytick_3">
     <g id="line2d_23">
      <path d="M 54 144.406639 
L 388.8 144.406639 
" clip-path="url(#p9e9c61b7dd)" style="fill: none; stroke: #b0b0b0; stroke-width: 0.2; stroke-linecap: square"/>
     </g>
     <g id="line2d_24">
      <g>
       <use xlink:href="#m87227ec1e0" x="54" y="144.406639" style="stroke: #000000; stroke-width: 0.8"/>
      </g>
     </g>
     <g id="text_13">
      <!-- 0 -->
      <g transform="translate(40.00125 148.585779) scale(0.11 -0.11)">
       <use xlink:href="#DejaVuSans-30"/>
      </g>
     </g>
    </g>
    <g id="ytick_4">
     <g id="line2d_25">
      <path d="M 54 105.434039 
L 388.8 105.434039 
" clip-path="url(#p9e9c61b7dd)" style="fill: none; stroke: #b0b0b0; stroke-width: 0.2; stroke-linecap: square"/>
     </g>
     <g id="line2d_26">
      <g>
       <use xlink:href="#m87227ec1e0" x="54" y="105.434039" style="stroke: #000000; stroke-width: 0.8"/>
      </g>
     </g>
     <g id="text_14">
      <!-- 1 -->
      <g transform="translate(40.00125 109.61318) scale(0.11 -0.11)">
       <use xlink:href="#DejaVuSans-31"/>
      </g>
     </g>
    </g>
    <g id="ytick_5">
     <g id="line2d_27">
      <path d="M 54 66.46144 
L 388.8 66.46144 
" clip-path="url(#p9e9c61b7dd)" style="fill: none; stroke: #b0b0b0; stroke-width: 0.2; stroke-linecap: square"/>
     </g>
     <g id="line2d_28">
      <g>
       <use xlink:href="#m87227ec1e0" x="54" y="66.46144" style="stroke: #000000; stroke-width: 0.8"/>
      </g>
     </g>
     <g id="text_15">
      <!-- 2 -->
      <g transform="translate(40.00125 70.640581) scale(0.11 -0.11)">
       <use xlink:href="#DejaVuSans-32"/>
      </g>
     </g>
    </g>
    <g id="text_16">
     <!-- Angular position of the link - $\theta_{l}$ (rad) -->
     <g transform="translate(24.363594 225.615) rotate(-90) scale(0.11 -0.11)">
      <defs>
       <path id="TimesNewRomanPSMT-41" d="M 2928 1419 
L 1288 1419 
L 1000 750 
Q 894 503 894 381 
Q 894 284 986 211 
Q 1078 138 1384 116 
L 1384 0 
L 50 0 
L 50 116 
Q 316 163 394 238 
Q 553 388 747 847 
L 2238 4334 
L 2347 4334 
L 3822 809 
Q 4000 384 4145 257 
Q 4291 131 4550 116 
L 4550 0 
L 2878 0 
L 2878 116 
Q 3131 128 3220 200 
Q 3309 272 3309 375 
Q 3309 513 3184 809 
L 2928 1419 
z
M 2841 1650 
L 2122 3363 
L 1384 1650 
L 2841 1650 
z
" transform="scale(0.015625)"/>
       <path id="TimesNewRomanPSMT-6e" d="M 1034 2341 
Q 1538 2947 1994 2947 
Q 2228 2947 2397 2830 
Q 2566 2713 2666 2444 
Q 2734 2256 2734 1869 
L 2734 647 
Q 2734 375 2778 278 
Q 2813 200 2889 156 
Q 2966 113 3172 113 
L 3172 0 
L 1756 0 
L 1756 113 
L 1816 113 
Q 2016 113 2095 173 
Q 2175 234 2206 353 
Q 2219 400 2219 647 
L 2219 1819 
Q 2219 2209 2117 2386 
Q 2016 2563 1775 2563 
Q 1403 2563 1034 2156 
L 1034 647 
Q 1034 356 1069 288 
Q 1113 197 1189 155 
Q 1266 113 1500 113 
L 1500 0 
L 84 0 
L 84 113 
L 147 113 
Q 366 113 442 223 
Q 519 334 519 647 
L 519 1709 
Q 519 2225 495 2337 
Q 472 2450 423 2490 
Q 375 2531 294 2531 
Q 206 2531 84 2484 
L 38 2597 
L 900 2947 
L 1034 2947 
L 1034 2341 
z
" transform="scale(0.015625)"/>
       <path id="TimesNewRomanPSMT-67" d="M 966 1044 
Q 703 1172 562 1401 
Q 422 1631 422 1909 
Q 422 2334 742 2640 
Q 1063 2947 1563 2947 
Q 1972 2947 2272 2747 
L 2878 2747 
Q 3013 2747 3034 2739 
Q 3056 2731 3066 2713 
Q 3084 2684 3084 2613 
Q 3084 2531 3069 2500 
Q 3059 2484 3036 2475 
Q 3013 2466 2878 2466 
L 2506 2466 
Q 2681 2241 2681 1891 
Q 2681 1491 2375 1206 
Q 2069 922 1553 922 
Q 1341 922 1119 984 
Q 981 866 932 777 
Q 884 688 884 625 
Q 884 572 936 522 
Q 988 472 1138 450 
Q 1225 438 1575 428 
Q 2219 413 2409 384 
Q 2700 344 2873 169 
Q 3047 -6 3047 -263 
Q 3047 -616 2716 -925 
Q 2228 -1381 1444 -1381 
Q 841 -1381 425 -1109 
Q 191 -953 191 -784 
Q 191 -709 225 -634 
Q 278 -519 444 -313 
Q 466 -284 763 25 
Q 600 122 533 198 
Q 466 275 466 372 
Q 466 481 555 628 
Q 644 775 966 1044 
z
M 1509 2797 
Q 1278 2797 1122 2612 
Q 966 2428 966 2047 
Q 966 1553 1178 1281 
Q 1341 1075 1591 1075 
Q 1828 1075 1981 1253 
Q 2134 1431 2134 1813 
Q 2134 2309 1919 2591 
Q 1759 2797 1509 2797 
z
M 934 0 
Q 788 -159 713 -296 
Q 638 -434 638 -550 
Q 638 -700 819 -813 
Q 1131 -1006 1722 -1006 
Q 2284 -1006 2551 -807 
Q 2819 -609 2819 -384 
Q 2819 -222 2659 -153 
Q 2497 -84 2016 -72 
Q 1313 -53 934 0 
z
" transform="scale(0.015625)"/>
       <path id="TimesNewRomanPSMT-75" d="M 2709 2863 
L 2709 1128 
Q 2709 631 2732 520 
Q 2756 409 2807 365 
Q 2859 322 2928 322 
Q 3025 322 3147 375 
L 3191 266 
L 2334 -88 
L 2194 -88 
L 2194 519 
Q 1825 119 1631 15 
Q 1438 -88 1222 -88 
Q 981 -88 804 51 
Q 628 191 559 409 
Q 491 628 491 1028 
L 491 2306 
Q 491 2509 447 2587 
Q 403 2666 317 2708 
Q 231 2750 6 2747 
L 6 2863 
L 1009 2863 
L 1009 947 
Q 1009 547 1148 422 
Q 1288 297 1484 297 
Q 1619 297 1789 381 
Q 1959 466 2194 703 
L 2194 2325 
Q 2194 2569 2105 2655 
Q 2016 2741 1734 2747 
L 1734 2863 
L 2709 2863 
z
" transform="scale(0.015625)"/>
       <path id="TimesNewRomanPSMT-6c" d="M 1184 4444 
L 1184 647 
Q 1184 378 1223 290 
Q 1263 203 1344 158 
Q 1425 113 1647 113 
L 1647 0 
L 244 0 
L 244 113 
Q 441 113 512 153 
Q 584 194 625 287 
Q 666 381 666 647 
L 666 3247 
Q 666 3731 644 3842 
Q 622 3953 573 3993 
Q 525 4034 450 4034 
Q 369 4034 244 3984 
L 191 4094 
L 1044 4444 
L 1184 4444 
z
" transform="scale(0.015625)"/>
       <path id="TimesNewRomanPSMT-61" d="M 1822 413 
Q 1381 72 1269 19 
Q 1100 -59 909 -59 
Q 613 -59 420 144 
Q 228 347 228 678 
Q 228 888 322 1041 
Q 450 1253 767 1440 
Q 1084 1628 1822 1897 
L 1822 2009 
Q 1822 2438 1686 2597 
Q 1550 2756 1291 2756 
Q 1094 2756 978 2650 
Q 859 2544 859 2406 
L 866 2225 
Q 866 2081 792 2003 
Q 719 1925 600 1925 
Q 484 1925 411 2006 
Q 338 2088 338 2228 
Q 338 2497 613 2722 
Q 888 2947 1384 2947 
Q 1766 2947 2009 2819 
Q 2194 2722 2281 2516 
Q 2338 2381 2338 1966 
L 2338 994 
Q 2338 584 2353 492 
Q 2369 400 2405 369 
Q 2441 338 2488 338 
Q 2538 338 2575 359 
Q 2641 400 2828 588 
L 2828 413 
Q 2478 -56 2159 -56 
Q 2006 -56 1915 50 
Q 1825 156 1822 413 
z
M 1822 616 
L 1822 1706 
Q 1350 1519 1213 1441 
Q 966 1303 859 1153 
Q 753 1003 753 825 
Q 753 600 887 451 
Q 1022 303 1197 303 
Q 1434 303 1822 616 
z
" transform="scale(0.015625)"/>
       <path id="TimesNewRomanPSMT-72" d="M 1038 2947 
L 1038 2303 
Q 1397 2947 1775 2947 
Q 1947 2947 2059 2842 
Q 2172 2738 2172 2600 
Q 2172 2478 2090 2393 
Q 2009 2309 1897 2309 
Q 1788 2309 1652 2417 
Q 1516 2525 1450 2525 
Q 1394 2525 1328 2463 
Q 1188 2334 1038 2041 
L 1038 669 
Q 1038 431 1097 309 
Q 1138 225 1241 169 
Q 1344 113 1538 113 
L 1538 0 
L 72 0 
L 72 113 
Q 291 113 397 181 
Q 475 231 506 341 
Q 522 394 522 644 
L 522 1753 
Q 522 2253 501 2348 
Q 481 2444 426 2487 
Q 372 2531 291 2531 
Q 194 2531 72 2484 
L 41 2597 
L 906 2947 
L 1038 2947 
z
" transform="scale(0.015625)"/>
       <path id="TimesNewRomanPSMT-70" d="M -6 2578 
L 875 2934 
L 994 2934 
L 994 2266 
Q 1216 2644 1439 2795 
Q 1663 2947 1909 2947 
Q 2341 2947 2628 2609 
Q 2981 2197 2981 1534 
Q 2981 794 2556 309 
Q 2206 -88 1675 -88 
Q 1444 -88 1275 -22 
Q 1150 25 994 166 
L 994 -706 
Q 994 -1000 1030 -1079 
Q 1066 -1159 1155 -1206 
Q 1244 -1253 1478 -1253 
L 1478 -1369 
L -22 -1369 
L -22 -1253 
L 56 -1253 
Q 228 -1256 350 -1188 
Q 409 -1153 442 -1076 
Q 475 -1000 475 -688 
L 475 2019 
Q 475 2297 450 2372 
Q 425 2447 370 2484 
Q 316 2522 222 2522 
Q 147 2522 31 2478 
L -6 2578 
z
M 994 2081 
L 994 1013 
Q 994 666 1022 556 
Q 1066 375 1236 237 
Q 1406 100 1666 100 
Q 1978 100 2172 344 
Q 2425 663 2425 1241 
Q 2425 1897 2138 2250 
Q 1938 2494 1663 2494 
Q 1513 2494 1366 2419 
Q 1253 2363 994 2081 
z
" transform="scale(0.015625)"/>
       <path id="TimesNewRomanPSMT-6f" d="M 1600 2947 
Q 2250 2947 2644 2453 
Q 2978 2031 2978 1484 
Q 2978 1100 2793 706 
Q 2609 313 2286 112 
Q 1963 -88 1566 -88 
Q 919 -88 538 428 
Q 216 863 216 1403 
Q 216 1797 411 2186 
Q 606 2575 925 2761 
Q 1244 2947 1600 2947 
z
M 1503 2744 
Q 1338 2744 1170 2645 
Q 1003 2547 900 2300 
Q 797 2053 797 1666 
Q 797 1041 1045 587 
Q 1294 134 1700 134 
Q 2003 134 2200 384 
Q 2397 634 2397 1244 
Q 2397 2006 2069 2444 
Q 1847 2744 1503 2744 
z
" transform="scale(0.015625)"/>
       <path id="TimesNewRomanPSMT-74" d="M 1031 3803 
L 1031 2863 
L 1700 2863 
L 1700 2644 
L 1031 2644 
L 1031 788 
Q 1031 509 1111 412 
Q 1191 316 1316 316 
Q 1419 316 1516 380 
Q 1613 444 1666 569 
L 1788 569 
Q 1678 263 1478 108 
Q 1278 -47 1066 -47 
Q 922 -47 784 33 
Q 647 113 581 261 
Q 516 409 516 719 
L 516 2644 
L 63 2644 
L 63 2747 
Q 234 2816 414 2980 
Q 594 3144 734 3369 
Q 806 3488 934 3803 
L 1031 3803 
z
" transform="scale(0.015625)"/>
       <path id="TimesNewRomanPSMT-66" d="M 1319 2638 
L 1319 756 
Q 1319 356 1406 250 
Q 1522 113 1716 113 
L 1975 113 
L 1975 0 
L 266 0 
L 266 113 
L 394 113 
Q 519 113 622 175 
Q 725 238 764 344 
Q 803 450 803 756 
L 803 2638 
L 247 2638 
L 247 2863 
L 803 2863 
L 803 3050 
Q 803 3478 940 3775 
Q 1078 4072 1361 4255 
Q 1644 4438 1997 4438 
Q 2325 4438 2600 4225 
Q 2781 4084 2781 3909 
Q 2781 3816 2700 3733 
Q 2619 3650 2525 3650 
Q 2453 3650 2373 3701 
Q 2294 3753 2178 3923 
Q 2063 4094 1966 4153 
Q 1869 4213 1750 4213 
Q 1606 4213 1506 4136 
Q 1406 4059 1362 3898 
Q 1319 3738 1319 3069 
L 1319 2863 
L 2056 2863 
L 2056 2638 
L 1319 2638 
z
" transform="scale(0.015625)"/>
       <path id="TimesNewRomanPSMT-68" d="M 1041 4444 
L 1041 2350 
Q 1388 2731 1591 2839 
Q 1794 2947 1997 2947 
Q 2241 2947 2416 2812 
Q 2591 2678 2675 2391 
Q 2734 2191 2734 1659 
L 2734 647 
Q 2734 375 2778 275 
Q 2809 200 2884 156 
Q 2959 113 3159 113 
L 3159 0 
L 1753 0 
L 1753 113 
L 1819 113 
Q 2019 113 2097 173 
Q 2175 234 2206 353 
Q 2216 403 2216 647 
L 2216 1659 
Q 2216 2128 2167 2275 
Q 2119 2422 2012 2495 
Q 1906 2569 1756 2569 
Q 1603 2569 1437 2487 
Q 1272 2406 1041 2159 
L 1041 647 
Q 1041 353 1073 281 
Q 1106 209 1195 161 
Q 1284 113 1503 113 
L 1503 0 
L 84 0 
L 84 113 
Q 275 113 384 172 
Q 447 203 484 290 
Q 522 378 522 647 
L 522 3238 
Q 522 3728 498 3840 
Q 475 3953 426 3993 
Q 378 4034 297 4034 
Q 231 4034 84 3984 
L 41 4094 
L 897 4444 
L 1041 4444 
z
" transform="scale(0.015625)"/>
       <path id="TimesNewRomanPSMT-6b" d="M 1047 4444 
L 1047 1597 
L 1775 2259 
Q 2006 2472 2044 2528 
Q 2069 2566 2069 2603 
Q 2069 2666 2017 2711 
Q 1966 2756 1847 2763 
L 1847 2863 
L 3091 2863 
L 3091 2763 
Q 2834 2756 2664 2684 
Q 2494 2613 2291 2428 
L 1556 1750 
L 2291 822 
Q 2597 438 2703 334 
Q 2853 188 2966 144 
Q 3044 113 3238 113 
L 3238 0 
L 1847 0 
L 1847 113 
Q 1966 116 2008 148 
Q 2050 181 2050 241 
Q 2050 313 1925 472 
L 1047 1594 
L 1047 644 
Q 1047 366 1086 278 
Q 1125 191 1197 153 
Q 1269 116 1509 113 
L 1509 0 
L 53 0 
L 53 113 
Q 272 113 381 166 
Q 447 200 481 272 
Q 528 375 528 628 
L 528 3234 
Q 528 3731 506 3842 
Q 484 3953 434 3995 
Q 384 4038 303 4038 
Q 238 4038 106 3984 
L 53 4094 
L 903 4444 
L 1047 4444 
z
" transform="scale(0.015625)"/>
       <path id="TimesNewRomanPSMT-2d" d="M 259 1672 
L 1875 1672 
L 1875 1200 
L 259 1200 
L 259 1672 
z
" transform="scale(0.015625)"/>
       <path id="DejaVuSans-Oblique-3b8" d="M 2913 2219 
L 925 2219 
Q 791 1284 928 888 
Q 1100 400 1566 400 
Q 2034 400 2391 891 
Q 2703 1322 2913 2219 
z
M 3009 2750 
Q 3094 3638 2984 3950 
Q 2813 4444 2353 4444 
Q 1875 4444 1525 3956 
Q 1250 3563 1034 2750 
L 3009 2750 
z
M 2444 4913 
Q 3194 4913 3494 4250 
Q 3794 3591 3566 2422 
Q 3341 1256 2781 594 
Q 2225 -72 1475 -72 
Q 722 -72 425 594 
Q 128 1256 353 2422 
Q 581 3591 1134 4250 
Q 1691 4913 2444 4913 
z
" transform="scale(0.015625)"/>
       <path id="DejaVuSans-Oblique-6c" d="M 1172 4863 
L 1747 4863 
L 800 0 
L 225 0 
L 1172 4863 
z
" transform="scale(0.015625)"/>
       <path id="TimesNewRomanPSMT-64" d="M 2222 322 
Q 2013 103 1813 7 
Q 1613 -88 1381 -88 
Q 913 -88 563 304 
Q 213 697 213 1313 
Q 213 1928 600 2439 
Q 988 2950 1597 2950 
Q 1975 2950 2222 2709 
L 2222 3238 
Q 2222 3728 2198 3840 
Q 2175 3953 2125 3993 
Q 2075 4034 2000 4034 
Q 1919 4034 1784 3984 
L 1744 4094 
L 2597 4444 
L 2738 4444 
L 2738 1134 
Q 2738 631 2761 520 
Q 2784 409 2836 365 
Q 2888 322 2956 322 
Q 3041 322 3181 375 
L 3216 266 
L 2366 -88 
L 2222 -88 
L 2222 322 
z
M 2222 541 
L 2222 2016 
Q 2203 2228 2109 2403 
Q 2016 2578 1861 2667 
Q 1706 2756 1559 2756 
Q 1284 2756 1069 2509 
Q 784 2184 784 1559 
Q 784 928 1059 592 
Q 1334 256 1672 256 
Q 1956 256 2222 541 
z
" transform="scale(0.015625)"/>
      </defs>
      <use xlink:href="#TimesNewRomanPSMT-41" transform="translate(0 0.234375)"/>
      <use xlink:href="#TimesNewRomanPSMT-6e" transform="translate(72.216797 0.234375)"/>
      <use xlink:href="#TimesNewRomanPSMT-67" transform="translate(122.216797 0.234375)"/>
      <use xlink:href="#TimesNewRomanPSMT-75" transform="translate(172.216797 0.234375)"/>
      <use xlink:href="#TimesNewRomanPSMT-6c" transform="translate(222.216797 0.234375)"/>
      <use xlink:href="#TimesNewRomanPSMT-61" transform="translate(250 0.234375)"/>
      <use xlink:href="#TimesNewRomanPSMT-72" transform="translate(294.384766 0.234375)"/>
      <use xlink:href="#TimesNewRomanPSMT-20" transform="translate(327.685547 0.234375)"/>
      <use xlink:href="#TimesNewRomanPSMT-70" transform="translate(352.685547 0.234375)"/>
      <use xlink:href="#TimesNewRomanPSMT-6f" transform="translate(402.685547 0.234375)"/>
      <use xlink:href="#TimesNewRomanPSMT-73" transform="translate(452.685547 0.234375)"/>
      <use xlink:href="#TimesNewRomanPSMT-69" transform="translate(491.601562 0.234375)"/>
      <use xlink:href="#TimesNewRomanPSMT-74" transform="translate(519.384766 0.234375)"/>
      <use xlink:href="#TimesNewRomanPSMT-69" transform="translate(547.167969 0.234375)"/>
      <use xlink:href="#TimesNewRomanPSMT-6f" transform="translate(574.951172 0.234375)"/>
      <use xlink:href="#TimesNewRomanPSMT-6e" transform="translate(624.951172 0.234375)"/>
      <use xlink:href="#TimesNewRomanPSMT-20" transform="translate(674.951172 0.234375)"/>
      <use xlink:href="#TimesNewRomanPSMT-6f" transform="translate(699.951172 0.234375)"/>
      <use xlink:href="#TimesNewRomanPSMT-66" transform="translate(749.951172 0.234375)"/>
      <use xlink:href="#TimesNewRomanPSMT-20" transform="translate(783.251953 0.234375)"/>
      <use xlink:href="#TimesNewRomanPSMT-74" transform="translate(808.251953 0.234375)"/>
      <use xlink:href="#TimesNewRomanPSMT-68" transform="translate(836.035156 0.234375)"/>
      <use xlink:href="#TimesNewRomanPSMT-65" transform="translate(886.035156 0.234375)"/>
      <use xlink:href="#TimesNewRomanPSMT-20" transform="translate(930.419922 0.234375)"/>
      <use xlink:href="#TimesNewRomanPSMT-6c" transform="translate(955.419922 0.234375)"/>
      <use xlink:href="#TimesNewRomanPSMT-69" transform="translate(983.203125 0.234375)"/>
      <use xlink:href="#TimesNewRomanPSMT-6e" transform="translate(1010.986328 0.234375)"/>
      <use xlink:href="#TimesNewRomanPSMT-6b" transform="translate(1060.986328 0.234375)"/>
      <use xlink:href="#TimesNewRomanPSMT-20" transform="translate(1110.986328 0.234375)"/>
      <use xlink:href="#TimesNewRomanPSMT-2d" transform="translate(1135.986328 0.234375)"/>
      <use xlink:href="#TimesNewRomanPSMT-20" transform="translate(1169.287109 0.234375)"/>
      <use xlink:href="#DejaVuSans-Oblique-3b8" transform="translate(1194.287109 0.234375)"/>
      <use xlink:href="#DejaVuSans-Oblique-6c" transform="translate(1255.46875 -16.171875) scale(0.7)"/>
      <use xlink:href="#TimesNewRomanPSMT-20" transform="translate(1277.651367 0.234375)"/>
      <use xlink:href="#TimesNewRomanPSMT-28" transform="translate(1302.651367 0.234375)"/>
      <use xlink:href="#TimesNewRomanPSMT-72" transform="translate(1335.952148 0.234375)"/>
      <use xlink:href="#TimesNewRomanPSMT-61" transform="translate(1369.25293 0.234375)"/>
      <use xlink:href="#TimesNewRomanPSMT-64" transform="translate(1413.637695 0.234375)"/>
      <use xlink:href="#TimesNewRomanPSMT-29" transform="translate(1463.637695 0.234375)"/>
     </g>
    </g>
   </g>
   <g id="line2d_29">
    <path d="M 69.218182 144.406639 
L 69.355145 148.360624 
L 69.370364 148.361404 
L 69.461673 144.014706 
L 69.507327 144.025903 
L 69.522545 144.029443 
L 69.674727 147.06306 
L 69.689945 144.46599 
L 69.781255 145.354469 
L 69.826909 145.35082 
L 69.903 142.083585 
L 69.918218 146.507996 
L 69.979091 146.501855 
L 69.994309 148.238029 
L 70.085618 147.236726 
L 70.131273 147.220739 
L 70.146491 147.755846 
L 70.207364 147.72864 
L 70.329109 144.911144 
L 70.359545 144.898723 
L 70.435636 143.227719 
L 70.481291 143.697103 
L 70.511727 143.68768 
L 70.587818 143.089144 
L 70.603036 144.909285 
L 70.694345 142.602173 
L 70.74 142.577056 
L 70.816091 141.83736 
L 70.831309 143.289793 
L 70.892182 143.252646 
L 70.9074 144.4795 
L 70.998709 142.967329 
L 71.044364 142.929533 
L 71.120455 141.666098 
L 71.135673 143.151188 
L 71.150891 143.137042 
L 71.196545 143.093102 
L 71.333509 142.381412 
L 71.348727 142.36406 
L 71.424818 140.163979 
L 71.440036 142.391713 
L 71.455255 142.373677 
L 71.500909 142.317743 
L 71.577 141.307685 
L 71.607436 141.796821 
L 71.653091 141.73218 
L 71.7444 147.365945 
L 71.790055 147.266786 
L 71.805273 147.231176 
L 71.942236 144.805931 
L 71.957455 144.760286 
L 72.033545 143.342615 
L 72.0792 143.382803 
L 72.2466 142.390716 
L 72.261818 142.326338 
L 72.277036 143.941547 
L 72.353127 141.629914 
L 72.414 141.33707 
L 72.490091 139.393086 
L 72.520527 141.205734 
L 72.642273 140.58564 
L 72.718364 138.558709 
L 72.7488 139.552266 
L 72.794455 139.256212 
L 72.946636 135.331141 
L 73.098818 133.347847 
L 73.190127 133.723907 
L 73.174909 133.145792 
L 73.205345 133.597771 
L 73.479273 131.683993 
L 73.570582 133.860449 
L 73.601018 133.546105 
L 73.631455 133.226264 
L 73.646673 134.215356 
L 73.707545 133.555188 
L 73.722764 133.965335 
L 73.783636 133.270189 
L 73.9206 128.515639 
L 74.088 126.518529 
L 74.209745 122.784678 
L 74.240182 122.38651 
L 74.2554 123.702618 
L 74.331491 122.080493 
L 74.468455 120.693033 
L 74.483673 122.560791 
L 74.544545 121.706551 
L 74.620636 117.206837 
L 74.666291 117.506007 
L 75.229364 108.915935 
L 75.244582 110.993835 
L 75.320673 107.575201 
L 75.685909 102.191064 
L 75.701127 103.997155 
L 75.792436 102.497717 
L 76.142455 96.20838 
L 76.218545 93.853733 
L 76.2642 94.597703 
L 76.675091 89.914605 
L 76.690309 90.657807 
L 76.781618 89.894572 
L 76.979455 87.859675 
L 77.040327 88.354474 
L 77.070764 88.589428 
L 77.131636 88.077369 
L 77.222945 90.053151 
L 77.253382 89.815451 
L 77.359909 88.951645 
L 77.436 88.971132 
L 77.572964 85.914318 
L 77.664273 85.465088 
L 77.816455 82.238203 
L 77.968636 79.375161 
L 77.983855 81.363932 
L 78.075164 80.723094 
L 78.120818 80.694568 
L 78.196909 81.46558 
L 78.212127 79.901271 
L 78.273 79.961053 
L 78.364309 78.437583 
L 78.394745 78.520672 
L 78.425182 78.615509 
L 78.4404 77.972794 
L 78.531709 78.439213 
L 78.592582 78.392828 
L 78.653455 78.739581 
L 78.790418 83.417298 
L 78.805636 83.533405 
L 78.820855 82.709266 
L 78.896945 83.748712 
L 79.399145 88.936241 
L 79.490455 90.467458 
L 79.566545 89.992852 
L 79.581764 89.191377 
L 79.642636 90.212933 
L 79.718727 92.193979 
L 79.764382 91.280244 
L 79.870909 94.924298 
L 80.053527 100.00239 
L 80.631818 115.517205 
L 80.784 122.001799 
L 80.799218 121.910174 
L 80.814436 122.384346 
L 80.875309 121.906459 
L 82.001455 160.645718 
L 82.138418 166.914843 
L 83.355873 205.452899 
L 83.386309 203.915264 
L 83.873291 215.415898 
L 84.816818 231.876561 
L 84.832036 231.877684 
L 85.045091 235.076275 
L 85.166836 236.77858 
L 85.273364 237.903838 
L 85.364673 236.265049 
L 85.395109 236.4676 
L 85.653818 237.529077 
L 85.669036 236.336605 
L 85.760345 237.019792 
L 85.806 237.183363 
L 86.003836 240.755977 
L 86.034273 240.810842 
L 86.049491 239.655382 
L 86.1408 240.349329 
L 86.186455 240.391559 
L 86.338636 239.75132 
L 86.353855 240.075363 
L 86.429945 239.616393 
L 86.490818 239.559056 
L 86.566909 238.015556 
L 86.612564 238.036984 
L 86.643 237.971426 
L 86.734309 240.144862 
L 86.764745 240.042786 
L 86.947364 239.208454 
L 87.023455 238.044687 
L 87.069109 238.611162 
L 87.099545 238.399822 
L 87.175636 236.856941 
L 87.221291 236.901526 
L 87.266945 237.162234 
L 87.662618 232.144215 
L 87.936545 227.04238 
L 88.088727 222.326537 
L 88.103945 222.487743 
L 88.134382 221.84244 
L 88.621364 209.502808 
L 88.758327 203.798263 
L 89.610545 174.871934 
L 89.838818 164.406061 
L 89.854036 165.732361 
L 92.075891 71.577917 
L 92.699836 57.410402 
L 92.806364 54.330139 
L 92.882455 54.743782 
L 92.897673 56.026321 
L 92.988982 54.867365 
L 93.110727 54.081679 
L 93.125945 55.977938 
L 93.217255 55.553851 
L 93.567273 51.152053 
L 93.643364 49.455544 
L 93.689018 49.621584 
L 93.795545 48.557858 
L 93.932509 45.281112 
L 93.947727 45.236805 
L 94.023818 44.443636 
L 94.054255 45.080799 
L 94.099909 45.027428 
L 94.328182 48.610075 
L 94.3434 48.061824 
L 94.434709 48.456715 
L 94.495582 48.368685 
L 94.556455 48.642651 
L 94.571673 47.968315 
L 94.662982 48.231444 
L 94.708636 48.517322 
L 94.723855 47.571359 
L 94.784727 47.992766 
L 94.921691 52.056923 
L 94.952127 51.989097 
L 95.165182 55.241292 
L 95.317364 59.399454 
L 95.408673 58.464561 
L 95.393455 59.742153 
L 95.439109 58.93536 
L 96.154364 71.900386 
L 96.291327 76.351365 
L 97.250073 106.339653 
L 98.056636 145.358654 
L 98.284909 156.156566 
L 98.300127 155.913039 
L 98.315345 156.611736 
L 99.274091 196.006332 
L 99.289309 195.474372 
L 99.334964 197.023001 
L 100.263273 224.389118 
L 100.278491 224.235282 
L 100.308927 224.809979 
L 100.643727 230.762642 
L 100.658945 229.132074 
L 100.750255 229.505901 
L 100.795909 230.053211 
L 100.811127 228.778306 
L 100.902436 229.897069 
L 101.100273 231.261734 
L 101.115491 230.607706 
L 101.191582 231.534827 
L 101.404636 232.592054 
L 101.5416 234.52527 
L 101.556818 234.536864 
L 101.648127 235.311673 
L 101.678564 235.293663 
L 101.709 235.263531 
L 101.724218 235.66304 
L 101.785091 235.563966 
L 101.952491 231.980142 
L 102.089455 231.276915 
L 102.180764 232.500719 
L 102.2112 232.283778 
L 102.256855 232.750336 
L 102.469909 229.745009 
L 102.606873 226.154389 
L 102.774273 223.37703 
L 102.911236 221.484845 
L 102.941673 222.284769 
L 103.078636 220.332809 
L 103.093855 220.898819 
L 103.154727 219.725185 
L 103.169945 220.188456 
L 103.809109 205.122832 
L 104.433055 182.925612 
L 105.361364 142.565829 
L 105.543982 134.355128 
L 105.894 123.578317 
L 105.909218 123.511018 
L 106.944055 84.643553 
L 107.187545 80.265807 
L 107.202764 80.84117 
L 107.263636 79.309237 
L 107.431036 73.007726 
L 108.100636 60.216646 
L 108.115855 60.44705 
L 108.176727 59.68439 
L 108.298473 57.448492 
L 108.481091 54.771714 
L 108.557182 53.187552 
L 108.602836 53.368022 
L 108.709364 52.744906 
L 108.724582 53.532199 
L 108.815891 52.778167 
L 108.937636 52.492538 
L 108.952855 53.424998 
L 109.044164 52.959363 
L 109.165909 52.943272 
L 109.318091 55.235358 
L 109.333309 54.054284 
L 109.424618 54.545026 
L 109.546364 55.214686 
L 109.698545 56.766456 
L 109.789855 55.122086 
L 109.820291 55.338536 
L 109.926818 56.299082 
L 109.942036 54.366369 
L 110.048564 54.701981 
L 110.292055 58.267538 
L 110.642073 64.517859 
L 110.992091 72.930556 
L 111.068182 75.407616 
L 111.113836 74.155789 
L 111.829091 92.690938 
L 111.966055 98.741109 
L 112.361727 116.851882 
L 112.529127 124.311527 
L 114.264 195.256209 
L 114.279218 195.154748 
L 114.294436 195.657668 
L 115.405364 228.907366 
L 115.420582 228.709629 
L 115.466236 229.478839 
L 115.633636 232.87636 
L 115.709727 232.718659 
L 115.724945 231.794811 
L 115.785818 232.559525 
L 115.861909 235.234487 
L 115.907564 234.132626 
L 116.166273 236.518181 
L 115.953218 234.004037 
L 116.181491 235.900397 
L 116.242364 236.333375 
L 116.257582 235.615874 
L 116.348891 236.338508 
L 116.394545 236.581522 
L 116.470636 238.349231 
L 116.501073 236.696671 
L 116.546727 236.857165 
L 116.622818 238.312545 
L 116.653255 237.661725 
L 116.775 238.017366 
L 116.927182 236.598357 
L 116.9424 237.806382 
L 117.033709 236.843535 
L 117.079364 236.721958 
L 117.246764 233.239261 
L 117.307636 232.919685 
L 117.322855 233.708455 
L 117.414164 233.425692 
L 117.459818 233.099893 
L 117.596782 229.871106 
L 117.612 229.737128 
L 117.627218 230.963575 
L 117.718527 230.283719 
L 117.7794 230.399781 
L 117.840273 229.719755 
L 117.855491 230.6104 
L 117.9468 229.940558 
L 118.068545 227.865272 
L 118.144636 228.614172 
L 118.159855 228.60419 
L 118.449 222.376842 
L 118.646836 217.702198 
L 118.692491 217.802563 
L 119.072945 205.30585 
L 119.864291 178.272105 
L 120.823036 134.542577 
L 121.720909 98.032741 
L 121.736127 98.582934 
L 122.101364 88.971596 
L 122.1318 88.427235 
L 123.151418 60.262987 
L 123.166636 60.029514 
L 123.181855 61.485202 
L 123.227509 60.801755 
L 123.699273 55.21264 
L 123.714491 55.99397 
L 123.8058 55.074662 
L 123.927545 53.790112 
L 124.003636 52.683158 
L 124.018855 53.916269 
L 124.034073 53.831536 
L 124.079727 53.592926 
L 124.155818 52.367999 
L 124.201473 52.379332 
L 124.231909 52.287697 
L 124.368873 48.691509 
L 124.384091 48.674647 
L 124.460182 48.449463 
L 124.627582 51.039931 
L 124.688455 51.171866 
L 124.764545 52.644798 
L 124.8102 52.154504 
L 124.916727 52.524979 
L 124.931945 50.917886 
L 125.023255 52.971502 
L 125.175436 54.794037 
L 125.221091 55.209992 
L 125.236309 54.295877 
L 125.327618 54.664516 
L 125.753727 58.748499 
L 125.768945 57.743496 
L 125.845036 60.032964 
L 126.210273 68.529181 
L 126.438545 73.672172 
L 126.590727 77.726497 
L 127.427727 110.10154 
L 127.442945 108.323483 
L 127.519036 111.781399 
L 128.949545 174.977012 
L 129.147382 183.404785 
L 129.938727 209.953813 
L 130.136564 214.565684 
L 130.471364 221.732944 
L 130.5018 220.938093 
L 130.623545 224.927173 
L 130.699636 228.110424 
L 130.745291 228.076344 
L 130.790945 228.041295 
L 131.034436 231.016078 
L 131.384455 234.640624 
L 131.521418 238.584559 
L 131.536636 238.678212 
L 131.627945 237.678954 
L 131.658382 237.823305 
L 131.764909 238.634059 
L 131.841 238.250121 
L 131.856218 238.08161 
L 131.932309 238.426974 
L 131.993182 238.482012 
L 132.038836 238.936151 
L 132.099709 238.758602 
L 132.145364 238.70804 
L 132.236673 240.475055 
L 132.267109 240.391717 
L 132.297545 240.296562 
L 132.373636 239.404554 
L 132.419291 239.48045 
L 132.449727 239.331221 
L 132.586691 238.005347 
L 132.601909 237.903591 
L 132.617127 238.624159 
L 132.693218 237.653426 
L 132.754091 237.158005 
L 132.769309 238.589666 
L 132.860618 236.970743 
L 132.967145 234.841507 
L 133.058455 233.157686 
L 133.073673 234.967815 
L 133.164982 233.097382 
L 133.225855 233.650969 
L 133.591091 226.302076 
L 133.758491 221.94147 
L 134.352 207.093211 
L 134.504182 200.615078 
L 134.808545 188.263951 
L 134.823764 188.241534 
L 135.554236 156.810019 
L 137.228236 87.361731 
L 138.0348 64.789576 
L 138.719618 53.319751 
L 139.069636 50.268317 
L 139.084855 51.184822 
L 139.176164 50.541965 
L 139.221818 50.271798 
L 139.237036 52.125244 
L 139.328345 51.444496 
L 139.374 51.270727 
L 139.510964 48.881225 
L 139.526182 48.857908 
L 139.5414 49.032015 
L 139.556618 49.013826 
L 139.602273 48.9762 
L 139.663145 48.641319 
L 139.7088 48.915575 
L 139.754455 48.957897 
L 139.891418 50.287127 
L 139.906636 50.333642 
L 139.997945 49.102198 
L 140.028382 49.235756 
L 140.058818 49.380887 
L 140.134909 51.266084 
L 140.180564 50.82921 
L 140.211 51.023732 
L 140.3784 54.637577 
L 140.454491 54.552291 
L 140.819727 58.603111 
L 140.956691 62.703942 
L 140.987127 62.578255 
L 141.671945 76.212276 
L 142.189364 92.078372 
L 142.417636 102.939029 
L 142.432855 102.977388 
L 143.482909 145.939608 
L 143.650309 156.986558 
L 144.396 185.745035 
L 144.411218 185.035429 
L 144.472091 187.318265 
L 145.461273 220.630872 
L 145.522145 219.810419 
L 145.552582 219.61601 
L 146.146091 231.653526 
L 146.2374 230.085077 
L 146.222182 231.683629 
L 146.267836 230.455791 
L 146.754818 234.940887 
L 146.770036 233.851389 
L 146.876564 234.082473 
L 146.922218 233.931912 
L 147.059182 235.270077 
L 147.211364 236.409205 
L 147.348327 235.580416 
L 147.363545 235.567162 
L 147.454855 237.890014 
L 147.485291 237.821232 
L 147.515727 237.740902 
L 147.591818 235.476256 
L 147.622255 236.380589 
L 147.667909 236.183234 
L 147.683127 237.08278 
L 147.774436 236.848458 
L 147.820091 236.568528 
L 147.835309 237.715749 
L 147.926618 236.231126 
L 147.972273 235.865423 
L 148.048364 233.215014 
L 148.094018 233.585015 
L 148.291855 230.556682 
L 148.352727 229.778453 
L 148.474473 226.812715 
L 148.839709 219.700332 
L 149.646273 201.209168 
L 149.874545 195.428277 
L 149.889764 196.501041 
L 149.950636 194.299947 
L 150.787636 157.673772 
L 150.802855 158.072214 
L 150.833291 156.721677 
L 152.720345 77.591111 
L 153.207327 67.180127 
L 153.526909 61.343841 
L 153.587782 61.50489 
L 154.059545 52.546428 
L 154.196509 50.564748 
L 154.226945 50.901081 
L 154.668273 47.018995 
L 154.683491 47.858797 
L 154.7748 46.79293 
L 154.820455 46.769351 
L 154.9422 47.700313 
L 154.972636 47.746243 
L 155.1096 49.358523 
L 155.124818 49.408493 
L 155.261782 50.506297 
L 155.353091 50.888955 
L 155.490055 52.751319 
L 155.581364 54.210363 
L 155.748764 58.442468 
L 156.250964 65.15833 
L 156.585764 72.763043 
L 157.392327 93.190718 
L 157.422764 92.541332 
L 158.168455 122.649554 
L 158.244545 127.248971 
L 158.305418 127.009765 
L 160.359873 212.578165 
L 160.390309 212.057136 
L 160.755545 221.262936 
L 160.770764 220.189798 
L 160.846855 222.569426 
L 161.212091 228.511083 
L 161.227309 228.113062 
L 161.288182 229.034329 
L 161.364273 229.977788 
L 161.562109 232.767518 
L 161.896909 235.200623 
L 161.912127 233.635286 
L 162.003436 234.177924 
L 162.049091 234.422161 
L 162.170836 238.227071 
L 162.201273 238.336945 
L 162.216491 237.794627 
L 162.292582 239.016956 
L 162.353455 239.145304 
L 162.368673 238.954065 
L 162.414327 239.023476 
L 162.429545 239.041707 
L 162.505636 239.564983 
L 162.551291 239.441407 
L 162.581727 239.426572 
L 162.673036 239.923067 
L 162.703473 239.866923 
L 162.733909 239.800535 
L 162.855655 238.658024 
L 162.886091 238.531749 
L 162.9774 239.547813 
L 163.007836 239.370023 
L 163.373073 236.451754 
L 163.525255 233.481252 
L 163.586127 233.606141 
L 163.799182 228.817932 
L 164.088327 220.184707 
L 164.118764 221.000079 
L 164.331818 216.802356 
L 164.347036 217.183909 
L 164.392691 216.062255 
L 164.423127 216.241666 
L 165.062291 196.651667 
L 165.853636 165.274832 
L 166.005818 156.575096 
L 166.021036 157.22222 
L 167.710255 87.520891 
L 168.288545 71.349956 
L 168.318982 71.557384 
L 168.973364 58.944785 
L 168.988582 59.046927 
L 169.019018 58.632173 
L 169.353818 53.330416 
L 169.429909 51.645756 
L 169.475564 52.43009 
L 169.521218 52.539211 
L 169.658182 51.08236 
L 169.749491 53.003916 
L 169.795145 52.827178 
L 169.886455 52.636242 
L 169.977764 54.318969 
L 170.0082 54.289678 
L 170.038636 54.272073 
L 170.069073 52.684678 
L 170.145164 53.388125 
L 170.190818 53.435402 
L 170.312564 54.190099 
L 170.343 54.282101 
L 170.479964 56.421303 
L 170.5104 57.087028 
L 170.571273 57.401398 
L 170.662582 55.562949 
L 170.693018 55.771108 
L 170.738673 55.692604 
L 170.951727 57.628049 
L 170.966945 56.546934 
L 171.058255 57.207172 
L 171.256091 58.506342 
L 171.377836 62.495673 
L 172.001782 74.052676 
L 172.625727 92.086775 
L 172.808345 99.196891 
L 173.462727 125.958387 
L 173.630127 134.642488 
L 173.995364 147.520642 
L 174.010582 146.239947 
L 174.071455 148.97485 
L 174.284509 160.709011 
L 175.228036 197.268118 
L 176.110691 223.049964 
L 176.582455 230.9306 
L 176.597673 230.632264 
L 176.658545 231.429921 
L 176.734636 232.803925 
L 176.780291 232.113618 
L 176.886818 233.363079 
L 176.962909 235.403681 
L 177.008564 235.146895 
L 177.039 235.397745 
L 177.054218 234.652423 
L 177.115091 235.120848 
L 177.130309 233.969219 
L 177.2064 235.42965 
L 177.419455 237.281964 
L 177.434673 235.866703 
L 177.525982 236.821629 
L 177.571636 236.913834 
L 177.647727 239.867989 
L 177.693382 239.201664 
L 177.876 239.259778 
L 177.952091 238.060945 
L 177.997745 238.309759 
L 178.028182 238.19128 
L 178.104273 237.333504 
L 178.119491 238.465495 
L 178.180364 238.127714 
L 178.195582 238.845806 
L 178.256455 238.455224 
L 178.3782 235.611054 
L 178.408636 235.356019 
L 178.5456 233.218006 
L 178.576036 233.238059 
L 178.789091 230.369949 
L 178.865182 228.523813 
L 178.926055 228.590062 
L 179.169545 225.019179 
L 179.184764 226.565285 
L 179.276073 225.906787 
L 179.610873 217.053415 
L 180.234818 198.580873 
L 180.447873 189.124322 
L 180.478309 189.325233 
L 181.528364 144.410041 
L 181.7262 135.973514 
L 183.004527 84.490614 
L 183.582818 68.619578 
L 183.598036 69.540832 
L 183.658909 68.251331 
L 183.811091 63.981344 
L 183.826309 64.838016 
L 183.887182 63.749384 
L 184.039364 60.775138 
L 184.054582 62.43354 
L 184.145891 60.744608 
L 184.419818 55.898065 
L 184.556782 53.466304 
L 184.800273 51.098366 
L 184.830709 52.019827 
L 185.256818 49.482671 
L 185.332909 48.499404 
L 185.363345 48.873007 
L 185.409 48.904518 
L 185.545964 52.304661 
L 185.561182 52.345625 
L 185.682927 54.07038 
L 185.713364 54.207903 
L 185.728582 53.542436 
L 185.819891 54.310444 
L 185.880764 54.265735 
L 185.941636 54.691456 
L 185.956855 53.948711 
L 186.048164 54.708179 
L 186.169909 56.273461 
L 186.185127 54.878515 
L 186.261218 57.075951 
L 186.702545 62.980027 
L 186.839509 66.254456 
L 187.296055 77.679792 
L 188.072182 100.695439 
L 188.270018 110.066949 
L 189.000491 143.567253 
L 190.278818 196.86126 
L 190.294036 196.142457 
L 190.354909 198.265275 
L 190.963636 215.903028 
L 190.978855 214.855785 
L 191.054945 216.486563 
L 191.115818 217.927379 
L 191.191909 217.870915 
L 191.207127 217.085567 
L 191.268 218.393913 
L 191.420182 222.16682 
L 191.4354 221.447716 
L 191.648455 226.004505 
L 191.785418 230.163285 
L 191.876727 231.809665 
L 192.013691 235.149284 
L 192.485455 239.459266 
L 192.500673 238.211048 
L 192.591982 239.502363 
L 192.637636 239.681993 
L 192.652855 239.015201 
L 192.728945 239.898512 
L 192.942 240.28356 
L 192.957218 241.119608 
L 193.033309 239.905825 
L 193.094182 239.807986 
L 193.215927 237.857669 
L 193.246364 237.737603 
L 193.337673 238.757937 
L 193.368109 238.592067 
L 193.474636 237.91784 
L 193.489855 239.768539 
L 193.581164 239.154465 
L 193.626818 238.776661 
L 193.779 234.487338 
L 193.794218 235.235493 
L 193.855091 234.565759 
L 193.992055 229.681238 
L 194.326855 223.727476 
L 194.7834 213.614873 
L 195.529091 192.821759 
L 195.7878 184.04798 
L 196.898727 138.96001 
L 197.035691 128.433487 
L 198.085745 86.562766 
L 198.450982 78.348174 
L 198.724909 68.44398 
L 198.861873 64.771553 
L 199.287982 58.139695 
L 199.638 53.35725 
L 199.653218 56.180806 
L 199.744527 55.468412 
L 199.866273 54.575385 
L 199.896709 55.071416 
L 199.942364 54.7154 
L 200.079327 51.499045 
L 200.475 48.9039 
L 200.551091 49.379766 
L 200.688055 51.003546 
L 200.703273 51.030918 
L 200.840236 53.354669 
L 200.870673 53.292093 
L 200.931545 53.551565 
L 200.946764 53.314651 
L 201.007636 53.628573 
L 201.159818 55.162178 
L 201.175036 54.928531 
L 201.235909 55.411547 
L 201.372873 57.73522 
L 201.844636 63.139943 
L 202.012036 66.649529 
L 202.331618 74.797266 
L 203.396891 103.040821 
L 204.446945 148.689776 
L 205.725273 202.51392 
L 205.740491 202.288035 
L 206.105727 211.343181 
L 206.120945 210.852087 
L 206.181818 212.394981 
L 206.334 217.169463 
L 206.349218 216.991497 
L 206.379655 217.674601 
L 206.988382 228.793656 
L 207.8406 239.520921 
L 207.855818 239.578139 
L 207.871036 238.668893 
L 207.977564 238.752095 
L 208.008 238.817335 
L 208.023218 238.124204 
L 208.099309 239.238268 
L 208.160182 239.25519 
L 208.281927 237.180087 
L 208.312364 237.130755 
L 208.449327 235.194083 
L 208.464545 235.141586 
L 208.540636 233.477116 
L 208.571073 234.950074 
L 208.692818 234.097447 
L 208.768909 232.457444 
L 208.799345 233.362754 
L 209.118927 230.054433 
L 209.164582 230.64341 
L 209.529818 224.870115 
L 209.682 219.288459 
L 209.712436 218.946594 
L 210.366818 204.067952 
L 210.519 198.528337 
L 210.534218 198.569991 
L 211.279909 173.326497 
L 211.432091 163.8129 
L 211.447309 163.961198 
L 211.462527 163.303025 
L 213.182182 92.784942 
L 213.1974 94.416554 
L 213.273491 92.080664 
L 214.186582 65.525552 
L 214.551818 57.387394 
L 214.643127 58.784698 
L 214.932273 55.470354 
L 214.962709 56.013079 
L 215.084455 54.97864 
L 215.160545 55.072177 
L 215.175764 55.158583 
L 215.221418 54.858738 
L 215.236636 54.76401 
L 215.312727 53.569257 
L 215.343164 54.382741 
L 215.388818 54.162153 
L 215.404036 55.739196 
L 215.495345 53.945511 
L 215.617091 53.219632 
L 215.754055 52.332136 
L 215.769273 52.328333 
L 215.860582 49.82036 
L 215.891018 49.855693 
L 215.921455 49.902029 
L 216.058418 51.621668 
L 216.073636 51.672724 
L 216.164945 50.320017 
L 216.195382 50.466779 
L 216.362782 51.882234 
L 216.378 51.993367 
L 216.530182 55.55713 
L 216.621491 54.059951 
L 216.651927 54.378723 
L 216.758455 55.553891 
L 216.895418 58.523249 
L 216.925855 58.222501 
L 217.215 62.305619 
L 217.230218 61.691169 
L 217.291091 62.893398 
L 217.534582 70.237636 
L 218.112873 86.394393 
L 218.508545 101.92483 
L 218.782473 112.680863 
L 220.943455 196.523179 
L 220.973891 197.098712 
L 222.008727 226.475851 
L 222.373964 231.969579 
L 222.4044 231.309687 
L 222.587018 233.186004 
L 222.921818 236.43193 
L 223.043564 238.024283 
L 223.074 238.135785 
L 223.165309 236.133104 
L 223.195745 236.205251 
L 223.226182 236.267364 
L 223.317491 234.732484 
L 223.363145 234.751014 
L 223.378364 234.751814 
L 223.393582 236.164988 
L 223.500109 235.751134 
L 223.606636 235.383153 
L 223.682727 235.509413 
L 223.697945 236.39009 
L 223.789255 235.722879 
L 223.834909 235.47976 
L 223.850127 236.054796 
L 223.911 235.680802 
L 224.047964 231.605539 
L 224.063182 231.478092 
L 224.154491 233.021016 
L 224.184927 232.722495 
L 224.367545 231.019751 
L 224.382764 232.15566 
L 224.474073 231.139419 
L 224.519727 230.497535 
L 224.534945 231.878803 
L 224.611036 229.58077 
L 225.128455 220.029383 
L 225.280636 215.488159 
L 225.295855 216.422569 
L 225.371945 214.785651 
L 225.585 208.099323 
L 225.721964 202.170704 
L 226.345909 180.486332 
L 226.482873 173.080355 
L 227.563364 124.334655 
L 227.715545 117.868138 
L 227.852509 111.856055 
L 228.704727 81.276895 
L 228.780818 79.157288 
L 228.933 73.165589 
L 229.069964 69.263556 
L 229.343891 65.276409 
L 229.541727 62.948962 
L 229.556945 63.274637 
L 229.617818 62.236404 
L 229.77 58.025934 
L 229.922182 54.758791 
L 229.967836 54.812734 
L 230.409164 50.863787 
L 230.759182 48.50801 
L 230.7744 49.400137 
L 230.865709 48.581402 
L 230.911364 48.513676 
L 231.063545 49.408379 
L 231.154855 48.80758 
L 231.185291 48.876543 
L 231.215727 48.957809 
L 231.291818 50.425725 
L 231.337473 50.404517 
L 231.520091 51.202814 
L 231.596182 52.404141 
L 231.641836 51.823226 
L 231.976636 54.17944 
L 231.991855 52.97057 
L 232.067945 55.604034 
L 232.220127 59.318618 
L 232.6158 67.317053 
L 232.965818 75.417372 
L 233.087564 80.799802 
L 233.726727 101.373745 
L 233.894127 108.422569 
L 236.313818 200.683116 
L 236.329036 200.661528 
L 237.379091 230.176459 
L 237.439964 230.14584 
L 237.911727 235.339321 
L 237.926945 234.63657 
L 238.003036 236.189304 
L 238.063909 236.587868 
L 238.14 236.566063 
L 238.155218 235.944363 
L 238.246527 236.393521 
L 238.292182 236.580962 
L 238.368273 237.489743 
L 238.413927 237.068406 
L 238.444364 237.146918 
L 238.566109 238.329291 
L 238.596545 238.349525 
L 238.733509 236.962698 
L 238.748727 236.942243 
L 238.824818 236.277493 
L 238.855255 236.74537 
L 238.900909 236.5933 
L 238.916127 237.719959 
L 239.007436 236.752405 
L 239.053091 236.512974 
L 239.129182 234.645454 
L 239.174836 235.182717 
L 239.281364 234.329366 
L 239.357455 234.381112 
L 239.372673 234.932274 
L 239.433545 234.311913 
L 239.570509 232.598316 
L 239.600945 232.835205 
L 239.737909 230.416626 
L 239.874873 225.541376 
L 240.422727 214.697825 
L 240.590127 209.874905 
L 241.335818 187.433309 
L 241.533655 179.932319 
L 242.735891 127.684437 
L 243.618545 93.628467 
L 243.633764 93.902708 
L 243.6642 92.889853 
L 244.303364 75.283337 
L 244.318582 75.587507 
L 244.364236 74.494259 
L 245.444727 50.93554 
L 245.536036 52.146759 
L 245.566473 51.929207 
L 245.596909 51.724179 
L 245.718655 49.303459 
L 245.749091 49.161747 
L 245.8404 50.593058 
L 245.870836 50.492306 
L 245.977364 50.201599 
L 246.053455 49.151083 
L 246.068673 50.344844 
L 246.083891 50.332992 
L 246.129545 50.31442 
L 246.205636 50.700828 
L 246.220855 50.120209 
L 246.281727 50.189114 
L 246.433909 53.222057 
L 246.525218 50.98905 
L 246.555655 51.11907 
L 246.586091 51.259718 
L 246.662182 52.354521 
L 246.692618 51.614733 
L 247.149164 55.006593 
L 247.331782 58.33263 
L 247.712236 65.006708 
L 248.336182 78.774639 
L 248.473145 85.12832 
L 248.503582 84.762032 
L 249.477545 120.1863 
L 249.629727 130.703086 
L 249.766691 135.588363 
L 251.273291 197.92059 
L 252.018982 219.728413 
L 252.734236 233.166205 
L 253.053818 238.419535 
L 253.129909 238.14144 
L 253.221218 235.492105 
L 253.251655 235.711006 
L 253.814727 238.929433 
L 253.890818 238.801953 
L 254.058218 240.69625 
L 254.088655 240.601764 
L 254.119091 240.496593 
L 254.256055 238.363008 
L 254.271273 238.280409 
L 254.286491 239.632857 
L 254.3778 238.594963 
L 254.438673 238.687643 
L 254.575636 237.369951 
L 254.697382 234.416041 
L 254.88 231.584613 
L 255.032182 229.601584 
L 255.0474 229.88521 
L 255.093055 229.152662 
L 255.351764 223.0823 
L 255.488727 219.587181 
L 255.564818 215.833871 
L 255.610473 216.90847 
L 255.853964 208.47929 
L 256.554 186.420895 
L 256.736618 179.384536 
L 258.304091 113.247947 
L 258.456273 106.272078 
L 258.988909 88.842571 
L 259.004127 90.314125 
L 259.080218 87.869568 
L 259.749818 69.696625 
L 259.841127 70.663915 
L 259.825909 69.345303 
L 259.856345 70.373067 
L 260.510727 58.644118 
L 260.602036 60.45528 
L 260.632473 60.150681 
L 260.739 58.657515 
L 260.815091 57.266359 
L 260.830309 58.851617 
L 260.845527 58.74902 
L 260.891182 58.459647 
L 261.012927 55.712843 
L 261.119455 55.446803 
L 261.195545 54.1395 
L 261.2412 54.478723 
L 261.271636 54.427986 
L 261.4086 52.478148 
L 261.423818 52.47994 
L 261.499909 53.79827 
L 261.530345 52.542307 
L 261.576 52.616468 
L 261.728182 55.238332 
L 261.819491 54.084756 
L 261.804273 55.270641 
L 261.895582 54.200714 
L 261.971673 55.333015 
L 262.032545 55.774373 
L 262.047764 54.450013 
L 262.139073 55.296988 
L 262.413 57.468808 
L 262.428218 56.333495 
L 262.519527 57.505021 
L 262.976073 65.241759 
L 263.402182 75.979085 
L 263.630455 83.089335 
L 263.645673 82.524434 
L 263.691327 83.919014 
L 263.934818 93.070588 
L 264.071782 98.824559 
L 264.802255 129.285029 
L 266.324073 190.218231 
L 266.902364 209.493112 
L 266.917582 207.754801 
L 267.663273 225.698502 
L 267.678491 224.921208 
L 267.754582 225.928512 
L 267.967636 230.301401 
L 268.043727 231.943733 
L 268.1046 231.913914 
L 268.119818 232.081425 
L 268.135036 230.983897 
L 268.226345 231.777134 
L 268.500273 235.008282 
L 268.637236 237.367339 
L 268.667673 237.332683 
L 268.728545 237.594572 
L 268.743764 236.632862 
L 268.819855 238.045367 
L 268.880727 238.197283 
L 268.895945 237.02832 
L 268.987255 238.312445 
L 269.032909 238.336057 
L 269.048127 238.860514 
L 269.139436 238.469808 
L 269.413364 238.051286 
L 269.428582 238.652105 
L 269.519891 237.870212 
L 269.641636 237.074282 
L 269.7786 233.481088 
L 269.809036 233.924412 
L 270.022091 230.33785 
L 270.098182 228.152145 
L 270.143836 228.541636 
L 270.417764 223.160315 
L 270.630818 220.499554 
L 270.646036 221.474732 
L 270.706909 220.195444 
L 270.722127 220.217663 
L 271.041709 210.752758 
L 271.772182 188.432107 
L 271.909145 182.56284 
L 272.670055 148.395228 
L 272.700491 148.598811 
L 273.826636 99.855428 
L 273.841855 100.570588 
L 273.902727 98.349635 
L 273.917945 98.517509 
L 273.933164 97.970754 
L 274.587545 77.871972 
L 274.602764 78.558315 
L 274.663636 76.969709 
L 274.739727 74.259681 
L 274.8006 74.891004 
L 274.968 70.371618 
L 275.044091 66.028276 
L 275.089745 66.02976 
L 275.561509 59.017034 
L 275.728909 56.651797 
L 275.805 54.194954 
L 275.850655 54.7338 
L 275.957182 52.847459 
L 276.078927 50.67971 
L 276.185455 49.882327 
L 276.200673 50.925452 
L 276.291982 50.427091 
L 276.413727 49.770524 
L 276.428945 51.889282 
L 276.520255 51.020282 
L 276.565909 50.972245 
L 276.687655 52.481581 
L 276.718091 52.506866 
L 276.733309 52.022144 
L 276.824618 52.372097 
L 276.946364 52.799874 
L 276.961582 52.109183 
L 277.037673 53.274168 
L 277.174636 54.262804 
L 277.3116 55.626792 
L 277.707273 59.298685 
L 277.844236 62.754903 
L 277.874673 62.706366 
L 278.620364 75.863585 
L 278.802982 83.523246 
L 279.472582 105.71397 
L 280.050873 131.998468 
L 281.3292 183.25058 
L 281.922709 202.103792 
L 281.983582 201.905854 
L 282.272727 210.911079 
L 282.287945 209.560718 
L 282.348818 211.068861 
L 282.516218 218.66535 
L 282.592309 218.574044 
L 282.911891 224.794574 
L 283.109727 229.62064 
L 283.246691 231.403145 
L 283.338 233.063134 
L 283.459745 235.607499 
L 283.566273 236.68178 
L 283.581491 235.314325 
L 283.6728 235.778409 
L 283.870636 237.016924 
L 283.946727 238.300999 
L 283.977164 237.149057 
L 284.022818 237.261686 
L 284.190218 238.939453 
L 284.251091 238.95367 
L 284.327182 238.394209 
L 284.3424 239.55092 
L 284.479364 239.291773 
L 284.494582 240.645175 
L 284.585891 238.897102 
L 284.631545 238.709714 
L 284.646764 239.070627 
L 284.707636 238.776027 
L 284.722855 239.602844 
L 284.798945 238.236665 
L 285.088091 236.521614 
L 285.240273 231.994285 
L 285.438109 229.676763 
L 285.483764 229.86389 
L 285.849 222.023611 
L 286.153364 212.71781 
L 286.168582 212.92464 
L 286.199018 212.135403 
L 286.533818 200.926706 
L 286.746873 194.358062 
L 287.446909 168.821808 
L 287.599091 161.0371 
L 287.614309 161.978351 
L 287.675182 159.273025 
L 287.873018 149.305469 
L 288.892636 107.6172 
L 288.907855 107.939163 
L 288.938291 106.73786 
L 289.805727 75.851494 
L 289.820945 76.325674 
L 290.414455 63.458952 
L 290.429673 64.138154 
L 290.490545 63.1024 
L 290.566636 60.835467 
L 290.612291 61.190317 
L 290.657945 61.443061 
L 290.718818 60.590786 
L 290.734036 61.271623 
L 290.794909 60.482485 
L 290.825345 60.922875 
L 290.947091 58.750362 
L 291.084055 56.910045 
L 291.479727 53.108153 
L 291.114491 57.57586 
L 291.510164 54.135029 
L 291.555818 53.983549 
L 291.571036 54.317158 
L 291.586255 54.271856 
L 291.708 54.005879 
L 291.723218 54.94203 
L 291.814527 54.59382 
L 291.860182 54.591521 
L 291.951491 53.881552 
L 291.981927 53.926888 
L 292.012364 53.983067 
L 292.103673 52.856843 
L 292.134109 52.959758 
L 292.164545 53.074026 
L 292.179764 52.630548 
L 292.255855 53.193876 
L 292.331945 53.138109 
L 292.392818 53.52853 
L 292.484127 52.732401 
L 292.468909 53.574655 
L 292.514564 52.973181 
L 292.560218 54.258505 
L 292.697182 56.34255 
L 292.849364 59.102334 
L 292.864582 58.159732 
L 292.955891 58.877123 
L 293.077636 60.824395 
L 293.2146 64.272103 
L 293.229818 64.525352 
L 293.245036 63.076806 
L 293.305909 64.140623 
L 293.321127 63.682931 
L 293.382 64.817292 
L 293.397218 64.238405 
L 293.610273 69.589594 
L 293.777673 75.483729 
L 294.295091 91.252204 
L 294.447273 96.089967 
L 294.751636 106.088784 
L 294.903818 114.806791 
L 294.919036 114.422098 
L 294.949473 115.68017 
L 296.273455 174.466243 
L 296.425636 182.411116 
L 296.440855 182.030929 
L 297.110455 204.624614 
L 297.125673 204.214007 
L 297.171327 205.620907 
L 297.795273 223.030509 
L 297.840927 222.774368 
L 297.871364 223.370156 
L 297.886582 221.123484 
L 297.977891 222.678173 
L 298.540964 230.924598 
L 298.5714 230.838579 
L 298.784455 233.336373 
L 298.860545 235.804293 
L 298.9062 235.576251 
L 298.936636 235.764221 
L 299.058382 238.121312 
L 299.088818 238.255273 
L 299.210564 239.459899 
L 299.241 239.543752 
L 299.317091 240.424229 
L 299.347527 239.992059 
L 299.393182 240.047856 
L 299.4084 239.346322 
L 299.514927 239.360597 
L 299.545364 239.339958 
L 299.621455 238.740641 
L 299.651891 239.183784 
L 299.697545 239.076 
L 299.773636 238.568615 
L 299.788855 239.954771 
L 299.880164 239.441771 
L 299.925818 239.211079 
L 300.047564 237.158766 
L 300.078 236.937093 
L 300.154091 234.840184 
L 300.199745 235.169332 
L 300.306273 233.634961 
L 300.443236 231.210114 
L 300.458455 231.025017 
L 300.473673 231.882464 
L 300.534545 231.095872 
L 300.549764 231.350372 
L 300.595418 230.711692 
L 301.143273 222.207447 
L 301.295455 218.31015 
L 301.310673 218.89968 
L 301.371545 217.382362 
L 301.630255 207.817945 
L 302.406382 181.690149 
L 303.045545 152.332618 
L 303.197727 143.953773 
L 304.0956 106.107656 
L 304.719545 85.049746 
L 304.734764 86.743572 
L 304.795636 84.904088 
L 304.826073 85.76241 
L 305.4348 71.114115 
L 305.937 62.308315 
L 305.952218 62.655532 
L 306.089182 60.628779 
L 306.165273 57.059856 
L 306.210927 57.245012 
L 306.393545 55.345538 
L 306.408764 57.261607 
L 306.515291 56.854264 
L 306.545727 56.662113 
L 306.682691 54.483747 
L 306.697909 54.418414 
L 306.819655 53.101574 
L 306.850091 53.024582 
L 306.987055 51.799903 
L 307.002273 51.785276 
L 307.017491 52.221022 
L 307.078364 52.205001 
L 307.093582 50.98187 
L 307.200109 51.262992 
L 307.230545 51.314546 
L 307.245764 50.811437 
L 307.337073 51.299327 
L 307.382727 51.461168 
L 307.504473 53.846776 
L 307.534909 54.017538 
L 307.671873 56.95912 
L 307.702309 56.754794 
L 307.763182 57.264694 
L 307.7784 56.216812 
L 307.854491 58.294913 
L 307.915364 58.923495 
L 307.930582 57.750871 
L 308.006673 59.1548 
L 308.067545 59.904313 
L 308.082764 58.414816 
L 308.174073 59.195279 
L 308.448 64.146262 
L 308.584964 68.184178 
L 308.980636 78.098255 
L 309.208909 84.697662 
L 309.224127 84.232019 
L 309.269782 85.562003 
L 309.832855 105.385054 
L 310.198091 115.234175 
L 310.213309 114.980091 
L 310.243745 116.270685 
L 311.035091 153.567176 
L 311.187273 161.891679 
L 311.202491 161.8667 
L 311.491636 171.754328 
L 311.506855 169.697516 
L 311.582945 172.903996 
L 312.785182 218.445345 
L 312.8004 217.023485 
L 312.891709 218.795485 
L 313.363473 227.027872 
L 313.546091 231.08899 
L 313.667836 234.679045 
L 313.850455 235.73846 
L 313.896109 236.083924 
L 314.154818 238.012667 
L 314.276564 240.806981 
L 314.322218 240.747143 
L 314.535273 242.116364 
L 314.550491 241.34788 
L 314.657018 241.379831 
L 314.687455 241.364546 
L 314.824418 240.076269 
L 314.854855 240.231917 
L 314.915727 240.032696 
L 314.930945 240.639502 
L 315.022255 239.989806 
L 315.067909 239.749671 
L 315.083127 240.991761 
L 315.174436 239.65633 
L 315.220091 239.342394 
L 315.235309 239.841986 
L 315.296182 239.379668 
L 315.3114 240.402798 
L 315.372273 239.892761 
L 315.494018 236.416623 
L 315.600545 235.325577 
L 315.676636 232.101575 
L 315.722291 232.773866 
L 315.828818 231.387388 
L 315.965782 227.951133 
L 315.996218 228.59215 
L 316.285364 222.529497 
L 316.300582 225.232335 
L 316.391891 223.78408 
L 316.513636 220.269798 
L 316.6506 214.840135 
L 317.244109 196.379772 
L 318.172418 159.747415 
L 318.796364 127.312924 
L 318.963764 119.581103 
L 319.709455 91.227792 
L 319.724673 91.4667 
L 319.755109 90.441347 
L 320.318182 74.218578 
L 320.3334 75.158882 
L 320.394273 73.586879 
L 320.622545 66.779197 
L 320.652982 67.026699 
L 320.774727 64.573296 
L 320.896473 59.99004 
L 320.926909 59.482078 
L 320.942127 60.644667 
L 321.003 59.677677 
L 321.018218 60.034066 
L 321.079091 59.126562 
L 321.155182 58.13085 
L 321.231273 55.591227 
L 321.276927 56.200178 
L 321.687818 52.294823 
L 321.703036 52.747046 
L 321.779127 51.840501 
L 321.916091 51.070997 
L 321.931309 51.857774 
L 322.022618 51.364226 
L 322.068273 51.245899 
L 322.190018 49.293242 
L 322.220455 49.266254 
L 322.3422 50.514207 
L 322.372636 50.539259 
L 322.387855 49.30465 
L 322.463945 51.301111 
L 322.524818 51.43784 
L 322.616127 49.005844 
L 322.646564 49.126904 
L 322.677 49.258896 
L 322.753091 50.709157 
L 322.783527 49.868122 
L 322.829182 50.154146 
L 322.8444 49.380728 
L 322.920491 50.678588 
L 322.981364 51.170987 
L 322.996582 50.329835 
L 323.057455 50.89384 
L 323.194418 54.127883 
L 323.514 58.063874 
L 323.666182 63.92718 
L 323.894455 68.538518 
L 323.924891 68.89859 
L 324.822764 90.279433 
L 325.111909 104.041132 
L 325.401055 114.198992 
L 326.177182 148.319764 
L 326.314145 156.530144 
L 327.318545 196.573352 
L 327.333764 195.737688 
L 327.394636 197.791549 
L 327.409855 197.725521 
L 328.003364 215.131582 
L 328.018582 214.018762 
L 328.094673 215.605824 
L 329.129509 236.981947 
L 329.296909 238.226717 
L 329.388218 235.352129 
L 329.418655 235.534126 
L 329.449091 235.705369 
L 329.464309 234.895135 
L 329.555618 235.168556 
L 329.677364 235.822274 
L 329.768673 234.392448 
L 329.799109 234.436831 
L 329.829545 234.470332 
L 329.890418 236.495733 
L 329.936073 235.128047 
L 329.981727 235.095212 
L 329.996945 235.697125 
L 330.073036 234.584774 
L 330.133909 234.434591 
L 330.149127 234.693585 
L 330.225218 234.286018 
L 330.286091 234.027835 
L 330.362182 232.524112 
L 330.407836 232.862867 
L 330.438273 232.673957 
L 330.575236 230.854318 
L 330.605673 231.147514 
L 330.742636 229.495842 
L 330.833945 231.423585 
L 330.864382 231.064077 
L 331.351364 224.641351 
L 331.503545 221.182544 
L 331.518764 221.411444 
L 331.564418 220.43267 
L 331.960091 209.487378 
L 332.127491 203.06554 
L 332.492727 194.848096 
L 332.507945 196.277036 
L 332.568818 194.083927 
L 332.736218 185.938832 
L 333.558 150.064955 
L 333.771055 142.271436 
L 335.232 81.941765 
L 335.247218 82.544395 
L 335.308091 80.766207 
L 335.460273 75.579684 
L 335.475491 76.41076 
L 335.764636 68.987627 
L 335.871164 69.000431 
L 336.495109 58.461265 
L 336.601636 57.771106 
L 336.616855 58.36088 
L 336.677727 57.718162 
L 336.753818 55.10626 
L 336.799473 55.651304 
L 336.829909 55.390551 
L 336.966873 52.235201 
L 337.058182 51.243149 
L 337.149491 52.651028 
L 337.179927 52.536641 
L 337.210364 52.434104 
L 337.225582 53.547017 
L 337.316891 52.637733 
L 337.362545 52.561338 
L 337.453855 50.410712 
L 337.499509 50.420864 
L 337.514727 50.430158 
L 337.529945 50.221772 
L 337.606036 50.523847 
L 337.743 50.985173 
L 337.819091 52.005296 
L 337.834309 50.894246 
L 337.849527 50.961097 
L 337.971273 51.928783 
L 338.062582 49.49693 
L 338.108236 49.821108 
L 338.123455 49.934643 
L 338.260418 52.858862 
L 338.351727 54.088774 
L 338.488691 57.301733 
L 338.519127 57.234536 
L 338.656091 59.182791 
L 338.793055 63.31954 
L 338.823491 62.968706 
L 338.884364 63.994924 
L 338.899582 63.001495 
L 338.960455 64.085708 
L 338.990891 64.020511 
L 339.538745 76.375317 
L 339.5844 76.106625 
L 340.0866 93.972781 
L 340.786636 121.754465 
L 340.938818 129.65156 
L 340.969255 130.42488 
L 342.232364 183.958712 
L 342.247582 182.243589 
L 342.308455 184.546979 
L 342.475855 193.919592 
L 342.993273 208.605747 
L 343.008491 208.389083 
L 343.038927 209.225193 
L 343.084582 209.130918 
L 344.058545 234.711786 
L 344.073764 233.974381 
L 344.165073 234.779832 
L 344.515091 237.905107 
L 344.6064 236.475742 
L 344.652055 236.720073 
L 344.667273 236.795328 
L 344.682491 235.650038 
L 344.7738 236.408113 
L 344.819455 236.550801 
L 344.834673 236.34674 
L 344.910764 236.483646 
L 345.047727 236.715458 
L 345.093382 237.279148 
L 345.154255 236.993216 
L 345.199909 236.959443 
L 345.215127 238.108176 
L 345.306436 237.413959 
L 345.352091 237.312599 
L 345.367309 237.992321 
L 345.458618 237.740997 
L 345.504273 237.550754 
L 345.595582 238.159768 
L 345.626018 237.989295 
L 345.656455 237.808159 
L 345.793418 234.449978 
L 345.808636 234.336202 
L 345.9456 232.074821 
L 346.173873 228.951191 
L 346.189091 228.764388 
L 346.2804 230.247966 
L 346.310836 229.829178 
L 346.6152 224.029561 
L 347.178273 212.427598 
L 347.330455 206.572282 
L 348.426164 163.537807 
L 350.374091 83.561317 
L 350.389309 84.252517 
L 350.450182 82.439852 
L 350.495836 81.439291 
L 350.906727 72.515435 
L 350.921945 72.604901 
L 350.937164 72.254574 
L 351.439364 61.309016 
L 351.500236 61.886463 
L 351.591545 58.958165 
L 351.819818 53.538551 
L 351.835036 53.737575 
L 351.972 52.252753 
L 352.048091 52.404582 
L 352.063309 52.50419 
L 352.108964 52.147544 
L 352.124182 52.034396 
L 352.1394 52.95084 
L 352.230709 52.367383 
L 352.276364 52.109988 
L 352.291582 52.977669 
L 352.382891 52.647758 
L 352.428545 52.483791 
L 352.443764 54.188302 
L 352.535073 53.368813 
L 352.656818 52.990854 
L 352.732909 54.094337 
L 352.778564 53.821681 
L 352.809 53.856942 
L 352.885091 54.607 
L 352.915527 54.073149 
L 352.961182 54.207624 
L 353.174236 56.938703 
L 353.204673 56.920216 
L 353.341636 58.035768 
L 353.417727 59.019758 
L 353.463382 58.781226 
L 353.493818 59.047727 
L 353.585127 57.161092 
L 353.615564 57.479665 
L 353.661218 57.19416 
L 354.178636 63.8392 
L 354.193855 62.167262 
L 354.269945 64.71708 
L 354.635182 73.731512 
L 354.802582 79.277731 
L 355.015636 83.063419 
L 355.030855 82.342148 
L 355.091727 84.261216 
L 355.396091 94.904802 
L 355.411309 94.73281 
L 355.426527 95.303203 
L 355.624364 105.565448 
L 355.776545 116.088101 
L 355.791764 115.645391 
L 355.837418 117.529969 
L 355.867855 116.539238 
L 358.104927 207.182881 
L 358.363636 212.012958 
L 358.378855 211.285222 
L 358.439727 212.80326 
L 358.454945 212.778923 
L 358.820182 223.324519 
L 358.957145 227.114537 
L 359.565873 235.578644 
L 359.596309 235.378281 
L 359.733273 236.254464 
L 359.748491 234.865218 
L 359.8398 236.406973 
L 359.885455 236.673629 
L 359.961545 238.774705 
L 359.991982 237.431544 
L 360.113727 237.715823 
L 360.159382 237.6774 
L 360.189818 237.743429 
L 360.205036 237.384417 
L 360.265909 237.472948 
L 360.357218 239.416084 
L 360.387655 239.409528 
L 360.418091 239.391885 
L 360.433309 240.11981 
L 360.5094 238.882866 
L 360.570273 238.738018 
L 360.646364 237.939904 
L 360.692018 238.06439 
L 360.722455 237.922829 
L 360.874636 235.667503 
L 360.889855 235.730073 
L 360.920291 235.514816 
L 361.026818 234.891443 
L 361.118127 235.589789 
L 361.133345 235.438641 
L 361.315964 232.468535 
L 361.3464 232.669684 
L 361.985564 222.703197 
L 362.320364 213.558618 
L 362.563855 206.419351 
L 363.1878 184.319761 
L 364.237855 139.475905 
L 365.135727 103.073492 
L 365.150945 103.706405 
L 366.124909 69.329437 
L 366.140127 71.605183 
L 366.231436 69.471573 
L 366.292309 70.175425 
L 366.657545 62.133531 
L 366.672764 62.774848 
L 366.733636 61.838765 
L 366.961909 56.563411 
L 366.977127 57.391101 
L 367.038 56.715424 
L 367.114091 54.843956 
L 367.159745 54.905603 
L 367.190182 54.624137 
L 367.281491 55.865819 
L 367.311927 55.626169 
L 367.342364 55.397325 
L 367.479327 50.820475 
L 367.494545 50.73804 
L 367.509764 51.50698 
L 367.585855 50.427659 
L 367.798909 49.635703 
L 367.890218 50.145738 
L 367.920655 50.143226 
L 367.951091 50.151973 
L 368.072836 51.216728 
L 368.103273 51.274184 
L 368.194582 50.231281 
L 368.225018 50.322366 
L 368.255455 50.423472 
L 368.392418 52.117171 
L 368.407636 52.195424 
L 368.422855 51.754473 
L 368.483727 52.110259 
L 368.498945 51.845289 
L 368.559818 52.25791 
L 368.727218 53.821179 
L 369.062018 57.996823 
L 369.442473 64.936449 
L 369.488127 64.108374 
L 370.005545 77.717981 
L 370.157727 84.841526 
L 370.172945 84.182304 
L 370.233818 86.068668 
L 370.249036 86.021218 
L 371.223 120.130161 
L 371.3904 128.734712 
L 373.201364 204.25796 
L 373.216582 203.923672 
L 373.262236 205.309092 
L 373.581818 213.696257 
L 373.292673 204.723174 
L 373.581818 213.696257 
" clip-path="url(#p9e9c61b7dd)" style="fill: none; stroke: #000000; stroke-width: 0.5; stroke-linecap: square"/>
   </g>
   <g id="patch_3">
    <path d="M 54 252 
L 54 34.56 
" style="fill: none; stroke: #000000; stroke-width: 0.8; stroke-linejoin: miter; stroke-linecap: square"/>
   </g>
   <g id="patch_4">
    <path d="M 388.8 252 
L 388.8 34.56 
" style="fill: none; stroke: #000000; stroke-width: 0.8; stroke-linejoin: miter; stroke-linecap: square"/>
   </g>
   <g id="patch_5">
    <path d="M 54 252 
L 388.8 252 
" style="fill: none; stroke: #000000; stroke-width: 0.8; stroke-linejoin: miter; stroke-linecap: square"/>
   </g>
   <g id="patch_6">
    <path d="M 54 34.56 
L 388.8 34.56 
" style="fill: none; stroke: #000000; stroke-width: 0.8; stroke-linejoin: miter; stroke-linecap: square"/>
   </g>
   <g id="text_17">
    <!-- $\theta_{l}$ (rad) - (JUKF) -->
    <g transform="translate(183.34 28.56) scale(0.11 -0.11)">
     <defs>
      <path id="TimesNewRomanPSMT-4a" d="M 638 4122 
L 638 4238 
L 2453 4238 
L 2453 4122 
L 2300 4122 
Q 2041 4122 1922 3969 
Q 1847 3869 1847 3488 
L 1847 1416 
Q 1847 938 1742 641 
Q 1638 344 1381 123 
Q 1125 -97 763 -97 
Q 469 -97 300 48 
Q 131 194 131 381 
Q 131 534 209 613 
Q 313 709 450 709 
Q 550 709 629 643 
Q 709 578 831 294 
Q 903 125 1016 125 
Q 1100 125 1173 228 
Q 1247 331 1247 594 
L 1247 3488 
Q 1247 3809 1206 3913 
Q 1175 3991 1075 4047 
Q 941 4122 791 4122 
L 638 4122 
z
" transform="scale(0.015625)"/>
      <path id="TimesNewRomanPSMT-55" d="M 3053 4122 
L 3053 4238 
L 4553 4238 
L 4553 4122 
L 4394 4122 
Q 4144 4122 4009 3913 
Q 3944 3816 3944 3463 
L 3944 1744 
Q 3944 1106 3817 754 
Q 3691 403 3320 151 
Q 2950 -100 2313 -100 
Q 1619 -100 1259 140 
Q 900 381 750 788 
Q 650 1066 650 1831 
L 650 3488 
Q 650 3878 542 4000 
Q 434 4122 194 4122 
L 34 4122 
L 34 4238 
L 1866 4238 
L 1866 4122 
L 1703 4122 
Q 1441 4122 1328 3956 
Q 1250 3844 1250 3488 
L 1250 1641 
Q 1250 1394 1295 1075 
Q 1341 756 1459 578 
Q 1578 400 1801 284 
Q 2025 169 2350 169 
Q 2766 169 3094 350 
Q 3422 531 3542 814 
Q 3663 1097 3663 1772 
L 3663 3488 
Q 3663 3884 3575 3984 
Q 3453 4122 3213 4122 
L 3053 4122 
z
" transform="scale(0.015625)"/>
      <path id="TimesNewRomanPSMT-4b" d="M 1913 2350 
L 3475 797 
Q 3859 413 4131 273 
Q 4403 134 4675 116 
L 4675 0 
L 2659 0 
L 2659 116 
Q 2841 116 2920 177 
Q 3000 238 3000 313 
Q 3000 388 2970 447 
Q 2941 506 2775 669 
L 1313 2116 
L 1313 750 
Q 1313 428 1353 325 
Q 1384 247 1484 191 
Q 1619 116 1769 116 
L 1913 116 
L 1913 0 
L 106 0 
L 106 116 
L 256 116 
Q 519 116 638 269 
Q 713 369 713 750 
L 713 3488 
Q 713 3809 672 3916 
Q 641 3991 544 4047 
Q 406 4122 256 4122 
L 106 4122 
L 106 4238 
L 1913 4238 
L 1913 4122 
L 1769 4122 
Q 1622 4122 1484 4050 
Q 1388 4000 1350 3900 
Q 1313 3800 1313 3488 
L 1313 2191 
Q 1375 2250 1741 2588 
Q 2669 3438 2863 3722 
Q 2947 3847 2947 3941 
Q 2947 4013 2881 4067 
Q 2816 4122 2659 4122 
L 2563 4122 
L 2563 4238 
L 4119 4238 
L 4119 4122 
Q 3981 4119 3868 4084 
Q 3756 4050 3593 3951 
Q 3431 3853 3194 3634 
Q 3125 3572 2559 2994 
L 1913 2350 
z
" transform="scale(0.015625)"/>
      <path id="TimesNewRomanPSMT-46" d="M 1309 4006 
L 1309 2341 
L 2081 2341 
Q 2347 2341 2470 2458 
Q 2594 2575 2634 2922 
L 2750 2922 
L 2750 1488 
L 2634 1488 
Q 2631 1734 2570 1850 
Q 2509 1966 2401 2023 
Q 2294 2081 2081 2081 
L 1309 2081 
L 1309 750 
Q 1309 428 1350 325 
Q 1381 247 1481 191 
Q 1619 116 1769 116 
L 1922 116 
L 1922 0 
L 103 0 
L 103 116 
L 253 116 
Q 516 116 634 269 
Q 709 369 709 750 
L 709 3488 
Q 709 3809 669 3913 
Q 638 3991 541 4047 
Q 406 4122 253 4122 
L 103 4122 
L 103 4238 
L 3256 4238 
L 3297 3306 
L 3188 3306 
Q 3106 3603 2998 3742 
Q 2891 3881 2733 3943 
Q 2575 4006 2244 4006 
L 1309 4006 
z
" transform="scale(0.015625)"/>
     </defs>
     <use xlink:href="#DejaVuSans-Oblique-3b8" transform="translate(0 0.234375)"/>
     <use xlink:href="#DejaVuSans-Oblique-6c" transform="translate(61.181641 -16.171875) scale(0.7)"/>
     <use xlink:href="#TimesNewRomanPSMT-20" transform="translate(83.364258 0.234375)"/>
     <use xlink:href="#TimesNewRomanPSMT-28" transform="translate(108.364258 0.234375)"/>
     <use xlink:href="#TimesNewRomanPSMT-72" transform="translate(141.665039 0.234375)"/>
     <use xlink:href="#TimesNewRomanPSMT-61" transform="translate(174.96582 0.234375)"/>
     <use xlink:href="#TimesNewRomanPSMT-64" transform="translate(219.350586 0.234375)"/>
     <use xlink:href="#TimesNewRomanPSMT-29" transform="translate(269.350586 0.234375)"/>
     <use xlink:href="#TimesNewRomanPSMT-20" transform="translate(302.651367 0.234375)"/>
     <use xlink:href="#TimesNewRomanPSMT-2d" transform="translate(327.651367 0.234375)"/>
     <use xlink:href="#TimesNewRomanPSMT-20" transform="translate(360.952148 0.234375)"/>
     <use xlink:href="#TimesNewRomanPSMT-28" transform="translate(385.952148 0.234375)"/>
     <use xlink:href="#TimesNewRomanPSMT-4a" transform="translate(419.25293 0.234375)"/>
     <use xlink:href="#TimesNewRomanPSMT-55" transform="translate(458.168945 0.234375)"/>
     <use xlink:href="#TimesNewRomanPSMT-4b" transform="translate(530.385742 0.234375)"/>
     <use xlink:href="#TimesNewRomanPSMT-46" transform="translate(602.602539 0.234375)"/>
     <use xlink:href="#TimesNewRomanPSMT-29" transform="translate(658.217773 0.234375)"/>
    </g>
   </g>
   <g id="legend_1">
    <g id="patch_7">
     <path d="M 341.4 152.119062 
L 381.8 152.119062 
Q 383.8 152.119062 383.8 150.119062 
L 383.8 136.440937 
Q 383.8 134.440937 381.8 134.440937 
L 341.4 134.440937 
Q 339.4 134.440937 339.4 136.440937 
L 339.4 150.119062 
Q 339.4 152.119062 341.4 152.119062 
z
" style="fill: #ffffff; opacity: 0.8; stroke: #cccccc; stroke-linejoin: miter"/>
    </g>
    <g id="line2d_30">
     <path d="M 343.4 142.539375 
L 353.4 142.539375 
L 363.4 142.539375 
" style="fill: none; stroke: #000000; stroke-width: 0.5; stroke-linecap: square"/>
    </g>
    <g id="text_18">
     <!-- $\theta_{l}$ -->
     <g transform="translate(371.4 146.039375) scale(0.1 -0.1)">
      <use xlink:href="#DejaVuSans-Oblique-3b8" transform="translate(0 0.234375)"/>
      <use xlink:href="#DejaVuSans-Oblique-6c" transform="translate(61.181641 -16.171875) scale(0.7)"/>
     </g>
    </g>
   </g>
  </g>
 </g>
 <defs>
  <clipPath id="p9e9c61b7dd">
   <rect x="54" y="34.56" width="334.8" height="217.44"/>
  </clipPath>
 </defs>
</svg>
