<?xml version="1.0" encoding="utf-8" standalone="no"?>
<!DOCTYPE svg PUBLIC "-//W3C//DTD SVG 1.1//EN"
  "http://www.w3.org/Graphics/SVG/1.1/DTD/svg11.dtd">
<svg xmlns:xlink="http://www.w3.org/1999/xlink" width="432pt" height="288pt" viewBox="0 0 432 288" xmlns="http://www.w3.org/2000/svg" version="1.1">
 <metadata>
  <rdf:RDF xmlns:dc="http://purl.org/dc/elements/1.1/" xmlns:cc="http://creativecommons.org/ns#" xmlns:rdf="http://www.w3.org/1999/02/22-rdf-syntax-ns#">
   <cc:Work>
    <dc:type rdf:resource="http://purl.org/dc/dcmitype/StillImage"/>
    <dc:date>2024-11-11T01:16:47.508754</dc:date>
    <dc:format>image/svg+xml</dc:format>
    <dc:creator>
     <cc:Agent>
      <dc:title>Matplotlib v3.9.1, https://matplotlib.org/</dc:title>
     </cc:Agent>
    </dc:creator>
   </cc:Work>
  </rdf:RDF>
 </metadata>
 <defs>
  <style type="text/css">*{stroke-linejoin: round; stroke-linecap: butt}</style>
 </defs>
 <g id="figure_1">
  <g id="patch_1">
   <path d="M 0 288 
L 432 288 
L 432 0 
L 0 0 
z
" style="fill: #ffffff"/>
  </g>
  <g id="axes_1">
   <g id="patch_2">
    <path d="M 54 256.32 
L 388.8 256.32 
L 388.8 34.56 
L 54 34.56 
z
" style="fill: #ffffff"/>
   </g>
   <g id="matplotlib.axis_1">
    <g id="xtick_1">
     <g id="line2d_1">
      <path d="M 69.218182 256.32 
L 69.218182 34.56 
" clip-path="url(#pc2d0c17f48)" style="fill: none; stroke: #b0b0b0; stroke-width: 0.2; stroke-linecap: square"/>
     </g>
     <g id="line2d_2">
      <defs>
       <path id="m8d41fbb0be" d="M 0 0 
L 0 3.5 
" style="stroke: #000000; stroke-width: 0.8"/>
      </defs>
      <g>
       <use xlink:href="#m8d41fbb0be" x="69.218182" y="256.32" style="stroke: #000000; stroke-width: 0.8"/>
      </g>
     </g>
     <g id="text_1">
      <!-- 0 -->
      <g transform="translate(65.718807 271.678281) scale(0.11 -0.11)">
       <defs>
        <path id="DejaVuSans-30" d="M 2034 4250 
Q 1547 4250 1301 3770 
Q 1056 3291 1056 2328 
Q 1056 1369 1301 889 
Q 1547 409 2034 409 
Q 2525 409 2770 889 
Q 3016 1369 3016 2328 
Q 3016 3291 2770 3770 
Q 2525 4250 2034 4250 
z
M 2034 4750 
Q 2819 4750 3233 4129 
Q 3647 3509 3647 2328 
Q 3647 1150 3233 529 
Q 2819 -91 2034 -91 
Q 1250 -91 836 529 
Q 422 1150 422 2328 
Q 422 3509 836 4129 
Q 1250 4750 2034 4750 
z
" transform="scale(0.015625)"/>
       </defs>
       <use xlink:href="#DejaVuSans-30"/>
      </g>
     </g>
    </g>
    <g id="xtick_2">
     <g id="line2d_3">
      <path d="M 119.945455 256.32 
L 119.945455 34.56 
" clip-path="url(#pc2d0c17f48)" style="fill: none; stroke: #b0b0b0; stroke-width: 0.2; stroke-linecap: square"/>
     </g>
     <g id="line2d_4">
      <g>
       <use xlink:href="#m8d41fbb0be" x="119.945455" y="256.32" style="stroke: #000000; stroke-width: 0.8"/>
      </g>
     </g>
     <g id="text_2">
      <!-- 5 -->
      <g transform="translate(116.44608 271.678281) scale(0.11 -0.11)">
       <defs>
        <path id="DejaVuSans-35" d="M 691 4666 
L 3169 4666 
L 3169 4134 
L 1269 4134 
L 1269 2991 
Q 1406 3038 1543 3061 
Q 1681 3084 1819 3084 
Q 2600 3084 3056 2656 
Q 3513 2228 3513 1497 
Q 3513 744 3044 326 
Q 2575 -91 1722 -91 
Q 1428 -91 1123 -41 
Q 819 9 494 109 
L 494 744 
Q 775 591 1075 516 
Q 1375 441 1709 441 
Q 2250 441 2565 725 
Q 2881 1009 2881 1497 
Q 2881 1984 2565 2268 
Q 2250 2553 1709 2553 
Q 1456 2553 1204 2497 
Q 953 2441 691 2322 
L 691 4666 
z
" transform="scale(0.015625)"/>
       </defs>
       <use xlink:href="#DejaVuSans-35"/>
      </g>
     </g>
    </g>
    <g id="xtick_3">
     <g id="line2d_5">
      <path d="M 170.672727 256.32 
L 170.672727 34.56 
" clip-path="url(#pc2d0c17f48)" style="fill: none; stroke: #b0b0b0; stroke-width: 0.2; stroke-linecap: square"/>
     </g>
     <g id="line2d_6">
      <g>
       <use xlink:href="#m8d41fbb0be" x="170.672727" y="256.32" style="stroke: #000000; stroke-width: 0.8"/>
      </g>
     </g>
     <g id="text_3">
      <!-- 10 -->
      <g transform="translate(163.673977 271.678281) scale(0.11 -0.11)">
       <defs>
        <path id="DejaVuSans-31" d="M 794 531 
L 1825 531 
L 1825 4091 
L 703 3866 
L 703 4441 
L 1819 4666 
L 2450 4666 
L 2450 531 
L 3481 531 
L 3481 0 
L 794 0 
L 794 531 
z
" transform="scale(0.015625)"/>
       </defs>
       <use xlink:href="#DejaVuSans-31"/>
       <use xlink:href="#DejaVuSans-30" x="63.623047"/>
      </g>
     </g>
    </g>
    <g id="xtick_4">
     <g id="line2d_7">
      <path d="M 221.4 256.32 
L 221.4 34.56 
" clip-path="url(#pc2d0c17f48)" style="fill: none; stroke: #b0b0b0; stroke-width: 0.2; stroke-linecap: square"/>
     </g>
     <g id="line2d_8">
      <g>
       <use xlink:href="#m8d41fbb0be" x="221.4" y="256.32" style="stroke: #000000; stroke-width: 0.8"/>
      </g>
     </g>
     <g id="text_4">
      <!-- 15 -->
      <g transform="translate(214.40125 271.678281) scale(0.11 -0.11)">
       <use xlink:href="#DejaVuSans-31"/>
       <use xlink:href="#DejaVuSans-35" x="63.623047"/>
      </g>
     </g>
    </g>
    <g id="xtick_5">
     <g id="line2d_9">
      <path d="M 272.127273 256.32 
L 272.127273 34.56 
" clip-path="url(#pc2d0c17f48)" style="fill: none; stroke: #b0b0b0; stroke-width: 0.2; stroke-linecap: square"/>
     </g>
     <g id="line2d_10">
      <g>
       <use xlink:href="#m8d41fbb0be" x="272.127273" y="256.32" style="stroke: #000000; stroke-width: 0.8"/>
      </g>
     </g>
     <g id="text_5">
      <!-- 20 -->
      <g transform="translate(265.128523 271.678281) scale(0.11 -0.11)">
       <defs>
        <path id="DejaVuSans-32" d="M 1228 531 
L 3431 531 
L 3431 0 
L 469 0 
L 469 531 
Q 828 903 1448 1529 
Q 2069 2156 2228 2338 
Q 2531 2678 2651 2914 
Q 2772 3150 2772 3378 
Q 2772 3750 2511 3984 
Q 2250 4219 1831 4219 
Q 1534 4219 1204 4116 
Q 875 4013 500 3803 
L 500 4441 
Q 881 4594 1212 4672 
Q 1544 4750 1819 4750 
Q 2544 4750 2975 4387 
Q 3406 4025 3406 3419 
Q 3406 3131 3298 2873 
Q 3191 2616 2906 2266 
Q 2828 2175 2409 1742 
Q 1991 1309 1228 531 
z
" transform="scale(0.015625)"/>
       </defs>
       <use xlink:href="#DejaVuSans-32"/>
       <use xlink:href="#DejaVuSans-30" x="63.623047"/>
      </g>
     </g>
    </g>
    <g id="xtick_6">
     <g id="line2d_11">
      <path d="M 322.854545 256.32 
L 322.854545 34.56 
" clip-path="url(#pc2d0c17f48)" style="fill: none; stroke: #b0b0b0; stroke-width: 0.2; stroke-linecap: square"/>
     </g>
     <g id="line2d_12">
      <g>
       <use xlink:href="#m8d41fbb0be" x="322.854545" y="256.32" style="stroke: #000000; stroke-width: 0.8"/>
      </g>
     </g>
     <g id="text_6">
      <!-- 25 -->
      <g transform="translate(315.855795 271.678281) scale(0.11 -0.11)">
       <use xlink:href="#DejaVuSans-32"/>
       <use xlink:href="#DejaVuSans-35" x="63.623047"/>
      </g>
     </g>
    </g>
    <g id="xtick_7">
     <g id="line2d_13">
      <path d="M 373.581818 256.32 
L 373.581818 34.56 
" clip-path="url(#pc2d0c17f48)" style="fill: none; stroke: #b0b0b0; stroke-width: 0.2; stroke-linecap: square"/>
     </g>
     <g id="line2d_14">
      <g>
       <use xlink:href="#m8d41fbb0be" x="373.581818" y="256.32" style="stroke: #000000; stroke-width: 0.8"/>
      </g>
     </g>
     <g id="text_7">
      <!-- 30 -->
      <g transform="translate(366.583068 271.678281) scale(0.11 -0.11)">
       <defs>
        <path id="DejaVuSans-33" d="M 2597 2516 
Q 3050 2419 3304 2112 
Q 3559 1806 3559 1356 
Q 3559 666 3084 287 
Q 2609 -91 1734 -91 
Q 1441 -91 1130 -33 
Q 819 25 488 141 
L 488 750 
Q 750 597 1062 519 
Q 1375 441 1716 441 
Q 2309 441 2620 675 
Q 2931 909 2931 1356 
Q 2931 1769 2642 2001 
Q 2353 2234 1838 2234 
L 1294 2234 
L 1294 2753 
L 1863 2753 
Q 2328 2753 2575 2939 
Q 2822 3125 2822 3475 
Q 2822 3834 2567 4026 
Q 2313 4219 1838 4219 
Q 1578 4219 1281 4162 
Q 984 4106 628 3988 
L 628 4550 
Q 988 4650 1302 4700 
Q 1616 4750 1894 4750 
Q 2613 4750 3031 4423 
Q 3450 4097 3450 3541 
Q 3450 3153 3228 2886 
Q 3006 2619 2597 2516 
z
" transform="scale(0.015625)"/>
       </defs>
       <use xlink:href="#DejaVuSans-33"/>
       <use xlink:href="#DejaVuSans-30" x="63.623047"/>
      </g>
     </g>
    </g>
    <g id="text_8">
     <!-- Time (s) -->
     <g transform="translate(202.807422 285.604062) scale(0.11 -0.11)">
      <defs>
       <path id="TimesNewRomanPSMT-54" d="M 3703 4238 
L 3750 3244 
L 3631 3244 
Q 3597 3506 3538 3619 
Q 3441 3800 3280 3886 
Q 3119 3972 2856 3972 
L 2259 3972 
L 2259 734 
Q 2259 344 2344 247 
Q 2463 116 2709 116 
L 2856 116 
L 2856 0 
L 1059 0 
L 1059 116 
L 1209 116 
Q 1478 116 1591 278 
Q 1659 378 1659 734 
L 1659 3972 
L 1150 3972 
Q 853 3972 728 3928 
Q 566 3869 450 3700 
Q 334 3531 313 3244 
L 194 3244 
L 244 4238 
L 3703 4238 
z
" transform="scale(0.015625)"/>
       <path id="TimesNewRomanPSMT-69" d="M 928 4444 
Q 1059 4444 1151 4351 
Q 1244 4259 1244 4128 
Q 1244 3997 1151 3903 
Q 1059 3809 928 3809 
Q 797 3809 703 3903 
Q 609 3997 609 4128 
Q 609 4259 701 4351 
Q 794 4444 928 4444 
z
M 1188 2947 
L 1188 647 
Q 1188 378 1227 289 
Q 1266 200 1342 156 
Q 1419 113 1622 113 
L 1622 0 
L 231 0 
L 231 113 
Q 441 113 512 153 
Q 584 194 626 287 
Q 669 381 669 647 
L 669 1750 
Q 669 2216 641 2353 
Q 619 2453 572 2492 
Q 525 2531 444 2531 
Q 356 2531 231 2484 
L 188 2597 
L 1050 2947 
L 1188 2947 
z
" transform="scale(0.015625)"/>
       <path id="TimesNewRomanPSMT-6d" d="M 1050 2338 
Q 1363 2650 1419 2697 
Q 1559 2816 1721 2881 
Q 1884 2947 2044 2947 
Q 2313 2947 2506 2790 
Q 2700 2634 2766 2338 
Q 3088 2713 3309 2830 
Q 3531 2947 3766 2947 
Q 3994 2947 4170 2830 
Q 4347 2713 4450 2447 
Q 4519 2266 4519 1878 
L 4519 647 
Q 4519 378 4559 278 
Q 4591 209 4675 161 
Q 4759 113 4950 113 
L 4950 0 
L 3538 0 
L 3538 113 
L 3597 113 
Q 3781 113 3884 184 
Q 3956 234 3988 344 
Q 4000 397 4000 647 
L 4000 1878 
Q 4000 2228 3916 2372 
Q 3794 2572 3525 2572 
Q 3359 2572 3192 2489 
Q 3025 2406 2788 2181 
L 2781 2147 
L 2788 2013 
L 2788 647 
Q 2788 353 2820 281 
Q 2853 209 2943 161 
Q 3034 113 3253 113 
L 3253 0 
L 1806 0 
L 1806 113 
Q 2044 113 2133 169 
Q 2222 225 2256 338 
Q 2272 391 2272 647 
L 2272 1878 
Q 2272 2228 2169 2381 
Q 2031 2581 1784 2581 
Q 1616 2581 1450 2491 
Q 1191 2353 1050 2181 
L 1050 647 
Q 1050 366 1089 281 
Q 1128 197 1204 155 
Q 1281 113 1516 113 
L 1516 0 
L 100 0 
L 100 113 
Q 297 113 375 155 
Q 453 197 493 289 
Q 534 381 534 647 
L 534 1741 
Q 534 2213 506 2350 
Q 484 2453 437 2492 
Q 391 2531 309 2531 
Q 222 2531 100 2484 
L 53 2597 
L 916 2947 
L 1050 2947 
L 1050 2338 
z
" transform="scale(0.015625)"/>
       <path id="TimesNewRomanPSMT-65" d="M 681 1784 
Q 678 1147 991 784 
Q 1303 422 1725 422 
Q 2006 422 2214 576 
Q 2422 731 2563 1106 
L 2659 1044 
Q 2594 616 2278 264 
Q 1963 -88 1488 -88 
Q 972 -88 605 314 
Q 238 716 238 1394 
Q 238 2128 614 2539 
Q 991 2950 1559 2950 
Q 2041 2950 2350 2633 
Q 2659 2316 2659 1784 
L 681 1784 
z
M 681 1966 
L 2006 1966 
Q 1991 2241 1941 2353 
Q 1863 2528 1708 2628 
Q 1553 2728 1384 2728 
Q 1125 2728 920 2526 
Q 716 2325 681 1966 
z
" transform="scale(0.015625)"/>
       <path id="TimesNewRomanPSMT-20" transform="scale(0.015625)"/>
       <path id="TimesNewRomanPSMT-28" d="M 1988 -1253 
L 1988 -1369 
Q 1516 -1131 1200 -813 
Q 750 -359 506 256 
Q 263 872 263 1534 
Q 263 2503 741 3301 
Q 1219 4100 1988 4444 
L 1988 4313 
Q 1603 4100 1356 3731 
Q 1109 3363 987 2797 
Q 866 2231 866 1616 
Q 866 947 969 400 
Q 1050 -31 1165 -292 
Q 1281 -553 1476 -793 
Q 1672 -1034 1988 -1253 
z
" transform="scale(0.015625)"/>
       <path id="TimesNewRomanPSMT-73" d="M 2050 2947 
L 2050 1972 
L 1947 1972 
Q 1828 2431 1642 2597 
Q 1456 2763 1169 2763 
Q 950 2763 815 2647 
Q 681 2531 681 2391 
Q 681 2216 781 2091 
Q 878 1963 1175 1819 
L 1631 1597 
Q 2266 1288 2266 781 
Q 2266 391 1970 151 
Q 1675 -88 1309 -88 
Q 1047 -88 709 6 
Q 606 38 541 38 
Q 469 38 428 -44 
L 325 -44 
L 325 978 
L 428 978 
Q 516 541 762 319 
Q 1009 97 1316 97 
Q 1531 97 1667 223 
Q 1803 350 1803 528 
Q 1803 744 1651 891 
Q 1500 1038 1047 1263 
Q 594 1488 453 1669 
Q 313 1847 313 2119 
Q 313 2472 555 2709 
Q 797 2947 1181 2947 
Q 1350 2947 1591 2875 
Q 1750 2828 1803 2828 
Q 1853 2828 1881 2850 
Q 1909 2872 1947 2947 
L 2050 2947 
z
" transform="scale(0.015625)"/>
       <path id="TimesNewRomanPSMT-29" d="M 144 4313 
L 144 4444 
Q 619 4209 934 3891 
Q 1381 3434 1625 2820 
Q 1869 2206 1869 1541 
Q 1869 572 1392 -226 
Q 916 -1025 144 -1369 
L 144 -1253 
Q 528 -1038 776 -670 
Q 1025 -303 1145 264 
Q 1266 831 1266 1447 
Q 1266 2113 1163 2663 
Q 1084 3094 967 3353 
Q 850 3613 656 3853 
Q 463 4094 144 4313 
z
" transform="scale(0.015625)"/>
      </defs>
      <use xlink:href="#TimesNewRomanPSMT-54"/>
      <use xlink:href="#TimesNewRomanPSMT-69" x="57.583984"/>
      <use xlink:href="#TimesNewRomanPSMT-6d" x="85.367188"/>
      <use xlink:href="#TimesNewRomanPSMT-65" x="163.150391"/>
      <use xlink:href="#TimesNewRomanPSMT-20" x="207.535156"/>
      <use xlink:href="#TimesNewRomanPSMT-28" x="232.535156"/>
      <use xlink:href="#TimesNewRomanPSMT-73" x="265.835938"/>
      <use xlink:href="#TimesNewRomanPSMT-29" x="304.751953"/>
     </g>
    </g>
   </g>
   <g id="matplotlib.axis_2">
    <g id="ytick_1">
     <g id="line2d_15">
      <path d="M 54 230.727517 
L 388.8 230.727517 
" clip-path="url(#pc2d0c17f48)" style="fill: none; stroke: #b0b0b0; stroke-width: 0.2; stroke-linecap: square"/>
     </g>
     <g id="line2d_16">
      <defs>
       <path id="md31689c93b" d="M 0 0 
L -3.5 0 
" style="stroke: #000000; stroke-width: 0.8"/>
      </defs>
      <g>
       <use xlink:href="#md31689c93b" x="54" y="230.727517" style="stroke: #000000; stroke-width: 0.8"/>
      </g>
     </g>
     <g id="text_9">
      <!-- −10 -->
      <g transform="translate(23.784844 234.906658) scale(0.11 -0.11)">
       <defs>
        <path id="DejaVuSans-2212" d="M 678 2272 
L 4684 2272 
L 4684 1741 
L 678 1741 
L 678 2272 
z
" transform="scale(0.015625)"/>
       </defs>
       <use xlink:href="#DejaVuSans-2212"/>
       <use xlink:href="#DejaVuSans-31" x="83.789062"/>
       <use xlink:href="#DejaVuSans-30" x="147.412109"/>
      </g>
     </g>
    </g>
    <g id="ytick_2">
     <g id="line2d_17">
      <path d="M 54 192.133457 
L 388.8 192.133457 
" clip-path="url(#pc2d0c17f48)" style="fill: none; stroke: #b0b0b0; stroke-width: 0.2; stroke-linecap: square"/>
     </g>
     <g id="line2d_18">
      <g>
       <use xlink:href="#md31689c93b" x="54" y="192.133457" style="stroke: #000000; stroke-width: 0.8"/>
      </g>
     </g>
     <g id="text_10">
      <!-- −5 -->
      <g transform="translate(30.783594 196.312598) scale(0.11 -0.11)">
       <use xlink:href="#DejaVuSans-2212"/>
       <use xlink:href="#DejaVuSans-35" x="83.789062"/>
      </g>
     </g>
    </g>
    <g id="ytick_3">
     <g id="line2d_19">
      <path d="M 54 153.539397 
L 388.8 153.539397 
" clip-path="url(#pc2d0c17f48)" style="fill: none; stroke: #b0b0b0; stroke-width: 0.2; stroke-linecap: square"/>
     </g>
     <g id="line2d_20">
      <g>
       <use xlink:href="#md31689c93b" x="54" y="153.539397" style="stroke: #000000; stroke-width: 0.8"/>
      </g>
     </g>
     <g id="text_11">
      <!-- 0 -->
      <g transform="translate(40.00125 157.718537) scale(0.11 -0.11)">
       <use xlink:href="#DejaVuSans-30"/>
      </g>
     </g>
    </g>
    <g id="ytick_4">
     <g id="line2d_21">
      <path d="M 54 114.945337 
L 388.8 114.945337 
" clip-path="url(#pc2d0c17f48)" style="fill: none; stroke: #b0b0b0; stroke-width: 0.2; stroke-linecap: square"/>
     </g>
     <g id="line2d_22">
      <g>
       <use xlink:href="#md31689c93b" x="54" y="114.945337" style="stroke: #000000; stroke-width: 0.8"/>
      </g>
     </g>
     <g id="text_12">
      <!-- 5 -->
      <g transform="translate(40.00125 119.124477) scale(0.11 -0.11)">
       <use xlink:href="#DejaVuSans-35"/>
      </g>
     </g>
    </g>
    <g id="ytick_5">
     <g id="line2d_23">
      <path d="M 54 76.351277 
L 388.8 76.351277 
" clip-path="url(#pc2d0c17f48)" style="fill: none; stroke: #b0b0b0; stroke-width: 0.2; stroke-linecap: square"/>
     </g>
     <g id="line2d_24">
      <g>
       <use xlink:href="#md31689c93b" x="54" y="76.351277" style="stroke: #000000; stroke-width: 0.8"/>
      </g>
     </g>
     <g id="text_13">
      <!-- 10 -->
      <g transform="translate(33.0025 80.530417) scale(0.11 -0.11)">
       <use xlink:href="#DejaVuSans-31"/>
       <use xlink:href="#DejaVuSans-30" x="63.623047"/>
      </g>
     </g>
    </g>
    <g id="ytick_6">
     <g id="line2d_25">
      <path d="M 54 37.757217 
L 388.8 37.757217 
" clip-path="url(#pc2d0c17f48)" style="fill: none; stroke: #b0b0b0; stroke-width: 0.2; stroke-linecap: square"/>
     </g>
     <g id="line2d_26">
      <g>
       <use xlink:href="#md31689c93b" x="54" y="37.757217" style="stroke: #000000; stroke-width: 0.8"/>
      </g>
     </g>
     <g id="text_14">
      <!-- 15 -->
      <g transform="translate(33.0025 41.936357) scale(0.11 -0.11)">
       <use xlink:href="#DejaVuSans-31"/>
       <use xlink:href="#DejaVuSans-35" x="63.623047"/>
      </g>
     </g>
    </g>
    <g id="text_15">
     <!-- Angular velocity of the motor - $\omega_{m}$ (rad/s) -->
     <g transform="translate(17.364844 239.985) rotate(-90) scale(0.11 -0.11)">
      <defs>
       <path id="TimesNewRomanPSMT-41" d="M 2928 1419 
L 1288 1419 
L 1000 750 
Q 894 503 894 381 
Q 894 284 986 211 
Q 1078 138 1384 116 
L 1384 0 
L 50 0 
L 50 116 
Q 316 163 394 238 
Q 553 388 747 847 
L 2238 4334 
L 2347 4334 
L 3822 809 
Q 4000 384 4145 257 
Q 4291 131 4550 116 
L 4550 0 
L 2878 0 
L 2878 116 
Q 3131 128 3220 200 
Q 3309 272 3309 375 
Q 3309 513 3184 809 
L 2928 1419 
z
M 2841 1650 
L 2122 3363 
L 1384 1650 
L 2841 1650 
z
" transform="scale(0.015625)"/>
       <path id="TimesNewRomanPSMT-6e" d="M 1034 2341 
Q 1538 2947 1994 2947 
Q 2228 2947 2397 2830 
Q 2566 2713 2666 2444 
Q 2734 2256 2734 1869 
L 2734 647 
Q 2734 375 2778 278 
Q 2813 200 2889 156 
Q 2966 113 3172 113 
L 3172 0 
L 1756 0 
L 1756 113 
L 1816 113 
Q 2016 113 2095 173 
Q 2175 234 2206 353 
Q 2219 400 2219 647 
L 2219 1819 
Q 2219 2209 2117 2386 
Q 2016 2563 1775 2563 
Q 1403 2563 1034 2156 
L 1034 647 
Q 1034 356 1069 288 
Q 1113 197 1189 155 
Q 1266 113 1500 113 
L 1500 0 
L 84 0 
L 84 113 
L 147 113 
Q 366 113 442 223 
Q 519 334 519 647 
L 519 1709 
Q 519 2225 495 2337 
Q 472 2450 423 2490 
Q 375 2531 294 2531 
Q 206 2531 84 2484 
L 38 2597 
L 900 2947 
L 1034 2947 
L 1034 2341 
z
" transform="scale(0.015625)"/>
       <path id="TimesNewRomanPSMT-67" d="M 966 1044 
Q 703 1172 562 1401 
Q 422 1631 422 1909 
Q 422 2334 742 2640 
Q 1063 2947 1563 2947 
Q 1972 2947 2272 2747 
L 2878 2747 
Q 3013 2747 3034 2739 
Q 3056 2731 3066 2713 
Q 3084 2684 3084 2613 
Q 3084 2531 3069 2500 
Q 3059 2484 3036 2475 
Q 3013 2466 2878 2466 
L 2506 2466 
Q 2681 2241 2681 1891 
Q 2681 1491 2375 1206 
Q 2069 922 1553 922 
Q 1341 922 1119 984 
Q 981 866 932 777 
Q 884 688 884 625 
Q 884 572 936 522 
Q 988 472 1138 450 
Q 1225 438 1575 428 
Q 2219 413 2409 384 
Q 2700 344 2873 169 
Q 3047 -6 3047 -263 
Q 3047 -616 2716 -925 
Q 2228 -1381 1444 -1381 
Q 841 -1381 425 -1109 
Q 191 -953 191 -784 
Q 191 -709 225 -634 
Q 278 -519 444 -313 
Q 466 -284 763 25 
Q 600 122 533 198 
Q 466 275 466 372 
Q 466 481 555 628 
Q 644 775 966 1044 
z
M 1509 2797 
Q 1278 2797 1122 2612 
Q 966 2428 966 2047 
Q 966 1553 1178 1281 
Q 1341 1075 1591 1075 
Q 1828 1075 1981 1253 
Q 2134 1431 2134 1813 
Q 2134 2309 1919 2591 
Q 1759 2797 1509 2797 
z
M 934 0 
Q 788 -159 713 -296 
Q 638 -434 638 -550 
Q 638 -700 819 -813 
Q 1131 -1006 1722 -1006 
Q 2284 -1006 2551 -807 
Q 2819 -609 2819 -384 
Q 2819 -222 2659 -153 
Q 2497 -84 2016 -72 
Q 1313 -53 934 0 
z
" transform="scale(0.015625)"/>
       <path id="TimesNewRomanPSMT-75" d="M 2709 2863 
L 2709 1128 
Q 2709 631 2732 520 
Q 2756 409 2807 365 
Q 2859 322 2928 322 
Q 3025 322 3147 375 
L 3191 266 
L 2334 -88 
L 2194 -88 
L 2194 519 
Q 1825 119 1631 15 
Q 1438 -88 1222 -88 
Q 981 -88 804 51 
Q 628 191 559 409 
Q 491 628 491 1028 
L 491 2306 
Q 491 2509 447 2587 
Q 403 2666 317 2708 
Q 231 2750 6 2747 
L 6 2863 
L 1009 2863 
L 1009 947 
Q 1009 547 1148 422 
Q 1288 297 1484 297 
Q 1619 297 1789 381 
Q 1959 466 2194 703 
L 2194 2325 
Q 2194 2569 2105 2655 
Q 2016 2741 1734 2747 
L 1734 2863 
L 2709 2863 
z
" transform="scale(0.015625)"/>
       <path id="TimesNewRomanPSMT-6c" d="M 1184 4444 
L 1184 647 
Q 1184 378 1223 290 
Q 1263 203 1344 158 
Q 1425 113 1647 113 
L 1647 0 
L 244 0 
L 244 113 
Q 441 113 512 153 
Q 584 194 625 287 
Q 666 381 666 647 
L 666 3247 
Q 666 3731 644 3842 
Q 622 3953 573 3993 
Q 525 4034 450 4034 
Q 369 4034 244 3984 
L 191 4094 
L 1044 4444 
L 1184 4444 
z
" transform="scale(0.015625)"/>
       <path id="TimesNewRomanPSMT-61" d="M 1822 413 
Q 1381 72 1269 19 
Q 1100 -59 909 -59 
Q 613 -59 420 144 
Q 228 347 228 678 
Q 228 888 322 1041 
Q 450 1253 767 1440 
Q 1084 1628 1822 1897 
L 1822 2009 
Q 1822 2438 1686 2597 
Q 1550 2756 1291 2756 
Q 1094 2756 978 2650 
Q 859 2544 859 2406 
L 866 2225 
Q 866 2081 792 2003 
Q 719 1925 600 1925 
Q 484 1925 411 2006 
Q 338 2088 338 2228 
Q 338 2497 613 2722 
Q 888 2947 1384 2947 
Q 1766 2947 2009 2819 
Q 2194 2722 2281 2516 
Q 2338 2381 2338 1966 
L 2338 994 
Q 2338 584 2353 492 
Q 2369 400 2405 369 
Q 2441 338 2488 338 
Q 2538 338 2575 359 
Q 2641 400 2828 588 
L 2828 413 
Q 2478 -56 2159 -56 
Q 2006 -56 1915 50 
Q 1825 156 1822 413 
z
M 1822 616 
L 1822 1706 
Q 1350 1519 1213 1441 
Q 966 1303 859 1153 
Q 753 1003 753 825 
Q 753 600 887 451 
Q 1022 303 1197 303 
Q 1434 303 1822 616 
z
" transform="scale(0.015625)"/>
       <path id="TimesNewRomanPSMT-72" d="M 1038 2947 
L 1038 2303 
Q 1397 2947 1775 2947 
Q 1947 2947 2059 2842 
Q 2172 2738 2172 2600 
Q 2172 2478 2090 2393 
Q 2009 2309 1897 2309 
Q 1788 2309 1652 2417 
Q 1516 2525 1450 2525 
Q 1394 2525 1328 2463 
Q 1188 2334 1038 2041 
L 1038 669 
Q 1038 431 1097 309 
Q 1138 225 1241 169 
Q 1344 113 1538 113 
L 1538 0 
L 72 0 
L 72 113 
Q 291 113 397 181 
Q 475 231 506 341 
Q 522 394 522 644 
L 522 1753 
Q 522 2253 501 2348 
Q 481 2444 426 2487 
Q 372 2531 291 2531 
Q 194 2531 72 2484 
L 41 2597 
L 906 2947 
L 1038 2947 
z
" transform="scale(0.015625)"/>
       <path id="TimesNewRomanPSMT-76" d="M 53 2863 
L 1400 2863 
L 1400 2747 
L 1313 2747 
Q 1191 2747 1127 2687 
Q 1063 2628 1063 2528 
Q 1063 2419 1128 2269 
L 1794 688 
L 2463 2328 
Q 2534 2503 2534 2594 
Q 2534 2638 2509 2666 
Q 2475 2713 2422 2730 
Q 2369 2747 2206 2747 
L 2206 2863 
L 3141 2863 
L 3141 2747 
Q 2978 2734 2916 2681 
Q 2806 2588 2719 2369 
L 1703 -88 
L 1575 -88 
L 553 2328 
Q 484 2497 421 2570 
Q 359 2644 263 2694 
Q 209 2722 53 2747 
L 53 2863 
z
" transform="scale(0.015625)"/>
       <path id="TimesNewRomanPSMT-6f" d="M 1600 2947 
Q 2250 2947 2644 2453 
Q 2978 2031 2978 1484 
Q 2978 1100 2793 706 
Q 2609 313 2286 112 
Q 1963 -88 1566 -88 
Q 919 -88 538 428 
Q 216 863 216 1403 
Q 216 1797 411 2186 
Q 606 2575 925 2761 
Q 1244 2947 1600 2947 
z
M 1503 2744 
Q 1338 2744 1170 2645 
Q 1003 2547 900 2300 
Q 797 2053 797 1666 
Q 797 1041 1045 587 
Q 1294 134 1700 134 
Q 2003 134 2200 384 
Q 2397 634 2397 1244 
Q 2397 2006 2069 2444 
Q 1847 2744 1503 2744 
z
" transform="scale(0.015625)"/>
       <path id="TimesNewRomanPSMT-63" d="M 2631 1088 
Q 2516 522 2178 217 
Q 1841 -88 1431 -88 
Q 944 -88 581 321 
Q 219 731 219 1428 
Q 219 2103 620 2525 
Q 1022 2947 1584 2947 
Q 2006 2947 2278 2723 
Q 2550 2500 2550 2259 
Q 2550 2141 2473 2067 
Q 2397 1994 2259 1994 
Q 2075 1994 1981 2113 
Q 1928 2178 1911 2362 
Q 1894 2547 1784 2644 
Q 1675 2738 1481 2738 
Q 1169 2738 978 2506 
Q 725 2200 725 1697 
Q 725 1184 976 792 
Q 1228 400 1656 400 
Q 1963 400 2206 609 
Q 2378 753 2541 1131 
L 2631 1088 
z
" transform="scale(0.015625)"/>
       <path id="TimesNewRomanPSMT-74" d="M 1031 3803 
L 1031 2863 
L 1700 2863 
L 1700 2644 
L 1031 2644 
L 1031 788 
Q 1031 509 1111 412 
Q 1191 316 1316 316 
Q 1419 316 1516 380 
Q 1613 444 1666 569 
L 1788 569 
Q 1678 263 1478 108 
Q 1278 -47 1066 -47 
Q 922 -47 784 33 
Q 647 113 581 261 
Q 516 409 516 719 
L 516 2644 
L 63 2644 
L 63 2747 
Q 234 2816 414 2980 
Q 594 3144 734 3369 
Q 806 3488 934 3803 
L 1031 3803 
z
" transform="scale(0.015625)"/>
       <path id="TimesNewRomanPSMT-79" d="M 38 2863 
L 1372 2863 
L 1372 2747 
L 1306 2747 
Q 1166 2747 1095 2686 
Q 1025 2625 1025 2534 
Q 1025 2413 1128 2197 
L 1825 753 
L 2466 2334 
Q 2519 2463 2519 2588 
Q 2519 2644 2497 2672 
Q 2472 2706 2419 2726 
Q 2366 2747 2231 2747 
L 2231 2863 
L 3163 2863 
L 3163 2747 
Q 3047 2734 2984 2696 
Q 2922 2659 2847 2556 
Q 2819 2513 2741 2316 
L 1575 -541 
Q 1406 -956 1132 -1168 
Q 859 -1381 606 -1381 
Q 422 -1381 303 -1275 
Q 184 -1169 184 -1031 
Q 184 -900 270 -820 
Q 356 -741 506 -741 
Q 609 -741 788 -809 
Q 913 -856 944 -856 
Q 1038 -856 1148 -759 
Q 1259 -663 1372 -384 
L 1575 113 
L 547 2272 
Q 500 2369 397 2513 
Q 319 2622 269 2659 
Q 197 2709 38 2747 
L 38 2863 
z
" transform="scale(0.015625)"/>
       <path id="TimesNewRomanPSMT-66" d="M 1319 2638 
L 1319 756 
Q 1319 356 1406 250 
Q 1522 113 1716 113 
L 1975 113 
L 1975 0 
L 266 0 
L 266 113 
L 394 113 
Q 519 113 622 175 
Q 725 238 764 344 
Q 803 450 803 756 
L 803 2638 
L 247 2638 
L 247 2863 
L 803 2863 
L 803 3050 
Q 803 3478 940 3775 
Q 1078 4072 1361 4255 
Q 1644 4438 1997 4438 
Q 2325 4438 2600 4225 
Q 2781 4084 2781 3909 
Q 2781 3816 2700 3733 
Q 2619 3650 2525 3650 
Q 2453 3650 2373 3701 
Q 2294 3753 2178 3923 
Q 2063 4094 1966 4153 
Q 1869 4213 1750 4213 
Q 1606 4213 1506 4136 
Q 1406 4059 1362 3898 
Q 1319 3738 1319 3069 
L 1319 2863 
L 2056 2863 
L 2056 2638 
L 1319 2638 
z
" transform="scale(0.015625)"/>
       <path id="TimesNewRomanPSMT-68" d="M 1041 4444 
L 1041 2350 
Q 1388 2731 1591 2839 
Q 1794 2947 1997 2947 
Q 2241 2947 2416 2812 
Q 2591 2678 2675 2391 
Q 2734 2191 2734 1659 
L 2734 647 
Q 2734 375 2778 275 
Q 2809 200 2884 156 
Q 2959 113 3159 113 
L 3159 0 
L 1753 0 
L 1753 113 
L 1819 113 
Q 2019 113 2097 173 
Q 2175 234 2206 353 
Q 2216 403 2216 647 
L 2216 1659 
Q 2216 2128 2167 2275 
Q 2119 2422 2012 2495 
Q 1906 2569 1756 2569 
Q 1603 2569 1437 2487 
Q 1272 2406 1041 2159 
L 1041 647 
Q 1041 353 1073 281 
Q 1106 209 1195 161 
Q 1284 113 1503 113 
L 1503 0 
L 84 0 
L 84 113 
Q 275 113 384 172 
Q 447 203 484 290 
Q 522 378 522 647 
L 522 3238 
Q 522 3728 498 3840 
Q 475 3953 426 3993 
Q 378 4034 297 4034 
Q 231 4034 84 3984 
L 41 4094 
L 897 4444 
L 1041 4444 
z
" transform="scale(0.015625)"/>
       <path id="TimesNewRomanPSMT-2d" d="M 259 1672 
L 1875 1672 
L 1875 1200 
L 259 1200 
L 259 1672 
z
" transform="scale(0.015625)"/>
       <path id="DejaVuSans-Oblique-3c9" d="M 1369 -91 
Q 72 -91 434 1766 
Q 575 2500 1256 3500 
L 1875 3500 
Q 1231 2500 1088 1750 
Q 819 397 1519 397 
Q 2166 397 2478 2078 
L 3009 2078 
Q 2669 388 3316 397 
Q 4013 403 4275 1750 
Q 4419 2500 4169 3500 
L 4788 3500 
Q 5075 2500 4934 1766 
Q 4578 -94 3278 -91 
Q 2428 -88 2503 844 
Q 2194 -91 1369 -91 
z
" transform="scale(0.015625)"/>
       <path id="DejaVuSans-Oblique-6d" d="M 5747 2113 
L 5338 0 
L 4763 0 
L 5166 2094 
Q 5191 2228 5203 2325 
Q 5216 2422 5216 2491 
Q 5216 2772 5059 2928 
Q 4903 3084 4622 3084 
Q 4203 3084 3875 2770 
Q 3547 2456 3450 1953 
L 3066 0 
L 2491 0 
L 2900 2094 
Q 2925 2209 2937 2307 
Q 2950 2406 2950 2484 
Q 2950 2769 2794 2926 
Q 2638 3084 2363 3084 
Q 1938 3084 1609 2770 
Q 1281 2456 1184 1953 
L 800 0 
L 225 0 
L 909 3500 
L 1484 3500 
L 1375 2956 
Q 1609 3263 1923 3423 
Q 2238 3584 2597 3584 
Q 2978 3584 3223 3384 
Q 3469 3184 3519 2828 
Q 3781 3197 4126 3390 
Q 4472 3584 4856 3584 
Q 5306 3584 5551 3325 
Q 5797 3066 5797 2591 
Q 5797 2488 5784 2364 
Q 5772 2241 5747 2113 
z
" transform="scale(0.015625)"/>
       <path id="TimesNewRomanPSMT-64" d="M 2222 322 
Q 2013 103 1813 7 
Q 1613 -88 1381 -88 
Q 913 -88 563 304 
Q 213 697 213 1313 
Q 213 1928 600 2439 
Q 988 2950 1597 2950 
Q 1975 2950 2222 2709 
L 2222 3238 
Q 2222 3728 2198 3840 
Q 2175 3953 2125 3993 
Q 2075 4034 2000 4034 
Q 1919 4034 1784 3984 
L 1744 4094 
L 2597 4444 
L 2738 4444 
L 2738 1134 
Q 2738 631 2761 520 
Q 2784 409 2836 365 
Q 2888 322 2956 322 
Q 3041 322 3181 375 
L 3216 266 
L 2366 -88 
L 2222 -88 
L 2222 322 
z
M 2222 541 
L 2222 2016 
Q 2203 2228 2109 2403 
Q 2016 2578 1861 2667 
Q 1706 2756 1559 2756 
Q 1284 2756 1069 2509 
Q 784 2184 784 1559 
Q 784 928 1059 592 
Q 1334 256 1672 256 
Q 1956 256 2222 541 
z
" transform="scale(0.015625)"/>
       <path id="TimesNewRomanPSMT-2f" d="M 1794 4444 
L 259 -88 
L 9 -88 
L 1544 4444 
L 1794 4444 
z
" transform="scale(0.015625)"/>
      </defs>
      <use xlink:href="#TimesNewRomanPSMT-41" transform="translate(0 0.5625)"/>
      <use xlink:href="#TimesNewRomanPSMT-6e" transform="translate(72.216797 0.5625)"/>
      <use xlink:href="#TimesNewRomanPSMT-67" transform="translate(122.216797 0.5625)"/>
      <use xlink:href="#TimesNewRomanPSMT-75" transform="translate(172.216797 0.5625)"/>
      <use xlink:href="#TimesNewRomanPSMT-6c" transform="translate(222.216797 0.5625)"/>
      <use xlink:href="#TimesNewRomanPSMT-61" transform="translate(250 0.5625)"/>
      <use xlink:href="#TimesNewRomanPSMT-72" transform="translate(294.384766 0.5625)"/>
      <use xlink:href="#TimesNewRomanPSMT-20" transform="translate(327.685547 0.5625)"/>
      <use xlink:href="#TimesNewRomanPSMT-76" transform="translate(352.685547 0.5625)"/>
      <use xlink:href="#TimesNewRomanPSMT-65" transform="translate(402.685547 0.5625)"/>
      <use xlink:href="#TimesNewRomanPSMT-6c" transform="translate(447.070312 0.5625)"/>
      <use xlink:href="#TimesNewRomanPSMT-6f" transform="translate(474.853516 0.5625)"/>
      <use xlink:href="#TimesNewRomanPSMT-63" transform="translate(524.853516 0.5625)"/>
      <use xlink:href="#TimesNewRomanPSMT-69" transform="translate(569.238281 0.5625)"/>
      <use xlink:href="#TimesNewRomanPSMT-74" transform="translate(597.021484 0.5625)"/>
      <use xlink:href="#TimesNewRomanPSMT-79" transform="translate(624.804688 0.5625)"/>
      <use xlink:href="#TimesNewRomanPSMT-20" transform="translate(674.804688 0.5625)"/>
      <use xlink:href="#TimesNewRomanPSMT-6f" transform="translate(699.804688 0.5625)"/>
      <use xlink:href="#TimesNewRomanPSMT-66" transform="translate(749.804688 0.5625)"/>
      <use xlink:href="#TimesNewRomanPSMT-20" transform="translate(783.105469 0.5625)"/>
      <use xlink:href="#TimesNewRomanPSMT-74" transform="translate(808.105469 0.5625)"/>
      <use xlink:href="#TimesNewRomanPSMT-68" transform="translate(835.888672 0.5625)"/>
      <use xlink:href="#TimesNewRomanPSMT-65" transform="translate(885.888672 0.5625)"/>
      <use xlink:href="#TimesNewRomanPSMT-20" transform="translate(930.273438 0.5625)"/>
      <use xlink:href="#TimesNewRomanPSMT-6d" transform="translate(955.273438 0.5625)"/>
      <use xlink:href="#TimesNewRomanPSMT-6f" transform="translate(1033.056641 0.5625)"/>
      <use xlink:href="#TimesNewRomanPSMT-74" transform="translate(1083.056641 0.5625)"/>
      <use xlink:href="#TimesNewRomanPSMT-6f" transform="translate(1110.839844 0.5625)"/>
      <use xlink:href="#TimesNewRomanPSMT-72" transform="translate(1160.839844 0.5625)"/>
      <use xlink:href="#TimesNewRomanPSMT-20" transform="translate(1194.140625 0.5625)"/>
      <use xlink:href="#TimesNewRomanPSMT-2d" transform="translate(1219.140625 0.5625)"/>
      <use xlink:href="#TimesNewRomanPSMT-20" transform="translate(1252.441406 0.5625)"/>
      <use xlink:href="#DejaVuSans-Oblique-3c9" transform="translate(1277.441406 0.5625)"/>
      <use xlink:href="#DejaVuSans-Oblique-6d" transform="translate(1361.181641 -15.84375) scale(0.7)"/>
      <use xlink:href="#TimesNewRomanPSMT-20" transform="translate(1432.104492 0.5625)"/>
      <use xlink:href="#TimesNewRomanPSMT-28" transform="translate(1457.104492 0.5625)"/>
      <use xlink:href="#TimesNewRomanPSMT-72" transform="translate(1490.405273 0.5625)"/>
      <use xlink:href="#TimesNewRomanPSMT-61" transform="translate(1523.706055 0.5625)"/>
      <use xlink:href="#TimesNewRomanPSMT-64" transform="translate(1568.09082 0.5625)"/>
      <use xlink:href="#TimesNewRomanPSMT-2f" transform="translate(1618.09082 0.5625)"/>
      <use xlink:href="#TimesNewRomanPSMT-73" transform="translate(1645.874023 0.5625)"/>
      <use xlink:href="#TimesNewRomanPSMT-29" transform="translate(1684.790039 0.5625)"/>
     </g>
    </g>
   </g>
   <g id="line2d_27">
    <path d="M 69.218182 153.537431 
L 69.228327 153.838288 
L 69.2892 152.500866 
L 69.542836 149.899215 
L 69.705164 146.812191 
L 69.938509 139.481724 
L 70.283455 126.258845 
L 70.506655 117.041836 
L 71.4096 95.782364 
L 71.419745 95.845187 
L 71.450182 96.048684 
L 71.460327 95.686239 
L 71.500909 95.998055 
L 71.612509 94.616396 
L 71.622655 94.660841 
L 71.653091 94.814084 
L 71.764691 93.797239 
L 71.774836 93.851352 
L 71.815418 93.530767 
L 71.906727 94.220324 
L 71.916873 93.91847 
L 71.998036 94.635925 
L 72.018327 94.38918 
L 72.535745 103.514302 
L 73.519855 137.62359 
L 75.477927 209.884371 
L 76.4316 229.80076 
L 76.462036 229.791488 
L 76.472182 229.788671 
L 76.583782 231.215065 
L 76.593927 231.086935 
L 76.624364 230.712554 
L 76.634509 231.493676 
L 76.675091 230.961352 
L 76.786691 232.313432 
L 76.796836 232.139392 
L 76.827273 231.630915 
L 76.837418 232.537407 
L 76.878 231.788326 
L 76.9896 233.560735 
L 76.999745 233.382698 
L 77.030182 232.862238 
L 77.040327 234.020773 
L 77.080909 233.319227 
L 77.141782 234.468897 
L 77.192509 234.405382 
L 77.334545 232.763338 
L 77.344691 233.904961 
L 77.436 232.483826 
L 77.446145 233.431489 
L 77.588182 231.066447 
L 77.598327 232.262692 
L 77.689636 230.111743 
L 77.699782 231.631868 
L 77.841818 229.156342 
L 77.851964 230.459849 
L 77.943273 228.502977 
L 77.953418 229.679708 
L 78.095455 227.413142 
L 78.1056 228.655798 
L 78.196909 226.713544 
L 78.207055 227.724181 
L 78.399818 224.808462 
L 78.409964 225.542178 
L 78.480982 223.636127 
L 79.921636 166.94388 
L 80.104255 156.794578 
L 80.226 150.322482 
L 80.398473 140.284137 
L 80.530364 134.954828 
L 80.702836 126.096033 
L 80.794145 121.363009 
L 80.936182 115.516531 
L 81.098509 107.885431 
L 81.240545 103.004884 
L 81.402873 97.322071 
L 81.494182 95.502145 
L 81.656509 90.751688 
L 81.747818 88.867073 
L 81.910145 84.791823 
L 82.102909 81.440789 
L 82.255091 79.515511 
L 82.265236 79.760798 
L 82.356545 79.383459 
L 82.468145 78.532138 
L 82.498582 78.589357 
L 82.508727 78.608172 
L 82.640618 77.806923 
L 82.660909 77.77616 
L 82.823236 76.256048 
L 83.218909 73.761386 
L 83.269636 73.838337 
L 83.523273 74.656298 
L 83.533418 74.564789 
L 83.614582 74.774402 
L 83.807345 75.386577 
L 83.888509 76.593234 
L 84.213164 82.239739 
L 84.771164 100.429677 
L 85.4712 137.721173 
L 86.485745 194.417455 
L 86.840836 208.35926 
L 87.226364 221.510216 
L 87.236509 221.025208 
L 87.297382 222.833169 
L 87.530727 228.698159 
L 87.540873 228.267049 
L 87.581455 229.802348 
L 87.601745 229.631034 
L 87.936545 238.797251 
L 87.946691 238.307436 
L 88.017709 240.161796 
L 88.048145 240.033942 
L 88.190182 243.288903 
L 88.200327 242.303874 
L 88.281491 244.183553 
L 88.393091 245.779392 
L 88.301782 243.642413 
L 88.423527 245.329134 
L 88.453964 244.729976 
L 88.545273 246.035484 
L 88.656873 244.739875 
L 88.596 246.24 
L 88.667018 244.885557 
L 88.697455 245.251887 
L 88.7076 243.969027 
L 88.748182 244.206679 
L 88.880073 241.623706 
L 88.951091 240.915401 
L 89.093127 237.770312 
L 89.164145 235.331986 
L 89.306182 230.666587 
L 90.320727 174.267325 
L 90.330873 174.759781 
L 90.361309 172.188154 
L 90.625091 158.314478 
L 90.635236 158.800289 
L 90.675818 155.732194 
L 90.685964 156.119056 
L 91.081636 134.165348 
L 91.091782 134.297609 
L 91.101927 133.568478 
L 91.538182 109.8533 
L 91.548327 109.933376 
L 91.558473 109.324613 
L 91.8324 99.586615 
L 92.197636 88.396433 
L 92.207782 88.482657 
L 92.228073 87.749967 
L 92.755636 72.679593 
L 92.765782 72.832413 
L 92.806364 71.788125 
L 92.846945 70.973831 
L 93.009273 69.249062 
L 92.867236 71.052636 
L 93.019418 69.485474 
L 93.364364 66.342611 
L 93.374509 66.415271 
L 93.415091 66.19714 
L 93.465818 66.301067 
L 93.516545 66.180099 
L 93.536836 66.131145 
L 93.567273 66.154166 
L 93.719455 67.763267 
L 93.7296 67.676706 
L 93.780327 68.154982 
L 94.125273 72.966694 
L 94.754291 94.088698 
L 95.231127 119.23519 
L 96.783382 205.946041 
L 97.270364 222.055612 
L 97.321091 223.15115 
L 97.513855 227.967602 
L 97.980545 237.636812 
L 97.990691 237.493434 
L 98.051564 238.163368 
L 98.284909 241.220261 
L 98.335636 241.19856 
L 98.345782 241.130692 
L 98.406655 241.41212 
L 98.487818 241.906952 
L 98.548691 241.718857 
L 98.64 242.151177 
L 98.680582 241.824803 
L 98.690727 241.826139 
L 99.248727 233.001513 
L 99.756 214.548496 
L 99.766145 214.59231 
L 100.334291 184.583072 
L 101.399564 123.120401 
L 102.018436 96.068899 
L 102.586582 81.742378 
L 103.104 72.578371 
L 103.662 68.565537 
L 103.702582 68.932712 
L 103.966364 69.63122 
L 103.976509 69.366668 
L 104.067818 69.691361 
L 104.341745 75.137222 
L 104.899745 93.165352 
L 105.630218 132.243458 
L 106.857818 200.922117 
L 107.334655 217.51217 
L 107.781055 230.742836 
L 108.176727 238.301562 
L 108.186873 238.188601 
L 108.217309 238.834171 
L 108.2376 238.627268 
L 108.379636 240.21808 
L 108.389782 239.925413 
L 108.4608 240.744118 
L 108.491236 240.623274 
L 108.633273 241.702855 
L 108.643418 241.37107 
L 108.734727 241.957257 
L 108.744873 241.803433 
L 108.805745 242.4168 
L 108.836182 242.796582 
L 108.846327 242.295122 
L 108.886909 242.579185 
L 109.008655 241.240948 
L 109.039091 241.136434 
L 109.221709 238.584207 
L 109.394182 235.59965 
L 109.5768 229.578097 
L 109.972473 212.589866 
L 110.905855 158.059123 
L 111.514582 123.422833 
L 111.910255 106.897135 
L 112.539273 85.451272 
L 112.549418 85.435403 
L 113.188582 71.918448 
L 113.208873 71.934195 
L 113.401636 69.986803 
L 113.604545 68.101823 
L 113.624836 68.218906 
L 113.655273 68.085347 
L 113.716145 68.300123 
L 113.756727 68.316291 
L 113.807455 68.001645 
L 113.868327 68.250088 
L 114.162545 69.331953 
L 114.385745 72.139403 
L 114.740836 79.891426 
L 114.943745 88.444218 
L 115.562618 121.129773 
L 117.003273 199.452255 
L 117.135164 204.606217 
L 117.683018 221.721967 
L 118.514945 236.421754 
L 118.626545 237.053694 
L 118.535236 236.363461 
L 118.656982 236.930995 
L 118.677273 236.931416 
L 118.829455 238.059484 
L 118.849745 237.864058 
L 118.890327 237.89765 
L 119.052655 237.082923 
L 119.559927 231.402835 
L 119.996182 219.068184 
L 123.425345 49.490936 
L 123.648545 46.180531 
L 123.658691 46.205713 
L 123.668836 45.999688 
L 123.800727 44.753803 
L 123.831164 44.899223 
L 123.902182 44.64 
L 123.912327 44.978004 
L 123.932618 44.949508 
L 123.952909 44.953304 
L 124.094945 46.557707 
L 124.155818 47.83401 
L 124.368873 54.155647 
L 124.592073 62.253841 
L 124.845709 76.360674 
L 125.139927 97.296058 
L 125.779091 146.264219 
L 125.971855 162.175972 
L 126.286364 183.95671 
L 126.448691 195.78528 
L 126.489273 196.441088 
L 126.631309 204.381569 
L 126.641455 204.392983 
L 126.753055 211.42617 
L 126.773345 211.274607 
L 126.793636 211.118218 
L 126.905236 217.670515 
L 126.925527 217.17527 
L 126.945818 216.679612 
L 127.057418 222.478119 
L 127.067564 222.069068 
L 127.098 220.848887 
L 127.108145 223.603676 
L 127.148727 221.679984 
L 127.260327 226.819425 
L 127.270473 226.289601 
L 127.300909 224.712941 
L 127.311055 227.633975 
L 127.351636 225.165737 
L 127.463236 228.724862 
L 127.513964 229.021506 
L 127.605273 225.539036 
L 127.615418 228.655067 
L 127.706727 224.529697 
L 127.716873 227.719921 
L 127.858909 222.67395 
L 127.869055 225.927433 
L 127.960364 221.005268 
L 127.970509 224.115803 
L 128.112545 217.98401 
L 128.122691 220.659903 
L 128.203855 215.744875 
L 128.224145 217.341275 
L 128.366182 208.593534 
L 128.376327 211.474316 
L 128.457491 206.140754 
L 128.477782 207.459277 
L 128.619818 198.418945 
L 128.629964 200.813754 
L 128.711127 194.983022 
L 128.731418 196.133806 
L 128.873455 186.924634 
L 128.8836 189.086476 
L 128.964764 183.883844 
L 128.985055 184.498457 
L 129.167673 174.938978 
L 129.187964 175.360513 
L 129.380727 165.626023 
L 129.390873 166.23151 
L 129.431455 163.45064 
L 129.4416 163.663088 
L 129.695236 153.051744 
L 130.070618 141.61166 
L 130.090909 141.683527 
L 130.202509 137.258389 
L 130.2228 137.442279 
L 130.243091 137.72714 
L 130.354691 133.059033 
L 130.374982 133.490675 
L 130.395273 134.014568 
L 130.405418 131.763187 
L 130.446 132.868877 
L 130.5576 127.334629 
L 130.567745 127.647199 
L 130.598182 128.706987 
L 130.608327 126.024278 
L 130.648909 127.488542 
L 130.760509 122.08898 
L 130.770655 122.497728 
L 130.801091 123.826452 
L 130.811236 120.825561 
L 130.851818 122.604274 
L 130.963418 116.987799 
L 130.973564 117.461753 
L 131.004 118.966908 
L 131.014145 115.831698 
L 131.054727 117.870769 
L 131.166327 112.52619 
L 131.176473 113.033784 
L 131.206909 114.621724 
L 131.217055 111.467072 
L 131.257636 113.551541 
L 131.369236 108.379864 
L 131.379382 108.918661 
L 131.409818 110.58262 
L 131.419964 107.441675 
L 131.460545 109.58817 
L 131.572145 103.792922 
L 131.582291 104.226356 
L 131.612727 105.568752 
L 131.622873 102.635021 
L 131.663455 104.432183 
L 131.775055 100.479996 
L 131.7852 100.985259 
L 131.815636 102.525752 
L 131.825782 99.741017 
L 131.866364 101.656994 
L 131.977964 98.436807 
L 131.988109 98.90167 
L 132.018545 100.313334 
L 132.079418 97.991648 
L 132.12 99.961897 
L 132.180873 97.592426 
L 132.2316 97.921473 
L 132.272182 99.972051 
L 132.333055 97.689037 
L 132.363491 98.991639 
L 132.373636 99.427209 
L 132.383782 97.315641 
L 132.424364 98.944718 
L 132.485236 97.075131 
L 132.535964 97.101266 
L 132.627273 98.657275 
L 132.637418 97.036925 
L 132.678 98.481268 
L 132.738873 97.150629 
L 132.728727 98.676835 
L 132.7896 97.37928 
L 132.931636 99.2781 
L 132.941782 98.454803 
L 133.022945 100.281263 
L 133.043236 99.714419 
L 133.185273 102.563557 
L 133.195418 101.852141 
L 133.276582 103.395859 
L 133.296873 103.10994 
L 133.591091 109.553533 
L 133.601236 109.546466 
L 134.656364 146.170645 
L 134.940436 158.012591 
L 136.665164 216.882012 
L 136.786909 218.815642 
L 136.928945 221.427749 
L 136.939091 221.461869 
L 137.050691 223.567861 
L 137.070982 223.509046 
L 137.091273 223.444442 
L 137.202873 224.467126 
L 137.213018 224.371872 
L 137.243455 224.079621 
L 137.2536 224.955836 
L 137.294182 224.583122 
L 137.405782 226.064814 
L 137.415927 225.925458 
L 137.507236 226.169104 
L 137.547818 225.324509 
L 137.557964 226.424133 
L 137.649273 224.881428 
L 137.659418 225.573039 
L 137.902909 220.613446 
L 137.913055 221.35267 
L 137.994218 219.276771 
L 138.014509 219.761672 
L 138.156545 216.455883 
L 138.166691 217.416483 
L 138.237709 214.860694 
L 138.460909 208.076528 
L 138.471055 208.86827 
L 138.542073 205.745622 
L 138.816 194.243651 
L 138.826145 195.011583 
L 138.866727 192.291193 
L 138.887018 192.383288 
L 139.120364 182.958728 
L 139.130509 183.533394 
L 139.191382 180.842209 
L 139.475455 169.146751 
L 139.4856 169.180635 
L 139.840691 154.045524 
L 140.327673 134.73909 
L 140.692909 122.533102 
L 140.834945 117.441454 
L 140.845091 117.364847 
L 140.987127 113.273863 
L 140.997273 113.262589 
L 141.129164 108.758789 
L 141.149455 108.758285 
L 141.261055 104.054177 
L 141.281345 104.138215 
L 141.301636 104.240967 
L 141.443673 99.046532 
L 141.453818 99.035802 
L 141.595855 94.643768 
L 141.606 94.644297 
L 141.7176 90.351601 
L 141.737891 90.36585 
L 141.758182 90.397982 
L 141.869782 87.163213 
L 141.879927 87.260036 
L 141.910364 87.569163 
L 142.021964 84.752104 
L 142.042255 84.991539 
L 142.062545 85.241443 
L 142.174145 82.292091 
L 142.194436 82.429281 
L 142.214727 82.579475 
L 142.326327 80.173006 
L 142.336473 80.252365 
L 142.366909 80.509813 
L 142.377055 79.691909 
L 142.417636 80.125942 
L 142.529236 78.858921 
L 142.539382 78.963958 
L 142.569818 79.298242 
L 142.579964 78.443277 
L 142.620545 78.886913 
L 142.630691 78.459576 
L 142.722 79.179637 
L 142.732145 78.73523 
L 143.127818 84.535597 
L 143.137964 84.184057 
L 143.208982 85.416151 
L 143.675673 98.735412 
L 144.558327 135.519718 
L 145.7352 190.98628 
L 146.272909 209.807189 
L 146.830909 225.921309 
L 147.236727 231.276042 
L 147.267164 231.210403 
L 147.287455 231.178091 
L 147.307745 231.344707 
L 147.338182 231.373711 
L 147.399055 231.745377 
L 147.439636 231.483982 
L 147.490364 230.92977 
L 147.551236 231.453739 
L 147.591818 231.167201 
L 147.601964 231.531212 
L 147.642545 231.233852 
L 147.652691 231.611389 
L 147.733855 230.912089 
L 147.754145 230.948425 
L 148.241127 222.865325 
L 149.144073 192.654276 
L 149.996291 154.556371 
L 151.274618 100.064831 
L 152.3196 76.124593 
L 152.390618 75.809487 
L 152.410909 75.821647 
L 152.522509 74.718769 
L 152.532655 74.755752 
L 152.573236 74.605604 
L 152.664545 75.175864 
L 152.725418 74.741771 
L 152.776145 74.858502 
L 153.273273 79.893295 
L 153.486327 85.17346 
L 153.973309 100.802819 
L 154.673345 133.122095 
L 155.200909 158.255158 
L 156.408218 211.56715 
L 157.128545 229.629671 
L 157.199564 230.53791 
L 157.585091 233.770603 
L 157.716982 233.595248 
L 157.737273 233.526986 
L 157.747418 233.778074 
L 157.788 233.658179 
L 157.798145 233.829958 
L 157.889455 233.540515 
L 157.980764 232.914696 
L 158.274982 228.360973 
L 158.822836 213.602321 
L 159.695345 175.979567 
L 160.222909 151.056801 
L 160.476545 139.099566 
L 160.973673 115.380568 
L 161.957782 81.533786 
L 162.434618 75.021039 
L 162.495491 74.491281 
L 162.759273 72.647487 
L 162.911455 72.76451 
L 163.215818 76.166195 
L 163.225964 75.970006 
L 163.296982 76.675098 
L 163.510036 81.426515 
L 164.088327 99.644651 
L 165.031855 142.451958 
L 165.955091 188.013587 
L 167.020364 225.719039 
L 167.030509 225.689385 
L 167.659527 234.989995 
L 167.832 236.505875 
L 167.882727 236.490075 
L 168.065345 234.617188 
L 168.258109 231.44614 
L 168.948 216.168137 
L 169.1712 207.853237 
L 169.881382 173.852547 
L 170.611855 139.472336 
L 171.930764 85.457113 
L 172.306145 76.876191 
L 172.6308 72.474772 
L 172.803273 71.32809 
L 172.864145 71.620773 
L 172.9656 72.108756 
L 173.269964 74.649079 
L 173.462727 78.331334 
L 173.736655 84.028868 
L 174.203345 97.578503 
L 174.629455 115.512975 
L 175.055564 135.767365 
L 176.891891 218.599852 
L 177.348436 228.992771 
L 177.794836 234.00868 
L 177.804982 234.006788 
L 177.845564 233.877743 
L 177.977455 233.179834 
L 178.078909 233.316768 
L 178.089055 233.571457 
L 178.180364 233.189971 
L 178.373127 231.182324 
L 178.819527 222.616366 
L 179.306509 207.204634 
L 179.9964 176.03529 
L 181.264582 115.131551 
L 181.863164 93.962895 
L 182.654509 75.194947 
L 182.908145 74.185225 
L 182.938582 74.251919 
L 182.958873 74.226107 
L 182.999455 74.398178 
L 183.0096 73.957054 
L 183.111055 74.145629 
L 183.202364 74.506369 
L 183.212509 74.00612 
L 183.313964 74.203652 
L 183.364691 74.181671 
L 183.476291 75.520353 
L 183.780655 81.520032 
L 184.3488 98.657661 
L 185.312618 142.183975 
L 186.672109 206.777438 
L 187.301127 225.656228 
L 187.92 236.186093 
L 187.930145 236.129961 
L 187.960582 236.506569 
L 188.021455 236.742569 
L 188.0316 236.4445 
L 188.072182 236.551519 
L 188.244655 235.293969 
L 188.478 233.493807 
L 188.772218 228.273051 
L 189.340364 214.521737 
L 189.685309 200.294807 
L 190.537527 158.700625 
L 192.079636 88.028323 
L 192.1608 85.543794 
L 192.546327 76.661864 
L 192.891273 71.219177 
L 192.901418 71.294778 
L 193.043455 70.381502 
L 193.063745 70.445879 
L 193.094182 70.299836 
L 193.104327 70.616173 
L 193.144909 70.57661 
L 193.317382 71.678246 
L 193.398545 72.653217 
L 193.550727 74.483823 
L 193.560873 74.451097 
L 193.581164 74.69083 
L 193.956545 80.676503 
L 194.342073 92.554071 
L 195.133418 126.51091 
L 196.523345 193.992399 
L 197.487164 226.301498 
L 198.014727 235.954743 
L 198.055309 236.216688 
L 198.116182 236.80089 
L 198.166909 236.552663 
L 198.2988 235.908622 
L 198.319091 235.893176 
L 198.420545 235.51834 
L 198.440836 235.59868 
L 198.471273 235.574027 
L 198.481418 235.685595 
L 198.522 235.777027 
L 198.542291 235.540667 
L 198.572727 235.489253 
L 199.435091 217.00653 
L 199.668436 207.082393 
L 200.246727 181.708249 
L 200.703273 156.710745 
L 201.139527 133.987411 
L 201.900436 97.940581 
L 202.377273 80.449189 
L 202.387418 80.503315 
L 202.397564 80.17221 
L 202.580182 77.529433 
L 202.590327 77.621524 
L 202.620764 77.058757 
L 202.641055 77.087569 
L 202.986 72.25135 
L 202.996145 72.407555 
L 203.036727 71.826708 
L 203.067164 71.89155 
L 203.188909 71.003707 
L 203.259927 71.016479 
L 203.290364 70.858474 
L 203.300509 71.180322 
L 203.341091 71.014444 
L 203.513564 71.939792 
L 203.716473 73.617856 
L 203.949818 77.378431 
L 205.289018 125.522539 
L 207.328255 217.174264 
L 208.200764 233.621791 
L 208.210909 233.672705 
L 208.261636 233.535158 
L 208.403673 232.732218 
L 208.413818 232.651763 
L 208.474691 232.860041 
L 208.515273 232.716595 
L 208.525418 232.805746 
L 208.606582 232.583408 
L 208.616727 232.546704 
L 208.626873 232.731523 
L 208.667455 232.57905 
L 208.6776 232.810689 
L 208.748618 232.184451 
L 208.779055 232.224429 
L 209.052982 227.956708 
L 209.3472 219.89438 
L 210.605236 167.461563 
L 211.477745 124.681929 
L 212.2488 94.302705 
L 212.857527 80.036574 
L 213.131455 75.001799 
L 213.263345 73.46254 
L 213.4764 72.862265 
L 213.527127 72.995605 
L 213.547418 72.975786 
L 213.608291 73.493386 
L 214.348909 83.26374 
L 214.988073 106.772366 
L 215.546073 132.460931 
L 216.966436 200.539996 
L 217.625891 222.978718 
L 218.194036 233.750392 
L 218.407091 235.652201 
L 218.457818 235.544918 
L 218.559273 235.09412 
L 218.579564 235.146535 
L 218.7216 234.430791 
L 218.8332 232.929943 
L 219.421636 224.2597 
L 220.284 193.072007 
L 220.486909 183.367029 
L 221.237673 144.343773 
L 222.414545 91.474369 
L 222.424691 91.479266 
L 223.023273 74.532362 
L 223.033418 74.825254 
L 223.226182 72.871559 
L 223.236327 72.898287 
L 223.378364 71.710905 
L 223.429091 71.724121 
L 223.489964 71.903009 
L 223.479818 71.604352 
L 223.530545 71.753817 
L 223.682727 71.181133 
L 223.814618 71.992201 
L 223.895782 72.731512 
L 224.159564 77.049765 
L 224.758145 91.312456 
L 225.153818 106.37685 
L 226.858255 189.772577 
L 227.527855 215.122 
L 228.329345 231.375971 
L 228.400364 231.700429 
L 228.562691 233.180892 
L 228.775745 232.734035 
L 229.303309 226.127668 
L 229.9932 204.825742 
L 230.530909 182.251874 
L 230.541055 182.381259 
L 230.561345 181.370149 
L 231.8904 120.917993 
L 232.803491 90.558935 
L 232.965818 87.29224 
L 233.138291 82.240063 
L 233.320909 78.366004 
L 233.493382 75.813194 
L 233.736873 74.865266 
L 233.757164 74.913605 
L 233.777455 74.974462 
L 233.889055 74.100969 
L 233.909345 74.151079 
L 233.980364 74.564665 
L 234.386182 80.221712 
L 234.396327 80.118115 
L 234.426764 80.692699 
L 234.812291 90.344014 
L 235.694945 125.099373 
L 237.429818 208.148655 
L 237.937091 224.450875 
L 237.947236 224.44194 
L 238.495091 235.660386 
L 238.515382 235.491565 
L 238.748727 237.206881 
L 238.779164 236.814426 
L 238.799455 236.874793 
L 238.941491 235.626134 
L 239.002364 235.427731 
L 239.012509 235.763873 
L 239.022655 235.760713 
L 239.053091 235.728835 
L 239.245855 234.229596 
L 239.357455 233.109639 
L 239.540073 229.837589 
L 239.753127 225.704872 
L 239.915455 221.087036 
L 240.1488 211.632019 
L 240.5952 192.099737 
L 241.1532 164.637561 
L 242.786618 87.436053 
L 243.314182 73.360792 
L 243.324327 73.617674 
L 243.364909 72.633306 
L 243.3852 72.640891 
L 243.598255 70.545218 
L 243.770727 69.280358 
L 243.791018 69.434488 
L 243.821455 69.234313 
L 243.882327 69.57287 
L 243.922909 69.575062 
L 244.064945 70.752813 
L 244.196836 72.440605 
L 244.551927 77.150455 
L 244.886727 85.19293 
L 245.160655 94.685883 
L 245.7288 119.140391 
L 246.611455 162.795771 
L 246.854945 175.844939 
L 247.676727 209.563433 
L 248.427491 230.833117 
L 248.782582 234.71533 
L 248.8536 234.794049 
L 248.843455 234.664767 
L 248.884036 234.718071 
L 248.904327 234.751695 
L 249.046364 234.476753 
L 249.056509 234.609837 
L 249.137673 234.358033 
L 249.157964 234.458499 
L 249.330436 233.175205 
L 249.492764 230.493806 
L 249.908727 221.994588 
L 250.152218 213.765596 
L 250.791382 188.327098 
L 252.719018 95.587241 
L 253.175564 81.741203 
L 253.510364 76.417792 
L 253.520509 76.451784 
L 253.5408 76.255693 
L 253.723418 73.526378 
L 253.966909 71.623931 
L 253.977055 71.774177 
L 254.017636 71.706277 
L 254.048073 71.872754 
L 254.169818 72.09754 
L 254.179964 71.712857 
L 254.281418 71.972104 
L 254.372727 72.753687 
L 254.555345 76.889447 
L 255.255382 94.407594 
L 256.148182 132.069684 
L 256.696036 160.984524 
L 257.741018 208.374015 
L 258.228 223.711282 
L 258.867164 235.255877 
L 258.988909 235.960213 
L 258.8976 235.248002 
L 259.019345 235.663036 
L 259.039636 235.74185 
L 259.080218 235.478664 
L 259.090364 235.467377 
L 259.141091 235.067209 
L 259.212109 235.175585 
L 259.293273 235.460829 
L 259.344 235.325011 
L 259.496182 234.171666 
L 259.506327 234.199348 
L 259.536764 234.006878 
L 259.648364 232.547929 
L 259.851273 228.666807 
L 261.109309 181.780959 
L 263.331164 80.572472 
L 263.665964 74.580568 
L 263.858727 72.287862 
L 263.889164 72.384152 
L 263.9196 72.391686 
L 264.152945 69.692972 
L 264.163091 69.572189 
L 264.223964 70.138179 
L 264.264545 70.086703 
L 264.406582 71.432604 
L 264.487745 72.443424 
L 264.670364 75.070906 
L 264.873273 78.798667 
L 265.197927 87.164119 
L 265.897964 114.164674 
L 268.363309 223.185327 
L 269.083636 235.561762 
L 269.093782 235.546717 
L 269.103927 235.655206 
L 269.286545 237.01359 
L 269.306836 236.664277 
L 269.337273 236.680021 
L 269.550327 234.698371 
L 269.743091 232.541299 
L 270.432982 214.956913 
L 271.214182 183.893222 
L 271.488109 168.671705 
L 272.462073 120.087367 
L 273.344727 84.990032 
L 273.354873 85.031216 
L 273.872291 74.282475 
L 274.105636 70.546861 
L 274.166509 70.953827 
L 274.257818 70.692418 
L 274.288255 70.89504 
L 274.308545 70.896181 
L 274.359273 70.645182 
L 274.41 71.006888 
L 274.470873 71.714933 
L 274.988291 78.425863 
L 275.3028 86.921989 
L 276.114436 117.301068 
L 277.057964 164.17736 
L 277.849309 201.206886 
L 278.691382 228.162123 
L 279.076909 234.056503 
L 279.087055 234.029791 
L 279.330545 236.550402 
L 279.381273 236.449994 
L 279.391418 236.18154 
L 279.482727 236.568433 
L 279.563891 235.978056 
L 279.837818 233.731524 
L 280.071164 229.230095 
L 280.476982 219.164572 
L 280.923382 203.041197 
L 281.562545 172.942086 
L 282.019091 148.818051 
L 282.252436 137.040257 
L 283.195964 94.261407 
L 283.652509 80.540738 
L 284.149636 72.087721 
L 284.159782 72.175286 
L 284.200364 71.728786 
L 284.352545 70.750308 
L 284.494582 72.209288 
L 284.504727 72.263405 
L 284.5656 72.040675 
L 284.575745 72.052492 
L 284.626473 72.3152 
L 284.809091 73.177208 
L 284.961273 74.896394 
L 284.971418 74.803999 
L 285.012 75.227615 
L 286.432364 124.328343 
L 286.757018 142.389893 
L 288.116509 206.985349 
L 288.603491 221.909594 
L 289.090473 231.913212 
L 289.435418 235.200189 
L 289.445564 235.176104 
L 289.597745 234.484369 
L 290.135455 230.0874 
L 290.348509 224.733931 
L 290.835491 209.115709 
L 291.434073 184.916518 
L 293.666073 86.189175 
L 294.142909 75.753446 
L 294.153055 75.958874 
L 294.599455 73.370669 
L 294.629891 73.51244 
L 295.106727 76.336014 
L 295.847345 94.387746 
L 296.801018 136.087496 
L 298.819964 223.285188 
L 299.286655 231.646993 
L 299.367818 232.232395 
L 299.52 234.230062 
L 299.682327 234.725907 
L 299.763491 234.554766 
L 299.956255 233.396605 
L 300.331636 228.488316 
L 300.991091 210.352723 
L 303.598473 91.431472 
L 304.055018 79.375253 
L 304.440545 73.893651 
L 304.450691 74.06873 
L 304.8768 72.164985 
L 304.897091 72.142711 
L 305.049273 73.075064 
L 305.708727 84.10222 
L 305.901491 90.491415 
L 306.205855 103.219993 
L 307.758109 176.691568 
L 308.448 208.976003 
L 309.553855 236.087401 
L 309.574145 236.005769 
L 309.716182 236.942735 
L 309.817636 236.068067 
L 309.848073 236.095725 
L 310.203164 234.341327 
L 310.335055 232.644956 
L 310.639418 227.105483 
L 310.822036 222.065718 
L 311.227855 208.303369 
L 311.582945 193.415942 
L 312.404727 151.608617 
L 313.287382 106.665332 
L 313.612036 95.363184 
L 314.291782 75.633768 
L 314.535273 72.306536 
L 314.545418 72.308152 
L 314.555564 72.231587 
L 314.738182 71.569849 
L 314.748327 71.627524 
L 314.788909 71.606592 
L 314.9208 71.917537 
L 315.052691 72.184131 
L 315.093273 72.305519 
L 315.245455 73.931161 
L 315.2556 73.769963 
L 315.346909 74.02101 
L 315.539673 76.327692 
L 315.702 80.005558 
L 315.955636 88.168344 
L 316.422327 104.90644 
L 317.477455 155.311692 
L 318.086182 186.22516 
L 318.390545 199.550741 
L 318.978982 220.523319 
L 319.405091 231.146531 
L 319.415236 231.133386 
L 319.709455 235.906681 
L 319.739891 235.873309 
L 319.963091 237.659533 
L 319.973236 237.417453 
L 320.013818 237.696953 
L 320.023964 237.264024 
L 320.064545 237.420704 
L 320.115273 237.439536 
L 320.876182 226.553528 
L 321.119673 219.15905 
L 321.484909 205.674803 
L 322.377709 161.474575 
L 324.021273 83.544696 
L 324.031418 83.599515 
L 324.041564 83.242181 
L 324.427091 73.565935 
L 324.437236 73.919722 
L 324.508255 72.589541 
L 324.680727 70.954374 
L 324.690873 71.302904 
L 324.772036 70.602879 
L 325.035818 68.67635 
L 325.147418 69.184858 
L 325.086545 68.635978 
L 325.157564 69.14768 
L 325.188 69.061015 
L 325.340182 71.750048 
L 325.360473 71.730929 
L 325.6344 76.046759 
L 326.040218 85.586078 
L 326.557636 103.6295 
L 329.256327 224.31273 
L 329.692582 232.18401 
L 330.007091 235.373361 
L 330.138982 235.034173 
L 330.270873 234.636661 
L 330.453491 233.529354 
L 330.646255 231.159617 
L 331.133236 219.967896 
L 331.681091 201.595634 
L 331.965164 188.340277 
L 332.3304 170.104349 
L 333.740618 100.906559 
L 334.197164 86.733988 
L 334.674 76.28555 
L 334.724727 75.6515 
L 335.221855 71.430619 
L 335.232 71.419151 
L 335.242145 71.510479 
L 335.282727 71.52328 
L 335.485636 73.462057 
L 335.505927 73.590884 
L 335.942182 80.024809 
L 337.2408 129.85258 
L 338.884364 206.796333 
L 339.0264 211.981379 
L 339.553964 227.496578 
L 339.909055 232.029253 
L 339.969927 232.613793 
L 340.101818 233.755389 
L 340.193127 233.35977 
L 340.203273 233.353203 
L 340.223564 233.467495 
L 340.254 233.503966 
L 340.304727 234.023383 
L 340.375745 233.892053 
L 340.446764 233.278314 
L 340.467055 233.498432 
L 340.558364 232.965602 
L 340.568509 233.330304 
L 340.649673 232.462944 
L 341.0352 226.41433 
L 341.451164 213.932773 
L 342.222218 180.881261 
L 343.703455 110.119114 
L 344.758582 78.210736 
L 345.042655 75.458985 
L 345.276 73.865182 
L 345.3876 73.175398 
L 345.397745 73.187979 
L 345.428182 73.244711 
L 345.4992 72.948462 
L 345.539782 72.959122 
L 345.7224 74.300423 
L 346.026764 78.963303 
L 346.544182 94.012446 
L 347.386255 129.193962 
L 349.192145 212.758529 
L 349.8516 230.864616 
L 350.095091 233.739478 
L 350.115382 233.735138 
L 350.145818 233.850872 
L 350.155964 233.678669 
L 350.196545 233.683054 
L 350.298 233.371974 
L 350.308145 233.593085 
L 350.348727 233.491939 
L 350.358873 233.643751 
L 350.399455 233.635335 
L 350.551636 234.319856 
L 350.571927 234.28355 
L 350.602364 234.259952 
L 351.008182 229.431248 
L 351.018327 229.670709 
L 351.069055 228.450117 
L 351.485018 216.154978 
L 352.560436 171.426034 
L 353.859055 111.052377 
L 354.995345 76.1391 
L 355.248982 73.778396 
L 355.482327 72.956478 
L 355.522909 73.101712 
L 355.675091 73.949112 
L 355.685236 73.606163 
L 355.776545 73.977861 
L 355.969309 75.940557 
L 356.2128 80.003104 
L 356.537455 89.284556 
L 356.841818 99.668205 
L 356.922982 102.494977 
L 357.643309 134.092072 
L 359.276727 212.017903 
L 359.307164 212.871965 
L 359.733273 225.253118 
L 359.743418 225.216968 
L 359.753564 225.453909 
L 360.240545 234.432996 
L 360.250691 234.16526 
L 360.342 234.460682 
L 360.352145 234.315385 
L 360.494182 235.457486 
L 360.595636 235.367404 
L 360.697091 234.675439 
L 360.727527 234.802436 
L 360.798545 234.703867 
L 360.950727 233.091561 
L 361.113055 230.664098 
L 361.356545 227.116899 
L 361.529018 222.231044 
L 362.046436 205.256807 
L 362.452255 185.085476 
L 363.324764 140.510734 
L 363.974073 109.94705 
L 364.5828 86.01789 
L 364.897309 79.422186 
L 365.313273 72.588438 
L 365.323418 72.633443 
L 365.566909 70.142839 
L 365.607491 70.303672 
L 365.617636 70.263212 
L 365.627782 70.517343 
L 365.678509 70.461765 
L 365.719091 70.427938 
L 365.972727 73.521632 
L 366.124909 75.126131 
L 366.307527 78.784086 
L 366.875673 94.474003 
L 367.382945 115.238195 
L 369.209127 201.905942 
L 369.838145 223.017349 
L 370.416436 232.203292 
L 370.446873 232.378562 
L 370.487455 232.310423 
L 370.629491 233.032117 
L 370.639636 233.028846 
L 370.751236 233.752094 
L 370.781673 233.705081 
L 370.801964 233.417963 
L 371.146909 230.306935 
L 372.141164 204.556075 
L 372.475964 189.330773 
L 373.429636 142.802414 
L 373.551382 137.490313 
L 373.581818 136.21638 
L 373.581818 136.21638 
" clip-path="url(#pc2d0c17f48)" style="fill: none; stroke: #000000; stroke-width: 0.5; stroke-linecap: square"/>
   </g>
   <g id="patch_3">
    <path d="M 54 256.32 
L 54 34.56 
" style="fill: none; stroke: #000000; stroke-width: 0.8; stroke-linejoin: miter; stroke-linecap: square"/>
   </g>
   <g id="patch_4">
    <path d="M 388.8 256.32 
L 388.8 34.56 
" style="fill: none; stroke: #000000; stroke-width: 0.8; stroke-linejoin: miter; stroke-linecap: square"/>
   </g>
   <g id="patch_5">
    <path d="M 54 256.32 
L 388.8 256.32 
" style="fill: none; stroke: #000000; stroke-width: 0.8; stroke-linejoin: miter; stroke-linecap: square"/>
   </g>
   <g id="patch_6">
    <path d="M 54 34.56 
L 388.8 34.56 
" style="fill: none; stroke: #000000; stroke-width: 0.8; stroke-linejoin: miter; stroke-linecap: square"/>
   </g>
   <g id="text_16">
    <!-- $\omega_{m}$ (rad/s) - (MJUKF) -->
    <g transform="translate(170.855 28.56) scale(0.11 -0.11)">
     <defs>
      <path id="TimesNewRomanPSMT-4d" d="M 2619 0 
L 981 3566 
L 981 734 
Q 981 344 1066 247 
Q 1181 116 1431 116 
L 1581 116 
L 1581 0 
L 106 0 
L 106 116 
L 256 116 
Q 525 116 638 278 
Q 706 378 706 734 
L 706 3503 
Q 706 3784 644 3909 
Q 600 4000 483 4061 
Q 366 4122 106 4122 
L 106 4238 
L 1306 4238 
L 2844 922 
L 4356 4238 
L 5556 4238 
L 5556 4122 
L 5409 4122 
Q 5138 4122 5025 3959 
Q 4956 3859 4956 3503 
L 4956 734 
Q 4956 344 5044 247 
Q 5159 116 5409 116 
L 5556 116 
L 5556 0 
L 3756 0 
L 3756 116 
L 3906 116 
Q 4178 116 4288 278 
Q 4356 378 4356 734 
L 4356 3566 
L 2722 0 
L 2619 0 
z
" transform="scale(0.015625)"/>
      <path id="TimesNewRomanPSMT-4a" d="M 638 4122 
L 638 4238 
L 2453 4238 
L 2453 4122 
L 2300 4122 
Q 2041 4122 1922 3969 
Q 1847 3869 1847 3488 
L 1847 1416 
Q 1847 938 1742 641 
Q 1638 344 1381 123 
Q 1125 -97 763 -97 
Q 469 -97 300 48 
Q 131 194 131 381 
Q 131 534 209 613 
Q 313 709 450 709 
Q 550 709 629 643 
Q 709 578 831 294 
Q 903 125 1016 125 
Q 1100 125 1173 228 
Q 1247 331 1247 594 
L 1247 3488 
Q 1247 3809 1206 3913 
Q 1175 3991 1075 4047 
Q 941 4122 791 4122 
L 638 4122 
z
" transform="scale(0.015625)"/>
      <path id="TimesNewRomanPSMT-55" d="M 3053 4122 
L 3053 4238 
L 4553 4238 
L 4553 4122 
L 4394 4122 
Q 4144 4122 4009 3913 
Q 3944 3816 3944 3463 
L 3944 1744 
Q 3944 1106 3817 754 
Q 3691 403 3320 151 
Q 2950 -100 2313 -100 
Q 1619 -100 1259 140 
Q 900 381 750 788 
Q 650 1066 650 1831 
L 650 3488 
Q 650 3878 542 4000 
Q 434 4122 194 4122 
L 34 4122 
L 34 4238 
L 1866 4238 
L 1866 4122 
L 1703 4122 
Q 1441 4122 1328 3956 
Q 1250 3844 1250 3488 
L 1250 1641 
Q 1250 1394 1295 1075 
Q 1341 756 1459 578 
Q 1578 400 1801 284 
Q 2025 169 2350 169 
Q 2766 169 3094 350 
Q 3422 531 3542 814 
Q 3663 1097 3663 1772 
L 3663 3488 
Q 3663 3884 3575 3984 
Q 3453 4122 3213 4122 
L 3053 4122 
z
" transform="scale(0.015625)"/>
      <path id="TimesNewRomanPSMT-4b" d="M 1913 2350 
L 3475 797 
Q 3859 413 4131 273 
Q 4403 134 4675 116 
L 4675 0 
L 2659 0 
L 2659 116 
Q 2841 116 2920 177 
Q 3000 238 3000 313 
Q 3000 388 2970 447 
Q 2941 506 2775 669 
L 1313 2116 
L 1313 750 
Q 1313 428 1353 325 
Q 1384 247 1484 191 
Q 1619 116 1769 116 
L 1913 116 
L 1913 0 
L 106 0 
L 106 116 
L 256 116 
Q 519 116 638 269 
Q 713 369 713 750 
L 713 3488 
Q 713 3809 672 3916 
Q 641 3991 544 4047 
Q 406 4122 256 4122 
L 106 4122 
L 106 4238 
L 1913 4238 
L 1913 4122 
L 1769 4122 
Q 1622 4122 1484 4050 
Q 1388 4000 1350 3900 
Q 1313 3800 1313 3488 
L 1313 2191 
Q 1375 2250 1741 2588 
Q 2669 3438 2863 3722 
Q 2947 3847 2947 3941 
Q 2947 4013 2881 4067 
Q 2816 4122 2659 4122 
L 2563 4122 
L 2563 4238 
L 4119 4238 
L 4119 4122 
Q 3981 4119 3868 4084 
Q 3756 4050 3593 3951 
Q 3431 3853 3194 3634 
Q 3125 3572 2559 2994 
L 1913 2350 
z
" transform="scale(0.015625)"/>
      <path id="TimesNewRomanPSMT-46" d="M 1309 4006 
L 1309 2341 
L 2081 2341 
Q 2347 2341 2470 2458 
Q 2594 2575 2634 2922 
L 2750 2922 
L 2750 1488 
L 2634 1488 
Q 2631 1734 2570 1850 
Q 2509 1966 2401 2023 
Q 2294 2081 2081 2081 
L 1309 2081 
L 1309 750 
Q 1309 428 1350 325 
Q 1381 247 1481 191 
Q 1619 116 1769 116 
L 1922 116 
L 1922 0 
L 103 0 
L 103 116 
L 253 116 
Q 516 116 634 269 
Q 709 369 709 750 
L 709 3488 
Q 709 3809 669 3913 
Q 638 3991 541 4047 
Q 406 4122 253 4122 
L 103 4122 
L 103 4238 
L 3256 4238 
L 3297 3306 
L 3188 3306 
Q 3106 3603 2998 3742 
Q 2891 3881 2733 3943 
Q 2575 4006 2244 4006 
L 1309 4006 
z
" transform="scale(0.015625)"/>
     </defs>
     <use xlink:href="#DejaVuSans-Oblique-3c9" transform="translate(0 0.5625)"/>
     <use xlink:href="#DejaVuSans-Oblique-6d" transform="translate(83.740234 -15.84375) scale(0.7)"/>
     <use xlink:href="#TimesNewRomanPSMT-20" transform="translate(154.663086 0.5625)"/>
     <use xlink:href="#TimesNewRomanPSMT-28" transform="translate(179.663086 0.5625)"/>
     <use xlink:href="#TimesNewRomanPSMT-72" transform="translate(212.963867 0.5625)"/>
     <use xlink:href="#TimesNewRomanPSMT-61" transform="translate(246.264648 0.5625)"/>
     <use xlink:href="#TimesNewRomanPSMT-64" transform="translate(290.649414 0.5625)"/>
     <use xlink:href="#TimesNewRomanPSMT-2f" transform="translate(340.649414 0.5625)"/>
     <use xlink:href="#TimesNewRomanPSMT-73" transform="translate(368.432617 0.5625)"/>
     <use xlink:href="#TimesNewRomanPSMT-29" transform="translate(407.348633 0.5625)"/>
     <use xlink:href="#TimesNewRomanPSMT-20" transform="translate(440.649414 0.5625)"/>
     <use xlink:href="#TimesNewRomanPSMT-2d" transform="translate(465.649414 0.5625)"/>
     <use xlink:href="#TimesNewRomanPSMT-20" transform="translate(498.950195 0.5625)"/>
     <use xlink:href="#TimesNewRomanPSMT-28" transform="translate(523.950195 0.5625)"/>
     <use xlink:href="#TimesNewRomanPSMT-4d" transform="translate(557.250977 0.5625)"/>
     <use xlink:href="#TimesNewRomanPSMT-4a" transform="translate(646.166992 0.5625)"/>
     <use xlink:href="#TimesNewRomanPSMT-55" transform="translate(685.083008 0.5625)"/>
     <use xlink:href="#TimesNewRomanPSMT-4b" transform="translate(757.299805 0.5625)"/>
     <use xlink:href="#TimesNewRomanPSMT-46" transform="translate(829.516602 0.5625)"/>
     <use xlink:href="#TimesNewRomanPSMT-29" transform="translate(885.131836 0.5625)"/>
    </g>
   </g>
   <g id="legend_1">
    <g id="patch_7">
     <path d="M 334.3 57.238125 
L 381.8 57.238125 
Q 383.8 57.238125 383.8 55.238125 
L 383.8 41.56 
Q 383.8 39.56 381.8 39.56 
L 334.3 39.56 
Q 332.3 39.56 332.3 41.56 
L 332.3 55.238125 
Q 332.3 57.238125 334.3 57.238125 
z
" style="fill: #ffffff; opacity: 0.8; stroke: #cccccc; stroke-linejoin: miter"/>
    </g>
    <g id="line2d_28">
     <path d="M 336.3 47.658438 
L 346.3 47.658438 
L 356.3 47.658438 
" style="fill: none; stroke: #000000; stroke-width: 0.5; stroke-linecap: square"/>
    </g>
    <g id="text_17">
     <!-- $\omega_{m}$ -->
     <g transform="translate(364.3 51.158438) scale(0.1 -0.1)">
      <use xlink:href="#DejaVuSans-Oblique-3c9" transform="translate(0 0.3125)"/>
      <use xlink:href="#DejaVuSans-Oblique-6d" transform="translate(83.740234 -16.09375) scale(0.7)"/>
     </g>
    </g>
   </g>
  </g>
 </g>
 <defs>
  <clipPath id="pc2d0c17f48">
   <rect x="54" y="34.56" width="334.8" height="221.76"/>
  </clipPath>
 </defs>
</svg>
