<?xml version="1.0" encoding="utf-8" standalone="no"?>
<!DOCTYPE svg PUBLIC "-//W3C//DTD SVG 1.1//EN"
  "http://www.w3.org/Graphics/SVG/1.1/DTD/svg11.dtd">
<svg xmlns:xlink="http://www.w3.org/1999/xlink" width="432pt" height="288pt" viewBox="0 0 432 288" xmlns="http://www.w3.org/2000/svg" version="1.1">
 <metadata>
  <rdf:RDF xmlns:dc="http://purl.org/dc/elements/1.1/" xmlns:cc="http://creativecommons.org/ns#" xmlns:rdf="http://www.w3.org/1999/02/22-rdf-syntax-ns#">
   <cc:Work>
    <dc:type rdf:resource="http://purl.org/dc/dcmitype/StillImage"/>
    <dc:date>2024-11-11T01:16:47.912679</dc:date>
    <dc:format>image/svg+xml</dc:format>
    <dc:creator>
     <cc:Agent>
      <dc:title>Matplotlib v3.9.1, https://matplotlib.org/</dc:title>
     </cc:Agent>
    </dc:creator>
   </cc:Work>
  </rdf:RDF>
 </metadata>
 <defs>
  <style type="text/css">*{stroke-linejoin: round; stroke-linecap: butt}</style>
 </defs>
 <g id="figure_1">
  <g id="patch_1">
   <path d="M 0 288 
L 432 288 
L 432 0 
L 0 0 
z
" style="fill: #ffffff"/>
  </g>
  <g id="axes_1">
   <g id="patch_2">
    <path d="M 54 256.32 
L 388.8 256.32 
L 388.8 34.56 
L 54 34.56 
z
" style="fill: #ffffff"/>
   </g>
   <g id="matplotlib.axis_1">
    <g id="xtick_1">
     <g id="line2d_1">
      <path d="M 69.218182 256.32 
L 69.218182 34.56 
" clip-path="url(#pf5895d4967)" style="fill: none; stroke: #b0b0b0; stroke-width: 0.2; stroke-linecap: square"/>
     </g>
     <g id="line2d_2">
      <defs>
       <path id="me9e6b697a5" d="M 0 0 
L 0 3.5 
" style="stroke: #000000; stroke-width: 0.8"/>
      </defs>
      <g>
       <use xlink:href="#me9e6b697a5" x="69.218182" y="256.32" style="stroke: #000000; stroke-width: 0.8"/>
      </g>
     </g>
     <g id="text_1">
      <!-- 0 -->
      <g transform="translate(65.718807 271.678281) scale(0.11 -0.11)">
       <defs>
        <path id="DejaVuSans-30" d="M 2034 4250 
Q 1547 4250 1301 3770 
Q 1056 3291 1056 2328 
Q 1056 1369 1301 889 
Q 1547 409 2034 409 
Q 2525 409 2770 889 
Q 3016 1369 3016 2328 
Q 3016 3291 2770 3770 
Q 2525 4250 2034 4250 
z
M 2034 4750 
Q 2819 4750 3233 4129 
Q 3647 3509 3647 2328 
Q 3647 1150 3233 529 
Q 2819 -91 2034 -91 
Q 1250 -91 836 529 
Q 422 1150 422 2328 
Q 422 3509 836 4129 
Q 1250 4750 2034 4750 
z
" transform="scale(0.015625)"/>
       </defs>
       <use xlink:href="#DejaVuSans-30"/>
      </g>
     </g>
    </g>
    <g id="xtick_2">
     <g id="line2d_3">
      <path d="M 119.945455 256.32 
L 119.945455 34.56 
" clip-path="url(#pf5895d4967)" style="fill: none; stroke: #b0b0b0; stroke-width: 0.2; stroke-linecap: square"/>
     </g>
     <g id="line2d_4">
      <g>
       <use xlink:href="#me9e6b697a5" x="119.945455" y="256.32" style="stroke: #000000; stroke-width: 0.8"/>
      </g>
     </g>
     <g id="text_2">
      <!-- 5 -->
      <g transform="translate(116.44608 271.678281) scale(0.11 -0.11)">
       <defs>
        <path id="DejaVuSans-35" d="M 691 4666 
L 3169 4666 
L 3169 4134 
L 1269 4134 
L 1269 2991 
Q 1406 3038 1543 3061 
Q 1681 3084 1819 3084 
Q 2600 3084 3056 2656 
Q 3513 2228 3513 1497 
Q 3513 744 3044 326 
Q 2575 -91 1722 -91 
Q 1428 -91 1123 -41 
Q 819 9 494 109 
L 494 744 
Q 775 591 1075 516 
Q 1375 441 1709 441 
Q 2250 441 2565 725 
Q 2881 1009 2881 1497 
Q 2881 1984 2565 2268 
Q 2250 2553 1709 2553 
Q 1456 2553 1204 2497 
Q 953 2441 691 2322 
L 691 4666 
z
" transform="scale(0.015625)"/>
       </defs>
       <use xlink:href="#DejaVuSans-35"/>
      </g>
     </g>
    </g>
    <g id="xtick_3">
     <g id="line2d_5">
      <path d="M 170.672727 256.32 
L 170.672727 34.56 
" clip-path="url(#pf5895d4967)" style="fill: none; stroke: #b0b0b0; stroke-width: 0.2; stroke-linecap: square"/>
     </g>
     <g id="line2d_6">
      <g>
       <use xlink:href="#me9e6b697a5" x="170.672727" y="256.32" style="stroke: #000000; stroke-width: 0.8"/>
      </g>
     </g>
     <g id="text_3">
      <!-- 10 -->
      <g transform="translate(163.673977 271.678281) scale(0.11 -0.11)">
       <defs>
        <path id="DejaVuSans-31" d="M 794 531 
L 1825 531 
L 1825 4091 
L 703 3866 
L 703 4441 
L 1819 4666 
L 2450 4666 
L 2450 531 
L 3481 531 
L 3481 0 
L 794 0 
L 794 531 
z
" transform="scale(0.015625)"/>
       </defs>
       <use xlink:href="#DejaVuSans-31"/>
       <use xlink:href="#DejaVuSans-30" x="63.623047"/>
      </g>
     </g>
    </g>
    <g id="xtick_4">
     <g id="line2d_7">
      <path d="M 221.4 256.32 
L 221.4 34.56 
" clip-path="url(#pf5895d4967)" style="fill: none; stroke: #b0b0b0; stroke-width: 0.2; stroke-linecap: square"/>
     </g>
     <g id="line2d_8">
      <g>
       <use xlink:href="#me9e6b697a5" x="221.4" y="256.32" style="stroke: #000000; stroke-width: 0.8"/>
      </g>
     </g>
     <g id="text_4">
      <!-- 15 -->
      <g transform="translate(214.40125 271.678281) scale(0.11 -0.11)">
       <use xlink:href="#DejaVuSans-31"/>
       <use xlink:href="#DejaVuSans-35" x="63.623047"/>
      </g>
     </g>
    </g>
    <g id="xtick_5">
     <g id="line2d_9">
      <path d="M 272.127273 256.32 
L 272.127273 34.56 
" clip-path="url(#pf5895d4967)" style="fill: none; stroke: #b0b0b0; stroke-width: 0.2; stroke-linecap: square"/>
     </g>
     <g id="line2d_10">
      <g>
       <use xlink:href="#me9e6b697a5" x="272.127273" y="256.32" style="stroke: #000000; stroke-width: 0.8"/>
      </g>
     </g>
     <g id="text_5">
      <!-- 20 -->
      <g transform="translate(265.128523 271.678281) scale(0.11 -0.11)">
       <defs>
        <path id="DejaVuSans-32" d="M 1228 531 
L 3431 531 
L 3431 0 
L 469 0 
L 469 531 
Q 828 903 1448 1529 
Q 2069 2156 2228 2338 
Q 2531 2678 2651 2914 
Q 2772 3150 2772 3378 
Q 2772 3750 2511 3984 
Q 2250 4219 1831 4219 
Q 1534 4219 1204 4116 
Q 875 4013 500 3803 
L 500 4441 
Q 881 4594 1212 4672 
Q 1544 4750 1819 4750 
Q 2544 4750 2975 4387 
Q 3406 4025 3406 3419 
Q 3406 3131 3298 2873 
Q 3191 2616 2906 2266 
Q 2828 2175 2409 1742 
Q 1991 1309 1228 531 
z
" transform="scale(0.015625)"/>
       </defs>
       <use xlink:href="#DejaVuSans-32"/>
       <use xlink:href="#DejaVuSans-30" x="63.623047"/>
      </g>
     </g>
    </g>
    <g id="xtick_6">
     <g id="line2d_11">
      <path d="M 322.854545 256.32 
L 322.854545 34.56 
" clip-path="url(#pf5895d4967)" style="fill: none; stroke: #b0b0b0; stroke-width: 0.2; stroke-linecap: square"/>
     </g>
     <g id="line2d_12">
      <g>
       <use xlink:href="#me9e6b697a5" x="322.854545" y="256.32" style="stroke: #000000; stroke-width: 0.8"/>
      </g>
     </g>
     <g id="text_6">
      <!-- 25 -->
      <g transform="translate(315.855795 271.678281) scale(0.11 -0.11)">
       <use xlink:href="#DejaVuSans-32"/>
       <use xlink:href="#DejaVuSans-35" x="63.623047"/>
      </g>
     </g>
    </g>
    <g id="xtick_7">
     <g id="line2d_13">
      <path d="M 373.581818 256.32 
L 373.581818 34.56 
" clip-path="url(#pf5895d4967)" style="fill: none; stroke: #b0b0b0; stroke-width: 0.2; stroke-linecap: square"/>
     </g>
     <g id="line2d_14">
      <g>
       <use xlink:href="#me9e6b697a5" x="373.581818" y="256.32" style="stroke: #000000; stroke-width: 0.8"/>
      </g>
     </g>
     <g id="text_7">
      <!-- 30 -->
      <g transform="translate(366.583068 271.678281) scale(0.11 -0.11)">
       <defs>
        <path id="DejaVuSans-33" d="M 2597 2516 
Q 3050 2419 3304 2112 
Q 3559 1806 3559 1356 
Q 3559 666 3084 287 
Q 2609 -91 1734 -91 
Q 1441 -91 1130 -33 
Q 819 25 488 141 
L 488 750 
Q 750 597 1062 519 
Q 1375 441 1716 441 
Q 2309 441 2620 675 
Q 2931 909 2931 1356 
Q 2931 1769 2642 2001 
Q 2353 2234 1838 2234 
L 1294 2234 
L 1294 2753 
L 1863 2753 
Q 2328 2753 2575 2939 
Q 2822 3125 2822 3475 
Q 2822 3834 2567 4026 
Q 2313 4219 1838 4219 
Q 1578 4219 1281 4162 
Q 984 4106 628 3988 
L 628 4550 
Q 988 4650 1302 4700 
Q 1616 4750 1894 4750 
Q 2613 4750 3031 4423 
Q 3450 4097 3450 3541 
Q 3450 3153 3228 2886 
Q 3006 2619 2597 2516 
z
" transform="scale(0.015625)"/>
       </defs>
       <use xlink:href="#DejaVuSans-33"/>
       <use xlink:href="#DejaVuSans-30" x="63.623047"/>
      </g>
     </g>
    </g>
    <g id="text_8">
     <!-- Time (s) -->
     <g transform="translate(202.807422 285.604062) scale(0.11 -0.11)">
      <defs>
       <path id="TimesNewRomanPSMT-54" d="M 3703 4238 
L 3750 3244 
L 3631 3244 
Q 3597 3506 3538 3619 
Q 3441 3800 3280 3886 
Q 3119 3972 2856 3972 
L 2259 3972 
L 2259 734 
Q 2259 344 2344 247 
Q 2463 116 2709 116 
L 2856 116 
L 2856 0 
L 1059 0 
L 1059 116 
L 1209 116 
Q 1478 116 1591 278 
Q 1659 378 1659 734 
L 1659 3972 
L 1150 3972 
Q 853 3972 728 3928 
Q 566 3869 450 3700 
Q 334 3531 313 3244 
L 194 3244 
L 244 4238 
L 3703 4238 
z
" transform="scale(0.015625)"/>
       <path id="TimesNewRomanPSMT-69" d="M 928 4444 
Q 1059 4444 1151 4351 
Q 1244 4259 1244 4128 
Q 1244 3997 1151 3903 
Q 1059 3809 928 3809 
Q 797 3809 703 3903 
Q 609 3997 609 4128 
Q 609 4259 701 4351 
Q 794 4444 928 4444 
z
M 1188 2947 
L 1188 647 
Q 1188 378 1227 289 
Q 1266 200 1342 156 
Q 1419 113 1622 113 
L 1622 0 
L 231 0 
L 231 113 
Q 441 113 512 153 
Q 584 194 626 287 
Q 669 381 669 647 
L 669 1750 
Q 669 2216 641 2353 
Q 619 2453 572 2492 
Q 525 2531 444 2531 
Q 356 2531 231 2484 
L 188 2597 
L 1050 2947 
L 1188 2947 
z
" transform="scale(0.015625)"/>
       <path id="TimesNewRomanPSMT-6d" d="M 1050 2338 
Q 1363 2650 1419 2697 
Q 1559 2816 1721 2881 
Q 1884 2947 2044 2947 
Q 2313 2947 2506 2790 
Q 2700 2634 2766 2338 
Q 3088 2713 3309 2830 
Q 3531 2947 3766 2947 
Q 3994 2947 4170 2830 
Q 4347 2713 4450 2447 
Q 4519 2266 4519 1878 
L 4519 647 
Q 4519 378 4559 278 
Q 4591 209 4675 161 
Q 4759 113 4950 113 
L 4950 0 
L 3538 0 
L 3538 113 
L 3597 113 
Q 3781 113 3884 184 
Q 3956 234 3988 344 
Q 4000 397 4000 647 
L 4000 1878 
Q 4000 2228 3916 2372 
Q 3794 2572 3525 2572 
Q 3359 2572 3192 2489 
Q 3025 2406 2788 2181 
L 2781 2147 
L 2788 2013 
L 2788 647 
Q 2788 353 2820 281 
Q 2853 209 2943 161 
Q 3034 113 3253 113 
L 3253 0 
L 1806 0 
L 1806 113 
Q 2044 113 2133 169 
Q 2222 225 2256 338 
Q 2272 391 2272 647 
L 2272 1878 
Q 2272 2228 2169 2381 
Q 2031 2581 1784 2581 
Q 1616 2581 1450 2491 
Q 1191 2353 1050 2181 
L 1050 647 
Q 1050 366 1089 281 
Q 1128 197 1204 155 
Q 1281 113 1516 113 
L 1516 0 
L 100 0 
L 100 113 
Q 297 113 375 155 
Q 453 197 493 289 
Q 534 381 534 647 
L 534 1741 
Q 534 2213 506 2350 
Q 484 2453 437 2492 
Q 391 2531 309 2531 
Q 222 2531 100 2484 
L 53 2597 
L 916 2947 
L 1050 2947 
L 1050 2338 
z
" transform="scale(0.015625)"/>
       <path id="TimesNewRomanPSMT-65" d="M 681 1784 
Q 678 1147 991 784 
Q 1303 422 1725 422 
Q 2006 422 2214 576 
Q 2422 731 2563 1106 
L 2659 1044 
Q 2594 616 2278 264 
Q 1963 -88 1488 -88 
Q 972 -88 605 314 
Q 238 716 238 1394 
Q 238 2128 614 2539 
Q 991 2950 1559 2950 
Q 2041 2950 2350 2633 
Q 2659 2316 2659 1784 
L 681 1784 
z
M 681 1966 
L 2006 1966 
Q 1991 2241 1941 2353 
Q 1863 2528 1708 2628 
Q 1553 2728 1384 2728 
Q 1125 2728 920 2526 
Q 716 2325 681 1966 
z
" transform="scale(0.015625)"/>
       <path id="TimesNewRomanPSMT-20" transform="scale(0.015625)"/>
       <path id="TimesNewRomanPSMT-28" d="M 1988 -1253 
L 1988 -1369 
Q 1516 -1131 1200 -813 
Q 750 -359 506 256 
Q 263 872 263 1534 
Q 263 2503 741 3301 
Q 1219 4100 1988 4444 
L 1988 4313 
Q 1603 4100 1356 3731 
Q 1109 3363 987 2797 
Q 866 2231 866 1616 
Q 866 947 969 400 
Q 1050 -31 1165 -292 
Q 1281 -553 1476 -793 
Q 1672 -1034 1988 -1253 
z
" transform="scale(0.015625)"/>
       <path id="TimesNewRomanPSMT-73" d="M 2050 2947 
L 2050 1972 
L 1947 1972 
Q 1828 2431 1642 2597 
Q 1456 2763 1169 2763 
Q 950 2763 815 2647 
Q 681 2531 681 2391 
Q 681 2216 781 2091 
Q 878 1963 1175 1819 
L 1631 1597 
Q 2266 1288 2266 781 
Q 2266 391 1970 151 
Q 1675 -88 1309 -88 
Q 1047 -88 709 6 
Q 606 38 541 38 
Q 469 38 428 -44 
L 325 -44 
L 325 978 
L 428 978 
Q 516 541 762 319 
Q 1009 97 1316 97 
Q 1531 97 1667 223 
Q 1803 350 1803 528 
Q 1803 744 1651 891 
Q 1500 1038 1047 1263 
Q 594 1488 453 1669 
Q 313 1847 313 2119 
Q 313 2472 555 2709 
Q 797 2947 1181 2947 
Q 1350 2947 1591 2875 
Q 1750 2828 1803 2828 
Q 1853 2828 1881 2850 
Q 1909 2872 1947 2947 
L 2050 2947 
z
" transform="scale(0.015625)"/>
       <path id="TimesNewRomanPSMT-29" d="M 144 4313 
L 144 4444 
Q 619 4209 934 3891 
Q 1381 3434 1625 2820 
Q 1869 2206 1869 1541 
Q 1869 572 1392 -226 
Q 916 -1025 144 -1369 
L 144 -1253 
Q 528 -1038 776 -670 
Q 1025 -303 1145 264 
Q 1266 831 1266 1447 
Q 1266 2113 1163 2663 
Q 1084 3094 967 3353 
Q 850 3613 656 3853 
Q 463 4094 144 4313 
z
" transform="scale(0.015625)"/>
      </defs>
      <use xlink:href="#TimesNewRomanPSMT-54"/>
      <use xlink:href="#TimesNewRomanPSMT-69" x="57.583984"/>
      <use xlink:href="#TimesNewRomanPSMT-6d" x="85.367188"/>
      <use xlink:href="#TimesNewRomanPSMT-65" x="163.150391"/>
      <use xlink:href="#TimesNewRomanPSMT-20" x="207.535156"/>
      <use xlink:href="#TimesNewRomanPSMT-28" x="232.535156"/>
      <use xlink:href="#TimesNewRomanPSMT-73" x="265.835938"/>
      <use xlink:href="#TimesNewRomanPSMT-29" x="304.751953"/>
     </g>
    </g>
   </g>
   <g id="matplotlib.axis_2">
    <g id="ytick_1">
     <g id="line2d_15">
      <path d="M 54 247.070347 
L 388.8 247.070347 
" clip-path="url(#pf5895d4967)" style="fill: none; stroke: #b0b0b0; stroke-width: 0.2; stroke-linecap: square"/>
     </g>
     <g id="line2d_16">
      <defs>
       <path id="ma23808915d" d="M 0 0 
L -3.5 0 
" style="stroke: #000000; stroke-width: 0.8"/>
      </defs>
      <g>
       <use xlink:href="#ma23808915d" x="54" y="247.070347" style="stroke: #000000; stroke-width: 0.8"/>
      </g>
     </g>
     <g id="text_9">
      <!-- −20 -->
      <g transform="translate(23.784844 251.249487) scale(0.11 -0.11)">
       <defs>
        <path id="DejaVuSans-2212" d="M 678 2272 
L 4684 2272 
L 4684 1741 
L 678 1741 
L 678 2272 
z
" transform="scale(0.015625)"/>
       </defs>
       <use xlink:href="#DejaVuSans-2212"/>
       <use xlink:href="#DejaVuSans-32" x="83.789062"/>
       <use xlink:href="#DejaVuSans-30" x="147.412109"/>
      </g>
     </g>
    </g>
    <g id="ytick_2">
     <g id="line2d_17">
      <path d="M 54 220.42677 
L 388.8 220.42677 
" clip-path="url(#pf5895d4967)" style="fill: none; stroke: #b0b0b0; stroke-width: 0.2; stroke-linecap: square"/>
     </g>
     <g id="line2d_18">
      <g>
       <use xlink:href="#ma23808915d" x="54" y="220.42677" style="stroke: #000000; stroke-width: 0.8"/>
      </g>
     </g>
     <g id="text_10">
      <!-- −15 -->
      <g transform="translate(23.784844 224.605911) scale(0.11 -0.11)">
       <use xlink:href="#DejaVuSans-2212"/>
       <use xlink:href="#DejaVuSans-31" x="83.789062"/>
       <use xlink:href="#DejaVuSans-35" x="147.412109"/>
      </g>
     </g>
    </g>
    <g id="ytick_3">
     <g id="line2d_19">
      <path d="M 54 193.783194 
L 388.8 193.783194 
" clip-path="url(#pf5895d4967)" style="fill: none; stroke: #b0b0b0; stroke-width: 0.2; stroke-linecap: square"/>
     </g>
     <g id="line2d_20">
      <g>
       <use xlink:href="#ma23808915d" x="54" y="193.783194" style="stroke: #000000; stroke-width: 0.8"/>
      </g>
     </g>
     <g id="text_11">
      <!-- −10 -->
      <g transform="translate(23.784844 197.962334) scale(0.11 -0.11)">
       <use xlink:href="#DejaVuSans-2212"/>
       <use xlink:href="#DejaVuSans-31" x="83.789062"/>
       <use xlink:href="#DejaVuSans-30" x="147.412109"/>
      </g>
     </g>
    </g>
    <g id="ytick_4">
     <g id="line2d_21">
      <path d="M 54 167.139617 
L 388.8 167.139617 
" clip-path="url(#pf5895d4967)" style="fill: none; stroke: #b0b0b0; stroke-width: 0.2; stroke-linecap: square"/>
     </g>
     <g id="line2d_22">
      <g>
       <use xlink:href="#ma23808915d" x="54" y="167.139617" style="stroke: #000000; stroke-width: 0.8"/>
      </g>
     </g>
     <g id="text_12">
      <!-- −5 -->
      <g transform="translate(30.783594 171.318758) scale(0.11 -0.11)">
       <use xlink:href="#DejaVuSans-2212"/>
       <use xlink:href="#DejaVuSans-35" x="83.789062"/>
      </g>
     </g>
    </g>
    <g id="ytick_5">
     <g id="line2d_23">
      <path d="M 54 140.496041 
L 388.8 140.496041 
" clip-path="url(#pf5895d4967)" style="fill: none; stroke: #b0b0b0; stroke-width: 0.2; stroke-linecap: square"/>
     </g>
     <g id="line2d_24">
      <g>
       <use xlink:href="#ma23808915d" x="54" y="140.496041" style="stroke: #000000; stroke-width: 0.8"/>
      </g>
     </g>
     <g id="text_13">
      <!-- 0 -->
      <g transform="translate(40.00125 144.675181) scale(0.11 -0.11)">
       <use xlink:href="#DejaVuSans-30"/>
      </g>
     </g>
    </g>
    <g id="ytick_6">
     <g id="line2d_25">
      <path d="M 54 113.852464 
L 388.8 113.852464 
" clip-path="url(#pf5895d4967)" style="fill: none; stroke: #b0b0b0; stroke-width: 0.2; stroke-linecap: square"/>
     </g>
     <g id="line2d_26">
      <g>
       <use xlink:href="#ma23808915d" x="54" y="113.852464" style="stroke: #000000; stroke-width: 0.8"/>
      </g>
     </g>
     <g id="text_14">
      <!-- 5 -->
      <g transform="translate(40.00125 118.031605) scale(0.11 -0.11)">
       <use xlink:href="#DejaVuSans-35"/>
      </g>
     </g>
    </g>
    <g id="ytick_7">
     <g id="line2d_27">
      <path d="M 54 87.208888 
L 388.8 87.208888 
" clip-path="url(#pf5895d4967)" style="fill: none; stroke: #b0b0b0; stroke-width: 0.2; stroke-linecap: square"/>
     </g>
     <g id="line2d_28">
      <g>
       <use xlink:href="#ma23808915d" x="54" y="87.208888" style="stroke: #000000; stroke-width: 0.8"/>
      </g>
     </g>
     <g id="text_15">
      <!-- 10 -->
      <g transform="translate(33.0025 91.388028) scale(0.11 -0.11)">
       <use xlink:href="#DejaVuSans-31"/>
       <use xlink:href="#DejaVuSans-30" x="63.623047"/>
      </g>
     </g>
    </g>
    <g id="ytick_8">
     <g id="line2d_29">
      <path d="M 54 60.565311 
L 388.8 60.565311 
" clip-path="url(#pf5895d4967)" style="fill: none; stroke: #b0b0b0; stroke-width: 0.2; stroke-linecap: square"/>
     </g>
     <g id="line2d_30">
      <g>
       <use xlink:href="#ma23808915d" x="54" y="60.565311" style="stroke: #000000; stroke-width: 0.8"/>
      </g>
     </g>
     <g id="text_16">
      <!-- 15 -->
      <g transform="translate(33.0025 64.744452) scale(0.11 -0.11)">
       <use xlink:href="#DejaVuSans-31"/>
       <use xlink:href="#DejaVuSans-35" x="63.623047"/>
      </g>
     </g>
    </g>
    <g id="text_17">
     <!-- Angular velocity of the link - $\omega_{l}$ (rad/s) -->
     <g transform="translate(17.364844 232.725) rotate(-90) scale(0.11 -0.11)">
      <defs>
       <path id="TimesNewRomanPSMT-41" d="M 2928 1419 
L 1288 1419 
L 1000 750 
Q 894 503 894 381 
Q 894 284 986 211 
Q 1078 138 1384 116 
L 1384 0 
L 50 0 
L 50 116 
Q 316 163 394 238 
Q 553 388 747 847 
L 2238 4334 
L 2347 4334 
L 3822 809 
Q 4000 384 4145 257 
Q 4291 131 4550 116 
L 4550 0 
L 2878 0 
L 2878 116 
Q 3131 128 3220 200 
Q 3309 272 3309 375 
Q 3309 513 3184 809 
L 2928 1419 
z
M 2841 1650 
L 2122 3363 
L 1384 1650 
L 2841 1650 
z
" transform="scale(0.015625)"/>
       <path id="TimesNewRomanPSMT-6e" d="M 1034 2341 
Q 1538 2947 1994 2947 
Q 2228 2947 2397 2830 
Q 2566 2713 2666 2444 
Q 2734 2256 2734 1869 
L 2734 647 
Q 2734 375 2778 278 
Q 2813 200 2889 156 
Q 2966 113 3172 113 
L 3172 0 
L 1756 0 
L 1756 113 
L 1816 113 
Q 2016 113 2095 173 
Q 2175 234 2206 353 
Q 2219 400 2219 647 
L 2219 1819 
Q 2219 2209 2117 2386 
Q 2016 2563 1775 2563 
Q 1403 2563 1034 2156 
L 1034 647 
Q 1034 356 1069 288 
Q 1113 197 1189 155 
Q 1266 113 1500 113 
L 1500 0 
L 84 0 
L 84 113 
L 147 113 
Q 366 113 442 223 
Q 519 334 519 647 
L 519 1709 
Q 519 2225 495 2337 
Q 472 2450 423 2490 
Q 375 2531 294 2531 
Q 206 2531 84 2484 
L 38 2597 
L 900 2947 
L 1034 2947 
L 1034 2341 
z
" transform="scale(0.015625)"/>
       <path id="TimesNewRomanPSMT-67" d="M 966 1044 
Q 703 1172 562 1401 
Q 422 1631 422 1909 
Q 422 2334 742 2640 
Q 1063 2947 1563 2947 
Q 1972 2947 2272 2747 
L 2878 2747 
Q 3013 2747 3034 2739 
Q 3056 2731 3066 2713 
Q 3084 2684 3084 2613 
Q 3084 2531 3069 2500 
Q 3059 2484 3036 2475 
Q 3013 2466 2878 2466 
L 2506 2466 
Q 2681 2241 2681 1891 
Q 2681 1491 2375 1206 
Q 2069 922 1553 922 
Q 1341 922 1119 984 
Q 981 866 932 777 
Q 884 688 884 625 
Q 884 572 936 522 
Q 988 472 1138 450 
Q 1225 438 1575 428 
Q 2219 413 2409 384 
Q 2700 344 2873 169 
Q 3047 -6 3047 -263 
Q 3047 -616 2716 -925 
Q 2228 -1381 1444 -1381 
Q 841 -1381 425 -1109 
Q 191 -953 191 -784 
Q 191 -709 225 -634 
Q 278 -519 444 -313 
Q 466 -284 763 25 
Q 600 122 533 198 
Q 466 275 466 372 
Q 466 481 555 628 
Q 644 775 966 1044 
z
M 1509 2797 
Q 1278 2797 1122 2612 
Q 966 2428 966 2047 
Q 966 1553 1178 1281 
Q 1341 1075 1591 1075 
Q 1828 1075 1981 1253 
Q 2134 1431 2134 1813 
Q 2134 2309 1919 2591 
Q 1759 2797 1509 2797 
z
M 934 0 
Q 788 -159 713 -296 
Q 638 -434 638 -550 
Q 638 -700 819 -813 
Q 1131 -1006 1722 -1006 
Q 2284 -1006 2551 -807 
Q 2819 -609 2819 -384 
Q 2819 -222 2659 -153 
Q 2497 -84 2016 -72 
Q 1313 -53 934 0 
z
" transform="scale(0.015625)"/>
       <path id="TimesNewRomanPSMT-75" d="M 2709 2863 
L 2709 1128 
Q 2709 631 2732 520 
Q 2756 409 2807 365 
Q 2859 322 2928 322 
Q 3025 322 3147 375 
L 3191 266 
L 2334 -88 
L 2194 -88 
L 2194 519 
Q 1825 119 1631 15 
Q 1438 -88 1222 -88 
Q 981 -88 804 51 
Q 628 191 559 409 
Q 491 628 491 1028 
L 491 2306 
Q 491 2509 447 2587 
Q 403 2666 317 2708 
Q 231 2750 6 2747 
L 6 2863 
L 1009 2863 
L 1009 947 
Q 1009 547 1148 422 
Q 1288 297 1484 297 
Q 1619 297 1789 381 
Q 1959 466 2194 703 
L 2194 2325 
Q 2194 2569 2105 2655 
Q 2016 2741 1734 2747 
L 1734 2863 
L 2709 2863 
z
" transform="scale(0.015625)"/>
       <path id="TimesNewRomanPSMT-6c" d="M 1184 4444 
L 1184 647 
Q 1184 378 1223 290 
Q 1263 203 1344 158 
Q 1425 113 1647 113 
L 1647 0 
L 244 0 
L 244 113 
Q 441 113 512 153 
Q 584 194 625 287 
Q 666 381 666 647 
L 666 3247 
Q 666 3731 644 3842 
Q 622 3953 573 3993 
Q 525 4034 450 4034 
Q 369 4034 244 3984 
L 191 4094 
L 1044 4444 
L 1184 4444 
z
" transform="scale(0.015625)"/>
       <path id="TimesNewRomanPSMT-61" d="M 1822 413 
Q 1381 72 1269 19 
Q 1100 -59 909 -59 
Q 613 -59 420 144 
Q 228 347 228 678 
Q 228 888 322 1041 
Q 450 1253 767 1440 
Q 1084 1628 1822 1897 
L 1822 2009 
Q 1822 2438 1686 2597 
Q 1550 2756 1291 2756 
Q 1094 2756 978 2650 
Q 859 2544 859 2406 
L 866 2225 
Q 866 2081 792 2003 
Q 719 1925 600 1925 
Q 484 1925 411 2006 
Q 338 2088 338 2228 
Q 338 2497 613 2722 
Q 888 2947 1384 2947 
Q 1766 2947 2009 2819 
Q 2194 2722 2281 2516 
Q 2338 2381 2338 1966 
L 2338 994 
Q 2338 584 2353 492 
Q 2369 400 2405 369 
Q 2441 338 2488 338 
Q 2538 338 2575 359 
Q 2641 400 2828 588 
L 2828 413 
Q 2478 -56 2159 -56 
Q 2006 -56 1915 50 
Q 1825 156 1822 413 
z
M 1822 616 
L 1822 1706 
Q 1350 1519 1213 1441 
Q 966 1303 859 1153 
Q 753 1003 753 825 
Q 753 600 887 451 
Q 1022 303 1197 303 
Q 1434 303 1822 616 
z
" transform="scale(0.015625)"/>
       <path id="TimesNewRomanPSMT-72" d="M 1038 2947 
L 1038 2303 
Q 1397 2947 1775 2947 
Q 1947 2947 2059 2842 
Q 2172 2738 2172 2600 
Q 2172 2478 2090 2393 
Q 2009 2309 1897 2309 
Q 1788 2309 1652 2417 
Q 1516 2525 1450 2525 
Q 1394 2525 1328 2463 
Q 1188 2334 1038 2041 
L 1038 669 
Q 1038 431 1097 309 
Q 1138 225 1241 169 
Q 1344 113 1538 113 
L 1538 0 
L 72 0 
L 72 113 
Q 291 113 397 181 
Q 475 231 506 341 
Q 522 394 522 644 
L 522 1753 
Q 522 2253 501 2348 
Q 481 2444 426 2487 
Q 372 2531 291 2531 
Q 194 2531 72 2484 
L 41 2597 
L 906 2947 
L 1038 2947 
z
" transform="scale(0.015625)"/>
       <path id="TimesNewRomanPSMT-76" d="M 53 2863 
L 1400 2863 
L 1400 2747 
L 1313 2747 
Q 1191 2747 1127 2687 
Q 1063 2628 1063 2528 
Q 1063 2419 1128 2269 
L 1794 688 
L 2463 2328 
Q 2534 2503 2534 2594 
Q 2534 2638 2509 2666 
Q 2475 2713 2422 2730 
Q 2369 2747 2206 2747 
L 2206 2863 
L 3141 2863 
L 3141 2747 
Q 2978 2734 2916 2681 
Q 2806 2588 2719 2369 
L 1703 -88 
L 1575 -88 
L 553 2328 
Q 484 2497 421 2570 
Q 359 2644 263 2694 
Q 209 2722 53 2747 
L 53 2863 
z
" transform="scale(0.015625)"/>
       <path id="TimesNewRomanPSMT-6f" d="M 1600 2947 
Q 2250 2947 2644 2453 
Q 2978 2031 2978 1484 
Q 2978 1100 2793 706 
Q 2609 313 2286 112 
Q 1963 -88 1566 -88 
Q 919 -88 538 428 
Q 216 863 216 1403 
Q 216 1797 411 2186 
Q 606 2575 925 2761 
Q 1244 2947 1600 2947 
z
M 1503 2744 
Q 1338 2744 1170 2645 
Q 1003 2547 900 2300 
Q 797 2053 797 1666 
Q 797 1041 1045 587 
Q 1294 134 1700 134 
Q 2003 134 2200 384 
Q 2397 634 2397 1244 
Q 2397 2006 2069 2444 
Q 1847 2744 1503 2744 
z
" transform="scale(0.015625)"/>
       <path id="TimesNewRomanPSMT-63" d="M 2631 1088 
Q 2516 522 2178 217 
Q 1841 -88 1431 -88 
Q 944 -88 581 321 
Q 219 731 219 1428 
Q 219 2103 620 2525 
Q 1022 2947 1584 2947 
Q 2006 2947 2278 2723 
Q 2550 2500 2550 2259 
Q 2550 2141 2473 2067 
Q 2397 1994 2259 1994 
Q 2075 1994 1981 2113 
Q 1928 2178 1911 2362 
Q 1894 2547 1784 2644 
Q 1675 2738 1481 2738 
Q 1169 2738 978 2506 
Q 725 2200 725 1697 
Q 725 1184 976 792 
Q 1228 400 1656 400 
Q 1963 400 2206 609 
Q 2378 753 2541 1131 
L 2631 1088 
z
" transform="scale(0.015625)"/>
       <path id="TimesNewRomanPSMT-74" d="M 1031 3803 
L 1031 2863 
L 1700 2863 
L 1700 2644 
L 1031 2644 
L 1031 788 
Q 1031 509 1111 412 
Q 1191 316 1316 316 
Q 1419 316 1516 380 
Q 1613 444 1666 569 
L 1788 569 
Q 1678 263 1478 108 
Q 1278 -47 1066 -47 
Q 922 -47 784 33 
Q 647 113 581 261 
Q 516 409 516 719 
L 516 2644 
L 63 2644 
L 63 2747 
Q 234 2816 414 2980 
Q 594 3144 734 3369 
Q 806 3488 934 3803 
L 1031 3803 
z
" transform="scale(0.015625)"/>
       <path id="TimesNewRomanPSMT-79" d="M 38 2863 
L 1372 2863 
L 1372 2747 
L 1306 2747 
Q 1166 2747 1095 2686 
Q 1025 2625 1025 2534 
Q 1025 2413 1128 2197 
L 1825 753 
L 2466 2334 
Q 2519 2463 2519 2588 
Q 2519 2644 2497 2672 
Q 2472 2706 2419 2726 
Q 2366 2747 2231 2747 
L 2231 2863 
L 3163 2863 
L 3163 2747 
Q 3047 2734 2984 2696 
Q 2922 2659 2847 2556 
Q 2819 2513 2741 2316 
L 1575 -541 
Q 1406 -956 1132 -1168 
Q 859 -1381 606 -1381 
Q 422 -1381 303 -1275 
Q 184 -1169 184 -1031 
Q 184 -900 270 -820 
Q 356 -741 506 -741 
Q 609 -741 788 -809 
Q 913 -856 944 -856 
Q 1038 -856 1148 -759 
Q 1259 -663 1372 -384 
L 1575 113 
L 547 2272 
Q 500 2369 397 2513 
Q 319 2622 269 2659 
Q 197 2709 38 2747 
L 38 2863 
z
" transform="scale(0.015625)"/>
       <path id="TimesNewRomanPSMT-66" d="M 1319 2638 
L 1319 756 
Q 1319 356 1406 250 
Q 1522 113 1716 113 
L 1975 113 
L 1975 0 
L 266 0 
L 266 113 
L 394 113 
Q 519 113 622 175 
Q 725 238 764 344 
Q 803 450 803 756 
L 803 2638 
L 247 2638 
L 247 2863 
L 803 2863 
L 803 3050 
Q 803 3478 940 3775 
Q 1078 4072 1361 4255 
Q 1644 4438 1997 4438 
Q 2325 4438 2600 4225 
Q 2781 4084 2781 3909 
Q 2781 3816 2700 3733 
Q 2619 3650 2525 3650 
Q 2453 3650 2373 3701 
Q 2294 3753 2178 3923 
Q 2063 4094 1966 4153 
Q 1869 4213 1750 4213 
Q 1606 4213 1506 4136 
Q 1406 4059 1362 3898 
Q 1319 3738 1319 3069 
L 1319 2863 
L 2056 2863 
L 2056 2638 
L 1319 2638 
z
" transform="scale(0.015625)"/>
       <path id="TimesNewRomanPSMT-68" d="M 1041 4444 
L 1041 2350 
Q 1388 2731 1591 2839 
Q 1794 2947 1997 2947 
Q 2241 2947 2416 2812 
Q 2591 2678 2675 2391 
Q 2734 2191 2734 1659 
L 2734 647 
Q 2734 375 2778 275 
Q 2809 200 2884 156 
Q 2959 113 3159 113 
L 3159 0 
L 1753 0 
L 1753 113 
L 1819 113 
Q 2019 113 2097 173 
Q 2175 234 2206 353 
Q 2216 403 2216 647 
L 2216 1659 
Q 2216 2128 2167 2275 
Q 2119 2422 2012 2495 
Q 1906 2569 1756 2569 
Q 1603 2569 1437 2487 
Q 1272 2406 1041 2159 
L 1041 647 
Q 1041 353 1073 281 
Q 1106 209 1195 161 
Q 1284 113 1503 113 
L 1503 0 
L 84 0 
L 84 113 
Q 275 113 384 172 
Q 447 203 484 290 
Q 522 378 522 647 
L 522 3238 
Q 522 3728 498 3840 
Q 475 3953 426 3993 
Q 378 4034 297 4034 
Q 231 4034 84 3984 
L 41 4094 
L 897 4444 
L 1041 4444 
z
" transform="scale(0.015625)"/>
       <path id="TimesNewRomanPSMT-6b" d="M 1047 4444 
L 1047 1597 
L 1775 2259 
Q 2006 2472 2044 2528 
Q 2069 2566 2069 2603 
Q 2069 2666 2017 2711 
Q 1966 2756 1847 2763 
L 1847 2863 
L 3091 2863 
L 3091 2763 
Q 2834 2756 2664 2684 
Q 2494 2613 2291 2428 
L 1556 1750 
L 2291 822 
Q 2597 438 2703 334 
Q 2853 188 2966 144 
Q 3044 113 3238 113 
L 3238 0 
L 1847 0 
L 1847 113 
Q 1966 116 2008 148 
Q 2050 181 2050 241 
Q 2050 313 1925 472 
L 1047 1594 
L 1047 644 
Q 1047 366 1086 278 
Q 1125 191 1197 153 
Q 1269 116 1509 113 
L 1509 0 
L 53 0 
L 53 113 
Q 272 113 381 166 
Q 447 200 481 272 
Q 528 375 528 628 
L 528 3234 
Q 528 3731 506 3842 
Q 484 3953 434 3995 
Q 384 4038 303 4038 
Q 238 4038 106 3984 
L 53 4094 
L 903 4444 
L 1047 4444 
z
" transform="scale(0.015625)"/>
       <path id="TimesNewRomanPSMT-2d" d="M 259 1672 
L 1875 1672 
L 1875 1200 
L 259 1200 
L 259 1672 
z
" transform="scale(0.015625)"/>
       <path id="DejaVuSans-Oblique-3c9" d="M 1369 -91 
Q 72 -91 434 1766 
Q 575 2500 1256 3500 
L 1875 3500 
Q 1231 2500 1088 1750 
Q 819 397 1519 397 
Q 2166 397 2478 2078 
L 3009 2078 
Q 2669 388 3316 397 
Q 4013 403 4275 1750 
Q 4419 2500 4169 3500 
L 4788 3500 
Q 5075 2500 4934 1766 
Q 4578 -94 3278 -91 
Q 2428 -88 2503 844 
Q 2194 -91 1369 -91 
z
" transform="scale(0.015625)"/>
       <path id="DejaVuSans-Oblique-6c" d="M 1172 4863 
L 1747 4863 
L 800 0 
L 225 0 
L 1172 4863 
z
" transform="scale(0.015625)"/>
       <path id="TimesNewRomanPSMT-64" d="M 2222 322 
Q 2013 103 1813 7 
Q 1613 -88 1381 -88 
Q 913 -88 563 304 
Q 213 697 213 1313 
Q 213 1928 600 2439 
Q 988 2950 1597 2950 
Q 1975 2950 2222 2709 
L 2222 3238 
Q 2222 3728 2198 3840 
Q 2175 3953 2125 3993 
Q 2075 4034 2000 4034 
Q 1919 4034 1784 3984 
L 1744 4094 
L 2597 4444 
L 2738 4444 
L 2738 1134 
Q 2738 631 2761 520 
Q 2784 409 2836 365 
Q 2888 322 2956 322 
Q 3041 322 3181 375 
L 3216 266 
L 2366 -88 
L 2222 -88 
L 2222 322 
z
M 2222 541 
L 2222 2016 
Q 2203 2228 2109 2403 
Q 2016 2578 1861 2667 
Q 1706 2756 1559 2756 
Q 1284 2756 1069 2509 
Q 784 2184 784 1559 
Q 784 928 1059 592 
Q 1334 256 1672 256 
Q 1956 256 2222 541 
z
" transform="scale(0.015625)"/>
       <path id="TimesNewRomanPSMT-2f" d="M 1794 4444 
L 259 -88 
L 9 -88 
L 1544 4444 
L 1794 4444 
z
" transform="scale(0.015625)"/>
      </defs>
      <use xlink:href="#TimesNewRomanPSMT-41" transform="translate(0 0.5625)"/>
      <use xlink:href="#TimesNewRomanPSMT-6e" transform="translate(72.216797 0.5625)"/>
      <use xlink:href="#TimesNewRomanPSMT-67" transform="translate(122.216797 0.5625)"/>
      <use xlink:href="#TimesNewRomanPSMT-75" transform="translate(172.216797 0.5625)"/>
      <use xlink:href="#TimesNewRomanPSMT-6c" transform="translate(222.216797 0.5625)"/>
      <use xlink:href="#TimesNewRomanPSMT-61" transform="translate(250 0.5625)"/>
      <use xlink:href="#TimesNewRomanPSMT-72" transform="translate(294.384766 0.5625)"/>
      <use xlink:href="#TimesNewRomanPSMT-20" transform="translate(327.685547 0.5625)"/>
      <use xlink:href="#TimesNewRomanPSMT-76" transform="translate(352.685547 0.5625)"/>
      <use xlink:href="#TimesNewRomanPSMT-65" transform="translate(402.685547 0.5625)"/>
      <use xlink:href="#TimesNewRomanPSMT-6c" transform="translate(447.070312 0.5625)"/>
      <use xlink:href="#TimesNewRomanPSMT-6f" transform="translate(474.853516 0.5625)"/>
      <use xlink:href="#TimesNewRomanPSMT-63" transform="translate(524.853516 0.5625)"/>
      <use xlink:href="#TimesNewRomanPSMT-69" transform="translate(569.238281 0.5625)"/>
      <use xlink:href="#TimesNewRomanPSMT-74" transform="translate(597.021484 0.5625)"/>
      <use xlink:href="#TimesNewRomanPSMT-79" transform="translate(624.804688 0.5625)"/>
      <use xlink:href="#TimesNewRomanPSMT-20" transform="translate(674.804688 0.5625)"/>
      <use xlink:href="#TimesNewRomanPSMT-6f" transform="translate(699.804688 0.5625)"/>
      <use xlink:href="#TimesNewRomanPSMT-66" transform="translate(749.804688 0.5625)"/>
      <use xlink:href="#TimesNewRomanPSMT-20" transform="translate(783.105469 0.5625)"/>
      <use xlink:href="#TimesNewRomanPSMT-74" transform="translate(808.105469 0.5625)"/>
      <use xlink:href="#TimesNewRomanPSMT-68" transform="translate(835.888672 0.5625)"/>
      <use xlink:href="#TimesNewRomanPSMT-65" transform="translate(885.888672 0.5625)"/>
      <use xlink:href="#TimesNewRomanPSMT-20" transform="translate(930.273438 0.5625)"/>
      <use xlink:href="#TimesNewRomanPSMT-6c" transform="translate(955.273438 0.5625)"/>
      <use xlink:href="#TimesNewRomanPSMT-69" transform="translate(983.056641 0.5625)"/>
      <use xlink:href="#TimesNewRomanPSMT-6e" transform="translate(1010.839844 0.5625)"/>
      <use xlink:href="#TimesNewRomanPSMT-6b" transform="translate(1060.839844 0.5625)"/>
      <use xlink:href="#TimesNewRomanPSMT-20" transform="translate(1110.839844 0.5625)"/>
      <use xlink:href="#TimesNewRomanPSMT-2d" transform="translate(1135.839844 0.5625)"/>
      <use xlink:href="#TimesNewRomanPSMT-20" transform="translate(1169.140625 0.5625)"/>
      <use xlink:href="#DejaVuSans-Oblique-3c9" transform="translate(1194.140625 0.5625)"/>
      <use xlink:href="#DejaVuSans-Oblique-6c" transform="translate(1277.880859 -15.84375) scale(0.7)"/>
      <use xlink:href="#TimesNewRomanPSMT-20" transform="translate(1300.063477 0.5625)"/>
      <use xlink:href="#TimesNewRomanPSMT-28" transform="translate(1325.063477 0.5625)"/>
      <use xlink:href="#TimesNewRomanPSMT-72" transform="translate(1358.364258 0.5625)"/>
      <use xlink:href="#TimesNewRomanPSMT-61" transform="translate(1391.665039 0.5625)"/>
      <use xlink:href="#TimesNewRomanPSMT-64" transform="translate(1436.049805 0.5625)"/>
      <use xlink:href="#TimesNewRomanPSMT-2f" transform="translate(1486.049805 0.5625)"/>
      <use xlink:href="#TimesNewRomanPSMT-73" transform="translate(1513.833008 0.5625)"/>
      <use xlink:href="#TimesNewRomanPSMT-29" transform="translate(1552.749023 0.5625)"/>
     </g>
    </g>
   </g>
   <g id="line2d_31">
    <path d="M 69.218182 140.496041 
L 69.319636 141.57999 
L 69.329782 141.475615 
L 69.421091 141.782791 
L 69.451527 141.466537 
L 69.471818 141.438333 
L 69.613855 140.643951 
L 69.674727 140.538977 
L 69.725455 140.620787 
L 69.938509 141.114412 
L 70.029818 141.236744 
L 70.080545 141.195921 
L 70.090691 141.042529 
L 70.192145 141.178026 
L 70.384909 141.481814 
L 70.506655 141.022653 
L 70.537091 141.000361 
L 70.709564 140.078197 
L 70.790727 139.752664 
L 70.953055 138.427674 
L 71.044364 137.775029 
L 71.287855 134.410645 
L 71.602364 129.358073 
L 71.947309 123.608032 
L 72.464727 115.508668 
L 72.667636 112.387386 
L 72.718364 111.816975 
L 72.921273 109.50983 
L 72.931418 109.583368 
L 72.972 109.342205 
L 73.002436 109.344353 
L 73.174909 108.93565 
L 73.032873 109.35612 
L 73.185055 108.975249 
L 73.276364 109.005568 
L 73.377818 109.183843 
L 73.408255 109.162153 
L 73.540145 109.671226 
L 73.8648 111.68029 
L 74.098145 114.502716 
L 74.382218 119.589947 
L 74.930073 131.729327 
L 75.548945 150.275719 
L 75.964909 165.492616 
L 76.330145 179.243918 
L 77.344691 205.912831 
L 77.375127 205.87593 
L 77.385273 205.858278 
L 77.496873 206.99374 
L 77.507018 206.933879 
L 77.537455 206.739134 
L 77.5476 207.146652 
L 77.588182 206.816095 
L 77.649055 207.343879 
L 77.699782 207.285679 
L 78.460691 195.993233 
L 79.607127 172.334863 
L 79.668 171.298208 
L 79.810036 168.477027 
L 79.820182 168.421208 
L 79.962218 165.507351 
L 79.972364 165.452913 
L 80.134691 161.605839 
L 80.175273 161.380846 
L 80.317309 158.16343 
L 80.327455 158.098531 
L 80.469491 154.457351 
L 80.530364 153.113097 
L 80.692691 147.990284 
L 80.784 146.057454 
L 80.946327 140.278593 
L 81.068073 136.491189 
L 81.189818 132.252348 
L 81.372436 124.394805 
L 81.544909 116.724192 
L 81.768109 105.474639 
L 82.153636 86.113945 
L 82.397127 73.075354 
L 83.046436 47.154403 
L 83.269636 44.64 
L 83.289927 44.678292 
L 83.330509 44.793324 
L 83.452255 45.570496 
L 83.634873 49.400339 
L 83.989964 62.463891 
L 85.907455 144.598503 
L 86.079927 151.08549 
L 87.3684 210.369397 
L 87.855382 235.069559 
L 88.129309 244.047641 
L 88.291636 246.24 
L 88.403236 245.258806 
L 88.413382 245.261059 
L 88.443818 245.191 
L 88.656873 240.451156 
L 88.839491 234.135832 
L 89.103273 220.106714 
L 90.422182 146.967668 
L 90.432327 147.41034 
L 90.472909 145.015214 
L 90.483055 145.174787 
L 90.777273 133.748128 
L 90.787418 134.157 
L 90.828 132.050734 
L 90.838145 132.389778 
L 91.233818 117.607224 
L 91.243964 117.848058 
L 91.2744 116.325158 
L 91.842545 92.828755 
L 91.852691 92.880306 
L 92.502 62.36553 
L 92.532436 61.308316 
L 92.867236 50.805482 
L 93.141164 45.979374 
L 93.212182 45.550049 
L 93.262909 45.590498 
L 93.881782 58.709507 
L 94.581818 89.131213 
L 94.987636 107.664865 
L 95.099236 112.033653 
L 96.387709 160.334804 
L 97.351527 203.204944 
L 97.939964 227.143085 
L 98.254473 233.70155 
L 98.386364 234.926632 
L 98.447236 234.719425 
L 98.518255 234.103167 
L 98.660291 231.919268 
L 98.924073 224.522022 
L 99.340036 206.844924 
L 100.618364 151.42278 
L 100.709673 148.272922 
L 102.353236 81.969425 
L 103.043127 53.487426 
L 103.347491 47.720663 
L 103.519964 46.953084 
L 103.530109 46.9859 
L 103.631564 47.838566 
L 103.864909 52.02259 
L 104.351891 70.305159 
L 106.452 156.391969 
L 106.776655 169.21124 
L 108.430364 236.253304 
L 108.440509 236.197611 
L 108.470945 236.576514 
L 108.531818 237.0337 
L 108.592691 236.784542 
L 108.633273 236.735515 
L 108.876764 232.664024 
L 109.140545 224.005299 
L 110.5812 156.920176 
L 111.220364 133.783247 
L 111.2508 132.897146 
L 113.492945 47.291528 
L 113.634982 46.83902 
L 113.645127 46.846466 
L 113.665418 46.795184 
L 113.746582 47.141993 
L 113.878473 48.866458 
L 114.101673 54.613041 
L 114.527782 71.833784 
L 115.917709 130.391973 
L 117.2772 183.828496 
L 118.433782 230.387277 
L 118.707709 233.240012 
L 118.728 233.228573 
L 118.738145 233.30731 
L 118.799018 232.979924 
L 119.012073 230.488533 
L 119.255564 223.857045 
L 119.712109 205.226407 
L 120.807818 152.260108 
L 121.0716 139.094009 
L 121.518 117.589945 
L 121.802073 103.206921 
L 122.431091 70.714499 
L 122.755745 57.899773 
L 123.039818 51.755938 
L 123.049964 51.758236 
L 123.141273 51.078279 
L 123.192 51.113917 
L 123.699273 64.422851 
L 124.013782 80.732526 
L 124.460182 105.782691 
L 124.693527 119.004528 
L 125.170364 141.584134 
L 125.342836 149.3548 
L 125.525455 155.535257 
L 125.697927 161.860094 
L 125.779091 163.538815 
L 125.921127 167.394477 
L 125.931273 167.436344 
L 126.042873 170.792364 
L 126.063164 170.748323 
L 126.083455 170.699973 
L 126.195055 173.640309 
L 126.215345 173.523832 
L 126.235636 173.403593 
L 126.347236 175.785186 
L 126.357382 175.653745 
L 126.387818 175.254727 
L 126.397964 176.171509 
L 126.438545 175.55268 
L 126.550145 177.027735 
L 126.560291 176.815533 
L 126.600873 177.159248 
L 126.692182 176.15719 
L 126.702327 177.051107 
L 126.793636 175.61445 
L 126.803782 176.638154 
L 126.945818 174.491538 
L 126.955964 175.382814 
L 127.037127 173.903783 
L 127.057418 174.343391 
L 127.199455 171.499844 
L 127.2096 172.290162 
L 127.290764 170.152189 
L 127.311055 170.579326 
L 127.453091 167.285301 
L 127.463236 167.915647 
L 127.534255 166.205156 
L 127.737164 162.6721 
L 128.011091 156.615419 
L 128.021236 156.749114 
L 128.041527 156.027831 
L 128.315455 149.78562 
L 128.3256 149.862949 
L 128.721273 141.234037 
L 128.751709 140.73541 
L 129.025636 136.733424 
L 129.035782 136.795747 
L 129.269127 135.280154 
L 129.279273 135.251975 
L 129.33 135.40115 
L 129.340145 135.374702 
L 129.461891 136.171849 
L 130.080764 144.633152 
L 130.101055 144.148666 
L 130.243091 147.153751 
L 130.253236 146.191686 
L 130.3344 148.0644 
L 130.354691 147.368238 
L 130.446 149.655518 
L 130.456145 148.471849 
L 130.547455 150.675214 
L 130.5576 149.396434 
L 130.699636 151.925882 
L 130.709782 150.347546 
L 130.801091 152.338191 
L 130.811236 150.797551 
L 130.953273 152.880957 
L 130.963418 151.182613 
L 131.054727 153.014568 
L 131.064873 151.339423 
L 131.105455 153.006527 
L 131.206909 152.983532 
L 131.318509 151.011466 
L 131.359091 152.586786 
L 131.419964 150.677644 
L 131.440255 151.429151 
L 131.460545 152.173403 
L 131.470691 150.478492 
L 131.511273 151.987192 
L 131.622873 149.978348 
L 131.663455 151.413943 
L 131.6736 149.750748 
L 131.714182 151.111647 
L 131.825782 148.518527 
L 131.835927 148.806164 
L 131.866364 149.656252 
L 131.876509 147.940572 
L 131.917091 148.969936 
L 132.028691 145.943638 
L 132.038836 146.142137 
L 132.069273 146.725245 
L 132.079418 145.179807 
L 132.12 145.866993 
L 132.2316 142.405577 
L 132.251891 142.588911 
L 132.272182 142.76505 
L 132.383782 139.271138 
L 132.404073 139.397234 
L 132.424364 139.517167 
L 132.535964 136.01907 
L 132.556255 136.059191 
L 132.576545 136.094469 
L 132.708436 132.695817 
L 132.728727 132.635399 
L 132.870764 129.311397 
L 132.880909 129.254182 
L 133.022945 126.20491 
L 133.083818 125.179518 
L 133.236 122.913761 
L 133.378036 121.822008 
L 133.388182 121.812694 
L 133.499782 121.163582 
L 133.530218 121.179628 
L 133.540364 121.18679 
L 133.651964 120.882163 
L 133.662109 120.904493 
L 133.976618 121.903458 
L 134.250545 124.203389 
L 134.494036 127.865718 
L 135.305673 142.558653 
L 136.604291 165.9532 
L 137.101418 169.062059 
L 137.131855 168.995373 
L 137.152145 169.106995 
L 137.375345 168.178175 
L 137.598545 166.482471 
L 137.608691 166.650729 
L 137.679709 166.002289 
L 138.004364 162.659965 
L 138.014509 162.785587 
L 138.055091 161.929372 
L 138.065236 162.038148 
L 138.460909 155.329531 
L 138.471055 155.483004 
L 138.511636 154.512449 
L 138.521782 154.703759 
L 138.866727 149.08111 
L 138.876873 149.221469 
L 138.917455 148.326151 
L 138.9276 148.473086 
L 139.272545 143.315805 
L 139.282691 143.393178 
L 139.313127 142.829987 
L 139.576909 139.960223 
L 139.587055 139.992023 
L 139.607345 139.726131 
L 139.871127 137.681778 
L 140.256655 135.705726 
L 140.287091 135.706481 
L 140.398691 134.946002 
L 140.418982 134.951405 
L 140.439273 134.95565 
L 140.550873 134.018263 
L 140.581309 134.121592 
L 140.591455 134.155297 
L 140.6016 133.843034 
L 140.642182 134.048992 
L 140.753782 133.192153 
L 140.763927 133.264953 
L 140.794364 133.480419 
L 140.804509 132.863179 
L 140.845091 133.113013 
L 140.956691 131.910881 
L 140.966836 131.972033 
L 140.997273 132.152282 
L 141.007418 131.658441 
L 141.048 131.927505 
L 141.1596 130.739909 
L 141.169745 130.815976 
L 141.200182 131.040786 
L 141.210327 130.444344 
L 141.250909 130.738594 
L 141.362509 129.391438 
L 141.372655 129.484354 
L 141.403091 129.759642 
L 141.413236 129.197024 
L 141.453818 129.579287 
L 141.565418 128.436232 
L 141.575564 128.528512 
L 141.606 128.801786 
L 141.616145 128.22977 
L 141.656727 128.625745 
L 141.768327 127.303529 
L 141.778473 127.394973 
L 141.808909 127.665914 
L 141.819055 126.913918 
L 141.859636 127.142858 
L 141.971236 125.356954 
L 141.991527 125.409608 
L 142.011818 125.460728 
L 142.123418 123.854428 
L 142.143709 123.908383 
L 142.164 123.961521 
L 142.2756 122.732006 
L 142.295891 122.787202 
L 142.316182 122.842068 
L 142.427782 121.849707 
L 142.448073 121.911562 
L 142.468364 121.973556 
L 142.579964 121.22641 
L 142.590109 121.268748 
L 142.620545 121.396571 
L 142.630691 121.063187 
L 142.671273 121.204288 
L 142.782873 120.559996 
L 142.793018 120.583623 
L 142.823455 120.656323 
L 142.8336 120.432807 
L 142.874182 120.502509 
L 142.985782 119.84975 
L 143.006073 119.886711 
L 143.127818 120.344745 
L 143.036509 119.868784 
L 143.137964 120.338241 
L 143.381455 121.639925 
L 143.3916 121.541143 
L 143.462618 121.922987 
L 143.777127 124.595552 
L 145.167055 141.480769 
L 146.861345 164.598288 
L 147.033818 165.726958 
L 147.186 166.789892 
L 147.490364 168.284764 
L 147.581673 168.017348 
L 147.733855 167.247498 
L 148.444036 161.456619 
L 150.452836 134.73506 
L 151.447091 123.997737 
L 151.609418 121.431282 
L 152.167418 117.256571 
L 152.177564 117.267342 
L 152.208 117.303926 
L 152.339891 116.475319 
L 152.360182 116.462397 
L 152.471782 115.997415 
L 152.492073 116.01765 
L 152.512364 116.041341 
L 152.522509 115.890992 
L 152.563091 115.906322 
L 152.664545 115.440319 
L 152.684836 115.486535 
L 152.867455 115.7726 
L 152.918182 115.747259 
L 152.928327 115.675969 
L 152.999345 115.912572 
L 153.192109 117.429717 
L 154.237091 128.408722 
L 154.541455 132.682383 
L 156.519818 161.047675 
L 156.529964 160.983836 
L 156.570545 161.374642 
L 156.580691 161.35326 
L 157.179273 166.187968 
L 157.219855 166.148694 
L 157.240145 166.111878 
L 157.432909 166.478199 
L 157.666255 167.487889 
L 157.788 167.559822 
L 157.798145 167.513615 
L 158.163382 166.043376 
L 158.538764 162.578749 
L 159.451855 150.657404 
L 161.278036 125.129463 
L 162.130255 116.356001 
L 162.272291 115.269935 
L 162.607091 113.335101 
L 162.657818 113.368345 
L 162.820145 113.699698 
L 163.053491 114.544619 
L 163.378145 116.81107 
L 164.798509 134.062916 
L 166.330473 156.776992 
L 166.979782 163.83652 
L 167.568218 168.046105 
L 167.578364 168.062187 
L 167.588509 167.88089 
L 167.730545 167.563721 
L 167.903018 166.848296 
L 168.085636 166.255652 
L 168.146509 166.383596 
L 168.197236 166.272355 
L 168.521891 164.60547 
L 168.805964 161.615319 
L 169.292945 155.639182 
L 169.587164 151.732891 
L 171.778582 119.757383 
L 172.235127 115.075252 
L 172.448182 114.103455 
L 172.904727 112.931768 
L 172.945309 112.96776 
L 173.056909 112.923623 
L 173.067055 113.040126 
L 173.178655 113.44939 
L 173.6352 116.158474 
L 174.020727 120.612129 
L 175.086 136.334691 
L 175.096145 136.319273 
L 177.348436 165.980683 
L 177.470182 166.537989 
L 177.510764 166.502474 
L 177.794836 167.271667 
L 178.028182 168.103406 
L 178.078909 167.977489 
L 178.180364 167.34721 
L 178.2108 167.436655 
L 178.291964 166.890311 
L 178.799236 163.027158 
L 179.509418 153.736594 
L 181.173273 130.102038 
L 181.355891 127.765065 
L 182.045782 119.696906 
L 182.461745 116.667768 
L 183.151636 112.772312 
L 183.202364 112.776125 
L 183.384982 114.107097 
L 184.328509 123.25245 
L 185.3532 137.407243 
L 186.773564 158.081437 
L 187.838836 168.058063 
L 187.869273 168.137155 
L 187.879418 168.013391 
L 187.950436 168.052674 
L 188.001164 168.143396 
L 188.173636 168.454809 
L 188.264945 168.363621 
L 188.346109 168.10573 
L 188.498291 167.257639 
L 188.964982 163.658272 
L 189.289636 159.747831 
L 189.675164 154.570664 
L 190.314327 146.417734 
L 191.065091 134.472815 
L 191.440473 127.626736 
L 192.231818 116.086175 
L 192.241964 116.207372 
L 192.282545 115.683566 
L 192.292691 115.70377 
L 192.6072 113.161035 
L 192.688364 112.597939 
L 192.789818 112.663897 
L 192.942 113.021426 
L 192.952145 112.953178 
L 193.043455 113.042234 
L 193.175345 113.331215 
L 193.246364 113.409859 
L 193.286945 113.316008 
L 193.327527 113.448156 
L 193.601455 114.441089 
L 193.875382 116.930566 
L 195.732 140.105872 
L 196.036364 145.494816 
L 196.29 148.787647 
L 196.5132 152.706236 
L 196.9596 159.236824 
L 197.710364 166.906482 
L 197.730655 166.876533 
L 197.984291 167.811261 
L 198.369818 169.523329 
L 198.420545 169.473148 
L 198.613309 168.213062 
L 199.181455 163.962921 
L 199.435091 160.126283 
L 199.556836 158.741916 
L 199.942364 153.609148 
L 200.297455 148.045332 
L 200.317745 147.903925 
L 200.855455 140.022684 
L 201.129382 134.832904 
L 202.103345 119.9816 
L 202.935273 111.815781 
L 202.945418 111.944257 
L 203.087455 111.824681 
L 203.138182 111.793198 
L 203.199055 111.838479 
L 203.239636 111.78176 
L 203.290364 111.870717 
L 203.452691 112.587794 
L 203.6556 113.448978 
L 204.152727 117.450413 
L 204.386073 119.766298 
L 204.609273 122.459774 
L 205.918036 141.590551 
L 207.592036 164.16592 
L 208.058727 167.347726 
L 208.068873 167.292795 
L 208.413818 168.039102 
L 208.626873 167.183419 
L 209.316764 161.913784 
L 209.803745 155.891463 
L 210.625527 144.154354 
L 211.680655 129.754974 
L 212.512582 119.529505 
L 213.121309 114.718249 
L 213.1416 114.733229 
L 213.172036 114.812057 
L 213.182182 114.840572 
L 213.192327 114.783442 
L 213.232909 114.813404 
L 213.374945 114.308115 
L 213.496691 114.262213 
L 213.527127 114.296536 
L 213.537273 114.310318 
L 213.547418 114.229965 
L 213.588 114.240485 
L 213.6996 113.929958 
L 213.719891 113.952311 
L 213.902509 114.357459 
L 214.085127 115.798728 
L 215.109818 127.612955 
L 215.809855 137.781793 
L 218.001273 166.325755 
L 218.021564 166.313296 
L 218.153455 167.073441 
L 218.3868 168.074354 
L 218.4984 168.497734 
L 218.61 168.609209 
L 218.620145 168.532722 
L 218.995527 167.939692 
L 219.066545 167.392721 
L 219.350618 164.259517 
L 220.010073 156.692481 
L 221.4 135.021535 
L 221.805818 128.60332 
L 221.917418 127.175025 
L 222.921818 115.073004 
L 222.931964 115.082368 
L 223.084145 114.19404 
L 223.388509 112.55584 
L 223.530545 112.300809 
L 223.540691 112.333717 
L 223.632 112.269866 
L 223.794327 113.231842 
L 224.534945 118.049743 
L 225.508909 130.339192 
L 226.655345 148.359276 
L 227.933673 164.122988 
L 228.177164 165.381427 
L 228.248182 165.656807 
L 228.400364 166.365087 
L 228.420655 166.345632 
L 228.654 166.310527 
L 228.714873 166.495322 
L 228.7656 166.476373 
L 228.978655 165.901387 
L 229.404764 162.360063 
L 233.3412 116.664184 
L 233.371636 116.627662 
L 233.513673 115.808454 
L 233.574545 115.701317 
L 233.716582 115.138325 
L 233.7876 115.122884 
L 233.807891 115.194369 
L 233.980364 115.690609 
L 234.031091 115.663121 
L 234.041236 115.596333 
L 234.112255 115.790587 
L 234.355745 117.159006 
L 235.512327 129.989867 
L 236.425418 142.939775 
L 237.267491 155.802359 
L 237.653018 160.562024 
L 237.977673 164.856055 
L 238.190727 166.451882 
L 238.200873 166.37991 
L 238.941491 169.576539 
L 238.951636 169.609365 
L 238.961782 169.45521 
L 239.002364 169.495223 
L 239.164691 168.557608 
L 239.347309 167.205659 
L 239.732836 163.453588 
L 240.93 148.072264 
L 241.214073 142.98648 
L 243.111273 113.642621 
L 243.172145 113.732933 
L 243.567818 112.278291 
L 243.618545 112.153163 
L 243.699709 112.391781 
L 243.933055 112.345532 
L 243.973636 112.240406 
L 244.034509 112.368524 
L 244.125818 112.44941 
L 244.318582 113.582524 
L 244.582364 116.251892 
L 244.886727 119.252935 
L 245.089636 121.174824 
L 245.515745 126.407758 
L 246.307091 138.850897 
L 246.712909 145.240493 
L 246.915818 148.30022 
L 247.2912 153.860844 
L 248.397055 165.903474 
L 248.691273 167.293608 
L 248.701418 167.168371 
L 248.792727 167.375593 
L 248.934764 167.849293 
L 248.995636 167.862012 
L 249.097091 167.483753 
L 249.137673 167.488211 
L 249.604364 165.491519 
L 249.908727 162.314976 
L 249.959455 161.907001 
L 250.202945 159.219338 
L 250.588473 153.449191 
L 252.323345 127.919395 
L 253.662545 113.015665 
L 253.682836 113.07657 
L 253.723418 113.12553 
L 253.855309 112.863763 
L 253.865455 112.851072 
L 253.906036 112.97155 
L 253.926327 112.958041 
L 254.250982 113.797972 
L 254.575636 114.957496 
L 254.585782 114.911747 
L 254.636509 115.141671 
L 254.798836 116.422464 
L 255.316255 122.785592 
L 256.381527 138.04446 
L 257.720727 157.427735 
L 257.751164 157.708756 
L 258.593236 166.907321 
L 258.938182 168.317708 
L 258.988909 168.268016 
L 259.029491 168.403803 
L 259.070073 168.623612 
L 259.141091 168.898287 
L 259.191818 168.732166 
L 259.323709 168.260183 
L 259.526618 167.537831 
L 259.881709 165.002324 
L 260.561455 157.28423 
L 263.199273 116.877656 
L 263.209418 117.009589 
L 263.270291 116.420168 
L 263.706545 112.771759 
L 263.716691 112.826312 
L 263.757273 112.52567 
L 263.767418 112.563796 
L 264.010909 111.328992 
L 264.041345 111.450696 
L 264.112364 111.530923 
L 264.2544 112.202685 
L 264.376145 112.710545 
L 264.761673 114.626204 
L 264.924 116.360814 
L 265.360255 121.573462 
L 266.273345 134.15062 
L 267.998073 158.788684 
L 268.414036 163.938603 
L 268.728545 166.624798 
L 269.012618 167.91055 
L 269.185091 168.124739 
L 269.205382 168.110849 
L 269.438727 168.121127 
L 269.621345 167.416364 
L 269.874982 165.859781 
L 270.037309 164.486237 
L 270.676473 157.327683 
L 272.127273 135.728137 
L 272.4012 131.161359 
L 273.040364 122.033542 
L 273.151964 120.675257 
L 273.801273 112.818328 
L 273.821564 112.835375 
L 273.902727 112.499388 
L 273.953455 112.580245 
L 274.054909 112.763952 
L 274.0752 112.682017 
L 274.308545 112.371311 
L 274.328836 112.549953 
L 274.460727 112.648228 
L 274.481018 112.621967 
L 274.511455 112.581102 
L 274.541891 112.711546 
L 274.663636 113.054562 
L 275.110036 116.52785 
L 275.434691 120.032347 
L 276.124582 130.106048 
L 277.220291 145.665179 
L 277.686982 152.487273 
L 278.387018 162.11306 
L 279.229091 168.416462 
L 279.249382 168.292047 
L 279.432 168.154935 
L 279.563891 167.775249 
L 279.634909 167.590932 
L 280.081309 165.409609 
L 280.203055 164.345788 
L 280.456691 161.328371 
L 281.410364 149.415119 
L 281.907491 141.717719 
L 282.353891 133.608863 
L 283.287273 119.462823 
L 283.297418 119.576871 
L 283.348145 119.00551 
L 283.946727 113.355067 
L 283.956873 113.465066 
L 284.038036 113.262114 
L 284.301818 112.735682 
L 284.352545 112.659181 
L 284.504727 111.993121 
L 284.636618 112.342772 
L 284.809091 112.995421 
L 285.925091 124.806434 
L 286.483091 133.216379 
L 286.9092 138.937041 
L 287.822291 152.298094 
L 288.380291 159.657593 
L 288.948436 165.342789 
L 289.171636 166.178746 
L 289.181782 166.143372 
L 289.273091 166.083627 
L 289.425273 166.72814 
L 289.567309 167.077469 
L 289.607891 167.210025 
L 289.780364 167.288241 
L 289.800655 167.234183 
L 289.983273 166.815732 
L 290.216618 164.63599 
L 290.734036 159.56459 
L 291.018109 155.101575 
L 292.032655 141.346287 
L 292.702255 131.7821 
L 293.473309 121.254118 
L 294.112473 115.47755 
L 294.203782 114.464904 
L 294.447273 113.26129 
L 294.457418 113.327301 
L 294.558873 113.274211 
L 294.802364 113.509744 
L 295.147309 115.256432 
L 295.441527 117.363962 
L 296.253164 127.074728 
L 298.860545 163.643654 
L 298.880836 163.730617 
L 299.611309 168.660135 
L 299.773636 169.204046 
L 299.875091 169.137656 
L 300.564982 163.159359 
L 301.802727 146.947399 
L 302.238982 140.753716 
L 302.675236 133.359825 
L 303.192655 125.89581 
L 304.014436 116.173143 
L 304.440545 113.249962 
L 304.450691 113.334962 
L 304.755055 112.345032 
L 304.846364 112.289939 
L 304.9884 112.685448 
L 305.1 113.177651 
L 306.155127 123.889681 
L 306.520364 128.795524 
L 306.824727 133.488827 
L 307.839273 149.434495 
L 309.158182 165.942395 
L 309.178473 165.935661 
L 309.462545 167.115206 
L 309.472691 167.030503 
L 309.564 167.081146 
L 309.726327 167.690727 
L 310.020545 168.67702 
L 310.071273 168.564241 
L 310.284327 167.317302 
L 310.598836 164.465168 
L 311.755418 150.03224 
L 313.3584 125.302714 
L 313.926545 117.01825 
L 313.936691 117.136503 
L 314.007709 116.687949 
L 314.261345 115.667915 
L 314.504836 114.352639 
L 314.890364 112.024408 
L 314.951236 112.17594 
L 314.991818 112.178077 
L 315.001964 112.269459 
L 315.245455 112.833332 
L 315.407782 114.215956 
L 316.138255 121.418109 
L 316.635382 128.757686 
L 317.802109 146.222402 
L 319.506545 167.668845 
L 319.516691 167.666135 
L 319.536982 167.754573 
L 319.810909 168.49396 
L 319.821055 168.448926 
L 319.892073 168.603654 
L 320.013818 168.559171 
L 320.023964 168.515431 
L 320.115273 168.589182 
L 320.267455 168.913214 
L 320.368909 169.136753 
L 320.419636 169.10251 
L 320.997927 163.337066 
L 321.383455 159.287625 
L 321.6168 155.610411 
L 322.316836 144.939718 
L 322.925564 134.649472 
L 324.447382 112.21732 
L 324.63 111.264851 
L 324.650291 111.375389 
L 324.731455 110.999514 
L 324.792327 111.183148 
L 324.883636 111.052668 
L 324.914073 111.193678 
L 324.934364 111.210115 
L 325.096691 112.053688 
L 325.238727 112.645739 
L 325.2996 112.498291 
L 325.340182 112.466815 
L 325.390909 112.555171 
L 325.441636 112.631149 
L 325.847455 116.160576 
L 326.060509 118.650395 
L 327.369273 136.357666 
L 328.586727 155.813659 
L 328.596873 155.77352 
L 328.617164 156.041421 
L 329.418655 165.137728 
L 329.743309 167.092589 
L 329.753455 167.121752 
L 329.7636 167.004062 
L 329.844764 167.063282 
L 329.925927 167.166816 
L 330.037527 167.492023 
L 330.21 168.103381 
L 330.331745 167.928451 
L 330.494073 167.579394 
L 330.828873 165.608088 
L 331.254982 160.992447 
L 332.431855 143.593967 
L 333.537709 127.532561 
L 334.440655 116.276078 
L 334.907345 112.52139 
L 335.079818 112.038287 
L 335.089964 112.08952 
L 335.181273 112.022119 
L 335.211709 112.073569 
L 335.333455 112.294755 
L 335.495782 112.67773 
L 335.597236 113.206906 
L 336.246545 118.693572 
L 336.601636 123.995608 
L 336.763964 126.633231 
L 337.514727 137.357686 
L 339.564109 164.914471 
L 340.000364 168.057162 
L 340.010509 167.946438 
L 340.203273 168.12222 
L 340.213418 168.013567 
L 340.264145 167.792129 
L 340.832291 164.922806 
L 342.607745 143.30155 
L 343.520836 129.830089 
L 344.525236 118.0081 
L 345.194836 113.523292 
L 345.326727 113.275913 
L 345.3876 113.204228 
L 345.438327 113.237401 
L 345.560073 113.569766 
L 346.097782 116.567512 
L 346.706509 123.473143 
L 348.1776 145.007565 
L 349.638545 164.074038 
L 349.750145 165.00664 
L 350.287855 168.379477 
L 350.348727 168.605183 
L 350.4096 168.470994 
L 350.500909 168.251018 
L 350.642945 167.320266 
L 350.998036 164.92689 
L 352.063309 152.005267 
L 352.519855 146.166193 
L 354.528655 118.934373 
L 355.127236 114.819371 
L 355.624364 112.458906 
L 355.644655 112.463951 
L 355.675091 112.455529 
L 355.817127 112.97981 
L 355.878 113.35807 
L 356.070764 114.846938 
L 356.618618 120.29598 
L 357.196909 128.072452 
L 357.450545 132.560513 
L 357.957818 139.946299 
L 358.079564 141.358372 
L 360.088364 167.235903 
L 360.098509 167.136946 
L 360.626073 168.068231 
L 360.697091 168.050087 
L 360.798545 167.529386 
L 360.828982 167.572378 
L 360.950727 167.366632 
L 360.859418 167.592758 
L 360.971018 167.440001 
L 361.001455 167.426765 
L 361.184073 166.211737 
L 361.691345 161.357104 
L 362.655164 148.239925 
L 363.618982 132.416932 
L 364.430618 120.633206 
L 365.161091 112.460941 
L 365.171236 112.575344 
L 365.242255 112.263405 
L 365.364 112.060129 
L 365.272691 112.315288 
L 365.384291 112.134172 
L 365.414727 112.070964 
L 365.435018 112.279103 
L 365.790109 112.856166 
L 365.932145 112.999526 
L 365.942291 112.992739 
L 365.972727 112.980302 
L 365.982873 113.074814 
L 366.124909 113.712869 
L 366.439418 116.159813 
L 366.632182 117.92014 
L 366.835091 120.9631 
L 367.291636 127.948591 
L 367.3728 128.868254 
L 368.539527 144.948848 
L 368.925055 151.500085 
L 369.371455 157.689708 
L 370.213527 165.181957 
L 370.284545 165.482714 
L 370.467164 166.632115 
L 370.700509 167.320615 
L 370.751236 167.270653 
L 371.400545 164.35963 
L 371.623745 162.345985 
L 372.019418 157.319765 
L 372.516545 149.897387 
L 372.526691 149.952356 
L 372.557127 149.634093 
L 373.125273 142.623861 
L 373.389055 138.741031 
L 373.581818 135.981258 
L 373.581818 135.981258 
" clip-path="url(#pf5895d4967)" style="fill: none; stroke: #000000; stroke-width: 0.5; stroke-linecap: square"/>
   </g>
   <g id="patch_3">
    <path d="M 54 256.32 
L 54 34.56 
" style="fill: none; stroke: #000000; stroke-width: 0.8; stroke-linejoin: miter; stroke-linecap: square"/>
   </g>
   <g id="patch_4">
    <path d="M 388.8 256.32 
L 388.8 34.56 
" style="fill: none; stroke: #000000; stroke-width: 0.8; stroke-linejoin: miter; stroke-linecap: square"/>
   </g>
   <g id="patch_5">
    <path d="M 54 256.32 
L 388.8 256.32 
" style="fill: none; stroke: #000000; stroke-width: 0.8; stroke-linejoin: miter; stroke-linecap: square"/>
   </g>
   <g id="patch_6">
    <path d="M 54 34.56 
L 388.8 34.56 
" style="fill: none; stroke: #000000; stroke-width: 0.8; stroke-linejoin: miter; stroke-linecap: square"/>
   </g>
   <g id="text_18">
    <!-- $\omega_{l}$ (rad/s) - (MJUKF) -->
    <g transform="translate(173.55 28.56) scale(0.11 -0.11)">
     <defs>
      <path id="TimesNewRomanPSMT-4d" d="M 2619 0 
L 981 3566 
L 981 734 
Q 981 344 1066 247 
Q 1181 116 1431 116 
L 1581 116 
L 1581 0 
L 106 0 
L 106 116 
L 256 116 
Q 525 116 638 278 
Q 706 378 706 734 
L 706 3503 
Q 706 3784 644 3909 
Q 600 4000 483 4061 
Q 366 4122 106 4122 
L 106 4238 
L 1306 4238 
L 2844 922 
L 4356 4238 
L 5556 4238 
L 5556 4122 
L 5409 4122 
Q 5138 4122 5025 3959 
Q 4956 3859 4956 3503 
L 4956 734 
Q 4956 344 5044 247 
Q 5159 116 5409 116 
L 5556 116 
L 5556 0 
L 3756 0 
L 3756 116 
L 3906 116 
Q 4178 116 4288 278 
Q 4356 378 4356 734 
L 4356 3566 
L 2722 0 
L 2619 0 
z
" transform="scale(0.015625)"/>
      <path id="TimesNewRomanPSMT-4a" d="M 638 4122 
L 638 4238 
L 2453 4238 
L 2453 4122 
L 2300 4122 
Q 2041 4122 1922 3969 
Q 1847 3869 1847 3488 
L 1847 1416 
Q 1847 938 1742 641 
Q 1638 344 1381 123 
Q 1125 -97 763 -97 
Q 469 -97 300 48 
Q 131 194 131 381 
Q 131 534 209 613 
Q 313 709 450 709 
Q 550 709 629 643 
Q 709 578 831 294 
Q 903 125 1016 125 
Q 1100 125 1173 228 
Q 1247 331 1247 594 
L 1247 3488 
Q 1247 3809 1206 3913 
Q 1175 3991 1075 4047 
Q 941 4122 791 4122 
L 638 4122 
z
" transform="scale(0.015625)"/>
      <path id="TimesNewRomanPSMT-55" d="M 3053 4122 
L 3053 4238 
L 4553 4238 
L 4553 4122 
L 4394 4122 
Q 4144 4122 4009 3913 
Q 3944 3816 3944 3463 
L 3944 1744 
Q 3944 1106 3817 754 
Q 3691 403 3320 151 
Q 2950 -100 2313 -100 
Q 1619 -100 1259 140 
Q 900 381 750 788 
Q 650 1066 650 1831 
L 650 3488 
Q 650 3878 542 4000 
Q 434 4122 194 4122 
L 34 4122 
L 34 4238 
L 1866 4238 
L 1866 4122 
L 1703 4122 
Q 1441 4122 1328 3956 
Q 1250 3844 1250 3488 
L 1250 1641 
Q 1250 1394 1295 1075 
Q 1341 756 1459 578 
Q 1578 400 1801 284 
Q 2025 169 2350 169 
Q 2766 169 3094 350 
Q 3422 531 3542 814 
Q 3663 1097 3663 1772 
L 3663 3488 
Q 3663 3884 3575 3984 
Q 3453 4122 3213 4122 
L 3053 4122 
z
" transform="scale(0.015625)"/>
      <path id="TimesNewRomanPSMT-4b" d="M 1913 2350 
L 3475 797 
Q 3859 413 4131 273 
Q 4403 134 4675 116 
L 4675 0 
L 2659 0 
L 2659 116 
Q 2841 116 2920 177 
Q 3000 238 3000 313 
Q 3000 388 2970 447 
Q 2941 506 2775 669 
L 1313 2116 
L 1313 750 
Q 1313 428 1353 325 
Q 1384 247 1484 191 
Q 1619 116 1769 116 
L 1913 116 
L 1913 0 
L 106 0 
L 106 116 
L 256 116 
Q 519 116 638 269 
Q 713 369 713 750 
L 713 3488 
Q 713 3809 672 3916 
Q 641 3991 544 4047 
Q 406 4122 256 4122 
L 106 4122 
L 106 4238 
L 1913 4238 
L 1913 4122 
L 1769 4122 
Q 1622 4122 1484 4050 
Q 1388 4000 1350 3900 
Q 1313 3800 1313 3488 
L 1313 2191 
Q 1375 2250 1741 2588 
Q 2669 3438 2863 3722 
Q 2947 3847 2947 3941 
Q 2947 4013 2881 4067 
Q 2816 4122 2659 4122 
L 2563 4122 
L 2563 4238 
L 4119 4238 
L 4119 4122 
Q 3981 4119 3868 4084 
Q 3756 4050 3593 3951 
Q 3431 3853 3194 3634 
Q 3125 3572 2559 2994 
L 1913 2350 
z
" transform="scale(0.015625)"/>
      <path id="TimesNewRomanPSMT-46" d="M 1309 4006 
L 1309 2341 
L 2081 2341 
Q 2347 2341 2470 2458 
Q 2594 2575 2634 2922 
L 2750 2922 
L 2750 1488 
L 2634 1488 
Q 2631 1734 2570 1850 
Q 2509 1966 2401 2023 
Q 2294 2081 2081 2081 
L 1309 2081 
L 1309 750 
Q 1309 428 1350 325 
Q 1381 247 1481 191 
Q 1619 116 1769 116 
L 1922 116 
L 1922 0 
L 103 0 
L 103 116 
L 253 116 
Q 516 116 634 269 
Q 709 369 709 750 
L 709 3488 
Q 709 3809 669 3913 
Q 638 3991 541 4047 
Q 406 4122 253 4122 
L 103 4122 
L 103 4238 
L 3256 4238 
L 3297 3306 
L 3188 3306 
Q 3106 3603 2998 3742 
Q 2891 3881 2733 3943 
Q 2575 4006 2244 4006 
L 1309 4006 
z
" transform="scale(0.015625)"/>
     </defs>
     <use xlink:href="#DejaVuSans-Oblique-3c9" transform="translate(0 0.5625)"/>
     <use xlink:href="#DejaVuSans-Oblique-6c" transform="translate(83.740234 -15.84375) scale(0.7)"/>
     <use xlink:href="#TimesNewRomanPSMT-20" transform="translate(105.922852 0.5625)"/>
     <use xlink:href="#TimesNewRomanPSMT-28" transform="translate(130.922852 0.5625)"/>
     <use xlink:href="#TimesNewRomanPSMT-72" transform="translate(164.223633 0.5625)"/>
     <use xlink:href="#TimesNewRomanPSMT-61" transform="translate(197.524414 0.5625)"/>
     <use xlink:href="#TimesNewRomanPSMT-64" transform="translate(241.90918 0.5625)"/>
     <use xlink:href="#TimesNewRomanPSMT-2f" transform="translate(291.90918 0.5625)"/>
     <use xlink:href="#TimesNewRomanPSMT-73" transform="translate(319.692383 0.5625)"/>
     <use xlink:href="#TimesNewRomanPSMT-29" transform="translate(358.608398 0.5625)"/>
     <use xlink:href="#TimesNewRomanPSMT-20" transform="translate(391.90918 0.5625)"/>
     <use xlink:href="#TimesNewRomanPSMT-2d" transform="translate(416.90918 0.5625)"/>
     <use xlink:href="#TimesNewRomanPSMT-20" transform="translate(450.209961 0.5625)"/>
     <use xlink:href="#TimesNewRomanPSMT-28" transform="translate(475.209961 0.5625)"/>
     <use xlink:href="#TimesNewRomanPSMT-4d" transform="translate(508.510742 0.5625)"/>
     <use xlink:href="#TimesNewRomanPSMT-4a" transform="translate(597.426758 0.5625)"/>
     <use xlink:href="#TimesNewRomanPSMT-55" transform="translate(636.342773 0.5625)"/>
     <use xlink:href="#TimesNewRomanPSMT-4b" transform="translate(708.55957 0.5625)"/>
     <use xlink:href="#TimesNewRomanPSMT-46" transform="translate(780.776367 0.5625)"/>
     <use xlink:href="#TimesNewRomanPSMT-29" transform="translate(836.391602 0.5625)"/>
    </g>
   </g>
   <g id="legend_1">
    <g id="patch_7">
     <path d="M 339.2 57.238125 
L 381.8 57.238125 
Q 383.8 57.238125 383.8 55.238125 
L 383.8 41.56 
Q 383.8 39.56 381.8 39.56 
L 339.2 39.56 
Q 337.2 39.56 337.2 41.56 
L 337.2 55.238125 
Q 337.2 57.238125 339.2 57.238125 
z
" style="fill: #ffffff; opacity: 0.8; stroke: #cccccc; stroke-linejoin: miter"/>
    </g>
    <g id="line2d_32">
     <path d="M 341.2 47.658438 
L 351.2 47.658438 
L 361.2 47.658438 
" style="fill: none; stroke: #000000; stroke-width: 0.5; stroke-linecap: square"/>
    </g>
    <g id="text_19">
     <!-- $\omega_{l}$ -->
     <g transform="translate(369.2 51.158438) scale(0.1 -0.1)">
      <use xlink:href="#DejaVuSans-Oblique-3c9" transform="translate(0 0.3125)"/>
      <use xlink:href="#DejaVuSans-Oblique-6c" transform="translate(83.740234 -16.09375) scale(0.7)"/>
     </g>
    </g>
   </g>
  </g>
 </g>
 <defs>
  <clipPath id="pf5895d4967">
   <rect x="54" y="34.56" width="334.8" height="221.76"/>
  </clipPath>
 </defs>
</svg>
