<?xml version="1.0" encoding="utf-8" standalone="no"?>
<!DOCTYPE svg PUBLIC "-//W3C//DTD SVG 1.1//EN"
  "http://www.w3.org/Graphics/SVG/1.1/DTD/svg11.dtd">
<svg xmlns:xlink="http://www.w3.org/1999/xlink" width="432pt" height="288pt" viewBox="0 0 432 288" xmlns="http://www.w3.org/2000/svg" version="1.1">
 <metadata>
  <rdf:RDF xmlns:dc="http://purl.org/dc/elements/1.1/" xmlns:cc="http://creativecommons.org/ns#" xmlns:rdf="http://www.w3.org/1999/02/22-rdf-syntax-ns#">
   <cc:Work>
    <dc:type rdf:resource="http://purl.org/dc/dcmitype/StillImage"/>
    <dc:date>2024-11-11T01:16:45.257342</dc:date>
    <dc:format>image/svg+xml</dc:format>
    <dc:creator>
     <cc:Agent>
      <dc:title>Matplotlib v3.9.1, https://matplotlib.org/</dc:title>
     </cc:Agent>
    </dc:creator>
   </cc:Work>
  </rdf:RDF>
 </metadata>
 <defs>
  <style type="text/css">*{stroke-linejoin: round; stroke-linecap: butt}</style>
 </defs>
 <g id="figure_1">
  <g id="patch_1">
   <path d="M 0 288 
L 432 288 
L 432 0 
L 0 0 
z
" style="fill: #ffffff"/>
  </g>
  <g id="axes_1">
   <g id="patch_2">
    <path d="M 54 256.32 
L 388.8 256.32 
L 388.8 34.56 
L 54 34.56 
z
" style="fill: #ffffff"/>
   </g>
   <g id="matplotlib.axis_1">
    <g id="xtick_1">
     <g id="line2d_1">
      <path d="M 69.218182 256.32 
L 69.218182 34.56 
" clip-path="url(#p0f73a06245)" style="fill: none; stroke: #b0b0b0; stroke-width: 0.2; stroke-linecap: square"/>
     </g>
     <g id="line2d_2">
      <defs>
       <path id="m5f25a1b5d0" d="M 0 0 
L 0 3.5 
" style="stroke: #000000; stroke-width: 0.8"/>
      </defs>
      <g>
       <use xlink:href="#m5f25a1b5d0" x="69.218182" y="256.32" style="stroke: #000000; stroke-width: 0.8"/>
      </g>
     </g>
     <g id="text_1">
      <!-- 0 -->
      <g transform="translate(65.718807 271.678281) scale(0.11 -0.11)">
       <defs>
        <path id="DejaVuSans-30" d="M 2034 4250 
Q 1547 4250 1301 3770 
Q 1056 3291 1056 2328 
Q 1056 1369 1301 889 
Q 1547 409 2034 409 
Q 2525 409 2770 889 
Q 3016 1369 3016 2328 
Q 3016 3291 2770 3770 
Q 2525 4250 2034 4250 
z
M 2034 4750 
Q 2819 4750 3233 4129 
Q 3647 3509 3647 2328 
Q 3647 1150 3233 529 
Q 2819 -91 2034 -91 
Q 1250 -91 836 529 
Q 422 1150 422 2328 
Q 422 3509 836 4129 
Q 1250 4750 2034 4750 
z
" transform="scale(0.015625)"/>
       </defs>
       <use xlink:href="#DejaVuSans-30"/>
      </g>
     </g>
    </g>
    <g id="xtick_2">
     <g id="line2d_3">
      <path d="M 119.945455 256.32 
L 119.945455 34.56 
" clip-path="url(#p0f73a06245)" style="fill: none; stroke: #b0b0b0; stroke-width: 0.2; stroke-linecap: square"/>
     </g>
     <g id="line2d_4">
      <g>
       <use xlink:href="#m5f25a1b5d0" x="119.945455" y="256.32" style="stroke: #000000; stroke-width: 0.8"/>
      </g>
     </g>
     <g id="text_2">
      <!-- 5 -->
      <g transform="translate(116.44608 271.678281) scale(0.11 -0.11)">
       <defs>
        <path id="DejaVuSans-35" d="M 691 4666 
L 3169 4666 
L 3169 4134 
L 1269 4134 
L 1269 2991 
Q 1406 3038 1543 3061 
Q 1681 3084 1819 3084 
Q 2600 3084 3056 2656 
Q 3513 2228 3513 1497 
Q 3513 744 3044 326 
Q 2575 -91 1722 -91 
Q 1428 -91 1123 -41 
Q 819 9 494 109 
L 494 744 
Q 775 591 1075 516 
Q 1375 441 1709 441 
Q 2250 441 2565 725 
Q 2881 1009 2881 1497 
Q 2881 1984 2565 2268 
Q 2250 2553 1709 2553 
Q 1456 2553 1204 2497 
Q 953 2441 691 2322 
L 691 4666 
z
" transform="scale(0.015625)"/>
       </defs>
       <use xlink:href="#DejaVuSans-35"/>
      </g>
     </g>
    </g>
    <g id="xtick_3">
     <g id="line2d_5">
      <path d="M 170.672727 256.32 
L 170.672727 34.56 
" clip-path="url(#p0f73a06245)" style="fill: none; stroke: #b0b0b0; stroke-width: 0.2; stroke-linecap: square"/>
     </g>
     <g id="line2d_6">
      <g>
       <use xlink:href="#m5f25a1b5d0" x="170.672727" y="256.32" style="stroke: #000000; stroke-width: 0.8"/>
      </g>
     </g>
     <g id="text_3">
      <!-- 10 -->
      <g transform="translate(163.673977 271.678281) scale(0.11 -0.11)">
       <defs>
        <path id="DejaVuSans-31" d="M 794 531 
L 1825 531 
L 1825 4091 
L 703 3866 
L 703 4441 
L 1819 4666 
L 2450 4666 
L 2450 531 
L 3481 531 
L 3481 0 
L 794 0 
L 794 531 
z
" transform="scale(0.015625)"/>
       </defs>
       <use xlink:href="#DejaVuSans-31"/>
       <use xlink:href="#DejaVuSans-30" x="63.623047"/>
      </g>
     </g>
    </g>
    <g id="xtick_4">
     <g id="line2d_7">
      <path d="M 221.4 256.32 
L 221.4 34.56 
" clip-path="url(#p0f73a06245)" style="fill: none; stroke: #b0b0b0; stroke-width: 0.2; stroke-linecap: square"/>
     </g>
     <g id="line2d_8">
      <g>
       <use xlink:href="#m5f25a1b5d0" x="221.4" y="256.32" style="stroke: #000000; stroke-width: 0.8"/>
      </g>
     </g>
     <g id="text_4">
      <!-- 15 -->
      <g transform="translate(214.40125 271.678281) scale(0.11 -0.11)">
       <use xlink:href="#DejaVuSans-31"/>
       <use xlink:href="#DejaVuSans-35" x="63.623047"/>
      </g>
     </g>
    </g>
    <g id="xtick_5">
     <g id="line2d_9">
      <path d="M 272.127273 256.32 
L 272.127273 34.56 
" clip-path="url(#p0f73a06245)" style="fill: none; stroke: #b0b0b0; stroke-width: 0.2; stroke-linecap: square"/>
     </g>
     <g id="line2d_10">
      <g>
       <use xlink:href="#m5f25a1b5d0" x="272.127273" y="256.32" style="stroke: #000000; stroke-width: 0.8"/>
      </g>
     </g>
     <g id="text_5">
      <!-- 20 -->
      <g transform="translate(265.128523 271.678281) scale(0.11 -0.11)">
       <defs>
        <path id="DejaVuSans-32" d="M 1228 531 
L 3431 531 
L 3431 0 
L 469 0 
L 469 531 
Q 828 903 1448 1529 
Q 2069 2156 2228 2338 
Q 2531 2678 2651 2914 
Q 2772 3150 2772 3378 
Q 2772 3750 2511 3984 
Q 2250 4219 1831 4219 
Q 1534 4219 1204 4116 
Q 875 4013 500 3803 
L 500 4441 
Q 881 4594 1212 4672 
Q 1544 4750 1819 4750 
Q 2544 4750 2975 4387 
Q 3406 4025 3406 3419 
Q 3406 3131 3298 2873 
Q 3191 2616 2906 2266 
Q 2828 2175 2409 1742 
Q 1991 1309 1228 531 
z
" transform="scale(0.015625)"/>
       </defs>
       <use xlink:href="#DejaVuSans-32"/>
       <use xlink:href="#DejaVuSans-30" x="63.623047"/>
      </g>
     </g>
    </g>
    <g id="xtick_6">
     <g id="line2d_11">
      <path d="M 322.854545 256.32 
L 322.854545 34.56 
" clip-path="url(#p0f73a06245)" style="fill: none; stroke: #b0b0b0; stroke-width: 0.2; stroke-linecap: square"/>
     </g>
     <g id="line2d_12">
      <g>
       <use xlink:href="#m5f25a1b5d0" x="322.854545" y="256.32" style="stroke: #000000; stroke-width: 0.8"/>
      </g>
     </g>
     <g id="text_6">
      <!-- 25 -->
      <g transform="translate(315.855795 271.678281) scale(0.11 -0.11)">
       <use xlink:href="#DejaVuSans-32"/>
       <use xlink:href="#DejaVuSans-35" x="63.623047"/>
      </g>
     </g>
    </g>
    <g id="xtick_7">
     <g id="line2d_13">
      <path d="M 373.581818 256.32 
L 373.581818 34.56 
" clip-path="url(#p0f73a06245)" style="fill: none; stroke: #b0b0b0; stroke-width: 0.2; stroke-linecap: square"/>
     </g>
     <g id="line2d_14">
      <g>
       <use xlink:href="#m5f25a1b5d0" x="373.581818" y="256.32" style="stroke: #000000; stroke-width: 0.8"/>
      </g>
     </g>
     <g id="text_7">
      <!-- 30 -->
      <g transform="translate(366.583068 271.678281) scale(0.11 -0.11)">
       <defs>
        <path id="DejaVuSans-33" d="M 2597 2516 
Q 3050 2419 3304 2112 
Q 3559 1806 3559 1356 
Q 3559 666 3084 287 
Q 2609 -91 1734 -91 
Q 1441 -91 1130 -33 
Q 819 25 488 141 
L 488 750 
Q 750 597 1062 519 
Q 1375 441 1716 441 
Q 2309 441 2620 675 
Q 2931 909 2931 1356 
Q 2931 1769 2642 2001 
Q 2353 2234 1838 2234 
L 1294 2234 
L 1294 2753 
L 1863 2753 
Q 2328 2753 2575 2939 
Q 2822 3125 2822 3475 
Q 2822 3834 2567 4026 
Q 2313 4219 1838 4219 
Q 1578 4219 1281 4162 
Q 984 4106 628 3988 
L 628 4550 
Q 988 4650 1302 4700 
Q 1616 4750 1894 4750 
Q 2613 4750 3031 4423 
Q 3450 4097 3450 3541 
Q 3450 3153 3228 2886 
Q 3006 2619 2597 2516 
z
" transform="scale(0.015625)"/>
       </defs>
       <use xlink:href="#DejaVuSans-33"/>
       <use xlink:href="#DejaVuSans-30" x="63.623047"/>
      </g>
     </g>
    </g>
    <g id="text_8">
     <!-- Time (s) -->
     <g transform="translate(202.807422 285.604062) scale(0.11 -0.11)">
      <defs>
       <path id="TimesNewRomanPSMT-54" d="M 3703 4238 
L 3750 3244 
L 3631 3244 
Q 3597 3506 3538 3619 
Q 3441 3800 3280 3886 
Q 3119 3972 2856 3972 
L 2259 3972 
L 2259 734 
Q 2259 344 2344 247 
Q 2463 116 2709 116 
L 2856 116 
L 2856 0 
L 1059 0 
L 1059 116 
L 1209 116 
Q 1478 116 1591 278 
Q 1659 378 1659 734 
L 1659 3972 
L 1150 3972 
Q 853 3972 728 3928 
Q 566 3869 450 3700 
Q 334 3531 313 3244 
L 194 3244 
L 244 4238 
L 3703 4238 
z
" transform="scale(0.015625)"/>
       <path id="TimesNewRomanPSMT-69" d="M 928 4444 
Q 1059 4444 1151 4351 
Q 1244 4259 1244 4128 
Q 1244 3997 1151 3903 
Q 1059 3809 928 3809 
Q 797 3809 703 3903 
Q 609 3997 609 4128 
Q 609 4259 701 4351 
Q 794 4444 928 4444 
z
M 1188 2947 
L 1188 647 
Q 1188 378 1227 289 
Q 1266 200 1342 156 
Q 1419 113 1622 113 
L 1622 0 
L 231 0 
L 231 113 
Q 441 113 512 153 
Q 584 194 626 287 
Q 669 381 669 647 
L 669 1750 
Q 669 2216 641 2353 
Q 619 2453 572 2492 
Q 525 2531 444 2531 
Q 356 2531 231 2484 
L 188 2597 
L 1050 2947 
L 1188 2947 
z
" transform="scale(0.015625)"/>
       <path id="TimesNewRomanPSMT-6d" d="M 1050 2338 
Q 1363 2650 1419 2697 
Q 1559 2816 1721 2881 
Q 1884 2947 2044 2947 
Q 2313 2947 2506 2790 
Q 2700 2634 2766 2338 
Q 3088 2713 3309 2830 
Q 3531 2947 3766 2947 
Q 3994 2947 4170 2830 
Q 4347 2713 4450 2447 
Q 4519 2266 4519 1878 
L 4519 647 
Q 4519 378 4559 278 
Q 4591 209 4675 161 
Q 4759 113 4950 113 
L 4950 0 
L 3538 0 
L 3538 113 
L 3597 113 
Q 3781 113 3884 184 
Q 3956 234 3988 344 
Q 4000 397 4000 647 
L 4000 1878 
Q 4000 2228 3916 2372 
Q 3794 2572 3525 2572 
Q 3359 2572 3192 2489 
Q 3025 2406 2788 2181 
L 2781 2147 
L 2788 2013 
L 2788 647 
Q 2788 353 2820 281 
Q 2853 209 2943 161 
Q 3034 113 3253 113 
L 3253 0 
L 1806 0 
L 1806 113 
Q 2044 113 2133 169 
Q 2222 225 2256 338 
Q 2272 391 2272 647 
L 2272 1878 
Q 2272 2228 2169 2381 
Q 2031 2581 1784 2581 
Q 1616 2581 1450 2491 
Q 1191 2353 1050 2181 
L 1050 647 
Q 1050 366 1089 281 
Q 1128 197 1204 155 
Q 1281 113 1516 113 
L 1516 0 
L 100 0 
L 100 113 
Q 297 113 375 155 
Q 453 197 493 289 
Q 534 381 534 647 
L 534 1741 
Q 534 2213 506 2350 
Q 484 2453 437 2492 
Q 391 2531 309 2531 
Q 222 2531 100 2484 
L 53 2597 
L 916 2947 
L 1050 2947 
L 1050 2338 
z
" transform="scale(0.015625)"/>
       <path id="TimesNewRomanPSMT-65" d="M 681 1784 
Q 678 1147 991 784 
Q 1303 422 1725 422 
Q 2006 422 2214 576 
Q 2422 731 2563 1106 
L 2659 1044 
Q 2594 616 2278 264 
Q 1963 -88 1488 -88 
Q 972 -88 605 314 
Q 238 716 238 1394 
Q 238 2128 614 2539 
Q 991 2950 1559 2950 
Q 2041 2950 2350 2633 
Q 2659 2316 2659 1784 
L 681 1784 
z
M 681 1966 
L 2006 1966 
Q 1991 2241 1941 2353 
Q 1863 2528 1708 2628 
Q 1553 2728 1384 2728 
Q 1125 2728 920 2526 
Q 716 2325 681 1966 
z
" transform="scale(0.015625)"/>
       <path id="TimesNewRomanPSMT-20" transform="scale(0.015625)"/>
       <path id="TimesNewRomanPSMT-28" d="M 1988 -1253 
L 1988 -1369 
Q 1516 -1131 1200 -813 
Q 750 -359 506 256 
Q 263 872 263 1534 
Q 263 2503 741 3301 
Q 1219 4100 1988 4444 
L 1988 4313 
Q 1603 4100 1356 3731 
Q 1109 3363 987 2797 
Q 866 2231 866 1616 
Q 866 947 969 400 
Q 1050 -31 1165 -292 
Q 1281 -553 1476 -793 
Q 1672 -1034 1988 -1253 
z
" transform="scale(0.015625)"/>
       <path id="TimesNewRomanPSMT-73" d="M 2050 2947 
L 2050 1972 
L 1947 1972 
Q 1828 2431 1642 2597 
Q 1456 2763 1169 2763 
Q 950 2763 815 2647 
Q 681 2531 681 2391 
Q 681 2216 781 2091 
Q 878 1963 1175 1819 
L 1631 1597 
Q 2266 1288 2266 781 
Q 2266 391 1970 151 
Q 1675 -88 1309 -88 
Q 1047 -88 709 6 
Q 606 38 541 38 
Q 469 38 428 -44 
L 325 -44 
L 325 978 
L 428 978 
Q 516 541 762 319 
Q 1009 97 1316 97 
Q 1531 97 1667 223 
Q 1803 350 1803 528 
Q 1803 744 1651 891 
Q 1500 1038 1047 1263 
Q 594 1488 453 1669 
Q 313 1847 313 2119 
Q 313 2472 555 2709 
Q 797 2947 1181 2947 
Q 1350 2947 1591 2875 
Q 1750 2828 1803 2828 
Q 1853 2828 1881 2850 
Q 1909 2872 1947 2947 
L 2050 2947 
z
" transform="scale(0.015625)"/>
       <path id="TimesNewRomanPSMT-29" d="M 144 4313 
L 144 4444 
Q 619 4209 934 3891 
Q 1381 3434 1625 2820 
Q 1869 2206 1869 1541 
Q 1869 572 1392 -226 
Q 916 -1025 144 -1369 
L 144 -1253 
Q 528 -1038 776 -670 
Q 1025 -303 1145 264 
Q 1266 831 1266 1447 
Q 1266 2113 1163 2663 
Q 1084 3094 967 3353 
Q 850 3613 656 3853 
Q 463 4094 144 4313 
z
" transform="scale(0.015625)"/>
      </defs>
      <use xlink:href="#TimesNewRomanPSMT-54"/>
      <use xlink:href="#TimesNewRomanPSMT-69" x="57.583984"/>
      <use xlink:href="#TimesNewRomanPSMT-6d" x="85.367188"/>
      <use xlink:href="#TimesNewRomanPSMT-65" x="163.150391"/>
      <use xlink:href="#TimesNewRomanPSMT-20" x="207.535156"/>
      <use xlink:href="#TimesNewRomanPSMT-28" x="232.535156"/>
      <use xlink:href="#TimesNewRomanPSMT-73" x="265.835938"/>
      <use xlink:href="#TimesNewRomanPSMT-29" x="304.751953"/>
     </g>
    </g>
   </g>
   <g id="matplotlib.axis_2">
    <g id="ytick_1">
     <g id="line2d_15">
      <path d="M 54 217.833659 
L 388.8 217.833659 
" clip-path="url(#p0f73a06245)" style="fill: none; stroke: #b0b0b0; stroke-width: 0.2; stroke-linecap: square"/>
     </g>
     <g id="line2d_16">
      <defs>
       <path id="m00fc4c20c2" d="M 0 0 
L -3.5 0 
" style="stroke: #000000; stroke-width: 0.8"/>
      </defs>
      <g>
       <use xlink:href="#m00fc4c20c2" x="54" y="217.833659" style="stroke: #000000; stroke-width: 0.8"/>
      </g>
     </g>
     <g id="text_9">
      <!-- −2 -->
      <g transform="translate(30.783594 222.0128) scale(0.11 -0.11)">
       <defs>
        <path id="DejaVuSans-2212" d="M 678 2272 
L 4684 2272 
L 4684 1741 
L 678 1741 
L 678 2272 
z
" transform="scale(0.015625)"/>
       </defs>
       <use xlink:href="#DejaVuSans-2212"/>
       <use xlink:href="#DejaVuSans-32" x="83.789062"/>
      </g>
     </g>
    </g>
    <g id="ytick_2">
     <g id="line2d_17">
      <path d="M 54 176.988375 
L 388.8 176.988375 
" clip-path="url(#p0f73a06245)" style="fill: none; stroke: #b0b0b0; stroke-width: 0.2; stroke-linecap: square"/>
     </g>
     <g id="line2d_18">
      <g>
       <use xlink:href="#m00fc4c20c2" x="54" y="176.988375" style="stroke: #000000; stroke-width: 0.8"/>
      </g>
     </g>
     <g id="text_10">
      <!-- −1 -->
      <g transform="translate(30.783594 181.167516) scale(0.11 -0.11)">
       <use xlink:href="#DejaVuSans-2212"/>
       <use xlink:href="#DejaVuSans-31" x="83.789062"/>
      </g>
     </g>
    </g>
    <g id="ytick_3">
     <g id="line2d_19">
      <path d="M 54 136.143091 
L 388.8 136.143091 
" clip-path="url(#p0f73a06245)" style="fill: none; stroke: #b0b0b0; stroke-width: 0.2; stroke-linecap: square"/>
     </g>
     <g id="line2d_20">
      <g>
       <use xlink:href="#m00fc4c20c2" x="54" y="136.143091" style="stroke: #000000; stroke-width: 0.8"/>
      </g>
     </g>
     <g id="text_11">
      <!-- 0 -->
      <g transform="translate(40.00125 140.322232) scale(0.11 -0.11)">
       <use xlink:href="#DejaVuSans-30"/>
      </g>
     </g>
    </g>
    <g id="ytick_4">
     <g id="line2d_21">
      <path d="M 54 95.297808 
L 388.8 95.297808 
" clip-path="url(#p0f73a06245)" style="fill: none; stroke: #b0b0b0; stroke-width: 0.2; stroke-linecap: square"/>
     </g>
     <g id="line2d_22">
      <g>
       <use xlink:href="#m00fc4c20c2" x="54" y="95.297808" style="stroke: #000000; stroke-width: 0.8"/>
      </g>
     </g>
     <g id="text_12">
      <!-- 1 -->
      <g transform="translate(40.00125 99.476948) scale(0.11 -0.11)">
       <use xlink:href="#DejaVuSans-31"/>
      </g>
     </g>
    </g>
    <g id="ytick_5">
     <g id="line2d_23">
      <path d="M 54 54.452524 
L 388.8 54.452524 
" clip-path="url(#p0f73a06245)" style="fill: none; stroke: #b0b0b0; stroke-width: 0.2; stroke-linecap: square"/>
     </g>
     <g id="line2d_24">
      <g>
       <use xlink:href="#m00fc4c20c2" x="54" y="54.452524" style="stroke: #000000; stroke-width: 0.8"/>
      </g>
     </g>
     <g id="text_13">
      <!-- 2 -->
      <g transform="translate(40.00125 58.631664) scale(0.11 -0.11)">
       <use xlink:href="#DejaVuSans-32"/>
      </g>
     </g>
    </g>
    <g id="text_14">
     <!-- Angular position of the motor - $\theta_{m}$ (rad) -->
     <g transform="translate(24.363594 235.035) rotate(-90) scale(0.11 -0.11)">
      <defs>
       <path id="TimesNewRomanPSMT-41" d="M 2928 1419 
L 1288 1419 
L 1000 750 
Q 894 503 894 381 
Q 894 284 986 211 
Q 1078 138 1384 116 
L 1384 0 
L 50 0 
L 50 116 
Q 316 163 394 238 
Q 553 388 747 847 
L 2238 4334 
L 2347 4334 
L 3822 809 
Q 4000 384 4145 257 
Q 4291 131 4550 116 
L 4550 0 
L 2878 0 
L 2878 116 
Q 3131 128 3220 200 
Q 3309 272 3309 375 
Q 3309 513 3184 809 
L 2928 1419 
z
M 2841 1650 
L 2122 3363 
L 1384 1650 
L 2841 1650 
z
" transform="scale(0.015625)"/>
       <path id="TimesNewRomanPSMT-6e" d="M 1034 2341 
Q 1538 2947 1994 2947 
Q 2228 2947 2397 2830 
Q 2566 2713 2666 2444 
Q 2734 2256 2734 1869 
L 2734 647 
Q 2734 375 2778 278 
Q 2813 200 2889 156 
Q 2966 113 3172 113 
L 3172 0 
L 1756 0 
L 1756 113 
L 1816 113 
Q 2016 113 2095 173 
Q 2175 234 2206 353 
Q 2219 400 2219 647 
L 2219 1819 
Q 2219 2209 2117 2386 
Q 2016 2563 1775 2563 
Q 1403 2563 1034 2156 
L 1034 647 
Q 1034 356 1069 288 
Q 1113 197 1189 155 
Q 1266 113 1500 113 
L 1500 0 
L 84 0 
L 84 113 
L 147 113 
Q 366 113 442 223 
Q 519 334 519 647 
L 519 1709 
Q 519 2225 495 2337 
Q 472 2450 423 2490 
Q 375 2531 294 2531 
Q 206 2531 84 2484 
L 38 2597 
L 900 2947 
L 1034 2947 
L 1034 2341 
z
" transform="scale(0.015625)"/>
       <path id="TimesNewRomanPSMT-67" d="M 966 1044 
Q 703 1172 562 1401 
Q 422 1631 422 1909 
Q 422 2334 742 2640 
Q 1063 2947 1563 2947 
Q 1972 2947 2272 2747 
L 2878 2747 
Q 3013 2747 3034 2739 
Q 3056 2731 3066 2713 
Q 3084 2684 3084 2613 
Q 3084 2531 3069 2500 
Q 3059 2484 3036 2475 
Q 3013 2466 2878 2466 
L 2506 2466 
Q 2681 2241 2681 1891 
Q 2681 1491 2375 1206 
Q 2069 922 1553 922 
Q 1341 922 1119 984 
Q 981 866 932 777 
Q 884 688 884 625 
Q 884 572 936 522 
Q 988 472 1138 450 
Q 1225 438 1575 428 
Q 2219 413 2409 384 
Q 2700 344 2873 169 
Q 3047 -6 3047 -263 
Q 3047 -616 2716 -925 
Q 2228 -1381 1444 -1381 
Q 841 -1381 425 -1109 
Q 191 -953 191 -784 
Q 191 -709 225 -634 
Q 278 -519 444 -313 
Q 466 -284 763 25 
Q 600 122 533 198 
Q 466 275 466 372 
Q 466 481 555 628 
Q 644 775 966 1044 
z
M 1509 2797 
Q 1278 2797 1122 2612 
Q 966 2428 966 2047 
Q 966 1553 1178 1281 
Q 1341 1075 1591 1075 
Q 1828 1075 1981 1253 
Q 2134 1431 2134 1813 
Q 2134 2309 1919 2591 
Q 1759 2797 1509 2797 
z
M 934 0 
Q 788 -159 713 -296 
Q 638 -434 638 -550 
Q 638 -700 819 -813 
Q 1131 -1006 1722 -1006 
Q 2284 -1006 2551 -807 
Q 2819 -609 2819 -384 
Q 2819 -222 2659 -153 
Q 2497 -84 2016 -72 
Q 1313 -53 934 0 
z
" transform="scale(0.015625)"/>
       <path id="TimesNewRomanPSMT-75" d="M 2709 2863 
L 2709 1128 
Q 2709 631 2732 520 
Q 2756 409 2807 365 
Q 2859 322 2928 322 
Q 3025 322 3147 375 
L 3191 266 
L 2334 -88 
L 2194 -88 
L 2194 519 
Q 1825 119 1631 15 
Q 1438 -88 1222 -88 
Q 981 -88 804 51 
Q 628 191 559 409 
Q 491 628 491 1028 
L 491 2306 
Q 491 2509 447 2587 
Q 403 2666 317 2708 
Q 231 2750 6 2747 
L 6 2863 
L 1009 2863 
L 1009 947 
Q 1009 547 1148 422 
Q 1288 297 1484 297 
Q 1619 297 1789 381 
Q 1959 466 2194 703 
L 2194 2325 
Q 2194 2569 2105 2655 
Q 2016 2741 1734 2747 
L 1734 2863 
L 2709 2863 
z
" transform="scale(0.015625)"/>
       <path id="TimesNewRomanPSMT-6c" d="M 1184 4444 
L 1184 647 
Q 1184 378 1223 290 
Q 1263 203 1344 158 
Q 1425 113 1647 113 
L 1647 0 
L 244 0 
L 244 113 
Q 441 113 512 153 
Q 584 194 625 287 
Q 666 381 666 647 
L 666 3247 
Q 666 3731 644 3842 
Q 622 3953 573 3993 
Q 525 4034 450 4034 
Q 369 4034 244 3984 
L 191 4094 
L 1044 4444 
L 1184 4444 
z
" transform="scale(0.015625)"/>
       <path id="TimesNewRomanPSMT-61" d="M 1822 413 
Q 1381 72 1269 19 
Q 1100 -59 909 -59 
Q 613 -59 420 144 
Q 228 347 228 678 
Q 228 888 322 1041 
Q 450 1253 767 1440 
Q 1084 1628 1822 1897 
L 1822 2009 
Q 1822 2438 1686 2597 
Q 1550 2756 1291 2756 
Q 1094 2756 978 2650 
Q 859 2544 859 2406 
L 866 2225 
Q 866 2081 792 2003 
Q 719 1925 600 1925 
Q 484 1925 411 2006 
Q 338 2088 338 2228 
Q 338 2497 613 2722 
Q 888 2947 1384 2947 
Q 1766 2947 2009 2819 
Q 2194 2722 2281 2516 
Q 2338 2381 2338 1966 
L 2338 994 
Q 2338 584 2353 492 
Q 2369 400 2405 369 
Q 2441 338 2488 338 
Q 2538 338 2575 359 
Q 2641 400 2828 588 
L 2828 413 
Q 2478 -56 2159 -56 
Q 2006 -56 1915 50 
Q 1825 156 1822 413 
z
M 1822 616 
L 1822 1706 
Q 1350 1519 1213 1441 
Q 966 1303 859 1153 
Q 753 1003 753 825 
Q 753 600 887 451 
Q 1022 303 1197 303 
Q 1434 303 1822 616 
z
" transform="scale(0.015625)"/>
       <path id="TimesNewRomanPSMT-72" d="M 1038 2947 
L 1038 2303 
Q 1397 2947 1775 2947 
Q 1947 2947 2059 2842 
Q 2172 2738 2172 2600 
Q 2172 2478 2090 2393 
Q 2009 2309 1897 2309 
Q 1788 2309 1652 2417 
Q 1516 2525 1450 2525 
Q 1394 2525 1328 2463 
Q 1188 2334 1038 2041 
L 1038 669 
Q 1038 431 1097 309 
Q 1138 225 1241 169 
Q 1344 113 1538 113 
L 1538 0 
L 72 0 
L 72 113 
Q 291 113 397 181 
Q 475 231 506 341 
Q 522 394 522 644 
L 522 1753 
Q 522 2253 501 2348 
Q 481 2444 426 2487 
Q 372 2531 291 2531 
Q 194 2531 72 2484 
L 41 2597 
L 906 2947 
L 1038 2947 
z
" transform="scale(0.015625)"/>
       <path id="TimesNewRomanPSMT-70" d="M -6 2578 
L 875 2934 
L 994 2934 
L 994 2266 
Q 1216 2644 1439 2795 
Q 1663 2947 1909 2947 
Q 2341 2947 2628 2609 
Q 2981 2197 2981 1534 
Q 2981 794 2556 309 
Q 2206 -88 1675 -88 
Q 1444 -88 1275 -22 
Q 1150 25 994 166 
L 994 -706 
Q 994 -1000 1030 -1079 
Q 1066 -1159 1155 -1206 
Q 1244 -1253 1478 -1253 
L 1478 -1369 
L -22 -1369 
L -22 -1253 
L 56 -1253 
Q 228 -1256 350 -1188 
Q 409 -1153 442 -1076 
Q 475 -1000 475 -688 
L 475 2019 
Q 475 2297 450 2372 
Q 425 2447 370 2484 
Q 316 2522 222 2522 
Q 147 2522 31 2478 
L -6 2578 
z
M 994 2081 
L 994 1013 
Q 994 666 1022 556 
Q 1066 375 1236 237 
Q 1406 100 1666 100 
Q 1978 100 2172 344 
Q 2425 663 2425 1241 
Q 2425 1897 2138 2250 
Q 1938 2494 1663 2494 
Q 1513 2494 1366 2419 
Q 1253 2363 994 2081 
z
" transform="scale(0.015625)"/>
       <path id="TimesNewRomanPSMT-6f" d="M 1600 2947 
Q 2250 2947 2644 2453 
Q 2978 2031 2978 1484 
Q 2978 1100 2793 706 
Q 2609 313 2286 112 
Q 1963 -88 1566 -88 
Q 919 -88 538 428 
Q 216 863 216 1403 
Q 216 1797 411 2186 
Q 606 2575 925 2761 
Q 1244 2947 1600 2947 
z
M 1503 2744 
Q 1338 2744 1170 2645 
Q 1003 2547 900 2300 
Q 797 2053 797 1666 
Q 797 1041 1045 587 
Q 1294 134 1700 134 
Q 2003 134 2200 384 
Q 2397 634 2397 1244 
Q 2397 2006 2069 2444 
Q 1847 2744 1503 2744 
z
" transform="scale(0.015625)"/>
       <path id="TimesNewRomanPSMT-74" d="M 1031 3803 
L 1031 2863 
L 1700 2863 
L 1700 2644 
L 1031 2644 
L 1031 788 
Q 1031 509 1111 412 
Q 1191 316 1316 316 
Q 1419 316 1516 380 
Q 1613 444 1666 569 
L 1788 569 
Q 1678 263 1478 108 
Q 1278 -47 1066 -47 
Q 922 -47 784 33 
Q 647 113 581 261 
Q 516 409 516 719 
L 516 2644 
L 63 2644 
L 63 2747 
Q 234 2816 414 2980 
Q 594 3144 734 3369 
Q 806 3488 934 3803 
L 1031 3803 
z
" transform="scale(0.015625)"/>
       <path id="TimesNewRomanPSMT-66" d="M 1319 2638 
L 1319 756 
Q 1319 356 1406 250 
Q 1522 113 1716 113 
L 1975 113 
L 1975 0 
L 266 0 
L 266 113 
L 394 113 
Q 519 113 622 175 
Q 725 238 764 344 
Q 803 450 803 756 
L 803 2638 
L 247 2638 
L 247 2863 
L 803 2863 
L 803 3050 
Q 803 3478 940 3775 
Q 1078 4072 1361 4255 
Q 1644 4438 1997 4438 
Q 2325 4438 2600 4225 
Q 2781 4084 2781 3909 
Q 2781 3816 2700 3733 
Q 2619 3650 2525 3650 
Q 2453 3650 2373 3701 
Q 2294 3753 2178 3923 
Q 2063 4094 1966 4153 
Q 1869 4213 1750 4213 
Q 1606 4213 1506 4136 
Q 1406 4059 1362 3898 
Q 1319 3738 1319 3069 
L 1319 2863 
L 2056 2863 
L 2056 2638 
L 1319 2638 
z
" transform="scale(0.015625)"/>
       <path id="TimesNewRomanPSMT-68" d="M 1041 4444 
L 1041 2350 
Q 1388 2731 1591 2839 
Q 1794 2947 1997 2947 
Q 2241 2947 2416 2812 
Q 2591 2678 2675 2391 
Q 2734 2191 2734 1659 
L 2734 647 
Q 2734 375 2778 275 
Q 2809 200 2884 156 
Q 2959 113 3159 113 
L 3159 0 
L 1753 0 
L 1753 113 
L 1819 113 
Q 2019 113 2097 173 
Q 2175 234 2206 353 
Q 2216 403 2216 647 
L 2216 1659 
Q 2216 2128 2167 2275 
Q 2119 2422 2012 2495 
Q 1906 2569 1756 2569 
Q 1603 2569 1437 2487 
Q 1272 2406 1041 2159 
L 1041 647 
Q 1041 353 1073 281 
Q 1106 209 1195 161 
Q 1284 113 1503 113 
L 1503 0 
L 84 0 
L 84 113 
Q 275 113 384 172 
Q 447 203 484 290 
Q 522 378 522 647 
L 522 3238 
Q 522 3728 498 3840 
Q 475 3953 426 3993 
Q 378 4034 297 4034 
Q 231 4034 84 3984 
L 41 4094 
L 897 4444 
L 1041 4444 
z
" transform="scale(0.015625)"/>
       <path id="TimesNewRomanPSMT-2d" d="M 259 1672 
L 1875 1672 
L 1875 1200 
L 259 1200 
L 259 1672 
z
" transform="scale(0.015625)"/>
       <path id="DejaVuSans-Oblique-3b8" d="M 2913 2219 
L 925 2219 
Q 791 1284 928 888 
Q 1100 400 1566 400 
Q 2034 400 2391 891 
Q 2703 1322 2913 2219 
z
M 3009 2750 
Q 3094 3638 2984 3950 
Q 2813 4444 2353 4444 
Q 1875 4444 1525 3956 
Q 1250 3563 1034 2750 
L 3009 2750 
z
M 2444 4913 
Q 3194 4913 3494 4250 
Q 3794 3591 3566 2422 
Q 3341 1256 2781 594 
Q 2225 -72 1475 -72 
Q 722 -72 425 594 
Q 128 1256 353 2422 
Q 581 3591 1134 4250 
Q 1691 4913 2444 4913 
z
" transform="scale(0.015625)"/>
       <path id="DejaVuSans-Oblique-6d" d="M 5747 2113 
L 5338 0 
L 4763 0 
L 5166 2094 
Q 5191 2228 5203 2325 
Q 5216 2422 5216 2491 
Q 5216 2772 5059 2928 
Q 4903 3084 4622 3084 
Q 4203 3084 3875 2770 
Q 3547 2456 3450 1953 
L 3066 0 
L 2491 0 
L 2900 2094 
Q 2925 2209 2937 2307 
Q 2950 2406 2950 2484 
Q 2950 2769 2794 2926 
Q 2638 3084 2363 3084 
Q 1938 3084 1609 2770 
Q 1281 2456 1184 1953 
L 800 0 
L 225 0 
L 909 3500 
L 1484 3500 
L 1375 2956 
Q 1609 3263 1923 3423 
Q 2238 3584 2597 3584 
Q 2978 3584 3223 3384 
Q 3469 3184 3519 2828 
Q 3781 3197 4126 3390 
Q 4472 3584 4856 3584 
Q 5306 3584 5551 3325 
Q 5797 3066 5797 2591 
Q 5797 2488 5784 2364 
Q 5772 2241 5747 2113 
z
" transform="scale(0.015625)"/>
       <path id="TimesNewRomanPSMT-64" d="M 2222 322 
Q 2013 103 1813 7 
Q 1613 -88 1381 -88 
Q 913 -88 563 304 
Q 213 697 213 1313 
Q 213 1928 600 2439 
Q 988 2950 1597 2950 
Q 1975 2950 2222 2709 
L 2222 3238 
Q 2222 3728 2198 3840 
Q 2175 3953 2125 3993 
Q 2075 4034 2000 4034 
Q 1919 4034 1784 3984 
L 1744 4094 
L 2597 4444 
L 2738 4444 
L 2738 1134 
Q 2738 631 2761 520 
Q 2784 409 2836 365 
Q 2888 322 2956 322 
Q 3041 322 3181 375 
L 3216 266 
L 2366 -88 
L 2222 -88 
L 2222 322 
z
M 2222 541 
L 2222 2016 
Q 2203 2228 2109 2403 
Q 2016 2578 1861 2667 
Q 1706 2756 1559 2756 
Q 1284 2756 1069 2509 
Q 784 2184 784 1559 
Q 784 928 1059 592 
Q 1334 256 1672 256 
Q 1956 256 2222 541 
z
" transform="scale(0.015625)"/>
      </defs>
      <use xlink:href="#TimesNewRomanPSMT-41" transform="translate(0 0.234375)"/>
      <use xlink:href="#TimesNewRomanPSMT-6e" transform="translate(72.216797 0.234375)"/>
      <use xlink:href="#TimesNewRomanPSMT-67" transform="translate(122.216797 0.234375)"/>
      <use xlink:href="#TimesNewRomanPSMT-75" transform="translate(172.216797 0.234375)"/>
      <use xlink:href="#TimesNewRomanPSMT-6c" transform="translate(222.216797 0.234375)"/>
      <use xlink:href="#TimesNewRomanPSMT-61" transform="translate(250 0.234375)"/>
      <use xlink:href="#TimesNewRomanPSMT-72" transform="translate(294.384766 0.234375)"/>
      <use xlink:href="#TimesNewRomanPSMT-20" transform="translate(327.685547 0.234375)"/>
      <use xlink:href="#TimesNewRomanPSMT-70" transform="translate(352.685547 0.234375)"/>
      <use xlink:href="#TimesNewRomanPSMT-6f" transform="translate(402.685547 0.234375)"/>
      <use xlink:href="#TimesNewRomanPSMT-73" transform="translate(452.685547 0.234375)"/>
      <use xlink:href="#TimesNewRomanPSMT-69" transform="translate(491.601562 0.234375)"/>
      <use xlink:href="#TimesNewRomanPSMT-74" transform="translate(519.384766 0.234375)"/>
      <use xlink:href="#TimesNewRomanPSMT-69" transform="translate(547.167969 0.234375)"/>
      <use xlink:href="#TimesNewRomanPSMT-6f" transform="translate(574.951172 0.234375)"/>
      <use xlink:href="#TimesNewRomanPSMT-6e" transform="translate(624.951172 0.234375)"/>
      <use xlink:href="#TimesNewRomanPSMT-20" transform="translate(674.951172 0.234375)"/>
      <use xlink:href="#TimesNewRomanPSMT-6f" transform="translate(699.951172 0.234375)"/>
      <use xlink:href="#TimesNewRomanPSMT-66" transform="translate(749.951172 0.234375)"/>
      <use xlink:href="#TimesNewRomanPSMT-20" transform="translate(783.251953 0.234375)"/>
      <use xlink:href="#TimesNewRomanPSMT-74" transform="translate(808.251953 0.234375)"/>
      <use xlink:href="#TimesNewRomanPSMT-68" transform="translate(836.035156 0.234375)"/>
      <use xlink:href="#TimesNewRomanPSMT-65" transform="translate(886.035156 0.234375)"/>
      <use xlink:href="#TimesNewRomanPSMT-20" transform="translate(930.419922 0.234375)"/>
      <use xlink:href="#TimesNewRomanPSMT-6d" transform="translate(955.419922 0.234375)"/>
      <use xlink:href="#TimesNewRomanPSMT-6f" transform="translate(1033.203125 0.234375)"/>
      <use xlink:href="#TimesNewRomanPSMT-74" transform="translate(1083.203125 0.234375)"/>
      <use xlink:href="#TimesNewRomanPSMT-6f" transform="translate(1110.986328 0.234375)"/>
      <use xlink:href="#TimesNewRomanPSMT-72" transform="translate(1160.986328 0.234375)"/>
      <use xlink:href="#TimesNewRomanPSMT-20" transform="translate(1194.287109 0.234375)"/>
      <use xlink:href="#TimesNewRomanPSMT-2d" transform="translate(1219.287109 0.234375)"/>
      <use xlink:href="#TimesNewRomanPSMT-20" transform="translate(1252.587891 0.234375)"/>
      <use xlink:href="#DejaVuSans-Oblique-3b8" transform="translate(1277.587891 0.234375)"/>
      <use xlink:href="#DejaVuSans-Oblique-6d" transform="translate(1338.769531 -16.171875) scale(0.7)"/>
      <use xlink:href="#TimesNewRomanPSMT-20" transform="translate(1409.692383 0.234375)"/>
      <use xlink:href="#TimesNewRomanPSMT-28" transform="translate(1434.692383 0.234375)"/>
      <use xlink:href="#TimesNewRomanPSMT-72" transform="translate(1467.993164 0.234375)"/>
      <use xlink:href="#TimesNewRomanPSMT-61" transform="translate(1501.293945 0.234375)"/>
      <use xlink:href="#TimesNewRomanPSMT-64" transform="translate(1545.678711 0.234375)"/>
      <use xlink:href="#TimesNewRomanPSMT-29" transform="translate(1595.678711 0.234375)"/>
     </g>
    </g>
   </g>
   <g id="line2d_25">
    <path d="M 69.218182 136.143091 
L 69.248618 143.881398 
L 69.319636 141.303693 
L 69.431236 134.57009 
L 69.471818 134.522601 
L 69.532691 134.941429 
L 69.593564 134.899219 
L 69.674727 134.562667 
L 69.684873 135.586073 
L 69.786327 135.55399 
L 69.826909 135.352295 
L 69.928364 133.736163 
L 69.938509 135.821398 
L 70.039964 135.629214 
L 70.131273 135.053131 
L 70.242873 136.646938 
L 70.253018 136.508598 
L 70.283455 136.082702 
L 70.2936 137.32391 
L 70.334182 136.712703 
L 70.344327 137.310444 
L 70.425491 135.666576 
L 70.912473 125.202843 
L 71.145818 116.594929 
L 71.308145 108.482709 
L 71.856 90.215718 
L 71.998036 84.359839 
L 72.819818 60.49025 
L 72.018327 84.866076 
L 72.850255 61.591916 
L 73.225636 52.552791 
L 73.347382 49.450657 
L 73.783636 44.647822 
L 73.834364 44.883891 
L 73.844509 44.948796 
L 73.895236 44.64 
L 73.905382 44.642995 
L 73.935818 44.665796 
L 73.986545 45.257616 
L 74.047418 44.928387 
L 74.088 45.076559 
L 74.230036 49.409761 
L 74.240182 49.478236 
L 74.290909 50.756735 
L 74.351782 49.630472 
L 74.544545 50.908334 
L 74.605418 49.888556 
L 74.666291 50.062989 
L 74.696727 50.542301 
L 74.706873 48.666862 
L 74.798182 51.027616 
L 74.950364 58.585413 
L 75.011236 57.246532 
L 75.001091 58.974099 
L 75.051818 58.138781 
L 75.153273 61.940804 
L 75.183709 61.727317 
L 75.214145 61.380328 
L 75.833018 80.292493 
L 78.298364 167.0256 
L 78.480982 179.175366 
L 78.653455 188.138076 
L 78.785345 197.20686 
L 78.907091 203.880041 
L 79.069418 213.140908 
L 79.312909 221.543711 
L 79.454945 228.094445 
L 79.566545 232.06963 
L 79.698436 238.356676 
L 79.718727 238.617936 
L 79.820182 241.194159 
L 79.830327 240.216112 
L 79.870909 240.567726 
L 80.0028 244.256654 
L 80.023091 244.343259 
L 80.033236 243.227734 
L 80.124545 244.419193 
L 80.236145 246.224375 
L 80.246291 246.198364 
L 80.327455 245.794202 
L 80.3376 246.24 
L 80.378182 246.007998 
L 80.540509 242.07875 
L 80.905745 237.110869 
L 81.037636 232.44133 
L 81.169527 228.245884 
L 81.250691 223.416002 
L 81.392727 218.253019 
L 81.514473 210.761316 
L 81.950727 194.869034 
L 82.113055 186.251722 
L 82.863818 155.342585 
L 82.965273 148.285844 
L 82.995709 148.882218 
L 83.320364 132.317972 
L 83.472545 125.015707 
L 83.482691 125.815733 
L 83.553709 123.435819 
L 84.842182 74.204547 
L 84.852327 74.70019 
L 84.892909 73.686951 
L 84.933491 73.843806 
L 85.298727 65.546175 
L 85.349455 66.285478 
L 85.3596 66.943485 
L 85.440764 65.681853 
L 85.461055 66.216195 
L 85.552364 65.447242 
L 85.562509 66.387279 
L 85.653818 65.403765 
L 85.704545 64.586023 
L 85.765418 65.182148 
L 85.806 65.24601 
L 85.927745 67.504078 
L 85.958182 67.68992 
L 86.008909 68.703987 
L 86.019055 65.445994 
L 86.039345 65.619163 
L 86.211818 67.399713 
L 86.221964 66.150302 
L 86.313273 68.120679 
L 86.323418 68.089237 
L 86.333564 68.264408 
L 86.617636 74.730791 
L 86.790109 80.126079 
L 87.317673 97.922864 
L 87.885818 121.865763 
L 88.058291 132.80535 
L 89.001818 172.290972 
L 89.011964 170.958582 
L 89.093127 174.20389 
L 89.407636 184.746778 
L 89.417782 183.312106 
L 89.509091 185.225316 
L 89.519236 184.300281 
L 89.661273 186.947789 
L 89.671418 185.424114 
L 89.762727 187.67126 
L 89.864182 189.109614 
L 89.874327 187.094235 
L 89.965636 189.382481 
L 89.975782 188.634036 
L 90.27 193.254516 
L 90.280145 192.522494 
L 90.361309 193.865917 
L 90.371455 193.961546 
L 90.3816 193.453802 
L 90.422182 193.802614 
L 90.483055 191.139183 
L 90.543927 191.31987 
L 90.574364 191.454141 
L 90.706255 194.270477 
L 90.726545 194.272072 
L 90.777273 193.423641 
L 90.787418 195.366668 
L 90.817855 195.306066 
L 90.828 195.277889 
L 90.878727 194.558448 
L 90.888873 195.632299 
L 90.929455 195.42938 
L 90.990327 196.720809 
L 91.0512 196.092407 
L 91.081636 195.800462 
L 91.091782 196.363904 
L 91.132364 195.923202 
L 91.193236 197.072973 
L 91.183091 195.782321 
L 91.254109 196.635279 
L 91.284545 196.165336 
L 91.294691 196.960301 
L 91.335273 196.284418 
L 91.446873 198.694086 
L 91.588909 193.706308 
L 91.822255 185.408057 
L 92.857091 154.531991 
L 93.019418 146.041958 
L 94.480364 85.892821 
L 94.490509 86.480662 
L 94.561527 84.89662 
L 94.591964 85.350421 
L 95.119527 69.340198 
L 95.545636 62.646821 
L 95.555782 63.050351 
L 95.647091 62.308666 
L 95.778982 59.498432 
L 95.789127 59.501852 
L 95.799273 59.508903 
L 96.052909 63.753772 
L 96.063055 63.016759 
L 96.144218 64.878184 
L 96.357273 67.240914 
L 96.367418 65.7863 
L 96.458727 67.563714 
L 96.468873 66.390682 
L 96.712364 73.496763 
L 96.864545 79.004122 
L 96.874691 78.452757 
L 96.925418 80.959392 
L 97.392109 98.303906 
L 98.508109 144.096861 
L 99.451636 183.435242 
L 99.461782 181.818444 
L 99.542945 185.955268 
L 99.857455 195.014428 
L 99.8676 193.70609 
L 99.938618 197.369525 
L 100.456036 208.721152 
L 100.466182 208.841688 
L 100.476327 206.995232 
L 100.577782 207.532422 
L 100.618364 207.845813 
L 100.719818 211.200217 
L 100.740109 210.317667 
L 100.841564 210.939462 
L 100.872 210.916378 
L 101.003891 208.258653 
L 101.024182 208.146464 
L 101.074909 206.545454 
L 101.135782 207.294512 
L 101.328545 206.130299 
L 101.389418 206.830623 
L 101.379273 206.122504 
L 101.440145 206.197822 
L 101.856109 197.2698 
L 102.546 175.644597 
L 102.718473 168.565821 
L 103.662 127.732677 
L 103.804036 121.446667 
L 103.824327 122.41821 
L 104.615673 90.669922 
L 105.183818 70.802055 
L 105.234545 71.437074 
L 105.244691 71.822818 
L 105.305564 70.419117 
L 105.691091 64.583035 
L 105.701236 65.292354 
L 105.792545 64.661829 
L 105.894 62.587233 
L 105.914291 62.611208 
L 105.944727 62.569228 
L 106.0056 61.039143 
L 106.076618 61.114939 
L 106.147636 61.784739 
L 106.279527 64.454966 
L 106.604182 67.204334 
L 106.614327 66.594131 
L 106.695491 68.371973 
L 106.715782 68.039213 
L 106.908545 74.43265 
L 107.050582 81.651296 
L 107.365091 88.06599 
L 107.375236 87.61186 
L 107.425964 89.507884 
L 107.7912 106.297518 
L 108.491236 139.138633 
L 108.785455 148.196294 
L 108.7956 147.387699 
L 108.846327 150.999096 
L 109.698545 187.224139 
L 109.728982 186.831596 
L 110.053636 195.577849 
L 110.063782 194.750361 
L 110.155091 196.181485 
L 110.165236 195.726928 
L 110.236255 197.203283 
L 110.611636 205.634322 
L 110.662364 204.72512 
L 110.672509 204.398243 
L 110.733382 205.954636 
L 110.763818 206.184115 
L 110.773964 205.623322 
L 110.814545 205.872304 
L 110.936291 208.278177 
L 110.966727 208.303141 
L 111.068182 206.486369 
L 111.088473 207.567137 
L 111.118909 207.444569 
L 111.129055 208.632334 
L 111.220364 207.327424 
L 111.230509 208.094539 
L 111.372545 206.287933 
L 111.423273 203.841841 
L 111.484145 205.235519 
L 111.626182 202.798466 
L 111.758073 198.568723 
L 111.839236 198.729033 
L 112.336364 183.878277 
L 112.488545 177.953815 
L 112.498691 178.569815 
L 112.549418 175.447991 
L 114.010364 120.010062 
L 114.192982 110.450178 
L 114.619091 95.743585 
L 114.629236 96.316779 
L 114.700255 94.14771 
L 115.461164 68.710417 
L 115.684364 64.524339 
L 115.735091 64.884951 
L 115.745236 65.673073 
L 115.836545 64.685154 
L 116.039455 61.732541 
L 116.090182 62.381742 
L 116.191636 63.135272 
L 116.211927 62.962057 
L 116.242364 63.059834 
L 116.303236 61.710516 
L 116.353964 62.362483 
L 116.394545 62.675016 
L 116.455418 60.228983 
L 116.506145 61.397922 
L 116.739491 65.534013 
L 116.800364 67.649646 
L 116.932255 70.982457 
L 117.378655 83.422943 
L 118.5048 121.981035 
L 119.488909 168.852117 
L 119.671527 177.143384 
L 119.701964 176.386397 
L 120.148364 192.371538 
L 120.158509 190.986531 
L 120.239673 194.178808 
L 120.604909 204.314981 
L 120.675927 203.712417 
L 120.807818 206.253189 
L 120.909273 205.993882 
L 120.919418 205.027076 
L 121.000582 207.362524 
L 121.010727 207.451591 
L 121.020873 206.209945 
L 121.112182 206.727418 
L 121.162909 208.117682 
L 121.173055 206.412897 
L 121.213636 206.534348 
L 121.223782 206.469767 
L 121.264364 206.534972 
L 121.365818 203.937692 
L 121.375964 204.948448 
L 121.416545 204.843468 
L 121.426691 205.565402 
L 121.518 204.444345 
L 121.670182 200.95105 
L 121.680327 201.317661 
L 121.731055 201.929208 
L 121.954255 197.077891 
L 122.420945 185.870292 
L 122.441236 186.106686 
L 123.212291 156.618833 
L 124.409455 99.889315 
L 124.4196 101.361445 
L 124.490618 97.117266 
L 125.068909 73.303001 
L 125.079055 73.669369 
L 125.129782 71.715748 
L 125.474727 62.915278 
L 125.180509 72.062966 
L 125.525455 63.308021 
L 125.626909 61.864907 
L 125.677636 62.113537 
L 125.687782 62.603792 
L 125.738509 60.181947 
L 125.779091 60.004242 
L 125.890691 57.720104 
L 125.910982 57.75912 
L 125.982 58.020079 
L 126.042873 56.508645 
L 126.0936 57.288172 
L 126.134182 57.713777 
L 126.184909 60.076288 
L 126.255927 59.868338 
L 126.296509 59.719498 
L 126.387818 60.598861 
L 126.397964 60.096832 
L 126.458836 62.235374 
L 126.692182 66.652474 
L 126.702327 64.99879 
L 126.793636 66.727754 
L 126.803782 66.359563 
L 127.199455 77.427766 
L 127.260327 73.789284 
L 127.311055 76.365363 
L 127.706727 87.442081 
L 127.716873 86.111438 
L 127.808182 87.83186 
L 127.869055 87.472085 
L 127.980655 91.408266 
L 128.518364 114.287985 
L 128.6604 122.365757 
L 128.772 127.162999 
L 128.924182 135.030836 
L 129.177818 146.476893 
L 129.340145 156.368711 
L 129.380727 156.651496 
L 129.512618 166.716657 
L 129.532909 166.778594 
L 129.695236 178.140529 
L 129.705382 178.136399 
L 129.735818 178.111687 
L 129.847418 185.860462 
L 129.877855 185.757619 
L 129.888 185.721178 
L 130.050327 194.484971 
L 130.070618 194.358754 
L 130.090909 194.232829 
L 130.202509 203.310399 
L 130.232945 203.054346 
L 130.243091 202.97037 
L 130.354691 209.749713 
L 130.385127 209.430276 
L 130.395273 209.326449 
L 130.506873 214.980794 
L 130.527164 214.722449 
L 130.547455 214.470959 
L 130.659055 218.326293 
L 130.6692 218.175658 
L 130.699636 217.736315 
L 130.709782 218.507123 
L 130.750364 217.892111 
L 130.861964 220.787465 
L 130.872109 220.609317 
L 130.912691 221.176483 
L 131.562 207.071137 
L 131.815636 194.139085 
L 131.825782 194.698465 
L 131.886655 192.051807 
L 131.967818 188.064048 
L 132.140291 175.360295 
L 132.221455 172.162585 
L 132.353345 163.790619 
L 132.525818 155.726304 
L 132.698291 144.83644 
L 132.830182 138.357792 
L 132.972218 130.345208 
L 133.033091 126.28518 
L 133.205564 117.11393 
L 133.388182 111.53553 
L 133.530218 101.621551 
L 133.641818 96.513526 
L 133.773709 90.80264 
L 133.946182 85.383143 
L 134.047636 82.680792 
L 134.067927 83.157681 
L 134.301273 80.019088 
L 134.352 76.66687 
L 134.412873 77.16761 
L 134.554909 75.429627 
L 134.696945 70.40714 
L 134.707091 70.380919 
L 134.717236 71.587695 
L 134.818691 70.50204 
L 134.859273 70.514608 
L 134.981018 72.862078 
L 135.011455 72.967436 
L 135.0216 72.620548 
L 135.062182 72.801665 
L 135.112909 74.492529 
L 135.163636 73.088721 
L 135.224509 72.292651 
L 135.265091 72.648763 
L 135.315818 74.749744 
L 135.376691 74.123307 
L 135.427418 73.831163 
L 135.731782 79.435199 
L 136.431818 92.446583 
L 136.563709 98.67041 
L 139.018909 173.697118 
L 139.029055 172.269776 
L 139.120364 173.218485 
L 139.252255 178.095716 
L 139.282691 177.798184 
L 139.424727 180.629559 
L 139.587055 186.647333 
L 139.627636 186.859536 
L 139.769673 190.746667 
L 139.779818 190.761938 
L 139.891418 194.729807 
L 139.921855 194.690394 
L 139.932 194.672168 
L 139.942145 196.124866 
L 140.0436 195.905773 
L 140.084182 195.714946 
L 140.195782 199.295122 
L 140.205927 199.220748 
L 140.236364 198.987075 
L 140.347964 202.763621 
L 140.358109 202.657309 
L 140.388545 202.330197 
L 140.439273 200.188658 
L 140.449418 203.699179 
L 140.49 203.191305 
L 140.6016 204.850032 
L 140.540727 202.862297 
L 140.642182 204.234888 
L 140.794364 202.760342 
L 140.804509 204.095467 
L 140.895818 201.493858 
L 140.905964 203.272527 
L 141.301636 195.034081 
L 141.352364 195.741469 
L 141.362509 197.592193 
L 141.453818 194.664188 
L 141.626291 190.198255 
L 141.8292 180.296101 
L 142.366909 158.455704 
L 142.762582 134.013582 
L 143.229273 112.484013 
L 143.381455 103.943991 
L 143.584364 93.844061 
L 143.594509 94.303355 
L 143.645236 91.92319 
L 144.345273 74.352691 
L 144.355418 74.570225 
L 144.396 73.99274 
L 144.538036 70.625763 
L 144.700364 68.496906 
L 144.751091 66.893462 
L 144.811964 67.983645 
L 144.852545 67.916218 
L 144.994582 70.123371 
L 145.004727 70.145907 
L 145.014873 68.552031 
L 145.106182 70.451835 
L 145.238073 71.735991 
L 145.309091 72.223886 
L 145.319236 70.738569 
L 145.410545 72.342303 
L 145.420691 71.494749 
L 145.917818 78.118663 
L 146.080145 85.44882 
L 147.114982 115.994348 
L 147.845455 149.496755 
L 147.997636 154.972214 
L 148.007782 153.501022 
L 148.088945 156.46574 
L 148.159964 156.422099 
L 148.707818 175.452254 
L 148.961455 183.284521 
L 149.144073 187.487575 
L 149.671636 199.324331 
L 149.773091 198.492787 
L 149.783236 197.83973 
L 149.8644 199.233465 
L 149.874545 199.266682 
L 149.884691 198.407336 
L 149.976 199.298174 
L 150.239782 201.654137 
L 150.280364 201.415454 
L 150.331091 200.520348 
L 150.341236 202.315772 
L 150.381818 201.984806 
L 150.483273 201.81894 
L 150.493418 202.817632 
L 150.686182 199.648729 
L 150.787636 197.239223 
L 150.807927 197.993622 
L 150.848509 198.154487 
L 150.889091 197.367292 
L 150.949964 199.021581 
L 151.000691 197.849498 
L 151.051418 198.366331 
L 151.447091 185.908771 
L 151.589127 180.942796 
L 152.329745 153.784157 
L 152.918182 126.680944 
L 153.019636 122.016913 
L 153.050073 122.505728 
L 153.324 107.722631 
L 153.466036 103.270754 
L 154.277673 78.16339 
L 154.541455 71.629773 
L 154.673345 66.264693 
L 154.693636 66.056151 
L 154.805236 69.427011 
L 154.815382 69.354385 
L 154.845818 69.151924 
L 154.855964 70.508188 
L 154.947273 69.284713 
L 154.998 68.030141 
L 155.058873 68.751116 
L 155.099455 68.733918 
L 155.2212 70.17478 
L 155.251636 70.277666 
L 155.261782 68.332061 
L 155.363236 69.714314 
L 155.403818 70.01276 
L 155.413964 68.274272 
L 155.515418 69.622241 
L 155.698036 72.88949 
L 155.840073 76.799596 
L 155.870509 76.762737 
L 156.114 80.120487 
L 156.124145 79.554724 
L 156.174873 82.828833 
L 156.621273 96.282652 
L 156.763309 101.882434 
L 157.148836 119.916483 
L 157.240145 119.664158 
L 157.382182 125.678178 
L 157.392327 124.829741 
L 157.463345 127.908489 
L 158.832982 180.556662 
L 159.259091 190.832586 
L 159.269236 190.156481 
L 159.340255 192.641199 
L 159.664909 200.753676 
L 159.715636 203.512186 
L 159.766364 201.389929 
L 159.776509 200.107071 
L 159.877964 200.799959 
L 160.02 202.054761 
L 160.070727 203.552872 
L 160.1316 203.468971 
L 160.172182 203.48079 
L 160.273636 200.280971 
L 160.293927 200.355739 
L 160.324364 200.258029 
L 160.435964 203.189852 
L 160.456255 203.052598 
L 160.476545 202.904338 
L 160.486691 203.500354 
L 160.527273 203.156379 
L 160.588145 203.449543 
L 160.628727 202.986366 
L 160.638873 203.038696 
L 160.669309 202.651647 
L 160.6896 203.383624 
L 160.882364 198.873886 
L 160.983818 196.43952 
L 161.004109 197.491001 
L 161.389636 187.745004 
L 161.541818 183.258947 
L 161.551964 183.425946 
L 161.5824 182.449567 
L 161.602691 183.290715 
L 162.160691 160.162984 
L 164.230364 79.189956 
L 164.301382 79.529823 
L 164.534727 75.423692 
L 164.544873 76.92824 
L 164.636182 74.783096 
L 164.646327 75.796816 
L 164.889818 71.716054 
L 164.991273 67.298676 
L 165.021709 67.531086 
L 165.092727 66.817742 
L 165.234764 64.739687 
L 165.244909 64.741713 
L 165.346364 66.694122 
L 165.3768 66.434087 
L 165.498545 67.272691 
L 165.559418 67.046067 
L 165.620291 68.967255 
L 165.701455 69.807369 
L 165.802909 73.421583 
L 165.8232 73.359424 
L 166.056545 78.256449 
L 166.218873 82.220374 
L 166.847891 99.912986 
L 167.882727 140.120989 
L 168.095782 151.632049 
L 168.694364 173.222834 
L 168.704509 172.187956 
L 168.795818 173.881916 
L 168.805964 172.381379 
L 169.810364 204.166422 
L 169.820509 203.196466 
L 169.911818 205.034526 
L 169.921964 204.873253 
L 169.992982 205.431197 
L 170.013273 205.581227 
L 170.124873 201.642743 
L 170.135018 201.688763 
L 170.165455 201.811884 
L 170.2872 203.770204 
L 170.317636 203.774391 
L 170.327782 204.030747 
L 170.3988 203.211672 
L 170.419091 203.158982 
L 170.469818 201.874347 
L 170.530691 202.711467 
L 170.571273 202.471632 
L 170.703164 199.619383 
L 170.824909 198.189573 
L 170.875636 198.492272 
L 170.936509 199.415908 
L 170.987236 198.740626 
L 171.037964 198.885122 
L 171.230727 193.000841 
L 171.372764 189.357751 
L 171.393055 189.430925 
L 172.174255 165.985875 
L 173.412 114.583657 
L 173.533745 108.559009 
L 173.574327 108.886808 
L 174.071455 90.791116 
L 174.0816 92.378835 
L 174.162764 89.258769 
L 174.8628 71.592334 
L 175.035273 70.298607 
L 174.893236 71.636138 
L 175.065709 70.329961 
L 175.086 70.153049 
L 175.187455 67.692307 
L 175.1976 68.630003 
L 175.238182 68.446814 
L 175.248327 68.827447 
L 175.288909 68.702696 
L 175.410655 69.86059 
L 175.441091 69.889704 
L 175.501964 67.785344 
L 175.552691 68.502266 
L 175.593273 68.704886 
L 175.654145 67.616425 
L 175.704873 68.131157 
L 175.745455 68.503941 
L 175.8672 71.578937 
L 176.222291 77.518736 
L 176.262873 77.458899 
L 176.404909 80.05728 
L 176.415055 79.14248 
L 176.506364 80.241458 
L 176.770145 89.832414 
L 177.348436 112.078804 
L 179.347091 187.102459 
L 179.357236 186.061083 
L 179.4384 189.070017 
L 179.854364 199.357076 
L 179.945673 199.065746 
L 180.412364 205.912792 
L 180.513818 205.452429 
L 180.564545 204.400111 
L 180.574691 205.984713 
L 180.625418 204.591635 
L 180.666 204.400928 
L 180.676145 205.996169 
L 180.7776 204.638035 
L 180.970364 202.170479 
L 181.021091 200.771436 
L 181.031236 202.222127 
L 181.092109 200.779335 
L 181.132691 201.624996 
L 181.376182 194.51476 
L 181.518218 191.70009 
L 181.832727 181.100595 
L 181.984909 177.120343 
L 181.995055 178.77479 
L 182.076218 175.090064 
L 182.096509 175.812153 
L 182.684945 150.076201 
L 184.419818 81.671845 
L 184.429964 83.153533 
L 184.927091 70.47163 
L 184.977818 70.937434 
L 184.987964 72.340265 
L 185.079273 70.617328 
L 185.089418 71.128511 
L 185.231455 68.316177 
L 185.282182 66.5365 
L 185.343055 67.836757 
L 185.383636 67.645585 
L 185.393782 67.90231 
L 185.434364 67.764406 
L 185.545964 64.918991 
L 185.556109 64.923293 
L 185.586545 64.953831 
L 185.738727 67.088386 
L 185.748873 64.477064 
L 185.850327 64.689912 
L 185.941636 66.02168 
L 185.992364 68.351022 
L 186.053236 67.362422 
L 186.103964 67.352805 
L 186.286582 72.147101 
L 186.448909 76.835713 
L 186.611236 83.450557 
L 186.905455 92.437815 
L 187.037345 98.958216 
L 188.072182 138.117312 
L 188.224364 147.359095 
L 188.244655 147.829646 
L 189.137455 181.204619 
L 189.1476 181.172884 
L 189.736036 197.614997 
L 189.989673 200.946868 
L 190.202727 204.275705 
L 190.233164 203.211638 
L 190.304182 204.786912 
L 190.405636 206.553532 
L 190.466509 204.475952 
L 190.517236 204.835614 
L 190.557818 204.943073 
L 190.608545 205.5708 
L 190.618691 204.209852 
L 190.649127 204.214258 
L 190.659273 204.210315 
L 190.770873 205.872846 
L 190.801309 205.738993 
L 190.811455 205.688371 
L 190.8216 206.283609 
L 190.892618 204.233508 
L 190.923055 204.408097 
L 190.963636 204.054624 
L 190.973782 205.359354 
L 191.065091 204.590188 
L 191.196982 202.056366 
L 191.572364 194.404838 
L 191.754982 189.328682 
L 191.927455 181.996487 
L 192.079636 177.003641 
L 192.566618 158.351367 
L 194.413091 86.911097 
L 194.423236 87.830316 
L 194.494255 85.338864 
L 195.153709 69.322149 
L 195.174 69.054062 
L 195.184145 71.496243 
L 195.275455 68.913145 
L 195.2856 69.431727 
L 195.478364 66.663337 
L 195.529091 67.586037 
L 195.539236 69.542833 
L 195.640691 68.839751 
L 195.681273 68.825727 
L 195.813164 71.096171 
L 195.833455 71.167269 
L 195.945055 68.762899 
L 195.975491 68.978127 
L 195.995782 68.943683 
L 196.036364 69.292215 
L 196.097236 66.21981 
L 196.168255 67.380493 
L 196.188545 67.655928 
L 196.320436 73.24897 
L 196.340727 73.595129 
L 196.350873 72.256828 
L 196.391455 72.983446 
L 196.4016 71.794891 
L 196.482764 74.248116 
L 196.797273 82.801952 
L 196.939309 85.700742 
L 197.203091 94.904898 
L 197.334982 101.698527 
L 197.365418 101.572195 
L 198.572727 150.312236 
L 198.877091 165.534239 
L 198.897382 165.130923 
L 199.638 195.390701 
L 199.759745 194.977403 
L 200.196 203.470524 
L 200.206145 203.466372 
L 200.449636 207.924982 
L 200.500364 209.485175 
L 200.551091 208.601868 
L 200.662691 206.185586 
L 200.682982 206.234488 
L 200.754 206.336645 
L 200.764145 207.291398 
L 200.855455 206.669519 
L 200.906182 205.935845 
L 200.956909 206.050349 
L 201.068509 207.273016 
L 201.078655 207.188431 
L 201.159818 206.20328 
L 201.301855 201.433169 
L 201.362727 199.469115 
L 201.514909 195.289199 
L 201.525055 196.446003 
L 201.616364 194.521246 
L 201.626509 194.903905 
L 201.667091 193.981135 
L 201.707673 194.133106 
L 202.123636 181.228916 
L 202.377273 171.772792 
L 202.428 170.044766 
L 202.580182 160.502422 
L 202.590327 160.918227 
L 202.630909 159.302675 
L 202.783091 153.036183 
L 202.793236 154.296463 
L 202.8744 151.594283 
L 204.203455 100.100491 
L 204.2136 100.694104 
L 204.264327 97.657172 
L 204.680291 86.679629 
L 205.268727 71.245393 
L 205.309309 71.848934 
L 205.816582 66.149331 
L 205.826727 66.150693 
L 205.958618 69.068777 
L 206.029636 69.502818 
L 206.171673 71.123668 
L 206.202109 72.376982 
L 206.384727 74.187134 
L 206.435455 74.03288 
L 206.4456 72.508035 
L 206.536909 74.563858 
L 206.547055 73.414525 
L 206.942727 81.99743 
L 207.145636 91.905708 
L 207.155782 91.781005 
L 207.186218 92.731111 
L 208.210909 127.80662 
L 208.312364 137.40391 
L 208.352945 137.302649 
L 208.616727 143.923019 
L 208.626873 143.735643 
L 208.657309 144.99191 
L 209.783455 187.808557 
L 209.7936 186.784135 
L 209.874764 189.535053 
L 210.087818 194.695578 
L 209.895055 189.215539 
L 210.138545 194.563274 
L 210.148691 192.630775 
L 210.24 194.768121 
L 210.442909 200.39258 
L 210.453055 198.75877 
L 210.544364 199.823589 
L 210.645818 203.154067 
L 210.666109 202.883175 
L 210.696545 203.039074 
L 210.706691 202.529538 
L 210.726982 202.615861 
L 211.011055 204.020326 
L 211.051636 203.859821 
L 211.102364 202.081574 
L 211.163236 203.673158 
L 211.254545 202.49666 
L 211.264691 203.868446 
L 211.356 201.837431 
L 211.406727 200.567016 
L 211.416873 202.166843 
L 211.477745 200.777648 
L 211.751673 194.956779 
L 211.761818 194.742735 
L 211.771964 197.084279 
L 211.863273 193.234951 
L 211.873418 195.202602 
L 212.269091 183.810713 
L 212.421273 177.072565 
L 212.431418 177.248718 
L 213.273491 145.184075 
L 214.835891 84.476783 
L 214.866327 84.649263 
L 215.059091 81.213117 
L 215.069236 81.255625 
L 215.079382 81.023664 
L 215.160545 77.09052 
L 215.262 73.441082 
L 215.292436 73.449257 
L 215.566364 69.100054 
L 215.576509 70.437949 
L 215.667818 68.928502 
L 215.870727 68.195293 
L 215.728691 68.972515 
L 215.921455 68.24186 
L 216.022909 68.711432 
L 216.033055 67.754664 
L 216.124364 68.812357 
L 216.225818 70.241954 
L 216.235964 68.82455 
L 216.327273 70.443078 
L 216.337418 69.596348 
L 216.631636 73.4622 
L 216.783818 75.7037 
L 216.793964 75.351541 
L 216.864982 76.533405 
L 217.179491 86.079295 
L 217.849091 107.636254 
L 217.991127 113.335435 
L 218.863636 152.791179 
L 218.914364 155.446043 
L 218.995527 154.836549 
L 219.827455 184.026367 
L 219.939055 187.638268 
L 220.081091 192.842758 
L 220.182545 197.943208 
L 220.202836 197.40364 
L 220.436182 201.62355 
L 220.446327 199.731109 
L 220.537636 202.519482 
L 220.679673 204.707391 
L 220.791273 205.851859 
L 220.842 205.72311 
L 220.852145 204.41317 
L 220.943455 205.377316 
L 221.044909 206.821331 
L 221.0652 206.448979 
L 221.095636 206.422298 
L 221.197091 205.84645 
L 221.217382 205.906962 
L 221.247818 205.763602 
L 221.298545 203.972231 
L 221.369564 204.122001 
L 221.450727 202.69793 
L 221.501455 202.778257 
L 221.643491 199.39859 
L 221.663782 199.856006 
L 221.998582 192.278468 
L 222.018873 193.363343 
L 222.262364 185.172296 
L 222.363818 180.807406 
L 222.384109 182.213081 
L 223.084145 156.385704 
L 224.443636 102.927206 
L 224.474073 103.322031 
L 225.123382 83.871774 
L 225.711818 70.697011 
L 225.742255 71.048465 
L 225.914727 69.081204 
L 225.965455 69.751233 
L 225.9756 69.958019 
L 226.026327 68.781231 
L 226.117636 68.534033 
L 226.229236 66.021963 
L 226.239382 66.051828 
L 226.3104 66.650492 
L 226.320545 66.703886 
L 226.422 68.46211 
L 226.442291 67.682252 
L 226.523455 68.213271 
L 226.574182 70.340837 
L 226.6452 70.298272 
L 226.878545 74.840663 
L 226.929273 77.605287 
L 226.990145 75.851589 
L 227.264073 84.284802 
L 227.842364 102.180348 
L 227.943818 107.96122 
L 227.974255 107.889671 
L 230.043927 181.868915 
L 230.530909 191.994995 
L 230.591782 190.885156 
L 230.632364 191.433687 
L 230.794691 196.567546 
L 230.845418 196.293907 
L 231.038182 198.160928 
L 231.149782 202.31876 
L 231.159927 202.317971 
L 231.190364 202.297856 
L 231.200509 202.802605 
L 231.281673 201.727329 
L 231.291818 201.692732 
L 231.342545 200.799092 
L 231.352691 201.774339 
L 231.403418 201.172861 
L 231.646909 199.808035 
L 231.657055 201.400485 
L 231.748364 200.159098 
L 231.799091 198.643705 
L 231.859964 199.46921 
L 232.052727 196.306278 
L 232.062873 198.09857 
L 232.154182 196.1606 
L 232.255636 193.969465 
L 232.275927 194.614905 
L 233.036836 172.911105 
L 233.676 146.666263 
L 233.828182 139.8475 
L 233.838327 140.163878 
L 233.878909 138.483787 
L 234.376036 112.252042 
L 235.2384 83.374632 
L 235.908 68.240961 
L 235.918145 69.494063 
L 236.009455 69.197837 
L 236.1312 67.122688 
L 236.161636 67.024795 
L 236.171782 68.213052 
L 236.263091 66.607052 
L 236.374691 63.912347 
L 236.394982 63.984418 
L 236.415273 64.069029 
L 236.597891 68.246701 
L 236.719636 70.241436 
L 236.729782 68.228067 
L 236.821091 70.499439 
L 236.963127 74.114665 
L 237.663164 88.774372 
L 237.784909 95.535405 
L 237.926945 102.879373 
L 238.748727 135.789364 
L 238.911055 147.669289 
L 239.560364 172.061356 
L 239.570509 171.127995 
L 239.641527 174.459346 
L 240.300982 195.854312 
L 240.727091 207.20368 
L 240.777818 206.350186 
L 240.787964 204.778586 
L 240.889418 206.153069 
L 241.082182 209.61753 
L 241.132909 210.69835 
L 241.143055 209.582632 
L 241.193782 209.769955 
L 241.285091 210.390239 
L 241.427127 206.611139 
L 241.447418 206.68126 
L 241.488 206.560017 
L 241.498145 207.369839 
L 241.569164 204.878174 
L 241.589455 204.754424 
L 241.5996 206.946485 
L 241.690909 204.96126 
L 241.843091 200.961487 
L 241.853236 201.122184 
L 241.944545 198.312943 
L 242.046 195.826244 
L 242.066291 196.902085 
L 242.350364 190.163932 
L 242.502545 182.055918 
L 242.512691 182.357516 
L 242.553273 181.135889 
L 242.583709 181.460312 
L 242.756182 173.983408 
L 242.898218 167.921333 
L 244.024364 123.844726 
L 244.206982 116.912418 
L 244.683818 100.22422 
L 244.704109 100.585588 
L 245.120073 89.019138 
L 245.647636 74.414576 
L 245.678073 74.929354 
L 245.952 68.278914 
L 246.033164 70.269036 
L 246.053455 70.065481 
L 246.1752 67.55786 
L 246.205636 67.368022 
L 246.266509 69.160216 
L 246.327382 68.121054 
L 246.357818 68.056901 
L 246.408545 67.625357 
L 246.438982 69.042333 
L 246.459273 69.056138 
L 246.560727 72.587709 
L 246.570873 70.139338 
L 246.6216 70.094865 
L 246.662182 70.334703 
L 246.672327 70.072911 
L 246.753491 70.721546 
L 246.915818 72.663478 
L 247.047709 76.11857 
L 247.473818 83.699213 
L 247.575273 88.809686 
L 247.605709 88.803127 
L 248.376764 113.588352 
L 250.263818 184.307833 
L 250.273964 184.126733 
L 250.314545 185.304877 
L 250.974 203.478104 
L 250.984145 202.383439 
L 251.075455 204.228111 
L 251.126182 205.121087 
L 251.187055 204.508628 
L 251.227636 204.780909 
L 251.237782 203.116757 
L 251.339236 204.156351 
L 251.379818 204.268312 
L 251.501564 201.946108 
L 251.532 201.909614 
L 251.592873 203.507487 
L 251.6436 202.150589 
L 251.836364 201.101571 
L 251.897236 203.16564 
L 251.947964 202.32879 
L 251.988545 201.822188 
L 252.09 198.601545 
L 252.110291 199.760352 
L 252.150873 200.499341 
L 252.587127 190.472067 
L 252.607418 191.405194 
L 253.206 170.629401 
L 253.4292 161.593243 
L 255.681491 76.361709 
L 255.894545 71.900395 
L 255.701782 76.533452 
L 255.945273 72.732321 
L 256.006145 74.122695 
L 256.056873 72.819387 
L 256.198909 69.8123 
L 256.249636 68.260463 
L 256.320655 68.561398 
L 256.351091 68.373098 
L 256.361236 68.702629 
L 256.401818 68.50425 
L 256.523564 64.997816 
L 256.554 64.993571 
L 256.655455 67.143944 
L 256.675745 66.872942 
L 256.706182 66.988415 
L 256.827927 69.384008 
L 256.980109 71.274684 
L 257.010545 71.620865 
L 257.020691 70.346222 
L 257.112 71.778545 
L 257.314909 77.659192 
L 257.325055 76.909874 
L 257.7816 88.083125 
L 258.380182 106.910781 
L 258.481636 111.729298 
L 258.501927 111.596506 
L 259.090364 139.353403 
L 259.141091 142.547999 
L 259.212109 141.772296 
L 260.409273 188.981684 
L 260.419418 188.077928 
L 260.500582 190.163713 
L 261.170182 207.325099 
L 261.231055 206.217148 
L 261.271636 206.658537 
L 261.393382 209.104721 
L 261.423818 209.292081 
L 261.433964 207.687464 
L 261.525273 209.361527 
L 261.535418 209.124902 
L 261.576 209.214841 
L 261.636873 210.057661 
L 261.677455 210.024039 
L 261.778909 207.764728 
L 261.7992 208.498102 
L 261.829636 208.339609 
L 261.961527 204.201623 
L 262.032545 203.151169 
L 262.184727 198.69417 
L 262.194873 199.219658 
L 262.265891 197.554724 
L 262.590545 190.263117 
L 262.732582 185.627506 
L 262.752873 187.00053 
L 263.402182 164.713013 
L 263.554364 159.394991 
L 263.808 149.875988 
L 263.818145 149.9885 
L 265.380545 88.244897 
L 265.390691 89.268553 
L 265.471855 86.685225 
L 266.090727 71.035091 
L 266.100873 72.525781 
L 266.202327 72.148903 
L 266.395091 68.561195 
L 266.526982 65.462556 
L 266.547273 65.383104 
L 266.658873 67.954787 
L 266.699455 67.94722 
L 266.7096 66.863634 
L 266.800909 67.132018 
L 266.9328 70.328771 
L 266.953091 70.456794 
L 267.064691 68.817781 
L 267.074836 68.916337 
L 267.115418 68.81246 
L 267.156 69.278615 
L 267.277745 73.087469 
L 267.815455 81.639587 
L 267.957491 88.21293 
L 268.028509 87.427058 
L 268.474909 106.001221 
L 268.6068 109.325317 
L 269.743091 158.193086 
L 269.935855 167.830542 
L 270.605455 190.328591 
L 270.6156 189.193587 
L 270.696764 191.482204 
L 271.062 199.421507 
L 271.072145 197.894239 
L 271.163455 199.164867 
L 271.335927 204.999399 
L 271.569273 207.386474 
L 271.599709 206.890566 
L 271.62 206.976405 
L 271.680873 204.368551 
L 271.741745 204.798772 
L 271.772182 204.812008 
L 271.822909 204.219015 
L 271.833055 204.820913 
L 271.883782 204.702064 
L 271.975091 204.154653 
L 272.117127 199.589103 
L 272.178 198.387198 
L 272.188145 199.85766 
L 272.228727 199.406237 
L 272.238873 201.30751 
L 272.330182 199.904449 
L 272.533091 193.881626 
L 272.593964 195.167444 
L 272.583818 193.403367 
L 272.644691 194.347499 
L 272.938909 186.102967 
L 273.0708 180.185591 
L 274.004182 148.704286 
L 274.156364 139.312716 
L 274.166509 139.510262 
L 274.196945 138.198009 
L 275.475273 87.537359 
L 275.485418 88.552863 
L 275.566582 86.18861 
L 275.931818 76.793112 
L 275.586873 87.162917 
L 275.982545 76.799201 
L 275.992691 77.137302 
L 276.033273 76.270257 
L 276.165164 73.01945 
L 276.388364 70.508858 
L 276.408655 70.646087 
L 276.642 67.188867 
L 276.763745 67.890514 
L 276.794182 67.829572 
L 276.895636 68.13357 
L 276.956509 66.396056 
L 277.007236 66.758534 
L 277.047818 66.949392 
L 277.149273 68.700375 
L 277.179709 68.51067 
L 277.2 68.699477 
L 277.210145 68.23195 
L 277.250727 68.655359 
L 277.3116 67.511022 
L 277.372473 67.761241 
L 277.453636 69.119215 
L 277.585527 75.267413 
L 277.960909 83.87886 
L 278.102945 87.625665 
L 278.123236 85.962086 
L 278.589927 105.370941 
L 279.482727 143.208494 
L 279.6552 151.262855 
L 280.578436 186.017443 
L 281.055273 200.210935 
L 281.095855 199.382761 
L 281.308909 203.460907 
L 281.359636 203.328049 
L 281.369782 202.505709 
L 281.450945 204.054132 
L 281.511818 205.492304 
L 281.613273 207.386919 
L 281.623418 204.727712 
L 281.724873 206.392904 
L 281.765455 206.598427 
L 281.7756 205.913893 
L 281.866909 206.47913 
L 281.917636 207.559288 
L 281.978509 207.088732 
L 282.019091 207.009488 
L 282.069818 206.188688 
L 282.079964 207.438929 
L 282.130691 206.504534 
L 282.171273 206.258056 
L 282.222 205.119379 
L 282.232145 206.623463 
L 282.272727 206.272381 
L 282.3336 207.065202 
L 282.384327 206.680901 
L 282.526364 203.505544 
L 282.627818 200.801006 
L 282.769855 194.482723 
L 282.790145 194.989165 
L 283.378582 178.191393 
L 283.540909 170.530974 
L 283.682945 163.254611 
L 285.925091 80.300901 
L 285.945382 80.375324 
L 286.178727 77.061957 
L 286.188873 77.882393 
L 286.280182 76.534753 
L 286.290327 77.036375 
L 286.361345 75.566062 
L 286.381636 75.220341 
L 286.503382 69.641919 
L 286.635273 66.702055 
L 286.736727 67.305481 
L 286.7976 70.210979 
L 286.858473 69.72533 
L 286.888909 69.632957 
L 286.949782 70.127185 
L 287.000509 69.827715 
L 287.041091 69.843928 
L 287.183127 71.48935 
L 287.193273 71.536172 
L 287.315018 73.131318 
L 287.396182 74.052339 
L 287.457055 70.207754 
L 287.517927 70.537313 
L 287.670109 74.0122 
L 287.751273 75.533284 
L 287.761418 73.770821 
L 287.802 74.591967 
L 287.812145 74.519925 
L 287.832436 74.950721 
L 288.217964 85.614423 
L 288.877418 108.493148 
L 290.490545 174.689245 
L 290.632582 181.670584 
L 290.652873 179.408997 
L 290.744182 182.1786 
L 290.754327 180.274632 
L 290.845636 182.809816 
L 290.855782 181.004432 
L 291.647127 200.622335 
L 291.667418 200.16912 
L 291.809455 203.424023 
L 291.910909 204.8566 
L 291.941345 204.591161 
L 291.961636 204.643786 
L 292.0428 206.350213 
L 292.083382 205.466992 
L 292.113818 205.420791 
L 292.215273 202.981457 
L 292.235564 203.269252 
L 292.266 203.107491 
L 292.276145 204.807292 
L 292.3776 204.239694 
L 292.418182 203.876577 
L 292.479055 205.26469 
L 292.519636 204.790239 
L 292.651527 200.10075 
L 292.824 196.847097 
L 292.945745 193.81409 
L 293.483455 182.685255 
L 293.4936 185.091985 
L 293.584909 180.701213 
L 293.595055 180.933355 
L 293.635636 179.535379 
L 293.868982 171.454301 
L 294.1632 156.074756 
L 296.172 78.016105 
L 296.182145 79.695859 
L 296.273455 76.842522 
L 296.2836 77.489719 
L 296.354618 74.996713 
L 296.577818 70.629988 
L 296.658982 71.1288 
L 296.679273 70.883306 
L 296.740145 72.382539 
L 296.790873 71.923302 
L 296.932909 70.026917 
L 296.983636 68.312209 
L 297.034364 68.370459 
L 297.095236 70.080824 
L 297.145964 69.574043 
L 297.186545 69.598599 
L 297.237273 69.96348 
L 297.247418 68.709093 
L 297.267709 68.769427 
L 297.298145 68.650296 
L 297.338727 68.840861 
L 297.450327 67.263718 
L 297.470618 67.435682 
L 297.541636 68.203669 
L 297.673527 70.45211 
L 297.998182 75.635794 
L 298.130073 80.349467 
L 298.667782 96.411766 
L 299.256218 120.475631 
L 300.940364 187.052383 
L 300.991091 186.67859 
L 301.143273 188.656339 
L 301.194 190.756839 
L 301.254873 189.473863 
L 301.904182 204.042433 
L 301.944764 203.559345 
L 302.005636 204.523944 
L 302.107091 207.310651 
L 302.117236 206.235167 
L 302.157818 206.294791 
L 302.259273 205.237754 
L 302.269418 205.802561 
L 302.360727 205.328629 
L 302.462182 204.01306 
L 302.492618 204.48643 
L 302.523055 204.619474 
L 302.665091 203.420702 
L 302.675236 204.185419 
L 302.7564 202.478725 
L 302.776691 202.49646 
L 302.969455 198.36574 
L 303.121636 193.007206 
L 303.152073 192.484736 
L 303.821673 173.883065 
L 304.440545 148.073902 
L 304.613018 140.823716 
L 305.404364 110.44027 
L 305.414509 112.577198 
L 305.495673 108.448184 
L 306.500073 73.880444 
L 306.530509 74.153496 
L 306.672545 72.327117 
L 306.682691 72.903246 
L 306.753709 70.787208 
L 306.774 70.517105 
L 306.784145 71.027303 
L 306.824727 70.521428 
L 306.834873 71.54182 
L 306.926182 70.173409 
L 306.976909 69.732352 
L 307.078364 65.493825 
L 307.098655 66.153019 
L 307.179818 65.483922 
L 307.301564 67.11146 
L 307.332 67.153232 
L 307.433455 68.900917 
L 307.453745 67.580101 
L 307.484182 67.723696 
L 307.585636 70.621052 
L 307.616073 70.045726 
L 307.737818 70.587302 
L 307.747964 68.378698 
L 307.839273 70.202887 
L 307.981309 71.95206 
L 308.366836 80.986023 
L 308.752364 93.028516 
L 308.884255 99.40271 
L 309.614727 128.464994 
L 309.777055 137.622653 
L 310.629273 169.970025 
L 310.639418 169.760901 
L 310.669855 170.924069 
L 311.298873 190.710941 
L 311.846727 203.53592 
L 311.856873 202.531679 
L 311.948182 203.954452 
L 311.988764 204.293819 
L 312.151091 206.624205 
L 312.262691 205.932943 
L 312.303273 206.019151 
L 312.425018 204.362167 
L 312.455455 204.301193 
L 312.4656 204.828763 
L 312.567055 204.708866 
L 312.607636 204.475888 
L 312.617782 205.553697 
L 312.709091 204.332418 
L 312.840982 201.608391 
L 312.871418 201.737992 
L 313.165636 196.438535 
L 313.175782 198.956863 
L 313.277236 197.710559 
L 313.3584 193.035936 
L 313.47 188.635817 
L 313.632327 178.838492 
L 314.403382 151.92325 
L 315.651273 104.063824 
L 315.661418 104.599267 
L 315.702 103.034489 
L 315.844036 94.061374 
L 315.864327 94.350961 
L 316.310727 80.177237 
L 316.320873 81.440214 
L 316.412182 79.749238 
L 316.554218 73.822372 
L 316.564364 73.596911 
L 316.574509 74.80344 
L 316.615091 73.931639 
L 316.625236 75.264409 
L 316.7064 72.615643 
L 316.919455 70.497542 
L 316.9296 71.553444 
L 317.010764 69.216606 
L 317.223818 66.880967 
L 317.2644 67.602825 
L 317.274545 67.559787 
L 317.386145 69.086788 
L 317.396291 69.074522 
L 317.426727 69.052594 
L 317.538327 68.10162 
L 317.558618 68.15913 
L 317.578909 68.226889 
L 317.690509 66.150342 
L 317.700655 66.223436 
L 317.731091 66.461197 
L 317.862982 69.317945 
L 317.984727 71.938292 
L 318.136909 75.181043 
L 318.147055 74.198565 
L 318.228218 76.488178 
L 318.694909 86.769235 
L 318.8268 92.420064 
L 319.608 121.207059 
L 319.810909 130.604291 
L 319.821055 129.651833 
L 319.881927 133.297967 
L 321.413891 195.279686 
L 321.992182 208.828563 
L 322.002327 208.603345 
L 322.042909 209.172711 
L 322.083491 209.105677 
L 322.093636 209.230885 
L 322.103782 207.989124 
L 322.113927 208.108827 
L 322.144364 208.453127 
L 322.245818 210.959161 
L 322.266109 210.833994 
L 322.296545 211.037362 
L 322.408145 208.141014 
L 322.418291 208.171972 
L 322.448727 208.248664 
L 322.458873 206.432124 
L 322.560327 207.352413 
L 322.600909 207.291986 
L 322.611055 208.942184 
L 322.702364 207.324696 
L 322.753091 205.573858 
L 322.763236 208.524577 
L 322.803818 208.21984 
L 322.986436 203.606248 
L 323.006727 203.320344 
L 323.138618 197.925512 
L 323.473418 190.120652 
L 323.869091 178.21659 
L 324.021273 170.214523 
L 324.031418 170.390804 
L 324.061855 169.27107 
L 324.670582 142.53363 
L 324.883636 136.735675 
L 324.893782 137.758211 
L 324.974945 134.831133 
L 324.995236 135.011212 
L 325.695273 107.060112 
L 325.705418 107.506812 
L 325.756145 105.380785 
L 326.202545 89.798407 
L 326.253273 90.101146 
L 326.263418 90.124194 
L 326.841709 75.280691 
L 327.166364 69.707633 
L 327.227236 70.0378 
L 327.318545 69.262285 
L 327.379418 71.095257 
L 327.430145 69.423594 
L 327.470727 69.290363 
L 327.582327 67.969486 
L 327.592473 67.97238 
L 327.622909 67.996919 
L 327.673636 69.321974 
L 327.734509 69.020026 
L 327.775091 69.202078 
L 327.785236 68.903745 
L 327.825818 69.14274 
L 327.886691 68.216535 
L 327.927273 68.5693 
L 328.028727 70.25075 
L 328.049018 69.915338 
L 328.130182 72.021202 
L 328.180909 71.756249 
L 328.302655 75.587592 
L 328.393964 75.235735 
L 328.485273 77.537157 
L 328.546145 76.721787 
L 328.536 77.90306 
L 328.586727 77.710457 
L 328.738909 83.216464 
L 328.891091 87.837006 
L 328.911382 87.267077 
L 329.347636 103.626729 
L 329.509964 113.968052 
L 331.630364 193.909994 
L 331.640509 192.834728 
L 331.711527 196.304073 
L 331.934727 200.380455 
L 331.944873 197.453262 
L 332.036182 200.259906 
L 332.442 206.935839 
L 332.5536 203.822419 
L 332.563745 203.850334 
L 332.644909 204.278381 
L 332.756509 205.833614 
L 332.7768 205.769376 
L 332.797091 205.693261 
L 332.807236 206.651185 
L 332.898545 204.883717 
L 332.908691 205.127342 
L 332.969564 203.93964 
L 333.101455 201.967388 
L 333.2232 199.510689 
L 333.385527 195.301147 
L 333.558 192.922229 
L 333.568145 194.521072 
L 333.659455 193.45627 
L 333.831927 186.154251 
L 334.126145 174.315398 
L 335.384182 128.275462 
L 335.536364 120.424816 
L 335.556655 120.837675 
L 336.500182 86.28561 
L 336.510327 86.541959 
L 336.550909 85.364541 
L 336.703091 80.884455 
L 336.713236 81.166869 
L 337.159636 70.254947 
L 337.230655 70.926901 
L 337.464 69.047991 
L 337.474145 70.287074 
L 337.5756 69.709178 
L 337.616182 69.574109 
L 337.717636 68.187217 
L 337.748073 68.554007 
L 337.768364 68.57014 
L 337.829236 66.424796 
L 337.879964 66.666662 
L 337.971273 67.501873 
L 338.072727 69.460387 
L 338.103164 68.965361 
L 338.123455 69.181271 
L 338.255345 74.054554 
L 338.762618 82.463121 
L 339.493091 103.477073 
L 339.624982 110.933195 
L 341.725091 189.506528 
L 341.735236 188.786595 
L 341.796109 192.286133 
L 341.836691 191.402815 
L 342.333818 203.425083 
L 342.343964 202.701243 
L 342.435273 203.774472 
L 342.486 205.373022 
L 342.546873 204.74787 
L 342.587455 204.947806 
L 342.648327 202.820669 
L 342.699055 203.960497 
L 342.739636 204.021043 
L 342.841091 202.288196 
L 342.861382 203.454428 
L 342.891818 203.390341 
L 342.901964 205.354849 
L 343.003418 205.304792 
L 343.044 205.057645 
L 343.054145 205.613146 
L 343.094727 205.314039 
L 343.196182 201.689677 
L 343.216473 202.174183 
L 343.348364 200.244298 
L 343.409236 201.967039 
L 343.449818 201.298253 
L 343.571564 197.588865 
L 343.612145 198.315439 
L 344.231018 182.337018 
L 344.758582 161.612365 
L 346.848545 83.591165 
L 346.878982 83.035217 
L 347.650036 66.411907 
L 347.660182 66.361877 
L 347.721055 68.585987 
L 347.781927 68.325413 
L 347.812364 68.274804 
L 347.964545 70.082401 
L 348.076145 68.568145 
L 348.086291 68.625316 
L 348.167455 69.738478 
L 348.218182 69.5835 
L 348.370364 73.01977 
L 348.481964 70.564828 
L 348.471818 73.412611 
L 348.5124 71.063037 
L 348.928364 79.420845 
L 349.060255 86.491247 
L 349.942909 114.611132 
L 350.125527 124.651866 
L 351.616909 183.314956 
L 351.627055 182.805183 
L 351.698073 184.475055 
L 352.276364 200.249221 
L 352.327091 199.879885 
L 352.337236 199.466641 
L 352.4184 200.415129 
L 352.479273 202.339682 
L 352.631455 202.022193 
L 352.6416 200.185814 
L 352.743055 201.699448 
L 352.783636 201.878218 
L 352.793782 199.414391 
L 352.895236 201.548066 
L 352.935818 201.562629 
L 352.996691 203.802098 
L 353.057564 203.702469 
L 353.088 203.5728 
L 353.219891 201.566098 
L 353.240182 201.401266 
L 353.361927 199.853482 
L 353.402509 200.488726 
L 353.544545 198.564209 
L 353.554691 199.142868 
L 353.625709 197.285233 
L 353.646 196.925342 
L 353.777891 191.583435 
L 353.899636 189.919552 
L 353.808327 192.03433 
L 353.950364 190.033267 
L 353.960509 190.474698 
L 354.021382 188.52848 
L 354.853309 164.459418 
L 356.131636 110.837856 
L 356.304109 102.157151 
L 356.841818 85.669228 
L 356.851964 85.958073 
L 357.349091 73.465106 
L 357.399818 73.735345 
L 357.409964 73.868045 
L 357.450545 73.235813 
L 357.470836 73.255151 
L 357.501273 72.819191 
L 357.633164 67.702458 
L 357.704182 67.26121 
L 357.825927 65.230508 
L 357.856364 65.096193 
L 357.917236 66.272466 
L 357.978109 65.677151 
L 358.008545 65.674596 
L 358.11 67.554426 
L 358.130291 67.070434 
L 358.191164 67.706343 
L 358.2216 67.494512 
L 358.383927 69.300995 
L 358.465091 69.991861 
L 358.596982 74.219909 
L 359.023091 81.26687 
L 359.033236 78.575309 
L 359.134691 79.539202 
L 359.652109 96.874296 
L 360.139091 117.133697 
L 360.301418 128.61584 
L 361.224655 162.820688 
L 362.269636 201.974398 
L 362.320364 201.854311 
L 362.330509 201.730438 
L 362.371091 202.490618 
L 362.472545 203.36855 
L 362.482691 202.220197 
L 362.574 203.804208 
L 362.584145 202.739372 
L 362.776909 204.834325 
L 362.634873 202.53639 
L 362.847927 204.823324 
L 362.979818 206.256345 
L 363.101564 209.123471 
L 363.121855 209.117946 
L 363.182727 209.003732 
L 363.192873 209.999882 
L 363.274036 207.971631 
L 363.334909 207.648109 
L 363.4668 202.190473 
L 363.497236 202.527564 
L 363.842182 198.060239 
L 363.943636 193.06135 
L 363.963927 193.702517 
L 364.501636 180.090601 
L 364.663964 171.111549 
L 365.922 121.666675 
L 366.084327 116.817477 
L 367.088727 79.833963 
L 367.098873 80.899988 
L 367.180036 78.549595 
L 367.545273 70.547224 
L 367.596 70.692655 
L 367.606145 70.979506 
L 367.667018 69.655427 
L 367.748182 67.971218 
L 367.798909 68.562351 
L 367.809055 70.207168 
L 367.900364 69.469435 
L 368.001818 67.007446 
L 368.011964 67.842843 
L 368.052545 67.713509 
L 368.143855 66.519119 
L 368.164145 67.223626 
L 368.204727 67.267669 
L 368.255455 67.498352 
L 368.2656 66.51144 
L 368.367055 66.579177 
L 368.458364 67.510679 
L 368.509091 67.492557 
L 368.630836 69.466476 
L 368.864182 73.877053 
L 368.996073 78.13807 
L 369.026509 77.80992 
L 369.675818 94.177852 
L 369.807709 101.177005 
L 370.893273 142.34059 
L 371.025164 149.580334 
L 371.502 164.887965 
L 371.512145 164.85087 
L 371.522291 165.218489 
L 372.110727 182.844225 
L 372.120873 182.224888 
L 372.191891 184.236193 
L 372.313636 188.831966 
L 372.455673 194.772738 
L 372.567273 198.867377 
L 372.618 200.305186 
L 372.678873 198.948312 
L 372.7296 198.416003 
L 372.820909 199.451172 
L 372.831055 199.153983 
L 372.881782 200.691671 
L 372.922364 200.996076 
L 373.044109 202.763755 
L 373.074545 202.867977 
L 373.135418 200.789454 
L 373.186145 202.154333 
L 373.226727 202.154714 
L 373.236873 202.736359 
L 373.338327 202.715644 
L 373.409345 202.05357 
L 373.429636 201.944092 
L 373.490509 201.992565 
L 373.551382 200.789715 
L 373.581818 200.523671 
L 373.581818 200.523671 
" clip-path="url(#p0f73a06245)" style="fill: none; stroke: #000000; stroke-width: 0.5; stroke-linecap: square"/>
   </g>
   <g id="patch_3">
    <path d="M 54 256.32 
L 54 34.56 
" style="fill: none; stroke: #000000; stroke-width: 0.8; stroke-linejoin: miter; stroke-linecap: square"/>
   </g>
   <g id="patch_4">
    <path d="M 388.8 256.32 
L 388.8 34.56 
" style="fill: none; stroke: #000000; stroke-width: 0.8; stroke-linejoin: miter; stroke-linecap: square"/>
   </g>
   <g id="patch_5">
    <path d="M 54 256.32 
L 388.8 256.32 
" style="fill: none; stroke: #000000; stroke-width: 0.8; stroke-linejoin: miter; stroke-linecap: square"/>
   </g>
   <g id="patch_6">
    <path d="M 54 34.56 
L 388.8 34.56 
" style="fill: none; stroke: #000000; stroke-width: 0.8; stroke-linejoin: miter; stroke-linecap: square"/>
   </g>
   <g id="text_15">
    <!-- $\theta_{m}$ (rad) - (MJUKF) -->
    <g transform="translate(175.75 28.56) scale(0.11 -0.11)">
     <defs>
      <path id="TimesNewRomanPSMT-4d" d="M 2619 0 
L 981 3566 
L 981 734 
Q 981 344 1066 247 
Q 1181 116 1431 116 
L 1581 116 
L 1581 0 
L 106 0 
L 106 116 
L 256 116 
Q 525 116 638 278 
Q 706 378 706 734 
L 706 3503 
Q 706 3784 644 3909 
Q 600 4000 483 4061 
Q 366 4122 106 4122 
L 106 4238 
L 1306 4238 
L 2844 922 
L 4356 4238 
L 5556 4238 
L 5556 4122 
L 5409 4122 
Q 5138 4122 5025 3959 
Q 4956 3859 4956 3503 
L 4956 734 
Q 4956 344 5044 247 
Q 5159 116 5409 116 
L 5556 116 
L 5556 0 
L 3756 0 
L 3756 116 
L 3906 116 
Q 4178 116 4288 278 
Q 4356 378 4356 734 
L 4356 3566 
L 2722 0 
L 2619 0 
z
" transform="scale(0.015625)"/>
      <path id="TimesNewRomanPSMT-4a" d="M 638 4122 
L 638 4238 
L 2453 4238 
L 2453 4122 
L 2300 4122 
Q 2041 4122 1922 3969 
Q 1847 3869 1847 3488 
L 1847 1416 
Q 1847 938 1742 641 
Q 1638 344 1381 123 
Q 1125 -97 763 -97 
Q 469 -97 300 48 
Q 131 194 131 381 
Q 131 534 209 613 
Q 313 709 450 709 
Q 550 709 629 643 
Q 709 578 831 294 
Q 903 125 1016 125 
Q 1100 125 1173 228 
Q 1247 331 1247 594 
L 1247 3488 
Q 1247 3809 1206 3913 
Q 1175 3991 1075 4047 
Q 941 4122 791 4122 
L 638 4122 
z
" transform="scale(0.015625)"/>
      <path id="TimesNewRomanPSMT-55" d="M 3053 4122 
L 3053 4238 
L 4553 4238 
L 4553 4122 
L 4394 4122 
Q 4144 4122 4009 3913 
Q 3944 3816 3944 3463 
L 3944 1744 
Q 3944 1106 3817 754 
Q 3691 403 3320 151 
Q 2950 -100 2313 -100 
Q 1619 -100 1259 140 
Q 900 381 750 788 
Q 650 1066 650 1831 
L 650 3488 
Q 650 3878 542 4000 
Q 434 4122 194 4122 
L 34 4122 
L 34 4238 
L 1866 4238 
L 1866 4122 
L 1703 4122 
Q 1441 4122 1328 3956 
Q 1250 3844 1250 3488 
L 1250 1641 
Q 1250 1394 1295 1075 
Q 1341 756 1459 578 
Q 1578 400 1801 284 
Q 2025 169 2350 169 
Q 2766 169 3094 350 
Q 3422 531 3542 814 
Q 3663 1097 3663 1772 
L 3663 3488 
Q 3663 3884 3575 3984 
Q 3453 4122 3213 4122 
L 3053 4122 
z
" transform="scale(0.015625)"/>
      <path id="TimesNewRomanPSMT-4b" d="M 1913 2350 
L 3475 797 
Q 3859 413 4131 273 
Q 4403 134 4675 116 
L 4675 0 
L 2659 0 
L 2659 116 
Q 2841 116 2920 177 
Q 3000 238 3000 313 
Q 3000 388 2970 447 
Q 2941 506 2775 669 
L 1313 2116 
L 1313 750 
Q 1313 428 1353 325 
Q 1384 247 1484 191 
Q 1619 116 1769 116 
L 1913 116 
L 1913 0 
L 106 0 
L 106 116 
L 256 116 
Q 519 116 638 269 
Q 713 369 713 750 
L 713 3488 
Q 713 3809 672 3916 
Q 641 3991 544 4047 
Q 406 4122 256 4122 
L 106 4122 
L 106 4238 
L 1913 4238 
L 1913 4122 
L 1769 4122 
Q 1622 4122 1484 4050 
Q 1388 4000 1350 3900 
Q 1313 3800 1313 3488 
L 1313 2191 
Q 1375 2250 1741 2588 
Q 2669 3438 2863 3722 
Q 2947 3847 2947 3941 
Q 2947 4013 2881 4067 
Q 2816 4122 2659 4122 
L 2563 4122 
L 2563 4238 
L 4119 4238 
L 4119 4122 
Q 3981 4119 3868 4084 
Q 3756 4050 3593 3951 
Q 3431 3853 3194 3634 
Q 3125 3572 2559 2994 
L 1913 2350 
z
" transform="scale(0.015625)"/>
      <path id="TimesNewRomanPSMT-46" d="M 1309 4006 
L 1309 2341 
L 2081 2341 
Q 2347 2341 2470 2458 
Q 2594 2575 2634 2922 
L 2750 2922 
L 2750 1488 
L 2634 1488 
Q 2631 1734 2570 1850 
Q 2509 1966 2401 2023 
Q 2294 2081 2081 2081 
L 1309 2081 
L 1309 750 
Q 1309 428 1350 325 
Q 1381 247 1481 191 
Q 1619 116 1769 116 
L 1922 116 
L 1922 0 
L 103 0 
L 103 116 
L 253 116 
Q 516 116 634 269 
Q 709 369 709 750 
L 709 3488 
Q 709 3809 669 3913 
Q 638 3991 541 4047 
Q 406 4122 253 4122 
L 103 4122 
L 103 4238 
L 3256 4238 
L 3297 3306 
L 3188 3306 
Q 3106 3603 2998 3742 
Q 2891 3881 2733 3943 
Q 2575 4006 2244 4006 
L 1309 4006 
z
" transform="scale(0.015625)"/>
     </defs>
     <use xlink:href="#DejaVuSans-Oblique-3b8" transform="translate(0 0.234375)"/>
     <use xlink:href="#DejaVuSans-Oblique-6d" transform="translate(61.181641 -16.171875) scale(0.7)"/>
     <use xlink:href="#TimesNewRomanPSMT-20" transform="translate(132.104492 0.234375)"/>
     <use xlink:href="#TimesNewRomanPSMT-28" transform="translate(157.104492 0.234375)"/>
     <use xlink:href="#TimesNewRomanPSMT-72" transform="translate(190.405273 0.234375)"/>
     <use xlink:href="#TimesNewRomanPSMT-61" transform="translate(223.706055 0.234375)"/>
     <use xlink:href="#TimesNewRomanPSMT-64" transform="translate(268.09082 0.234375)"/>
     <use xlink:href="#TimesNewRomanPSMT-29" transform="translate(318.09082 0.234375)"/>
     <use xlink:href="#TimesNewRomanPSMT-20" transform="translate(351.391602 0.234375)"/>
     <use xlink:href="#TimesNewRomanPSMT-2d" transform="translate(376.391602 0.234375)"/>
     <use xlink:href="#TimesNewRomanPSMT-20" transform="translate(409.692383 0.234375)"/>
     <use xlink:href="#TimesNewRomanPSMT-28" transform="translate(434.692383 0.234375)"/>
     <use xlink:href="#TimesNewRomanPSMT-4d" transform="translate(467.993164 0.234375)"/>
     <use xlink:href="#TimesNewRomanPSMT-4a" transform="translate(556.90918 0.234375)"/>
     <use xlink:href="#TimesNewRomanPSMT-55" transform="translate(595.825195 0.234375)"/>
     <use xlink:href="#TimesNewRomanPSMT-4b" transform="translate(668.041992 0.234375)"/>
     <use xlink:href="#TimesNewRomanPSMT-46" transform="translate(740.258789 0.234375)"/>
     <use xlink:href="#TimesNewRomanPSMT-29" transform="translate(795.874023 0.234375)"/>
    </g>
   </g>
   <g id="legend_1">
    <g id="patch_7">
     <path d="M 336.5 57.238125 
L 381.8 57.238125 
Q 383.8 57.238125 383.8 55.238125 
L 383.8 41.56 
Q 383.8 39.56 381.8 39.56 
L 336.5 39.56 
Q 334.5 39.56 334.5 41.56 
L 334.5 55.238125 
Q 334.5 57.238125 336.5 57.238125 
z
" style="fill: #ffffff; opacity: 0.8; stroke: #cccccc; stroke-linejoin: miter"/>
    </g>
    <g id="line2d_26">
     <path d="M 338.5 47.658438 
L 348.5 47.658438 
L 358.5 47.658438 
" style="fill: none; stroke: #000000; stroke-width: 0.5; stroke-linecap: square"/>
    </g>
    <g id="text_16">
     <!-- $\theta_{m}$ -->
     <g transform="translate(366.5 51.158438) scale(0.1 -0.1)">
      <use xlink:href="#DejaVuSans-Oblique-3b8" transform="translate(0 0.234375)"/>
      <use xlink:href="#DejaVuSans-Oblique-6d" transform="translate(61.181641 -16.171875) scale(0.7)"/>
     </g>
    </g>
   </g>
  </g>
 </g>
 <defs>
  <clipPath id="p0f73a06245">
   <rect x="54" y="34.56" width="334.8" height="221.76"/>
  </clipPath>
 </defs>
</svg>
